<svg xmlns="http://www.w3.org/2000/svg" viewBox="0 0 48 48"><title>Paspoort Idkaart Gecombineerd</title><path d="M39.47 24.94h-7.48v2c0 .55-.45 1-1 1s-1-.45-1-1v-2h-7.96c-1.12 0-2.03.91-2.03 2.03v12.42c0 1.4 1.14 2.54 2.54 2.54h16.93c1.4 0 2.53-1.13 2.53-2.53V27.46a2.54 2.54 0 0 0-2.53-2.53Zm-11.96 5.07c.96 0 1.74.78 1.74 1.75s-.78 1.75-1.74 1.75-1.74-.78-1.74-1.75.78-1.75 1.74-1.75ZM30 36.94h-5c-.55 0-1-.45-1-1 0-1.16 2.33-1.62 3.5-1.62s3.5.46 3.5 1.62c0 .55-.45 1-1 1Zm6 0h-2c-.55 0-1-.45-1-1s.45-1 1-1h2c.55 0 1 .45 1 1s-.45 1-1 1Zm1-4h-3c-.55 0-1-.45-1-1s.45-1 1-1h3c.55 0 1 .45 1 1s-.45 1-1 1Zm-17.38-9.15c-.21.16-.41.34-.59.53V23.2l.58.58Zm-.59-8.81c0-.55-.45-1-1-1h-1.79c-.55 0-1 .45-1 1s.45 1 1 1h.79v3.87l-2.28-2.28c.15-.17.25-.39.25-.64 0-.55-.45-1-1-1h-1.22c-.14 0-.27.03-.39.08-.14.05-.27.12-.38.23a.996.996 0 0 0 0 1.41l1.2 1.2-2.41 2.41a.996.996 0 1 0 1.41 1.41l2.41-2.41 1.22 1.22-2.75 2.75a.996.996 0 0 0 .71 1.7c.26 0 .51-.1.71-.29l2.48-2.48s.01.03.02.04c0 0 .02 0 .02.02v3.77c0 .54.43.98.97.99v2.95h-5c-.55 0-1 .44-1 1 0 .55.45 1 1 1h5v6H8.04c-1.13 0-2.04-.91-2.04-2.04l.02-28.01c0-1.63 1.32-2.95 2.95-2.95H24.03c1.98 0 1.98 2 1.98 2H9c-.56 0-1 .44-1 1s.44 1 1 1h17.7c.61 0 1.19.24 1.62.67.44.43.68 1.01.68 1.63v10.71s-7.22.08-7.32.09l-1.54-1.54 1.22-1.22 2.42 2.42a.996.996 0 1 0 1.41-1.41l-2.42-2.42 1.2-1.2a.996.996 0 0 0-.72-1.7c-.03 0-.06-.02-.09-.02h-1.22c-.55 0-1 .45-1 1 0 .26.1.49.26.66l-2.18 2.18v-4.8Z"/></svg>