<svg xmlns="http://www.w3.org/2000/svg" viewBox="0 0 48 48"><title>Paspoort belgie</title><path d="M18.1 33.02h12.02V35H18.1v-1.98Zm-.57-10.5.54-.46.45.07.93 1.83.98.09.36 1.13 1.36-.26-.05.58v1.89l2.68-.05.89-1.07.06 2.22 2.18 1.21.46.85 1.61-.43-.07-1.06-.36-.57 1.09-2.42.55.22.81-2.22-.71-.46.33-.58-2.57-1.22.75-2.18-1.43-.99-1.15.24-.13-.1V18h-3v.26l-.91-.13-1.45 1.1-1.67-.52-.58-.47-3.49 1.8.27 1.65 1.26.83Zm16.46-11.51-18.98.06v-.02h-.03c-.56 0-1.01-.46-1.01-1.02s.45-1.02 1.01-1.02h.03L33.67 9c-.24-1.69-1.66-3-3.39-3H13.96C12.33 6 11 7.35 11 9.01L11.04 39a3 3 0 0 0 2.99 3h19.96c1.66 0 3.01-1.35 3.01-3.01V14.02c0-1.67-1.35-3.02-3.02-3.01ZM34.01 39H14V14h20v25Z"/></svg>
