<svg viewBox="0 0 48 48" xmlns="http://www.w3.org/2000/svg"><title>Bevrijding</title><path d="M19.23 7.73h-.07s.08-.04.07 0zm2.57.02s-.06.06-.07 0c-.01-.06.05-.03.07 0zm-2.8.1s0-.07 0 0zm2.37.05s-.09.09-.11.06c-.02-.03.1-.13.11-.06zm-1.95.03v.05c0 .05-.03-.11 0-.05zm1.93.07s-.01 0 0 0zM19.3 8c0 .1-.09 0-.09 0h.09zm-.54 0v.05c0 .05-.02-.11 0-.05zm.42.12s.01 0 0 0zm-.8.23h-.05s.05-.04.05 0zm2.22.26a.15.15 0 0 1-.1.09s.08-.11.1-.09zm-.42.48s-.05.08-.06 0c-.01-.08.06-.09.06 0zm-.44.5c-.06 0-.09.17-.16.17s.18-.29.16-.17zm-2.47.41s0 .06-.05 0 .05-.08.05 0zm-.27.46s0-.01 0 0zm-.09.23s.01 0 0 0zm.09.05s0-.06 0 0zm1.59.76h-.08v-.08c0-.02.1.04.08.08zm.14.5s0 .14-.05.14.01-.27.05-.14z"/><path d="M18.68 12.16v.05s-.01-.13 0-.05zm-.02.32c0 .43-.12.11 0-.1.02.02-.01.06 0 .1zm-.05.41s.01-.01 0 0zm.46 2.73s.02-.04 0 0zm-2.16.67s0-.01 0 0zm.24.77s0-.01 0 0z"/><path d="M23.89 6a7.73 7.73 0 0 1-1.59.62c0 .24-.44.21-.61.29.35 0 .07.11-.09.18-1.1.12-.39.08-1.53.43.07.17-.74.62-1 .63v-.07c0-.07.46-.34.25-.32.45-.36-.09-.16-.22 0s-.1.33-.35.18a6.23 6.23 0 0 0-1.74 2.61c-.07 0 0-.07-.11-.09-.11-.02.07.1 0 .18.31.16-.23 0-.14.14s.2.28-.05.22v.32c.23-.22-.25.75-.2 1.18-.05 0 0 .12 0 .17a8.55 8.55 0 0 0 .46 3.64h-.12c.122.145.232.298.33.46-.24-.15.29.92.46 1.08.249.415.547.798.89 1.14 0 0 .07 0 .07.09.52.66 1.89.72 2.2 0 1.5-.42-.33-1.79.37-1.2-.49 0-1-.9-1.37-1.33a.09.09 0 0 0-.06-.12c-.11-.17-.21-.55-.4-.49.1-.37-.2.09-.08-.16a.12.12 0 0 0-.07-.1c.09-.07-.14-.26-.1-.12-.06 0-.08 0-.12-.1-.84-1.23-.64-4 .17-5.46.34-.53.76-1 1-1.37 0 .06.07 0 0 0s.1-.08.16-.12c.06-.04.14-.13.2-.23s.13-.07.16-.14c.205-.111.4-.242.58-.39.12.26.45-.38.47-.18A7.18 7.18 0 0 0 23.89 6zm-4.52 1.63c.1 0 0 .13-.06.06s.04-.04.06-.06zm-2.18 2.69c0 .12-.1 0-.06-.06.04-.06.17.04.06.06zm3.58 7.81c.07-.07.13-.05.2 0 .03.14-.33.08-.21 0h.01zm-1.16-1.68s.11 0 .08.08-.11-.04-.08-.08zm-.09-.21l.06.06c.07.18-.13 0-.06-.06zm-.41-6.59h.05c.05 0-.16.03-.1 0h.05zm-.53.91s.06 0 0 0-.08.01-.08 0h.08zm0 .54c.05-.06 0-.14.06-.2s.07-.06.08-.08c.01-.02-.31.61-.25.28h.11zm-.12.06c-.01.04-.11.1-.11 0h.11zm0 .27v.1s-.14-.07-.12-.1h.12zm-.05.22c.05 0 0 .06 0 .09s-.16-.09-.12-.09h.12zm0 1.74s.09.13 0 .1-.15-.08-.13-.1h.13zm0-.19c-.09 0 0-.12 0-.15s-.12.11-.16.15h.16zm0 .1a.09.09 0 0 1-.09-.05s-.06.02-.06.05h.15zm0-.63s-.15-.01-.18 0h.18zm0-.09s-.11-.01-.18 0h.18zm0-.54c0 .05-.05 0-.05 0s-.1-.04-.11-.04l.16.04zm0 .17s.05.06 0 0-.21.01-.2 0h.2zm.05.11c-.12-.02-.2.06-.2 0h.2zm0-3.72c.07 0 0 .06 0 0s-.26 0-.24 0h.24zm-.07 4s-.25.03-.24.02l.24-.02zm0 .2s.08-.06 0-.09.07 0 0 0-.27.29-.23.11l.23-.02zm0 .55v.05c0 .05-.23-.01-.21-.03l.21-.02zm0 .23v-.06c0-.06-.16.14-.2.08l.2-.02zm0 .25s-.18.17-.18.02l.18-.02zm.07-.21c0 .1-.07-.11 0-.09.07.02-.12.08-.13.11l.13-.02zm0-.4c0-.09.11-.4-.06-.26 0-.1.21-.41.06-.49.01-.31 0 .67-.14.77l.14-.02zm.06-.91s-.15.02-.14.02l.14-.02zm.06 1.27c0 .15-.11-.23-.07-.33.04-.1.05.06.06.13.01.07-.1.16-.13.22l.14-.02zm0-1.31h-.05a1.63 1.63 0 0 0-.09-.19c-.05.11.19-.01.01.21l.13-.02zm.19-.93c-.15.46-.07.87-.34.47 0-.08.33 0 .17-.09 0-.06.08-.34 0-.25-.08.41-.05.15 0-.11-.27.1.12-.25.04 0l.13-.02zm.15-.51c0 .12-.1.22-.11.34-.01.12-.09 0 0-.13s-.01-.47-.02-.19l.13-.02zm.12-.25c-.13.21-.2 0 0-.08v.08zm.22-.6c-.14.16 0 .33-.24.42 0 .08-.09 0-.11.08 0-.15-.05.09-.1.12 0 .22-.12 0 0-.14a.43.43 0 0 1 .2-.39c-.25.82-.13-.45.12-.07l.13-.02zm.28-.51c-.14.08-.13.45-.32.42-.16.01.25-.64.19-.4l.13-.02zm.05-.18c-.05.14-.14-.11 0-.12.14-.01-.23.1-.13.14l.13-.02zm.05.1s-.08 0-.13.02l.13-.02zm.13.02s-.11.01-.13.02l.13-.02zm0-.28h-.05s-.01-.05-.11.02l.16-.02zM19.74 9c-.08.15-.12 0 0-.08s.07.01 0 .08zm.43-.7c0 .06-.12.09-.14.15-.48.34.16-.32.12-.15h.02zm.09-.07c-.08 0 .1-.15.1-.07 0 .08-.09.03-.12.07h.02zm.77-.5c-.27.13-.09 0 .06-.1s-.01.08-.09.1h.03z"/><path d="M31.56 9.48c-.47.14.18-.13-.12-.16.05-.16-.11-.07 0 .07-.13.16-.07-.14-.11-.2.77-.38-.46.08.16-.28a.55.55 0 0 0-.31-.41c-2.1-2.31-5.59-1.57-8 .67-.14-.15-.37.25-.29 0h-.08c.14.26-.19.13-.16.27a.05.05 0 0 1-.09 0c-.07 0 .06.17-.09.11-.1.19-.25.28-.34.48.07 0 .09 0 0 .08-.37-.17.81-1 0-.51 0 0 .14.06 0 0s-.09 0-.07.07c.02.07-.23.54-.42.54.05-.29-.14 0 0-.37-.12.19-.39.56-.18.7 0 0 0 .06.05.09s0 .15 0 .22c0 .26 6.68-5.45 9.17-1.44.16 0 .22.17.42.18.23-.34.07 0 .09.11.16-.27.37.23.37-.22zm-9.6.93c-.29.07 0-.38 0-.05.04.02.04.05.04.05h-.04zm0-.24c-.08 0 0-.12.08-.06s-.04.03-.04.06h-.04zm2.24-1.22c-.07 0 0-.08 0 0s.02-.08-.01-.09l.01.09zm.1-.16c-.09.08-.1-.13 0 0s.01-.11-.01-.09l.01.09zm.15-.29s-.1 0-.08-.07c.02-.07.1-.07.06-.02l.02.09zm.26-.12c-.06.05-.09 0-.14 0-.05 0 .15-.15.12-.09l.02.09zm0-.07c0-.05.09-.05.08 0-.01.05-.09-.05-.09-.09l.01.09zm.16.16c-.09.12-.21-.12-.05-.1.16.02.06-.04.04.01l.01.09zm.21-.08s-.09 0-.08-.07c.01-.07.13-.09.07-.02l.01.09zm5.6 1.08c-.05 0-.12 0-.05-.07.07-.07.13-.03.07-.02l-.02.09zm0-.91h-.08c-.02 0 .25-.16.14-.09l-.06.09zm.15-.16s.07 0 0 .06-.02-.18.06-.15l-.06.09zm0 .25h-.09c-.02 0 .2-.13.19-.09l-.1.09zm-.11-.15c0-.06.15 0 .07.07-.08.07-.01-.12.03-.16l-.1.09zm0 .33c-.07-.07.08-.12.1 0a.06.06 0 0 1 .01-.09l-.11.09zm.07.47c-.06 0 0-.1.06 0s.07-.1.05-.09l-.11.09zm.39-.43h.05c.05 0 .05-.06.06-.09l-.11.09zm0 .05c.11 0 0 .17-.06.12-.06-.05.14-.15.21-.21l-.15.09zm-.12 0c-.09.05-.16 0 0-.07s.26-.02.15.02l-.15.05zm-.09-.19h.09c-.15 0-.01.02.06-.05l-.15.05zm-.07.4s.1-.08.1-.13.13.07.05.08l-.15.05zm0-.03h.06c.06 0 .17-.02.16-.05l-.22.05zm.09.25s-.08 0 0-.06.27.01.22.01l-.22.05zm0-.09c-.05 0-.11-.05-.05-.09.06-.04.36 0 .3.04l-.25.05zm.25.38s-.07 0 0 0 .3-.08.25-.05l-.25.05z"/><path d="M25 7.78h.06c.01 0-.06-.01-.06 0zm-1.23.82v-.06s-.04.07 0 .06zm4.085.672c-.25-.64-1 0-.83.4.39.37 1.15.31.83-.4zM23.42 8.86s-.03.02 0 0zm-.17.05v-.06s-.02.06 0 .06zm0 .09s0-.06 0 0-.01 0 0 0zm-.18.1c.07 0 .08-.1 0 0s-.07-.01 0 0zm8.51-.03s-.01 0 0 0zm.03.12s-.01.01 0 0zm-9.07.12v-.08c0-.01-.09.1 0 .08zm9.15.25c-.23.14.07.09-.11.23.2.02.07-.11.11-.23zM22 9.69s.09-.11.06-.14l-.06.13v.01zm-.45-.05s0 .02 0 0zm9.59.05s.01-.02 0 0zm.22.07zm-9.97.36a2.12 2.12 0 0 1 .13-.38c-.06-.04-.18.36-.13.38zm10.39-.39s0 .12 0 0 .03 0 0 0zm-9.9.09a.24.24 0 0 0 .06-.08s-.12.05-.06.08zm9.5-.03s-.06 0 0 .05.09-.11 0-.05zm.31.01s.06.01 0 0zm-.19.02v.06s.03-.06 0-.06zm.07.06s0 .07.06 0-.03-.01-.06 0zm.36.01s.01-.02 0 0zm-10.22.3v-.06c0-.06.18-.39.07-.18-.02-.17-.13.24-.07.24zM31.87 10s.01 0 0 0zm-.08 0s.03 0 0 0zm-10.44.42a1.37 1.37 0 0 0 0-.28c-.04.04-.02.23 0 .28zm.04.18c-.05-.12-.07 0 0 .09s.05-.08 0-.09zm11.66-.6v-.05c0-.05-.13.11 0 .05zm.04 0s-.03 0 0 0zm-.21 0s-.06.06 0 0zm-.16 0c0-.05-.12 0-.07.05a.18.18 0 0 0 .07-.05zm-.72.22h.06c.06 0 .07 0 0 .05a2.77 2.77 0 0 0 .34-.1c.19-.17-.47-.01-.4.05zm.53-.08s-.01 0 0 0zm.27.07s-.06 0 0 0zm.84-.01a.09.09 0 0 0 0 .1s.03-.08 0-.1z"/><path d="M33.55 10.29c0-.09-.15 0-.21-.06-.48-.06-1.17.2-1.33 0-.35 0-.58.5-.78.22v.05c-3 1.17-2.62 5.56-4.64 7.94 0 0 0 .05-.07.05s-.19.13-.22.24c-.47.55-1.4.91-1.67 1.44.12.07 0 .08 0 .15-.22 1.77 2.33-.07 2.74-.78-1 .52.8-1.33.74-1.88 0 .13.08.17.07 0-.01-.17.14-.3 0-.18 0-.07 0-.21.12-.2a12.7 12.7 0 0 1 5.25-6.99zm-2.7.67c-.05 0-.14.06-.17 0s.22-.12.14.04l.03-.04zm2.28-.36c-.06 0-.09-.05 0-.07.09-.02.05.03.01.06l-.01.01zm.07-.07c-.1 0 0-.13 0 0s.07-.01.05-.01l-.05.01zm.08-.09h-.09c-.03 0 .29-.15.17-.06l-.08.06z"/><path d="M31.77 10.29s.08-.06 0 0-.04 0 0 0zm-.31.15s.08 0 0-.08-.05.07 0 .08zm-.07.02v-.05c0 .01-.03.04 0 .05zm-.39.22c0-.07 0-.08.07-.12.07-.04-.18.12-.07.12zm.06 0s.14 0 .1-.07c-.04-.07-.11-.01-.1.07zm2.1-.01s0 .05 0 0 .03 0 0 0zm-.08.06s-.1.08-.06.09c.04.01.11-.05.06-.09zm-2.87.38s-.04.01 0 0zm-.16.22c.15-.1-.08-.1-.07 0h.07zm-.51.41s0-.05 0 0-.02.01 0 0zm-1.37 5.69c-.07-.08 0 .05 0 .07 0 .02-.01-.04 0-.07zM27 23.39c.15-.14.05-.19-.13-.2-.18-.01.31 0 .07-.14-.18.07 0-.08.06-.11s-.65-.06-.42-.14a8.92 8.92 0 0 0-1.45-.29c.51.43.07.75-.28 0 .05-.39-2.32 0-1.69 0 0 .19-.57 0-.37-.11.2-.11.09 0 .05-.07a6 6 0 0 0-1.12.08c.08.09.28.08.42.09.06 0 .1 0 0-.06.41.08-.4.3-.39.1a5 5 0 0 0-2.28 0c.13.09.38-.07.51 0-2.14-.3-3.53.95-5.25 2 0 0 0 .11-.05.12-.05.01 0 .07 0 .1s.23.11 0 .29c.25.1-.14 0-.07.2.36-.1.17.09.09.33.05 0 .38.11.1-.08 0-.13.31-.14.31 0 .318.39.846.538 1.32.37.28.3 2.57.13 1.82.89 0 .06-.09.05-.09.14 0 .09-.06 0-.05.07-.22.37-.78.78-.66 1.14-.35-.1-.36.34-.12.19-.07.53-.19.16-.33.6.29.07-.21.05-.15.14.2.3-.44-.06-.42.38.11-.3.51-.25.22.05.44.22.17.25-.15.06.19.18.17.14 0 .24.35.1-.07.13-.29.19.13.06.9.07.33.11-.24.24-.07.08.15.11-.17.12 0 .47 0 .19.27-.46.27.46 0 .18s-.42.53-.1.09c.49.1-.63.46-.27.42.15-.35.66 0 .16.09-.06.34.1 0 .11.29h-.12c-.08.18-.17.06.09.19-.22 0-.42.23-.15.13 0 .06.15 0 .11 0-.64.23.09.17-.38.29 0 0-.07.09-.06.16.37-.14-.27.37 0 .71-.22-.21-.38-.09-.3.25.3 0-.05 0-.12.12.13 0 .27.16.06.09h-.1a.24.24 0 0 1-.07.23c0-.44-.29.51-.12.36.15.16-.25 0-.2.23.11 0 0 .13 0 .23s-.06 0-.1 0c.17.1-.27.49-.11.54-.15.14-.18.22.06.25s-.41.05-.14.14a5.93 5.93 0 0 0-.41 1.36v.15c0 .03 0 .26-.12.35a1.42 1.42 0 0 1-.17.4.76.76 0 0 0-.53.77c-.07 0 0 .05-.08.09-.08.04-.06.07 0 .11.06.04-.15.27-.07.42.19-.32.18-.08.34-.13-.12.52-.51.74-.45 1.25-.17 0 .12.19-.18.16.16.07.35 0 .28.27-.07.27.79 1.8 1.35 1.29h.14c.03 0 .06 0 0 0 .86-.35 1.33-1.78 1.78-2.21 0-.2.12-.4.09-.08.17 0 .08-.91.24-.68.18-.38.08-1 .37-1.47a7.52 7.52 0 0 0 .42-1.53c.1.12.15-.12.23-.21-.09-.11.23-.13 0-.21.08-.11.46-1.5.49-.8.46 0-.14-.4 0-.35.14.05.39-.5.67-.95.2 0 .42-.61.67-.9.67-.91-.28.19-.48.59-.19.18-.29.2-.05-.33s0 .38.34-.17c.06-.06 0-.07 0 0-.17-.13.54-.73.56-.9.88-.44-.35.11.58-.86.14.13.15.13 0 .29.1 0 .21-.29.07-.28v-.06c-.05 0-.21.07-.1-.08.07.07.08-.08 0 0 .1 0 .17-.33.29-.2.07-.12 0-.37.14-.43a8.3 8.3 0 0 0 1.07-1.47 2.08 2.08 0 0 1 .24-.34c-.07-.09.17-.27.16-.42.16-.21.24-.54.47-.69-.63 1.39.76-1.56.63-1-.38.3 1-.69 1.57-.64.22 0 .22-.19.32 0 .49-.41-.7-.4.24-.67-.53.06-.09-.36.21-.15-.27-.25.25-.48.48-.37.05-.07.09-.58.19-.43.18-.19-.22-.37.07-.46zm-12.22 1.29c-.06 0 0-.14.06-.07s-.09.09-.11.11l.05-.04zm.56.65h-.17c-.04 0 .23-.11.28 0 .05.11-.12.02-.16.04l.05-.04zm.47.44c-.15 0-.1-.13 0-.06s-.03.09-.05.1l.05-.04zm.07 0c-.09 0 .06-.09.07 0 .01.09-.09 0-.12.01l.05-.01zm1.35.19h.05s-.08.04-.1.04l.05-.04zm.05-.1c-.35.16-.24-.27 0 0-.03-.02-.05 0-.05.01l.05-.01zm.19.1s-.15 0-.09-.08.1.05.03.12l.06-.04zm.36-.06h-.13c-.01 0 .09-.09.07.01l.06-.01zm.17.1h-.11c-.04 0 .11-.06.11 0zm-4.46 14.58s.11.04.1.04l-.1-.04zm0-.25s.12.02.12.04l-.12-.04zm.06-.76h-.02c.06 0 .15.02.14.04l-.12-.04zm0 .08s.15.05.15.04l-.15-.04zm0 .6s.21.04.19.04l-.19-.04zm0-.46s.2.05.19.04l-.19-.04zm0-.29s.2.07.22.04l-.22-.04zm0 .67s.27.05.24.04l-.24-.04zm0-.47s.27.04.25.04l-.25-.04zm.13-1s.27.03.27.04l-.27-.04zm0 1.44s.27.02.27.04l-.27-.04zm.98-4.23v.1c0 .03.04-.18.07-.09l-.07-.01zm.33-1.21c.06-.17.16 0 .06.08s-.04-.02.01-.04l-.07-.04zm0 .47c-.07 0-.1 0-.08-.1.02-.1.17.08.13.14l-.05-.04zm0-.13c-.05 0 0-.07 0-.06 0 .01.08.1.05.1l-.05-.04zm0-.13c-.12 0 .06-.08.1-.08.04 0 0 .11-.05.17l-.05-.09zm.25.15c-.05.06-.19.25-.13.07s.17-.29.18-.03l-.05-.04zm0-.25h-.05c-.05 0 .14-.04.14.04l-.09-.04zm-.06-.27c0 .18-.07.09-.06 0 .01-.09.29-.01.15.04l-.09-.04zm.08-.17c-.14 0-.09-.22 0-.11v.11zm.05-.18h-.06c-.24-.02.31-.11.15.04l-.09-.04zm.09.08s.14.01.09.04l-.09-.04zm.03-.27c0-.09.07-.06.05-.18.16-.1.04.24-.05.18zm.19.21c-.1.06-.12 0-.05-.08.07-.08.07.02.05.06v.02zm.19-.62s0 .09-.07 0 .21-.12.11-.02l-.04.02zM16 33c-.23 0-.09-.26 0 0zm.18-.49a.08.08 0 0 1-.09-.09c0-.02.16.1.04.12l.05-.03zm.72 6.82c-.08 0-.08-.07 0-.09.08-.02.02.09.02.12l-.02-.03zm.2-10.51c-.09-.08.05-.13.09 0 .04.13-.04.04-.07.03l-.02-.03zm-.15.37c.07-.07.19.05.08.09-.11.04-.13 0-.03-.06l-.05-.03zm-.16.06s.09-.08.1 0c.01.08-.06.06-.08.03l-.02-.03zm.08.17c0-.06 0-.07.07-.09.07-.02.06.21-.05.12l-.02-.03zm-.17.47c-.09-.06 0-.21.12-.17.12.04.01.28-.1.2l-.02-.03zm.41 0a.75.75 0 0 0-.07.12c-.08 0-.12.3-.24.12.15 0 .12-.11 0-.05s.24-.12 0-.11c.12.03.28-.18.33-.03l-.02-.05zm-.11-.06s-.12.06-.1 0c.02-.06.43.04.1 0zm.29-.59c-.13 0 0-.15.05-.06s-.01.04-.03.06h-.02zm.08-1.05h-.2c-.06 0 .1-.06.09-.12-.01-.06.16.07.15.12h-.04zm.38-.73c.05-.12.17.07.07.12-.1.05-.13-.07-.03-.12h-.04zm-.1 1.46c0 .06-.06.15-.13.12s0-.24.13-.18.03.02 0 .04v.02zm0-1.06a.07.07 0 0 1-.1-.06s.14 0 .1.04v.02zm0-.12c-.22.05.3-.33.1 0-.04.04-.06-.04-.1-.02v.02zm.35-.47c-.07 0 0 .06-.06.09s0 0 0 .05c-.22.12-.07-.21 0-.26-.05.12.23.07.06.12zm.22-.23c-.18.23-.26 0 0-.05v-.07c0-.01.03.08.04.08l-.04.04zm.12-.25c0 .06-.21.17-.13 0 .09.08.26-.24.2 0h-.07zm.08.1c-.06-.05.06-.09.08 0 .02.09.03.01-.01 0h-.07zm.06 7.57c-.09 0 0-.1 0 0s.09-.01.07 0h-.07zm.16-.29s.11-.05.11 0h-.11zm.25-.26c0 .17-.07 0 0 0s.11-.02.11 0h-.11zm0-.23s-.13-.08-.05-.13.34.07.16.13h-.11zm.17-.26c-.17.12-.07-.13 0-.08s.15.05.15.08h-.15zm.47-.81s.18-.02.15-.02l-.15.02zm.51-.68s-.06 0-.05.08c.01.08 0 0-.07 0a.36.36 0 0 1 .12-.16s.15.05.15.06l-.15.02zm.44-.79c-.05 0 0-.06 0 0s.16-.01.15-.02l-.15.02zm.58-.71a.34.34 0 0 1 .05-.14c.11.01-.01.12-.06.14h.01zm.21-.36c-.09-.02.2-.17.04 0h-.04zm.11-.15c-.12.08 0-.07 0-.1s.1.07.04.1h-.04zm.39-.42c-.1 0 0-.1 0 0s.08-.01.06 0h-.06zm.19-.39a.54.54 0 0 1-.15.23s0 .08-.1.08.15-.28.25-.33v.02zm.11-.15s-.07 0-.05-.05c.02-.05.13.02.11.09l-.06-.04zm0-.31s.21-.13.08 0h-.08zm.05.3c-.05 0 0-.07 0-.1s.12.07.09.15l-.09-.05zm.06-.26h-.05s.14-.02.14 0h-.09zm0 0c-.05 0 0-.1 0 0s.14-.04.12-.04l-.12.04zm.06.08c-.08 0 0-.05 0-.08s.14.02.12.04l-.12.04zm.09-.58s.13-.06.12-.04l-.12.04zm.09-.1s-.07.09-.08 0c-.01-.09.19-.09.2-.04l-.12.04zm.2-.06v-.08c0-.08.17.05.12.05l-.12.03zm.71-1.32s.11-.04.12-.04l-.12.04zm-.11.34c-.11 0-.08.21-.18.18a.47.47 0 0 1 .3-.35c.19.03.09.12.04.12l-.16.05zm.12-.26c.14-.1.23-.05.16-.04l-.16.04zm0-.24s.07 0 0 0 .19-.02.2-.04l-.2.04zm0 .15s.26-.05.23-.04l-.23.04zm.17-4.17c.17.05 0 .11-.08 0s.28-.03.31-.04l-.23.04zm0 .2c-.23 0 .06-.11.11 0s.17-.05.13-.04l-.24.04zm.79 3a.06.06 0 0 1-.06-.05s.34.01.3.05h-.24zm.08-.05c.26-.09.35 0 .24 0h-.24zm.08-3.05c-.1 0 0-.11 0-.05s.28.06.24.05h-.24zm.23 3s.31-.02.24-.03l-.24.03zm.83-.34h.09c.03 0 .12.06.15-.03l-.24.03zm-.38.24c-.05 0-.09 0-.07-.06.02-.06.14.03.11.08l-.04-.02zm0-2.45c-.05 0-.11-.07-.06-.12.05-.05.19.13.09.14l-.03-.02zm.34 2.38c-.08 0-.33.07-.29 0 .04-.07.39-.05.32.02l-.03-.02zm-.06-.08c.18-.16.33-.03.03.02l-.03-.02zm1.4-2.06s0-.15.1-.09-.04.15-.07.13l-.03-.04z"/><path d="M21.57 22.44c.06 0 0-.1-.05-.07a.05.05 0 0 0 .05.07zm3.72.05v-.06s-.04.06 0 .06zm-3.65 0c.07 0 0-.09 0 0s-.01 0 0 0zm3.36.01s0 .02 0 0zm.44.02s-.02.01 0 0zm-6.02.01h-.06c-.01 0 .05.03.06 0zm7.23.29s-.04-.01 0 0zm-1.42.05c.05-.09-.05-.05-.09 0-.04.05.05 0 .09 0zm1.84.79s-.07 0 0 0 .01.01 0 0zm-.07.24zm-1 .73s0 .06 0 0 0-.02 0 0zm-11.41.77s0-.09 0 0-.03-.01 0 0zm.47.46c.07 0 .22.09.14-.06.07-.19-.11-.13-.14.06zm-.06-.18h-.06c.06.11.14.02.06 0zm-.08.1s-.01.01 0 0zm.71.22s-.04 0 0 0zm2.22.26v-.05s-.03.05 0 .05zm.37.1h-.06c-.06 0 .07.04.06 0zm5.57.1c-.05.06.08.06.08 0s-.06-.01-.08 0zm-.14.31s0 .05 0 0 .02-.02 0 0zm-.05.23s.01-.06 0 0zm-.04 0s.03 0 0 0zm-.13.26v.06s.05-.06 0-.06zm-.3.35s-.08.07 0 .1.02-.09 0-.1zm-.07.13s.02-.01 0 0zm-.26.5c-.09 0 .08.1.07 0-.01-.1-.05.01-.07 0zm-5.69.28v-.06c0 .01-.05.07 0 .06zm-.11.13c0-.29-.44.45-.19.14.09-.05.1-.18.19-.14zm-.15.19h.09c-.01 0-.09-.05-.09 0zm5.58-.02s-.05.08 0 .06c.05-.02.04-.07 0-.06zm-5.62.06s.01-.02 0 0zm-.1.12s0-.07 0 0zm-.03.07v-.05s-.03.06 0 .05zm-.03.24c.06-.06-.09-.09-.07 0 .02.09.05-.01.07 0zm-.29.19s-.08.07-.06.13c.02.06.21-.13.06-.13zm5.55.04s0 .05 0 0 .01-.01 0 0z"/><path d="M16.4 29.58c0 .05.08.14.09.05.01-.09-.06-.06-.09-.05zm-.13.11c-.08 0 0 .08 0 .08s.11-.1 0-.08zm5.5.07s-.05.06 0 .06.04-.06 0-.06zm-5.58.05s0-.02 0 0zm-.08.19c0 .09.16-.11.08-.12a.25.25 0 0 0-.08.12zm5.48 0a.14.14 0 0 1-.09.08c.03.18.21-.08.09-.08zm-5.53.08s.05.05.07.05c.02 0-.03-.13-.07-.05zm5.36.03s-.08 0-.05.06.15-.12.05-.06zm-5.12.01v.09s.07-.12 0-.09zm-.12.15s.11-.1 0 0zm.18-.01v.1c0 .03.07-.13 0-.1zm-.36.02s0-.02 0 0zm5.39.04s-.05.06 0 .05c.05-.01.05-.08 0-.05zm-4.92.03s-.01.03 0 0zm-.05.03c-.1 0 .06.17 0 .06-.06-.11.02-.05 0-.06zm.17.04h-.1s.09.05.1 0zm-.36-.01a.1.1 0 0 0-.06.05c.04.07.17-.04.06-.05zm-.01.21c0 .05-.06.06 0 .1.06.04.2-.23 0-.1zm4.98-.03s-.06.05 0 .07c.06.02.06-.1 0-.07zm-5.39.01s.01-.02 0 0zm.55.06c0 .05.06 0 .06 0s-.06-.04-.06 0zm-.57 0s.01-.01 0 0z"/><path d="M16.28 30.76c0-.06-.13 0-.11 0 .02 0 .12.11.11 0zm-.43 0s.02 0 0 0zm.15.09h.06c.01 0-.06-.06-.06 0zm.21.08c0-.05-.07-.05-.07 0s.07.07.07 0zm-.13.07v-.07c0 .03-.08.07 0 .07zm4.86-.08c-.05 0 0 .06 0 .08 0 .02.06-.1 0-.08zm-5.08.08s.01 0 0 0zm-.08 0s-.01.05 0 0zm5.12.09c-.09-.1-.08.12-.13.17.11.02.07-.13.13-.17zm-4.85.17v-.05c0 .14.17-.05 0 0 .13-.15-.05-.03 0 .05zm4.84-.05h.05s-.05-.02-.05 0zm-.18.08v.08c.02.06.1-.15 0-.08zm-4.5.03v.05c0 .05.04-.07 0-.05zm4.67.06s.01 0 0 0zm-4.69.2c.06 0 .08-.15 0-.1-.08.05-.05.11 0 .1zm-.25-.04h.08s-.02-.03-.08 0zm-.02-.01s0 .01 0 0zm-.2.08s0-.05 0 0-.01 0 0 0zm4.9 0v.06c0 .06.04-.06 0-.06zm-4.46.11h-.05c-.05 0 .05.02.05 0zm-.65.04c0 .06.07 0 0-.05s.01.03 0 .05zm4.9-.02c0 .16-.13.05 0 .24.03.02.13-.3 0-.24zm-4.74.04h.12c-.01 0-.13-.06-.12 0zm4.88-.01c-.05 0-.07.11-.05.13.02.02.09-.12.05-.13zm-4.45.12v-.08c0 .07-.1.1 0 .08zm-.17-.04s.05 0 0 0 0-.03 0 0zm-.54.05s-.02 0 0 0zm.73.1s-.03 0 0 0zm-.43 0zm.16 0zm.15.05s0-.13 0 0zm-.42-.05s0 .05 0 0 .01 0 0 0zm4.78.06c0-.14 0 0 0 0s.12.02 0 0zm-4.85.02c0 .07.34.09.19 0-.08.05-.31-.15-.19 0z"/><path d="M15.37 32.1s.1 0 .09-.08c-.01-.08-.13.05-.09.08zm.46-.03s-.06 0 0 0 0 .01 0 0zm.08.05c0-.07-.12 0-.13.07-.01.07.1-.04.13-.07zm-.6.04s-.07.14 0 .1c.07-.04.06-.09 0-.1zm.03.13c-.07.18.09 0 .12-.08s-.12.03-.12.08zm.33-.03c0-.11-.28.05-.17.11.05-.12.11-.02.17-.11zm4.42-.03c0 .05.05.05.05 0s-.04-.03-.05 0zm-4.83.13s-.01 0 0 0zm.32.02v.09c0 .02-.02-.07 0-.09z"/><path d="M15.71 32.63c.31-.11-.2 0 .07-.22-.19.02-.22.11-.07.22zm-.34-.19h-.06s.06.04.06 0zm.14.26v-.17c0-.05-.1 0-.13.1s.1.09.13.07zm-.2-.11s0 .07 0 0 .02-.03 0 0zm4.8 0s.02-.02 0 0zm-.04.01s.03-.01 0 0zm-4.45.06h-.08s.07.03.08 0zm.03.03c.01-.07-.06-.01 0 0zm4.29.04v.07c0-.01.06-.11 0-.07zm-4.31.06c0-.08-.08 0-.06.05.02.05.04-.03.06-.05zm-.18.04c0-.06-.08 0-.07 0 .01 0 .06.03.07 0zm-.19-.03v.05s.04-.06 0-.05zm.27.07v-.06s-.03.07 0 .06zm3.98.06c-.08 0-.09.17 0 .08.09-.09.15-.16 0-.08zm-3.84.07s-.04 0 0 0zm3.99.11s0 .07 0 0 .01 0 0 0zm-4.5.23s0 .02 0 0zm.09.01v.06c0 .06.07-.05 0-.06zm-.25.44c0 .07.08-.06 0 0s0-.02 0 0zm.14 0c-.07.29.11.03 0 0zm.26.08s-.03-.02 0 0zm-.4.07s.09-.06 0-.08c-.09-.02-.08.14 0 .08zm.15.06v.1c0-.07.02-.1 0-.1zm-.09.05s.01.07 0 0zm-.06.07s0-.01 0 0zm-.11.05s-.01-.01 0 0zm.11.15s.07-.09 0-.08c-.07.01-.07.08 0 .08zm.08.05v-.06s-.08.07 0 .06zm-.08.21s.05 0 .06-.08c.01-.08-.12.08-.06.08zm3.67.2c-.08 0-.34.38 0 .19.13.03.04-.14 0-.19zm-.18.38h-.06.06zm.07.03c0 .05-.11.16-.06.2.05.04.16-.12.06-.2zm-.14.07c0-.07-.14.14 0 .06a.07.07 0 0 0 0-.06zm-.07.14c-.07.05-.11.16 0 .11s.06-.11 0-.11zm.12.13c0-.08-.09 0 0 0s.01.02 0 0zm-.14.03v.06c0-.01.03-.06 0-.06zm.13.05s.02 0 0 0zm-.22.1c-.1 0-.07.17 0 .16.07-.01.07-.15 0-.16zm-.24.11v.07s.07-.05 0-.07zm.13.18c-.11.11.12.06.09 0s-.04 0-.09 0zm.03.12s-.02.03 0 0zm-.08.03v.05c0-.01.04-.06 0-.05zm-.08.01s0-.02 0 0zm-3.48.07c0-.08 0 0 0 0s0 .03 0 0zm3.55.09h.06c.01 0-.06-.04-.06 0zm-3.65.09s-.03 0 0 0zm3.58-.03s0 .06 0 0 0-.02 0 0zm.2.08s0-.09-.06-.06.02.1.06.06zm-.2 0v.06c0 .06.07-.08 0-.06zm-.1.02c-.15-.11 0 .29 0 .09-.02-.03.01-.05 0-.09zm.3.05s-.05 0-.05.09.12-.09.05-.09z"/><path d="M18.12 36.67c-.06 0 0-.08 0-.1-.2.24.22.12 0 .1zm-.2-.05c0 .06.06.09 0 .18s.08-.23 0-.18zm-3.59.08s-.02 0 0 0zm3.44-.02s-.06.11 0 .1c.06-.01.05-.09 0-.1z"/><path d="M17.89 36.74s-.06 0-.05.07c.01.07.16-.08.05-.07zm-3.66.26s.13-.2.07-.25c-.03.13-.17.17-.07.25zm3.85-.19c-.06-.05-.06 0-.1.06-.04.06.17-.01.1-.06zm-.25.11c-.07 0 .06.11.07 0 .01-.11-.04.01-.07 0zm.17 0s-.06.12 0 .14c.06.02 0-.12 0-.14zm-3.91.45a.42.42 0 0 0 .11-.32c-.03.09-.12.24-.11.32zm3.57-.07c0 .31.21-.16.07-.13-.14.03-.01.09-.07.13zm-3.46-.05c0 .11.13 0 .09 0-.04 0-.07-.02-.09 0zm-.02.2s-.07-.06-.07 0 .08.07.07 0zm3.46.01s0 .02 0 0zm-3.58.13v-.09c0-.01-.06.09 0 .09z"/><path d="M14.13 37.51v.05c0 .05.04-.04 0-.05zm3.44.09c.06.07.11 0 .11-.05s-.09.02-.11.05zm.16-.02v.06s.04-.09 0-.06zm0 .13c0-.09-.1.15-.11 0-.21-.04.28.5.11 0zm-.24.08v-.07c0 .02-.03.07 0 .07zm-.09.21c.08 0 .25-.06.09-.11s-.2-.01-.09.11z"/><path d="M17.62 37.9c0 .09-.09.09-.11.13.13.2.25-.03.11-.13zm-.32.31c0 .06.25-.11.11-.14-.09.02-.09.09-.11.14zm.2.02s.05-.09 0-.12 0 .09 0 .13c-.05.1.1.02 0-.01zm.11-.07s.02 0 0 0z"/><path d="M17.4 38.22c0 .05-.06.06-.1.08-.25.11.34 0 .1-.08zm.01.23v-.08c0-.03-.08.12 0 .08zm-.06.08c-.06 0-.06.08 0 .11s.1-.18 0-.11zm-.03.21s.01 0 0 0zm-.16.26c-.05 0-.07.11 0 .09.07-.02.04-.09 0-.09zm-3.49.14a.07.07 0 0 0 0-.06c.03-.08-.06.08 0 .06zm-.16.3s0-.06 0 0-.03 0 0 0z"/></svg>