<svg viewBox="0 0 48 48" xmlns="http://www.w3.org/2000/svg"><title>Computerregeling</title><g fill="none" fill-rule="evenodd"><path d="M12.01 11.5h23.95v15.04H12.01zM11.93 28l-2.87 9h29.88L36 28z"/><path d="M42 36.6l-3-9.26V11.5a3 3 0 0 0-3-3H12a3 3 0 0 0-3 3v15.84L6 36.6a1.83 1.83 0 0 0 0 .4 3 3 0 0 0 3 3h30a3 3 0 0 0 3-3 1.83 1.83 0 0 0 0-.4zM23.25 9.5h1.5v1h-1.5v-1zM12 11.5h24v15H12v-15zM9 37l2.87-9H36.1l2.9 9H9z" fill="#000" fill-rule="nonzero"/><path fill="#000" fill-rule="nonzero" d="M13.01 29.54l-1.79 5.96h25.55l-1.81-5.96z"/><path fill="#FFF" fill-rule="nonzero" d="M23.25 9.5h1.5v1h-1.5z"/></g></svg>