<svg xmlns="http://www.w3.org/2000/svg" viewBox="0 0 48 48"><title>Duurzaamheid</title><path fill-rule="evenodd" d="M29.358 25.477a4.52 4.52 0 013.184-.128c.097.032.189.074.277.124L37.4 28.12h4.597v3h-5c-.263 0-.522-.07-.75-.2l-4.774-2.759a1.526 1.526 0 00-.936.076l-7.996 3.477 1.127.564c.286.143.823.115 1.303-.062l4.97-1.989 1.113 2.786-5 2c-.64.24-1.283.36-1.897.36-.491 0-.949-.103-1.381-.253h-5.779c-.165 0-.329-.027-.485-.082l-5.506-1.884a1.516 1.516 0 00-1.861.755l8.138 3.211 9.159-.002c.525 0 1.042-.09 1.535-.27l4.012-1.458a4.474 4.474 0 011.537-.27h8.471v3h-8.471a1.47 1.47 0 00-.513.09l-4.011 1.457a7.474 7.474 0 01-2.56.451l-9.445.002c-.188 0-.375-.036-.549-.105l-8.871-3.5a2.517 2.517 0 01-1.42-3.202l.124-.33c.854-2.277 3.416-3.469 5.711-2.662l5.255 1.8h2.324a2.97 2.97 0 011.774-3.156zM21.087 7c6.63 0 12.007 5.376 12.007 12.007 0 1.622-.325 3.167-.908 4.578a6.03 6.03 0 00-3.298.399l-.433.188a8.952 8.952 0 001.639-5.165c0-4.967-4.04-9.007-9.007-9.007-.12 0-.235.014-.353.018-.998.54-1.551 1.93-1.123 2.969.075.182.399.369.602.361 1.432-.054 2.865-.123 4.29-.263.66-.064 1.185.081 1.618.59.259.306.473.668.773.921.96.81.973 1.721.565 2.873-.612 1.723-.896 2.026-2.645 2.032-1.348.004-2.225 1.193-1.892 2.598.19.801.07 1.503-.456 2.131-.361.43-.724.862-1.047 1.325-.35.503-.668.489-1.084.082-.4-.392-.843-.734-1.274-1.089-.57-.469-.941-1.066-.847-1.829.214-1.718-.336-3.205-1.162-4.63a5.05 5.05 0 01-.277-.585c-.188-.446-.072-.729.408-.836.553-.122 1.276-.934 1.209-1.442-.1-.764-.762-.484-1.198-.597-.303-.079-.66-.009-.925-.145-.423-.218-1.332-.948-1.886-1.471a8.965 8.965 0 00-2.302 5.994c0 4.612 3.485 8.42 7.96 8.941a4.427 4.427 0 00-1.756 2.56h-.637c-4.954-1.479-8.567-6.065-8.567-11.501C9.08 12.376 14.456 7 21.087 7z"/></svg>
