<svg xmlns="http://www.w3.org/2000/svg" viewBox="0 0 48 48"><title>Economie Werk Inkomen</title><path fill-rule="evenodd" d="M37.033 21.094c2.492.04 4.424 1.885 4.424 4.256l-.014 13.593h-2.986v2.99s-9.029.032-9.029-.036V30.37c0-2.611-2.15-4.735-4.795-4.735l-1.179-.003v-.406c0-2.29 1.955-4.071 4.484-4.122v-.01h9.095zM15.985 25.65l2.967.005c.787 0 1.427.574 1.5 1.316l.007.14v1.515l4.174.01c.947 0 1.715.695 1.79 1.59l.005.144v9.829c0 .914-.72 1.657-1.647 1.729l-.148.006H10.276c-.947 0-1.715-.697-1.79-1.593l-.005-.142.009-9.852c0-.915.712-1.658 1.638-1.73l.148-.005 4.167.014v-1.484c0-.827.686-1.491 1.542-1.491zm2.953 1.47h-2.977v1.52h2.977v-1.52zM32.491 6.093c3.682 0 6.679 2.996 6.679 6.678s-2.997 6.679-6.679 6.679a6.687 6.687 0 01-6.678-6.679 6.686 6.686 0 016.678-6.678zm-17.695-.092c1.317 0 2.373.28 3.228.85l-.847 1.808c-.631-.452-1.449-.661-2.381-.661-1.478 0-2.88.69-3.591 2.17l-.123.237h5.278l-.71 1.516h-4.888a3.958 3.958 0 00-.037.588c0 .346.019.577.039.71l.041.197h4.145l-.691 1.473h-3.041l.006.02c.711 1.403 2.055 2.075 3.553 2.075 1.075 0 2.016-.308 2.669-.922l1.075 1.65c-.902.77-2.208 1.307-3.744 1.307-2.592 0-5.031-1.46-5.953-4.11l.001-.02H7.018v-1.473h1.484l-.023-.196a6.808 6.808 0 01-.039-.691c0-.3.019-.426.037-.608H7.013v-.016H7l.013-.01v-1.49h1.72l.072-.237C9.727 7.478 12.223 6 14.796 6zm19.603 3.908c-.477 1.908-2.385 2.862-4.293 2.862-1.117 0-1.941-.3-2.704-.881-.05.288-.089.579-.089.881a5.185 5.185 0 005.178 5.179c2.717 0 4.927-2.111 5.138-4.775-1.657-.3-3.23-1.559-3.23-3.266z"/></svg>
