<svg viewBox="0 0 48 48" xmlns="http://www.w3.org/2000/svg"><title>Eikenprocessie</title><g fill="none"><path d="M24.69 42l.73-2.71L24 41.78l-3-1.75 1.3-2.24-1.9 1.9-2.48-2.47 1.85-1.85-2.14 1.24-1.75-3 2.06-1.19-2.39.58-.9-3.38 3-.8a.17.17 0 0 0 0-.07h-2.9V26.4l-1.65-1.65h-2.85v-2.36l-1.7 1.7-2.48-2.48L8 19.71H5.29v-3.5H8l-1.91-1.9 2.48-2.48 1.7 1.7v-2.28h3.5v2.55l.72-2.67 3.38.91-.73 2.71 1.46-2.53 3 1.75-1.29 2.24 1.9-1.9 2.47 2.47-1.85 1.85L25 17.39l1.75 3-2.07 1.19L27 21l.9 3.38-3 .81v.06h2.87v2.32l1.68 1.68h2.86v2.36l1.7-1.7 2.47 2.48-1.9 1.9h2.69v3.5h-2.71l1.9 1.9L34 42.17l-1.7-1.7v2.28h-3.5V40.2l-.72 2.67-3.39-.87zm3.45-10.09a5 5 0 0 0 .65.22v-.87l-.65.65zm-2.85-3.12c.088.245.188.485.3.72l.72-.72h-1.02zm-8.08-3.5a5.28 5.28 0 0 0-.29-.69l-.7.69h.99zm-3.46-2.47l.63-.64a4.26 4.26 0 0 0-.63-.22v.86z" fill="#000"/><path d="M13 12v3a9.26 9.26 0 0 1 1.17.11l.83-3.06 1.93.52-.81 3c.381.126.755.273 1.12.44l1.62-2.78 1.73 1L19 17c.31.21.62.44.91.68l2.32-2.32 1.41 1.41-2.32 2.33c.24.28.47.57.69.88l2.71-1.56 1 1.73L23 21.7c.16.33.3.67.43 1l3-.8.57 1.95-3 .79a12 12 0 0 1 .2 1.36H27v2h-2.66a6 6 0 0 0 1.12 2.66l2.16-2.16L29 29.91l-2.1 2.14a5.66 5.66 0 0 0 2.64.93V30h2v3.42L34 31l1.41 1.42L32.75 35h3.75v2h-3.75l2.65 2.65-1.4 1.46-2.45-2.45V42h-2v-3a11 11 0 0 1-1.17-.11L27.54 42l-1.93-.52.81-3a9.25 9.25 0 0 1-1.14-.48l-1.6 2.77-1.73-1L23.54 37c-.32-.21-.62-.44-.92-.68l-2.3 2.3-1.42-1.4 2.3-2.3c-.25-.28-.48-.58-.7-.88l-2.68 1.54-1-1.73 2.66-1.53c-.16-.34-.31-.68-.44-1l-3 .79-.52-1.93 2.92-.78a12.52 12.52 0 0 1-.14-1.4h-2.8v-2h2.66a6.09 6.09 0 0 0-1.1-2.64l-2.15 2.14-1.41-1.41L15.62 22A5.49 5.49 0 0 0 13 21v3h-2v-3.42L8.55 23l-1.41-1.39L9.79 19H6v-2h3.79l-2.65-2.69 1.41-1.42L11 15.34V12h2m.94-1.79l-.08.29H9.5v1.22l-.95-1-1.06 1.11-1.42 1.42L5 14.31l1.06 1.06.1.09H4.54v5h1.63l-.1.09L5 21.61l1.06 1.06 1.42 1.42 1.06 1.06.95-.95v1.3h3.29l1.06 1.06.15.15V29l-.27.08.38 1.44.52 1.94.21.79h-.07l.15.24.1.38h.1l.4.71 1 1.73.42.73-.16.16 1.06 1.06 1.42 1.41 1.06 1.06.13-.13.75.43 1.73 1 1.3.75.09-.16.9.24 1.93.52 1.45.39.08-.29H33v-1.2l1 .95 1.06-1.06 1.41-1.42 1.06-1.06-1.06-1.06-.09-.09H38v-5h-1.63l.09-.09 1.06-1.06-1.06-1.06-1.41-1.42L34 28.85l-1 .95v-1.3h-3.3l-1.06-1.06-.18-.18V25l.31-.09-.39-1.44-.51-1.94-.21-.79h.06l-.14-.24-.1-.38h-.1L27 19.4l-1-1.73-.42-.73.15-.16-1.06-1.06-1.41-1.41-1.06-1.06-.14.13-.72-.38-1.73-1-1.3-.75-.1.16-.89-.24-1.93-.52-1.45-.39v-.05z" fill="#FFF"/><path d="M34.5 21.75a8.25 8.25 0 1 1 8.25-8.25 8.26 8.26 0 0 1-8.25 8.25zm0-5a.22.22 0 1 0 .19.06.23.23 0 0 0-.19-.06zm.25-2.5v-4.5h-.5v4.5h.5z" fill="#000"/><path d="M34.5 6a7.5 7.5 0 1 1 0 15 7.5 7.5 0 0 1 0-15m-1 9h2V9h-2v6m1 3a.94.94 0 0 0 .72-.28 1.07 1.07 0 0 0 0-1.44 1.07 1.07 0 0 0-1.44 0 1.07 1.07 0 0 0 0 1.44.94.94 0 0 0 .72.28m0-13.5a9 9 0 1 0 0 18 9 9 0 0 0 0-18z" fill="#FFF"/></g></svg>
