<svg viewBox="0 0 36 36" xmlns="http://www.w3.org/2000/svg"><title>Eikenprocessie</title><path d="M7 6v3a9.26 9.26 0 0 1 1.17.11L9 6.05l1.93.52-.81 3c.381.126.755.273 1.12.44l1.62-2.78 1.73 1L13 11c.31.21.62.44.91.68l2.32-2.32 1.41 1.41-2.32 2.33c.24.28.47.57.69.88l2.71-1.56 1 1.73L17 15.7c.16.33.3.67.43 1l3-.8.57 1.95-3 .79a12 12 0 0 1 .2 1.36H21v2h-2.66a6 6 0 0 0 1.12 2.66l2.16-2.16L23 23.91l-2.1 2.14a5.66 5.66 0 0 0 2.64.93V24h2v3.42L28 25l1.41 1.42L26.75 29h3.75v2h-3.75l2.65 2.65-1.4 1.46-2.45-2.45V36h-2v-3a11 11 0 0 1-1.17-.11L21.54 36l-1.93-.52.81-3a9.25 9.25 0 0 1-1.14-.48l-1.6 2.77-1.73-1L17.54 31c-.32-.21-.62-.44-.92-.68l-2.3 2.3-1.42-1.4 2.3-2.3c-.25-.28-.48-.58-.7-.88l-2.68 1.54-1-1.73 2.66-1.53c-.16-.34-.31-.68-.44-1l-3 .79-.52-1.93 2.92-.78a12.52 12.52 0 0 1-.14-1.4H9.5v-2h2.66a6.09 6.09 0 0 0-1.1-2.64L8.91 19.5 7.5 18.09 9.62 16A5.49 5.49 0 0 0 7 15v3H5v-3.42L2.55 17l-1.41-1.39L3.79 13H0v-2h3.79L1.14 8.31l1.41-1.42L5 9.34V6h2M28.5 0a7.5 7.5 0 1 1 0 15 7.5 7.5 0 0 1 0-15zm-.72 10.28a1.07 1.07 0 0 0 0 1.44.94.94 0 0 0 .605.279L28.5 12a.94.94 0 0 0 .72-.28 1.07 1.07 0 0 0 0-1.44 1.07 1.07 0 0 0-1.44 0zM29.5 3h-2v6h2V3z"/></svg>