<svg xmlns="http://www.w3.org/2000/svg" width="48" height="48" viewBox="0 0 48 48"><title>Evenementen</title><path fill-rule="evenodd" d="M29.941 6.07L24.001 9V6l5.94.07zM37.33 39H30a4.505 4.505 0 0 1-4.5-4.5v-5.175h-3V34.5c0 2.481-2.019 4.5-4.5 4.5h-7.303l1.014-13h24.817l.801 13zM9 21.62c7.378-2.275 12.9-5.803 15-7.268 2.1 1.465 7.622 4.993 15 7.268V23H9v-1.38zm33-2.254l-1.09-.309c-9.304-2.642-15.928-7.694-15.994-7.745L24 10.607l-.915.705c-.067.051-6.69 5.103-15.995 7.745L6 19.367V26h2.703l-1.25 16H18c2.455 0 4.63-1.19 6-3.019a7.486 7.486 0 0 0 6 3.02h10.52l-.987-16H42v-6.635z"/></svg>