<svg xmlns="http://www.w3.org/2000/svg" width="48" height="48" viewBox="0 0 48 48"><path fill-rule="evenodd" d="M35 34.75a5.506 5.506 0 0 1-5.5-5.5 5.506 5.506 0 0 1 2.885-4.838l1.913 5.102a.75.75 0 0 0 1.404-.528l-1.911-5.097c.39-.088.793-.139 1.209-.139 3.033 0 5.5 2.467 5.5 5.5s-2.467 5.5-5.5 5.5zm-22 0a5.506 5.506 0 0 1-5.5-5.5c0-3.033 2.467-5.5 5.5-5.5.542 0 1.063.082 1.558.229l-1.554 3.44a1.747 1.747 0 0 0-1.504 1.734c0 .918.689 1.672 1.602 1.754l4.976.451A5.505 5.505 0 0 1 13 34.75zm4.995-14.737l2.678 6.699-1.118.101a7.008 7.008 0 0 0-3.01-3.591l1.45-3.209zm-3.27 7.24l1.198-2.653a5.521 5.521 0 0 1 2.069 2.356l-3.267.297zm15.292-8.003l-6.463 7.603a2.7 2.7 0 0 0-1.212-.292h-.006l-.097.008-2.928-7.319h10.706zm4.983 3c-.602 0-1.182.084-1.738.227l-.382-1.018-3.178-7.998a2.229 2.229 0 0 0-.824-1.06A2.24 2.24 0 0 0 27.596 12H24.5v1.5h3.096a.755.755 0 0 1 .707.501l1.489 3.749H18.71l-.4-1h-1.62l.532 1.33-2.042 4.521A6.986 6.986 0 0 0 13 22.25a7 7 0 0 0 0 14 6.998 6.998 0 0 0 6.624-4.752l2.78.252A2.6 2.6 0 0 0 25 29.153c0-.465-.133-.896-.351-1.274l6.247-7.35L31.48 22l.376 1.002A6.995 6.995 0 0 0 35 36.25c3.865 0 7-3.135 7-7s-3.135-7-7-7zm-.5-2.5H36v-3h-1.5a1.5 1.5 0 0 0 0 3m-16.79-4.5h1.54a.75.75 0 0 0 0-1.5h-4.238v1.5H17.71z"/></svg>