<svg viewBox="0 0 48 48" xmlns="http://www.w3.org/2000/svg"><title>Fiets</title><path d="M35 22.08a6.7 6.7 0 0 0-1.74.23l-.29-.8-.08-.21-3-7.88A2.3 2.3 0 0 0 27.78 12h-2.32v1.5h2.32a.76.76 0 0 1 .43.14.84.84 0 0 1 .28.36l1.34 3.55H18.69l-.67-1h-1.8l1 1.54-2.16 4.35a7.12 7.12 0 0 0-2.06-.36A7 7 0 1 0 19.93 30h5.57a.75.75 0 0 0 .69-.47l4.27-10.41 1 2.69.27.7.11.3a7 7 0 1 0 3.16-.73zm-16.8-2.6l6 9H20A7 7 0 0 0 16.46 23l1.74-3.52zm.28 9h-4.77l2.08-4.18a5.54 5.54 0 0 1 2.69 4.22v-.04zM13 34.58a5.5 5.5 0 0 1 0-11 5.38 5.38 0 0 1 1.4.19l-2.57 5.16A.75.75 0 0 0 12.5 30h5.92A5.51 5.51 0 0 1 13 34.58zm12.39-7L19.69 19h9.2l-3.5 8.58zm9.61 7a5.5 5.5 0 0 1-2.61-10.34l1.91 5.1a.74.74 0 0 0 1 .44.74.74 0 0 0 .44-1l-1.92-5.1a5.41 5.41 0 0 1 1.18-.1 5.5 5.5 0 0 1 0 11z"/><path d="M34.24 19h1v-2.48h-1a1.24 1.24 0 1 0 0 2.48zM19 14.25a.75.75 0 0 0-.75-.75H14V15h4.23a.75.75 0 0 0 .77-.75z"/></svg>