<svg id="guides" xmlns="http://www.w3.org/2000/svg" viewBox="0 0 48 48"><title>Gladheid</title><circle cx="7.71" cy="38.75" r="0.75"/><circle cx="6.71" cy="41.25" r="0.75"/><circle cx="9.21" cy="36.25" r="0.75"/><circle cx="10.21" cy="38.75" r="0.75"/><circle cx="9.21" cy="41.25" r="0.75"/><path d="M24.79,26l-3.25-3.31a1.45,1.45,0,0,0-1-.42,1.48,1.48,0,0,0-1.08.5l-.35.4-2-1.85a1.43,1.43,0,0,0-1-.45,1.46,1.46,0,0,0-1.08.5L10.56,27H24.79Z"/><path d="M42,28l-5.89-1.58-2.3-5.47H31.18v-.53h-.05a.76.76,0,0,0,.05-.27.81.81,0,0,0-1.62,0,.76.76,0,0,0,.05.27h-.05v.53H25.77v7H10.5v7h2.05A4.69,4.69,0,0,0,12,37.23,4.75,4.75,0,0,0,21.4,38H31.45a4.74,4.74,0,0,0,9.43-.77A4.68,4.68,0,0,0,40.3,35H42ZM16.73,39a1.77,1.77,0,1,1,1.77-1.77A1.77,1.77,0,0,1,16.73,39Zm15.2-4a5.09,5.09,0,0,0-.4,1H21.32a5.09,5.09,0,0,0-.4-1Zm-4.05-8.11V22.57h4.34l1.62,4.32ZM36.12,39a1.77,1.77,0,1,1,1.76-1.77A1.77,1.77,0,0,1,36.12,39Z"/></svg>