<svg xmlns="http://www.w3.org/2000/svg" viewBox="0 0 48 48"><title>Horecavergunningen</title><path fill-rule="evenodd" d="M16 37.031v-2.03h-2.023L16 37.03zm3 1.97h8.5v3h-9.602a2.883 2.883 0 0 1-2.025-.846l-6.06-6.085C9.289 34.546 9 33.826 9 33.045V9c0-1.655 1.346-3 3-3h20c1.654 0 3 1.345 3 3v9.5h-3V9H12v23h5.5a1.5 1.5 0 0 1 1.5 1.5V39zm17.999-13l-.002-3H30l.001 3h6.998zM35 39h3v3h-9v-3h3v-6.182c-2.86-.68-4.998-3.249-4.999-6.314L26.999 20h12.997l.003 6.5C40 29.565 37.862 32.137 35 32.82V39zM21.974 20.363l2.655-5.974 2.742 1.22-4 9a1.5 1.5 0 0 1-1.36.89H22a1.5 1.5 0 0 1-1.362-.872l-3-6.5 2.724-1.257 1.612 3.493z"/></svg>