<svg xmlns="http://www.w3.org/2000/svg" width="48" height="48" viewBox="0 0 48 48"><title>Huis en omgeving</title><path fill-rule="evenodd" d="M22.5 15.5h3v-2h-3v2zM39 37.985l-7.5-2.251V18.367l7.5 2.25v17.368zM29.55 14.1L28 12.938V18.5h-8v-5.562L18.45 14.1l-.9-1.2L24 8.064l2.5 1.875V9H28v2.063l2.45 1.838-.9 1.199zM30 35.569L18.5 37.78V20.506C20.847 24.829 24 29 24 29s3.63-4.803 6-9.444v16.013zm-13 2.3l-8-1.598V18.016l8 2.4V37.87zm14.728-22.566c.171-.656.272-1.267.272-1.808C32 8.57 29.054 6 23.973 6 18.892 6 16 8.57 16 13.495c0 1.05.367 2.362.94 3.77L6 13.986V38.73l11.494 2.299 12.928-2.486L42 42.016V18.384l-10.272-3.081z"/></svg>