<svg viewBox="0 0 48 48" xmlns="http://www.w3.org/2000/svg"><title>Kerstbomen</title><path d="M8.63 20.04l-.96 1.49h16.71l-1.02-2.07 1.64.27-1.74-3.87 1.13.18-2.36-5.24-3.79 4.26 1.14.18-2.8 3.15 1.65.26-2.59 2.62-1.87-1.95 1.65-.24-2.74-3.19 1.13-.16-3.71-4.33-2.45 5.19 1.14-.16-1.81 3.84z"/><path d="M37.48 23l-2.69-7.5h-2.27v-.74a.75.75 0 1 0-1.5 0v.74h-4.55V23H7v7.5h.81a6 6 0 0 1 10.38 0h13.6a6 6 0 0 1 10.38 0H43V24l-5.52-1zm-8 .05v-5.39h3.36L34.63 23l-5.15.05zM18.78 32a5.73 5.73 0 0 1 0 3h12.4a5.73 5.73 0 0 1 0-3h-12.4z"/><path d="M13 29a4.5 4.5 0 1 0 4.5 4.5A4.51 4.51 0 0 0 13 29zm0 6a1.5 1.5 0 1 1 0-3 1.5 1.5 0 0 1 0 3zm24-6a4.5 4.5 0 1 0 4.5 4.5A4.51 4.51 0 0 0 37 29zm0 6a1.5 1.5 0 1 1 0-3 1.5 1.5 0 0 1 0 3z"/></svg>