<svg id="guides" xmlns="http://www.w3.org/2000/svg" viewBox="0 0 48 48"><title>Kerstbomen</title><polygon points="8.18 25.01 6.87 27 24.61 27 23.31 24.44 25 24.7 23.21 20.85 24.37 21.03 21.95 15.8 18.06 20.05 19.22 20.23 16.35 23.37 18.04 23.63 15.38 26.24 13.46 24.29 15.15 24.06 12.34 20.88 13.51 20.72 9.69 16.4 7.18 21.58 8.34 21.42 6.49 25.24 8.18 25.01"/><path d="M42,28l-5.89-1.58-2.3-5.47H31.18v-.53h-.05a.76.76,0,0,0,.05-.27.81.81,0,0,0-1.62,0,.76.76,0,0,0,.05.27h-.05v.53H25.77v7H6v7H8.05a4.69,4.69,0,0,0-.59,2.23A4.76,4.76,0,0,0,17,37.5h14.4a4.76,4.76,0,0,0,9.51-.27A4.68,4.68,0,0,0,40.3,35H42ZM12.23,39A1.77,1.77,0,1,1,14,37.23,1.77,1.77,0,0,1,12.23,39Zm19.3-3H16.82a5.09,5.09,0,0,0-.4-1H31.93A5.09,5.09,0,0,0,31.53,36Zm-3.65-9.11V22.57h4.34l1.62,4.32ZM36.12,39a1.77,1.77,0,1,1,1.76-1.77A1.77,1.77,0,0,1,36.12,39Z"/></svg>