<svg viewBox="0 0 48 48" xmlns="http://www.w3.org/2000/svg"><title>Meeuwenoverlast</title><g fill="none" fill-rule="nonzero"><path d="M31.09 12a6 6 0 0 1 6.14 3h.994a3.78 3.78 0 0 1 2.576 1.11 5 5 0 0 1 1.2 3.38l-.06 1.44h-3.35a14.63 14.63 0 0 1 .71 4.7c0 4.06-2.66 8.43-10.87 8.89V39h2.34v3H21v-7.42h-6.41l-7.07 2.19V32.5l-1.41-1 3.11-2.62-2-1.15 11.4-6.17a28.65 28.65 0 0 1 6.92-2.06v-.84c-.05-2.46 1.39-6.29 5.55-6.66zm-5.66 22.57H24V39h1.43v-4.43zm9.47-17.7c-.17-1.06-.72-2.11-3.53-1.86-2.65.236-2.8 3.147-2.81 3.597v1.053c.46 2.6 3.4 2.49 3.4 5.27 0 2.37-3.76 5.08-10 5.08-1.9 0-5.09-.23-7.9-.48l-3.59 2v1.52l3.91-1.44h12.64c4.45 0 9.3-1.43 9.3-5.95 0-4.52-2-5.26-2-5.26L33 19.94l2-1.39 4.36-.04c-.07-.2-.14-1-1-1H35z" fill="#000"/><path d="M13.5 6a7.5 7.5 0 1 0 0 15 7.5 7.5 0 0 0 0-15zm.72 11.72a1.07 1.07 0 0 1-1.44 0 1.07 1.07 0 0 1 0-1.44 1.07 1.07 0 0 1 1.44 0 1.07 1.07 0 0 1 0 1.44zM14.5 15h-2V9h2v6z" fill="#000"/><circle fill="#0349D1" cx="32.97" cy="16.48" r="1"/><circle fill="#000" cx="32.99" cy="16.6" r="1"/></g></svg>