<svg xmlns="http://www.w3.org/2000/svg" viewBox="0 0 48 48"><title>Monitor Agrofood</title><path fill-rule="evenodd" d="M36.1 34.496c1.42-1.388 3.385-1.876 5.081-1.435.451 1.656-.049 3.575-1.47 4.962a5.56 5.56 0 01-3.023 1.525 7.984 7.984 0 01-1.318.22v2.099H33.8v-2.104a8.022 8.022 0 01-1.362-.241 5.549 5.549 0 01-2.9-1.5c-1.42-1.386-1.92-3.305-1.47-4.961 1.696-.441 3.66.047 5.082 1.435a5.383 5.383 0 011.474 2.556v-.002l.077-.274a5.387 5.387 0 011.179-2.054zM19 28.119a1.5 1.5 0 011.5 1.5v10.5a1.5 1.5 0 01-1.5 1.5H8.5a1.5 1.5 0 01-1.5-1.5v-10.5a1.5 1.5 0 011.5-1.5zm-1.445 7.445h-1.5v3h1.5v-3zm-6.036-1.51h-1.5v4.5h1.5v-4.5zm3.018-3.008h-1.5v7.5h1.5v-7.5zM36.1 27.722c1.42-1.388 3.386-1.877 5.08-1.436.453 1.656-.047 3.575-1.47 4.963a5.562 5.562 0 01-3.022 1.524 8.045 8.045 0 01-2.086.27c-.775 0-1.503-.11-2.164-.295a5.564 5.564 0 01-2.9-1.5c-1.421-1.387-1.921-3.306-1.47-4.962 1.696-.441 3.66.048 5.082 1.436a5.388 5.388 0 011.475 2.554 5.38 5.38 0 011.475-2.554zM20.943 6c.457 0 .902.04 1.342.096l.689 2.753a7.843 7.843 0 011.889.78l2.43-1.458a10.42 10.42 0 011.9 1.9l-1.458 2.43c.338.586.602 1.22.78 1.889l1.692.424a7.556 7.556 0 00-.126 1.3c0 .639.083 1.264.235 1.863a6.51 6.51 0 00-2.736.107l-.841.218-.23.838c-.493 1.812-.108 3.762.984 5.356-.068.055-.128.12-.198.174l-2.431-1.458a7.836 7.836 0 01-1.89.781l-.69 2.753c-.44.057-.884.096-1.341.096-.457 0-.902-.039-1.342-.096l-.69-2.753a7.806 7.806 0 01-1.888-.781l-2.43 1.458a10.383 10.383 0 01-1.9-1.899l1.459-2.43a7.79 7.79 0 01-.781-1.889l-2.753-.689c-.057-.44-.096-.885-.096-1.342 0-.457.039-.902.096-1.342l2.753-.689c.179-.67.442-1.303.78-1.889l-1.457-2.431a10.446 10.446 0 011.899-1.9l2.432 1.459a7.812 7.812 0 011.887-.78l.689-2.753c.44-.056.885-.096 1.342-.096zM36.1 20.97c1.42-1.387 3.386-1.876 5.08-1.435.453 1.656-.047 3.575-1.47 4.963a5.562 5.562 0 01-3.022 1.524 8.045 8.045 0 01-2.086.27c-.775 0-1.503-.11-2.164-.296a5.555 5.555 0 01-2.9-1.498c-1.421-1.388-1.921-3.307-1.47-4.963 1.696-.441 3.66.048 5.082 1.436a5.388 5.388 0 011.475 2.554A5.38 5.38 0 0136.1 20.97zm-1.435-9.409c1.493.864 2.51 2.578 2.51 4.552 0 1.976-1.017 3.69-2.51 4.554-1.492-.864-2.51-2.578-2.51-4.554 0-1.974 1.018-3.688 2.51-4.552zm-13.722 1.215a3.645 3.645 0 100 7.29 3.645 3.645 0 000-7.29z"/></svg>
