<svg xmlns="http://www.w3.org/2000/svg" width="48" height="48" viewBox="0 0 48 48"><path fill-rule="evenodd" d="M24.054 32.91c-3.771 0-6.995-2.358-8.293-5.675l-2.977 1.116c1.752 4.522 6.137 7.742 11.27 7.742 5.023 0 9.339-3.08 11.162-7.453l-2.925-1.252c-1.336 3.237-4.523 5.522-8.237 5.522M24 6c-.224 0-.443.016-.666.025L25.324 24H22v3h6.676L26.705 9.257C33.688 10.537 39 16.653 39 24c0 8.271-6.728 15-15 15-8.271 0-15-6.729-15-15 0-6.715 4.435-12.412 10.53-14.319l-.803-2.889C11.367 9.052 6 15.91 6 24c0 9.925 8.075 18 18 18s18-8.075 18-18S33.925 6 24 6m9.5 13.5a1.5 1.5 0 1 0-3.001.001 1.5 1.5 0 0 0 3 0M19 18a1.5 1.5 0 1 1 0 3 1.5 1.5 0 0 1 0-3"/></svg>