<svg xmlns="http://www.w3.org/2000/svg" viewBox="0 0 48 48"><title>Aopengemeenten-logo</title><circle cx="24" cy="24" r="16.5" fill="#fff"/><path d="M24 6a18 18 0 1 0 18 18A18 18 0 0 0 24 6zm0 33A15 15 0 0 1 9.93 18.85a11.68 11.68 0 0 0 8.44 3.23c5.1 0 10.21-2.45 11.48-7.36 0 4.54 4.51 7.87 9.11 8.49V24A15 15 0 0 1 24 39z"/><ellipse cx="19.51" cy="25.56" rx="1.49" ry="1.5"/><ellipse cx="28.51" cy="25.5" rx="1.49" ry="1.5"/><path d="M24 35.16a9.81 9.81 0 0 1-5.32-1.56 1 1 0 0 1-.3-1.38 1 1 0 0 1 1.39-.3 8 8 0 0 0 8.6-.09 1 1 0 0 1 1.12 1.66A9.85 9.85 0 0 1 24 35.16z"/></svg>