<svg viewBox="0 0 48 48" xmlns="http://www.w3.org/2000/svg"><title>Sportkleding Muziekinstrumenten</title><g fill="none" fill-rule="evenodd"><path d="M40.22 30.66a1.84 1.84 0 0 1-.46-1.9 5.13 5.13 0 0 0 .19-2.4c-.29-1.88-1.88-3-4-3.43V14H36a1.07 1.07 0 0 0 1-1.12V9.05a1.07 1.07 0 0 0-1-1.12h-3a1.07 1.07 0 0 0-1 1.12v3.86a1.08 1.08 0 0 0 .94 1.09v9c-2.4.53-4 2-4 4.31a5 5 0 0 0 .3 1.69 1.45 1.45 0 0 1-.34 1.66A7.93 7.93 0 0 0 27.1 37c.42 2.3 2 5 7.44 5 6.17 0 7.46-3.58 7.46-6.58a7.29 7.29 0 0 0-1.78-4.76zM36 38h-3v-1.5h3V38zm-1.5-7.5a2 2 0 1 1 0-4 2 2 0 0 1 0 4z" fill="#000" fill-rule="nonzero"/><path d="M15.84 7.5l2.07 3.17.07-.12V7.5zM18 13.5l-4-6a3.22 3.22 0 0 0-2 .45S9 9 8.54 11.5l-.83 5.21 2.78.35V14H12v16.5h6v-17z"/><path d="M21 18.75a1.47 1.47 0 0 0 1.5-1.5v-1.74h-3v1.74a1.47 1.47 0 0 0 1.5 1.5z" fill="#000" fill-rule="nonzero"/><path d="M28.9 11.24c-.62-3.08-3.85-4.43-4.4-4.64a4.57 4.57 0 0 0-2.57-.6H14a4.57 4.57 0 0 0-2.57.57c-.55.21-3.78 1.56-4.4 4.64L6 18l4.5.55V32h15V18.57L30 18l-1.1-6.76zM20.13 7.5l-2.07 3.17-.07.1-.08-.1-2.07-3.17h4.29zm5.35 9.56V14H24v16.5H12V14h-1.5v3.06l-2.78-.35.83-5.21C9 9 12.05 8 12.05 8a3.22 3.22 0 0 1 2-.45l3.92 6 3.92-6a3.27 3.27 0 0 1 2 .45s3 1 3.5 3.55l.83 5.21-2.74.3z" fill="#000" fill-rule="nonzero"/></g></svg>