<svg xmlns="http://www.w3.org/2000/svg" width="48" height="48" viewBox="0 0 48 48"><path fill-rule="evenodd" d="M29.28 18l-.135-.87-3.645.405v.861L29.28 18zM24 22v-7.5h1.5v1.854l3.467-.385-.688-4.469c-.5-2.5-3.5-3.546-3.5-3.546C23.78 7.5 23.5 7.5 22.5 7.5l-4 6-4-6c-1 0-1.28-.027-2.28.426 0 0-3 1.047-3.5 3.547l-.69 4.495 3.47.386V14.5H13v14h11V22zm-11 8.5h11v-1H13v1zm-1.5-12.11v-.855l-3.65-.406-.13.844 3.78.417zM16.29 7.5l2.21 3.388L20.71 7.5h-4.42zM31 19.318l-5.5.58V32h-14V19.898L6 19.291l1.25-8.112c.615-3.08 3.842-4.429 4.4-4.64C12.792 6.021 13.302 6 14.5 6h8c1.196 0 1.707.048 2.85.565.558.212 3.784 1.561 4.4 4.641L31 19.318zm8.096 12.334c-.857-.97-1.152-2.148-.756-3.362a3.64 3.64 0 0 0 .13-1.697c-.226-1.452-1.686-2.419-3.467-2.564V13.5h-1v10.533c-1.808.16-3.54 1.13-3.54 3.247 0 .414.07.812.198 1.183.407 1.174.203 2.215-.639 3.152-1.106 1.231-1.764 3.266-1.439 5.077.404 2.248 1.987 3.808 5.96 3.808s5.96-1.521 5.96-5.077c0-1.403-.53-2.778-1.407-3.771zM33.5 12h2.003V7.5H33.5V12zm1.043 30c-5.398 0-7.023-2.742-7.436-5.043-.39-2.164.334-4.714 1.8-6.344.474-.528.568-.993.337-1.659a5.09 5.09 0 0 1-.28-1.674c0-2.182 1.387-3.841 3.54-4.482V13.5L32 13h-.247a.75.75 0 0 1 0-1.5H32v-1h-.247a.75.75 0 0 1 0-1.5H32V8h-.247a.75.75 0 0 1 0-1.5H32V6h5.003v.5h.25a.75.75 0 0 1 0 1.5h-.25v1h.247a.75.75 0 0 1 0 1.5h-.247v1h.25a.75.75 0 0 1 0 1.5h-.25l-.5.5v9.277c1.851.548 3.182 1.871 3.45 3.585a5.11 5.11 0 0 1-.188 2.393c-.222.683-.073 1.306.455 1.904 1.133 1.281 1.783 3.018 1.783 4.764 0 3.001-1.294 6.577-7.46 6.577zm-2.04-13.5a2 2 0 1 0 4 0 2 2 0 0 0-4 0zm.5 10h3V37h-3v1.5zM21 15.5h1.5V17s0 1.5-1.5 1.5-1.5-1.5-1.5-1.5v-1.5H21z"/></svg>