<svg xmlns="http://www.w3.org/2000/svg" width="48" height="48" viewBox="0 0 48 48"><path fill-rule="evenodd" d="M24 17a3.5 3.5 0 1 0 0-7 3.5 3.5 0 0 0 0 7m11.5 3.5a3.5 3.5 0 1 0 0-7 3.5 3.5 0 0 0 0 7m-23.5 0a3.5 3.5 0 1 0 0-7 3.5 3.5 0 0 0 0 7M30 24v-2.5a3 3 0 0 0-3-3h-6.5a3 3 0 0 0-3 3l.017 2.5H30zm7.5-1.969H35a3 3 0 0 0-3 3l.001.304 6.476 8.634H40.5v-8.938a3 3 0 0 0-3-3M39 38l-9-12H17.5l-2.833 4h-2.451l3.282-4.634L15.5 25a3 3 0 0 0-3-3H10a3 3 0 0 0-3 3v5a2 2 0 0 0 2 2h6v2h-3.167L9 38h30z"/></svg>