<svg xmlns="http://www.w3.org/2000/svg" width="48" height="48" viewBox="0 0 48 48"><title>Vergaderen</title><path fill-rule="evenodd" d="M11.5 22a3 3 0 1 0 0-6 3 3 0 0 0 0 6zm6 4.469l-3.187 4.5h-1.839l3.025-4.27.001-.23a3 3 0 0 0-3-3H10a3 3 0 0 0-3 3v4.5a2 2 0 0 0 2 2h3.896L9 38.469h30l-8.5-12h-13zm20.5-3h-2.5a3 3 0 0 0-3 3v.228l4.796 6.772h3.667l.037-7a3 3 0 0 0-3-3zm-9 2v-3.5a3 3 0 0 0-3-3h-4a3 3 0 0 0-3 3l.037 3.5H29zM36.542 22a3 3 0 1 0 0-6 3 3 0 0 0 0 6zM21 15a3 3 0 1 1 6 0 3 3 0 0 1-6 0z"/></svg>