<svg xmlns="http://www.w3.org/2000/svg" viewBox="0 0 48 48"><title>Verhuizen</title><path fill-rule="evenodd" d="M26 22h-2.25v6h-1.5v-6H20l3-6.016L26 22zm-14-6h6v4.5a1.5 1.5 0 0 1-1.5 1.5h-.75v4.5H18V28h-6v-1.5h2.25V22h-.75a1.5 1.5 0 0 1-1.5-1.5V16zm23.5 18c-.827 0-1.5-.673-1.5-1.5s.673-1.5 1.5-1.5 1.5.673 1.5 1.5-.673 1.5-1.5 1.5zM32 29.707V20.5h4.219L39 24.473v5.234C38.175 28.675 36.921 28 35.5 28c-1.421 0-2.675.675-3.5 1.707zM29 30H9V14h20v16zm-14.007 4a1.49 1.49 0 0 1-1.401-1h2.812c-.213.575-.77 1-1.411 1zm22.788-16.5H32V14c0-1.654-1.346-3-3-3H6v22h4.55c.253 2.244 2.137 4 4.443 4 2.314 0 4.203-1.756 4.456-4H29c.786 0 1.496-.31 2.031-.806-.007.103-.031.202-.031.306 0 2.481 2.019 4.5 4.5 4.5 2.37 0 4.297-1.847 4.467-4.174A2.994 2.994 0 0 0 42 30v-6.473L37.781 17.5z"/></svg>