<svg xmlns="http://www.w3.org/2000/svg" viewBox="0 0 48 48"><title>Voeding</title><path fill-rule="evenodd" d="M8.922 33.638l2.009 2.597a3.466 3.466 0 013.76-2.376l.777.2-.304 2.241 1.518.011.252-1.878c6.435 1.645 24.567 6.285 24.564 6.308l-.001.03c.38.03.684.34.684.727a.734.734 0 01-.701.731v.044c-.002.014-5.634.02-11.833.02l-10.021.001.208-1.54-1.527.024-.202 1.516a30517.166 30517.166 0 01-3.755-.001h-.727c-1.706-.048-2.873-1.526-3.035-3.134l-2.71 2.037-.9-1.199 2.42-1.819L6 37.72l.202-1.487 3.159.427-1.626-2.103 1.187-.918zm27.992-4.703c1.42-1.388 3.386-1.877 5.08-1.436.453 1.656-.047 3.575-1.468 4.963a5.564 5.564 0 01-3.023 1.523 7.88 7.88 0 01-1.318.221v3.587l-1.53-.462v-3.127a8.064 8.064 0 01-1.402-.244 5.565 5.565 0 01-2.9-1.498c-1.421-1.388-1.921-3.307-1.47-4.963 1.695-.44 3.66.048 5.082 1.436a5.388 5.388 0 011.475 2.554 5.377 5.377 0 011.474-2.554zM11.768 8.643l2.052.001a2.807 2.807 0 012.802 2.803l-.001 1.834c.548-.3 1.191-.807 3.356-.806 3.078.002 5.642 3.082 5.64 7.186-.002 4.106-3.083 10.261-6.162 10.26-3.078 0-2.052-1.027-3.591-1.028-1.539 0-.513 1.026-3.592 1.025-3.079-.002-6.155-6.16-6.153-10.266.002-4.104 2.569-7.182 5.648-7.18 2.165.001 2.806.507 3.354.808l.001-1.833c0-.718-.584-1.302-1.303-1.303h-2.051v-1.5zM36.914 22.16c1.421-1.387 3.385-1.875 5.081-1.434.453 1.655-.047 3.574-1.468 4.962a5.569 5.569 0 01-3.025 1.524 8.045 8.045 0 01-2.086.272 8.03 8.03 0 01-2.163-.297 5.57 5.57 0 01-2.9-1.499c-1.422-1.388-1.922-3.307-1.47-4.962 1.696-.441 3.66.047 5.082 1.434a5.387 5.387 0 011.474 2.555 5.387 5.387 0 011.476-2.555zm0-6.75c1.421-1.388 3.385-1.876 5.081-1.435.453 1.655-.047 3.574-1.468 4.962a5.569 5.569 0 01-3.025 1.524 8.045 8.045 0 01-2.086.271 8.031 8.031 0 01-2.163-.296 5.578 5.578 0 01-2.9-1.499c-1.422-1.388-1.922-3.307-1.47-4.962 1.696-.44 3.66.047 5.082 1.434a5.387 5.387 0 011.474 2.555 5.387 5.387 0 011.476-2.555zM35.48 6c1.493.864 2.511 2.577 2.511 4.552 0 1.975-1.018 3.689-2.51 4.553-1.493-.864-2.51-2.578-2.51-4.553S33.986 6.865 35.48 6zm-13.085.468a5.074 5.074 0 01-5.076 5.072 5.074 5.074 0 015.076-5.072z"/></svg>
