<svg xmlns="http://www.w3.org/2000/svg" viewBox="0 0 48 48"><title>Aanmelden</title><path d="M42 11c0 .55-.45 1-1 1h-3v3c0 .55-.45 1-1 1s-1-.45-1-1v-3h-3c-.55 0-1-.45-1-1s.45-1 1-1h3V7c0-.55.45-1 1-1s1 .45 1 1v3h3c.55 0 1 .45 1 1Zm-8 18.01V37c0 1.11-.9 2-2.01 2h-2v1c0 1.1-.9 2-2 2H15.98c-1.1 0-1.99-.89-1.99-1.99V28.98c-4.59-.22-8-4.01-8-8.99V13a2 2 0 0 1 2-2h2V8c0-.55.45-1 1-1s1 .45 1 1V19.97c0 .7.17 2.99 2.41 2.99l13.58.04c3.38 0 6.02 2.64 6.02 6.01ZM7.99 15h2v-2h-2v2Zm23.99 14.04c0-2.24-1.76-4-4-4L14.4 25c-2.64 0-4.42-2.01-4.42-5.01V17h-2v2.99c0 3.39 2.47 6.99 5.97 6.99 1.13.01 2.03.93 2.03 2.06v10.97h12v-10c0-.55.46-1 1.01-1s1 .45 1 1v7.02l1.98-.02v-7.96ZM13.99 14c0-4.42 3.58-8 8-8s8 3.58 8 8-3.58 8-8 8-8-3.58-8-8Zm2.37-2.05c1.17-.43 2.66-.41 4.12-.38 1.9.03 3.87.07 4.74-.83.31-.32.49-.79.55-1.4A5.938 5.938 0 0 0 22 8c-2.59 0-4.79 1.65-5.63 3.95Zm.03 4.18a5.995 5.995 0 0 0 5.6 3.87c3.31 0 6-2.69 6-6 0-1.01-.25-1.95-.69-2.79-.17.34-.38.65-.64.92-1.48 1.54-3.99 1.49-6.22 1.45-1.61-.03-3.44-.07-3.97.62-.27.35-.29 1.02-.08 1.94Z"/></svg>

