<svg xmlns="http://www.w3.org/2000/svg" viewBox="0 0 48 48"><title>Afval Ophalen</title><path d="M41.83 22.6c-.46-1.08-1.74-4.06-2.31-5.39A1.998 1.998 0 0 0 37.68 16h-5.64s-.02-2.26-.03-4.01c0-1.1-.9-1.99-2-1.99h-16.1c-.71 0-1.35.4-1.66 1.04L6.18 23.82c-.47 1.01-.03 2.2.97 2.67l.85.4V31a2 2 0 0 0 2 2h1c-.02.17-.05.33-.05.5 0 2.48 2.02 4.5 4.5 4.5s4.5-2.02 4.5-4.5c0-.17-.03-.33-.05-.5h10.15c-.02.17-.05.33-.05.5 0 2.49 2.01 4.5 4.5 4.5s4.5-2.01 4.5-4.5c0-.17-.03-.33-.05-.5H40a2 2 0 0 0 2-2v-7.57c0-.29-.06-.57-.17-.83ZM8.04 24.74 14 12.03c0-.01.02-.02.04-.02h4.97c.97 0 1.89.92 1.63 1.93-.17.68-.92 1.06-1.62 1.06h-2.99s-.03 0-.03.02c0 0-5.53 10.93-5.55 10.92l-2.4-1.2Zm9.69 9.82c-.23.54-.68.99-1.22 1.22-2.18.91-4.25-1.16-3.34-3.34.23-.54.68-.99 1.22-1.22 2.18-.91 4.25 1.16 3.34 3.34ZM30 30.96s-.02.04-.04.04H19.19c-.81-1.21-2.18-2-3.74-2s-2.93.79-3.74 2H9.99l.02-3c.73.36 1.61.07 1.98-.65l5.25-10.32s.02-.01.03-.02H19c1.72 0 3.19-1.06 3.57-2.57.21-.81.1-1.64-.27-2.38-.01-.03 0-.05.03-.05h7.63s.04.02.04.04v18.92Zm2-12.92s.02-.04.04-.04h5.65l2.14 5h-7.82s-.04-.02-.04-.04l.04-4.92Zm4.78 16.52c-.23.54-.67.99-1.21 1.21-2.18.92-4.26-1.17-3.34-3.34.23-.54.67-.99 1.21-1.21 2.18-.92 4.26 1.17 3.34 3.34Zm3.22-3.6s-.02.04-.04.04h-1.7s-.02 0-.03-.02A4.488 4.488 0 0 0 34.5 29c-.91 0-1.76.27-2.47.74-.03.02-.06 0-.06-.03v-4.67s0-.04.03-.04h7.96s.04.02.04.04v5.92Z"/></svg>