<svg xmlns="http://www.w3.org/2000/svg" viewBox="0 0 48 48"><title>Afval glascontainer</title><path d="M27 22c-1.1 0-2-.9-2-2s.9-2 2-2 2 .9 2 2-.9 2-2 2Zm8-2c0-1.1-.9-2-2-2s-2 .9-2 2 .9 2 2 2 2-.9 2-2Zm-12 0c0-1.1-.9-2-2-2s-2 .9-2 2 .9 2 2 2 2-.9 2-2Zm19 18c0 .55-.45 1-1 1H17.98v.99c0 1.11-.89 2.01-2 2.01h-8c-1.1 0-2-.9-2-2V23.78c.23-1.95 1.36-3.69 3-4.74V11c0-1.1.9-2 2-2h2c1.1 0 2 .9 2 2v8.04c1.63 1.04 2.71 2.75 2.94 4.74v.11l.02 1.11.04 12H38V14c0-.55-.45-1-1-1H18c-.55 0-1-.45-1-1s.45-1 1-1h13V8h-1c-.55 0-1-.45-1-1s.45-1 1-1h4c.55 0 1 .45 1 1s-.45 1-1 1h-1v3h4c1.66 0 3 1.34 3 3v23h1c.55 0 1 .45 1 1ZM15.95 27h-3.96v6h3.98l-.02-6Zm.04 13-.02-5h-3.98c-1.1 0-2-.9-2-2v-6c0-1.1.9-2 2-2h3.95v-1a4.485 4.485 0 0 0-2.05-3.29c-.59-.37-.9-1.05-.9-1.75v-7.97h-2v7.97c0 .69-.32 1.38-.9 1.74-1.13.71-1.94 1.9-2.1 3.29v16h8Z"/></svg>

