<svg xmlns="http://www.w3.org/2000/svg" viewBox="0 0 48 48"><title>Afvalzak</title><path d="M26.58 11.97c-.24.03-.5-.03-.71-.19-.51-.39-.84-.95-.93-1.59s.08-1.27.46-1.78c.16-.21.12-.51-.09-.67-.42-.32-.51-.92-.19-1.35s.92-.51 1.35-.19c1.06.8 1.27 2.31.47 3.36-.16.21-.12.51.09.67.42.32.51.92.19 1.35-.16.21-.39.34-.63.37Zm-4.28-.37a.96.96 0 0 0-.19-1.35.478.478 0 0 1-.09-.67c.8-1.06.59-2.57-.47-3.36-.42-.32-1.03-.24-1.35.19s-.24 1.03.19 1.35c.21.16.25.46.09.67-.39.51-.55 1.14-.46 1.78s.42 1.2.93 1.59a.945.945 0 0 0 1.34-.18Zm13.51 28.85A2.53 2.53 0 0 1 33.45 42h-18.9a2.52 2.52 0 0 1-2.36-1.55c-.32-.75-.22-1.67.28-2.44 1.5-2.31 1.9-3.53 1.98-4.15.06-.49.11-.74.15-.95.04-.22.08-.39.12-.84l.08-1.04c.17-2.23.37-6 1.03-7.39.57-1.22 2.32-2.52 3.86-3.36.55-.3 1.06-.58 1.38-.8L18.62 16c-.32-.41-.32-.9 0-1.3.36-.45 1.06-.7 1.8-.7.3 0 .6.04.89.13l1.4.42c.85.26 1.83.39 2.84.39h1.2c.9 0 1.66.36 1.93.9.19.37.13.78-.14 1.12l-1.52 2.56c.31.19.72.42 1.17.66 1.51.82 3.4 2.19 3.99 3.46.65 1.39.86 5.16 1.03 7.39l.08 1.04c.04.44.07.62.12.84.04.22.09.46.15.95.07.62.48 1.84 1.98 4.15.5.77.61 1.69.28 2.44ZM21.18 16.18l1.51 2.16.47.67h1.85l.29-.49.93-1.57h-.68c-1.2 0-2.38-.16-3.41-.48l-.95-.29ZM33.85 39.1c-1.39-2.14-2.14-3.78-2.29-5-.05-.41-.09-.59-.13-.79-.06-.3-.11-.55-.15-1.07l-.08-1.05c-.14-1.85-.35-5.64-.84-6.7-.26-.55-1.44-1.63-3.13-2.55-.46-.25-.91-.49-1.27-.72L25.6 21h-.99l-1.72 3.45a1.007 1.007 0 0 1-1.35.44 1.01 1.01 0 0 1-.45-1.34L22.37 21l-.17.12c-.41.29-.97.59-1.56.92-1.65.9-2.76 1.92-3.02 2.46-.5 1.06-.7 4.85-.84 6.69l-.08 1.04c-.04.53-.09.78-.15 1.08-.04.18-.08.37-.13.79-.14 1.21-.89 2.85-2.29 5-.15.23-.17.45-.12.56.1.22.28.34.53.34h18.9c.25 0 .43-.12.53-.34.05-.11.03-.33-.12-.56Z"/></svg>

