<svg xmlns="http://www.w3.org/2000/svg" viewBox="0 0 48 48"><title>Afval</title><path d="M35 8h-3.02c0-1.1-.9-2-2-2H14.85C13.76 6 13 6.89 13 7.98h-.02c-1.1.01-1.98.9-1.98 2v2.03c0 1.1.89 1.99 1.99 1.99v22.06a3.51 3.51 0 0 0 1.82 5.88c1.22.24 2.36-.17 3.14-.93h9.37c1.53 0 2.81-1.15 2.98-2.67l2.51-24.33h2.2c1.1 0 2-.9 2-2v-2c0-1.1-.9-2-2-2ZM15.5 40c-.83 0-1.5-.67-1.5-1.5s.67-1.5 1.5-1.5 1.5.67 1.5 1.5-.67 1.5-1.5 1.5Zm12.81-1.89c-.06.51-.48.89-.99.89h-8.37c.02-.16.05-.33.05-.5 0-1.93-1.57-3.5-3.5-3.5-.17 0-.34.03-.5.05V14h15.79l-2.48 24.11ZM35 12H13v-2c1.1 0 2-.9 2-2s14.98 0 14.98 0c.01 1.11.91 2 2.02 2h3v2Z"/></svg>

