<svg xmlns="http://www.w3.org/2000/svg" viewBox="0 0 48 48"><title>Afval scheiden</title><path d="M7.86 28.5c-.28.48-.89.64-1.37.37a1.01 1.01 0 0 1-.37-1.37l3.5-6.06c.55-.96 1.78-1.28 2.73-.73l-4.5 7.79ZM42 29l-.86 11.14A2.017 2.017 0 0 1 39.13 42h-5.21c-.52 0-.96-.4-1-.92L31.99 29v-1c0-.55.45-1 1-1h7c1.1 0 2 .9 2 2Zm-2.01 0H34l.85 11h4.28l.86-11ZM19.5 10.5C19.5 8.01 21.51 6 24 6s4.5 2.01 4.5 4.5S26.49 15 24 15s-4.5-2.01-4.5-4.5Zm1.8 0c0 1.49 1.21 2.7 2.7 2.7s2.7-1.21 2.7-2.7-1.21-2.7-2.7-2.7-2.7 1.21-2.7 2.7ZM26 16h-5c-1.09 0-2.43.79-3.25 1.92l-3.04 5.61c-.36.67.12 1.48.88 1.48.37 0 .7-.2.88-.52l3.02-5.55c.31-.57.91-.93 1.56-.93h4.94c1.1 0 2 .9 2 2v4c0 .55.45 1 1 1s1-.45 1-1v-4c0-2.2-1.8-4-4-4Zm-8.07 14.07-.79 10.08A1.99 1.99 0 0 1 15.15 42H9.92c-.52 0-.95-.4-1-.92L8 31c0-1.1.9-2 2-2h7v.02c.54.04.96.5.92 1.05ZM15.15 40l.71-9H10l.83 9h4.3ZM21 25c.55 0 1-.45 1-1v-2c0-.55-.45-1-1-1s-1 .45-1 1v2c0 .55.45 1 1 1Zm9 4-.86 11.15A2.004 2.004 0 0 1 27.15 42h-5.22c-.52 0-.96-.4-1-.92L20 29v-1c0-.55.45-1 1-1h7c1.1 0 2 .9 2 2Zm-2.01 0H22l.85 11h4.3L28 29Z"/></svg>

