<svg xmlns="http://www.w3.org/2000/svg" viewBox="0 0 48 48"><title>Afvalcontainerpas</title><path d="M11.77 31.82c0-.97.78-1.75 1.74-1.75s1.74.78 1.74 1.75-.78 1.75-1.74 1.75-1.74-.78-1.74-1.75Zm5.23 4.3V36s-.01.05-.01.07c0 .02.01.04.01.06Zm25 .87c0 .55-.45 1-1 1H28v1.47c0 1.4-1.13 2.53-2.53 2.53H8.54c-1.4 0-2.54-1.14-2.54-2.54V28.03C6 26.91 6.91 26 8.03 26h17.44A2.54 2.54 0 0 1 28 28.53V36h10V14c0-.55-.45-1-1-1h-2v9c0 1.1-.9 2-2 2H22c-1.1 0-2-.9-2-2v-9h-2c-.55 0-1 .45-1 1v9c0 .55-.45 1-1 1s-1-.45-1-1v-9c0-1.66 1.34-3 3-3h13V8h-1c-.55 0-1-.45-1-1s.45-1 1-1h4c.55 0 1 .45 1 1s-.45 1-1 1h-1v3h4c1.66 0 3 1.34 3 3v22h1c.55 0 1 .45 1 1Zm-9-20H22v5h11v-5Zm0-4H22v2h11v-2Zm-7 15H8v12h18c.04 0 0-12 0-12Zm-3 3h-3c-.55 0-1 .45-1 1s.45 1 1 1h3c.55 0 1-.45 1-1s-.45-1-1-1Zm-1 4h-2c-.55 0-1 .45-1 1s.45 1 1 1h2c.55 0 1-.45 1-1s-.45-1-1-1Zm-8.5-.62c-1.15 0-3.41.57-3.49 1.69.04.52.46.93.99.93h5c.53 0 .95-.41.99-.93-.08-1.12-2.34-1.69-3.49-1.69ZM10 36.12s.01-.04.01-.06c0-.02-.01-.04-.01-.07v.12Z"/></svg>

