<svg xmlns="http://www.w3.org/2000/svg" viewBox="0 0 48 48"><title>Afvalcontainer afvalzak</title><path d="M41 37h-1V14c0-1.66-1.34-3-3-3h-4V8h1c.55 0 1-.45 1-1s-.45-1-1-1h-4c-.55 0-1 .45-1 1s.45 1 1 1h1v3H18c-1.66 0-3 1.34-3 3v5c0 .55.45 1 1 1s1-.45 1-1v-5c0-.55.45-1 1-1h2v12a2 2 0 0 0 2 2h11a2 2 0 0 0 2-2V13h2c.55 0 1 .45 1 1v23H21.74c-.27-.58-.36-.92-.38-1.11-.04-.36-.08-.53-.11-.69-.03-.13-.05-.25-.07-.53l-.06-.73c-.12-1.64-.26-3.51-.72-4.53-.46-1.01-1.74-1.73-2.87-2.36-.24-.13-.45-.25-.63-.37l.89-2.33c.25-.43.27-.93.05-1.39-.17-.36-.48-.63-.85-.79l-2-.18-.02-.04c-.49-.03-.97-.12-1.39-.29l-.95-.39c-.83-.34-1.81-.11-2.32.54-.38.49-.42 1.13-.13 1.66l1.6 3.41c-.13.08-.27.15-.42.24-1.09.62-2.33 1.31-2.78 2.29-.47 1.03-.6 2.9-.73 4.55l-.05.71c-.02.28-.04.39-.07.52-.03.16-.07.33-.11.69-.04.31-.25 1.07-1.26 2.67-.41.66-.5 1.44-.23 2.09.35.83 1.12 1.35 2.02 1.35h12.64c.9 0 1.67-.52 2.02-1.35.21-.51.2-1.1-.01-1.65h18.17c.55 0 1-.45 1-1s-.45-1-1-1Zm-8-12H22v-7h11v7Zm0-9H22v-3h11v3Zm-20.15 7.64c.76.31 1.62.47 2.49.47h.36l-.61 1.98h-1.34l-1.29-2.62.39.16Zm8.12 16.28c-.02.06-.07.13-.15.13H8.18c-.07 0-.12-.07-.15-.13s-.01-.2.08-.35c.94-1.48 1.44-2.62 1.54-3.46.03-.28.06-.42.08-.54.04-.19.07-.35.1-.74l.05-.73c.09-1.27.23-3.18.56-3.9.18-.4 1.33-1.04 1.95-1.39.42-.24.79-.44 1.07-.65l.14-.04h1.87c.28.2.63.4 1.04.63.64.36 1.84 1.03 2.03 1.46.33.72.47 2.62.56 3.89l.06.74c.03.39.06.55.1.74.02.12.05.26.08.54.1.84.6 1.98 1.54 3.46.08.13.11.27.08.35Z"/></svg>

