<svg xmlns="http://www.w3.org/2000/svg" viewBox="0 0 48 48"><title>Afvalbak PMD</title><path d="M41.14 16.71c-1.29-1.68-2.78-3.82-3.08-4.51l-.03-.21V8c0-1.09-.88-1.97-1.97-1.98l-3-.02h-.04c-.53 0-1.03.21-1.41.58-.38.38-.59.89-.59 1.42v4.52c-.28.57-2.94 3.96-3.11 4.19-.41.47-.9 1.29-.9 2.27.01.02.02 4.01.02 4.04-1.02 0-2.09-.01-2.87-.02l.35-9.01h1.52c1.1 0 1.99-.89 1.99-1.99V9.98c0-1.1-.9-1.99-1.99-1.99h-2.02c0-1.1-.9-2-2-2H9.87c-1.09 0-1.85.89-1.85 1.98H8c-1.1.01-1.98.9-1.98 2V12c0 1.1.89 1.99 1.99 1.99v20.06c-.12.13-.23.26-.34.41-.04.05-.07.1-.11.16-.1.15-.19.31-.26.48-.02.04-.03.08-.05.12-.06.16-.12.33-.16.5 0 .03-.02.07-.02.1-.04.2-.06.4-.06.61v.14c0 .2.02.41.06.62.04.22.11.42.19.63.02.04.03.07.05.11.07.16.15.31.25.45.02.04.05.08.07.12.24.34.53.63.87.87.04.03.08.05.12.08.14.09.3.17.45.25.04.02.07.03.11.05.2.08.41.15.62.19.21.04.42.06.62.06h.13c.21 0 .41-.02.61-.06.04 0 .07-.02.1-.03.17-.04.34-.09.5-.16.04-.02.08-.03.12-.05.17-.07.33-.16.48-.26.05-.03.1-.07.15-.11.14-.1.28-.21.41-.34h4.06c.55 0 1-.45 1-1s-.45-1-1-1h-3.05c.02-.16.05-.33.05-.5 0-1.93-1.57-3.5-3.5-3.5-.17 0-.34.03-.5.05V14h12.48l-.36 9.27c-.29.16-.54.4-.72.69l-1.1 1.82c-.19.31-.29.67-.29 1.03v12.27c0 .28.07.54.18.8l1.46 1.6c.17.32.51.53.88.53h9.08c.36 0 .69-.2.86-.53l1.3-1.46h4.23c2.21 0 3.99-1.8 4-4.02V19c0-1-.45-1.82-.86-2.29ZM33.03 8l2.97.02.02 1.95-3 .03V8ZM10.5 35c.83 0 1.5.67 1.5 1.5s-.67 1.5-1.5 1.5S9 37.33 9 36.5s.67-1.5 1.5-1.5ZM8 12v-2c1.1 0 2-.9 2-2h11.99v.02c.01 1.1.9 1.98 2 1.98H26v2H8Zm24 27.02L31 40h-8l-1-1V27l1-2h8l1 2v12.02Zm6-1L34 38V27c0-.34-.02-.72-.18-1.02l-1.08-1.94c-.33-.58-.92-.95-1.57-.99 0 0-1.46 0-2.15-.02-.02-.38 0-4.02 0-4.04.01-.18.09-.47.17-.64.07-.13.15-.25.26-.36 0 0 3.21-3.88 3.5-4.97l.06-.4s.02-.09.02-.14v-.49h3v.08c0 .05.01.1.02.15l.06.43c.29 1.17 3.5 5.33 3.5 5.33.24.24.38.68.39 1v17c.01 1.11-.89 2.02-2 2.02Z"/></svg>
