<svg xmlns="http://www.w3.org/2000/svg" viewBox="0 0 48 48"><title>Afval PMD</title><path d="m41.41 13.59-2-2c-.12-.12-.27-.22-.41-.31V8c0-1.1-.9-2-2-2h-8c-1.1 0-2 .9-2 2v2.35l-3 3.66c-.42.51-.83.9-.95 1.62a1.4 1.4 0 0 0-.05.38v7c-.65 0-2-.01-2-.01v-4c0-1-.52-1.86-.94-2.32-1.26-1.53-2.73-3.49-3.06-4.16V8a1.998 1.998 0 0 0-2-2h-.04l-3 .02c-1.09.01-1.97.89-1.98 1.98v3.99l-.03.21c-.3.7-1.79 2.84-3.08 4.51-.41.47-.86 1.39-.86 2.29v17c0 2.22 1.79 4.01 4.01 4.01h2.43c.55 0 1-.45 1-1s-.45-1-1-1h-2.43c-1.11 0-2.02-.9-2.02-2.02v-17c.03-.32.17-.76.41-1 0 0 3.21-4.17 3.5-5.33l.06-.43c0-.05.02-.1.02-.15V12h3v.49s.01.09.02.14l.06.4c.19.72 1.67 2.67 2.64 3.9.46.63.8 1.07.8 1.07.24.24.49.68.5 1 .02.04.02 3.62 0 4-.56 0-.93 0-.93.01-.67.04-1.27.41-1.6.99l-1.21 1.97c-.17.3-.26.64-.26.99V39c0 .32.08.64.23.92l1.41 1.55c.17.32.51.53.88.53h7.96c.37 0 .71-.2.88-.53 0 0 1.55-1.47 1.64-1.47h8l.47-.06 4-.98c.9-.22 1.53-1.02 1.53-1.94V15.01c0-.53-.21-1.04-.59-1.41ZM14.97 10l-3-.03.02-1.95L14.96 8v2ZM29 8.01h8v2.01h-8v-2ZM26 39.1l-1.1.9-6.8.03-1.1-1.02V26.93l1.1-1.94 6.81-.03 1.1 1.83v12.3Zm8-1.1h-6V26.81c0-.36-.1-.72-.29-1.03l-1.1-1.82c-.35-.57-.95-.92-1.61-.95V17h9v20.99Zm0-22.99h-8.28l2.5-3h8.07c-.9 1.17-2.28 2.99-2.29 3Zm6 22.02-4 .98V16.03l2.06-2.95L40 15.02v22.02Z"/></svg>
