<svg xmlns="http://www.w3.org/2000/svg" viewBox="0 0 48 48"><title>Afvalbak afvalzak</title><path d="M38.62 38.44c-1.01-1.6-1.22-2.36-1.26-2.67-.04-.36-.08-.53-.11-.69-.03-.13-.05-.25-.07-.52l-.05-.71c-.12-1.65-.26-3.52-.73-4.55-.45-.98-1.69-1.68-2.78-2.29-.15-.08-.29-.16-.42-.24l1.6-3.41c.3-.53.25-1.18-.13-1.66-.51-.65-1.48-.88-2.32-.54l-.95.39c-.13.05-3.36.5-3.36.5-.4.16-.73.44-.9.81-.21.45-.19.96.05 1.39l.89 2.33c-.18.11-.39.23-.63.37-1.13.63-2.41 1.35-2.87 2.36-.47 1.03-.6 2.89-.72 4.53l-.06.73c-.02.28-.04.39-.07.53-.03.16-.07.33-.11.69-.02.19-.12.57-.44 1.22h-6.25c.02-.16.05-.33.05-.5 0-1.93-1.57-3.5-3.5-3.5-.17 0-.34.03-.5.05V14h15.48l-.26 4.95c-.03.57.43 1.05 1 1.05.53 0 .97-.42 1-.95l.27-5.05h1.52c1.1 0 1.99-.89 1.99-1.99V9.99c0-1.1-.9-1.99-1.99-1.99h-2.34c0-1.1-.9-2-2-2H12.84c-1.09 0-1.85.89-1.85 1.98h-.03c-1.09.01-1.97.9-1.97 1.99v2.04c0 1.1.89 1.99 1.99 1.99v20.06a3.51 3.51 0 0 0 1.82 5.88c1.22.24 2.36-.17 3.14-.93h6.18c-.17.51-.17 1.06.03 1.53.35.83 1.13 1.35 2.02 1.35h12.64c.9 0 1.67-.52 2.02-1.35.27-.65.19-1.43-.23-2.09ZM11 12v-2c1.1 0 2-.9 2-2s14.66 0 14.66 0v.02c.01 1.1.9 1.98 2 1.98H32v2H11Zm2.5 26c-.83 0-1.5-.67-1.5-1.5s.67-1.5 1.5-1.5 1.5.67 1.5 1.5-.67 1.5-1.5 1.5Zm16.16-14c.87 0 1.73-.16 2.49-.47l.39-.16-1.29 2.62h-1.34l-.61-1.98h.36Zm7.3 15.8c-.02.06-.07.13-.15.13H24.17c-.08 0-.12-.07-.15-.13-.03-.08 0-.22.08-.35.94-1.48 1.44-2.62 1.54-3.46.03-.28.06-.42.08-.54.04-.19.07-.35.1-.74l.06-.74c.09-1.26.23-3.17.56-3.89.19-.43 1.39-1.1 2.03-1.46.41-.23.77-.43 1.04-.63h1.87s.09.03.14.04c.28.21.65.41 1.07.65.62.35 1.77.99 1.95 1.39.33.72.47 2.64.56 3.9l.05.73c.03.39.06.55.1.74.02.12.05.26.08.54.1.85.6 1.98 1.54 3.46.09.15.1.28.08.35Z"/></svg>

