<svg xmlns="http://www.w3.org/2000/svg" viewBox="0 0 48 48"><title>Afval GFT</title><path d="M40.01 32.03c-.02-8.37-7.54-9.88-12.43-9.99l.9-8.05h1.51a2 2 0 0 0 2-2v-2c0-1.1-.9-2-2-2h-2.33c0-1.1-.9-2-2-2H11.85c-1.09 0-1.85.89-1.85 1.98-1.11.01-2 .91-2 2.02V12c0 1.1.89 1.99 1.99 1.99v20.06a3.51 3.51 0 0 0 1.82 5.88c1.22.24 2.36-.17 3.14-.93h8.06c.83 0 1.57-.35 2.11-.91.23-.18.39-.45.39-.77 0-.55-.45-1-1-1-.28 0-.53.12-.71.3h-.01c-.18.22-.46.38-.78.38h-7.05c.02-.16.05-.33.05-.5 0-1.93-1.57-3.5-3.5-3.5-.17 0-.34.03-.5.05V14h14.48l-.9 8.04h-2.57c-.55 0-1 .45-1 1v2.06c.62 10.7 6.87 12.94 12 12.94h3.01c.12 0 .25-.03.36-.07.35 1.15.54 2.23.63 3.11.06.51.49.89.99.89h.11c.55-.06.94-.56.88-1.1-.19-1.67-.57-3.2-1.11-4.59 1.11-1.78 1.12-3.43 1.12-4.23ZM12.5 35c.83 0 1.5.67 1.5 1.5s-.67 1.5-1.5 1.5-1.5-.67-1.5-1.5.67-1.5 1.5-1.5ZM10 12v-2c1.1 0 2-.9 2-2s13.66 0 13.66 0v.03c.01 1.09.9 1.97 1.99 1.97h2.34v2H10Zm27.87 21.95c-1.3-2.17-3.11-3.82-5.37-4.83a1 1 0 1 0-.81 1.83c2.53 1.12 4.07 3.05 5.02 5.05-.01.01-.02.03-.03.04H34.1c-6.3 0-9.57-3.62-10-11v-1h3.01c7.28 0 10.99 2.69 11 8 0 .46 0 1.14-.24 1.91Z"/></svg>
