<svg xmlns="http://www.w3.org/2000/svg" viewBox="0 0 48 48"><title>Afvalkalender</title><path d="M37.02 8h-5V6.99c0-.55-.44-.99-.99-.99H31c-.55 0-.99.44-.99.99V11c0 .55.45 1 1 1s1-.45 1-1v-1h5v4H11.03v-4h1.99c.55 0 1-.45 1-1s-.45-1-1-1h-2c-1.11 0-2 .89-2 1.99L9 38.02c0 2.2 1.78 3.99 3.98 3.99h22.04c2.21 0 4-1.79 4-4V10c0-1.1-.9-2-2-2Zm-2 32H13.01c-1.1 0-1.99-.89-1.99-1.99V16h26v22c0 1.1-.9 2-2 2ZM16.03 10V8h.02V6.99c0-.54.45-.99.99-.99s.99.44.99.99V8h9c.55 0 1 .45 1 1s-.45 1-1 1h-9v1c0 .55-.45 1-1 1s-1-.45-1-1v-1ZM31 20h-.99v-.03a2 2 0 0 0-2-1.97H20c-1.1 0-2 .9-2 2h-1c-.55 0-1 .45-1 1s.45 1 1 1h1.01v10.78A2.96 2.96 0 0 0 17 35c0 1.65 1.35 3 3 3 .88 0 1.67-.39 2.22-1H26c1.16 0 2.17-.87 2.34-2.02l1.65-12.96v-.03h1.02c.55 0 1-.45 1-1s-.45-1-1-1ZM20 36c-.55 0-1-.45-1-1s.45-1 1-1 1 .45 1 1-.45 1-1 1Zm6.36-1.31c-.03.18-.18.31-.36.31h-3c0-1.65-1.35-3-3-3V20h8l-1.64 14.69Z"/></svg>

