<svg xmlns="http://www.w3.org/2000/svg" viewBox="0 0 48 48"><title>Afval groenbak</title><path d="M33.07 19c.49 0 .9.42.9.91 0 1.71-1.39 3.09-3.1 3.09-.49 0-.88-.39-.9-.87l.02-.13h-.02c.05-1.66 1.41-3 3.09-3Zm5.89 8.03c-.06.29-.25.53-.5.67-2.34 1.25-2.94 3.92-2.6 6.62.17 1.32 1.04 2.37 2.07 3.22.4.33.5.92.21 1.35-1.02 1.5-2.66 3.11-4.2 3.11-1.08 0-1.72-.21-2.23-.38-.41-.14-.74-.25-1.33-.25-.72 0-1.22.14-1.76.3-.52.15-1.06.3-1.76.33-1.36 0-2.64-1.04-3.74-3h-7.18a3.499 3.499 0 0 1-5.88-1.81c-.24-1.22.17-2.36.93-3.14V14C9.89 14 9 13.11 9 12.01V9.97c0-1.09.88-1.98 1.97-1.99H11C11 6.89 11.76 6 12.85 6h13.81c1.1 0 2 .9 2 2H31c1.1 0 1.99.9 1.99 1.99v2.02c0 1.1-.89 1.99-1.99 1.99h-1.52l-.49 7.04c-.02.54-.46.96-1 .96a1 1 0 0 1-1-1.04l.48-6.96H12.99v19.05c.16-.02.33-.05.5-.05 1.93 0 3.5 1.57 3.5 3.5 0 .17-.03.34-.05.5h6.69c.98-1.1 1.54-2.52 1.54-4 0-2.03-1.02-3.91-2.72-5.02-.43-.28-.58-.84-.35-1.3 1.01-2.01 2.64-3.07 4.72-3.07 1.32 0 2.51.79 2.64.85.31.16.77.39.93.41.11-.02.52-.22.82-.36.88-.42 2.1-1.01 3.4-.9.71.05 2.65.64 4.16 2.6.18.23.25.53.19.82ZM29.68 12H31v-2h-2.35c-1.09 0-1.98-.88-1.99-1.97V8H13c0 1.11-.89 2-1.99 2v2h18.68ZM15 36.5c0-.83-.67-1.5-1.5-1.5s-1.5.67-1.5 1.5.67 1.5 1.5 1.5 1.5-.67 1.5-1.5Zm21.42-9.85c-1.01-.78-1.71-1.03-1.95-1.05-.78-.06-1.64.35-2.39.71-.62.3-1.16.56-1.69.56-.59 0-1.19-.3-1.82-.63-.58-.3-1.24-.63-1.74-.63-1.05 0-1.88.42-2.5 1.27a7.99 7.99 0 0 1 2.86 6.13c0 2-.76 3.92-2.1 5.39.69 1.11 1.35 1.61 1.74 1.61.43-.02.81-.13 1.26-.26.61-.17 1.31-.37 2.3-.37.91 0 1.47.19 1.96.35.45.15.84.28 1.6.28.35 0 1.17-.5 2.04-1.55a7.922 7.922 0 0 1-2.2-5.5c0-2.49.7-4.81 2.64-6.3Z"/></svg>

