<svg xmlns="http://www.w3.org/2000/svg" viewBox="0 0 48 48"><title>Agenda</title><path d="M29 34c0-.55.45-1 1-1h2c.55 0 1 .45 1 1s-.45 1-1 1h-2c-.55 0-1-.45-1-1Zm-6-5h2c.55 0 1-.45 1-1s-.45-1-1-1h-2c-.55 0-1 .45-1 1s.45 1 1 1Zm0-6h2c.55 0 1-.45 1-1s-.45-1-1-1h-2c-.55 0-1 .45-1 1s.45 1 1 1Zm7 0h2c.55 0 1-.45 1-1s-.45-1-1-1h-2c-.55 0-1 .45-1 1s.45 1 1 1Zm0 6h2c.55 0 1-.45 1-1s-.45-1-1-1h-2c-.55 0-1 .45-1 1s.45 1 1 1Zm-14 6h2c.55 0 1-.45 1-1s-.45-1-1-1h-2c-.55 0-1 .45-1 1s.45 1 1 1Zm0-12h2c.55 0 1-.45 1-1s-.45-1-1-1h-2c-.55 0-1 .45-1 1s.45 1 1 1Zm0 6h2c.55 0 1-.45 1-1s-.45-1-1-1h-2c-.55 0-1 .45-1 1s.45 1 1 1Zm6.7 7.46c.37.32.93.31 1.29-.02l3.22-2.94c.41-.37.42-1.01.03-1.41-.38-.38-1-.38-1.38 0l-2.5 2.5-.73-.73a.966.966 0 0 0-1.37 0c-.4.39-.37 1.04.05 1.4l1.39 1.19ZM37.02 8h-5V6.99c0-.55-.44-.99-.99-.99H31c-.55 0-.99.44-.99.99V11c0 .55.45 1 1 1s1-.45 1-1v-1h5v4H11.03v-4h1.99c.55 0 1-.45 1-1s-.45-1-1-1h-2c-1.11 0-2 .89-2 1.99L9 38.02c0 2.2 1.78 3.99 3.98 3.99h22.04c2.21 0 4-1.79 4-4V10c0-1.1-.9-2-2-2ZM13.01 40c-1.1 0-1.99-.89-1.99-1.99V16h26v22c0 1.1-.9 2-2 2H13.01Zm3.02-29c0 .55.45 1 1 1s1-.45 1-1v-1h9c.55 0 1-.45 1-1s-.45-1-1-1h-9V6.99c0-.55-.44-.99-.99-.99s-.99.44-.99.99V8h-.02v3Z"/></svg>

