<svg xmlns="http://www.w3.org/2000/svg" viewBox="0 0 48 48"><title>Airborne</title><path d="M38.76 17.16c.26-.47.33-1.03.15-1.54C37.01 10.12 30.95 6 23.99 6s-13.1 3.94-14.94 9.77c-.16.5-.08 1.04.17 1.5 1.83 3.37 9.78 17.79 13.02 23.69.76 1.39 2.75 1.38 3.51 0 3.22-5.89 11.16-20.37 13.01-23.8Zm-2.3-1.92c-.98.18-1.98.34-2.99.48-.55-2.4-1.36-4.35-2.28-5.92 2.36 1.28 4.24 3.17 5.28 5.44Zm-8.41.98c-.25-3.27-.87-5.98-1.51-7.99.41.07.82.15 1.22.25 1.41 1.58 2.84 3.96 3.68 7.47-1.12.12-2.25.21-3.39.27Zm-3.71-8.19c.67 1.92 1.4 4.75 1.68 8.27-.68.02-1.35.04-2.03.04s-1.36-.03-2.03-.04c.28-3.52 1.02-6.35 1.68-8.27.12 0 .23-.01.35-.01s.23 0 .35.01Zm-7.8 7.92c.84-3.5 2.27-5.89 3.68-7.47.4-.1.81-.18 1.22-.25-.64 2.01-1.26 4.72-1.51 7.99-1.15-.06-2.28-.16-3.39-.27Zm.26-6.15c-.92 1.57-1.73 3.52-2.28 5.92-1.02-.14-2.02-.3-2.99-.48 1.04-2.27 2.91-4.16 5.28-5.44Zm-5.19 7.49c1.86.33 3.81.59 5.84.77l4.44 18.42-10.28-19.19Zm7.99.93c1.44.08 2.9.13 4.39.13s2.94-.05 4.38-.13c-.79 2.92-4.38 18.26-4.38 18.26s-3.64-15.34-4.39-18.26Zm6.51 18.26 4.48-18.43c1.95-.17 3.84-.42 5.64-.74L26.11 36.48Z"/></svg>

