<svg xmlns="http://www.w3.org/2000/svg" viewBox="0 0 48 48"><title>Armoede</title><path d="M7.81 16.05h-.87c-.55 0-1-.45-1-1s.45-1 1-1h.39c-.02-.18-.02-.37-.04-.56-.01-.07-.04-.13-.04-.2 0-.09.01-.17.01-.26s-.01-.17-.01-.26c0-.07.03-.13.04-.2.01-.19.01-.38.04-.56h-.39c-.55 0-1-.45-1-1s.45-1 1-1h.87c.65-1.75 1.85-3.05 3.47-3.67 1.95-.74 4.05-.27 5.34 1.2.37.41.33 1.05-.09 1.41s-1.04.33-1.41-.09c-.74-.84-1.97-1.09-3.14-.65-.84.32-1.52.94-1.99 1.8h2.95c.55 0 1 .45 1 1s-.45 1-1 1H9.35c-.05.33-.08.66-.09 1.02.01.35.04.69.09 1.02h3.59c.55 0 1 .45 1 1s-.45 1-1 1H9.99c.47.85 1.14 1.48 1.99 1.8 1.17.44 2.4.18 3.14-.66a.998.998 0 1 1 1.5 1.32c-.89 1.01-2.16 1.55-3.49 1.55-.61 0-1.24-.11-1.85-.34-1.63-.61-2.82-1.92-3.47-3.67ZM41.95 18v23c0 .55-.45 1-1 1h-12c-.55 0-1-.45-1-1V17.96l-2.92-4.87-3.09 4.89V24c0 .55-.45 1-1 1s-1-.45-1-1v-6.31c0-.19.05-.37.15-.53l3.85-6.1V7.01c0-.55.45-1 1-1h12c.55 0 1 .45 1 1v4.04l3.87 6.45s.02.06.04.08c.01.03.03.06.04.09.04.11.07.22.07.34Zm-16-8h10V8h-10v2Zm3.76 7h9.47l-3-5h-9.47l3 5Zm10.24 2h-10v21h10V19ZM25.09 33.58c-.2 3.81-1.79 6.88-4.15 8-.61.29-1.24.43-1.88.43-.72 0-1.44-.19-2.12-.55-1.22.65-2.57.68-3.86.06-2.41-1.15-4.09-4.26-4.28-7.94-.12-2.35.75-4.38 2.38-5.57 1.3-.96 2.98-1.28 4.73-.95-.11-1.36-.49-2.01-1.21-2.77a.996.996 0 1 1 1.44-1.38c1.15 1.21 1.66 2.36 1.77 4.16 1.78-.34 3.47-.02 4.79.94 1.63 1.19 2.5 3.22 2.38 5.57Zm-3.56-3.96c-1.11-.81-2.61-.92-4.23-.31-.23.08-.48.08-.7 0-1.62-.61-3.12-.5-4.23.32-1.08.79-1.65 2.19-1.56 3.85.17 3.36 1.7 5.55 3.14 6.23.84.4 1.65.32 2.42-.25l.59-.43.59.44c.82.6 1.69.7 2.54.3 1.27-.6 2.82-2.61 3.01-6.29.09-1.66-.48-3.06-1.56-3.85Z"/></svg>