<svg xmlns="http://www.w3.org/2000/svg" viewBox="0 0 48 48"><title>Asbest Verwijderen</title><path d="M41.5 34.18 27.41 9.94C26.71 8.74 25.42 8 24.02 8s-2.69.75-3.39 1.94L6.54 34.18c-.7 1.2-.7 2.69 0 3.89.7 1.19 1.99 1.93 3.37 1.93H38.1c1.39 0 2.68-.74 3.38-1.93.7-1.2.7-2.69 0-3.89Zm-1.73 2.88c-.34.58-.97.94-1.66.94H9.94c-.68 0-1.31-.36-1.65-.94a1.86 1.86 0 0 1 0-1.88l14.09-24.24a1.927 1.927 0 0 1 3.32 0l14.09 24.24c.34.58.33 1.3 0 1.88Zm-11.4-17.07c-1.63-1.33-3.78-1.84-5.88-1.41-2.69.56-4.84 2.75-5.36 5.47-.46 2.43.33 4.8 2.13 6.45v2.18c0 1.83 1.49 3.33 3.33 3.33h2.76c1.83 0 3.32-1.49 3.32-3.33V30.5a6.91 6.91 0 0 0 2.26-5.1c0-2.11-.94-4.08-2.57-5.41Zm-1.32 9.26a1 1 0 0 0-.38.78v2.64c0 .73-.59 1.33-1.32 1.33h-2.76c-.73 0-1.33-.59-1.33-1.33v-2.64a1 1 0 0 0-.38-.78c-1.48-1.18-2.15-2.99-1.79-4.84.37-1.93 1.9-3.49 3.8-3.88.35-.07.71-.11 1.06-.11 1.15 0 2.25.38 3.15 1.11 1.17.95 1.83 2.35 1.83 3.86s-.69 2.9-1.89 3.86ZM26.53 24c.83 0 1.5.67 1.5 1.5s-.67 1.5-1.5 1.5-1.5-.67-1.5-1.5.67-1.5 1.5-1.5Zm-3.5 1.52c0 .82-.66 1.48-1.48 1.48s-1.48-.66-1.48-1.48.66-1.48 1.48-1.48 1.48.66 1.48 1.48Zm0 3.45c0-.54.44-.97.97-.97s.97.44.97.97v.97h-1.95v-.97Z"/></svg>