<svg xmlns="http://www.w3.org/2000/svg" viewBox="0 0 48 48"><title>Attentie</title><path d="M38.01 18.03V9c0-.55-.45-1-1-1h-1.59c-.18 0-.36.05-.51.14L23.42 15H10.01c-1.1 0-2 .9-2 2v1c-1.1 0-2 .9-2 2v4c0 1.1.9 2 2 2v1c0 1.1.9 2 2 2h1.13l2.57 9.52A2.01 2.01 0 0 0 15.64 40h5.86c1.32 0 2.27-1.25 1.93-2.52L21.14 29h1.68l12.13 6.87c.15.09.32.13.49.13H37c.55 0 1-.45 1-1v-9.01c2.2 0 3.98-1.78 3.98-3.98S40.2 18.03 38 18.03ZM21.5 38h-5.86l-2.43-9h5.86l.14.53L21.49 38ZM10.01 27v-2c0-.55-.45-1-1-1h-1v-4h1c.55 0 1-.45 1-1v-2h12v10h-12Zm26-8.99V34h-.31l-11.69-6.6V17.04l.44-.27L35.7 9.99h.31V18Zm2 3.53v-.04.04Zm0 2.45v-4c1.1 0 2 .9 2 2s-.9 2-2 2Z"/></svg>

