<svg xmlns="http://www.w3.org/2000/svg" viewBox="0 0 48 48"><title>Auto</title><path d="M13.01 25c-1.1 0-1.99.88-1.99 1.97s.89 1.97 1.99 1.97S15 28.06 15 26.97 14.11 25 13.01 25ZM35 24.97c-1.11 0-2.01.89-2.01 1.99s.9 1.99 2.01 1.99 2.01-.89 2.01-1.99-.9-1.99-2.01-1.99ZM20 26h8.01c.55 0 .99.45.99.99 0 .55-.45.99-.99.99H20c-.55 0-.99-.45-.99-.99 0-.55.45-.99.99-.99Zm20.5-7.01h.8c.39 0 .71-.42.71-.94v-.12c0-.52-.32-.94-.71-.94h-1.51l-2.11-4.93c-.6-1.83-2.31-3.06-4.26-3.07H14.7c-1.94.11-3.65 1.34-4.25 3.15l-2.16 4.85H6.72c-.39 0-.71.42-.71.94v.12c0 .52.32.94.71.94h.84l-1.13 1.47c-.27.35-.42.78-.42 1.22V37c0 1.1.9 2 2 2h3c1.1 0 2-.9 2-2v-3h22v3c0 1.1.9 2 2 2h3c1.1 0 2-.9 2-2V21.66c0-.43-.14-.85-.4-1.19l-1.11-1.48Zm-28.17-6.15v-.03l.02-.03c.33-.99 1.3-1.71 2.42-1.78h18.64c1.08 0 2.04.69 2.38 1.74L38.73 20H9.31l3.01-7.15ZM11.01 37h-3v-3h3v3Zm-3-5V21.99h32V32H8Zm32 5h-3v-3h3v3Z"/></svg>

