<svg xmlns="http://www.w3.org/2000/svg" viewBox="0 0 48 48"><title>Bedrijventerrein</title><path d="m41.12 17.9-7.59-4.74c-.34-.21-.78-.2-1.11.03L26 17.06V7.87C26 6.84 25.16 6 24.13 6H13.87C12.84 6 12 6.84 12 7.87v10.26c0 1.03.84 1.87 1.87 1.87H25s.07-.02.1-.02c.07 0 .13-.02.2-.04s.13-.05.19-.08c.03-.02.07-.02.09-.04l7.46-4.61L40 19.56v11.45c0 .55.45 1 1 1s1-.45 1-1V19.49c0-.65-.33-1.25-.88-1.59ZM18 18h-4v-4h4v4Zm0-6h-4V8h4v4Zm6 6h-4v-4h4v4Zm0-6h-4V8h4v4Zm11.63 17.82-1.89-.63-2.6-6.06c-.29-.69-.97-1.13-1.72-1.13H8c-1.1 0-2 .9-2 2v13c0 1.1.9 2 2 2h1.24c.42 1.72 1.96 3 3.81 3s3.39-1.28 3.81-3h9.37c.42 1.72 1.96 3 3.81 3s3.39-1.28 3.81-3h1.13c1.1 0 2-.9 2-2v-5.28c0-.86-.55-1.62-1.37-1.9ZM25 24h4.34l2.14 5H25v-5Zm-2 0v5H8v-5h15Zm-9.94 16c-1.07 0-1.94-.87-1.94-1.94s.87-1.94 1.94-1.94 1.94.87 1.94 1.94S14.13 40 13.06 40Zm17 0c-1.07 0-1.94-.87-1.94-1.94s.87-1.94 1.94-1.94 1.94.87 1.94 1.94S31.13 40 30.06 40ZM35 37h-1.16c-.47-1.66-1.97-2.88-3.78-2.88s-3.31 1.22-3.78 2.88h-9.44c-.47-1.66-1.97-2.88-3.78-2.88S9.75 35.34 9.28 37H8v-6h24.84l2.16.72V37Z"/></svg>

