<svg xmlns="http://www.w3.org/2000/svg" viewBox="0 0 48 48"><title>Begroting</title><path d="M32.03 5.99H7.98c-1.09 0-1.97.88-1.97 1.97v24.21c0 .53.21 1.04.59 1.41l7.83 7.82c.38.38.88.59 1.41.59h12.17c.55 0 1-.45 1-1s-.45-1-1-1h-11V33c0-1.1-.9-2-2-2h-7V7.99h24V23c0 .55.44.99.99.99s.99-.44.99-.99l.02-15.03c0-1.09-.88-1.97-1.97-1.97ZM8.87 33H15v6.12L8.87 33ZM28 18.97c0 .56-.46 1.02-1.02 1.02l-13.96.04c-.57 0-1.02-.46-1.02-1.02s.46-1.02 1.02-1.02l13.96-.04c.57 0 1.02.46 1.02 1.02Zm-16-4.98c0-.55.45-1 1-1h14c.55 0 1 .45 1 1s-.45 1-1 1H13c-.55 0-1-.45-1-1Zm0 10c0-.55.45-1 1-1h8c.55 0 1 .45 1 1s-.45 1-1 1h-8c-.55 0-1-.45-1-1ZM39.83 39.5c.31.46.19 1.08-.27 1.39A6.328 6.328 0 0 1 36 42c-1.81 0-3.6-.8-4.96-2.35a8.133 8.133 0 0 1-1.53-2.66h-1.52c-.55 0-1-.45-1-1s.45-1 1-1h1.07a9.55 9.55 0 0 1 0-2h-1.08c-.55 0-1-.45-1-1s.45-1 1-1h1.52c.32-.92.8-1.79 1.43-2.54 2.26-2.69 5.8-3.24 8.61-1.35.46.31.58.93.27 1.39-.31.46-.93.58-1.39.27-1.93-1.3-4.38-.9-5.96.98-.32.38-.57.81-.79 1.26h4.31c.55 0 1 .45 1 1s-.45 1-1 1h-4.93c-.09.66-.09 1.34 0 2h4.92c.55 0 1 .45 1 1s-.45 1-1 1h-4.3c.23.48.5.94.86 1.34 1.6 1.83 3.96 2.19 5.89.89a.999.999 0 0 1 1.39.27Z"/></svg>

