<svg xmlns="http://www.w3.org/2000/svg" viewBox="0 0 48 48"><title>Begraafplaats</title><path d="M28 27h.26c4.42.05 8.38.82 12.38 2.58.65.28 1.37-.21 1.37-.91 0-.39-.23-.75-.59-.91a31.86 31.86 0 0 0-5.41-1.82V22h1c.31 0 .62-.04.93-.11 1.04-.25 1.92-.88 2.48-1.79.46-.74.65-1.59.58-2.44.14-.16.27-.33.38-.51 1.03-1.61.76-3.69-.54-4.98.4-1.32.1-2.77-.84-3.83a3.959 3.959 0 0 0-2.5-1.29c-.66-.67-1.54-1.04-2.48-1.04s-1.82.37-2.47 1.03c-.53.06-1.03.22-1.49.48-1.67.94-2.4 2.9-1.86 4.66a3.974 3.974 0 0 0-1.16 3.19c.08.86.43 1.66 1 2.3v.1c-.04.63.05 1.28.32 1.85.67 1.42 1.96 2.29 3.47 2.38h1.2v3.53c-1.79-.32-3.59-.49-5.53-.51h-.47c-.55 0-1 .44-1 .99s.45 1 1 1Zm5.03-7h-.14c-.53-.04-1.02-.27-1.38-.67-.36-.4-.53-.91-.5-1.45 0-.12.02-.23.05-.34a.996.996 0 0 0-.33-1c-.41-.34-.66-.82-.71-1.36-.05-.53.11-1.05.46-1.46.13-.16.29-.29.46-.41.45-.29.59-.87.33-1.33-.54-.96-.2-2.18.76-2.72.29-.17.62-.25.98-.25.31 0 .61-.15.8-.4.58-.77 1.82-.77 2.39 0 .19.25.49.4.8.4.58 0 1.11.23 1.49.66.57.64.67 1.57.25 2.31-.26.46-.11 1.05.33 1.33.93.59 1.2 1.83.61 2.76-.11.17-.25.33-.41.46-.29.24-.42.63-.33 1 .12.52.04 1.06-.24 1.51s-.72.77-1.24.9c-.15.04-.31.05-.46.05h-1v-3.58l1.71-1.71a.996.996 0 1 0-1.41-1.41l-.29.29v-1.59c0-.55-.45-1-1-1s-1 .45-1 1v3.58l-.29-.29a.996.996 0 1 0-1.41 1.41l1.71 1.71v1.44h-.21.21v.14h-.97Zm8.85 20.52c.26.48.09 1.09-.4 1.36a1.009 1.009 0 0 1-1.36-.4c-3.64-6.67-9.21-9.5-12.79-10.67-.48-.16-.77-.65-.67-1.15.12-.59.72-.95 1.29-.77 3.92 1.27 9.93 4.34 13.92 11.64ZM20 25c0 .55-.45 1-1 1h-5c-.55 0-1-.45-1-1s.45-1 1-1h5c.55 0 1 .45 1 1Zm5 8.16V22.02c0-.69-.36-1.34-.95-1.7-.32-.2-.64-.39-.82-.48-2.1-1.1-4.4-1.68-6.73-1.68s-4.46.54-6.5 1.56c-.17.08-.65.4-1.1.7-.56.37-.9 1-.9 1.67v11.08c-1.16.38-2 1.46-2 2.74V37a2 2 0 0 0 2 2h17c1.1 0 1.99-.89 1.99-1.99v-1.1c0-1.28-.84-2.36-2-2.74ZM10 22c4-2.42 9-2.42 13 0v11H10V22Zm15 15H8v-1.1c0-.5.41-.9.9-.9h15.2c.5 0 .9.41.9.9V37Zm-6-8c0 .55-.45 1-1 1h-3c-.55 0-1-.45-1-1s.45-1 1-1h3c.55 0 1 .45 1 1Z"/></svg>

