<svg xmlns="http://www.w3.org/2000/svg" viewBox="0 0 48 48"><title>Belastingen</title><path d="M40 8H9c-1.1 0-2 .9-2 2v7c0 1.1.9 2 2 2h3.02l-5.73 9.06c-.59.93-.31 2.17.62 2.76l14.32 9.04c.94.59 2.17.31 2.76-.62L36.76 19h3.23c1.1 0 1.99-.9 2-2V9.99a2 2 0 0 0-2-2Zm-7.82 4.14c-.47-.29-1.08-.15-1.38.31-.29.47-.15 1.08.31 1.38l4.67 2.94-13.47 21.38L8 29.14l5.44-8.63 2.1 1.33c.47.3 1.08.16 1.38-.31.3-.47.16-1.08-.31-1.38l-2.1-1.33 3.37-5.35c.29-.47.15-1.08-.31-1.38-.47-.29-1.08-.15-1.38.31L13.3 17H9.02v-7h31v7h-2.25c.09-.74-.24-1.5-.91-1.93l-4.66-2.94Zm-6.29 15.27-3.11 5.1c-.29.48-.92.63-1.4.34-.48-.29-.63-.92-.34-1.4l3.11-5.1c.29-.48.92-.63 1.4-.34.48.29.63.92.34 1.4Zm3.94-8.67a4.056 4.056 0 0 1-1.55 2.44c-1.21.91-2.79 1.06-4.18.56l-.19.31c-.3.47-.91.61-1.38.31a.994.994 0 0 1-.31-1.38l.2-.31c-.12-.12-.24-.22-.35-.35-.78-.96-1.13-2.14-.99-3.32.14-1.12.71-2.11 1.61-2.79.44-.33 1.07-.24 1.4.2.33.44.24 1.07-.2 1.4-.46.35-.75.86-.82 1.43-.07.59.1 1.18.46 1.68l1.37-2.17c.3-.47.91-.61 1.38-.31.47.3.61.91.31 1.38l-1.38 2.17c.65.12 1.33 0 1.87-.41.41-.31.69-.76.79-1.25.11-.54.64-.89 1.18-.78.54.11.89.64.78 1.18Z"/></svg>

