<svg xmlns="http://www.w3.org/2000/svg" viewBox="0 0 48 48"><title>Betaaldatums uitkering</title><path d="M30 28c0 .55-.45 1-1 1h-2.03a.97.97 0 0 1-.97-.97v-.05c0-.54.44-.97.97-.97H29c.55 0 1 .45 1 1Zm-11 .04c0 .53.43.96.96.96h2.06c.54 0 .97-.44.97-.97v-.05a.97.97 0 0 0-.97-.97h-2.06a.96.96 0 0 0-.96.96v.07ZM30 40H9.99C8.89 40 8 39.11 8 38.01V17h26v6c0 .55.45 1 1 1s1-.45 1-1V10c0-1.1-.9-2-2-2h-5V6.99c0-.55-.44-.99-.99-.99h-.03c-.55 0-.99.44-.99.99V11c0 .55.45 1 1 1s1-.45 1-1v-1h5v5H8.01v-5H10c.55 0 1-.45 1-1s-.45-1-1-1H8c-1.11 0-2 .89-2 1.99l-.02 28.03c0 2.2 1.78 3.99 3.98 3.99H30c.55 0 1-.45 1-1s-.45-1-1-1ZM19.96 23h2.06c.54 0 .97-.44.97-.97v-.05a.97.97 0 0 0-.97-.97h-2.06a.96.96 0 0 0-.96.96v.07c0 .53.43.96.96.96ZM13 10v1c0 .55.44 1 .99 1s1-.45 1-1v-1h9c.55 0 1-.45 1-1s-.45-1-1-1h-9V6.99c0-.55-.44-.99-.99-.99s-.99.44-.99.99V8h-.02v2Zm17 12c0-.55-.45-1-1-1h-2.03a.97.97 0 0 0-.97.97v.05c0 .54.44.97.97.97H29c.55 0 1-.45 1-1Zm-14-.03a.97.97 0 0 0-.97-.97h-2.06a.96.96 0 0 0-.96.96v.07c0 .53.43.96.96.96h2.06c.54 0 .97-.44.97-.97v-.05Zm25.83 17.54c.31.46.19 1.08-.27 1.39A6.328 6.328 0 0 1 38 42.01c-1.81 0-3.6-.8-4.96-2.35A8.133 8.133 0 0 1 31.51 37h-1.52c-.55 0-1-.45-1-1s.45-1 1-1h1.07a9.55 9.55 0 0 1 0-2h-1.08c-.55 0-1-.45-1-1s.45-1 1-1h1.52c.32-.92.8-1.79 1.43-2.54 2.26-2.69 5.8-3.24 8.61-1.35.46.31.58.93.27 1.39-.31.46-.93.58-1.39.27-1.93-1.3-4.38-.9-5.96.98-.32.38-.57.81-.79 1.26h4.31c.55 0 1 .45 1 1s-.45 1-1 1h-4.93c-.09.66-.09 1.34 0 2h4.92c.55 0 1 .45 1 1s-.45 1-1 1h-4.3c.23.48.5.94.86 1.34 1.6 1.83 3.96 2.19 5.89.89a.999.999 0 0 1 1.39.27Zm-.27 1.38ZM16 27.97a.97.97 0 0 0-.97-.97h-2.06a.96.96 0 0 0-.96.96v.07c0 .53.43.96.96.96h2.06c.54 0 .97-.44.97-.97v-.05Zm2.26 5.89c-.4.4-.38 1.05.05 1.41l1.38 1.18c.37.32.93.31 1.29-.02l3.22-2.94c.41-.37.42-1.01.03-1.41-.38-.38-1-.38-1.38 0l-2.5 2.5-.74-.74a.972.972 0 0 0-1.36 0ZM15.02 33h-2.06a.96.96 0 0 0-.96.96v.07c0 .53.43.96.96.96h2.06c.54 0 .97-.44.97-.97v-.05a.97.97 0 0 0-.97-.97Z"/></svg>

