<svg xmlns="http://www.w3.org/2000/svg" viewBox="0 0 48 48"><title>Bevolking</title><path d="M23.69 24.29a4.52 4.52 0 0 0 5.57 5.57c1.51-.4 2.72-1.62 3.12-3.12a4.52 4.52 0 0 0-5.57-5.57c-1.51.4-2.72 1.62-3.12 3.12Zm6.78.6a2.52 2.52 0 0 1-3.06 3.06c-.88-.21-1.6-.93-1.81-1.81a2.52 2.52 0 0 1 3.06-3.06c.88.21 1.6.93 1.81 1.81Zm-10.23 3.18a4.52 4.52 0 0 0-5.57 5.57c.4 1.51 1.62 2.72 3.12 3.12a4.52 4.52 0 0 0 5.57-5.57 4.446 4.446 0 0 0-3.12-3.12Zm-.6 6.78a2.52 2.52 0 0 1-3.06-3.06c.21-.88.93-1.6 1.81-1.81a2.52 2.52 0 0 1 3.06 3.06c-.21.88-.93 1.6-1.81 1.81Zm15.64-15.01a4.52 4.52 0 0 0 5.57-5.57 4.446 4.446 0 0 0-3.12-3.12 4.52 4.52 0 0 0-5.57 5.57c.4 1.51 1.62 2.72 3.12 3.12Zm.6-6.78a2.52 2.52 0 0 1 3.06 3.06c-.21.88-.93 1.6-1.81 1.81a2.52 2.52 0 0 1-3.06-3.06c.21-.88.93-1.6 1.81-1.81ZM34 34v7c-.01.55-.46 1-1.01 1s-1-.45-1-1v-7c.01-.54-.47-1-.99-1h-5.01c-.54 0-.99-.45-.99-.99s.44-.99.98-.99l5.01-.02c1.65 0 3 1.35 3 3Zm8-10v8.01c0 1.1-.9 1.99-2 1.99v7c0 .55-.45 1-1 1s-1-.45-1-1v-9h1.99v-8c0-.54-.47-1-.99-1h-5c-.55 0-1-.45-1-1s.45-1 1-1h5c1.65 0 3 1.35 3 3ZM25 40.99s0 1-1 1-1-1-1-1-.04-1-.94-1H16c-.36 0-.6.18-.71.29-.11.11-.29.35-.29.71 0 0 0 1-1 1s-1-1-1-1c0-1.66 1.34-3 3-3h6.05c1.46 0 2.94 1.55 2.94 3ZM7.99 35.98H10v5.01c0 .55-.45 1-1 1s-1-.45-1-1v-3.01c-1.11 0-2.01-.89-2.01-2v-8c0-1.65 1.36-2.99 3.02-2.99H16c.55 0 1 .45 1 1s-.45 1-1 1H9.01c-.56 0-1.01.44-1.01.99v8Zm13.29-21.15a4.52 4.52 0 0 0 5.57-5.57 4.446 4.446 0 0 0-3.12-3.12 4.52 4.52 0 0 0-5.57 5.57c.4 1.51 1.62 2.72 3.12 3.12Zm.6-6.78a2.52 2.52 0 0 1 3.06 3.06c-.21.88-.93 1.6-1.81 1.81a2.52 2.52 0 0 1-3.06-3.06c.21-.88.93-1.6 1.81-1.81Zm-4.36 8.94c0-.55.45-1 1-1h7.04c1.46 0 2.9 1.5 2.9 2.7 0 .55-.45 1-1 1-.44 0-.8-.29-.94-.68 0-.36-.62-1.01-.97-1.01h-7.04c-.55 0-1-.45-1-1Zm-6.67 6.86a4.52 4.52 0 0 0 5.57-5.57 4.446 4.446 0 0 0-3.12-3.12 4.52 4.52 0 0 0-5.57 5.57c.4 1.51 1.62 2.72 3.12 3.12Zm.6-6.78a2.52 2.52 0 0 1 3.06 3.06c-.21.88-.93 1.6-1.81 1.81a2.52 2.52 0 0 1-3.06-3.06c.21-.88.93-1.6 1.81-1.81Z"/></svg>

