<svg xmlns="http://www.w3.org/2000/svg" viewBox="0 0 48 48"><title>Bevrijding</title><path d="M30.09 18c0-.55.45-1 1-1s1 .45 1 1-.45 1-1 1-1-.45-1-1Zm-6.42 14.03h-1.89c-1.43 0-2.32 1.5-2.33 1.52l-2.31 4.66a3.272 3.272 0 0 1-2.89 1.74c-.92 0-1.77-.38-2.37-1.03-.79.24-1.64.21-2.45-.1-1.13-.42-2.03-1.4-2.33-2.55-.15-.58-.18-1.17-.07-1.74a3.262 3.262 0 0 1-1.07-2.41c0-1.37.87-2.6 2.16-3.07l5-1.87c-.95-1.02-1.54-2.5-1.54-4 0-.76.15-1.51.45-2.2-1.15-.79-1.88-2.1-1.88-3.52 0-.52.1-1.04.28-1.52a3.768 3.768 0 0 1-1.32-2.87c0-.73.14-1.42.39-2-.36-.52-.53-1.14-.53-1.87 0-1.73 1.46-3.2 3.18-3.2.71 0 1.38.23 1.95.67l.1.09 10.84 11.08c.31-.34.89-.98 1.39-1.54l.86-.95c.33-.36.7-.67 1.12-.92 1.04-.62 2.29-.8 3.51-.52 1.41.33 2.6 1.34 3.2 2.7.34.77.47 1.56.39 2.35l.77 1.62c.47 1-.25 2.15-1.35 2.15h-1.57c-.39 0-.34.34-.35.34 0 0-.05.21-.05.48 0 2.22-1.03 4.56-2.63 6.14-1.12 1.1-3.15 2.4-6.65 2.32Zm-1.89-2h1.94c2.76.07 4.35-.91 5.2-1.74 1.2-1.18 2.04-3.17 2.04-4.82 0-1.39.57-2.45 2.01-2.45h.3l1.08-.01-.93-1.64.07-.36c.1-.52.03-1.04-.2-1.56a2.694 2.694 0 0 0-1.83-1.56 2.79 2.79 0 0 0-2.03.29c-.24.14-.46.32-.65.53l-.87.96c-.56.61-1.21 1.34-1.46 1.62.08.09.16.17.25.27l.3.37s.1.15.16.25c.15.25.26.43.34.62.08.18.16.38.22.58l.03.1c.18.54.26 1.04.28 1.54h-.01c0 .55-.45 1-1 1s-1-.45-1-1v-.04c-.02-.29-.08-.6-.19-.94l-.03-.08c-.04-.11-.08-.22-.13-.32-.06-.12-.12-.24-.2-.35-.07-.12-.1-.17-.14-.22l-.13-.16c-.17-.2-.31-.34-.46-.47L12.81 8.24c-.15-.11-.38-.22-.68-.22-.63 0-1.18.56-1.18 1.2 0 .59.19.8.4.97l.76.63-.62.77c-.19.24-.4.76-.4 1.5 0 .69.4 1.32 1.06 1.63l1.06.51-.67.96c-.27.38-.41.83-.41 1.29 0 .96.63 1.83 1.57 2.15l1.24.43-.74 1.08a3.61 3.61 0 0 0-.64 2.06c0 1.92 1.51 3.62 3.43 3.81.55 0 1 .46 1 1.01s-.45 1-1 1c-.68-.03-1.34-.19-1.94-.45l-6.24 2.36c-.54.19-.88.67-.88 1.2 0 .47.26.9.69 1.12l.81.43-.36.85c-.16.38-.19.81-.07 1.23.14.54.56.99 1.1 1.2.55.21 1.08.16 1.59-.13l.92-.54.48.95c.22.44.65.71 1.13.71s.9-.25 1.12-.67l2.31-4.65s1.39-2.6 4.11-2.6Zm18.53-4.92c2.36 2.75 2.24 6.9-.36 9.5 0 0-.32.42-.73.44s-.73-.46-.73-.46a6.961 6.961 0 0 1-2.01-5.66l-1.68 1.68c2.39 2.8 2.29 6.84-.31 9.45 0 0-.34.49-.77.47s-.74-.44-.74-.44a6.961 6.961 0 0 1-2.01-5.66l-.99.99a6.996 6.996 0 0 1-7 6.58c-.55 0-1-.45-1-1 0-3.71 2.91-6.76 6.57-6.98l11.72-11.68a.996.996 0 1 1 1.41 1.41l-1.39 1.36ZM27.9 36.13a5.027 5.027 0 0 0-3.78 3.79 5.013 5.013 0 0 0 3.78-3.79Zm5.82-3.65a5.032 5.032 0 0 0 .02 5.37c1.05-1.63 1.05-3.71-.02-5.37Zm5.5-5.5a5.014 5.014 0 0 0 .01 5.36 5.014 5.014 0 0 0-.01-5.36Z"/></svg>

