<svg xmlns="http://www.w3.org/2000/svg" viewBox="0 0 48 48"><title>Bezwaar en beroep</title><path fill-rule="evenodd" d="m41.41 22.85-2.11-2.11c-.9-.9-2.31-1.09-3.41-.58l-8.04-8.04c.2-.4.31-.84.3-1.31 0-.79-.33-1.54-.89-2.11s-2.11-2.11-2.11-2.11c-.78-.78-2.05-.78-2.83 0l-7.1 7.1c-.76.76-.74 2.02.04 2.81l2.11 2.11c.59.59 1.35.89 2.12.9.45 0 .9-.1 1.31-.3l.82.82L6.77 34.88c-.78.78-.78 2.06 0 2.85l3.51 3.51c.39.39.91.59 1.42.59.52 0 1.03-.19 1.42-.59l14.85-14.85.86.86c-.2.4-.31.84-.3 1.31 0 .79.32 1.54.89 2.11l2.09 2.09c.39.39.9.59 1.4.59.51 0 1.01-.18 1.39-.57l7.1-7.1c.78-.78.78-2.05 0-2.83Zm-21.9-5.34c-.26 0-.51-.11-.7-.29l-.03-.03-2.11-2.13L23.73 8l2.11 2.11c.2.2.31.45.31.72 0 .13-.03.27-.1.41l-.16.33-.04-.04-5.81 5.81-.12.06c-.14.07-.28.1-.41.1Zm-7.82 22.31-3.52-3.53 14.85-14.85 3.54 3.54-14.87 14.84Zm10.62-21.91 4.24-4.24 7.78 7.78-4.24 4.24-7.78-7.78Zm8.51 11.34c-.2-.2-.3-.44-.3-.71 0-.13.03-.27.1-.41l.14-.29 5.69-5.69-.03-.03.3-.14c.38-.18.88-.1 1.17.18L40 24.27l-7.07 7.07-2.09-2.09Zm11.16 11.76c0-.55-.45-1-1-1h-16c-.55 0-1 .45-1 1s.45 1 1 1h16c.55 0 1-.45 1-1Z"/></svg>

