<svg xmlns="http://www.w3.org/2000/svg" viewBox="0 0 48 48"><title>Bladeren opruimen</title><path d="M41 8a2 2 0 0 0-2-2h-7.04C11.35 6 7 16.33 6.97 25c0 1.84 0 5.42 2.95 9.19C9.33 36.25 9 38.5 9 41c0 .55.45 1 1 1s1-.45 1-1c0-1.83.22-3.51.58-5.08.12.05.25.08.39.08H18c14.31 0 22.05-8.39 23-25V8Zm-2 2.95c-.13 2.18-.38 4.19-.75 6.06H28.23l1.14-.78c3.25-2.2 6.57-4.48 9.62-7.05v1.77Zm-4.15 15.06H17.01c2.36-2.57 5.24-4.82 8.33-7h12.48c-.7 2.71-1.69 5.03-2.96 7ZM16 24.12V11.48c2.17-1.31 4.83-2.26 8-2.83v8.85c-2.92 2.07-5.67 4.2-8 6.62ZM37.29 8.01c-2.87 2.36-5.99 4.5-9.04 6.57-.76.51-1.51 1.02-2.25 1.53V8.36c1.85-.23 3.83-.35 5.97-.35h5.32ZM8.97 25c.01-5.24 1.71-9.26 5.03-12.09v13.48c-1.31 1.67-2.42 3.48-3.26 5.48-1.77-2.81-1.77-5.36-1.77-6.88ZM18 34h-5.61c-.07-.07-.13-.14-.19-.21.75-2.13 1.81-4.04 3.13-5.79h18.04c-3.49 4.01-8.59 6-15.37 6Z"/></svg>

