<svg xmlns="http://www.w3.org/2000/svg" viewBox="0 0 48 48"><title>Bomen</title><path d="M36.95 40h-5v-3.97c2.02-.16 3.65-.86 4.85-2.09 1.46-1.51 2.23-3.81 2.15-6.54-.03-2.02-1.59-15.4-7.68-15.4-1.63 0-3.08.82-4.33 2.42-2.67 3.45-3.73 9.79-3.77 13.05-.1 3.64 1.32 6.47 3.91 7.76.84.42 1.81.68 2.88.78v3.98h-11v-3.21c1.51-.13 2.96-.6 4.23-1.43.46-.3.59-.92.29-1.38s-.92-.59-1.38-.29a7.1 7.1 0 0 1-3.14 1.11V22c0-.55-.45-1-1-1s-1 .45-1 1v5.5l-1.3-1.26c-.4-.38-1.03-.37-1.41.02-.38.4-.37 1.03.02 1.41l2.69 2.6v4.45c-3.34-.59-5.89-3.51-5.89-7.01 0-1.1.25-2.15.73-3.14.54-1.08.66-2.31.35-3.47-.59-2.24.29-4.06.87-4.95.62-.95.89-2.14.77-3.37a4.33 4.33 0 0 1 1.12-3.33c.84-.93 2.04-1.46 3.28-1.46s2.44.53 3.28 1.46c.83.92 1.24 2.13 1.12 3.33-.12 1.23.15 2.42.77 3.37a1 1 0 0 0 1.38.29 1 1 0 0 0 .29-1.38c-.37-.57-.53-1.31-.46-2.08.17-1.76-.42-3.54-1.63-4.87-1.22-1.35-2.96-2.12-4.76-2.12s-3.54.77-4.76 2.12a6.354 6.354 0 0 0-1.63 4.87c.08.78-.09 1.52-.46 2.08-.76 1.16-1.92 3.56-1.13 6.55.18.69.11 1.43-.21 2.07a9.058 9.058 0 0 0-.94 4.02c0 4.61 3.44 8.43 7.89 9.04v3.25h-5c-.55 0-1 .45-1 1s.45 1 1 1h25c.55 0 1-.45 1-1s-.45-1-1-1Zm-6-21c-.55 0-1 .45-1 1v14c-.75-.09-1.42-.27-1.99-.56-2.55-1.27-2.85-4.25-2.8-5.91v-.11c.04-3.15 1.11-8.88 3.35-11.77.86-1.11 1.76-1.65 2.75-1.65 3.62 0 5.64 9.97 5.69 13.52.06 2.12-.5 3.91-1.58 5.02-.81.84-1.97 1.31-3.41 1.46v-4.09c.16-.04.31-.09.44-.21l2.22-1.92c.42-.36.46-.99.1-1.41-.36-.42-1-.46-1.41-.1l-1.35 1.17V20c0-.55-.45-1-1-1Z"/></svg>