<svg xmlns="http://www.w3.org/2000/svg" viewBox="0 0 48 48"><title>Bouwen en verbouwen</title><path d="M7.14 10.46c-.29-.41-.25-.98.11-1.34l1.59-1.59c.36-.36.92-.41 1.33-.12l3.64 2.55c.28.2.45.52.44.86l-.02 2.13s0 .02.01.03L19 17.79c.39.4.39 1.03 0 1.42-.39.39-1.03.39-1.43 0l-4.88-4.87s-.02-.01-.03-.01l-2.06.14c-.36.02-.71-.14-.92-.44l-2.54-3.59ZM32.09 19s-.04-.02-.06 0l-5.94 5.87s-.02.04 0 .06l1.38 1.38s.04.02.05 0l.38-.34c.81-.73 2.05-.7 2.81.07l8.72 8.77c1.44 1.44 1.51 3.84 0 5.2-.67.6-1.51.91-2.35.91-.9 0-1.79-.34-2.48-1.03l-8.88-8.93c-.79-.8-.79-2.09 0-2.88l.31-.31s.02-.04 0-.06l-1.39-1.39s-.04-.02-.06 0L11.36 39.39c-.69.69-1.72.76-2.41.07l-2.51-2.51c-.69-.69-.69-1.8 0-2.48l20.64-20.43s.02-.04 0-.06l-2.72-2.74c-.79-.8-.79-2.08 0-2.88l1.09-1.09c.19-.19.45-.3.73-.3l4.32-.04c.55 0 1.07.21 1.46.6l8.6 8.62c.79.8.79 2.09 0 2.88l-2.77 2.77c-.8.8-2.09.8-2.88 0l-2.81-2.81Zm-2.89 8.46-2.06 2.06s-.02.04 0 .06l8.9 8.9a1.499 1.499 0 0 0 2.23-.12c.5-.61.36-1.53-.2-2.09l-8.81-8.81s-.04-.02-.06 0Zm7.17-7s.04.02.06 0l2.71-2.84s.01-.04 0-.06l-8.61-8.63s-.02-.01-.03-.01l-3.9.05s-.02 0-.03.01l-.79.86 10.58 10.61ZM10.23 37.81l20.39-20.24s.02-.04 0-.06l-2.05-2.05s-.04-.02-.06 0L8.09 35.7s-.02.04 0 .06l2.09 2.06s.04.02.06 0Z"/></svg>

