<svg xmlns="http://www.w3.org/2000/svg" viewBox="0 0 48 48"><title>Bouwprojecten</title><path d="M39 31H29c-.55 0-1 .45-1 1v9c0 .55.45 1 1 1h10c.55 0 1-.45 1-1v-9c0-.55-.45-1-1-1Zm-1 9h-8v-7h8v7Zm3.13-24.89-1-2A2 2 0 0 0 38.34 12H33L18.36 6.14c-.25-.05-.49-.09-.74-.14h-2.95c-.43 0-.85.14-1.2.4l-6.67 5c-.5.38-.8.97-.8 1.6v3c0 1.1.9 2 2 2h5v22H7c-.55 0-1 .45-1 1s.45 1 1 1h18c.55 0 1-.45 1-1s-.45-1-1-1h-6V18h14v5c0 .55.45 1 1 1s1 .45 1 1-.45 1-1 1c-.38 0-.72-.22-.89-.54-.16-.3-.5-.46-.84-.46-.73 0-1.26.78-.9 1.43a2.996 2.996 0 0 0 3.2 1.52c1.18-.22 2.15-1.17 2.38-2.35.3-1.56-.6-2.94-1.94-3.42V18h4.34c1.49 0 2.45-1.56 1.79-2.89ZM27.71 12h-8.96l-.46-3.69L27.71 12ZM15.77 8h.47l.5 4h-1.47l.5-4Zm-2.12.85L13.26 12H9.4l4.26-3.15ZM17.01 28h-2V18h2v10Zm-.05 12h-1.95V30h2v10h-.05Zm2.05-24h-11v-2h30.38l1 2H19.01Z"/></svg>

