<svg xmlns="http://www.w3.org/2000/svg" viewBox="0 0 48 48"><title>Brandgevaar</title><path d="M16 39.94h16c.55 0 1 .45 1 1V41c0 .55-.45 1-1 1H16c-.55 0-1-.45-1-1v-.06c0-.55.45-1 1-1Zm6-30.83v.91c0 1.91.54 3.5 1.62 4.76 1.08 1.26 2.44 1.89 4.08 1.89.62 0 1.24-.13 1.86-.39.62-.26 1.21-.61 1.78-1.07 1.16 1.31 2.05 2.74 2.67 4.3.62 1.56.93 3.16.93 4.8 0 1.91-.38 3.71-1.15 5.4-.77 1.68-1.84 3.09-3.21 4.21.11-.36.19-.74.24-1.12.05-.38.08-.75.08-1.12 0-.97-.16-1.88-.48-2.73-.32-.85-.79-1.62-1.41-2.32l-3.82-4.23c-.4-.44-1.09-.44-1.49 0l-3.82 4.23c-.62.7-1.09 1.47-1.41 2.32-.32.85-.48 1.76-.48 2.73 0 .36.03.74.08 1.12.05.38.13.75.24 1.12-1.37-1.12-2.44-2.53-3.21-4.21-.77-1.68-1.15-3.48-1.15-5.4 0-1.31.19-2.65.57-4.03.38-1.38.92-2.73 1.62-4.05.7-1.32 1.55-2.59 2.55-3.8 1-1.21 2.11-2.32 3.35-3.32m-1.25-1.56c-1.34 1.08-2.56 2.3-3.64 3.61s-2.01 2.7-2.77 4.14c-.77 1.45-1.37 2.95-1.78 4.47-.42 1.55-.64 3.08-.64 4.56 0 2.19.45 4.29 1.33 6.23.89 1.96 2.12 3.61 3.77 4.93.69.55 1.49 1.03 2.19 1.41s1.59-.25 1.44-1.06l-.45-2.47a5.842 5.842 0 0 1-.24-1.66c0-.73.12-1.39.35-2.02.24-.63.58-1.18 1.04-1.7l3.07-3.4L27.54 28c.45.51.79 1.06 1.03 1.69.24.62.35 1.28.35 2.02a5.899 5.899 0 0 1-.24 1.66l-.39 2.42c-.13.8.7 1.42 1.43 1.05s1.6-.87 2.14-1.34c1.2-1.06 2.88-2.97 3.77-4.93a14.99 14.99 0 0 0 1.33-6.23c0-1.89-.36-3.75-1.07-5.55-.7-1.77-1.72-3.42-3.03-4.9l-.63-.71a.998.998 0 0 0-1.37-.12l-.74.59c-.42.33-.85.6-1.29.78-.97.4-1.8.28-2.84-.31-.31-.17-.6-.39-.83-.67-.75-.89-1.12-2.01-1.12-3.43V7.03c0-.86-.96-1.34-1.62-.81l-1.64 1.32Z"/></svg>

