<svg xmlns="http://www.w3.org/2000/svg" viewBox="0 0 48 48"><title>Brief</title><path d="M40.01 7.91h-31c-1.1 0-2 .9-2 2v7c0 1.1.9 2 2 2h3.02L6.3 27.97c-.59.93-.31 2.17.62 2.76l14.32 9.04c.94.59 2.17.31 2.76-.62l12.77-20.24H40c1.1 0 1.99-.9 2-2V9.9a2 2 0 0 0-2-2Zm-7.82 4.14c-.47-.29-1.08-.15-1.38.31-.29.47-.15 1.08.31 1.38l4.67 2.94-13.47 21.38-14.31-9.01 9.87-15.67c.29-.47.15-1.08-.31-1.38-.47-.29-1.08-.15-1.38.31l-2.89 4.6H9.02v-7h31v7h-2.25c.09-.74-.24-1.5-.91-1.93l-4.66-2.94ZM25.9 27.32l-3.11 5.1c-.29.48-.92.63-1.4.34-.48-.29-.63-.92-.34-1.4l3.11-5.1c.29-.48.92-.63 1.4-.34.48.29.63.92.34 1.4Z"/></svg>

