<svg xmlns="http://www.w3.org/2000/svg" viewBox="0 0 48 48"><title>Buitengebied</title><path d="M27.01 14.95c.32.47.97.57 1.42.24l.57-.42v4.24c0 1.1.9 2 2 2h7c1.1 0 2-.9 2-2v-4.25l.3.23c.08.09.18.17.3.22.03.01.05.03.08.04.06.03.12.04.17.04.06.01.11.04.17.04.55 0 .99-.45.99-.99 0-.35-.19-.64-.46-.82-.09-.12-.26-.25-.57-.5l-1-.75V9.01c0-.55-.45-1-1-1s-1 .45-1 1v1.76l-2.28-1.7c-.71-.53-1.68-.53-2.39 0l-6.09 4.52c-.43.32-.53.93-.23 1.37ZM31 13.28l3.52-2.62 3.48 2.6V19h-7v-5.73Zm10.93 25.43a1.001 1.001 0 0 1-.93 1.36.99.99 0 0 1-.93-.64c-.16-.4-3.55-8.87-13.38-11-.55-.12-.91-.65-.78-1.2.12-.52.64-.86 1.16-.75 10.96 2.4 14.82 12.12 14.86 12.23ZM24.42 24.88c1-1.03 1.55-2.4 1.54-3.87H26c0-.37-.04-.74-.12-1.11a5.484 5.484 0 0 0-1.71-2.92c.69-1.88.3-4.01-1.07-5.54a5.523 5.523 0 0 0-3.62-1.79c-.9-.98-2.15-1.54-3.49-1.54s-2.58.55-3.48 1.53c-.79.07-1.55.3-2.23.67a5.47 5.47 0 0 0-2.61 3.31c-.31 1.12-.26 2.29.13 3.36-.4.36-.75.78-1.05 1.25-.42.67-.68 1.43-.76 2.22-.17 1.69.39 3.27 1.51 4.43-.01.12-.03.24-.03.36a5.47 5.47 0 0 0 1.38 3.97 5.54 5.54 0 0 0 3.82 1.83h2.3l-.02 7.97c0 .55.45 1 1 1s1-.45 1-1v-8h2c.43 0 .88-.01 1.3-.11a5.46 5.46 0 0 0 2.74-1.63c.02-.02.04-.03.06-.06.01-.02.02-.03.04-.05.05-.05.1-.1.14-.15h-.03c.87-1.07 1.32-2.39 1.24-3.77 0-.12-.02-.24-.03-.36Zm-.59-2.84c-.2.71-.66 1.33-1.23 1.8l-.37.31.15.61a3.452 3.452 0 0 1-.49 2.73c-.04.06-.08.11-.12.16-.13.17-.28.34-.45.49-.04.03-.07.07-.11.1-.09.08-.19.15-.29.22-.33.22-.69.39-1.09.49-.27.06-.54.09-.81.09h-2.01v-4.96l2.42-2.44a.996.996 0 0 0 0-1.41.996.996 0 0 0-1.41 0l-1 1.01L17 17c0-.55-.45-1-1-1s-1 .45-1 1l.02 6.96-.99-1a.987.987 0 0 0-1.41 0 .996.996 0 0 0 0 1.41l2.41 2.44v2.24h-2.09c-.64-.02-1.27-.18-1.8-.53-1.11-.72-1.69-1.91-1.62-3.15.01-.21.04-.41.09-.6l.15-.61-.37-.31c-.57-.47-1.03-1.09-1.23-1.8a3.479 3.479 0 0 1 1.48-3.9l.8-.51-.41-.72c-.36-.64-.57-1.38-.5-2.11.11-1.18.77-2.18 1.78-2.74.51-.29 1.11-.44 1.72-.44h.51l.3-.4c.53-.7 1.33-1.11 2.2-1.11s1.68.41 2.21 1.11l.3.4h.5c1.16 0 2.21.53 2.87 1.47.8 1.13.79 2.64.11 3.85l-.39.69.68.43c.31.19.59.43.84.69.01.03.03.06.05.09.74.88 1 2.05.67 3.19Zm17.79 4.19c.43.34.5.97.16 1.41-.2.25-.49.38-.78.38-.22 0-.44-.07-.62-.22-.07-.06-3.78-2.84-12.15-3.59a.999.999 0 0 1-.91-1.13c.07-.52.55-.9 1.08-.86 2.18.19 4.07.5 5.68.89l2 .54c3.7 1.15 5.44 2.49 5.56 2.59Z"/></svg>

