<svg xmlns="http://www.w3.org/2000/svg" viewBox="0 0 48 48"><title>Chat</title><path d="M42.01 20.47a4.5 4.5 0 0 0-4.5-4.5l-7.5.03v-3.5c0-2.49-2.01-4.5-4.5-4.5h-15c-2.49 0-4.5 2.01-4.5 4.5v8.93a4.59 4.59 0 0 0 4 4.55l.03 3.89c0 .85 1.01 1.31 1.65.75l5.34-4.61h8.48c2.49 0 4.5-2.01 4.5-4.5v-3.5l7.5-.03a2.5 2.5 0 0 1 2.5 2.5v8.93c0 1.3-.96 2.4-2.25 2.56l-1.74.03-.02 3.66-4.27-3.68h-9.22a2.5 2.5 0 0 1-2.5-2.5v-.47c0-.55-.45-1-1-1s-1 .45-1 1v.47c0 2.49 2.01 4.5 4.5 4.5h8.48l5.34 4.61c.65.56 1.65.1 1.65-.75l.03-3.89c2.26-.29 4-2.21 4-4.55v-8.93Zm-14 1.03a2.5 2.5 0 0 1-2.5 2.5h-9.22l-.56.49-3.7 3.2v-1.72l-.02-1.75-1.74-.22a2.588 2.588 0 0 1-2.26-2.56v-8.93c0-1.38 1.13-2.5 2.5-2.5h15a2.5 2.5 0 0 1 2.5 2.5v9Z"/></svg>

