<svg xmlns="http://www.w3.org/2000/svg" viewBox="0 0 48 48"><title>Computer</title><path d="M16 20c0 .55-.45 1-1 1s-1-.45-1-1 .45-1 1-1 1 .45 1 1Zm-1 3c-.55 0-1 .45-1 1s.45 1 1 1 1-.45 1-1-.45-1-1-1Zm0-8c-.55 0-1 .45-1 1s.45 1 1 1 1-.45 1-1-.45-1-1-1Zm18 4H19c-.55 0-1 .45-1 1s.45 1 1 1h14c.55 0 1-.45 1-1s-.45-1-1-1Zm-6 4h-8c-.55 0-1 .45-1 1s.45 1 1 1h8c.55 0 1-.45 1-1s-.45-1-1-1Zm6-8H19c-.55 0-1 .45-1 1s.45 1 1 1h14c.55 0 1-.45 1-1s-.45-1-1-1Zm9-4.02V30c0 1.66-1.34 3-3 3l-11.29-.02v1.71c0 1.81 1.48 3.29 3.29 3.29l1 .02c.55 0 1 .45 1 1s-.45 1-1 1H16c-.55 0-1-.45-1-1s.45-1 1-1l.71-.02c1.81 0 3.29-1.48 3.29-3.29v-1.71L9 33c-1.66 0-3-1.34-3-3V10.98c0-1.66 1.34-3 3-3h30c1.66 0 3 1.34 3 3Zm-15.11 27c-.73-.91-1.18-2.04-1.18-3.29v-1.71H22v1.71c0 1.25-.45 2.38-1.18 3.29h6.07ZM40 10.99c0-.55-.45-1-1-1H9c-.55 0-1 .45-1 1v19.02c0 .55.45 1 1 1h30c.55 0 1-.45 1-1V11Z"/></svg>

