<svg xmlns="http://www.w3.org/2000/svg" viewBox="0 0 48 48"><title>Computerregeling</title><path d="M14 20.11V17c0-1.1.9-2 2-2h3.11c.55 0 1 .45 1 1s-.45 1-1 1h-1.68l3.58 3.58a.996.996 0 1 1-1.41 1.41l-3.6-3.6v1.72c0 .55-.45 1-1 1s-1-.45-1-1Zm27.84 16.65c-.31.75-1.04 1.24-1.86 1.24H8c-.81 0-1.55-.49-1.86-1.24-.31-.75-.14-1.61.44-2.18L9.7 31.5c-.43-.37-.7-.9-.7-1.51V12.93C9 11.31 10.31 10 11.93 10h24.13c1.62 0 2.93 1.31 2.93 2.93V30c0 .6-.27 1.14-.69 1.5l3.1 3.08c.58.57.75 1.43.44 2.18ZM11 29c0 .55.45 1 1 1h24c.55 0 1-.45 1-1V12.93c0-.52-.42-.93-.93-.93H11.94c-.52 0-.93.42-.93.93V29Zm28.94 7-3.98-4H12.07l-4.02 4h31.89Z"/></svg>

