<svg xmlns="http://www.w3.org/2000/svg" viewBox="0 0 48 48"><title>Contact gemeente</title><path d="M19.94 37v4c0 .55-.45 1-1 1s-1-.45-1-1v-4c0-.36-.6-1-.94-1H9c-.36 0-.6.18-.71.29-.11.11-.29.35-.29.71v4c0 .55-.45 1-1 1s-1-.45-1-1v-4c0-1.66 1.34-3 3-3h8c1.46 0 2.94 1.55 2.94 3Zm5.02-18h-4.97l-3.3 3.26c-.63.62-1.7.18-1.7-.71v-2.53l-6.01-.03c-1.1 0-1.99-.89-1.99-1.99V7.97C6.99 6.88 7.87 6 8.96 6h16.06c1.09 0 1.97.88 1.97 1.97v9c0 1.12-.91 2.03-2.03 2.03Zm.03-2V8H8.97L9 17.01h7c.55.01 1 .46 1 1.01V19l1.71-1.71a.99.99 0 0 1 .71-.29h5.59ZM8.48 28.51a4.511 4.511 0 0 1 9.02 0 4.511 4.511 0 0 1-9.02 0Zm2 0c0 1.38 1.13 2.51 2.51 2.51s2.51-1.13 2.51-2.51S14.37 26 12.99 26s-2.51 1.13-2.51 2.51ZM39.05 36h-8.06c-1.66 0-3 1.34-3 3v2c0 .55.45 1 1 1s1-.45 1-1v-2c0-.36.18-.6.29-.71.11-.11.35-.29.71-.29h8.06c.34 0 .94.63.94 1v2c0 .55.45 1 1 1s1-.45 1-1v-2c0-1.45-1.48-3-2.94-3Zm.45-5.49a4.511 4.511 0 0 1-9.02 0 4.511 4.511 0 0 1 9.02 0Zm-2 0c0-1.38-1.13-2.51-2.51-2.51s-2.51 1.13-2.51 2.51 1.13 2.51 2.51 2.51 2.51-1.13 2.51-2.51Zm-6.51-4.95V23h7.99c1.11 0 2.01-.9 2.01-2.01v-8.97c0-1.11-.89-2.01-2-2.02h-9.01c-.55 0-.99.45-.99 1s.45 1 1 1h9v9h-9c-.55 0-1 .45-1 1v1l-1.71-1.71a.99.99 0 0 0-.71-.29h-2.59l-1.04.02c-.54 0-.96.45-.96.98s.45 1 1 1h3.07l3.21 3.27c.63.64 1.71.19 1.71-.7ZM38.97 10h.02-.02Z"/></svg>

