<svg xmlns="http://www.w3.org/2000/svg" viewBox="0 0 48 48"><title>Cultuur</title><path d="m41.97 23.02-4.71 10.12c-1.81 3.9-5.9 4.66-8.79 4.66-.42 0-.81-.02-1.16-.04a5.148 5.148 0 0 1-3.37-1.57c-.93-.96-2.2-2.5-2.94-4.37a.994.994 0 0 1 .56-1.3.994.994 0 0 1 1.3.56c.63 1.56 1.72 2.88 2.52 3.72.55.57 1.28.91 2.07.96 2.31.16 6.43-.08 8-3.47l4.71-10.13a.371.371 0 0 0-.26-.53l-4.39-.88c-1.4-.28-2.73-.9-3.85-1.79l-3.5-2.79a.35.35 0 0 0-.32-.07c-.07.02-.19.06-.26.21l-1.03 2.23c-.23.5-.83.72-1.33.49-.5-.23-.72-.83-.49-1.33l1.03-2.23c.31-.67.9-1.14 1.61-1.31.71-.17 1.45 0 2.03.45l3.5 2.79a7.12 7.12 0 0 0 3 1.39l4.39.88c.72.14 1.32.6 1.65 1.26.33.65.34 1.41.04 2.08Zm-12.28.99a1.394 1.394 0 1 0-2.53-1.17 1.394 1.394 0 0 0 2.53 1.17Zm5.72 2.66a1.394 1.394 0 1 0-2.53-1.17 1.394 1.394 0 0 0 2.53 1.17Zm-10.19 2.45c-.53.17-.82.73-.65 1.26.17.52.73.81 1.26.65.73-.23 1.81-.06 2.75.43.75.39 1.31.94 1.46 1.44a1.005 1.005 0 0 0 1.25.67c.53-.16.83-.72.67-1.25-.31-1.02-1.2-1.98-2.44-2.63-1.44-.75-3.04-.97-4.29-.57Zm-8.4 3c-.6.23-1.23.34-1.86.34s-1.26-.12-1.86-.34c-2.64-1.02-7.08-3.46-7.08-8.38V12.57c0-.73.33-1.42.91-1.87a2.39 2.39 0 0 1 2.03-.44l4.35 1.05c1.08.26 2.22.26 3.3 0l4.35-1.05a2.39 2.39 0 0 1 2.03.44c.58.45.91 1.14.91 1.87v11.17c0 4.93-4.43 7.37-7.08 8.38Zm5.07-8.39V12.56c0-.16-.09-.25-.14-.3a.367.367 0 0 0-.32-.07l-4.35 1.05c-1.39.34-2.86.34-4.25 0l-4.35-1.05s-.06-.01-.09-.01c-.11 0-.19.05-.23.08-.05.04-.14.14-.14.3v11.17c0 3.73 3.63 5.68 5.8 6.52a3.2 3.2 0 0 0 2.28 0c2.16-.83 5.8-2.79 5.8-6.52Zm-8.71-5.09c0-.77-.62-1.39-1.39-1.39s-1.39.62-1.39 1.39.62 1.39 1.39 1.39 1.39-.62 1.39-1.39Zm4.91-1.4c-.77 0-1.39.62-1.39 1.39s.62 1.39 1.39 1.39 1.39-.62 1.39-1.39-.62-1.39-1.39-1.39Zm-.79 6.88c-.56.52-1.62.81-2.68.77-.85-.04-1.58-.3-1.93-.69a.998.998 0 1 0-1.49 1.33c.71.79 1.92 1.29 3.32 1.36h.34c1.5 0 2.89-.48 3.79-1.3a.997.997 0 1 0-1.35-1.47Z"/></svg>