<svg xmlns="http://www.w3.org/2000/svg" viewBox="0 0 48 48"><title>DenkVooruit</title><path d="M33.15,17.22c.39.39.39,1.02,0,1.41l-10.02,10.02c-.2.2-.45.29-.71.29s-.49-.09-.68-.27l-5.42-5.06c-.4-.38-.42-1.01-.05-1.41.38-.41,1.01-.43,1.41-.05l4.71,4.4,9.33-9.33c.39-.39,1.02-.39,1.41,0ZM40.06,23.99h0c0,12.21-11.28,17.05-15.23,17.78-.25.05-.5.07-.76.07-.34,0-.69-.04-1.03-.13-1.54-.39-15.02-4.24-15.02-17.71l-.09-12.29c0-1.42.99-2.66,2.37-2.95l13.14-2.82c.42-.09.86-.09,1.28,0l12.88,2.86c1.38.31,2.34,1.5,2.35,2.91l.09,12.29ZM38.06,24l-.09-12.29c0-.47-.33-.87-.78-.97l-12.88-2.86c-.07-.02-.14-.02-.22-.02s-.14,0-.21.02l-13.14,2.82c-.46.1-.79.51-.79.98l.09,12.3c0,11.97,12.13,15.43,13.51,15.78.31.08.62.09.92.03.14-.03,13.59-3.09,13.59-15.8Z"/></svg>