<svg xmlns="http://www.w3.org/2000/svg" viewBox="0 0 48 48"><title>Documenten</title><path d="M37.03 6H14c-.55 0-1 .45-1 1s.45 1 1 1h23v28h-2V11.97c0-1.09-.88-1.97-1.97-1.97H10.97C9.88 10 9 10.88 9 11.97v20.2c0 .53.21 1.04.59 1.41l8.12 8.12c.19.19.44.29.71.29h14.61c1.09 0 1.98-.89 1.98-1.98v-2.02h2c1.1 0 2-.9 2-2V7.97c0-1.09-.88-1.97-1.97-1.97ZM18.01 39.13 11.88 33h6.13v6.13Zm15 .87h-13v-7.02c0-1.09-.89-1.98-1.98-1.98h-7.02V12h22v28ZM15 17.02v-.04c0-.54.44-.98.98-.98h12.04c.54 0 .98.44.98.98v.04c0 .54-.44.98-.98.98H15.98c-.54 0-.98-.44-.98-.98Zm0 10v-.04c0-.54.44-.98.98-.98H22c.55 0 1 .45 1 1s-.45 1-1 1h-6.02c-.54 0-.98-.44-.98-.98Zm0-5c0-.54.44-.98.98-.98L28.02 21c.54 0 .98.44.98.98s-.44.98-.98.98L15.98 23c-.54 0-.98-.44-.98-.98Z"/></svg>

