<svg xmlns="http://www.w3.org/2000/svg" viewBox="0 0 48 48"><title>Duurzaamheid</title><path d="M37.84 33H32s0-3-2.59-3.98l-8.42-2.82a2.51 2.51 0 0 0-1.19-.07l-1.22.18a11.421 11.421 0 0 1-1.57-5.8c0-3.26 1.38-6.21 3.57-8.3l.54.86s.03-.05.05-.07c.62.61 1.63 1.47 2.1 1.73.3.16.69.08 1.03.17.49.13 1.22-.2 1.33.7.07.6-.73 1.55-1.35 1.7-.53.12-.66.46-.45.98.09.23.19.47.31.69.92 1.68 1.53 3.43 1.29 5.45-.11.9.31 1.6.94 2.15.36.32.73.63 1.08.96l.65.23c.41.14.87 0 1.13-.34.31-.41.7-.94.93-1.22.59-.74.72-1.56.51-2.51-.37-1.65.61-3.05 2.1-3.06 1.97 0 2.27-.37 2.97-2.46.41-1.23.01-2.53-.85-3.51-.24-.27-.44-.6-.67-.89-.41-.51-.9-.71-1.49-.71-.11 0-.22 0-.33.02-1.1.12-2.2.26-3.31.28l-1.45.03c-.27 0-.57-.19-.66-.44-.45-1.18-.1-3.16.91-3.87l-1.04.06c.54-.08 1.09-.13 1.65-.13 6.34 0 11.49 5.16 11.49 11.49 0 4.04-2.14 7.66-5.4 9.72-.43.27-.57.83-.34 1.28.27.54.94.72 1.45.39 4.64-2.95 7.33-8.62 5.92-14.57-1.26-5.28-5.7-9.37-11.07-10.16-8.34-1.23-15.54 5.23-15.54 13.34 0 2.15.51 4.23 1.47 6.11l-2.48.37V27h-.27c-.33-.59-.95-1-1.68-1H8c-1.1 0-2 .9-2 2v10c0 1.1.9 2 2 2h4c1.1 0 2-.9 2-2h.2l11 2.77c.83.23 1.73.25 2.57.05l12.65-2.91c1.01-.23 1.72-1.26 1.53-2.27-.31-1.66-2.04-2.66-4.11-2.66ZM27.62 15.4h.12c1.54-.06 3.21-.14 4.9-.32h.07c.06.08.12.17.19.26.22.3.49.68.87 1.03.24.21.37.33.06 1.25-.19.55-.3.85-.38 1-.12.01-.32.03-.68.03-1.27 0-2.44.57-3.22 1.54-.85 1.07-1.15 2.51-.83 3.95.11.49 0 .66-.15.86-.13.17-.26.33-.4.5-.14-.12-.27-.24-.41-.35l-.08-.07c-.29-.25-.27-.36-.27-.41.3-2.55-.51-4.67-1.27-6.15.91-.76 1.59-1.95 1.47-3.11Zm-2.33-5.92-.36.99c-.17.84-.18 1.7-.03 2.47h-.21c-.25-.06-.48-.08-.65-.09-.27-.19-1.2-1.44-1.73-2.02.91-.58 1.91-1.04 2.97-1.35ZM12 38.01H8v-10h4v10Zm14.69.99L14 36.01v-7l5.09-.95c.17-.03 1.34-.01 1.49.04l8 2.82c.77.26 1.41 1.37 1.41 2.07 0 0-4.15-.08-4.67-.22L23 32.1c-.52-.15-1.06.14-1.23.65v.02c-.18.54.12 1.12.67 1.27l2.17.63c.76.22 1.53.33 2.31.33l10.85.02c.77 0 2.06.55 2.14 1.27l-13.22 2.72Z"/></svg>

