<svg xmlns="http://www.w3.org/2000/svg" viewBox="0 0 48 48"><title>Economie werk inkomen</title><path d="M30 22c4.42 0 8-3.58 8-8s-3.58-8-8-8-8 3.58-8 8 3.58 8 8 8Zm0-14c1.43 0 2.74.5 3.77 1.34-.06.61-.24 1.08-.55 1.4-.87.91-2.84.87-4.74.83-1.46-.03-2.95-.04-4.12.38C25.2 9.65 27.4 8 29.99 8Zm-5.52 6.19c.53-.69 2.36-.65 3.97-.62 2.23.04 4.74.09 6.22-1.45.26-.27.47-.57.64-.92.44.83.69 1.78.69 2.79 0 3.31-2.69 6-6 6-2.56 0-4.74-1.61-5.6-3.87-.2-.92-.19-1.59.08-1.94ZM7 14h.38c-.04-.33-.07-.66-.07-1s.03-.67.07-1H7c-.55 0-1-.45-1-1s.45-1 1-1h.89c.93-2.36 2.93-4 5.23-4 1.31 0 2.54.51 3.57 1.47a.996.996 0 1 1-1.37 1.45c-.65-.61-1.41-.93-2.2-.93-1.24 0-2.33.79-3.02 2H13c.55 0 1 .45 1 1s-.45 1-1 1H9.4c-.05.32-.08.66-.08 1s.03.68.08 1H13c.55 0 1 .45 1 1s-.45 1-1 1h-2.9c.69 1.21 1.78 2 3.02 2 .79 0 1.55-.32 2.2-.93a.996.996 0 0 1 1.41.04c.38.4.36 1.04-.04 1.41-1.02.96-2.26 1.47-3.56 1.47-2.31 0-4.3-1.64-5.23-4h-.89c-.55 0-1-.45-1-1s.45-1 1-1Zm29.98 9.03H24.02c-2.73.27-4.57 2.3-4.94 4.97H19v-1.92c0-.57-.2-1.06-.6-1.46-.4-.41-.89-.61-1.45-.61h-3.89c-.57 0-1.05.2-1.45.61-.4.41-.6.9-.6 1.46V28H8c-.55 0-1.02.2-1.41.59-.39.39-.58.87-.58 1.43v9.94c0 .56.19 1.04.58 1.44.39.4.86.6 1.41.6h14c.55 0 1.02-.2 1.42-.6.4-.4.59-.88.59-1.44v-9.94c0-.56-.2-1.04-.59-1.43-.39-.39-.87-.59-1.42-.59h-.83c.44-1.74 1.97-3 3.86-3h10.96c2.25 0 4 1.76 4 4.02V37l-2 .02V30c0-.55-.45-1-1.01-1-.55 0-.99.45-.99 1v10h-8.98c-.55 0-1 .45-1 1s.45 1 1 1H36c1.11 0 2-.9 2-2.01V39l2.01-.02c1.1-.01 1.98-.9 1.98-2v-7.97c.01-3.16-1.93-5.68-5-5.98ZM13 26h4v2h-4v-2Zm9 4v10H8V30h14Z"/></svg>

