<svg xmlns="http://www.w3.org/2000/svg" viewBox="0 0 48 48"><title>Eenzaamheid</title><path d="M31.03 31.49a4.511 4.511 0 0 0 9.02 0 4.511 4.511 0 0 0-9.02 0Zm7.02 0c0 1.38-1.13 2.51-2.51 2.51s-2.51-1.13-2.51-2.51 1.13-2.51 2.51-2.51 2.51 1.13 2.51 2.51ZM38 23V8c0-1.1-.9-2-2-2H13.98c-.53 0-1.03.21-1.4.59S12 7.48 12 8.01l.03 15c0 1.1.9 2 2 2H20v3.41c0 .89 1.07 1.33 1.7.71l4.13-4.12H36c1.1 0 2-.9 2-2Zm-13 0-3 3v-3h-8l-.03-15H36v15H25Zm17 17v1c0 .55-.45 1-1 1s-1-.45-1-1v-1c0-.36-.6-1-.94-1H32c-.36 0-.6.18-.71.29-.11.11-.29.35-.29.71v1c0 .55-.45 1-1 1s-1-.45-1-1v-1c0-1.66 1.34-3 3-3h7.06c1.46 0 2.94 1.55 2.94 3Zm-29.46-3.98a4.511 4.511 0 0 0 0-9.02 4.511 4.511 0 0 0 0 9.02Zm0-7.02c1.38 0 2.51 1.13 2.51 2.51s-1.13 2.51-2.51 2.51-2.51-1.13-2.51-2.51S11.16 29 12.54 29Zm18.58-17H30c0-1.1-.9-2-2-2h-9c-1.1 0-2 .9-2 2v2.38c0 1.6.67 3.33 1.76 4.62H17c-.55 0-1 .45-1 1s.45 1 1 1h13c.55 0 1-.45 1-1s-.45-1-1-1h-1.7c.27-.31.5-.65.72-1.01h2.11c1.58 0 2.88-1.23 2.88-2.75v-.5c0-1.52-1.29-2.75-2.88-2.75ZM28 14.38c0 2.04-1.71 4.62-3.62 4.62h-1.76C20.7 19 19 16.42 19 14.38V12h9v2.38Zm4 .87c0 .41-.39.75-.88.75h-1.34c.14-.54.22-1.09.22-1.62V14h1.12c.48 0 .88.34.88.75v.5ZM19 40v1c0 .55-.45 1-1 1s-1-.45-1-1v-1c0-.36-.6-1-.94-1H9c-.36 0-.6.18-.71.29-.11.11-.29.35-.29.71v1c0 .55-.45 1-1 1s-1-.45-1-1v-1c0-1.66 1.34-3 3-3h7.06c1.46 0 2.94 1.55 2.94 3Z"/></svg>

