<svg xmlns="http://www.w3.org/2000/svg" viewBox="0 0 48 48"><title>Eikenprocessie</title><path d="M40.94 21H38v.34c0 .97-.1 1.92-.26 2.84l2.83.76c.53.14.85.69.71 1.22a.99.99 0 0 1-.96.74c-.09 0-.17-.01-.26-.03l-2.77-.74c-.25.83-.57 1.63-.94 2.4l2.43 1.4a.995.995 0 0 1-.5 1.86c-.17 0-.34-.04-.5-.13l-2.4-1.38c-.47.74-1 1.44-1.59 2.1l2.06 2.06a.996.996 0 0 1-.71 1.7c-.26 0-.51-.1-.71-.29l-2.06-2.06c-.67.6-1.39 1.14-2.14 1.62l1.4 2.42c.28.48.11 1.09-.37 1.36-.16.09-.33.13-.5.13-.35 0-.68-.18-.87-.5l-1.42-2.46c-.77.37-1.56.68-2.39.93l.75 2.81a.994.994 0 0 1-.97 1.25c-.44 0-.84-.3-.96-.74l-.77-2.88c-.91.15-1.83.25-2.78.25h-.37v3c0 .55-.45 1-1 1s-1-.45-1-1v-3h-3v3c0 .55-.45 1-1 1s-1-.45-1-1v-3.1c-.37-.09-.71-.24-1.03-.42l-2.69 2.69c-.2.2-.45.29-.71.29s-.51-.1-.71-.29a.996.996 0 0 1 0-1.41l2.68-2.68c-.2-.33-.35-.69-.45-1.07H7.94c-.55 0-1-.45-1-1s.45-1 1-1h3.15c.1-.37.24-.72.44-1.04l-2.65-2.68c-.39-.39-.39-1.03 0-1.43s1.02-.39 1.41 0l2.66 2.69c.31-.18.65-.32 1.01-.42v-3.14c0-.56.45-1.01 1-1.01s1 .45 1 1.01v3.01h3v-3c0-.55.45-1 1-1s1 .45 1 1v3h.43c2.01 0 3.85-.71 5.32-1.88l-2.45-2.48c-.39-.39-.39-1.02 0-1.41s1.01-.39 1.4 0l2.45 2.47a8.615 8.615 0 0 0 1.85-5.36v-.35h-3.09c-.55 0-1-.45-1-1s.45-1 1-1h3.09l-.02-3h-2.99c-.55 0-1-.45-1-1s.45-1 1-1h3.17c.09-.36.24-.69.42-1.01l-2.71-2.71a.996.996 0 1 1 1.41-1.41l2.71 2.71c.31-.18.64-.32.99-.42V7.98c0-.55.45-1 1-1s1 .45 1 1v3.14c.35.09.67.23.98.4l2.71-2.74c.39-.39 1.01-.39 1.4 0s.39 1.02 0 1.41l-2.69 2.71c.2.32.34.67.44 1.05h3.04c.55 0 .99.45.99 1s-.44 1-.99 1h-2.89l.02 3h2.93c.55 0 1 .45 1 1s-.45 1-1 1Zm-4.94.34-.04-6.36c0-1.09-.89-1.98-1.99-1.98s-1.98.89-1.98 1.99l.04 6.36C32.03 27.22 27.3 32 21.47 32h-6.3c-.88 0-1.72.52-1.98 1.35-.43 1.38.58 2.65 1.88 2.65h6.4c8.01 0 14.52-6.57 14.52-14.66ZM14 10c.55 0 1 .45 1 1v3c0 .55-.45 1-1 1s-1-.45-1-1v-3c0-.55.45-1 1-1Zm-.65 6.38c.19-.19.43-.28.72-.28s.54.09.72.28c.19.19.28.43.28.72s-.09.53-.28.72c-.19.19-.43.28-.72.28s-.54-.09-.72-.28c-.19-.19-.28-.43-.28-.72s.09-.53.28-.72Zm.72 5.77C9.62 22.15 6 18.53 6 14.08s3.62-8.07 8.07-8.07 8.07 3.62 8.07 8.07-3.62 8.07-8.07 8.07Zm0-14.14C10.72 8.01 8 10.73 8 14.08s2.72 6.07 6.07 6.07 6.07-2.72 6.07-6.07-2.72-6.07-6.07-6.07Z"/></svg>

