<svg xmlns="http://www.w3.org/2000/svg" viewBox="0 0 48 48"><title>Elektrisch laden</title><path d="m21.18 27.48-3.32 6c-.18.32-.51.52-.88.52h-.19c-.76 0-1.24-.82-.88-1.48l2.5-4.52h-2.73c-.76 0-1.24-.82-.88-1.48l3.32-6c.18-.32.51-.52.88-.52h.19c.76 0 1.24.82.88 1.48L17.57 26h2.73c.76 0 1.24.82.88 1.48ZM42 12v4c0 1.66-1.34 3-3 3h-1v9.8c0 2.09-1.52 3.96-3.59 4.18-2.38.25-4.41-1.6-4.41-3.91v-3.04c0-1.12-.9-2.02-2.02-2.02H26v16h3c.55 0 1 .45 1 1s-.45 1-1 1H7c-.55 0-1-.45-1-1s.45-1 1-1h3v-22c0-2.21 1.79-3.99 3.99-3.99H22c2.16 0 4 1.84 4 3.99v4h1.98c2.22 0 4.02 1.8 4.02 4.02v2.91c0 1.11.91 2.11 2.02 2.06S36 30.07 36 28.98V19h-1c-1.66 0-3-1.34-3-3v-4c0-1.1.9-2 2-2V7c0-.55.45-1 1-1s1 .45 1 1v3h2V7c0-.55.45-1 1-1s1 .45 1 1v3c1.1 0 2 .9 2 2Zm-18 6c0-1.1-.9-2-2-2h-8.01c-1.1 0-1.99.9-1.99 2v22h12V18Zm16-6h-6v4c0 .55.45 1 1 1h4c.55 0 1-.45 1-1v-4Z"/></svg>

