<svg xmlns="http://www.w3.org/2000/svg" viewBox="0 0 48 48"><title>Elektrisch rijden</title><path d="M30.85 40.45c-.27.51-.88.7-1.36.42l-4.51-2.99.02 3.06c0 .81-.81 1.33-1.48.94l-6.04-3.8c-.48-.28-.66-.93-.39-1.45.27-.51.88-.7 1.36-.42l4.53 2.95-.05-3.07c-.01-.82.81-1.35 1.48-.95L30.47 39c.48.28.66.93.39 1.45ZM13.01 22c-1.1 0-1.99.88-1.99 1.97s.89 1.97 1.99 1.97S15 25.06 15 23.97 14.11 22 13.01 22ZM35 21.97c-1.11 0-2.01.89-2.01 1.99s.9 1.99 2.01 1.99 2.01-.89 2.01-1.99-.9-1.99-2.01-1.99ZM20 23h8.01c.55 0 .99.45.99.99 0 .55-.45.99-.99.99H20c-.55 0-.99-.45-.99-.99 0-.55.45-.99.99-.99Zm20.5-7.01h.8c.39 0 .71-.42.71-.94v-.12c0-.52-.32-.94-.71-.94h-1.51l-2.11-4.93c-.6-1.83-2.31-3.06-4.26-3.07H14.7c-1.94.11-3.65 1.34-4.25 3.15l-2.16 4.85H6.72c-.39 0-.71.42-.71.94v.12c0 .52.32.94.71.94h.84l-1.13 1.47c-.27.35-.42.78-.42 1.22V34c0 1.1.9 2 2 2h3c1.1 0 2-.9 2-2v-3h22v3c0 1.1.9 2 2 2h3c1.1 0 2-.9 2-2V18.66c0-.43-.14-.85-.4-1.19l-1.11-1.48ZM12.33 9.84v-.03l.02-.03c.33-.99 1.3-1.71 2.42-1.78h18.64c1.08 0 2.04.69 2.38 1.74L38.73 17H9.31l3.01-7.15ZM11.01 34h-3v-3h3v3Zm-3-5V18.99h32V29H8Zm32 5h-3v-3h3v3Z"/></svg>

