<svg xmlns="http://www.w3.org/2000/svg" viewBox="0 0 48 48"><title>Energietransitie</title><path d="M8.98 18v-5c0-.55.45-1 1-1s1 .45 1 1v3.3c2.35-3.85 6.35-6.53 10.89-7.16 8.31-1.16 15.99 4.66 17.15 12.96.08.55-.31 1.05-.85 1.13h-.14a1 1 0 0 1-.99-.86c-1-7.21-7.69-12.25-14.89-11.26-4.09.57-7.97 3.1-9.85 6.87h3.71c.55 0 1 .45 1 1s-.45 1-1 1h-5.02c-1.1 0-2-.9-2-2Zm13.3 12.86h.14c.39 0 .76-.21.95-.56l3.29-5.96a.995.995 0 0 0-.88-1.48h-2.73l2.43-4.39a1.085 1.085 0 1 0-1.9-1.05l-3.29 5.96c-.37.67.11 1.48.88 1.48h2.73l-2.5 4.52c-.37.67.11 1.48.88 1.48ZM37.03 28h-5.02c-.55 0-1 .45-1 1s.45 1 1 1h3.7c-2.05 3.82-5.75 6.3-9.84 6.87-7.21 1-13.89-4.05-14.89-11.26a.988.988 0 0 0-1.13-.85c-.55.08-.93.58-.85 1.13C10.05 33.49 16.58 39 24.05 39a15.242 15.242 0 0 0 12.99-7.31v3.3c0 .55.45 1 1 1s1-.45 1-1v-5c0-1.1-.9-2-2-2Z"/></svg>

