<svg xmlns="http://www.w3.org/2000/svg" viewBox="0 0 48 48"><title>Enquete</title><path d="M40 30h-6V11.98c0-1.1-.89-1.98-1.98-1.98H27c0-1.1-.9-2-2-2h-1.56c-.69-1.19-1.97-2-3.44-2s-2.75.81-3.44 2H15c-1.1 0-2 .9-2 2s-5.5 0-5.5 0c-.83 0-1.5.67-1.5 1.5v29c0 .83.67 1.5 1.5 1.5H14c.55 0 1-.44 1-.99 0-.56-.45-1.01-1-1.01H8V12h5c0 1.1.9 2 2 2h10c1.1 0 2-.9 2-2s5 0 5 0v18H21.14c-.29.01-.58.1-.82.26l-7.68 4.49c-.97.57-.99 1.96-.04 2.56l7.03 4.42c.26.17.56.26.87.26H40c1.1 0 2-.9 2-2v-8a2 2 0 0 0-2-2ZM25 12H15v-2h3c0-1.1.9-2 2-2s2 .9 2 2h3v2Zm-4 27.99-4-2.61v-2.81l4-2.58v8Zm19 0H23v-3h17v3Zm0-5H23v-3h17v3Zm-29-8c0-.55.45-1 1-1s1 .45 1 1-.45 1-1 1-1-.45-1-1Zm0-4c0-.55.45-1 1-1s1 .45 1 1-.45 1-1 1-1-.45-1-1Zm0-4c0-.55.45-1 1-1s1 .45 1 1-.45 1-1 1-1-.45-1-1Zm4 8c0-.55.45-1 1-1h8c.55 0 1 .45 1 1s-.45 1-1 1h-8c-.55 0-1-.45-1-1Zm0-4c0-.55.45-1 1-1h12c.55 0 1 .45 1 1s-.45 1-1 1H16c-.55 0-1-.45-1-1Zm0-4c0-.55.45-1 1-1h12c.55 0 1 .45 1 1s-.45 1-1 1H16c-.55 0-1-.45-1-1Z"/></svg>

