<svg xmlns="http://www.w3.org/2000/svg" viewBox="0 0 48 48"><title>Erfgoed</title><path d="M33.03 21c-.55 0-1-.45-1-1v-2.35c0-.55.45-1 1-1s1 .45 1 1V20c0 .55-.45 1-1 1Zm7-15c-.55 0-1 .45-1 1v2h-3.44V7c0-.55-.45-1-1-1s-1 .45-1 1v2h-3.11V7c0-.55-.45-1-1-1s-1 .45-1 1v2h-3.44V7c0-.55-.45-1-1-1s-1 .45-1 1v7.24l.39.3c1.04.79 1.61 1.83 1.61 2.9V25c0 .55.45 1 1 1s1-.45 1-1v-8c0-.14-.03-.26-.08-.38-.21-1.24-.88-2.42-1.92-3.35V11h14v2.26c-1.24 1.07-1.94 2.52-2 4.18V38c0 .55.45 1 1 1s1-.45 1-1V17.47c.04-1.2.57-2.19 1.59-2.92l.41-.3V7c0-.55-.45-1-1-1Zm-7.5 25.99c-1.38 0-2.5 1.02-2.5 2.28v3.71c0 .56.45 1.01 1.01 1.01h2.98c.56 0 1.01-.45 1.01-1.01v-3.71c0-1.26-1.12-2.28-2.5-2.28Zm-8.32-5.01c2.93 3.54 1.81 6.77.11 11.67-.28.82-.59 1.7-.9 2.65a1 1 0 0 1-.95.69h-7.88a1 1 0 0 1-.95-.69c-.31-.95-.62-1.83-.9-2.65-.12-.35-.24-.68-.35-1.01a.92.92 0 0 1-.22-.4c-.38-1.48-1.23-2.4-2.21-3.47-.17-.18-.34-.37-.5-.55-2.93-3.28-2.5-5.7-1.99-6.86.63-1.42 2.07-2.37 3.57-2.37 1 0 2.12.15 3.14 1.42.52-.64.86-1.16.86-1.65 0-.78.02-2.78.02-2.78 0-.55.45-.99 1-.99h4.98c.55 0 1 .44 1 .99 0 0 .02 2.01.02 2.78 0 .67.63 1.42 1.51 2.44.21.24.43.5.65.77Zm-11.37.01c-.61-.98-1.13-.99-1.81-.99-.58 0-1.38.37-1.75 1.19-.54 1.21.06 2.93 1.65 4.71.04.04.07.08.11.12-.06-1.75.41-3.36 1.8-5.03Zm9.83 1.27c-.22-.26-.43-.51-.63-.74-1.07-1.25-2-2.33-2-3.74v-1.77h-3v1.77c0 1.4-.92 2.47-1.98 3.71-.21.25-.43.5-.66.78-2.13 2.57-1.5 4.71.24 9.74.22.63.45 1.29.68 2h6.44c.24-.7.47-1.37.68-2 1.74-5.03 2.37-7.18.24-9.74Z"/></svg>