<svg xmlns="http://www.w3.org/2000/svg" viewBox="0 0 48 48"><title>Erfpacht</title><path d="M15 21h.38c-.04-.33-.07-.66-.07-1s.03-.67.07-1H15c-.55 0-1-.45-1-1s.45-1 1-1h.89c.93-2.36 2.93-4 5.23-4 1.31 0 2.54.51 3.57 1.47a.996.996 0 1 1-1.37 1.45c-.65-.61-1.41-.93-2.2-.93-1.24 0-2.33.79-3.02 2H21c.55 0 1 .45 1 1s-.45 1-1 1h-3.6c-.05.32-.08.66-.08 1s.03.68.08 1H21c.55 0 1 .45 1 1s-.45 1-1 1h-2.9c.69 1.21 1.78 2 3.02 2 .79 0 1.55-.32 2.2-.93a.996.996 0 0 1 1.41.04c.38.4.36 1.04-.04 1.41-1.02.96-2.26 1.47-3.56 1.47-2.31 0-4.3-1.64-5.23-4h-.89c-.55 0-1-.45-1-1s.45-1 1-1Zm26.6 13.2-2.59-1.94V30c0-.55-.44-1-.99-1a1 1 0 0 0-1 .99v.77L34 28.5V7.97C34 6.88 33.12 6 32.03 6H7.96c-1.09 0-1.97.88-1.97 1.97v24.2c0 .53.21 1.04.59 1.41l7.83 7.83c.38.38.88.59 1.42.59h8.18c.55 0 1-.45 1-1s-.45-1-1-1H17v-7a2 2 0 0 0-2-2H8V8h24v20.51l-7.59 5.69c-.44.33-.53.96-.2 1.4.33.44.96.53 1.4.2l1.4-1.05v5.21a2 2 0 0 0 2 2h8a2 2 0 0 0 2-2v-5.23l1.41 1.05c.18.13.39.2.6.2.3 0 .6-.14.8-.4.33-.44.24-1.07-.2-1.4ZM14.99 33v6.13L8.86 33h6.13Zm22 6.97h-8v-6.72l4.01-3 3.99 3v6.72Z"/></svg>

