<svg xmlns="http://www.w3.org/2000/svg" viewBox="0 0 48 48"><title>Evenementen</title><path d="M40.59 22.27c-.25-.08-.47-.14-.59-.19-8.71-3.03-15.22-10.98-15.28-11.06v-.4l3.19-.98c1.02-.24 1.03-1.14.01-1.4l-3.68-1.22a.998.998 0 0 0-1.24.97v3.29c-.06.08-6.3 7.76-15 10.79-.12.04-.32.11-.56.18C6.58 22.51 6 23.31 6 24.2v1.79c0 1.1.9 2 2 2v11a2 2 0 0 0 2 2h28a2 2 0 0 0 2-2v-11c1.1 0 2-.9 2-2v-1.82c0-.88-.57-1.66-1.41-1.91ZM16 39h-6V28h6v11Zm-1.2-13.13-.14.13H8v-1.81l.34-.11c5.26-1.75 10.02-5.46 12.7-7.94l1.76-1.62-.96 2.19c-2.06 4.7-6.86 9.01-7.04 9.17ZM30 39H18V28h12v11ZM17.62 26l.76-.84c1.42-1.56 3.84-4.41 5.17-7.27l.45-.97.45.97c1.33 2.84 3.81 5.7 5.24 7.27l.76.84H17.62ZM38 39h-6V28h6v11Zm2-13h-6.67l-.14-.13c-.77-.71-5.18-4.82-7.1-9.18l-.97-2.21 1.77 1.64c2.69 2.49 7.51 6.21 12.78 7.96l.34.11V26Z"/></svg>

