<svg xmlns="http://www.w3.org/2000/svg" viewBox="0 0 48 48"><title>F1</title><path fill-rule="evenodd" d="m40.68 35.73-1.84-.37C38.33 33.43 36.59 32 34.5 32c-1.45 0-2.73.7-3.55 1.76l-3.95-.8v-.02h-.06c-.27-1.67-1.7-2.95-3.44-2.95-.51 0-1 .13-1.43.33l-.17.07c-.26-.81-1-1.4-1.9-1.4h-1l-11 4v-3c0-.55-.44-1-.99-1s-1 .45-1 1v7c0 1.11.89 2 1.99 2h1.76c.81 1.2 2.18 2 3.74 2s2.93-.8 3.74-2h13.52c.81 1.2 2.18 2 3.74 2s2.93-.8 3.74-2h2.11a1.652 1.652 0 0 0 .33-3.27ZM9.05 37H8v-1.87l.68-.25.75-.27A4.44 4.44 0 0 0 9 36.5c0 .17.03.33.05.5Zm15.85-4.03-2.81.03c.21-.58.76-1 1.41-1s1.18.4 1.4.97Zm-8.97 4.15c-.21.88-.93 1.59-1.8 1.8a2.51 2.51 0 0 1-3.05-3.05c.21-.88.93-1.59 1.8-1.8a2.51 2.51 0 0 1 3.05 3.05ZM30.05 37h-12.1c.02-.17.05-.33.05-.5 0-1.8-1.07-3.35-2.6-4.06L19.35 31H20v4h.02v.02l2-.02h4.96l3.11.63c-.06.28-.09.57-.09.87 0 .17.03.33.05.5Zm6.88.12c-.21.88-.93 1.59-1.8 1.8a2.51 2.51 0 0 1-3.05-3.05c.21-.88.93-1.59 1.8-1.8a2.51 2.51 0 0 1 3.05 3.05ZM11.66 22.43c.78.78 2.05.78 2.83 0l2.83-2.83.71-2.12 2.83-2.83 1.74 1.74-3.21 3.21a.996.996 0 1 0 1.41 1.41l3.21-3.21 3.21 3.21a.996.996 0 1 0 1.41-1.41l-3.21-3.21 1.74-1.74 2.83 2.83.71 2.12 2.83 2.83c.78.78 2.05.78 2.83 0l4.24-4.24c.78-.78.78-2.05 0-2.83l-2.63-2.63-.9-2.32-2.83-2.83c-.78-.78-2.05-.78-2.83 0l-7.39 7.39-7.39-7.39c-.78-.78-2.05-.78-2.83 0l-2.83 2.83-.9 2.32-2.63 2.63c-.78.78-.78 2.05 0 2.83l4.24 4.24ZM32.81 9l2.83 2.83.71 2.12 2.83 2.83-4.24 4.24-2.83-2.83-.71-2.12-2.83-2.83L32.81 9Zm-21.15 4.95.71-2.12L15.2 9l4.24 4.24-2.83 2.83-.71 2.12-2.83 2.83-4.24-4.24 2.83-2.83Z"/></svg>

