<svg xmlns="http://www.w3.org/2000/svg" viewBox="0 0 48 48"><title>Geboorte</title><path d="M18.01 23.56c0-.83.67-1.5 1.49-1.5s1.49.67 1.49 1.5-.67 1.5-1.49 1.5-1.49-.67-1.49-1.5ZM28.5 25c.82 0 1.49-.67 1.49-1.5S29.32 22 28.5 22s-1.49.67-1.49 1.5.67 1.5 1.49 1.5Zm-9.87 5.36c1.58 1.02 3.42 1.56 5.31 1.56s3.87-.58 5.49-1.68c.46-.31.58-.93.27-1.39a.999.999 0 0 0-1.39-.27c-2.54 1.72-6.03 1.75-8.61.09a.993.993 0 0 0-1.38.3c-.3.46-.17 1.08.3 1.38Zm19.71-11.85-.23-.07-.09-.22c-.62-1.5-1.49-2.87-2.54-4.08-1.31-1.55-2.9-2.78-4.73-3.66a8.11 8.11 0 0 0-.52-.22c-.24-.11-.49-.22-.74-.32-.01 0-.33-.09-.42-.09-.56 0-1.02.46-1.02 1.03 0 .47.32.85.76.97v.02c.55.21 1.07.46 1.58.74.22.12.43.24.64.37.07.04.13.08.2.13 2.38 1.57 4.18 3.85 5.13 6.56l.2.58.62.09c1.57.23 2.75 1.58 2.75 3.15 0 1.49-1.06 2.8-2.52 3.12l-.61.13-.16.6c-1.53 5.68-6.74 9.65-12.65 9.65S13.16 33.3 11.46 27.8l-.18-.59-.61-.11c-1.52-.28-2.62-1.6-2.62-3.14s1.1-2.85 2.62-3.14l.61-.11.18-.59c1.43-4.62 5.28-8.05 10.05-8.95.16-.01.23-.03.3-.05.23-.04.4-.07.57-.09.46-.01.86.08 1.21.26.55.29.95.78 1.14 1.38.18.59.12 1.22-.18 1.77s-.79.96-1.39 1.14c-.27.08-.48.26-.61.5s-.15.51-.08.77c.14.45.56.76 1.04.72.08 0 .16-.02.24-.04a4.358 4.358 0 0 0 2.94-5.43c-.62-2.04-2.64-3.32-4.77-3.05l-.28.04c-5.45.83-9.99 4.51-11.89 9.66l-.08.22-.22.08c-2.07.75-3.46 2.72-3.46 4.9s1.39 4.15 3.46 4.9l.22.08.08.22c2.21 5.98 7.8 9.85 14.24 9.85s12.36-4.17 14.4-10.37l.08-.23.22-.09c1.97-.8 3.3-2.74 3.3-4.84 0-2.23-1.51-4.27-3.66-4.96Z"/></svg>

