<svg xmlns="http://www.w3.org/2000/svg" viewBox="0 0 48 48"><title>Gebruiker ingelogd</title><path d="M24 31c2.21 0 4-1.79 4-4s-1.79-4-4-4-4 1.79-4 4 1.79 4 4 4Zm0-6c1.1 0 2 .9 2 2s-.9 2-2 2-2-.9-2-2 .9-2 2-2Zm3 7h-6.06c-1.67 0-2.98 1.27-2.98 2.83V37c0 .55.45 1 1 1s1-.45 1-1v-2.01c0-.55.44-.99.99-.99H27c.55 0 .99.44.99.99V37c0 .55.45 1 1 1s1-.45 1-1v-2.45C29.84 33.12 28.57 32 27 32Zm6-12.95v-3.74c0-4.79-3.61-8.98-8.38-9.3C19.38 5.66 15 9.82 15 14.99c0 .55.45 1 1 1s1-.45 1-1c0-4.16 3.65-7.49 7.92-6.94 3.53.45 6.08 3.63 6.08 7.19V19H15.55C13.04 19 11 21.04 11 23.55V37.5c0 2.49 2.01 4.5 4.5 4.5h17c2.49 0 4.5-2.01 4.5-4.5V23.49c0-2.31-1.76-4.19-4-4.44ZM35 38c0 1.1-.9 2-2 2H15c-1.1 0-2-.9-2-2V23c0-1.1.9-2 2-2h18c1.1 0 2 .9 2 2v15Z"/></svg>

