<svg xmlns="http://www.w3.org/2000/svg" viewBox="0 0 48 48"><title>Gebruikersvraag</title><path d="m31.99 23-13.58-.04c-2.24 0-2.42-2.29-2.42-2.99V8c0-.55-.45-1-1-1s-1 .45-1 1v3h-2a2 2 0 0 0-2 2v6.99c0 4.98 3.42 8.77 8 8.99v11.03c0 1.1.9 1.99 2 1.99H32c1.1 0 2-.9 2-2v-1h2a2 2 0 0 0 2-2v-7.99c0-3.37-2.64-6.01-6.01-6.01ZM12 13h2v2h-2v-2Zm23.98 24-1.99.02V30c0-.55-.44-1-.99-1s-1 .45-1 1v10H20V29.03c0-1.13-.91-2.05-2.03-2.06-3.49 0-5.97-3.6-5.97-6.99v-2.99h2v2.99c0 2.99 1.78 5.01 4.42 5.01l13.58.04c2.24 0 4 1.76 4 4v7.96ZM26 22c4.42 0 8-3.58 8-8s-3.58-8-8-8-8 3.58-8 8 3.58 8 8 8Zm0-14c1.43 0 2.74.5 3.77 1.34-.06.61-.24 1.08-.55 1.4-.87.91-2.84.87-4.74.83-1.46-.03-2.95-.04-4.12.38C21.2 9.65 23.4 8 25.99 8Zm-5.52 6.19c.53-.69 2.36-.65 3.97-.62 2.23.04 4.74.09 6.22-1.45.26-.27.47-.57.64-.92.44.83.69 1.78.69 2.79 0 3.31-2.69 6-6 6-2.56 0-4.74-1.61-5.6-3.87-.2-.92-.19-1.59.08-1.94Z"/></svg>

