<svg xmlns="http://www.w3.org/2000/svg" viewBox="0 0 48 48"><title>Gebruiker</title><path d="M31 23H17c-2.76 0-5 2.24-5 5v9a2 2 0 0 0 2 2h2v1.01c0 1.1.89 1.99 1.99 1.99h12a2 2 0 0 0 2-2v-1h2c1.1 0 2-.9 2-2v-9c0-3-2-5-5-5Zm3 14h-2v-7c0-.55-.45-1-1-1s-1 .45-1 1v10H18V30c0-.55-.45-1-1-1s-1 .45-1 1v7h-2v-9c0-1.66 1.34-3 3-3h14c1.66 0 3 1.34 3 3v9ZM22.43 21.85a8.013 8.013 0 0 0 9.42-9.42c-.6-3.15-3.14-5.69-6.29-6.28a8.017 8.017 0 0 0-9.42 9.42c.6 3.15 3.14 5.69 6.28 6.29ZM24 8c1.43 0 2.74.5 3.77 1.34-.06.61-.24 1.08-.55 1.4-.87.91-2.84.87-4.74.83-1.46-.03-2.95-.04-4.12.38C19.2 9.65 21.4 8 23.99 8Zm-5.52 6.19c.53-.69 2.36-.65 3.97-.62 2.23.04 4.74.09 6.22-1.45.26-.27.47-.57.64-.92.6 1.14.85 2.5.58 3.93-.48 2.55-2.64 4.53-5.22 4.82a6.017 6.017 0 0 1-6.28-3.83c-.2-.92-.19-1.59.08-1.94Z"/></svg>

