<svg xmlns="http://www.w3.org/2000/svg" viewBox="0 0 48 48"><title>Gebruiker centraal</title><path d="M31 23H18.2c-2.56 0-4.85 1.57-5.7 3.82l-1.4 5.09c-.45 1.64 1.23 3.05 2.77 2.32l2.15-1.02.84 1.81-2.79 1.34c-.57.27-.75.99-.37 1.5.28.38.79.51 1.21.31l1.11-.55v2.36c-.02 1.11.88 2.01 1.98 2.01h12.98c1.11 0 2.01-.9 2-2.01v-.99l1.96-.02c1.09-.01 1.98-.91 1.98-2V29c.01-3.37-2.6-6.01-5.93-6.01Zm1.98 14.02V30c0-.54-.42-.98-.96-1h-.03a1 1 0 0 0-1.04 1v10H18.01v-3.3l.56-.27s.08 0 .15-.04l2.7-1.31c1-.48 1.41-1.68.93-2.67l-.87-1.8 2.7-1.31c.5-.24.71-.84.46-1.34a.992.992 0 0 0-1.34-.46l-3.6 1.74-2.73 1.32-3.81 1.8 1.15-4.74s.04-.06.05-.09c.57-1.48 2.15-2.5 3.84-2.5h12.81c2.21 0 3.95 1.76 3.95 4l.05 7.96-2.02.02Zm-15.1-4.66 1.8-.87.87 1.8-1.8.87-.87-1.8ZM25 22.01c4.42 0 8-3.58 8-8s-3.58-8-8-8-8 3.58-8 8 3.58 8 8 8Zm0-14c1.43 0 2.74.5 3.77 1.34-.06.61-.24 1.08-.55 1.4-.87.91-2.84.87-4.74.83-1.46-.03-2.95-.04-4.12.38.84-2.3 3.04-3.95 5.63-3.95Zm-5.52 6.19c.53-.69 2.36-.65 3.97-.62 2.23.04 4.74.09 6.22-1.45.26-.27.47-.57.64-.92.44.83.69 1.78.69 2.79 0 3.31-2.69 6-6 6-2.56 0-4.74-1.61-5.6-3.87-.2-.92-.19-1.59.08-1.94Z"/></svg>

