<svg xmlns="http://www.w3.org/2000/svg" viewBox="0 0 48 48"><title>Geld</title><path d="M15.97 19.5c0 3.03 2.47 5.5 5.5 5.5s5.5-2.47 5.5-5.5-2.47-5.5-5.5-5.5-5.5 2.47-5.5 5.5Zm9 0c0 1.93-1.57 3.5-3.5 3.5s-3.5-1.57-3.5-3.5 1.57-3.5 3.5-3.5 3.5 1.57 3.5 3.5Zm9.46 4.59c-3.1 0-5.71 1.14-6.84 2.8H7.97V11.98h28v9.94c0 .55.45.99 1 .99s1-.44 1-.99V11.48c0-.82-.67-1.49-1.5-1.49h-29c-.83 0-1.5.67-1.5 1.49v15.9c0 .82.67 1.49 1.5 1.49h19.51v.06c0 .02-.01.04-.01.07v4.05s0 .09.01.14c0 .02-.01.03-.01.05v4.05c0 2.63 3.28 4.7 7.46 4.7s7.46-2.06 7.46-4.7v-4.05s0-.03-.01-.05c0-.05.01-.09.01-.14V29s-.01-.04-.01-.06c0-.05.01-.11.01-.16 0-2.64-3.28-4.7-7.46-4.7Zm5.46 13.21c0 1.28-2.24 2.71-5.46 2.71s-5.46-1.43-5.46-2.71v-1.01c1.35.91 3.28 1.47 5.46 1.47s4.11-.56 5.46-1.47v1.01Zm0-4.24c0 1.28-2.24 2.71-5.46 2.71s-5.46-1.43-5.46-2.71v-1.05c1.35.91 3.28 1.48 5.46 1.48s4.11-.56 5.46-1.47v1.04Zm-5.46-1.42c-3.22 0-5.46-1.44-5.46-2.73s2.24-2.73 5.46-2.73 5.46 1.44 5.46 2.73-2.24 2.73-5.46 2.73ZM41.97 8v11c0 .55-.45 1-1 1s-1-.45-1-1V8h-29c-.55 0-1-.45-1-1s.45-1 1-1h29c1.1 0 2 .9 2 2Z"/></svg>