<svg xmlns="http://www.w3.org/2000/svg" viewBox="0 0 48 48"><title>Geluid</title><path d="M14.1 18H9c-1.66 0-3 1.34-3 3v6c0 1.66 1.34 3 3 3h5.1l9.41 6.63c.34.24.74.37 1.15.37h1.33c1.1 0 2-.9 2-2V13c0-1.1-.9-2-2-2h-1.33c-.41 0-.82.13-1.15.37L14.1 18ZM14 28H9c-.55 0-1-.45-1-1v-6c0-.55.45-1 1-1h5v8Zm12-15v22h-1.33L16 28.89v-9.78L24.67 13H26Zm7.26 4.41a.99.99 0 0 1 1.4.48c.54 1.23 1.34 3.49 1.34 6.12s-.8 4.89-1.34 6.12c-.24.54-.88.76-1.4.47a.98.98 0 0 1-.43-1.26c.46-1.06 1.17-3.05 1.17-5.33s-.71-4.27-1.17-5.33a1 1 0 0 1 .43-1.26Zm5.9-5.48C40.08 13.85 42 18.49 42 24s-1.92 10.15-2.84 12.07c-.25.52-.87.71-1.38.44a.992.992 0 0 1-.42-1.3C38.2 33.45 40 29.12 40 24s-1.8-9.45-2.64-11.21a.995.995 0 0 1 .42-1.3.992.992 0 0 1 1.38.44Z"/></svg>

