<svg xmlns="http://www.w3.org/2000/svg" viewBox="0 0 48 48"><title>Gemeenteraad</title><path d="M37.05 20c2.21 0 4-1.79 4-4s-1.79-4-4-4-4 1.79-4 4 1.79 4 4 4Zm0-6c1.1 0 2 .9 2 2s-.9 2-2 2-2-.9-2-2 .9-2 2-2ZM42 29c0 .55-.44 1-.98 1H41c-.54 0-.99-.44-.99-.99v-4.74c0-.64-.63-1.25-1.28-1.25L34.98 23c-.55 0-1-.45-1-1s.45-1 1-1h3.76c1.76 0 3.25 1.46 3.25 3.18v4.83Zm-18-7c4.42 0 8-3.58 8-8s-3.58-8-8-8-8 3.58-8 8 3.58 8 8 8Zm0-14c1.43 0 2.74.5 3.77 1.34-.06.61-.24 1.08-.55 1.4-.87.91-2.84.87-4.74.83-1.46-.03-2.95-.04-4.12.38C19.2 9.65 21.4 8 23.99 8Zm-5.52 6.19c.53-.69 2.36-.65 3.97-.62 2.23.04 4.74.09 6.22-1.45.26-.27.47-.57.64-.92.44.83.69 1.78.69 2.79 0 3.31-2.69 6-6 6-2.56 0-4.74-1.61-5.6-3.87-.2-.92-.19-1.59.08-1.94ZM31 23H17.42c-3.09.3-5.42 2.83-5.42 6.01v8c.02 1.1.9 1.99 2 2l2 .02V40c0 1.1.9 2 2 2h12c1.1 0 2-.9 2-2v-1l2.02-.02c1.1-.01 1.98-.9 1.98-2V29c.01-3.17-1.93-5.7-5-6Zm2.99 14-1.99.02V30c0-.55-.45-1-1-1s-1 .45-1 1v10H18v-9.94a1 1 0 0 0-2 0V37l-2-.02v-8.02a3.959 3.959 0 0 1 3.03-3.91h13.94c1.76.43 3.03 1.99 3.03 3.91v8.03ZM13 22.98 9.28 23c-.65 0-1.27.6-1.27 1.24v4.77a1 1 0 0 1-1 .99h-.02c-.55 0-.99-.45-.99-1v-4.83c0-1.72 1.51-3.18 3.29-3.18h3.72c.55 0 .99.44.99.99s-.44.99-.99.99ZM11 20c2.21 0 4-1.79 4-4s-1.79-4-4-4-4 1.79-4 4 1.79 4 4 4Zm0-6c1.1 0 2 .9 2 2s-.9 2-2 2-2-.9-2-2 .9-2 2-2Z"/></svg>

