<svg xmlns="http://www.w3.org/2000/svg" viewBox="0 0 48 48"><title>Gemeenteraadsvergadering</title><path d="M24.03 14c2.21 0 4-1.79 4-4s-1.79-4-4-4-4 1.79-4 4 1.79 4 4 4Zm0-6c1.1 0 2 .9 2 2s-.9 2-2 2-2-.9-2-2 .9-2 2-2Zm17.95 29.49c.11.54-.23 1.07-.77 1.19-.55.11-1.07-.23-1.19-.77-.1-.47-.27-.83-1.53-.91h-2.88c-.91.02-1.61.88-1.61 2 0 .55-.45 1-1 1s-1-.45-1-1c0-2.2 1.58-3.96 3.59-4.01h2.97c.77.06 2.93.19 3.42 2.5ZM18 19.59V19c0-2.15 1.63-3.87 3.78-3.99h4.28c2.22.04 3.95 1.8 3.95 3.99v.59c0 .55-.45 1-1 1s-1-.45-1-1V19c0-1.11-.85-1.97-1.97-2h-4.2c-1.04.07-1.84.91-1.84 2v.59c0 .55-.45 1-1 1s-1-.45-1-1ZM36.97 17c2.21 0 4-1.79 4-4s-1.79-4-4-4-4 1.79-4 4 1.79 4 4 4Zm0-6c1.1 0 2 .9 2 2s-.9 2-2 2-2-.9-2-2 .9-2 2-2ZM42 22.01V25c0 .55-.45 1-1 1s-1-.45-1-1v-2.99c0-1.12-.71-1.99-1.64-2.01h-2.91c-1.19.09-1.37.45-1.47.92a1 1 0 0 1-1.19.77.998.998 0 0 1-.77-1.19c.49-2.31 2.65-2.45 3.36-2.49h3c2.04.04 3.62 1.8 3.62 4ZM30 41c0 .55-.45 1-1 1s-1-.45-1-1c0-1.11-.85-1.97-1.97-2h-4.2c-1.04.07-1.84.91-1.84 2 0 .55-.45 1-1 1s-1-.45-1-1c0-2.15 1.63-3.87 3.78-3.99h4.28c2.22.04 3.95 1.8 3.95 3.99Zm-9.97-9c0 2.21 1.79 4 4 4s4-1.79 4-4-1.79-4-4-4-4 1.79-4 4Zm6 0c0 1.1-.9 2-2 2s-2-.9-2-2 .9-2 2-2 2 .9 2 2ZM6 25v-2.99c0-2.2 1.58-3.96 3.59-4.01h2.97c.77.06 2.93.19 3.42 2.5.11.54-.23 1.07-.77 1.19-.55.11-1.07-.23-1.19-.77-.1-.47-.27-.83-1.53-.91H9.61c-.91.02-1.61.88-1.61 2V25c0 .55-.45 1-1 1s-1-.45-1-1Zm5.03-8c2.21 0 4-1.79 4-4s-1.79-4-4-4-4 1.79-4 4 1.79 4 4 4Zm0-6c1.1 0 2 .9 2 2s-.9 2-2 2-2-.9-2-2 .9-2 2-2ZM16 39c0 .55-.45 1-1 1s-1-.45-1-1c0-1.12-.71-1.99-1.64-2.01H9.45c-1.19.09-1.37.45-1.47.92a1 1 0 0 1-1.19.77.998.998 0 0 1-.77-1.19c.49-2.31 2.65-2.45 3.36-2.49h3c2.04.04 3.62 1.8 3.62 4Zm17.03-9.01c0 2.21 1.79 4 4 4s4-1.79 4-4a3.999 3.999 0 0 0-4.85-3.91 19.887 19.887 0 0 0-12.12-4.07c-.34 0-.67.03-1 .04l.9-1.64c.26-.48.09-1.09-.4-1.36-.49-.26-1.09-.09-1.36.4l-1.55 2.84c-3.17.54-6.14 1.84-8.75 3.82-.31-.08-.62-.13-.95-.13-2.21 0-4 1.79-4 4s1.79 4 4 4 4-1.79 4-4c0-1.09-.44-2.07-1.14-2.79 3.02-2.08 6.53-3.18 10.25-3.18s7.16 1.08 10.16 3.13a3.98 3.98 0 0 0-1.2 2.85Zm-22.07 2c-1.1 0-2-.9-2-2s.9-2 2-2 2 .9 2 2-.9 2-2 2Zm28.07-2c0 1.1-.9 2-2 2s-2-.9-2-2 .9-2 2-2 2 .9 2 2Z"/></svg>

