<svg xmlns="http://www.w3.org/2000/svg" viewBox="0 0 48 48"><title>Gemiva locatie</title><path d="M41.02 15c.54 0 .98-.44.98-.98v-.03c0-.54-.44-.98-.98-.98h-2.4l-1.45-2.89a2 2 0 0 0-1.79-1.11H12.62a2 2 0 0 0-1.79 1.11l-1.45 2.89h-2.4c-.54 0-.98.44-.98.98v.03c0 .54.44.98.98.98H8v22H6.98c-.54 0-.98.44-.98.98v.03c0 .54.44.98.98.98h34.03c.54 0 .98-.44.98-.98v-.03c0-.54-.44-.98-.98-.98h-1.02v-8.02c0-.54-.44-.98-1-.98s-1 .44-1 .98V37h-4V26h6c1.1 0 2-.9 2-2v-4c0-1.1-.9-2-2-2v-3h1.02Zm-28.4-4h22.76l1 2H11.62l1-2ZM26 37h-4v-8h4v8Zm7-20c-.55 0-1 .45-1 1v19h-4v-8c0-1.1-.9-2-2-2h-4c-1.1 0-2 .9-2 2v8H10V15h28v3h-4c0-.55-.45-1-1-1Zm7 3v4h-6v-4h6Zm-22 9v1c0 .55-.45 1-1 1h-2c-.55 0-1-.45-1-1v-1c0-.55.45-1 1-1h2c.55 0 1 .45 1 1Zm0-9v1c0 .55-.45 1-1 1h-2c-.55 0-1-.45-1-1v-1c0-.55.45-1 1-1h2c.55 0 1 .45 1 1Zm8 0v1c0 .55-.45 1-1 1h-2c-.55 0-1-.45-1-1v-1c0-.55.45-1 1-1h2c.55 0 1 .45 1 1Z"/></svg>

