<svg xmlns="http://www.w3.org/2000/svg" viewBox="0 0 48 48"><title>Gezicht</title><path d="M17.98 23.99c0-.83.67-1.5 1.49-1.5s1.49.67 1.49 1.5-.67 1.5-1.49 1.5-1.49-.67-1.49-1.5Zm10.49-1.56c-.82 0-1.49.67-1.49 1.5s.67 1.5 1.49 1.5 1.49-.67 1.49-1.5-.67-1.5-1.49-1.5Zm13.59 1.55c0 9.94-8.09 18.03-18.03 18.03S6.01 33.92 6.01 23.98 14.1 5.95 24.04 5.95s18.03 8.09 18.03 18.03ZM24.04 7.95c-1.36 0-2.68.19-3.94.51.02.03.04.04.05.07 2.92 5.79 8.75 9.39 15.22 9.39 1.14 0 2.26-.11 3.37-.33-2.47-5.66-8.12-9.64-14.69-9.64ZM8.28 21.15a17.05 17.05 0 0 0 9.93-12.08c-5.11 2.01-8.94 6.55-9.93 12.08Zm31.79 2.83c0-1.56-.24-3.07-.65-4.5-1.32.29-2.68.44-4.05.44-6.4 0-12.24-3.15-15.76-8.37A19.069 19.069 0 0 1 8.05 23.39c0 .2-.03.39-.03.59 0 8.84 7.19 16.03 16.03 16.03s16.03-7.19 16.03-16.03Zm-11.78 6.69c-2.54 1.72-6.03 1.75-8.61.09a.993.993 0 0 0-1.38.3c-.3.46-.17 1.08.3 1.38 1.58 1.02 3.42 1.56 5.31 1.56s3.87-.58 5.49-1.68c.46-.31.58-.93.27-1.39a.999.999 0 0 0-1.39-.27Z"/></svg>

