<svg xmlns="http://www.w3.org/2000/svg" viewBox="0 0 48 48"><title>Gezondheid</title><path d="M15.01,32.31c-.38,0-.73-.21-.9-.55l-2.84-5.7h-4.23c-.55,0-1-.45-1-1s.45-1,1-1h4.85c.38,0,.73.21.9.55l2.01,4.05,3.23-10.16c.13-.41.52-.7.95-.7h0c.44,0,.82.28.95.7l1.77,5.56h5.24c.55,0,1,.45,1,1s-.45,1-1,1h-5.97c-.44,0-.82-.28-.95-.7l-1.04-3.26-3.03,9.52c-.12.39-.47.66-.88.69-.03,0-.05,0-.08,0ZM27.03,37.23c.3-.46.17-1.08-.29-1.39-2.4-1.58-4.48-3.13-6.17-4.62-.41-.36-1.04-.32-1.41.09-.36.41-.32,1.05.09,1.41,1.76,1.55,3.91,3.16,6.39,4.79.17.11.36.16.55.16.33,0,.64-.16.84-.45ZM28.16,37.52c12.16-8.01,13.8-13.84,13.8-18.5,0-4.33-2.91-8.93-8.31-8.93-3.46,0-5.59,2.1-6.69,3.64-1.09-1.54-3.22-3.64-6.69-3.64-5.4,0-8.31,4.6-8.31,8.93,0,.76.04,1.45.13,2.13.07.55.56.93,1.12.86.55-.07.93-.57.86-1.12-.08-.59-.11-1.2-.11-1.87,0-3.36,2.21-6.93,6.31-6.93s5.69,3.84,5.76,4c.16.37.52.61.93.61s.76-.24.92-.61c.07-.16,1.75-4,5.76-4s6.31,3.57,6.31,6.93c0,4.12-1.53,9.34-12.92,16.84-.04.03-.17.07-.28,0-.46-.31-1.08-.2-1.39.26-.31.46-.2,1.08.26,1.39.38.27.84.4,1.28.4s.88-.13,1.25-.39Z"/></svg>