<svg xmlns="http://www.w3.org/2000/svg" viewBox="0 0 48 48"><title>Grafiek</title><path d="M30 25v-4c0-1.1-.9-2-2-2h-8c-1.1 0-2 .9-2 2v9l-8 .02c-1.1 0-2 .9-2 2V40c0 1.1.9 2 2 2h28c1.1 0 2-.9 2-2V27c0-1.1-.9-2-2-2h-8ZM18 40h-8v-8h8v8Zm10 0h-8V21h8v19Zm10 0h-8V27h8v13ZM28 6h3c1.1 0 2 .9 2 2v3c0 .55-.45 1-1 1s-1-.45-1-1V9.41l-4.36 4.36c-.78.78-2.05.78-2.83 0l-2.12-2.12-7.07 7.07a.996.996 0 1 1-1.41-1.41l7.04-7.04c.77-.77 2.02-.78 2.81-.02l2.11 2.05L29.58 8h-1.57c-.55 0-1-.45-1-1s.45-1 1-1Z"/></svg>

