<svg xmlns="http://www.w3.org/2000/svg" viewBox="0 0 48 48"><title>Grofvuil</title><path d="m25.57 38.74-14.89 1.1c-2.2.17-4.12-1.49-4.29-3.69l-.38-4.99c-.14-1.85 1.02-3.5 2.7-4.07l-.16-2.14c-.17-2.2 1.49-4.12 3.69-4.29l13.18-.96a.997.997 0 1 1 .15 1.99l-4.73.33-1.66 3.13.65-.05a1 1 0 0 1 .97 1.45l-1.57 3.13c-.16.31-.47.52-.82.55h-.09c-.79.07-1.33-.76-.96-1.46l.81-1.53-.65.05a1 1 0 0 1-.97-1.45l1.82-3.63-5.98.45c-1.1.08-1.93 1.04-1.84 2.14l.16 2.14c1.75.32 3.14 1.77 3.28 3.62l.15 1.99 11.28-.8a.997.997 0 1 1 .15 1.99l-13.27.95-.15-1.99-.15-1.99a2.003 2.003 0 0 0-2.48-1.79c-.97.24-1.58 1.21-1.5 2.2l.37 4.87c.08 1.1 1.04 1.93 2.14 1.84l14.89-1.1a.997.997 0 1 1 .15 1.99Zm12.68-1.01.07 1a.997.997 0 1 1-1.99.15l-.07-1-6.25.42V40h3c.55 0 1 .45 1 1s-.45 1-1 1h-8c-.55 0-1-.45-1-1s.45-1 1-1h3.01V15.03h-2.51c-1.28 0-2.23-1.18-1.95-2.43l1.11-5.03A1.99 1.99 0 0 1 26.62 6h4.79c.94 0 1.75.65 1.95 1.56l1.13 5.03c.28 1.25-.67 2.44-1.95 2.44h-2.53v4.22l3.87-.25a4.024 4.024 0 0 1 4.25 3.7l.16 2.14c1.75.32 3.14 1.77 3.28 3.62l.38 4.99c.17 2.2-1.49 4.12-3.69 4.29ZM30 21.25v10.03l3.73-.24-.15-1.98c-.14-1.85 1.02-3.5 2.7-4.07l-.16-2.14a1.988 1.988 0 0 0-2.14-1.84l-1.36.09h-.04l-2.58.17Zm0-8.23h2.53L31.4 7.99h-4.79l-1.11 5.03H30Zm9.94 20.56-.38-4.99a2.003 2.003 0 0 0-2.48-1.79c-.97.24-1.57 1.21-1.5 2.2l.22 2.88a.997.997 0 0 1-.92 1.07l-4.88.31v3.01l8.09-.56c1.1-.08 1.93-1.04 1.84-2.14Z"/></svg>

