<svg xmlns="http://www.w3.org/2000/svg" viewBox="0 0 48 48"><title>Herdenking</title><path d="M34 30.83V26h1.88l.73.71c.19.18.44.29.7.29h2.7c1.1-.01 1.99-.91 1.99-2.01V21c0-1.1-.9-2-2-2h-2l-.71-.71a.99.99 0 0 0-.71-.29h-2.59v-6c0-.55-.45-1-1-1s-1 .45-1 1v19h-2v-4c0-.55-.45-1-1-1l-.93-16.86c-.04-.7-.44-1.33-1.06-1.66l-2.07-1.26a2 2 0 0 0-1.9 0l-2.05 1.27c-.61.33-1.01.95-1.04 1.65L18.99 26c-.55 0-1 .45-1 1v4h-2a2 2 0 0 0-2 2v3h-3a2 2 0 0 0-2 2v2h-2c-.55 0-1 .45-1 1s.45 1 1 1h34c.55 0 1-.45 1-1s-.45-1-1-1h-2v-2a2 2 0 0 0-2-2h-3v-5.17ZM34 20h2.17l1 1H40v3.99h-2.29L36.69 24h-2.7v-4ZM21.94 9.27 24 7.96l2.06 1.31L27 26h-6l.94-16.73ZM20 28h8v3h-8v-3Zm-4 4.98 15.96.02H32v3H16v-3.02ZM37 38v2H11v-2h26Z"/></svg>

