<svg xmlns="http://www.w3.org/2000/svg" viewBox="0 0 48 48"><title>Hond</title><path d="M16 32.25v4.79c0 .55-.45 1-1 1s-1-.45-1-1v-4.79c0-.55.45-1 1-1s1 .45 1 1Zm-2.48-11.22a.995.995 0 0 0-.85-1.13.988.988 0 0 0-1.13.84c0 .04-.67 4.34-3.69 6.79-.19.15-.31.37-.35.61l-1.48 8.74c-.09.54.28 1.06.82 1.15.06 0 .11.01.17.01.48 0 .9-.34.99-.83l1.42-8.38c3.38-2.97 4.08-7.61 4.11-7.81Zm18.44 8.84c-.55 0-1 .45-1 1l.03 6.18c0 .55.45 1 1 1s1-.45 1-1l-.03-6.18c0-.55-.45-1-1-1Zm-7.39-2.36-4.63-1.95c.62-1.14.87-2.01.89-2.11a1 1 0 0 0-1.93-.52c-.06.22-1.55 5.46-7.38 6.41-.4.07-.72.37-.81.76l-1.55 6.72a1 1 0 0 0 .75 1.2.983.983 0 0 0 1.2-.75l1.4-6.09c3.05-.67 5.04-2.32 6.31-3.93l4.98 2.1a.998.998 0 0 0 1.31-.53 1 1 0 0 0-.53-1.31Zm17.37-14.39v.77c0 2.21-1.18 4.08-3.09 4.88l-3.96 1.65v.95c0 2.99-1.4 5.86-3.76 7.67-.5.38-1.05.82-1.64 1.3l-1.41 6.91c-.1.47-.51.8-.98.8-.07 0-.13 0-.2-.02-.54-.11-.89-.64-.78-1.18l1.48-7.26c.05-.23.17-.43.35-.58.72-.59 1.38-1.1 1.96-1.56a7.744 7.744 0 0 0 2.98-6.09v-1.19l-1.14-1.12c-.7.67-1.63 1.08-2.67 1.08-.56 0-1.09-.08-1.6-.33l-10.2-.06a8.44 8.44 0 0 1-7.96-5.64L8 11.55c-.25-.49-.06-1.09.43-1.35.49-.25 1.09-.06 1.35.43l1.35 2.61s.04.09.06.14a6.439 6.439 0 0 0 6.1 4.36l8.27.05c-.14-.24-.28-.5-.42-.79a.99.99 0 0 1 .15-1.1l4.84-5.46c.19-.21.46-.34.75-.34h4.41c.34 0 .66.17.84.46l1 1.56h3.81c.55 0 1 .45 1 1Zm-10.98-.6-3.71 4.19c.8 1.42 1.33 1.42 1.84 1.42 1.03 0 1.87-.84 1.87-1.87v-3.74Zm8.98 1.6h-3.35c-.34 0-.66-.17-.84-.46l-1-1.56h-1.79v4.16c0 .35-.06.69-.15 1.02l1.32 1.3 3.96-1.65c1.1-.46 1.78-1.5 1.85-2.8Z"/></svg>