<svg xmlns="http://www.w3.org/2000/svg" viewBox="0 0 48 48"><title>Hondenbelasting</title><path d="M28.7 29.9c1.02-.49 2.17-.53 3.22-.14.52.2.78.77.58 1.29-.2.52-.77.78-1.29.58-.54-.2-1.13-.18-1.65.07-.53.25-.94.71-1.17 1.29h2.57c.55 0 1 .45 1 1s-.45 1-1 1h-2.57c.25.62.71 1.13 1.35 1.36.48.18 1.01.18 1.49 0 .52-.19 1.09.07 1.29.58.2.52-.07 1.09-.58 1.29-.47.18-.96.26-1.45.26s-.98-.09-1.45-.26c-1.42-.54-2.39-1.79-2.71-3.23h-.36c-.55 0-1-.45-1-1s.45-1 1-1h.37c.04-.16.06-.32.11-.48.39-1.17 1.2-2.1 2.28-2.61Zm.73-17.99c0-.83-.67-1.5-1.5-1.5s-1.5.67-1.5 1.5.67 1.5 1.5 1.5 1.5-.67 1.5-1.5Zm12.27 3.63-1.6 3.44c-1.15 2.44-3.65 4.01-6.37 4.01h-1.24l-1.08 3.17c3.75.67 6.61 3.95 6.61 7.89 0 4.96-4.53 8.89-9.68 7.85-3.05-.61-5.52-3.04-6.18-6.09a8.035 8.035 0 0 1 7.16-9.76l1.46-4.39a1 1 0 0 1 .95-.68h2c1.92 0 3.77-1.18 4.58-2.91l.93-2.16-.49-.22c-.41-.19-.75-.47-.98-.82-.1-.16-.19-.34-.25-.54l-.11-.35h-4.53c-.44 0-.82-.28-.95-.7l-1.28-4.03c-.33-.71-1.21-1.26-1.99-1.26H22a.963.963 0 0 0-.89.53l-6.62 12.72 4.72 2.32c.6.29 1.3.24 1.88-.12.53-.33.86-.87.91-1.49v-.07l-1.19-5.71a.945.945 0 0 1 .08-.64c.42-.84 1.65-.68 1.85.24l1.24 5.92v.08c0 .85-.24 1.69-.77 2.36-1.23 1.56-3.23 1.99-4.88 1.2l-4.7-2.31-.96 1.91 7.52 3.6c.48.23.69.8.48 1.29-.22.51-.83.74-1.34.5l-7.55-3.61-3.97 7.2a.992.992 0 0 1-1.71-1l13.29-25.4c.41-.87 1.43-1.52 2.36-1.52h6.94c1.63.01 3.25 1.1 3.85 2.57l1.14 3.45h5.85c1.3 0 1.9.65 2.15 1.03.44.69.45 1.64.04 2.51ZM29.99 27.99c-3.31 0-6 2.69-6 6s2.69 6 6 6 6-2.69 6-6-2.69-6-6-6Z"/></svg>

