<svg xmlns="http://www.w3.org/2000/svg" viewBox="0 0 48 48"><title>Hoogbouw</title><path d="M22.03 23ZM28 10c-.55 0-1 .45-1 1s.45 1 1 1h1c.55 0 1-.45 1-1s-.45-1-1-1h-1Zm-5 6h1c.55 0 1-.45 1-1s-.45-1-1-1h-1c-.55 0-1 .45-1 1s.45 1 1 1Zm-10 3h1c.55 0 1-.45 1-1s-.45-1-1-1h-1c-.55 0-1 .45-1 1s.45 1 1 1ZM32 8H20v27c0 1.1-.9 2-2 2H7c-.55 0-1-.45-1-1s.45-1 1-1h1V15c0-1.1.9-2 2-2h8V8c0-1.1.9-2 2-2h12c1.1 0 2 .9 2 2v10c0 .55-.45 1-1 1s-1-.45-1-1V8Zm-14 7h-8v20h8V15Zm-5 8h1c.55 0 1-.45 1-1s-.45-1-1-1h-1c-.55 0-1 .45-1 1s.45 1 1 1Zm24 7h-1c-.55 0-1 .45-1 1s.45 1 1 1h1c.55 0 1-.45 1-1s-.45-1-1-1Zm-2-3c0 .55.45 1 1 1h1c.55 0 1-.45 1-1s-.45-1-1-1h-1c-.55 0-1 .45-1 1Zm7-3.23V40c0 1.1-.9 2-2 2H24c-1.1 0-2-.9-2-2V23.77c0-.64.31-1.24.82-1.62l3.5-2.76c.72-.52 1.7-.52 2.42.01l3.25 2.62 3.32-2.64c.7-.51 1.64-.51 2.35 0l3.51 2.76c.52.38.83.98.83 1.62Zm-11-.02-3.52-2.72L24 23.74v16.25h7V23.74Zm9 0-3.52-2.73L33 23.75V40h7V23.75ZM25 11c0-.55-.45-1-1-1h-1c-.55 0-1 .45-1 1s.45 1 1 1h1c.55 0 1-.45 1-1Zm1 16c0 .55.45 1 1 1h1c.55 0 1-.45 1-1s-.45-1-1-1h-1c-.55 0-1 .45-1 1Zm11 7h-1c-.55 0-1 .45-1 1s.45 1 1 1h1c.55 0 1-.45 1-1s-.45-1-1-1Z"/></svg>

