<svg xmlns="http://www.w3.org/2000/svg" viewBox="0 0 48 48"><title>Hoog Water</title><path d="M18 12V9c0-1.65 1.35-3 3-3h6c1.65 0 3 1.35 3 3v3c0 .55-.45 1-1 1s-1-.45-1-1V9c0-.55-.45-1-1-1h-6c-.55 0-1 .45-1 1v3c0 .55-.45 1-1 1s-1-.45-1-1Zm23.72 2.42c-.37-.41-1-.44-1.41-.07-.86.78-1.86 1.19-2.89 1.19-1.39 0-2.7-.74-3.69-2.08-.38-.51-1.23-.51-1.61 0-.99 1.34-2.3 2.08-3.69 2.08s-2.7-.74-3.68-2.08c-.19-.26-.49-.41-.81-.41s-.62.15-.8.41c-.99 1.34-2.3 2.08-3.69 2.08s-2.7-.74-3.69-2.08c-.38-.51-1.23-.51-1.61 0-.99 1.34-2.3 2.08-3.69 2.08-.98 0-1.94-.38-2.77-1.09a.999.999 0 1 0-1.3 1.52C7.59 17 9 17.54 10.47 17.54c1.64 0 3.23-.7 4.49-1.96.88.88 1.92 1.48 3.03 1.76v23.65c0 .55.45 1 1 1s1-.45 1-1V17.51c1.45-.14 2.83-.81 3.95-1.93 1.15 1.14 2.57 1.82 4.05 1.93v1.47h-3c-.55 0-1 .45-1 1s.45 1 1 1h3v4h-3c-.55 0-1 .45-1 1s.45 1 1 1h3v4h-3c-.55 0-1 .45-1 1s.45 1 1 1h3v4h-3c-.55 0-1 .45-1 1s.45 1 1 1h3v2c0 .55.45 1 1 1s1-.45 1-1V17.31c1.07-.3 2.07-.89 2.93-1.74 1.26 1.26 2.85 1.96 4.49 1.96 1.54 0 3-.59 4.24-1.71.41-.37.44-1 .07-1.41Z"/></svg>