<svg xmlns="http://www.w3.org/2000/svg" viewBox="0 0 48 48"><title>Horecavergunningen</title><path d="m27.77 16.79.02.02c.38.38.38 1 0 1.38l-7.11 7.11c-.38.38-1 .38-1.38 0l-4.26-4.26a.99.99 0 0 1 0-1.39c.38-.38 1-.38 1.38 0l3.56 3.54 6.41-6.41c.38-.38 1-.38 1.38 0ZM36 35.91V40h3c.55 0 1 .45 1 1s-.45 1-1 1h-8c-.55 0-1-.45-1-1s.45-1 1-1h3v-4.09a5.998 5.998 0 0 1-4.99-5.66V26c0-1.11.89-2 2-2h2V8H9v23h7c1.1 0 2 .9 2 2v7h9c.55 0 1 .45 1 1s-.45 1-1 1H16.83c-.53 0-1.04-.21-1.41-.59l-7.83-7.83C7.21 33.2 7 32.7 7 32.17V7.97C7 6.88 7.88 6 8.97 6h24.05c1.09 0 1.97.88 1.97 1.97V24h4a2 2 0 0 1 2 2v4.26A5.987 5.987 0 0 1 36 35.91ZM9.87 33 16 39.13V33H9.87Zm28.99-2h-7.71c.39 1.49 1.62 2.68 3.19 2.94l.67.11.67-.11c1.56-.26 2.8-1.44 3.19-2.94Zm.14-5h-7.99v3h7.98v-3Z"/></svg>

