<svg xmlns="http://www.w3.org/2000/svg" viewBox="0 0 48 48"><title>Horeca</title><path d="m30.71 13.05 3.93-3.93a.996.996 0 1 1 1.41 1.41l-3.93 3.93a.996.996 0 1 1-1.41-1.41Zm2.83 4.24c.39.39 1.02.39 1.41 0l3.93-3.93a.996.996 0 1 0-1.41-1.41l-3.93 3.93a.996.996 0 0 0 0 1.41Zm6.51 19.57a3.003 3.003 0 0 1-.46 4.62c-1.2.81-2.84.56-3.86-.47L23.47 28.75 11.26 41.01c-1.03 1.03-2.66 1.28-3.86.47a2.997 2.997 0 0 1-.46-4.62l8.19-8.19a.999.999 0 0 1 1.42.01c.38.39.38 1.02-.01 1.4l-8.19 8.19a.996.996 0 1 0 1.41 1.41l12.29-12.34-.8-.8-2.18 1.09c-.3.15-.66.13-.94-.03l-9.11-9.05c-3.42-3.42-3.96-7.83-1.5-11.11.71-.95 2.13-.99 2.97-.15l29.56 29.56Zm-1.41 1.41L9.07 8.71c-2.07 2.8-.89 6.18 1.36 8.43l8.38 8.38 2.18-1.09a.99.99 0 0 1 1.15.19L37.2 39.68a.996.996 0 1 0 1.41-1.41ZM26.77 19.82l1.05-1.05c.6-.6.74-1.51.38-2.28-.7-1.48-.44-3.32.79-4.54l4.25-4.25a.996.996 0 1 0-1.41-1.41l-4.25 4.25a5.994 5.994 0 0 0-1.14 6.88c-.02.01-.76.75-1.03 1.02a.975.975 0 1 0 1.38 1.38Zm14.94-5.04a.996.996 0 0 0-1.41 0l-4.25 4.25a4.002 4.002 0 0 1-4.54.79 2.01 2.01 0 0 0-2.28.38l-1.05 1.05a.972.972 0 1 0 1.38 1.37c.27-.27 1.01-1.01 1.02-1.03 2.24 1.09 5.02.72 6.88-1.14l4.25-4.25a.996.996 0 0 0 0-1.41Z"/></svg>

