<svg xmlns="http://www.w3.org/2000/svg" viewBox="0 0 48 48"><title>Huis en omgeving</title><path d="M15.86 26c0 1.1-.85 2-1.88 2s-1.88-.9-1.88-2 .84-2 1.88-2 1.88.9 1.88 2Zm6.14.05c0 2.99-2.29 7.46-2.29 7.46-1.93 3.92-4.41 7.46-4.57 7.66l-.36.45c-.4.51-1.17.51-1.57 0l-.36-.45c-.23-.29-5.54-7.85-6.64-13.23-.04-.15-.07-.34-.1-.53l-.03-.22c-.06-.42-.08-.78-.08-1.13 0-4.52 3.59-8.21 8-8.21s8 3.68 8 8.21Zm-2 0c0-3.42-2.69-6.21-6-6.21s-6 2.78-6 6.21c0 .26.02.53.07.86l.03.19c.02.12.05.26.07.36v.04l.02.04c.74 3.65 3.92 9.31 5.82 11.84 1.9-2.52 5.07-8.18 5.81-11.8v-.03l.01-.03.1-.5.02-.11c.04-.32.06-.59.06-.85Zm21.71 14.24c-.35-.35-7.65-7.83-18.38-9.08a.996.996 0 0 0-1.01.58c-.28.61.11 1.31.77 1.39 10.06 1.18 17.13 8.44 17.21 8.52.2.19.45.29.71.29s.51-.1.71-.29a.996.996 0 0 0 0-1.41ZM22.24 14.98l-.02-.02a.995.995 0 0 1 .15-1.42l8.41-7.13a2.01 2.01 0 0 1 2.44-.03l4.8 4.09V9.01c0-.55.45-1 1-1s1 .45 1 1v3.08l1.66 1.44c.39.35.44.94.11 1.34a.984.984 0 0 1-1.47.06l-.3-.34V23c0 1.1-.9 2-2 2h-12c-1.1 0-2-.9-2-2v-8.23l-.35.33a.994.994 0 0 1-1.42-.12ZM26.02 23h12v-9.8l-6-5-5.99 5V23ZM33 16h-2c-.55 0-1 .45-1 1v1c0 .55.45 1 1 1h2c.55 0 1-.45 1-1v-1c0-.55-.45-1-1-1Zm8.3 13.64c-.32-.1-7.05-2.19-16.93-2.57-.57-.02-1.04.44-1.04 1s.43.97.97 1c9.65.38 16.35 2.47 16.42 2.49a1.005 1.005 0 0 0 1.25-.67c.16-.53-.14-1.09-.67-1.25Z"/></svg>

