<svg xmlns="http://www.w3.org/2000/svg" viewBox="0 0 48 48"><title>Huiselijk geweld</title><path d="M27.83 13.71a.99.99 0 0 1-.17-1.19l3.28-5.97c.19-.35.55-.56.95-.56h.14a.997.997 0 0 1 .88 1.48l-2.48 4.52h2.73c.28 0 .53.1.71.28.3.3.4.77.17 1.19l-2.97 5.32c-.31.55-1.03.71-1.55.35-.45-.32-.58-.92-.3-1.4l1.05-1.81-.03-.02 1.05-1.91h-2.73c-.28 0-.53-.1-.71-.28Zm.12 12.27c.54 0 .99.44.99.99V33c0 .54-.44.99-.99.99h-8.02a1 1 0 0 1-1-.99v-6.01c0-.55.45-.99 1-.99h8.02Zm-1.01 2h-6v4h6v-4Zm-9.81-5.59c.19.35.55.56.95.56h.14a.997.997 0 0 0 .88-1.48l-2.48-4.52h2.73c.28 0 .53-.1.71-.28.3-.3.4-.77.17-1.19l-3.28-5.97a1.07 1.07 0 0 0-.95-.56 1.081 1.081 0 0 0-.95 1.6l2.42 4.4h-2.73c-.28 0-.53.1-.71.28-.3.3-.4.77-.17 1.19l3.28 5.97Zm21.54 2.17-2.71-2.32v-4.27a.986.986 0 1 0-1.97 0v2.54l-.5-.44a.994.994 0 0 0-1.48.18c-.28.41-.21.97.16 1.3l1.78 1.58.03 16.85H13.94V23.14l.43-.37a.993.993 0 1 0-1.3-1.5l-3.75 3.27a.99.99 0 0 0-.1 1.41c.36.41.99.46 1.4.09L12 24.83l-.02 16.15c0 .55.44 1 1 1H35c.54 0 .99-.44.99-.99l-.03-16.11 1.4 1.19c.41.35 1.03.31 1.39-.1l.02-.02a.983.983 0 0 0-.1-1.39Zm-15.68-9.38 1-.9 2.3 2.08c.47.42 1.21.31 1.52-.24.23-.4.15-.92-.19-1.23l-2.98-2.7a.987.987 0 0 0-1.29 0l-1.67 1.49c-.36.32-.44.86-.19 1.27.32.53 1.05.63 1.51.22Z"/></svg>

