<svg xmlns="http://www.w3.org/2000/svg" viewBox="0 0 48 48"><title>Huis</title><path d="M35.96 19.26v-4.27c0-.55-.44-.99-.99-.99-.54 0-.98.44-.98.99v2.54l-8.65-8.04c-.75-.67-1.89-.67-2.65 0L9.33 21.58a.99.99 0 0 0-.1 1.41c.36.41.99.46 1.4.09l1.38-1.21-.02 15.14c0 1.11.89 2 2 2h20.85c.63 0 1.14-.51 1.14-1.14l-.03-15.96 1.4 1.19c.41.35 1.03.31 1.39-.1l.02-.02a.983.983 0 0 0-.1-1.39l-2.71-2.32Zm-1.97 17.75H13.96V20.17L24 10.95l9.96 9.2.03 16.85ZM27 31h-6c-1.1 0-2-.9-2-2v-4c0-1.1.9-2 2-2h6c1.1 0 2 .9 2 2v4c0 1.1-.9 2-2 2Zm-6-2h6v-4h-6v4Z"/></svg>

