<svg xmlns="http://www.w3.org/2000/svg" viewBox="0 0 48 48"><title>Hulpmiddelen vinden</title><path d="M34 31v-2.94c0-.59-.48-1.06-1.06-1.06H26c-.55 0-1-.45-1-1s.45-1 1-1h6.94A3.06 3.06 0 0 1 36 28.06V31c0 .55-.45 1-1 1s-1-.45-1-1Zm-2.99-20.5c0-1.98 1.29-3.65 3.07-4.25.03 0 .05-.02.08-.02.43-.14.88-.23 1.35-.23.52 0 1.01.11 1.47.27H37c1.75.62 3.01 2.27 3.01 4.23 0 2.49-2.01 4.5-4.5 4.5s-4.5-2.01-4.5-4.5Zm2 0a2.5 2.5 0 0 0 5 0c0-1.04-.66-1.97-1.64-2.33l-.05-.02c-.3-.1-.56-.15-.81-.15-.22 0-.45.04-.75.14h-.02l-.05.02c-1 .34-1.69 1.28-1.69 2.35Zm8.96 26.19c.19 1.01-.52 2.04-1.53 2.27l-12.65 2.91c-.84.19-1.73.17-2.57-.05l-11-2.77h-.2c0 1.1-.9 2-2 2h-4c-1.1 0-2-.9-2-2v-10c0-1.1.9-2 2-2h4.05c.73 0 1.35.41 1.68 1h.27v-.02l3.98-.6V20c0-2.21 1.81-4 4.02-4h1.57c.55 0 1 .45 1 1s-.45 1-1 1H22a2 2 0 0 0-2 2v7.15c.33-.04.68-.02 1 .08l8.42 2.82c2.59.98 2.59 3.98 2.59 3.98h5.84c2.07 0 3.8 1.01 4.11 2.67Zm-29.95-7.64h-4v10h4v-10Zm27.91 8.27c-.08-.72-1.36-1.27-2.14-1.27l-10.85-.02c-.78 0-1.55-.11-2.31-.33l-2.17-.63a.997.997 0 0 1-.67-1.27v-.02c.17-.51.72-.8 1.23-.65l2.32.67c.51.14 4.67.22 4.67.22 0-.7-.64-1.81-1.41-2.07l-8-2.82c-.16-.06-1.33-.07-1.49-.04l-5.09.95v7l12.69 2.99 13.22-2.72ZM38.01 16h-1.5c-.55 0-1 .45-1 1s.45 1 1 1h1a2.5 2.5 0 0 1 2.5 2.5V27h-2.02v4c0 .55.46 1 1.01 1s1-.45 1.01-1v-2a2 2 0 0 0 2-2v-7c0-2.21-1.79-4-4-4Zm-18-5.5c0-1.98 1.29-3.65 3.07-4.25.03 0 .05-.02.08-.02.43-.14.88-.23 1.35-.23.52 0 1.01.11 1.47.27H26c1.75.62 3.01 2.27 3.01 4.23 0 2.49-2.01 4.5-4.5 4.5s-4.5-2.01-4.5-4.5Zm2 0a2.5 2.5 0 0 0 5 0c0-1.04-.66-1.97-1.64-2.33l-.05-.02c-.3-.1-.56-.15-.81-.15-.22 0-.45.04-.75.14h-.02l-.05.02c-1 .34-1.69 1.28-1.69 2.35Zm6.65 4.73c.43-.14.88-.23 1.35-.23.52 0 1.01.11 1.47.27h.02c1.75.62 3.01 2.27 3.01 4.23 0 2.49-2.01 4.5-4.5 4.5s-4.5-2.01-4.5-4.5c0-1.98 1.29-3.65 3.07-4.25.03 0 .05-.02.08-.02Zm.54 1.93c-1 .34-1.69 1.28-1.69 2.35a2.5 2.5 0 0 0 5 0c0-1.04-.66-1.97-1.64-2.33l-.05-.02c-.3-.1-.56-.15-.81-.15-.22 0-.45.04-.75.14h-.02l-.05.02Z"/></svg>

