<svg xmlns="http://www.w3.org/2000/svg" viewBox="0 0 48 48"><title>Hulp huishouden</title><path d="M41 40h-4l-3.05-22.91a8.581 8.581 0 0 0-5.97-6.82c-1.03-.32-10.09-3.92-10.99-4.13-1.01-.25-1.94-.19-1.98-.19-3.66 0-6.83 2.58-6.83 6.83s3.18 7.21 6.84 7.21l8.61-.03a1.953 1.953 0 0 1 1.26 3.44l-1.73 2.04a10.71 10.71 0 0 0-5.39-1.46h-6.7c-2.25 0-4.07 1.75-4.07 4v3.69c-.63.95-1 2.09-1 3.31 0 3.31 2.69 6 6 6 1.22 0 2.36-.37 3.31-1h8.66c2.71 0 4.99-2.16 5.02-4.88a10.88 10.88 0 0 0-3.83-8.4l1.48-1.78a3.96 3.96 0 0 0 1.34-2.97c0-2.19-1.78-3.97-3.97-3.97l-8.98.03c-2.55 0-4.83-2.21-4.83-5.22 0-2.77 2.28-4.83 4.9-4.83 0 0 .72-.04 1.44.13.7.17 8.07 3.23 10.86 4.1 2.41.74 4.17 2.75 4.58 5.16L35 39.98h-3.99c-.55 0-1 .45-1 1s.45 1 1 1h10c.55 0 1-.45 1-1s-.45-1-1-1ZM8 35c0-2.21 1.79-4 4-4s4 1.79 4 4-1.79 4-4 4-4-1.79-4-4Zm18.97.1c-.02 1.62-1.4 2.9-3.02 2.9h-6.76c.51-.88.81-1.91.81-3 0-3.31-2.69-6-6-6-1.09 0-2.12.3-3 .81v-1.76c0-1.13.93-2.05 2.07-2.05h6.92c4.99 0 9.05 4.09 8.99 9.1Z"/></svg>

