<svg xmlns="http://www.w3.org/2000/svg" viewBox="0 0 48 48"><title>ID-kaart</title><path d="M28 29.05h5c.55 0 1 .45 1 1s-.45 1-1 1h-5c-.55 0-1-.45-1-1s.45-1 1-1ZM42 16v16.01c0 2.21-1.79 4-4 4H10c-2.21 0-4-1.79-4-4V15.93A3.93 3.93 0 0 1 9.93 12H38c2.21 0 4 1.79 4 4Zm-2 0c0-1.1-.9-2-2-2H25v2c0 .55-.45 1-1 1s-1-.44-1-1v-2.01H9.93c-1.07 0-1.93.86-1.93 1.93V32c0 1.1.9 2 2 2h28c1.1 0 2-.9 2-2V15.99ZM28 26.05h7c.55 0 1-.45 1-1s-.45-1-1-1h-7c-.55 0-1 .45-1 1s.45 1 1 1Zm0-5h7c.55 0 1-.45 1-1s-.45-1-1-1h-7c-.55 0-1 .45-1 1s.45 1 1 1ZM12.04 21c0-2.21 1.79-4 4-4s4 1.79 4 4-1.79 4-4 4-4-1.79-4-4Zm2 0c0 1.1.9 2 2 2s2-.9 2-2-.9-2-2-2-2 .9-2 2Zm5 5h-6.06C11.31 26 10 27.27 10 28.83v1.18c0 .54.43.98.97.99H11c.55 0 1-.44 1-.99v-1.02c0-.55.44-.99.99-.99h6.05c.55 0 .99.44.99.99v1.03c0 .54.44.99.99.99h.03c.54 0 .99-.44.99-.99v-1.47c-.15-1.43-1.42-2.55-2.99-2.55Z"/></svg>
