<svg xmlns="http://www.w3.org/2000/svg" viewBox="0 0 48 48"><title>In en om uw huis</title><path d="M31.9 15.63a.996.996 0 0 0 0-1.41l-.35-.35a.996.996 0 1 1 1.41-1.41l.35.35a3 3 0 0 1 0 4.24.996.996 0 0 0 0 1.41l.35.35a.996.996 0 1 1-1.41 1.41l-.35-.35a3 3 0 0 1 0-4.24Zm3.76 11.9c.39.35.44.94.11 1.34a.984.984 0 0 1-1.47.06l-.3-.34V37c0 1.1-.9 2-2 2H20c-1.1 0-2-.9-2-2v-8.34l-.35.33a.994.994 0 0 1-1.42-.12l-.02-.02a.995.995 0 0 1 .15-1.42l5.99-4.72c0-.07-.02-.15 0-.22.42-2.46-.98-3.45-1.04-3.49l-.74-.5.42-.79c.69-1.31.6-3.01-.41-4.07-1.56-1.63-3.19-1.55-3.19-1.55-.48-.69-1.21-1.16-1.98-1.08-2 .2-2.28 2-2.28 2h-.43c-.53.02-1.06.14-1.52.41-1.53.92-2.07 3.01-1.2 4.67l.41.77-.72.49c-.27.19-.52.42-.72.68-1.14 1.46-.95 3.62.41 4.83l.43.38-.13.56c-.04.2-.07.4-.08.6-.1 1.87 1.22 3.49 2.95 3.59h1.52c1.08 0 1.96.88 1.97 1.96v6.03c.02.55-.44 1-.99 1-.56 0-1.01-.45-1.01-1l-.02-6h-1.66c-2.89-.18-5.08-2.78-4.92-5.79 0-.13.02-.25.03-.38-1.79-1.97-1.94-5.11-.26-7.27.17-.21.34-.41.54-.59-.86-2.47.07-5.32 2.3-6.66.63-.38 1.34-.61 2.08-.68.85-.98 2.03-1.53 3.3-1.53s2.46.55 3.31 1.54c1.31.13 2.53.78 3.39 1.81 1.29 1.53 1.64 3.69.96 5.56.53.58 1.21 1.61 1.34 3.17l.36-.29a2.01 2.01 0 0 1 2.45-.03l4.79 3.59v-1.46c0-.55.45-1 1-1s1 .45 1 1v3.08l1.66 1.44ZM32 27.2l-6.01-4.5L20 27.21v9.8h12V27.2ZM15 26c.55 0 1-.45 1-1v-3.08l2.42-2.44a.996.996 0 0 0 0-1.41.996.996 0 0 0-1.41 0l-1 1.01v-2.19c0-.55-.45-1-1-1s-1 .45-1 1v4.91l-1-1a.987.987 0 0 0-1.41 0 .996.996 0 0 0 0 1.41l2.42 2.44V25c0 .55.45 1 1 1Zm26 7c-.55 0-1 .45-1 1v1h-2v-1c0-.55-.45-1-1-1s-1 .45-1 1v4.01c0 .55.45 1 1 1s1-.45 1-1V37h2v1.01c0 .55.45 1 1 1s1-.45 1-1V34c0-.55-.45-1-1-1Zm-17-2v1c0 .55.45 1 1 1h2c.55 0 1-.45 1-1v-1c0-.55-.45-1-1-1h-2c-.55 0-1 .45-1 1Z"/></svg>

