<svg xmlns="http://www.w3.org/2000/svg" viewBox="0 0 48 48"><title>Informatie</title><path d="M25 30h2c.55 0 1 .45 1 1s-.45 1-1 1h-6c-.55 0-1-.45-1-1s.45-1 1-1h2v-8h-2c-.55 0-1-.45-1-1s.45-1 1-1h2.02c1.09 0 1.98.89 1.98 1.98V30Zm-1.51-13.01c.44 0 .8-.14 1.08-.42.28-.28.42-.64.42-1.07s-.14-.79-.42-1.07c-.28-.28-.64-.42-1.08-.42s-.8.14-1.08.42c-.28.28-.42.64-.42 1.07s.14.79.42 1.07c.28.28.64.42 1.08.42ZM40 24c0-8.82-7.18-16-16-16S8 15.18 8 24s7.18 16 16 16 16-7.18 16-16Zm-2 0c0 7.72-6.28 14-14 14s-14-6.28-14-14 6.28-14 14-14 14 6.28 14 14Z"/></svg>

