<svg xmlns="http://www.w3.org/2000/svg" viewBox="0 0 48 48"><title>Informatie en betalen</title><path d="m24.1 21.74-.19.31c-.3.47-.91.61-1.38.31a.994.994 0 0 1-.31-1.38l.2-.31c-.12-.12-.24-.22-.35-.35-.78-.96-1.13-2.14-.99-3.32.14-1.12.71-2.11 1.61-2.79.44-.33 1.07-.24 1.4.2.33.44.24 1.07-.2 1.4-.46.35-.75.86-.82 1.43-.07.59.1 1.18.46 1.68l1.37-2.17c.3-.47.91-.61 1.38-.31.47.3.61.91.31 1.38l-1.38 2.17c.65.12 1.33 0 1.87-.41.41-.31.69-.76.79-1.25.11-.54.64-.89 1.18-.78.54.11.89.64.78 1.18a4.056 4.056 0 0 1-1.55 2.44c-1.21.91-2.79 1.06-4.18.56Zm9.9 8.29c.3 0 .54-.09.72-.28.19-.19.28-.43.28-.72s-.09-.53-.28-.72c-.19-.19-.43-.28-.72-.28s-.54.09-.72.28c-.19.19-.28.43-.28.72s.09.53.28.72c.19.19.43.28.72.28Zm-12.54 2.48 3.11-5.1c.29-.48.14-1.11-.34-1.4-.48-.29-1.1-.14-1.4.34l-3.11 5.1c-.29.48-.14 1.11.34 1.4.48.29 1.1.14 1.4-.34Zm12.55-1.44c-.55 0-1 .45-1 1v3c0 .55.45 1 1 1s1-.45 1-1v-3c0-.55-.45-1-1-1Zm-.45-7.02c.15 0 .3-.02.45-.02 4.41 0 8 3.59 8 8s-3.59 8-8 8-8-3.59-8-8c0-3.26 1.96-6.06 4.76-7.31l5.02-7.95-4.67-2.94a.992.992 0 0 1-.31-1.38c.29-.47.91-.61 1.38-.31l4.66 2.94c.68.43 1 1.19.91 1.93h2.25V10H9v7h4.28l2.89-4.6c.29-.47.91-.61 1.38-.31.47.29.61.91.31 1.38l-3.37 5.35 2.1 1.33c.47.3.61.91.31 1.38-.3.47-.91.61-1.38.31l-2.1-1.33-5.44 8.63 14.31 9.01 1.3-2.07a1.005 1.005 0 0 1 1.7 1.07l-1.31 2.08c-.59.94-1.83 1.22-2.76.62L6.9 30.81a1.987 1.987 0 0 1-.62-2.76l5.73-9.06H8.99c-1.1 0-2-.9-2-2v-7c0-1.1.9-2 2-2h31c1.1 0 2 .9 2 2V17a2 2 0 0 1-2 2h-3.23l-3.22 5.05Zm.45 1.98c-3.31 0-6 2.69-6 6s2.69 6 6 6 6-2.69 6-6-2.69-6-6-6Z"/></svg>

