<svg xmlns="http://www.w3.org/2000/svg" viewBox="0 0 48 48"><title>Inkomen</title><path d="M32 30c0-1.1.9-2 2-2s2 .9 2 2-.9 2-2 2-2-.9-2-2ZM13 11c0-2.76 2.24-5 5-5s5 2.24 5 5-2.24 5-5 5-5-2.24-5-5Zm2 0c0 1.66 1.34 3 3 3s3-1.34 3-3-1.34-3-3-3-3 1.34-3 3Zm27 15v8c0 1.09-.91 2.01-2 2.01h-1V39c0 1.66-1.34 3-3 3H8c-1 0-2-1-2-2V19.99c0-.99 1.01-1.99 2-2h14A5 5 0 0 1 32 18h4c2 0 3 1.01 3 3.01v3h1c1.09 0 2 .91 2 2Zm-18-8.02h6c0-1.65-1.35-2.98-3-2.98s-2.99 1.34-3 2.98ZM37 36h-6.94c-1.14 0-2.06-.92-2.06-2.06v-7.89c0-1.13.91-2.04 2.04-2.04H37v-3c0-.55-.45-1-1-1H8V40h28c.55.01 1-.44 1-.99v-3Zm3-10H30v8h10v-8Zm-19.88-1c.79 0 1.55.32 2.2.93.4.38 1.04.36 1.41-.04.38-.4.36-1.04-.04-1.41-1.02-.96-2.26-1.47-3.57-1.47-2.31 0-4.3 1.64-5.23 4H14c-.55 0-1 .45-1 1s.45 1 1 1h.38c-.04.33-.07.66-.07 1s.03.67.07 1H14c-.55 0-1 .45-1 1s.45 1 1 1h.89c.93 2.36 2.93 4 5.23 4 1.31 0 2.54-.51 3.56-1.47a.996.996 0 1 0-1.37-1.45c-.65.61-1.41.93-2.2.93-1.24 0-2.33-.79-3.02-2h2.9c.55 0 1-.45 1-1s-.45-1-1-1h-3.6c-.05-.32-.08-.66-.08-1s.03-.68.08-1h3.6c.55 0 1-.45 1-1s-.45-1-1-1h-2.9c.69-1.21 1.78-2 3.02-2Z"/></svg>

