<svg xmlns="http://www.w3.org/2000/svg" viewBox="0 0 48 48"><title>Inloggen</title><path d="M29 33H19c-2.76 0-5 2.24-5 5v2c0 1.1.9 2 2 2h16c1.1 0 2-.9 2-2v-2c0-3-2-5-5-5Zm3 7H16v-2c0-1.66 1.34-3 3-3h10c1.66 0 3 1.34 3 3v2Zm0-17c0-4.42-3.58-8-8-8s-8 3.58-8 8 3.58 8 8 8 8-3.58 8-8Zm-8-6c1.43 0 2.74.5 3.77 1.34-.06.61-.24 1.08-.55 1.4-.87.91-2.84.87-4.74.83-1.46-.03-2.95-.04-4.12.38.84-2.3 3.04-3.96 5.63-3.96Zm-5.6 8.13c-.2-.92-.19-1.59.08-1.94.53-.69 2.36-.65 3.97-.62 2.23.04 4.74.09 6.22-1.45.26-.27.47-.57.64-.92.44.83.69 1.78.69 2.79 0 3.31-2.69 6-6 6-2.56 0-4.74-1.61-5.6-3.87ZM40 10H21.62l-1.45-2.89A2 2 0 0 0 18.38 6H8c-1.1 0-2 .9-2 2v24c0 1.1.9 2 2 2h5c.55 0 1-.45 1-1s-.45-1-1-1H8V12h32v20h-4c-.55 0-1 .45-1 1s.45 1 1 1h4c1.1 0 2-.9 2-2V12c0-1.1-.9-2-2-2ZM8 10V8h10.38l1 2H8Z"/></svg>