<svg xmlns="http://www.w3.org/2000/svg" viewBox="0 0 48 48"><title>Inspraak</title><path d="m41.41 24-3.51-3.57a2 2 0 0 0-2.85 0l-4.3 4.3a4.956 4.956 0 0 0-3.76-1.72l-12.58-.04c-2.24 0-2.42-2.29-2.42-2.99V7c0-.55-.45-1-1-1s-1 .45-1 1v3h-2c-1.1 0-2 .9-2 2v7.99c0 4.98 3.42 8.77 8 8.99V40a2 2 0 0 0 2 2h1c.55 0 1-.45 1-1s-.45-1-1-1h-1V29c0-1.1-.9-2-2-2-4 0-6-3.62-6-7.01V16h2v3.99c0 2.99 1.78 5.01 4.42 5.01l12.85.03c.8.07 1.55.44 2.07 1.1v.02l-7.86 7.88c-.13.13-.23.3-.27.49l-1.37 6.19c-.15.69.38 1.31 1.04 1.31.08 0 .15 0 .23-.03l6.22-1.35c.19-.04.36-.13.5-.27L41.4 26.81c.77-.77.77-2.03 0-2.8ZM10 14H8v-2h2v2Zm16.63 24.73-4.52.98.99-4.49.18-.18 3.52 3.52-.17.17Zm1.59-1.59-3.52-3.52 11.75-11.76 3.54 3.54-11.77 11.75ZM22 21.99c4.42 0 8-3.58 8-8s-3.58-8-8-8-8 3.58-8 8 3.58 8 8 8Zm0-14c1.43 0 2.74.5 3.77 1.34-.06.61-.24 1.08-.55 1.4-.87.91-2.84.87-4.74.83-1.46-.03-2.95-.04-4.12.38.84-2.3 3.04-3.95 5.63-3.95Zm-5.52 6.19c.53-.69 2.36-.65 3.97-.62 2.23.04 4.74.09 6.22-1.45.26-.27.47-.57.64-.92.44.83.69 1.78.69 2.79 0 3.31-2.69 6-6 6-2.56 0-4.74-1.61-5.6-3.87-.2-.92-.19-1.59.08-1.94Z"/></svg>

