<svg xmlns="http://www.w3.org/2000/svg" viewBox="0 0 48 48"><title>Isolatie</title><path d="M22.03 31a2 2 0 0 1 1-1.72v-8.29h2v8.29a2 2 0 0 1 1 1.72c0 1.1-.9 2-2 2s-2-.9-2-2Zm3.01-17.34c2.31.46 3.99 2.59 3.99 5.06v8.51a6.311 6.311 0 0 1-.98 8.78 6.305 6.305 0 0 1-4.03 1.43c-.43 0-.86-.04-1.29-.13-2.35-.47-4.25-2.29-4.84-4.62-.48-1.93-.07-3.89 1.14-5.45v-8.69c0-1.5.67-2.91 1.83-3.86s2.69-1.33 4.18-1.04Zm-1.02 1.9c-.7 0-1.35.23-1.9.68-.7.57-1.1 1.42-1.1 2.32v9.04c0 .24-.09.48-.25.66-.97 1.11-1.31 2.51-.95 3.94.39 1.57 1.72 2.83 3.29 3.15 1.33.27 2.63-.05 3.66-.89a4.328 4.328 0 0 0 1.59-3.36c0-1.05-.38-2.03-1.09-2.85-.16-.18-.25-.42-.25-.66v-8.87c0-1.52-1-2.83-2.38-3.1a3.36 3.36 0 0 0-.63-.06Zm17.77 6.24a1 1 0 0 1-1.41.13l-1.36-1.12v20.18c0 .55-.45 1-1 1H10.03c-.55 0-1-.45-1-1V20.78l-1.39 1.15c-.19.15-.41.23-.64.23a.99.99 0 0 1-.77-.36c-.35-.43-.29-1.06.13-1.41L23.38 6.34c.37-.31.9-.31 1.27 0l12.38 10.23V11c0-.55.45-1 1-1s1 .45 1 1v7.22l2.63 2.17c.43.35.49.98.13 1.41Zm-4.76-2.64L24.02 8.41 11.03 19.14V40h26V19.16Z"/></svg>
