<svg xmlns="http://www.w3.org/2000/svg" viewBox="0 0 48 48"><title>Jeugd</title><path d="M30.47 41c0 .55-.45 1-1 1s-1-.45-1-1 .45-1 1-1 1 .45 1 1Zm9.45-.99c-.55 0-1 .45-1 1s.45 1 1 1 1-.45 1-1-.45-1-1-1ZM7.99 9.45a3.461 3.461 0 0 1 6.92 0c0 .92-.36 1.79-1.01 2.44-.65.65-1.52 1.01-2.44 1.01C9.55 12.9 8 11.35 8 9.44Zm2 0c0 .8.65 1.46 1.46 1.46.39 0 .75-.15 1.03-.43.27-.27.43-.64.43-1.03 0-.8-.65-1.46-1.46-1.46s-1.46.65-1.46 1.46Zm26.12 9.35a3.435 3.435 0 0 1-1.01-2.44 3.461 3.461 0 0 1 6.92 0c0 1.91-1.55 3.46-3.46 3.46-.92 0-1.79-.36-2.44-1.01Zm.99-2.44c0 .39.15.75.43 1.03.28.27.64.43 1.03.43.8 0 1.46-.65 1.46-1.46s-.65-1.46-1.46-1.46-1.46.65-1.46 1.46Zm3.85 20.65H27.88c-.53 0-.97.45-.97 1s.43 1 .97 1h13.07c.53 0 .97-.45.97-1s-.43-1-.97-1ZM25.48 26.84c.17.1.35.16.53.16.33 0 .66-.16.85-.46L29.74 22h2.28l-3.43 4.93c-.61.84-.35 2.02.56 2.52l6.84 3.74V34c0 .55.45 1 1 1s1-.45 1-1v-1.35c0-.34-.17-.65-.45-.83l-7.21-3.97 4.08-5.79s0-.02.02-.04c.26.04.5.19.66.41l.71.87-2.23 3.07c-.35.46-.24 1.13.25 1.45.44.28 1.02.18 1.34-.24L36.99 25 38 26.57c.19.27.49.42.82.42h2.19c.55 0 1-.45 1-1s-.45-1-1-1h-1.67l-2.62-3.72c-.56-.8-1.48-1.28-2.46-1.28h-5.08c-.34 0-.66.18-.84.46l-3.17 5c-.3.47-.16 1.08.31 1.38Zm-4.5-.55s.47-1.18.47-1.31a.96.96 0 0 0-.96-.96c-.37 0-.69.22-.85.53s-.02.04-.02.04c0 .01 0 .02-.01.03l-.67 1.7c-.05.27 0 .54.16.76l2.44 3.53a.998.998 0 0 0 1.39.25c.45-.31.57-.94.25-1.39l-2.2-3.19Zm8.64 8.42 1.01-1.49s.01-.02.02-.03l.03-.04c.17-.31.17-.69-.04-.99a.946.946 0 0 0-1.31-.25c-.11.07-.81 1.11-.81 1.11L24.7 33c-.54 0-.99.43-1 .98 0 .21.06.4.17.56.18.26.47.43.81.43l4.23.03c.27 0 .52-.1.71-.29ZM7.97 27.06c-1.1 0-1.99.89-1.99 1.99s.89 1.99 1.99 1.99 1.99-.89 1.99-1.99-.89-1.99-1.99-1.99Zm13.4-7.04-3.41-5.01h2.29l2.88 4.54c.19.3.51.46.85.46.18 0 .37-.05.53-.16.47-.3.61-.91.31-1.38l-3.17-5a.985.985 0 0 0-.84-.46h-5.08c-.98 0-1.9.48-2.46 1.28l-2.62 3.72H6.98c-.55 0-1 .45-1 1s.45 1 1 1h4.19c.33 0 .63-.16.82-.42L13 18.02l1.91 2.6a.998.998 0 1 0 1.59-1.21l-2.3-3.1.71-.87c.16-.22.4-.37.66-.41 0 0 0 .02.01.03l4.06 5.87-7.21 3.97c-.28.19-.45.5-.45.83V30c0 .55.45 1 1 1s1-.45 1-1v-3.73l6.84-3.74c.91-.5 1.18-1.68.56-2.52Z"/></svg>

