<svg xmlns="http://www.w3.org/2000/svg" viewBox="0 0 48 48"><title>Kennis</title><path d="M34 23.5c0-.83.67-1.5 1.5-1.5s1.5.67 1.5 1.5-.67 1.5-1.5 1.5-1.5-.67-1.5-1.5ZM26.5 25c.83 0 1.5-.67 1.5-1.5s-.67-1.5-1.5-1.5-1.5.67-1.5 1.5.67 1.5 1.5 1.5Zm15.47-1H42v16a2 2 0 0 1-2 2h-9.52C24.7 42 20 37.51 20 31.99V24h.03c-.01-.17-.03-.33-.03-.5 0-1.81.64-3.47 1.71-4.76-.73-.65-1.28-1.5-1.54-2.46-.17-.64.3-1.27.96-1.27.47 0 .85.34.98.79.18.64.57 1.19 1.08 1.58a7.467 7.467 0 0 1 4.31-1.37h.5v-4.07l-20 .07v25h11c.55 0 1 .45 1 1s-.45 1-1 1H8c-1.1 0-2-.9-2-2V8.95C6.02 7.32 7.34 6 8.96 6H26c.55 0 1 .45 1 1s-.45 1-1 1H8.97c-.56 0-1 .44-1 1s.44 1 1 1H28a2 2 0 0 1 2 2v4h4.5c1.61 0 3.09.51 4.31 1.37.51-.39.9-.94 1.08-1.58.13-.45.5-.79.98-.79.66 0 1.14.63.96 1.27-.26.97-.81 1.82-1.54 2.46A7.47 7.47 0 0 1 42 23.49c0 .17-.01.33-.03.5Zm-15.65-5.87c1.98.38 3.67 1.61 4.68 3.28a6.996 6.996 0 0 1 4.68-3.28c-.38-.08-.77-.13-1.18-.13h-7c-.4 0-.8.05-1.18.13ZM22 23.4c-.06 3.08 2.68 5.6 5.76 5.6h6.47c3.08 0 5.82-2.52 5.76-5.6-.03-1.41-.59-2.7-1.49-3.66-.48.15-.98.26-1.51.26-2.47 0-4.52 1.8-4.93 4.15-.08.49-.49.85-.98.85h-.18c-.49 0-.9-.36-.98-.85-.41-2.35-2.46-4.15-4.93-4.15-.53 0-1.03-.1-1.51-.26a5.45 5.45 0 0 0-1.49 3.66ZM32.71 40A7.926 7.926 0 0 1 30 34.03V31h-2.5a7.49 7.49 0 0 1-5.5-2.42v3.41c0 4.42 3.81 8.01 8.48 8.01h2.23ZM40 28.58A7.49 7.49 0 0 1 34.5 31H32v3.03A5.98 5.98 0 0 0 37.97 40H40V28.58Z"/></svg>

