<svg xmlns="http://www.w3.org/2000/svg" viewBox="0 0 48 48"><title>Kerstbomen</title><path d="M30 40h.04H30Zm1-4v2.96c0 .57-.41 1.02-.98 1.03-.58-.01-1.04-.47-1.04-1.03V36H17.95v2.96c0 .57-.43 1.04-.95 1.04s-.95-.46-.95-1.04V36h-5.57a2 2 0 0 1-1.84-2.78l2.43-5.7h-.38c-.72.01-1.18-.81-.86-1.5l3.16-7.03h-.41c-.72 0-1.18-.83-.84-1.52l3.81-7.51c.62-1.23 2.38-1.24 3.01-.01l3.89 7.55c.33.69-.13 1.52-.84 1.52h-.41l.96 2.19c.23.52-.02 1.13-.55 1.34a.987.987 0 0 1-1.25-.52l-2.26-5h1.94L17 11.31 14.17 17h1.94l-3.86 8.44 1.85-.02-3.62 8.59h9.92l3.05-6.48h-.43c-.8.01-1.32-.81-.96-1.5L25.58 19h-.46c-.8 0-1.31-.83-.94-1.52l4.11-7.42c.76-1.36 2.71-1.38 3.49-.03l4.27 7.4c.42.69-.09 1.57-.91 1.57h-.59l3.27 7.09c.33.69-.19 1.49-.97 1.48h-.36l2.97 5.49c.72 1.33-.24 2.95-1.75 2.95l-6.69.02Zm6.24-2-4.18-8.57 2.11.02-3.97-8.46h1.85l-3.04-5.69-3.14 5.69h2.16l-4.29 8.44 2.06-.02L22.77 34h14.47Z"/></svg>

