<svg xmlns="http://www.w3.org/2000/svg" viewBox="0 0 48 48"><title>Kind en familie</title><path d="M19.49 19.5a4.511 4.511 0 0 0 9.02 0 4.511 4.511 0 0 0-9.02 0ZM24 16.99c1.38 0 2.51 1.13 2.51 2.51s-1.13 2.51-2.51 2.51-2.51-1.13-2.51-2.51 1.13-2.51 2.51-2.51ZM29.47 15a4.511 4.511 0 0 0 0-9.02 4.511 4.511 0 0 0 0 9.02Zm0-7.02c1.38 0 2.51 1.13 2.51 2.51S30.85 13 29.47 13s-2.51-1.13-2.51-2.51 1.13-2.51 2.51-2.51ZM30 28.06V33c0 1.1-.9 2-2 2v6c0 .55-.45 1-1 1s-1-.45-1-1v-8h2v-4.94c0-.59-.48-1.06-1.06-1.06h-5.91c-.57 0-1.02.46-1.02 1.02V33h2v8c0 .55-.45 1-1 1s-1-.45-1-1v-6c-1.1 0-2-.9-2-2v-4.98c0-1.67 1.35-3.02 3.02-3.02h5.91A3.06 3.06 0 0 1 30 28.06Zm7-8.07v9c0 1.1-.9 2-2 2h-1v10c0 .55-.45 1-1 1s-1-.45-1-1v-12h3v-9c0-1.1-.9-2-2-2h-2.52c-.55 0-1-.45-1-1s.45-1 1-1H33c2.21 0 4 1.79 4 4Zm-18.43-3c0 .55-.45 1-1 1h-2.61c-1.1 0-2 .9-2 2l.03 9h3v12c0 .55-.45 1-1 1s-1-.45-1-1v-10h-.97c-1.1 0-1.99-.89-2-1.99l-.03-9c0-2.21 1.8-4.01 4-4.01h2.57c.55 0 1 .45 1 1Zm-.06-2a4.511 4.511 0 0 0 0-9.02 4.511 4.511 0 0 0 0 9.02Zm0-7.02c1.38 0 2.51 1.13 2.51 2.51s-1.13 2.51-2.51 2.51S16 11.86 16 10.48s1.13-2.51 2.51-2.51Z"/></svg>

