<svg xmlns="http://www.w3.org/2000/svg" viewBox="0 0 48 48"><title>Klacht</title><path d="M17.92 24.04c0-.83.67-1.5 1.49-1.5s1.49.67 1.49 1.5-.67 1.5-1.49 1.5-1.49-.67-1.49-1.5Zm10.49-1.56c-.82 0-1.49.67-1.49 1.5s.67 1.5 1.49 1.5 1.49-.67 1.49-1.5-.67-1.5-1.49-1.5ZM42 24.03c0 9.94-8.09 18.03-18.03 18.03S5.95 33.97 5.95 24.03 14.04 6 23.98 6s18.03 8.09 18.03 18.03ZM23.98 8c-1.36 0-2.68.19-3.94.51.02.03.04.04.05.07 2.92 5.79 8.75 9.39 15.22 9.39 1.14 0 2.26-.11 3.37-.33C36.21 11.98 30.56 8 23.99 8ZM8.22 21.2a17.05 17.05 0 0 0 9.93-12.08c-5.11 2.01-8.94 6.55-9.93 12.08Zm31.79 2.83c0-1.56-.24-3.07-.65-4.5-1.32.29-2.68.44-4.05.44-6.4 0-12.24-3.15-15.76-8.37A19.069 19.069 0 0 1 7.99 23.44c0 .2-.03.39-.03.59 0 8.84 7.19 16.03 16.03 16.03s16.03-7.19 16.03-16.03Zm-20.37 9.31c2.54-1.72 6.03-1.75 8.61-.09.46.3 1.08.17 1.38-.3.3-.46.17-1.08-.3-1.38-1.58-1.02-3.42-1.56-5.31-1.56s-3.87.58-5.49 1.68c-.46.31-.58.93-.27 1.39.31.46.93.58 1.39.27Z"/></svg>

