<svg xmlns="http://www.w3.org/2000/svg" viewBox="0 0 48 48"><title>Koningsdag</title><path d="M11.15 36.04a1 1 0 0 1-.93-.63c-.92-2.33-2.2-5.64-3.4-8.56-1.14-2.78-.91-5.53.67-7.74 1.6-2.24 4.4-3.64 7.32-3.64 4.44 0 7.19.87 8.19 1.21v-3.7h-1.98c-.55.02-1-.42-1.01-.97s.44-1 .99-1h1.99V8.95c0-.55.45-.99 1-.99s1 .44 1 .99v2.06h1.97c.55-.02 1 .42 1 .97s-.44 1-.99 1h-1.98v3.7c1.43-.42 4.51-1.19 8.27-1.19 2.94 0 5.77 1.39 7.39 3.64 1.59 2.21 1.83 4.95.67 7.73-1.26 3.03-2.57 6.29-3.5 8.56-.15.37-.52.62-.92.62h-.17c-.71 0-1.19-.72-.93-1.37.84-2.06 2.12-5.21 3.49-8.52 1.14-2.76.38-4.74-.46-5.91-1.23-1.72-3.39-2.78-5.65-2.78-1.71 0-3.37.21-4.78.48 2.6 1.02 5.01 2.92 5.01 6.18s-2.1 8.45-3.54 11.38a1 1 0 0 1-.89.55h-.08a.996.996 0 0 1-.9-1.43c1.36-2.85 3.36-7.57 3.36-10.49 0-3.57-4.33-4.72-6.37-5.06v15.98c0 .55-.45 1-1 1s-1-.45-1-1V19.06c-2.04.34-6.43 1.49-6.43 5.06 0 2.92 2.01 7.65 3.37 10.5a.998.998 0 0 1-.9 1.43h-.09c-.38 0-.73-.21-.89-.55-1.44-2.93-3.54-8.08-3.54-11.38s2.42-5.16 5.01-6.18c-1.41-.27-3.08-.48-4.78-.48-2.25 0-4.42 1.07-5.65 2.78-.84 1.17-1.6 3.15-.46 5.91 1.37 3.31 2.65 6.46 3.49 8.52a.995.995 0 0 1-.93 1.37h-.04Zm27.85 3c0-.55-.45-1-1-1H10c-.55 0-1 .45-1 1s.45 1 1 1h28c.55 0 1-.45 1-1Z"/></svg>

