<svg xmlns="http://www.w3.org/2000/svg" viewBox="0 0 48 48"><title>Kopen en huren</title><path d="M15.01 36.01v-1c0-.55.45-1 1-1h2c.55 0 1 .45 1 1v1c0 .55-.45 1-1 1h-2c-.55 0-1-.45-1-1Zm24.04-13.65c.61.36.98 1.01.98 1.72v2.27c0 .8-.48 1.52-1.21 1.84l-2.42 1.04c-.6.26-1.28.21-1.84-.13L33 28.14c-.3-.18-.48-.5-.48-.85v-1.27l-1.33.53a.99.99 0 0 1-.9-.08l-2.45-1.51c-.3-.18-.48-.5-.48-.85v-1.36l-.03-.02-1.42.57a.99.99 0 0 1-.9-.08l-2.23-1.37c-1.3.76-2.76 1.16-4.28 1.16-.17 0-.33-.01-.5-.02v2.89l7.63 6.93c.4.36.45.97.11 1.39l.08-.06c-.37.44-1.12.55-1.54.16l-.31-.29v6c0 1.1-.9 2-2 2h-10a2 2 0 0 1-2-2v-5.99l-.23.22c-.42.39-1.13.33-1.5-.1l-.04-.05a.993.993 0 0 1 .1-1.39l7.7-6.85v-10.1a1.992 1.992 0 0 1 1.43-3.67c.73.15 1.33.73 1.51 1.45.23.94-.21 1.8-.94 2.23v5.25l.01.01c1.5.11 2.96-.29 4.18-1.14l.54-.37 2.88 1.77.27-.13c.61-.31 1.34-.28 1.92.07l.91.54c.6.36.97 1.01.97 1.72v.3l.87.53.88-.44c.27-.14.6-.12.86.03l1.96 1.18c.27.16.44.45.44.77v1l.9.55 2.42-1.04v-2.27L24.8 16.26l.11-.67c.06-.39.1-.74.1-1.07 0-4.01-3.65-7.18-7.8-6.37-2.56.5-4.6 2.57-5.08 5.13-.44 2.32.38 4.46 1.88 5.9.31.17.51.53.51.91 0 .55-.45 1-1 1-.17 0-.36-.02-.49-.09-.02.02 0 0-.01-.01-1.83-1.56-3-3.87-3-6.47 0-4.74 3.91-8.59 8.67-8.5 3.33.07 6.23 2.27 7.57 5.32.63 1.43.85 2.53.72 3.89l12.05 7.14Zm-22.04 5.33-5.02 4.43.02 7.89h10l.02-7.85-5.02-4.48Z"/></svg>

