<svg xmlns="http://www.w3.org/2000/svg" viewBox="0 0 48 48"><title>Kopen en verkopen</title><path d="M42 39c0 .55-.45 1-1 1H7c-.55 0-1-.45-1-1s.45-1 1-1h34c.55 0 1 .45 1 1Zm0-22.51V18c0 1.65-1.37 3-3.05 3H39v13.98c0 .55-.45 1-1 1s-1-.45-1-1V31H11v3.98c0 .55-.45 1-1 1s-1-.45-1-1V21h.04C7.37 21 6 19.65 6 18v-1.53c0-.28.06-.56.17-.81L9.5 9.18C9.82 8.46 10.54 8 11.32 8h25.31c.78 0 1.5.46 1.82 1.17l3.36 6.5c.12.26.17.54.17.82ZM25.03 19h6.7v-2.8L29.8 10h-4.77v9Zm-8.79 0h6.72v-9h-4.99l-1.71 6.08-.02 2.92Zm-2.06 0v-2.71L15.96 10h-4.79l-3.14 5.96-.04 2.12c0 .5.4.91.9.91h5.28ZM37 21H11v8h26v-8Zm2.98-4.91L36.67 10h-4.61l1.72 6.29V19h5.3c.49 0 .89-.4.89-.89v-2.02Z"/></svg>

