<svg xmlns="http://www.w3.org/2000/svg" viewBox="0 0 48 48"><title>Laad station</title><path d="M41.97 24c-.13-3.56-2.81-6.65-6.38-6.95-3.78-.32-7.01 2.39-7.53 5.96h-3.09v-1.32a2 2 0 0 0-1.3-1.87l-7.18-2.69c-.22-.08-.46-.13-.7-.13h-1.82c-1.1 0-2 .9-2 2v1h-5c-.55 0-1 .45-1 1s.45 1 1 1h5v4H6.92c-.55 0-1 .45-1 1s.45 1 1 1h5.05v1c0 1.1.9 2 2 2h1.82c.24 0 .48-.04.7-.13l7.18-2.69a2 2 0 0 0 1.3-1.87v-1.3h3.09c.49 3.38 3.4 5.99 6.92 5.99 1.86 0 3.64-.75 4.94-2.05.43-.43.35-1.16-.14-1.51-.4-.29-.94-.23-1.29.11a4.99 4.99 0 0 1-3.51 1.44c-2.41 0-4.42-1.72-4.89-3.99h10.88c.55 0 1-.46 1-1.01Zm-19 2.31L15.79 29h-1.82V19h1.82l7.18 2.69v4.61Zm7.12-3.3c.46-2.27 2.48-3.99 4.89-3.99s4.42 1.72 4.89 3.99h-9.78Z"/></svg>

