<svg xmlns="http://www.w3.org/2000/svg" viewBox="0 0 48 48"><title>Leerlingenvervoer</title><path d="M18 28.06V33c0 1.1-.9 2-2 2v6c0 .55-.45 1-1 1s-1-.45-1-1v-8h2v-4.94c0-.59-.48-1.06-1.06-1.06H9.03c-.57 0-1.02.46-1.02 1.02V33h2v8c0 .55-.45 1-1 1s-1-.45-1-1v-6c-1.1 0-2-.9-2-2v-4.98c0-1.67 1.35-3.02 3.02-3.02h5.91A3.06 3.06 0 0 1 18 28.06Zm-9.5-7.57c0-1.93 1.57-3.5 3.5-3.5s3.5 1.57 3.5 3.5-1.57 3.5-3.5 3.5-3.5-1.57-3.5-3.5Zm2 0c0 .83.67 1.5 1.5 1.5s1.5-.67 1.5-1.5-.67-1.5-1.5-1.5-1.5.67-1.5 1.5Zm16 3.51c-.83 0-1.5.66-1.5 1.47s.67 1.47 1.5 1.47 1.5-.66 1.5-1.47S27.33 24 26.5 24ZM42 9.39V32.9a2 2 0 0 1-2 2h-2.38a2 2 0 0 1-2-2v-1.89H28.4v1.9a2 2 0 0 1-2 2h-2.39a2 2 0 0 1-2-2V9.37c0-1.87 1.5-3.38 3.34-3.38h13.33c1.84.01 3.33 1.53 3.33 3.4ZM24 10h16v-.61C40 8.63 39.4 8 38.66 8H25.33v-.01c-.73 0-1.33.62-1.33 1.38V10Zm0 10h16v-8H24v8Zm2.39 11H24v1.9h2.39V31ZM40 32.9V31h-2.39v1.9H40Zm0-3.9v-7H24v7h16Zm-2.5-5c-.83 0-1.5.66-1.5 1.47s.67 1.47 1.5 1.47 1.5-.66 1.5-1.47S38.33 24 37.5 24Z"/></svg>

