<svg xmlns="http://www.w3.org/2000/svg" viewBox="0 0 48 48"><title>Liefdadigheid</title><path d="M29.85 27.93c.32.65.13 1.44-.37 1.97l-.24.26-1.51 1.59c-.39.41-1.05.41-1.45 0l-1.51-1.59-.24-.26c-.5-.53-.69-1.32-.37-1.97.53-1.07 1.8-1.22 2.54-.44l.3.32.3-.32c.73-.77 2.01-.62 2.54.44ZM16 14c0-4.42 3.58-8 8-8s8 3.58 8 8-3.58 8-8 8-8-3.58-8-8Zm2.37-2.05c1.17-.43 2.66-.41 4.12-.38 1.9.03 3.87.07 4.74-.83.31-.32.49-.79.55-1.4A5.938 5.938 0 0 0 24.01 8c-2.59 0-4.79 1.65-5.63 3.95Zm.03 4.18A5.995 5.995 0 0 0 24 20c3.31 0 6-2.69 6-6 0-1.01-.25-1.95-.69-2.79-.17.34-.38.65-.64.92-1.48 1.54-3.99 1.49-6.22 1.45-1.61-.03-3.44-.07-3.97.62-.27.35-.29 1.02-.08 1.94Zm17.62 12.88v7.97c-.02 1.1-.9 1.99-2 2L32 39v1c0 1.1-.9 2-2 2H18a2 2 0 0 1-2-2v-1l-2.02-.02c-1.1-.01-1.98-.9-1.98-2v-7.97c-.01-3.37 2.63-6.01 6.01-6.01h12c3.38 0 6.02 2.64 6.02 6.01Zm-2.02.03c0-2.24-1.76-4-4-4H17.99c-2.24 0-4 1.76-4 4V37l2 .02V30c0-.55.45-1 1-1s1 .45 1 1v10h12v-8c0-.55.45-1 1-1s1 .45 1 1v5.02l1.99-.02v-7.96Z"/></svg>

