<svg xmlns="http://www.w3.org/2000/svg" viewBox="0 0 48 48"><title>Locatie</title><path d="M21.99 17c0-1.1.9-2 2.01-2s2.01.9 2.01 2-.9 2-2.01 2-2.01-.9-2.01-2Zm18.93 9.74-4.38 11A2 2 0 0 1 34.68 39H8.98c-1.42 0-2.39-1.44-1.86-2.75l4.42-10.99a2 2 0 0 1 1.86-1.25h4.66c-.81-1.63-1.51-3.33-1.83-4.91-.04-.15-.07-.34-.1-.53 0 0-.12-1-.12-1.35 0-4.52 3.59-8.21 8-8.21s8 3.68 8 8.21c0 .35-.1 1.28-.1 1.28-.04.27-.08.46-.13.65-.32 1.57-1 3.25-1.81 4.87 0 0-1.05 1.94-1.08 2-1.74 3.01-3.6 5.38-3.73 5.55-.58.74-1.7.74-2.28 0-.13-.17-1.98-2.54-3.73-5.55h-5.74l-4.43 11h25.7l4.38-11H33c-.55 0-1-.45-1-1s.45-1 1-1h6.06a2 2 0 0 1 1.86 2.74Zm-22.84-8.68.03.19c.02.12.05.26.07.36v.04l.02.04c.33 1.63 1.15 3.51 2.12 5.31v.02c1.2 2.23 2.64 4.34 3.69 5.74 1.9-2.52 5.07-7.4 5.81-11.02v-.03l.01-.03.1-.5.02-.11c.04-.32.06-.59.06-.85 0-3.42-2.69-6.21-6-6.21s-6 2.78-6 6.21c0 .26.02.53.06.86Z"/></svg>

