<svg xmlns="http://www.w3.org/2000/svg" viewBox="0 0 48 48"><title>Manege</title><path d="m36.26 22.63-4.17-8.52a.855.855 0 0 0-.15-.22l-1.65-1.86c-.16-.18-.25-.42-.25-.66v-4.3c0-.58-.49-.98-1.08-1-1.96-.06-4.05.48-5.47 1.86-.66.64-1.11 1.43-1.32 2.35l-.08.35-.36.04c-2.08.21-10.18 1.6-15.51 7.99-.15.18-.23.41-.23.64 0 .9 1.12 1.29 1.7.6 5.9-7.02 14.91-7.3 15.31-7.3h1.02v-1.06c0-.91.27-1.59.85-2.16.72-.71 1.8-1.04 2.58-1.19l.59-.12v3.99c.01.22.09.44.23.62l1.74 2.2-.82.15c-3.04.55-5.44 1.83-7.34 3.93l-.48.53-.33-.64c-.35-.68-.64-1.27-.9-1.93-.19-.46-.69-.72-1.16-.58h-.02c-.57.16-.9.77-.67 1.31 2.4 5.82 7.39 10.74 9.88 13.21l1.36 1.35-1.47-.19c-5.44-.71-8.55-3.88-9.63-5.53a.998.998 0 0 0-.84-.46h-.6c-.55 0-1 .45-1 1v13.98c0 .55.48 1 1.03 1s.97-.45.97-1l-.03-11.67.88.78c1.69 1.56 6.38 3.8 10.78 3.93h.23l2.94 3.57c.16.2.39.33.65.36.31.04.63.06.94.06 3.53 0 6.61-2.33 7.55-5.63.08-.27.02-.55-.12-.79l-5.49-8.89s-.03-.06-.05-.09Zm-5.9 7.56c-.21-.21-.47-.45-.77-.73-1.78-1.67-4.75-4.46-6.92-7.82l-.19-.29.2-.28c2.2-3.03 5.47-3.98 7.83-4.24l.34-.04 3.53 6.59s.03.05.04.07l1.34 2.07c.29.44.18 1.03-.24 1.35l-4.87 3.61-.3-.29Zm9.41 2.28c-.89 2.12-3.05 3.54-5.4 3.54h-.3l-2.18-2.63a.995.995 0 0 1 .17-1.44l4.38-3.25c.47-.35 1.15-.22 1.45.28l1.98 3.26-.1.23Zm-9.21-10.46c0 .83-.67 1.5-1.5 1.5s-1.5-.67-1.5-1.5.67-1.5 1.5-1.5 1.5.67 1.5 1.5Z"/></svg>

