<svg xmlns="http://www.w3.org/2000/svg" viewBox="0 0 48 48"><title>Marktgelden</title><path d="M41.83 19.52c.31.46.19 1.08-.27 1.39A6.328 6.328 0 0 1 38 22.02c-1.81 0-3.6-.8-4.96-2.35a8.133 8.133 0 0 1-1.53-2.66h-1.52c-.55 0-1-.45-1-1s.45-1 1-1h1.07a9.55 9.55 0 0 1 0-2h-1.08c-.55 0-1-.45-1-1s.45-1 1-1h1.52c.32-.92.8-1.79 1.43-2.54 2.26-2.69 5.8-3.24 8.61-1.35.46.31.58.93.27 1.39-.31.46-.93.58-1.39.27-1.93-1.3-4.38-.9-5.96.98-.32.38-.57.81-.79 1.26h4.31c.55 0 1 .45 1 1s-.45 1-1 1h-4.93c-.09.66-.09 1.34 0 2h4.92c.55 0 1 .45 1 1s-.45 1-1 1h-4.3c.23.48.5.94.86 1.34 1.6 1.83 3.96 2.19 5.89.89a.999.999 0 0 1 1.39.27ZM37 40H7c-.55 0-1 .45-1 1s.45 1 1 1h30c.55 0 1-.45 1-1s-.45-1-1-1ZM6 18v-1.54c0-.31.07-.62.21-.9L9.47 9.1C9.81 8.43 10.5 8 11.26 8H28c.55 0 1 .45 1 1s-.45 1-1 1h-1v9h2c.55 0 1 .45 1 1s-.45 1-1 1H11v10h22v-7c0-.55.45-1 1-1s1 .45 1 1v13c0 .55-.45 1-1 1s-1-.45-1-1v-4H11v4c0 .55-.45 1-1 1s-1-.45-1-1V21h.04C7.37 21 6 19.65 6 18Zm15 1h4v-9h-4v9Zm-7 0h5v-9h-3l-1.93 5.93c-.03.1-.05.2-.05.3L14 18.99Zm-6-1.04c0 .57.45 1.04 1.02 1.04H12v-2.56c0-.1.01-.19.04-.29L13.89 10h-2.85l-2.91 5.76c-.07.13-.1.28-.11.43l-.03 1.77Z"/></svg>

