<svg xmlns="http://www.w3.org/2000/svg" viewBox="0 0 48 48"><title>Meeuwenoverlast</title><path fill-rule="evenodd" d="M5.98 14.05c0 4.41 3.59 8 8 8s8-3.59 8-8-3.59-8-8-8-8 3.59-8 8Zm2 0c0-3.31 2.69-6 6-6s6 2.69 6 6-2.69 6-6 6-6-2.69-6-6Zm5.99.96c.55 0 1-.45 1-1v-3c0-.55-.45-1-1-1s-1 .45-1 1v3c0 .55.45 1 1 1Zm-.72 1.32c.19-.19.43-.28.72-.28s.54.09.72.28.28.43.28.72-.09.53-.28.72c-.19.19-.43.28-.72.28s-.54-.09-.72-.28c-.19-.19-.28-.43-.28-.72s.09-.53.28-.72Zm21.21 1.64a1.016 1.016 0 1 1-1.01-1.02c.57 0 1.01.45 1.01 1.02Zm3.3 3.98c.58 1.09 1.23 2.8 1.23 5.09 0 5.43-5.67 8.88-10.97 8.9v4.01h.92c.55 0 1 .45 1 1s-.45 1-1 1H22c-.55 0-1-.45-1-1v-5.01h-6.94l-6.88 1.2a.996.996 0 0 1-1.17-.99v-2.7c0-.36.19-.68.5-.86l4.4-2.57c-.77-.08-1.27-.14-1.36-.15l-.8-.09c-.77-.09-1.15-.99-.68-1.61l.94-.5c.34-.24 8.03-5.28 17.6-5.81-.15-.55-.23-1.2-.23-1.96 0-2.5 1.9-6.02 6.13-6.02 2.9 0 4.3 1.37 4.85 2.62h.84c2.86 0 3.86 2.7 3.7 4.54a.98.98 0 0 1-.98.9h-3.18Zm-25.09 6.26c2.96.31 7.4.75 9.33.75 4.98 0 8.19-1 8.19-2.54 0-.53-.19-.71-1.03-1.28-.47-.32-1.04-.71-1.54-1.3-6.28.12-11.89 2.68-14.95 4.38ZM23 39.96h3.02v-4.01H23v4.01Zm13.99-12.92c0-3.75-1.66-5.18-1.73-5.24l-.54-.45 1.29-1.39h3.96c-.04-.28.02-1.56-1.78-1.56l-2.4.07-.02-.36c0-.72-.54-2.21-3.24-2.21-3.12 0-4.13 2.71-4.13 4.02 0 2.28.88 2.88 1.9 3.57.85.58 1.9 1.29 1.9 2.93 0 2.07-1.77 4.54-10.19 4.54-1.69 0-5.07-.3-7.89-.59l.05.08-6.15 3.59v.64l5.91-.73h14.03c4.36 0 9.04-2.83 9.04-6.91Z"/></svg>

