<svg xmlns="http://www.w3.org/2000/svg" viewBox="0 0 48 48"><title>Melding openbare ruimte</title><path d="M35.98 26.97c0 1.1-.9 2-2.01 2s-2.01-.9-2.01-2 .9-2 2.01-2 2.01.9 2.01 2Zm6.02.2c0 .35-.03.71-.08 1.13l-.02.15c-.04.27-.08.46-.12.64-.97 4.75-5.31 10.93-6.17 12.07a1.998 1.998 0 0 1-3.19 0c-.57-.76-4.5-6.67-6.18-12.11-.04-.15-.07-.35-.1-.53l-.03-.22a8.25 8.25 0 0 1 3.93-8.23v-9.59c0-1.38-1.11-2.49-2.49-2.49H12.53c-1.38 0-2.49 1.11-2.49 2.49V25.5c0 1.38 1.11 2.49 2.49 2.49h2.51v5.02l4-5.02h4c.55 0 1 .45 1 1s-.45 1-1 1h-3.01l-4.36 5.04c-.91 1.05-2.64.41-2.63-.98v-4.08l-1.08-.03c-2.37 0-3.91-2.16-3.91-4.47V10.49c0-2.49 2.01-4.5 4.5-4.5h15c2.49 0 4.5 2.01 4.5 4.5v8.74c.64-.17 1.3-.27 1.99-.27 4.41 0 8 3.68 8 8.21Zm-2 0c0-3.42-2.69-6.21-6-6.21s-6 2.78-6 6.21c0 .26.02.53.06.86l.03.19c.02.12.05.26.07.36v.04l.02.04c.99 3.78 4.77 9.91 5.82 11.31 1.9-2.52 5.07-7.64 5.81-11.26v-.03l.01-.03.1-.5.02-.11c.04-.32.06-.59.06-.85Zm-20.71-4.9c-.19.19-.28.43-.28.72s.09.53.28.72c.19.19.43.28.72.28s.54-.09.72-.28c.19-.19.28-.43.28-.72s-.09-.53-.28-.72-.43-.28-.72-.28-.54.09-.72.28Zm1.72-9.28c0-.55-.45-1-1-1s-1 .45-1 1v6c0 .55.45 1 1 1s1-.45 1-1v-6Z"/></svg>

