<svg xmlns="http://www.w3.org/2000/svg" viewBox="0 0 48 48"><title>Melding omgevallen boom</title><path d="M32.97 14v-3c0-.55.45-1 1-1s1 .45 1 1v3c0 .55-.45 1-1 1s-1-.45-1-1ZM42 40.5v.5c0 .55-.45 1-1 1h-4.19c-.55 0-1-.45-1-1s.45-1 1-1H40l-.83-1.5c-.5-.9-1.39-1.99-3.35-2.39a.99.99 0 0 1-.79-1.01l.04-1.06 1.1.14.1.02c.12-1.25-.29-2.53-1.07-3.34-1.17-1.21-3.04-1.49-4.48-.67l-.23.13-.24-.13c-.08-.04-.81-.43-1.2-.6-.93-.41-1.68-.59-2.43-.59-.78 0-1.57.2-2.55.64l.49 1.51c.19.57-.18 1.16-.77 1.29-1.92.44-3.28 1.75-3.28 3.53V36l-.67.24c-.9.48-2.53 1.75-2.8 4.85a1 1 0 0 1-.99.91h-.34c-.59 0-1.06-.52-1-1.1.34-3.63 2.33-5.6 3.93-6.44.07-.53.22-1.07.41-1.62l-6.97-5.93c-.52-.45-.45-1.28.14-1.62l.97-.57-.33-1.36c-.1-.39.05-.8.37-1.04l1.08-.8c.4-.3.96-.26 1.31.1l6.78 6.82c.4-.26.81-.5 1.25-.69 1.15-.5 2.19-.75 3.22-.75s2.07.25 3.23.75c.19.08.46.22.71.34a5.64 5.64 0 0 1 2.02-.37c1.5 0 2.99.59 4.09 1.73 1.36 1.39 1.92 3.51 1.56 5.48 2.7 1.38 3.53 3.98 3.53 5.58Zm-20.09-9.71-.94-.95-5.93-5.96.09.36.35 1.45-1.04.61 5.9 5.02.33.28c.38-.31.79-.58 1.24-.8ZM33.97 18c.55 0 1-.45 1-1s-.45-1-1-1-1 .45-1 1 .45 1 1 1ZM30 40h-1.44l.58-.59c.37-.38.38-.99.01-1.38l-.08-.08c-.38-.4-1.01-.42-1.42-.04l-2.22 2.1h-3.44c-.55 0-1 .45-1 1s.45 1 1 1h8c.55 0 1-.45 1-1s-.45-1-1-1Zm-4.03-20V8c0-1.1.9-2 2-2H40c.53 0 1.04.21 1.42.59.38.38.59.89.58 1.42l-.03 12.01c0 1.1-.9 1.99-2 2h-2v3.4c0 .89-1.07 1.33-1.7.71l-4.13-4.12h-4.17c-1.1 0-2-.9-2-2Zm2 0h5l3 3v-2.98h4L40 8H27.97v12ZM13.38 33.26l-1.25.59-.13-2.84-.52-.52a1 1 0 0 0-1.6.26l-.38.76-.74-.49a1 1 0 0 0-1.34.21l-1.43 1.78v8.02c0 .54.44.98.98.98h.04c.54 0 .98-.44.98-.98v-7.31l.41-.52 1.73 1.16.34 6.73a.98.98 0 0 0 1.96-.1l-.25-5.51 1.81-.85c.37-.18.54-.62.36-1a.753.753 0 0 0-1-.36Z"/></svg>

