<svg xmlns="http://www.w3.org/2000/svg" viewBox="0 0 48 48"><title>Melding</title><path d="M16 30c4.42 0 8-3.58 8-8s-3.58-8-8-8-8 3.58-8 8 3.58 8 8 8Zm0-14c1.43 0 2.74.5 3.77 1.34-.06.61-.24 1.08-.55 1.4-.87.91-2.84.87-4.74.83-1.46-.03-2.95-.04-4.12.38.84-2.3 3.04-3.95 5.63-3.95Zm-5.52 6.19c.53-.69 2.36-.65 3.97-.62 2.23.04 4.74.09 6.22-1.45.26-.27.47-.57.64-.92.44.83.69 1.78.69 2.79 0 3.31-2.69 6-6 6-2.56 0-4.74-1.61-5.6-3.87-.2-.92-.19-1.59.08-1.94ZM39 6H29c-1.66 0-3 1.34-3 3v10c0 1.65 1.34 3 3 3v3c0 .89 1.07 1.34 1.7.71L34.41 22H39c1.66 0 3-1.34 3-3V9c0-1.66-1.34-3-3-3Zm1 13c0 .55-.45 1-1 1h-5.41L31 22.59v-2.58h-2c-.55 0-1-.45-1-1v-10c0-.55.45-1 1-1h10c.55 0 1 .45 1 1v10Zm-5-2c0 .55-.45 1-1 1s-1-.45-1-1 .45-1 1-1 1 .45 1 1ZM21 32H11c-2.76 0-5 2.24-5 5v3c0 1.1.9 2 2 2h16c1.1 0 2-.9 2-2v-3c0-3-2-5-5-5Zm-10 2h10c1.66 0 3 1.34 3 3v3H8v-3c0-1.66 1.34-3 3-3Zm24-23v3c0 .55-.45 1-1 1s-1-.45-1-1v-3c0-.55.45-1 1-1s1 .45 1 1Z"/></svg>

