<svg xmlns="http://www.w3.org/2000/svg" viewBox="0 0 48 48"><title>Melding straatverlichting</title><path d="M41 40H23V10c0-1.83 1.54-1.99 2.01-2h2v1c0 1.66 1.34 3 3 3h2c1.65 0 3-1.35 3-3V8c0-1.1-.9-2-2-2h-8c-.95 0-2.16.39-3 1.29-.84-.9-2.05-1.29-3-1.29h-8c-1.1 0-2 .9-2 2v1.01C9.01 10.66 10.35 12 12 12h2.01c1.66 0 3-1.34 3-3V8H19c.47 0 2.01.17 2.01 2v30H7c-.55 0-1 .45-1 1s.45 1 1 1h34c.55 0 1-.45 1-1s-.45-1-1-1ZM29.08 8h4v1c0 .55-.45 1-1 1h-2c-.55 0-1-.45-1-1V8ZM14.94 9c0 .55-.45 1-1 1h-2c-.55 0-1-.45-1-1V8h4v1Zm26.51 8.18c-.38-.38-.88-.59-1.42-.59H28c-1.1 0-2 .9-2 2v12c0 1.1.9 2 2 2h4.17l4.13 4.12c.63.63 1.7.18 1.7-.71v-3.39h2c1.1-.01 2-.91 2-2.01l.03-12.01c0-.53-.21-1.04-.58-1.42ZM40 30.6h-4v2.99l-3-3h-5v-12h12.03L40 30.6ZM6.68 15.38a.966.966 0 0 1 0-1.37l.96-.96c.35-.35.9-.37 1.3-.06 0 0 .01 0 .02.01.45.35.47 1.02.07 1.43l-.96.96c-.38.38-.99.38-1.37 0h-.01ZM33 27.59c0-.55.45-1 1-1s1 .45 1 1-.45 1-1 1-1-.45-1-1Zm0-3v-3c0-.55.45-1 1-1s1 .45 1 1v3c0 .55-.45 1-1 1s-1-.45-1-1Zm-20.07-6.61a.97.97 0 0 1-.97-.97v-2.02c0-.53.43-.97.97-.97s.95.42.96.95c.01.87.03 2.04.03 2.04 0 .53-.43.97-.97.97h-.02Zm4.88-2.58-1.01-1.01c-.4-.4-.38-1.07.06-1.42 0 0 .01 0 .02-.01.39-.31.95-.3 1.3.05l1.01 1.01c.38.38.38.99 0 1.37h-.01c-.38.39-.99.39-1.37.01Z"/></svg>

