<svg xmlns="http://www.w3.org/2000/svg" viewBox="0 0 48 48"><title>Milieuzone</title><path d="M35 11v3c0 .55-.45 1-1 1s-1-.45-1-1v-3c0-.55.45-1 1-1s1 .45 1 1Zm-1 4.76c-.3 0-.54.09-.72.28-.19.19-.28.43-.28.72s.09.53.28.72c.19.19.43.28.72.28s.54-.09.72-.28c.19-.19.28-.43.28-.72s-.09-.53-.28-.72a.972.972 0 0 0-.72-.28Zm8-4.66v5.8c0 .27-.11.52-.29.71l-4.1 4.1a.99.99 0 0 1-.71.29h-5.8c-.27 0-.52-.11-.71-.29l-4.1-4.1a.99.99 0 0 1-.29-.71v-5.8c0-.27.11-.52.29-.71l4.1-4.1A.99.99 0 0 1 31.1 6h5.8c.27 0 .52.11.71.29l4.1 4.1c.19.19.29.44.29.71Zm-2 .41L36.49 8h-4.97l-3.51 3.51v4.97l3.51 3.51h4.97L40 16.48v-4.97ZM28 27.62v7.53c0 1.02-.83 1.85-1.85 1.85h-1.2c.02.17.05.33.05.5 0 2.49-2.01 4.5-4.5 4.5S16 39.99 16 37.5c0-.17.03-.33.05-.5H7c-.55 0-1-.45-1-1s.45-1 1-1h8.96l.04-.04V16.04s-.02-.04-.04-.04H7c-.55 0-1-.45-1-1s.45-1 1-1h9.14c1.02 0 1.85.83 1.85 1.85v4.11s.02.04.04.04h5.64c.8 0 1.52.47 1.84 1.21.65 1.53 1.75 4.1 2.24 5.23.16.37.25.77.25 1.18Zm-10.04-.66s.02.04.04.04h7.82l-2.14-5h-5.65s-.04.02-.04.04l-.04 4.92Zm1.47 8.26c-.54.23-.99.67-1.21 1.21-.92 2.18 1.17 4.26 3.34 3.34.54-.23.99-.67 1.21-1.21.92-2.18-1.17-4.26-3.34-3.34Zm6.56-6.18s-.02-.04-.04-.04h-7.96s-.04.02-.04.04v4.67s.04.05.07.03a4.46 4.46 0 0 1 2.47-.74c1.55 0 2.92.79 3.73 1.98 0 .01.02.02.03.02h1.7s.04-.02.04-.04v-5.92Z"/></svg>