<svg xmlns="http://www.w3.org/2000/svg" viewBox="0 0 48 48"><title>Mobiliteit</title><path d="M41.99 14.99c0-.7-.37-1.32-.92-1.67l-1.13-5.8A1.992 1.992 0 0 0 38 6.01H27c-.92 0-1.72.62-1.94 1.51l-1.14 5.78c-.55.34-.92.95-.92 1.65V21c0 .55.45 1 1 1s1-.45 1-1v-2h15v2c0 .55.45 1 1 1s1-.45 1-1v-6.01ZM27 8h11l1 5H26l1-5Zm0 9h-2v-2h2v2Zm9 0h-7v-2h7v2Zm4 0h-2v-2h2v2ZM29.32 34.46a4.986 4.986 0 0 0-4.87-2.42l-1.85-5.73c-.13-.38-.38-.71-.72-.95-.33-.23-.73-.36-1.14-.36h-.75c-.55 0-1 .45-1 1s.45 1 1 1h.72l.66 2h-7.79l-.18-1h.32c.53 0 .94-.49.94-1.01 0-.54-.45-.98-1-.98h-2.7c-.54 0-.98.43-.98.96s.45 1.03.99 1.03h.37l.4 1.92L10 36.74c-.12.49.11 1.03.59 1.21.12.04.24.07.36.07.45 0 .86-.3.97-.75l.71-2.76c.83.54 1.35 1.47 1.35 2.51 0 .03-.02.08-.02.11v.04c-.08 1.58-1.38 2.85-2.98 2.85s-3-1.35-3-3c0-.93.42-1.79 1.15-2.36.44-.34.51-.97.17-1.4a.992.992 0 0 0-1.4-.17 4.965 4.965 0 0 0-1.92 3.94c0 2.76 2.24 5 5 5s5-2.24 5-5c0-.1-.02-.2-.02-.29l6.2-5.23 1.88 5.83c.13.42.53.69.95.69.15 0 .3-.03.44-.1.45-.21.65-.74.5-1.21l-.87-2.69c1.01.02 1.97.56 2.51 1.47.84 1.42.37 3.27-1.05 4.11-1.42.84-3.27.37-4.11-1.05-.47-.8-.55-1.76-.21-2.62a1.004 1.004 0 0 0-1.87-.73c-.56 1.44-.44 3.04.35 4.37.93 1.58 2.6 2.45 4.31 2.45.87 0 1.74-.22 2.54-.7a5.001 5.001 0 0 0 1.75-6.85Zm-13.93.16a5.03 5.03 0 0 0-2.24-2.11l.39-1.53 6.14.02-4.3 3.62Z"/></svg>

