<svg xmlns="http://www.w3.org/2000/svg" viewBox="0 0 48 48"><title>Monitor sociaal</title><path d="M40 20.01v9a2 2 0 0 1-2 2h-1v10c0 .55-.45 1-1 1s-1-.45-1-1v-12h3v-9c0-1.1-.89-2-1.99-2h-2.48c-.55 0-1-.46-1-1.01s.45-1 1-1h2.48c2.21 0 4 1.8 4 4.01ZM27 15a4.511 4.511 0 0 1 0 9.02V24h-.18c-2.4-.1-4.33-2.07-4.33-4.49S24.51 15 27 15Zm-2.51 4.51c0 1.38 1.13 2.51 2.51 2.51s2.51-1.13 2.51-2.51S28.38 17 27 17s-2.51 1.13-2.51 2.51Zm3.47-9.01a4.511 4.511 0 0 1 9.02 0 4.511 4.511 0 0 1-9.02 0Zm2 0c0 1.38 1.13 2.51 2.51 2.51s2.51-1.13 2.51-2.51-1.13-2.51-2.51-2.51-2.51 1.13-2.51 2.51Zm-.03 14.51H25c-.55 0-1 .44-1 .99s.45 1 1 1h4.94c.59 0 1.06.48 1.06 1.07v4.94h-2V41c0 .55.45 1 1 1h-.04.04c.55 0 1-.45 1-1v-6h.03c1.09-.02 1.97-.9 1.97-1.99v-4.94a3.06 3.06 0 0 0-3.06-3.06ZM19 35h-.02c-.55 0-.99.44-.99.99v1.02c0 .55.44.99.99.99H19c.55 0 .99-.44.99-.99v-1.02c0-.55-.44-.99-.99-.99Zm-4.02-4c-.55 0-.99.45-.99.99V37c.01.55.46.99 1 .99.55 0 .99-.45.99-.99v-5.01a1.01 1.01 0 0 0-1.01-.99Zm2.01-20.5a4.511 4.511 0 0 1 9.02 0 4.511 4.511 0 0 1-9.02 0Zm2 0c0 1.38 1.13 2.51 2.51 2.51s2.51-1.13 2.51-2.51-1.13-2.51-2.51-2.51-2.51 1.13-2.51 2.51Zm4.99 20.01v7.98a3.493 3.493 0 0 1-3.5 3.51H9.52c-1.94 0-3.51-1.57-3.51-3.51v-7.98A3.493 3.493 0 0 1 9.51 27h10.96c1.94 0 3.51 1.57 3.51 3.51Zm-1.97 7.99v-7.99C22 29.68 21.32 29 20.48 29H9.49c-.84 0-1.51.67-1.51 1.51v7.99c.01.83.69 1.51 1.53 1.51H20.5c.84 0 1.51-.67 1.51-1.51ZM11 34.01h-.02c-.55 0-.99.44-.99.99v2.02c0 .55.44.99.99.99H11c.55 0 .99-.44.99-.99V35c0-.55-.44-.99-.99-.99Zm3.98-9c.55 0 1-.45.99-1l-.02-3.99c0-1.1.9-2 2-2h2.62c.55 0 1-.45 1-1s-.45-1-1-1h-2.58c-2.21 0-4 1.79-4 4v4c0 .55.44.99.99.99Z"/></svg>

