<svg xmlns="http://www.w3.org/2000/svg" viewBox="0 0 48 48"><title>Monitor virus</title><path d="M18 16.01v-1.02c0-.55.44-.99.99-.99h.02c.55 0 .99.44.99.99v1.02c0 .55-.44.99-.99.99h-.02c-.55 0-.99-.44-.99-.99Zm-7.01.99h.02c.55 0 .99-.44.99-.99v-2.02c0-.55-.44-.99-.99-.99h-.02c-.55 0-.99.44-.99.99v2.02c0 .55.44.99.99.99ZM15 17c.55 0 .99-.45.99-.99V11a1.01 1.01 0 0 0-1.01-.99c-.55 0-.99.45-.99.99v5.01c.01.55.46.99 1 .99Zm26.88 6.05A4.003 4.003 0 0 1 37.99 28c-1.86 0-3.41-1.28-3.86-3h-2.21a7.941 7.941 0 0 1-1.62 3.9l1.67 1.67c.8-.47 1.77-.7 2.82-.48 1.64.34 2.95 1.72 3.16 3.38a4.009 4.009 0 0 1-4.51 4.5c-1.66-.22-3.04-1.53-3.38-3.17-.22-1.05 0-2.02.48-2.82l-1.67-1.67a8.035 8.035 0 0 1-3.9 1.62v2.8c1.45.52 2.5 1.89 2.5 3.52 0 2.36-2.18 4.21-4.63 3.65a3.718 3.718 0 0 1-2.77-2.79c-.49-2.18.93-4.14 2.9-4.54v-2.64c-1.46-.18-2.8-.76-3.9-1.61l-3.4 3.4c.29.61.4 1.33.18 2.1-.32 1.1-1.27 1.97-2.4 2.15a3 3 0 0 1-3.44-3.45c.18-1.13 1.05-2.08 2.15-2.4.77-.22 1.48-.11 2.09.19l3.4-3.4a7.941 7.941 0 0 1-1.62-3.9h-2.2A4.001 4.001 0 0 1 9 27.9a3.973 3.973 0 0 1-2.9-2.85c-.47-1.87.37-3.58 1.79-4.44a3.491 3.491 0 0 1-1.91-3.1V9.53a3.493 3.493 0 0 1 3.5-3.51h11c.18 0 .36.03.54.05.1.02.2.04.29.06.03 0 .06.02.1.03a3.541 3.541 0 0 1 2.21 1.88h-.01c.21.45.34.94.34 1.47 0 0-.02 8.49-.04 8.49-.25 1.7-1.7 3.01-3.46 3.01h-1.68c-.51.88-.82 1.9-.82 3 0 3.73 3.43 6.68 7.3 5.87 2.28-.48 4.12-2.34 4.58-4.63.59-2.91-.95-5.55-3.34-6.67-.34-.16-.53-.51-.53-.88 0-.74.77-1.22 1.44-.9.52.25 1.01.55 1.46.9l2.53-2.53c-.43-.79-.59-1.74-.24-2.78.41-1.21 1.48-2.13 2.74-2.33a3.507 3.507 0 0 1 4.02 4.02c-.2 1.26-1.12 2.33-2.33 2.74-1.04.36-1.99.19-2.78-.24l-2.53 2.53a7.928 7.928 0 0 1 1.61 3.9h2.21a3.993 3.993 0 0 1 4.81-2.89c1.44.33 2.61 1.5 2.94 2.94Zm-8.89-9.55c0 .83.67 1.5 1.5 1.5s1.5-.67 1.5-1.5-.67-1.5-1.5-1.5-1.5.67-1.5 1.5Zm-19 21.5c0-.55-.45-1-1-1s-1 .45-1 1 .45 1 1 1 1-.45 1-1Zm-2-11c0-1.1-.9-2-2-2s-2 .9-2 2 .9 2 2 2 2-.9 2-2Zm4.59-3h-3.97c.59.52 1.04 1.21 1.24 2h2.2c.09-.7.27-1.37.53-2Zm3.91-2c.79 0 1.43-.6 1.5-1.36v-1.38H22v-2.81h-.01V9.5c0-.83-.68-1.51-1.51-1.51H9.49c-.84 0-1.51.67-1.51 1.51v7.99c.01.83.69 1.51 1.53 1.51H20.5Zm3.25 17.5c-.96 0-1.75.79-1.75 1.75S22.78 40 23.74 40s1.75-.79 1.75-1.75-.79-1.75-1.75-1.75Zm8.25-2.5c0 1.1.9 2 2 2s2-.9 2-2-.9-2-2-2-2 .9-2 2Zm8-10c0-1.1-.9-2-2-2s-2 .9-2 2 .9 2 2 2 2-.9 2-2ZM27.28 12.71a3.833 3.833 0 0 0 0-5.41.996.996 0 1 0-1.41 1.41c.71.71.71 1.87 0 2.59a.996.996 0 0 0 .71 1.7c.26 0 .51-.1.71-.29Z"/></svg>

