<svg xmlns="http://www.w3.org/2000/svg" viewBox="0 0 48 48"><title>Monitor woningmarkt</title><path d="M15.99 10.99v5.02c.01.55-.43.99-.98.99s-.99-.44-.99-.99v-5.02c-.01-.55.43-.99.98-.99s.99.44.99.99ZM11.01 13h-.02c-.55 0-.99.44-.99.99v2.02c0 .55.44.99.99.99h.02c.55 0 .99-.44.99-.99v-2.02c0-.55-.44-.99-.99-.99Zm8 1h-.02c-.55 0-.99.44-.99.99v1.02c0 .55.44.99.99.99h.02c.55 0 .99-.44.99-.99v-1.02c0-.55-.44-.99-.99-.99Zm22.75 20.07-.04.05c-.37.43-1.08.49-1.5.1l-.24-.22v5.99c.01 1.11-.88 2-1.99 2h-10c-1.1 0-2-.9-2-2v-6l-.31.29c-.42.4-1.17.29-1.54-.16l.08.06c-.34-.41-.3-1.03.1-1.39l7.63-6.93v-2.89c-.17.01-.33.02-.5.02-1.51 0-2.98-.4-4.28-1.16l-2.23 1.37c-.27.17-.6.19-.9.08l-1.42-.57-.03.02v1.36c0 .35-.18.67-.48.85l-2.45 1.51c-.27.17-.6.19-.9.08L17.43 26v1.27c0 .35-.18.67-.48.85l-1.56.96c-.55.34-1.24.39-1.84.13l-2.42-1.04a1.998 1.998 0 0 1-1.21-1.84v-2.27c0-.71.37-1.36.98-1.72l2.29-1.36H9.48c-1.94 0-3.51-1.57-3.51-3.51V9.49a3.493 3.493 0 0 1 3.5-3.51h10.96c1.94 0 3.51 1.57 3.51 3.51v7.98a3.493 3.493 0 0 1-3.5 3.51h-3.33l-5.19 3.08v2.27l2.42 1.04.9-.55v-1c0-.32.17-.61.44-.77l1.96-1.18c.26-.16.59-.17.86-.03l.88.44.87-.53v-.3c0-.7.37-1.35.97-1.72l.91-.54c.59-.35 1.31-.38 1.92-.07l.26.13 2.88-1.77.54.37a6.49 6.49 0 0 0 4.19 1.14l.01-.01v-5.25a1.993 1.993 0 0 1 .57-3.68c1.29-.27 2.43.71 2.43 1.95 0 .74-.4 1.38-1 1.72v10.1l7.7 6.85c.41.36.45.98.1 1.39ZM17.39 19h3.1c.84 0 1.51-.67 1.51-1.51V9.5c-.01-.83-.69-1.51-1.53-1.51H9.48c-.84 0-1.51.67-1.51 1.51v7.99c.01.83.69 1.51 1.53 1.51h7.88ZM38 32.11l-5.02-4.43-5.02 4.48.02 7.85h10l.02-7.89ZM27.53 9.34a6.494 6.494 0 0 1 10.32 3.92c.44 2.32-.38 4.46-1.88 5.9-.31.17-.51.53-.51.91 0 .55.45 1 1 1 .17 0 .36-.02.49-.09.02.02 0 0 .01-.01 1.83-1.56 3-3.87 3-6.47 0-4.74-3.91-8.59-8.67-8.5-1.85.04-3.57.75-4.96 1.89-.21.18-.33.45-.33.72 0 .79.9 1.2 1.53.72Zm3.46 25.67v1c0 .55.45 1 1 1h2c.55 0 1-.45 1-1v-1c0-.55-.45-1-1-1h-2c-.55 0-1 .45-1 1Z"/></svg>

