<svg xmlns="http://www.w3.org/2000/svg" viewBox="0 0 48 48"><title>Monitor agrofood</title><path d="M14.01 16.01V11c-.01-.55.43-.99.98-.99s.99.44.99.99v5.01c.01.55-.43.99-.98.99s-.99-.44-.99-.99Zm4.98.99h.02c.55 0 .99-.44.99-.99v-1.02c0-.55-.44-.99-.99-.99h-.02c-.55 0-.99.44-.99.99v1.02c0 .55.44.99.99.99Zm-8 0h.02c.55 0 .99-.44.99-.99v-2.02c0-.55-.44-.99-.99-.99h-.02c-.55 0-.99.44-.99.99v2.02c0 .55.44.99.99.99ZM41.8 35.32c0 3.74-3.63 6.68-8.27 6.68-2.81 0-5.25-1.08-6.73-2.77-1.05 1.38-2.28 2.76-3.85 2.76h-.1c-.18 0-.34-.03-.5-.05-1.3-.1-1.97-.76-3.35-.94v.1c-.29-.07-.63-.11-1-.13-.37.02-.71.06-1 .13V41c-1.38.18-2.06.84-3.35.94-.16.02-.32.05-.5.05h-.1c-1.74 0-3.07-1.7-4.19-3.22-2.33-3.16-4.12-8.93-1.72-12.82C8 24.49 9.9 23 12.99 23c0 0 2.58 0 5.02.02 2.44 0 5.01-.02 5.02-.02 3.09 0 4.98 1.49 5.85 2.95.62 1.01.96 2.15 1.08 3.34 1.08-.41 2.29-.66 3.59-.66s2.55.24 3.65.67c.07-.11.15-.2.25-.28v-.04s.33-.32.46-.46l-1-1.86.3-.53c.27-.46.47-.96.61-1.48l.16-.59 2-.62c0-.13.01-.26.01-.38s0-.25-.01-.38l-2.04-.61-.16-.6a6.09 6.09 0 0 0-.61-1.47l-.31-.53.99-1.85c-.17-.18-.37-.37-.56-.55l-1.82.98-.52-.3c-.46-.26-.95-.47-1.46-.61l-.59-.16-.61-2.01h-.82l-.61 2.01-.58.16c-.51.14-1 .34-1.46.6l-.52.3-.52-.31s-1.17-.49-1.79-.86h.02c-.32-.17-.55-.5-.55-.88 0-.36.21-.67.5-.84v-.05c.13-.07.29-.1.45-.1.02 0 .03-.01.05-.01.2 0 .37.07.52.17.42.19.93.43 1.36.68.26-.13.53-.42.81-.52l.52-1.52a1 1 0 0 1 .95-.68h2.56a1 1 0 0 1 .95.68l.52 1.52c.27.1.54.21.8.33l1.44-.71c.39-.19.85-.11 1.16.19l1.76 1.79c.3.3.37.76.19 1.14l-.71 1.45c.13.27.24.54.34.83l1.51.51a1 1 0 0 1 .68.95v2.52c0 .43-.27.8-.67.94l-1.48.52c-.1.28-.21.56-.34.83l.72 1.46c.18.37.12.81-.15 1.11-.26.29-.59.65-.86.95-.01.03-.03.05-.04.08 1.76 1.22 2.86 3.02 2.86 5.08Zm-16.15 2.06c-.25-.65-.39-1.34-.39-2.06 0-.63.11-1.23.3-1.81.33-.48.61-1.01.82-1.59.41-.57.94-1.08 1.54-1.53 0-1.26-.24-2.48-.87-3.52-.35-.59-1.44-1.96-4.04-1.96h-4.02v.02h-2l-3.66-.02h-.36c-2.6 0-3.69 1.37-4.04 1.96-2.01 3.26-.26 8.29 1.62 10.83.48.65 1.76 2.39 2.49 2.39.1 0 .18-.02.26-.03h.08l.08-.02c.32-.03.58-.12 1.05-.31.72-.29 1.72-.69 3.21-.69.1 0 .18 0 .28.01.09 0 .18-.01.28-.01 1.49 0 2.48.4 3.21.69.47.19.73.29 1.05.31h.08l.08.02c.08.01.16.03.26.03.73 0 2.01-1.74 2.49-2.39.07-.1.14-.21.21-.32Zm14.15-2.06c0-2.62-2.75-4.68-6.27-4.68s-6.27 2.05-6.27 4.68S30.01 40 33.53 40s6.27-2.05 6.27-4.68ZM6.01 17.49V9.51A3.493 3.493 0 0 1 9.51 6h10.96c1.94 0 3.51 1.57 3.51 3.51v7.98a3.493 3.493 0 0 1-3.5 3.51H9.52c-1.94 0-3.51-1.57-3.51-3.51ZM7.98 9.5v7.99c.01.83.69 1.51 1.53 1.51H20.5c.84 0 1.51-.67 1.51-1.51V9.5c-.01-.83-.69-1.51-1.53-1.51H9.49c-.84 0-1.51.67-1.51 1.51Zm26.05 13.53c0-1.1-.9-2-2-2s-2 .9-2 2 .9 2 2 2 2-.9 2-2Z"/></svg>

