<svg xmlns="http://www.w3.org/2000/svg" viewBox="0 0 48 48"><title>Monitor duurzaamheid</title><path d="M14.01 16.01V11c-.01-.55.43-.99.98-.99s.99.44.99.99v5.01c.01.55-.43.99-.98.99s-.99-.44-.99-.99ZM26 18V9c0-.26-.04-.5-.08-.75 1.47-.29 3.03-.34 4.63-.1 5.37.79 9.82 4.88 11.07 10.16 1.41 5.95-1.28 11.62-5.92 14.57-.51.32-1.18.14-1.45-.39a.993.993 0 0 1 .34-1.28c3.25-2.05 5.4-5.67 5.4-9.72C39.99 15.15 34.83 10 28.5 10c-.56 0-.61.07-.61.07-1.01.71-1.36 2.7-.91 3.87.1.25.4.44.66.44l1.45-.03c1.11-.02 2.21-.16 3.31-.28.11-.01.23-.02.33-.02.59 0 1.08.2 1.49.71.23.29.43.61.67.89.86.98 1.26 2.27.85 3.51-.7 2.09-1 2.45-2.97 2.46-1.5 0-2.48 1.4-2.1 3.06.21.94.08 1.77-.51 2.51-.23.29-.62.81-.93 1.22-.26.35-.72.48-1.13.34l-.65-.23c-.35-.33-.72-.65-1.08-.96-.63-.55-1.05-1.25-.94-2.15.18-1.51-.12-2.87-.66-4.16.76-.88 1.23-2 1.23-3.25Zm.16 1.49c.76 1.48 1.57 3.6 1.27 6.15 0 .05-.02.16.27.41l.08.07c.14.12.27.24.41.35.13-.17.26-.34.4-.5.16-.2.26-.37.15-.86-.32-1.45-.02-2.89.83-3.95.78-.98 1.95-1.54 3.22-1.54.35 0 .56-.02.68-.03.07-.15.19-.44.38-1 .31-.92.18-1.04-.06-1.25-.39-.34-.66-.72-.87-1.03-.06-.09-.12-.17-.19-.26h-.07c-1.69.18-3.35.26-4.9.32h-.11c.13 1.16-.56 2.35-1.47 3.11ZM19 17h.02c.55 0 .99-.44.99-.99v-1.02c0-.55-.44-.99-.99-.99H19c-.55 0-.99.44-.99.99v1.02c0 .55.44.99.99.99Zm22.96 19.64c.19 1.01-.52 2.04-1.53 2.27l-12.65 2.91c-.84.19-1.73.17-2.57-.05l-11-2.77h-.2c0 1.1-.9 2-2 2h-4c-1.1 0-2-.9-2-2V29c0-1.1.9-2 2-2h4.05c.73 0 1.35.41 1.68 1h.27v-.02l2.48-.37c-.73-1.44-1.2-3-1.38-4.61h2.01c.2 1.52.7 2.97 1.47 4.29l1.22-.18c.4-.08.81-.05 1.19.07L29.42 30c2.59.98 2.59 3.98 2.59 3.98h5.84c2.07 0 3.8 1.01 4.11 2.67ZM12.01 29h-4v10h4V29Zm27.91 8.27c-.08-.72-1.36-1.27-2.14-1.27l-10.85-.02c-.78 0-1.55-.11-2.31-.33l-2.17-.63a.997.997 0 0 1-.67-1.27v-.02c.17-.51.72-.8 1.23-.65l2.32.67c.51.14 4.67.22 4.67.22 0-.7-.64-1.81-1.41-2.07l-8-2.82c-.16-.06-1.33-.07-1.49-.04l-5.09.95v7l12.69 2.99 13.22-2.72ZM6.01 17.49V9.51A3.493 3.493 0 0 1 9.51 6h10.96c1.72 0 3.15 1.24 3.45 2.87.03 0 .05-.02.08-.03v8.64c0 .42-.09.81-.22 1.18.04-.09-.07.19 0 .03A3.506 3.506 0 0 1 20.49 21H9.53c-1.94 0-3.51-1.57-3.51-3.51ZM7.98 9.5v7.99c.01.83.69 1.51 1.53 1.51H20.5c.84 0 1.51-.67 1.51-1.51V9.5c-.01-.83-.69-1.51-1.53-1.51H9.49c-.84 0-1.51.67-1.51 1.51Zm3.01 7.49h.02c.55 0 .99-.44.99-.99v-2.02c0-.55-.44-.99-.99-.99h-.02c-.55 0-.99.44-.99.99V16c0 .55.44.99.99.99Z"/></svg>

