<svg xmlns="http://www.w3.org/2000/svg" viewBox="0 0 48 48"><title>Monument Woning</title><path d="M20.03 19c-1.65 0-3-1.35-3-3s1.35-3 3-3 3 1.35 3 3-1.35 3-3 3Zm0-4c-.55 0-1 .45-1 1s.45 1 1 1 1-.45 1-1-.45-1-1-1Zm21 25h-10v-4c0-.55-.45-1-1-1s-1 .45-1 1v4h-18V17.61c2.31-1.32 3.9-3.8 4.21-6.61h2.46v-1c0-1.47 1.21-2 2.33-2s2.33.53 2.33 2v1h2.28c.33 2.73 2.03 5.26 4.39 6.61V19c0 .55.45 1 1 1s1-.45 1-1v-2.64l-.58-.27c-2.05-.96-3.55-3.05-3.82-5.34-.12-1-.97-1.75-1.98-1.75h-.41c-.43-1.81-2.05-3-4.22-3s-3.79 1.19-4.22 3h-.58c-1.02 0-1.87.76-1.98 1.77-.26 2.32-1.69 4.41-3.65 5.32l-.58.27V40h-2c-.55 0-1 .45-1 1s.45 1 1 1h34c.55 0 1-.45 1-1s-.45-1-1-1Zm-26-16c0-.55-.45-1-1-1s-1 .45-1 1v3c0 .55.45 1 1 1s1-.45 1-1v-3Zm-1 8c-.55 0-1 .45-1 1v3c0 .55.45 1 1 1s1-.45 1-1v-3c0-.55-.45-1-1-1Zm7-8c0-.55-.45-1-1-1s-1 .45-1 1v3c0 .55.45 1 1 1s1-.45 1-1v-3Zm-1 8c-.55 0-1 .45-1 1v3c0 .55.45 1 1 1s1-.45 1-1v-3c0-.55-.45-1-1-1Zm7-8c0-.55-.45-1-1-1s-1 .45-1 1v3c0 .55.45 1 1 1s1-.45 1-1v-3Zm-1 8c-.55 0-1 .45-1 1v3c0 .55.45 1 1 1s1-.45 1-1v-3c0-.55-.45-1-1-1Zm14.02-11h-8c-1.1 0-2.02.9-2.02 2v7.94c0 .54.21 1.05.6 1.42l4.01 3.95c.39.38.9.58 1.4.58s1.02-.19 1.41-.58l3.99-3.95c.38-.37.59-.88.59-1.42l.02-7.84V23a2 2 0 0 0-2-2Zm-4.01 13.89-4.01-3.95V23h8.02l-.02 7.94-3.99 3.95Z"/></svg>