<svg xmlns="http://www.w3.org/2000/svg" viewBox="0 0 48 48"><title>Museum</title><path d="M24 6c-6.63 0-12 5.37-12 12 0 9.29 8.56 20.32 11.22 23.64.4.5 1.16.5 1.56 0C27.44 38.33 36 27.3 36 18c0-6.63-5.37-12-12-12Zm0 33.39C20.87 35.33 14 25.86 14 18c0-5.51 4.49-10 10-10s10 4.49 10 10c0 7.86-6.87 17.32-10 21.39ZM30.28 25c0 .55-.45 1-1 1H19c-.55 0-1-.45-1-1s.45-1 1-1h10.28c.55 0 1 .45 1 1Zm.61-8.55a1.007 1.007 0 0 1-1.35.44l-5.55-2.78-5.55 2.78c-.49.24-1.09.05-1.34-.45s-.05-1.09.45-1.34l6-3c.28-.14.61-.14.89 0l6 3c.49.25.69.85.45 1.34ZM20 22c-.55 0-1-.45-1-1v-3c0-.55.45-1 1-1s1 .45 1 1v3c0 .55-.45 1-1 1Zm4 0c-.55 0-1-.45-1-1v-3c0-.55.45-1 1-1s1 .45 1 1v3c0 .55-.45 1-1 1Zm4 0c-.55 0-1-.45-1-1v-3c0-.55.45-1 1-1s1 .45 1 1v3c0 .55-.45 1-1 1Z"/></svg>