<svg xmlns="http://www.w3.org/2000/svg" viewBox="0 0 48 48"><title>Natuur landschap</title><path d="M23.97 31.5c-2.57.37-5.21 1.99-6.99 4.04v-5.73c.71.41 1.51.65 2.34.65.98 0 1.92-.31 2.72-.88 1-.73 1.66-1.8 1.85-3.02.16-1-.01-2-.48-2.88 2.03-1 3.08-3.37 2.36-5.58a4.62 4.62 0 0 0-5.19-3.13C20.26 12.73 18.33 11 16 11s-4.26 1.73-4.58 3.97c-.26-.04-.52-.07-.79-.07a4.62 4.62 0 0 0-4.4 3.2c-.38 1.18-.28 2.43.28 3.53.46.9 1.19 1.61 2.08 2.05a4.623 4.623 0 0 0 4.1 6.78c.83 0 1.63-.24 2.33-.65v5.73c-1.77-2.06-4.41-3.68-6.98-4.04-.58-.08-1.09.45-1.02 1.07.51 4.92 4.25 8.86 8.83 9.42v.02H16.09c4.62-.52 8.42-4.48 8.93-9.44.06-.62-.44-1.15-1.02-1.07Zm-14.9 2.22c2.58.85 5.12 3.05 5.96 5.32v1.02c-2.82-1.1-5.17-3.33-5.96-6.34ZM16 26.3c-.39 0-.75.23-.91.59-.08.18-.17.34-.28.48-.82 1.13-2.54 1.41-3.67.58a2.634 2.634 0 0 1-.21-4.08c.29-.26.41-.68.28-1.05s-.46-.65-.85-.69c-.19-.02-.37-.06-.54-.11a2.61 2.61 0 0 1-1.53-1.31c-.32-.63-.38-1.34-.16-2.01.44-1.35 1.94-2.14 3.31-1.69.17.06.34.13.51.23.34.2.77.18 1.09-.06.32-.23.47-.63.39-1.02-.04-.19-.06-.37-.06-.55 0-1.45 1.18-2.63 2.63-2.63s2.63 1.18 2.63 2.63c0 .18-.02.37-.06.55-.08.39.07.79.39 1.02.32.23.75.25 1.09.06.16-.09.33-.17.51-.23 1.37-.45 2.88.34 3.32 1.69.45 1.38-.31 2.87-1.69 3.31-.17.06-.36.09-.54.11-.39.04-.73.31-.85.68-.12.38-.01.79.28 1.05.14.13.27.27.38.41.41.57.58 1.26.47 1.96s-.48 1.3-1.05 1.72c-1.14.83-2.85.54-3.67-.58-.11-.15-.2-.31-.28-.48a.998.998 0 0 0-.91-.59Zm.97 13.76v-1.02c.85-2.27 3.38-4.47 5.96-5.32-.79 3.02-3.14 5.25-5.96 6.34ZM16 22.99c-1.1 0-2-.9-2-2s.9-2 2-2 2 .9 2 2-.9 2-2 2Zm10.91 3.89c9.32.55 13.4 3.83 13.47 3.89.18.15.4.22.62.22.29 0 .58-.13.78-.38.34-.43.27-1.06-.16-1.41-.12-.1-1.86-1.44-5.56-2.59v-2.77.06h4.36c.75 0 1.23-.79.89-1.46l-1.73-3.49c.72 0 1.2-.74.92-1.4l-1.44-2.32c.8 0 1.27-.89.83-1.55l-3.92-7.11c-.18-.4-.55-.6-.92-.59-.37 0-.74.2-.92.59l-3.92 7.11c-.44.66.04 1.55.83 1.55l-1.44 2.32c-.29.66.2 1.4.92 1.4l-1.73 3.49c-.34.67.14 1.46.89 1.46h4.36v2.17c-1.49-.36-4.64-.88-7.04-1.09a.946.946 0 0 0-1.03.95c0 .51.4.92.91.95Zm4.44-4.98 2.23-4.33h-1.49l1.98-4.33h-.99l1.98-3.79 1.98 3.79h-.99l1.98 4.33h-1.49l2.23 4.33h-7.44Zm10.02 20.01a.99.99 0 0 1-1.29-.57c-.16-.41-3.68-9.03-13.91-10.95a.995.995 0 0 1-.81-1.17v-.03c.11-.52.62-.88 1.14-.78 11.4 2.16 15.39 12.1 15.44 12.21.2.51-.06 1.09-.57 1.29Z"/></svg>

