<svg xmlns="http://www.w3.org/2000/svg" viewBox="0 0 48 48"><title>Nieuwsbrief</title><path d="M32 16.96c0 .55-.45 1-1 1H17c-.55 0-1-.45-1-1s.45-1 1-1h14c.55 0 1 .45 1 1Zm-2 5c0-.55-.45-1-1-1H17c-.55 0-1 .45-1 1s.45 1 1 1h12c.55 0 1-.45 1-1Zm10.87-3.59L38 16.07v-4.08c0-1.1-.9-2-2-2h-5.6l-3.9-3.12a3.99 3.99 0 0 0-5 0l-3.9 3.12H12c-1.1 0-2 .9-2 2v4.08l-2.87 2.3-.38.3c-.47.38-.75.95-.75 1.56v18.73c0 1.66 1.34 3 3 3h30c1.66 0 3-1.34 3-3V20.23c0-.61-.28-1.18-.75-1.56l-.38-.3Zm-.89 20.65-10.73-9.68 10.74-7.44v17.06s-.01.04-.01.06Zm-.5-19.2-1.49 1.03v-2.22l1.49 1.19ZM22.74 8.43c.35-.28.8-.44 1.25-.44s.9.16 1.25.44l1.95 1.56h-6.4l1.95-1.56Zm-10.75 3.56h24v10l-8.37 6-1.69-1.25c-.57-.44-1.26-.66-1.96-.66s-1.33.2-1.89.61l-.71.53h-.01l-.33.25-.67.5-8.38-6.01v-9.97Zm6.74 17.35L7.99 38.02V21.9l10.74 7.44Zm-8.74-8.49L8.5 19.82l1.49-1.19v2.22ZM8.81 39.92l13.46-10.87 1.01-.76c.24-.18.51-.22.7-.22.27 0 .53.09.74.25l1.72 1.27.7.52 10.9 9.84H9c-.06 0-.12-.02-.18-.04Z"/></svg>

