<svg xmlns="http://www.w3.org/2000/svg" viewBox="0 0 48 48"><title>Omgevingsvisie document</title><path d="M22.02 18c0 1.1-.9 2-2 2s-2-.9-2-2 .9-2 2-2 2 .9 2 2Zm4.79 1.69c-.78 3.72-3.95 8.25-5.35 10.12-.15.2-.41.52-.66.85-.4.5-1.17.5-1.57 0-.26-.32-.52-.65-.67-.85-1.41-1.87-4.57-6.41-5.36-10.14-.03-.13-.07-.3-.09-.46l-.03-.19c-.07-.48-.09-.87-.06-1.28.17-3.05 1.97-5.73 5.27-6.48 4.61-1.05 8.72 2.37 8.72 6.79 0 .3-.02.61-.07.97l-.03.18c-.03.16-.06.33-.1.49Zm-1.8-1.64c0-2.76-2.24-5-5-5-.07 0 .04-.04-.03-.04-5 0-5.12 4.25-4.92 5.74l.02.13c.02.12.04.24.07.36.67 3.22 3.47 7.3 4.85 9.17 1.38-1.87 4.18-5.95 4.85-9.15.03-.14.06-.26.08-.38l.02-.12c.03-.23.06-.46.06-.7ZM41.8 35.61c-.2.26-.5.4-.8.4-.21 0-.42-.07-.6-.2l-1.41-1.05v5.23a2 2 0 0 1-2 2h-8c-1.1 0-2-.9-2-2v-5.21l-1.39 1.05c-.44.33-1.07.24-1.4-.2-.33-.44-.24-1.07.2-1.4l7.59-5.69V8h-24v23h7a2 2 0 0 1 2 2v7H24c.55 0 1 .45 1 1s-.45 1-1 1h-8.18c-.53 0-1.04-.21-1.42-.59l-7.83-7.83c-.38-.38-.59-.88-.59-1.41V7.97C5.98 6.88 6.86 6 7.95 6H32c1.09 0 1.97.88 1.97 1.97v20.52l3.02 2.26v-.77c.01-.55.46-.99 1-.99.55 0 1 .45 1 1v2.26l2.58 1.94c.44.33.53.96.2 1.4Zm-32.94-2.6 6.13 6.13v-6.13H8.86Zm28.13.25-3.99-3-4.01 3v6.72h8v-6.72Z"/></svg>

