<svg xmlns="http://www.w3.org/2000/svg" viewBox="0 0 48 48"><title>Omgevingsvisie</title><path d="M26 23v1c0 .55-.45 1-1 1h-2c-.55 0-1-.45-1-1v-1c0-.55.45-1 1-1h2c.55 0 1 .45 1 1Zm9.21 2.22c3.27.81 6.77 2.26 6.77 4.77 0 3.94-9.05 6-18 6s-18-2.06-18-6c0-3.41 6.45-4.87 10.02-5.42v-4.02l-.35.33a.994.994 0 0 1-1.42-.12l-.02-.02a.996.996 0 0 1 .15-1.42l8.41-6.92a2.01 2.01 0 0 1 2.44-.03l4.8 3.87v-1.46c0-.55.45-1 1-1s1 .45 1 1v3.08l1.66 1.44c.39.35.44.94.11 1.34a.984.984 0 0 1-1.47.06l-.3-.34v8.62c0 1.1-.9 2-2 2h-12c-1.1 0-2-.9-2-2v-2.4c-5.52.89-8.02 2.48-8.02 3.4 0 1.4 5.49 4 16 4s16-2.6 16-4c0-.74-1.65-1.94-5.23-2.83-.45-.11-.77-.51-.77-.97 0-.65.61-1.13 1.23-.97ZM18 29h12V18.99l-6.01-4.79L18 18.99V29Z"/></svg>

