<svg xmlns="http://www.w3.org/2000/svg" viewBox="0 0 48 48"><title>Omgevingsvergunning</title><path d="M36 29c0 1.1-.9 2-2 2s-2-.9-2-2 .9-2 2-2 2 .9 2 2Zm5-.11c0 .3-.16 1.48-.2 1.64-.82 3.91-4.28 9.17-5.56 10.84l-.02.02c-.62.8-1.83.8-2.45 0v-.01c-1.26-1.66-4.75-6.94-5.57-10.88-.03-.13-.2-1.8-.2-2.1 0-3.52 2.61-6.03 6-6.45V7.99H9v23h7c1.1 0 2 .9 2 2v7h11c.55 0 1 .45 1 1s-.45 1-1 1H16.83c-.53 0-1.04-.21-1.41-.59l-7.83-7.83c-.38-.38-.59-.88-.59-1.41V7.97C7 6.88 7.88 6 8.97 6h24.05c1.09 0 1.97.88 1.97 1.97v14c3.39.49 6 3.4 6 6.92ZM9.87 33 16 39.13V33H9.87ZM39 28.89c0-2.76-2.24-5-5-5a5.002 5.002 0 0 0-4.95 5.69l.02.13c.02.12.04.24.07.36.67 3.22 3.47 7.76 4.85 9.63 1.38-1.87 4.18-6.4 4.85-9.6.03-.14.06-.26.08-.38l.02-.12c.03-.23.06-.46.06-.7ZM27.8 16.82l-.02-.02c-.38-.38-1-.38-1.38 0l-6.41 6.41-3.56-3.54c-.38-.38-1-.38-1.38 0-.39.38-.39 1 0 1.39l4.25 4.25c.39.39 1.02.39 1.41 0l7.09-7.09c.38-.38.38-1 0-1.38Z"/></svg>

