<svg xmlns="http://www.w3.org/2000/svg" viewBox="0 0 48 48"><title>Omgeving</title><path d="M23.88 17.06a4.511 4.511 0 0 0 0-9.02 4.511 4.511 0 0 0 0 9.02Zm0-7.02c1.38 0 2.51 1.13 2.51 2.51s-1.13 2.51-2.51 2.51-2.51-1.13-2.51-2.51 1.13-2.51 2.51-2.51Zm18.1 23.45c0 .24-.04.47-.09.5-.99 3.98-9.68 6-17.89 6S6.99 37.94 6.08 34.13c-.05-.21-.09-.42-.09-.64 0-.22.04-.43.09-.64.56-2.36 4.14-4.05 8.75-4.99.6-.12 1.16.32 1.16.93 0 .46-.34.85-.79.94-4.53.85-6.92 2.33-6.95 3.76.04 2.18 5.56 4.48 15.75 4.48s15.61-2.28 15.63-4.48c0-1.43-2.46-2.88-6.84-3.73a.974.974 0 0 1-.8-.95c0-.62.57-1.07 1.17-.95 4.56.93 8.12 2.59 8.73 5.13.06.01.09.25.09.49ZM20 29.99c-1.1 0-2-.9-2-2v-7.22c0-1.54 1.31-2.78 2.98-2.78h6.04c1.56 0 2.83 1.1 2.99 2.51v7.49c0 1.1-.9 2-2 2v3.03c0 .52-.4.95-.91.98h-.05a.983.983 0 0 1-1.04-.98v-5.03h2v-7.33c-.08-.38-.5-.67-.99-.67h-6.04c-.55 0-.98.35-.98.8v7.2h2l-.03 5.04c0 .56-.48 1-1.04.97h-.02a.977.977 0 0 1-.92-.98v-3.03Z"/></svg>

