<svg xmlns="http://www.w3.org/2000/svg" viewBox="0 0 48 48"><title>Onderwijs Hoger</title><path d="M41.28 28.06a4.962 4.962 0 0 0-3.09-2.26c-.74-.18-1.48-.17-2.21-.02v-4.35c.04-.28.07-.56.07-.84 0-.12-.03-.23-.07-.33v-1.69l5.4-2.67c.34-.17.56-.52.56-.9s-.22-.73-.56-.9l-16.21-8a.974.974 0 0 0-.88 0l-16.22 8c-.34.17-.56.52-.56.9 0 .34.18.65.47.84v11.05c-.08.08-.15.16-.21.26l-1.69 3.41c-.25.49-.04 1.09.45 1.34.14.07.29.1.44.1.37 0 .72-.2.9-.56l.1-.21V33c0 .55.45 1 1 1s1-.45 1-1v-1.69l.1.21a1.005 1.005 0 0 0 1.34.46c.5-.25.7-.85.45-1.34l-1.69-3.41a.89.89 0 0 0-.21-.26V16.84l4 1.98v8.16c0 2.74 2.49 4.98 7.19 5.72.05 0 .11.01.16.01.48 0 .91-.35.99-.84a.99.99 0 0 0-.83-1.14c-3.58-.56-5.5-2.09-5.5-3.75v-2.03c1.97 1.98 5.26 3.25 9.07 3.25s6.95-1.22 8.93-3.12v1.58l-10.82 6.67c-.15.09-.27.22-.36.38l-3.66 6.83c-.17.31-.16.68.02.99s.51.49.86.49h8.01c.19 0 .37-.05.53-.15l11.07-6.91a5.014 5.014 0 0 0 1.64-6.89ZM24.73 8.12 38.69 15l-13.96 6.88L10.77 15l13.96-6.88Zm.32 18.07c-4.88 0-9-2.56-9-5.6 0-.12-.03-.23-.07-.33v-.46l8.3 4.1c.14.07.29.1.44.1s.3-.03.44-.1l8.81-4.35v1.68c-.53 2.75-4.4 4.96-8.93 4.96ZM27.75 40h-3.98l3.02-1.84a1.004 1.004 0 0 0-1.05-1.71l-3.2 1.95 1.89-3.52 3.51-2.16 3.16 5.19L27.74 40Zm10.84-6.76-5.77 3.6-3.16-5.18 5.79-3.57c.68-.42 1.49-.54 2.27-.36.78.19 1.44.67 1.87 1.38.86 1.41.41 3.26-1 4.12Z"/></svg>