<svg xmlns="http://www.w3.org/2000/svg" viewBox="0 0 48 48"><title>Ondernemen</title><path d="M42.01 21.75c0-.64-.6-1.12-1.23-.97l-4.35 1.05c-.5.12-1.03.05-1.49-.2l-6.35-3.45a2.1 2.1 0 0 1-.67-.59L26.07 15a.996.996 0 0 0-.81-.42c-.09 0-.18.01-.27.04l-6.13 1.73c-.87.23-1.8-.13-2.22-.81l-.26-.49 9.33-4.84c.61-.31 1.33-.3 1.94.02l4.75 2.58c.88.48 1.9.62 2.88.39l5.98-1.37a.995.995 0 0 0-.45-1.94l-6.01 1.37c-.49.11-1.01.04-1.45-.2L28.6 8.48a4.125 4.125 0 0 0-3.82-.05l-2.36 1.08-2.65 1.46-5.39.07c-.16.03-.28-.03-.41-.08L7.4 8.06a1 1 0 1 0-.81 1.83l6.57 2.9c.38.17.79.25 1.21.25h.04l1.45-.02-.41.21c-1.02.52-1.4 1.78-.84 2.78l.29.51c.92 1.48 2.75 2.19 4.48 1.74l5.47-1.55 1.45 2.02c.35.49.8.89 1.32 1.17l6.36 3.46c.18.1.36.18.55.24l-.04.07 4.55 2.66c.46.27.78.69.9 1.18.12.47.04.96-.21 1.38l-.02.03c-.57.91-1.81 1.21-2.76.65l-1.26-.74s-.02-.02-.04-.03l-6-3.51c-.48-.28-1.09-.12-1.37.35a.99.99 0 0 0 .36 1.36l1.3.76 4.74 2.78c.44.27.74.68.86 1.16.12.48.04.98-.23 1.41l-.02.03c-.58.89-1.8 1.17-2.74.63l-1.62-.95-.12-.09c-.02-.01-.04-.01-.07-.02l-4.19-2.45c-.48-.28-1.09-.12-1.37.35a.99.99 0 0 0 .36 1.36l4.39 2.57c.39.27.67.65.78 1.1.12.48.04.98-.23 1.41l-.02.03c-.58.89-1.8 1.17-2.74.63l-4.81-2.81c.02-.16.05-.33.05-.49v-3.12c-.02-1.81-1.5-3.29-3.31-3.29h-.4c-.46 0-.89.1-1.3.27 0-.86-.35-1.66-.96-2.27-.62-.61-1.43-.94-2.3-.94h-.48c-.44 0-.86.09-1.25.25v-.06c0-1.77-1.43-3.2-3.2-3.2h-.57c-1.78 0-3.22 1.44-3.22 3.2v3.31c0 1.77 1.44 3.2 3.22 3.2h.55c.44 0 .87-.09 1.25-.25.06.77.38 1.49.94 2.04.62.61 1.43.94 2.3.94h.48c.44 0 .86-.09 1.26-.26v.06c0 .7.17 1.4.57 1.97.64.92 1.65 1.44 2.73 1.44h.39c.88 0 1.71-.35 2.33-.97.01-.01.02-.03.03-.04l4.68 2.73c.64.37 1.34.55 2.04.55 1.35 0 2.68-.67 3.43-1.87l.05-.08c.38-.64.55-1.35.53-2.07.28.06.55.09.83.09 1.35 0 2.68-.67 3.43-1.87l.05-.08c.41-.7.58-1.49.51-2.28.14.01.27.03.41.03 1.33 0 2.64-.65 3.39-1.82l.04-.06c.55-.89.72-1.93.47-2.94-.25-1.02-.91-1.88-1.83-2.42l-1.98-1.16 3.17-.76c.45-.11.76-.51.76-.97ZM10.98 28.3v.3c0 .66-.53 1.2-1.19 1.2h-.58c-.67 0-1.21-.55-1.21-1.21v-3.31c0-.67.54-1.21 1.21-1.21h.56c.67 0 1.22.55 1.22 1.22v3.02Zm5 2.97c0 .33-.13.65-.37.89s-.55.37-.89.37h-.47c-.34 0-.65-.13-.89-.37a1.24 1.24 0 0 1-.37-.89v-2.96c0-.68.55-1.24 1.24-1.24h.49c.34 0 .65.13.89.36.24.24.37.55.37.89v2.94Zm4.62 4.09c-.25.25-.57.38-.92.38h-.38c-.35 0-.67-.13-.92-.38a1.26 1.26 0 0 1-.38-.92V31.3c0-.34.13-.67.38-.91.25-.25.57-.38.92-.38h.38c.72 0 1.3.58 1.31 1.29v3.14c.01.35-.12.67-.37.92Z"/></svg>

