<svg xmlns="http://www.w3.org/2000/svg" viewBox="0 0 48 48"><title>Onderscheidingen</title><path d="M32 6H16c-1.1 0-2 .9-2 2v10.93c0 .67.33 1.29.89 1.66L23.01 26h-1a2 2 0 0 0-2 2v2h-2a2 2 0 0 0-2 2v4c0 1.1.9 2 2 2h2v2c0 1.1.9 2 2 2h4c1.1 0 2-.9 2-2v-2h2c1.1 0 2-.9 2-2v-5c0-.55-.45-1-1-1h-3v-2c0-1.1-.9-2-2-2H25l8.12-5.42c.56-.37.89-1 .89-1.66V8c0-1.1-.9-2-2-2ZM16 8h4v13.59l-4-2.67V7.99Zm10 20v3c0 .55.45 1 1 1h3v4h-3c-.55 0-1 .45-1 1v3h-4v-3c0-.55-.45-1-1-1h-3v-4h3.01c.55 0 1-.45 1-1v-3H26Zm-2-3.74-2-1.33V8h4v14.92l-2 1.33Zm8-5.34-4 2.67V8h4v10.92Z"/></svg>

