<svg xmlns="http://www.w3.org/2000/svg" viewBox="0 0 48 48"><title>Onderhoud</title><path d="M14 8c3.73 0 6.68 3.42 5.86 7.29-.48 2.26-2.31 4.1-4.57 4.57C11.42 20.67 8 17.73 8 14c0-3.31 2.69-6 6-6m0-2c-4.94 0-8.84 4.48-7.84 9.6.61 3.12 3.12 5.63 6.24 6.24 5.12 1 9.61-2.9 9.61-7.84 0-4.42-3.58-8-8-8Zm-1 5v3c0 .55.45 1 1 1s1-.45 1-1v-3c0-.55-.45-1-1-1s-1 .45-1 1Zm2.07 6c0-.29-.09-.53-.28-.72-.19-.19-.43-.28-.72-.28s-.54.09-.72.28c-.19.19-.28.43-.28.72s.09.53.28.72c.19.19.43.28.72.28s.54-.09.72-.28c.19-.19.28-.43.28-.72Zm22.6 18.04-5.76-22.93c-.16-.65-.75-1.1-1.41-1.1h-4.08c-.67 0-1.25.45-1.41 1.1l-5.76 22.92c-2.41.08-4.24 2.06-4.24 4.49V40c0 1.1.9 2 2 2h22.97c1.1 0 2-.9 2-2v-.48c0-2.41-1.91-4.37-4.29-4.48ZM33.59 27H23.31l1.5-6h7.27l1.5 6Zm.5 2 1.51 6.01H21.31L22.82 29H34.1Zm-4.01-15.99 1.5 5.99h-6.27l1.5-5.99h3.26ZM39.96 40H16.99v-.48c0-1.37.99-2.44 2.31-2.49l.69-.02h17l.6.03c1.33.06 2.37 1.16 2.37 2.48V40Z"/></svg>

