<svg xmlns="http://www.w3.org/2000/svg" viewBox="0 0 48 48"><title>Onderwijs</title><path d="M18 16c1.93 0 3.5-1.57 3.5-3.5S19.93 9 18 9s-3.5 1.57-3.5 3.5S16.07 16 18 16Zm0-5c.83 0 1.5.67 1.5 1.5S18.83 14 18 14s-1.5-.67-1.5-1.5.67-1.5 1.5-1.5Zm-2.01 29.94s.01.05.01.07c0 .54-.45.98-1 .98s-1-.44-1-.98c0-.03.01-.05.01-.07H14v.07c0-.58-.48-1.05-1.06-1.05H9.03c-.57 0-1.02.45-1.02 1.01v-.02c0 .54-.45.98-1 .98s-.99-.44-1-.98v.02-.05c.03-1.62 1.36-2.93 3.02-2.93h3.91c1.67 0 3.02 1.31 3.06 2.94ZM12 23v-2.98c0-1.67 1.35-3.02 3.02-3.02H27c.55 0 1 .45 1 1s-.45 1-1 1H15.02c-.57 0-1.02.46-1.02 1.02V23c0 .55-.45 1-1 1s-1-.45-1-1Zm3.99 17.94v.07-.07Zm13 0v.07-.07ZM11 36.92c1.93 0 3.5-1.57 3.5-3.5s-1.57-3.5-3.5-3.5-3.5 1.57-3.5 3.5 1.57 3.5 3.5 3.5Zm0-5c.83 0 1.5.67 1.5 1.5s-.67 1.5-1.5 1.5-1.5-.67-1.5-1.5.67-1.5 1.5-1.5Zm30.99 9.02s.01.05.01.07c0 .54-.45.98-1 .98s-1-.44-1-.98c0-.03.01-.05.01-.07H40v.07c0-.58-.48-1.05-1.06-1.05h-3.91c-.57 0-1.02.45-1.02 1.01v-.02c0 .54-.45.98-1 .98s-.99-.44-1-.98v.02-.05c.03-1.62 1.36-2.93 3.02-2.93h3.91c1.67 0 3.02 1.31 3.06 2.94Zm0 0v.07-.07ZM37 36.92c1.93 0 3.5-1.57 3.5-3.5s-1.57-3.5-3.5-3.5-3.5 1.57-3.5 3.5 1.57 3.5 3.5 3.5Zm0-5c.83 0 1.5.67 1.5 1.5s-.67 1.5-1.5 1.5-1.5-.67-1.5-1.5.67-1.5 1.5-1.5Zm-13 5c1.93 0 3.5-1.57 3.5-3.5s-1.57-3.5-3.5-3.5-3.5 1.57-3.5 3.5 1.57 3.5 3.5 3.5Zm0-5c.83 0 1.5.67 1.5 1.5s-.67 1.5-1.5 1.5-1.5-.67-1.5-1.5.67-1.5 1.5-1.5Zm10-4.5c0-1.93-1.57-3.5-3.5-3.5s-3.5 1.57-3.5 3.5 1.57 3.5 3.5 3.5 3.5-1.57 3.5-3.5Zm-3.5 1.5c-.83 0-1.5-.67-1.5-1.5s.67-1.5 1.5-1.5 1.5.67 1.5 1.5-.67 1.5-1.5 1.5Zm-9.5-1.5c0-1.93-1.57-3.5-3.5-3.5s-3.5 1.57-3.5 3.5 1.57 3.5 3.5 3.5 3.5-1.57 3.5-3.5Zm-3.5 1.5c-.83 0-1.5-.67-1.5-1.5s.67-1.5 1.5-1.5 1.5.67 1.5 1.5-.67 1.5-1.5 1.5Zm11.49 12.02s.01.05.01.07c0 .54-.45.98-1 .98s-1-.44-1-.98c0-.03.01-.05.01-.07H27v.07c0-.58-.48-1.05-1.06-1.05h-3.91c-.57 0-1.02.45-1.02 1.01v-.02c0 .54-.45.98-1 .98s-.99-.44-1-.98v.02-.05c.03-1.62 1.36-2.93 3.02-2.93h3.91c1.67 0 3.02 1.31 3.06 2.94ZM42 8v13a2 2 0 0 1-2 2H21c-.55 0-1-.45-1-1s.45-1 1-1h19V8H8v13h1c.55 0 1 .45 1 1s-.45 1-1 1H8c-1.1 0-2-.9-2-2V8c0-1.1.9-2 2-2h32a2 2 0 0 1 2 2Z"/></svg>

