<svg xmlns="http://www.w3.org/2000/svg" viewBox="0 0 48 48"><title>Onderwijs Basis</title><path d="m37.93 26.06-13.72 5.05s-.07.03-.1.05h-.04c-.03.01-.05.03-.08.05-.96.4-1.79 1.04-2.4 1.89l-1.63 2.25c-.6.83-.76 1.91-.41 2.88s1.14 1.7 2.13 1.94l2.67.66c.44.11.9.17 1.35.17.55 0 1.1-.1 1.63-.27.05-.01.1 0 .15-.03.02 0 .02-.02.04-.02l.11-.03 4.31-1.59 9.4-3.46c.4-.15.66-.53.66-.95q0-.18-2.79-7.98a.995.995 0 0 0-1.28-.61Zm-13.1 12.8-2.67-.66c-.34-.08-.61-.33-.73-.66-.12-.34-.07-.69.14-.98l1.63-2.25c.19-.27.42-.5.67-.7l1.91 5.36c-.32 0-.64-.02-.96-.1Zm2.91-.41-2.05-5.73 2.58-.95 2.05 5.72-2.58.95Zm4.46-1.64-2.05-5.73 7.52-2.77c.52 1.47 1.52 4.26 2.05 5.73l-7.52 2.77ZM18.47 16.97c-.54-.13-1.08.18-1.22.71l-.05.21s0-.01-.01-.01c-.67-.62-1.55-.91-2.49-.78-1.95.26-3.57 2.19-3.68 4.41-.06 1.21.34 2.32 1.12 3.04.57.53 1.29.81 2.06.81.14 0 .28 0 .43-.03.65-.08 1.25-.37 1.78-.77.15.22.34.43.57.59.18.13.39.2.59.2a1.005 1.005 0 0 0 .6-1.81c-.28-.21-.22-.59-.17-.74l1.2-4.61c.14-.53-.18-1.08-.71-1.22ZM16.3 20.8c-.07 1.24-.96 2.4-1.95 2.53-.34.04-.63-.04-.87-.26-.34-.31-.51-.85-.48-1.46.07-1.24.96-2.4 1.95-2.53.06 0 .11-.01.17-.01.27 0 .51.09.7.28.34.31.51.85.48 1.46ZM42 8v16c0 .55-.45 1-1 1s-1-.45-1-1V9H8v25h9c.55 0 1 .45 1 1s-.45 1-1 1H7c-.55 0-1-.45-1-1V8c0-.55.45-1 1-1h34c.55 0 1 .45 1 1Zm-18.19 5.03a.997.997 0 0 0-1.22.71l-2.7 10.33c-.14.53.18 1.08.71 1.22a1.012 1.012 0 0 0 1.22-.72v-.03c.58.52 1.29.8 2.05.8.14 0 .28 0 .43-.03 1.95-.26 3.56-2.19 3.68-4.41.06-1.21-.34-2.32-1.12-3.04-.67-.62-1.56-.91-2.49-.78-.22.03-.43.09-.64.15l.78-3c.14-.53-.18-1.08-.71-1.22Zm.83 6.05c.06 0 .11-.01.17-.01.27 0 .5.09.7.27.34.31.51.85.48 1.46-.07 1.24-.96 2.4-1.95 2.53-.33.04-.63-.04-.87-.26-.34-.31-.51-.85-.48-1.46.07-1.24.96-2.4 1.95-2.53Zm6.32 2.53c-.03.62.14 1.15.48 1.46.24.22.54.3.87.26.5-.07 1.01-.41 1.39-.95.32-.45.94-.56 1.39-.24.45.32.56.94.24 1.39-.7.99-1.71 1.64-2.77 1.78-.14.02-.29.03-.43.03-.77 0-1.49-.28-2.06-.81-.78-.72-1.19-1.83-1.12-3.04.12-2.22 1.74-4.15 3.68-4.41 1.42-.18 2.71.57 3.29 1.93.22.51-.01 1.1-.52 1.31a.995.995 0 0 1-1.31-.52c-.11-.25-.45-.84-1.2-.74-.99.13-1.88 1.29-1.95 2.53Z"/></svg>