<svg xmlns="http://www.w3.org/2000/svg" viewBox="0 0 48 48"><title>Onderwijs Voortgezet</title><path d="m41.68 26.92-5.66-5.66a.996.996 0 0 0-1.41 0L22.59 33.28c-.14.14-.23.32-.27.51l-1.41 7.07a.99.99 0 0 0 .98 1.19c.07 0 .13 0 .2-.02l7.07-1.41c.19-.04.37-.13.51-.27l12.02-12.02a.996.996 0 0 0 0-1.41Zm-6.37-3.53 1.41 1.41-9.9 9.9-1.41-1.41 9.9-9.9ZM24.14 34.84l3.96 3.96-4.95.99.99-4.95Zm5.51 2.69-1.41-1.41 9.9-9.9 1.41 1.41-9.9 9.9ZM25 14c0 .55-.45 1-1 1H14c-.55 0-1-.45-1-1s.45-1 1-1h10c.55 0 1 .45 1 1Zm0 4c0 .55-.45 1-1 1H14c-.55 0-1-.45-1-1s.45-1 1-1h10c.55 0 1 .45 1 1Zm-4.92 15H11a1 1 0 0 0-.01 2v1.99c-1.46-.06-2.69-1.03-2.96-2.36-.18-.92.03-1.82.61-2.53.57-.7 1.42-1.1 2.32-1.1h11.11c.55 0 1-.45 1-1s-.45-1-1-1H10.96c-1.08 0-2.11.35-2.96.98V11c0-1.65 1.35-3 3-3h19.04v13.19c0 .55.45 1 1 1s1-.45 1-1V7c0-.55-.45-1-1-1H11c-2.76 0-5 2.24-5 5v22c0 .06.02.12.04.17-.1.6-.1 1.23.03 1.85.45 2.26 2.51 3.91 4.92 3.97v2.04c0 .37.2.71.53.88.32.17.72.15 1.03-.05L15 40.23l2.45 1.63c.17.11.36.17.55.17.16 0 .32-.04.47-.12.33-.17.53-.51.53-.88V35h1.11c.55 0 1-.45 1-1s-.45-1-1-1Zm-3.1 2.03v4.13l-1.45-.96c-.34-.22-.77-.22-1.11 0l-1.45.96V35h4.01v.03Z"/></svg>