<svg xmlns="http://www.w3.org/2000/svg" viewBox="0 0 48 48"><title>Ontheffing Milieuzone</title><path d="M37.03 11.65c.39.39.39 1.01 0 1.4l-3.61 3.61a.996.996 0 0 1-1.41 0l-1.52-1.52a.996.996 0 0 1 0-1.41c.39-.38 1.01-.38 1.4 0l.84.83 2.91-2.91a.984.984 0 0 1 1.4 0ZM42 14c0 4.41-3.59 8-8 8s-8-3.59-8-8 3.59-8 8-8 8 3.59 8 8Zm-2 0c0-3.31-2.69-6-6-6s-6 2.69-6 6 2.69 6 6 6 6-2.69 6-6ZM28 27.62v7.53c0 1.02-.83 1.85-1.85 1.85h-1.2c.02.17.05.33.05.5 0 2.49-2.01 4.5-4.5 4.5S16 39.99 16 37.5c0-.17.03-.33.05-.5H7c-.55 0-1-.45-1-1s.45-1 1-1h8.96l.04-.04V16.04s-.02-.04-.04-.04H7c-.55 0-1-.45-1-1s.45-1 1-1h9.14c1.02 0 1.85.83 1.85 1.85v4.11s.02.04.04.04h5.64c.8 0 1.52.47 1.84 1.21.65 1.53 1.75 4.1 2.24 5.23.16.37.25.77.25 1.18Zm-10.04-.66s.02.04.04.04h7.82l-2.14-5h-5.65s-.04.02-.04.04l-.04 4.92Zm1.47 8.26c-.54.23-.99.67-1.21 1.21-.92 2.18 1.17 4.26 3.34 3.34.54-.23.99-.67 1.21-1.21.92-2.18-1.17-4.26-3.34-3.34Zm6.56-6.18s-.02-.04-.04-.04h-7.96s-.04.02-.04.04v4.67s.04.05.07.03a4.46 4.46 0 0 1 2.47-.74c1.55 0 2.92.79 3.73 1.98 0 .01.02.02.03.02h1.7s.04-.02.04-.04v-5.92Z"/></svg>