<svg xmlns="http://www.w3.org/2000/svg" viewBox="0 0 48 48"><title>Openingstijden winkels</title><path d="m36.81 24.85-.63-8a2.02 2.02 0 0 0-1.99-1.86H32V12c-.01-3.31-3.15-6-6.96-6-.7 0-1.38.09-2.04.27v-.02s-.04.01-.05.02c-.6-.17-1.22-.26-1.87-.26-3.9 0-7.07 3.11-7.07 6.92L13.99 15l-4.25-.02c-1.05 0-1.92.8-2 1.85L6.01 39.85C5.92 41.01 6.84 42 8 42h17c.55 0 1-.45 1-1s-.45-1-1-1H8.09l1.58-23.01 4.33.02v2.89c-.3.27-.5.67-.5 1.11 0 .83.67 1.5 1.5 1.5s1.5-.67 1.5-1.5c0-.44-.2-.84-.5-1.11l.02-6.99c0-2.18 1.5-4.01 3.54-4.63-.95 1.02-1.55 2.32-1.55 3.72v3.12c-.31.17-.54.49-.54.87 0 .55.45 1 1 1h7.54v2.88c-.33.28-.54.68-.54 1.14 0 .83.67 1.5 1.5 1.5a1.498 1.498 0 0 0 1.04-2.58l.02-7.03c0-1.86-.75-3.55-1.96-4.78 2.22.36 3.94 1.97 3.94 3.89v3.12c-.31.17-.52.49-.52.86 0 .55.45 1 1 1h3.78l.49 7.17a9 9 0 1 0 7.25 8.83c0-3.61-2.13-6.71-5.19-8.14Zm-10.83-9.86H20v-2.96c0-1.58 1.22-3.01 2.95-3.66 1.8.72 3.05 2.47 3.05 4.56l-.02 2.06Zm7.02 25c-3.86 0-7-3.14-7-7s3.14-7 7-7 7 3.14 7 7-3.14 7-7 7Zm3-5.41a.996.996 0 1 1-1.41 1.41L32.3 33.7a.99.99 0 0 1-.29-.71v-4c0-.55.45-1 1-1s1 .45 1 1v3.59l2 2Z"/></svg>

