<svg xmlns="http://www.w3.org/2000/svg" viewBox="0 0 48 48"><title>Over de gemeente</title><path d="M18 18v1c0 .55-.45 1-1 1h-2c-.55 0-1-.45-1-1v-1c0-.55.45-1 1-1h2c.55 0 1 .45 1 1Zm-1 6h-2c-.55 0-1 .45-1 1v1c0 .55.45 1 1 1h2c.55 0 1-.45 1-1v-1c0-.55-.45-1-1-1Zm25 17c0 .55-.45 1-1 1H7c-.55 0-1-.45-1-1s.45-1 1-1h1V12c0-1.1.9-2 2.01-2H12V8c0-1.1.9-2 2-2l20.01.05c1.1 0 1.99.9 1.99 2V10h2a2 2 0 0 1 2 2l-.04 28H41c.55 0 1 .45 1 1ZM14 8v2h20V8H14Zm12 24h-4v8h4v-8Zm12-20H10v28h10v-8c0-1.1.9-2 2-2h4c1.1 0 2 .9 2 2v8h10V12ZM17 31h-2c-.55 0-1 .45-1 1v1c0 .55.45 1 1 1h2c.55 0 1-.45 1-1v-1c0-.55-.45-1-1-1Zm16-14h-2c-.55 0-1 .45-1 1v1c0 .55.45 1 1 1h2c.55 0 1-.45 1-1v-1c0-.55-.45-1-1-1Zm0 14h-2c-.55 0-1 .45-1 1v1c0 .55.45 1 1 1h2c.55 0 1-.45 1-1v-1c0-.55-.45-1-1-1Zm-8-7h-2c-.55 0-1 .45-1 1v1c0 .55.45 1 1 1h2c.55 0 1-.45 1-1v-1c0-.55-.45-1-1-1Zm8 0h-2c-.55 0-1 .45-1 1v1c0 .55.45 1 1 1h2c.55 0 1-.45 1-1v-1c0-.55-.45-1-1-1Zm-6-6c0 1.66-1.34 3-3 3s-3-1.34-3-3 1.34-3 3-3 3 1.34 3 3Zm-2 0c0-.55-.45-1-1-1s-1 .45-1 1 .45 1 1 1 1-.45 1-1Z"/></svg>

