<svg xmlns="http://www.w3.org/2000/svg" viewBox="0 0 48 48"><title>Overlijden</title><path d="M34 18c.55 0 1 .45 1 1s-.45 1-1 1h-5c-.55 0-1-.45-1-1s.45-1 1-1h5Zm2-3c0-.55-.45-1-1-1h-7c-.55 0-1 .45-1 1s.45 1 1 1h7c.55 0 1-.45 1-1Zm-20 3.99c-1.1 0-2 .9-2 2s.9 2 2 2 2-.9 2-2-.9-2-2-2Zm7.42 4.68a4.62 4.62 0 0 1-1.37 5.9c-.79.58-1.73.88-2.72.88-.83 0-1.63-.24-2.33-.65v9.18c0 1.26-1.16 2.24-2.39 1.97-4.53-1.02-7.17-4.65-7.6-8.88-.06-.62.44-1.15 1.02-1.07 2.57.37 5.21 1.99 6.99 4.04v-5.25c-.71.41-1.51.65-2.34.65-.98 0-1.92-.31-2.72-.88a4.646 4.646 0 0 1-1.38-5.9 4.634 4.634 0 0 1-2.08-2.05c-.56-1.1-.66-2.36-.28-3.53a4.62 4.62 0 0 1 5.19-3.13c.32-2.24 2.25-3.97 4.58-3.97s4.26 1.73 4.58 3.97c.26-.04.52-.07.79-.07a4.627 4.627 0 0 1 2.04 8.78Zm-8.38 15.32v-.72c-1.04-2.28-3.38-4.19-5.96-5.04.79 3.02 3.14 4.66 5.96 5.75Zm8.84-20.28c-.44-1.35-1.95-2.13-3.32-1.69-.17.06-.35.13-.51.23-.34.2-.77.18-1.09-.06-.32-.23-.47-.63-.39-1.02.04-.19.06-.37.06-.55 0-1.45-1.18-2.63-2.63-2.63s-2.63 1.18-2.63 2.63c0 .18.02.37.06.55.08.39-.07.79-.39 1.02-.32.23-.75.25-1.09.06-.17-.1-.33-.17-.51-.23-1.37-.45-2.88.34-3.31 1.69-.22.67-.16 1.38.16 2.01.32.63.86 1.09 1.53 1.31.17.06.36.1.54.11a1.002 1.002 0 0 1 .57 1.74 2.634 2.634 0 0 0 .21 4.08c1.14.83 2.85.54 3.67-.58.1-.14.2-.31.28-.48a.998.998 0 0 1 1.82 0c.08.17.17.34.28.48.82 1.13 2.54 1.41 3.67.58.57-.41.94-1.02 1.05-1.72s-.06-1.39-.47-1.96c-.1-.14-.23-.28-.38-.41-.29-.26-.4-.68-.28-1.05a.98.98 0 0 1 .85-.68c.19-.02.37-.06.54-.11a2.628 2.628 0 0 0 1.69-3.31Zm16.13 5.45V10.94c0-.69-.36-1.34-.95-1.7-.32-.2-.64-.39-.82-.48-2.1-1.1-4.4-1.68-6.73-1.68s-4.46.54-6.5 1.56c-.17.08-.65.4-1.11.7-.56.37-.89 1-.89 1.67v1c0 .55.45 1 1 1s1-.45 1-1v-1.09c4-2.42 9-2.42 13 0v13.09h-11c-.55 0-1 .45-1 1s.45 1 1 1h12.1c.5 0 .9.41.9.9v2.1h-15c-.55 0-1 .45-1 1s.45 1 1 1h15.01c1.1 0 1.99-.89 1.99-1.99v-2.1c0-1.28-.84-2.36-2-2.74Z"/></svg>

