<svg xmlns="http://www.w3.org/2000/svg" viewBox="0 0 48 48"><title>Over de stad</title><path d="M23 11c0-.55.45-1 1-1h1c.55 0 1 .45 1 1s-.45 1-1 1h-1c-.55 0-1-.45-1-1Zm-9 23.03v.91c0 .58.47 1.05 1.05 1.05h1.91c.58 0 1.05-.47 1.05-1.05v-.91c0-.58-.47-1.05-1.05-1.05h-1.91c-.58 0-1.05.47-1.05 1.05ZM24.03 23ZM31 12c.55 0 1-.45 1-1s-.45-1-1-1h-1c-.55 0-1 .45-1 1s.45 1 1 1h1Zm-8 3c0 .55.45 1 1 1h1c.55 0 1-.45 1-1s-.45-1-1-1h-1c-.55 0-1 .45-1 1Zm19 22c0 .55-.45 1-1 1H24.05s-.05.02-.05.05v1.89c0 1.13-.91 2.04-2.04 2.05H10.05A2.03 2.03 0 0 1 8 39.96v-8.2l-.33.34a.975.975 0 0 1-1.39-.11l-.05-.06a.97.97 0 0 1 .15-1.39l8.39-7.07a2 2 0 0 1 2.5-.02l4.74 4v-1.48c0-.54.44-.98.98-.98h.05c.54 0 .98.44.98.98v3.09s0 .03.02.04l1.7 1.38c.39.35.44.94.11 1.34a.984.984 0 0 1-1.47.06l-.36-.29v4.38s.02.05.05.05h8.91s.05-.02.05-.05v-3.91s-.02-.05-.05-.05h-1.52c-1.78-.1-3.29-1.16-4.01-2.88-.23-.55-.29-1.16-.26-1.75 0-.08 0-.15.02-.22a4.356 4.356 0 0 1-1.17-2.6c-.11-1.18.26-2.33 1.03-3.24.11-.12.22-.24.34-.35-.27-.82-.3-1.7-.06-2.55a4.42 4.42 0 0 1 2.14-2.69 4.43 4.43 0 0 1 1.72-.53s.02 0 .02-.01c.73-.75 1.73-1.16 2.79-1.16V8.08s-.02-.05-.05-.05H21.06s-.05.02-.05.05v13.95c0 .55-.45 1-1 1s-1-.45-1-1v-6.95s-.02-.05-.05-.05h-6.91s-.05.02-.05.05v7.95c0 .55-.45 1-1 1s-1-.45-1-1v-7.95c0-1.13.92-2.05 2.05-2.05h6.91s.05-.02.05-.05V8.07c0-1.13.92-2.05 2.05-2.05h12.91c1.13 0 2.05.92 2.05 2.05v6.5s0 .03.02.04c.28.17.55.36.79.6 1.11.11 2.13.62 2.87 1.43a4.374 4.374 0 0 1 .94 4.3c0 .02 0 .03.01.04.64.6 1.08 1.38 1.27 2.24a4.35 4.35 0 0 1-.61 3.33c-.14.21-.3.42-.47.6.1.95-.12 1.9-.63 2.73a4.503 4.503 0 0 1-2.81 2.02c-.34.08-.69.12-1.04.12h-1.33v3.95c0 .03.02.05.05.05h5.95c.55 0 1 .45 1 1Zm-20 2.93v-9.74s0-.03-.02-.04l-5.96-4.94s-.04-.01-.06 0l-5.95 4.94s-.02.02-.02.04v9.73s.02.05.04.05h11.91s.05-.02.05-.04Zm13-17.31v1.34l.39-.39a.996.996 0 1 1 1.41 1.41L35 26.79s-.01.02-.01.03v3.17h1.33c.2 0 .39-.02.58-.07.66-.15 1.21-.55 1.56-1.12.34-.54.44-1.19.29-1.8l-.15-.61.49-.4c.2-.16.37-.35.5-.56.35-.54.47-1.18.33-1.81a2.4 2.4 0 0 0-1.09-1.53l-.82-.51.36-.63c.59-1.03.41-2.59-.54-3.3-.43-.32-.96-.5-1.53-.5h-.5l-.26-.35a1.97 1.97 0 0 0-3.14 0l-.27.35h-.5c-.44 0-.87.11-1.23.31-.58.32-1 .85-1.18 1.48-.17.62-.09 1.26.23 1.82l.48.83-.82.51c-.22.14-.41.3-.58.5-.42.49-.62 1.12-.56 1.76.06.65.37 1.23.88 1.65l.49.4-.15.61c-.03.14-.05.28-.06.42-.04.63.18 1.24.61 1.72.45.5 1.06.8 1.74.84h1.48v-1.08l-1.81-1.83a.996.996 0 0 1 0-1.41.996.996 0 0 1 1.41 0l.39.39v-3.45c0-.55.45-1 1-1s1 .45 1 1Zm-19-3.63c.55 0 1-.45 1-1s-.45-1-1-1h-1c-.55 0-1 .45-1 1s.45 1 1 1h1Z"/></svg>

