<svg xmlns="http://www.w3.org/2000/svg" viewBox="0 0 48 48"><title>Parkeerkosten</title><path d="M22.48 12.02C25.52 12.02 28 14.7 28 18s-2.48 5.98-5.52 5.98h-4.52V30c0 .54-.44.98-.98.98S16 30.54 16 30V13.02c0-.55.45-1 1-1h5.48Zm.09 1.98h-4.61v8h4.61c1.89 0 3.43-1.79 3.43-4s-1.54-4-3.43-4ZM26 35H10.01C8.9 35 8 34.1 8 32.99V10.01C8 8.9 8.9 8 10.01 8h21.98C33.1 8 34 8.9 34 10.01V23c0 .55.45 1 1 1s1-.45 1-1V10c0-2.21-1.79-4-4-4H10c-2.21 0-4 1.79-4 4v23c0 2.21 1.79 4 4 4h16c.55 0 1-.45 1-1s-.45-1-1-1Zm15.83 4.51c.31.46.19 1.08-.27 1.39A6.328 6.328 0 0 1 38 42.01c-1.81 0-3.6-.8-4.96-2.35A8.133 8.133 0 0 1 31.51 37h-1.52c-.55 0-1-.45-1-1s.45-1 1-1h1.07a9.55 9.55 0 0 1 0-2h-1.08c-.55 0-1-.45-1-1s.45-1 1-1h1.52c.32-.92.8-1.79 1.43-2.54 2.26-2.69 5.8-3.24 8.61-1.35.46.31.58.93.27 1.39-.31.46-.93.58-1.39.27-1.93-1.3-4.38-.9-5.96.98-.32.38-.57.81-.79 1.26h4.31c.55 0 1 .45 1 1s-.45 1-1 1h-4.93c-.09.66-.09 1.34 0 2h4.92c.55 0 1 .45 1 1s-.45 1-1 1h-4.3c.23.48.5.94.86 1.34 1.6 1.83 3.96 2.19 5.89.89a.999.999 0 0 1 1.39.27Z"/></svg>

