<svg xmlns="http://www.w3.org/2000/svg" viewBox="0 0 48 48"><title>Parkeren bedrijven</title><path d="M18 12.03c-1.1 0-2 .9-2 2v14.99c0 .54.44.98.98.98s.98-.44.98-.98v-5.03h4.52c3.04 0 5.52-2.68 5.52-5.98s-2.48-5.98-5.52-5.98H18Zm8 5.98c0 2.21-1.54 4-3.43 4h-4.61v-8h4.61c1.89 0 3.43 1.79 3.43 4ZM41.41 28.6c-.39-.39-.87-.59-1.42-.59H37v-1.92c0-.57-.2-1.06-.6-1.46-.4-.41-.89-.61-1.45-.61h-3.89c-.57 0-1.05.2-1.45.61-.4.41-.6.9-.6 1.46v1.92H26c-.55 0-1.02.2-1.41.59-.39.39-.58.87-.58 1.43v3.98H10.02c-1.11 0-2.01-.9-2.01-2.01V10.01c0-1.11.9-2.01 2.01-2.01H32c1.11 0 2.01.9 2.01 2.01V21c0 .55.45 1 1 1s1-.45 1-1V10.5c0-2.49-2.01-4.5-4.5-4.5H10.5C8.01 6 6 8.01 6 10.5v21c0 2.49 2.01 4.5 4.5 4.5H24v3.96c0 .56.19 1.04.58 1.44.39.4.86.6 1.41.6h14c.55 0 1.02-.2 1.42-.6.4-.4.59-.88.59-1.44v-9.94c0-.56-.2-1.04-.59-1.43ZM31 26.01h4v2h-4v-2Zm9 14H26v-10h14v10Z"/></svg>

