<svg xmlns="http://www.w3.org/2000/svg" viewBox="0 0 48 48"><title>Parkeerplattegrond</title><path d="M41.83 26.82c.6-1.32-.37-2.82-1.82-2.82H33c-.55 0-1 .45-1 1s.45 1 1 1h7.12l-5.08 11H7.92L13 26h6.13c1.74 3.01 3.6 5.38 3.73 5.55l.36.45c.4.51 1.17.51 1.57 0l.36-.45c.13-.17 1.99-2.54 3.73-5.55l1.08-2c.81-1.61 1.5-3.3 1.81-4.87.04-.19.08-.38.13-.65l.02-.14c.06-.42.08-.78.08-1.14 0-4.52-3.59-8.21-8-8.21s-8 3.68-8 8.21c0 .35.03.71.08 1.13l.03.22c.03.19.07.39.1.53.32 1.58 1.01 3.29 1.83 4.91h-5.05c-.78 0-1.49.45-1.82 1.16L6.15 36.16c-.6 1.32.36 2.82 1.82 2.82h27.07c.78 0 1.49-.45 1.82-1.16l4.97-11.02ZM18 17.21c0-3.42 2.69-6.21 6-6.21s6 2.78 6 6.21c0 .26-.02.54-.06.85l-.02.11c-.03.21-.06.36-.1.5v.03l-.01.03c-.74 3.62-3.91 8.5-5.81 11.02-1.9-2.53-5.08-7.41-5.82-11.07v-.04l-.02-.04c-.03-.1-.05-.24-.07-.36l-.03-.19c-.04-.33-.07-.6-.07-.86ZM22 23c.55 0 1-.45 1-1v-2h1.5c1.41 0 3.5-.93 3.5-3.5S25.91 13 24.5 13H23c-1.1 0-2 .9-2 2v7c0 .55.45 1 1 1Zm1-8h1.5c.25 0 1.5.07 1.5 1.5 0 1.33-1.06 1.49-1.5 1.5H23v-3Z"/></svg>

