<svg xmlns="http://www.w3.org/2000/svg" viewBox="0 0 48 48"><title>Parkeervoorziening gehandicapten</title><path d="M39 10.5v21c0 2.49-2.01 4.5-4.5 4.5H25v5c0 .55-.45 1-1 1s-1-.45-1-1v-5h-9.5A4.5 4.5 0 0 1 9 31.5v-21C9 8.01 11.01 6 13.5 6h21c2.49 0 4.5 2.01 4.5 4.5ZM34.99 8H13.01C11.9 8 11 8.9 11 10.01v21.98c0 1.11.9 2.01 2.01 2.01h21.98c1.11 0 2.01-.9 2.01-2.01V10.01C37 8.9 36.1 8 34.99 8Zm-11 8.5c0 2.48-1.86 4.5-4.15 4.5h-2.83v3c0 .55-.45 1-1 1s-1-.45-1-1V14c0-1.1.9-2 2-2h2.83c2.29 0 4.15 2.02 4.15 4.5Zm-1.99 0c0-1.38-.97-2.5-2.16-2.5H17v5h2.84c1.18 0 2.15-1.12 2.15-2.5Zm5.01.99c0-.83.67-1.51 1.51-1.51s1.51.67 1.51 1.51S29.36 19 28.52 19s-1.51-.67-1.51-1.51Zm5.4 6.5h-2.4v-2.5c0-.83-.67-1.51-1.5-1.51s-1.5.67-1.5 1.51v2.99c0 .83.68 1.51 1.51 1.51h3.49v3c0 .55.45 1 1 1s1-.45 1-1v-3.4c0-.88-.72-1.6-1.6-1.6ZM29.49 28a.74.74 0 0 0-.28-1.02.74.74 0 0 0-1.02.28 2.512 2.512 0 0 1-4.69-1.25c0-1.23.91-2.29 2.13-2.48.41-.06.69-.44.63-.85a.754.754 0 0 0-.85-.63c-1.94.29-3.4 2-3.4 3.96 0 2.21 1.8 4.01 4.01 4.01 1.43 0 2.76-.77 3.48-2.01Z"/></svg>

