<svg xmlns="http://www.w3.org/2000/svg" viewBox="0 0 48 48"><title>Parkeervergunning</title><path d="M28 29h5c.55 0 1 .45 1 1s-.45 1-1 1h-5c-.55 0-1-.45-1-1s.45-1 1-1Zm-7-6c0 2.21-1.66 4-3.7 4H15v2.99c0 .55-.45 1-1 1s-1-.45-1-1v-9c0-1.1.9-2 2-2h2.3c2.04 0 3.7 1.8 3.7 4Zm-2 0c0-1.1-.77-2-1.72-2H15v3.99h2.28c.95 0 1.72-.9 1.72-2Zm9 3h7c.55 0 1-.45 1-1s-.45-1-1-1h-7c-.55 0-1 .45-1 1s.45 1 1 1Zm0-5h7c.55 0 1-.45 1-1s-.45-1-1-1h-7c-.55 0-1 .45-1 1s.45 1 1 1Zm14-6.01v18.03c0 2.2-1.79 3.99-3.99 3.99H9.99c-2.2 0-3.99-1.79-3.99-3.99V14.99C6 12.79 7.79 11 9.99 11h28.03c2.2 0 3.99 1.79 3.99 3.99Zm-2 0c0-1.1-.89-1.99-1.99-1.99H25v3c0 .55-.45 1-1 1s-1-.45-1-1v-3H9.99C8.89 13 8 13.89 8 14.99v18.03c0 1.1.89 1.99 1.99 1.99h28.03c1.1 0 1.99-.89 1.99-1.99V14.99Z"/></svg>

