<svg xmlns="http://www.w3.org/2000/svg" viewBox="0 0 48 48"><title>Parkeren</title><path d="M34.54 6h-21c-2.49 0-4.5 2.01-4.5 4.5v21c0 2.49 2.01 4.5 4.5 4.5h9.5v5.02c0 .54.44.98.98.98h.04c.54 0 .98-.44.98-.98V36h9.5c2.49 0 4.5-2.01 4.5-4.5v-21c0-2.49-2.01-4.5-4.5-4.5Zm2.5 25.99c0 1.11-.9 2.01-2.01 2.01H13.05c-1.11 0-2.01-.9-2.01-2.01V10.01c0-1.11.9-2.01 2.01-2.01h21.98c1.11 0 2.01.9 2.01 2.01v21.98ZM25.52 12.03h-4.48c-1.1 0-2 .9-2 2v14.99c0 .54.44.98.98.98s.98-.44.98-.98v-5.03h4.52c3.04 0 5.52-2.68 5.52-5.98s-2.48-5.98-5.52-5.98Zm.09 9.98H21v-8h4.61c1.89 0 3.43 1.79 3.43 4s-1.54 4-3.43 4Z"/></svg>

