<svg xmlns="http://www.w3.org/2000/svg" viewBox="0 0 48 48"><title>Participatie</title><path d="M36.03 41c0 .55-.45 1-1 1h-22c-.55 0-1-.45-1-1s.45-1 1-1h22c.55 0 1 .45 1 1Zm-14-23.99V7.97C22.03 6.88 22.91 6 24 6h16.06c1.09 0 1.97.88 1.97 1.97v9c0 1.12-.91 2.03-2.03 2.03h-4.97l-3.3 3.26c-.63.62-1.7.18-1.7-.71v-2.53l-6.01-.03c-1.1 0-1.99-.89-1.99-1.99ZM23.99 8l.03 9.01h7c.55.01 1 .46 1 1.01V19l1.71-1.71a.99.99 0 0 1 .71-.29h5.59V8H24ZM7.7 29.66a4.52 4.52 0 0 1 5.57-5.57c1.51.4 2.72 1.62 3.12 3.12a4.52 4.52 0 0 1-5.57 5.57 4.446 4.446 0 0 1-3.12-3.12Zm4.97 1.21c.88-.21 1.6-.93 1.81-1.81A2.52 2.52 0 0 0 11.42 26c-.88.21-1.6.93-1.81 1.81a2.52 2.52 0 0 0 3.06 3.06ZM16.03 37s0 1 1 1 1-1 1-1c0-1.45-1.48-3-2.94-3H9.04c-1.66 0-3 1.34-3 3v4c0 .55.45 1 1 1s1-.45 1-1v-4c0-.36.18-.6.29-.71.11-.11.35-.29.71-.29h6.06c.91 0 .94 1 .94 1Zm24.36-9.79a4.52 4.52 0 0 1-5.57 5.57 4.446 4.446 0 0 1-3.12-3.12 4.52 4.52 0 0 1 5.57-5.57c1.51.4 2.72 1.62 3.12 3.12ZM35.42 26c-.88.21-1.6.93-1.81 1.81a2.52 2.52 0 0 0 3.06 3.06c.88-.21 1.6-.93 1.81-1.81A2.52 2.52 0 0 0 35.42 26Zm3.66 8h-6.05c-1.66 0-3 1.34-3 3 0 0 0 1 1 1s1-1 1-1c0-.36.18-.6.29-.71.11-.11.35-.29.71-.29h6.06c.91 0 .94 1 .94 1v4c0 .55.45 1 1 1s1-.45 1-1v-4c0-1.45-1.48-3-2.94-3Zm-20.89-7.27a4.52 4.52 0 0 1 5.57-5.57c1.51.4 2.72 1.62 3.12 3.12a4.52 4.52 0 0 1-5.57 5.57 4.446 4.446 0 0 1-3.12-3.12Zm4.97 1.21c.88-.21 1.6-.93 1.81-1.81a2.52 2.52 0 0 0-3.06-3.06c-.88.21-1.6.93-1.81 1.81a2.52 2.52 0 0 0 3.06 3.06Zm-4.61 5.08h7.04c.34 0 .97.65.97 1.01a.995.995 0 0 0 1.94-.32c0-1.2-1.44-2.69-2.9-2.69h-7.04c-.55 0-1 .44-1 1s.45 1 1 1Z"/></svg>
