<svg xmlns="http://www.w3.org/2000/svg" viewBox="0 0 48 48"><title>Participatie like</title><path d="M40.99 22.77c-.12-1.59-1.56-2.77-3.16-2.77H32c0-9.95-4-10.02-5-10.02 0 0-.07-.01-.19-.01-.66 0-2.81.31-2.81 4.3 0 4.69-2.6 7.55-5.94 7.72h-.34c-.35-.59-.98-.99-1.72-.99H9c-1.1 0-2 .9-2 2v12c0 1.1.9 2 2 2h7c.74 0 1.38-.4 1.72-1H18c.94 0 2.1.28 3.12.66 1.5.55 3.36 1.34 6.52 1.34h7.31c1.08 0 2.11-.57 2.62-1.53.58-1.1.45-2.12-.01-2.93.85-.53 1.42-1.47 1.42-2.54 0-.53-.15-1.03-.4-1.46.85-.53 1.42-1.47 1.42-2.54 0-.53-.15-1.03-.4-1.46.91-.57 1.5-1.6 1.41-2.77ZM16 35H9V23h7v12Zm22-11h-1.02c-.55 0-1 .45-1 1s.45 1 1 1 1 .45 1 1-.45 1-1 1h-1.02c-.55 0-1 .45-1 1s.45 1 1 1 1 .45 1 1-.45 1-1 1h-1.02c-.55 0-1 .45-1 1s.45 1 1 1 1 .45 1 1-.45 1-1 1h-7.31c-2.58 0-4.13-.58-5.5-1.09l-.33-.12c-.78-.29-2.31-.78-3.81-.78v-10c4.67-.18 8-4.2 8-9.72 0-1.31.29-2.21.74-2.3v.02h.25c.36 0 .85 0 1.39.59.6.67 1.61 2.54 1.61 7.41h-1c-.55 0-1 .45-1 1s.45 1 1 1h9c.55 0 1 .45 1 1s-.45 1-1 1Z"/></svg>

