<svg xmlns="http://www.w3.org/2000/svg" viewBox="0 0 48 48"><title>Participatie pitch</title><path d="M25.77 19.87a1.46 1.46 0 0 0 1.46-.03l5.02-3.08c.44-.27.71-.75.7-1.27 0-.52-.27-.99-.72-1.26l-5.03-2.98c-.45-.26-1-.27-1.45-.01-.46.26-.74.75-.74 1.29v6.05c.01.54.3 1.03.77 1.29Zm4.69-4.36-3.45 2.11v-4.16l3.45 2.04ZM40 6H17.01a2 2 0 0 0-2 2v5.92c-3.95.49-7 3.85-7 7.93 0 4.42 3.58 8 8 8s8-3.58 8-8c0-4.08-3.06-7.44-7-7.93V7.99h23v15h-13c-.55 0-1 .45-1 1s.45 1 1 1h13a2 2 0 0 0 2-2V8a2 2 0 0 0-2-2ZM21.31 19.07c.44.83.69 1.78.69 2.79 0 3.31-2.69 6-6 6-2.56 0-4.74-1.61-5.6-3.87-.2-.92-.19-1.59.08-1.94.53-.69 2.36-.65 3.97-.62 2.23.04 4.74.09 6.22-1.45.26-.27.47-.57.64-.92Zm-1.54-1.87c-.06.61-.24 1.08-.55 1.4-.87.91-2.84.87-4.74.83-1.46-.03-2.95-.04-4.12.38.84-2.3 3.04-3.95 5.63-3.95 1.43 0 2.74.5 3.77 1.34ZM21 31H11c-2.81 0-5 2.2-5 5.03V40c0 1.1.9 2 2 2h16c1.1 0 2-.9 2-2v-4l-.19-1.01A4.905 4.905 0 0 0 21 31ZM8 40v-3.97C8 34.3 9.29 33 11 33h10c.8 0 1.56.31 2.12.88.53.54.84 1.24.87 1.99V40H8Z"/></svg>

