<svg xmlns="http://www.w3.org/2000/svg" viewBox="0 0 48 48"><title>Participatie plan</title><path d="M23.94 10.02c-.55 0-1-.45-1-1V7.05c0-.55.45-1 1-1s1 .45 1 1v1.97c0 .55-.45 1-1 1Zm15.93 11.96c0 .55-.45 1-1 1H36.9c-.55 0-1-.45-1-1s.45-1 1-1h1.97c.55 0 1 .45 1 1ZM9 20.98h1.97c.55 0 1 .45 1 1s-.45 1-1 1H9c-.55 0-1-.45-1-1s.45-1 1-1Zm6.44-7.48a.996.996 0 0 1-1.41 0l-1.4-1.4a.996.996 0 1 1 1.41-1.41l1.4 1.4c.39.39.39 1.02 0 1.41Zm19.73-2.89c.39.39.39 1.02 0 1.41l-1.4 1.4a.996.996 0 1 1-1.41-1.41l1.4-1.4a.996.996 0 0 1 1.41 0Zm-11.11 1.42h-.01c-5.49 0-9.96 4.46-9.96 9.95 0 2.33.81 4.59 2.3 6.38.22.27.44.51.64.74.79.87 1.01 1.16 1.01 1.92v4.91c0 1.94 1.39 3.62 3.15 4 .4 1.2 1.52 2.07 2.85 2.07s2.41-.84 2.83-2c1.78-.38 3.17-2.05 3.17-3.99v-4.92c0-.78.26-1.11 1.07-2.03.19-.21.39-.44.59-.68a9.917 9.917 0 0 0 2.3-6.36c0-5.49-4.46-9.96-9.95-9.97Zm2.54 25.96h-4.87l-.11-.02c-.88-.19-1.57-1.08-1.57-2.04v-1.94h8v2c0 .91-.63 1.75-1.45 2Zm3.58-10.91c-.19.23-.37.44-.55.63-.85.95-1.58 1.78-1.58 3.36v.91h-8v-.97c0-1.56-.7-2.35-1.55-3.29-.18-.2-.37-.41-.57-.65a7.981 7.981 0 0 1-1.84-5.1c0-4.38 3.58-7.95 7.96-7.95 4.39 0 7.96 3.58 7.95 7.97 0 1.85-.65 3.66-1.84 5.08Z"/></svg>

