<svg xmlns="http://www.w3.org/2000/svg" viewBox="0 0 48 48"><title>Participatie checklist</title><path d="M8 16h6c1.1 0 2-.9 2-2V8c0-1.1-.9-2-2-2H8c-1.1 0-2 .9-2 2v6c0 1.1.9 2 2 2Zm0-8h6v6H8V8ZM6 27.09v-6.17c0-1.06.86-1.91 1.91-1.91h6.17c1.06 0 1.91.86 1.91 1.91v3.09c0 .55-.45 1-1 1s-1-.45-1-1v-3h-6v6h5c.55 0 1 .45 1 1s-.45 1-1 1H7.9a1.91 1.91 0 0 1-1.91-1.91ZM16 41c0 .55-.45 1-1 1H7.91A1.91 1.91 0 0 1 6 40.09v-6.17c0-1.06.86-1.91 1.91-1.91H12c.55 0 1 .45 1 1s-.45 1-1 1H8v6h7c.55 0 1 .45 1 1Zm25.21-24.55-5.74-5.65a1.92 1.92 0 0 0-2.7.01L15.86 27.68c-.21.21-.35.47-.41.75l-1.92 9.12c-.09.48.28.9.74.9.05 0 .1 0 .15-.01l9.16-1.89c.29-.06.55-.2.76-.41L41.2 19.27c.78-.78.78-2.05 0-2.83Zm-6.92-4.33 2.09 2.09-15.53 15.53-2.09-2.09 15.53-15.53ZM18.88 35.54l-2.43-2.43.94-4.13-.02-.02 5.66 5.65-4.16.93Zm5.58-2.19-2.2-2.2 15.53-15.53 2.2 2.2-15.53 15.53Z"/></svg>

