<svg xmlns="http://www.w3.org/2000/svg" viewBox="0 0 48 48"><title>Participatie uitvoering</title><path d="M18.98 34.22v.15c0 1.43-.55 2.76-1.48 3.69-1.41 1.41-5.96 2.36-8.64 2.82-1.02.17-1.9-.71-1.73-1.73.46-2.69 1.41-7.24 2.82-8.64.91-.91 2.18-1.49 3.61-1.49h.03a1.06 1.06 0 0 1 .02 2.12v.02h-.04c-.8 0-1.54.3-2.1.86-.68.68-1.5 3.6-2.07 6.6 3.01-.57 5.92-1.39 6.6-2.07.56-.56.87-1.32.86-2.14.02 0 0 0 .01-.19.04-.59.48-1.06 1.06-1.06s1.06.48 1.06 1.06Zm13.01-18.2a3.5 3.5 0 0 1 0 4.94c-.68.68-1.58 1.02-2.47 1.02s-1.79-.34-2.47-1.02a3.5 3.5 0 0 1 0-4.94c.68-.68 1.58-1.02 2.47-1.02s1.79.34 2.47 1.02Zm-.93 2.47a1.536 1.536 0 0 0-1.54-1.54 1.536 1.536 0 0 0-1.54 1.54 1.536 1.536 0 0 0 1.54 1.54 1.536 1.536 0 0 0 1.54-1.54Zm4.13 5.81-3.76 3.78 2 4.86c.31.75.14 1.61-.44 2.18l-4.64 4.64c-1 1-2.7.67-3.25-.64l-1.12-2.66-.49-1.47-1.64-1.64-7.17-7.17-1.64-1.64-4.06-1.64c-1.33-.53-1.67-2.25-.66-3.26l4.61-4.61c.57-.57 1.43-.74 2.18-.44l4.87 2 3.74-3.76c4.71-4.71 8.95-5.84 11.93-5.84 2.74 0 4.42.95 4.42.95s4.17 7.32-4.84 16.34Zm-16.75-6.12-4.11-1.69-4.56 4.56 4.01 1.62.12.05 4.53-4.53Zm11.41 11.4-4.52 4.52.09.27.46 1.4 1.07 2.54 4.59-4.59-1.7-4.13Zm3.9-6.71c6.48-6.48 5.35-11.71 4.75-13.36-.57-.2-1.58-.47-2.89-.47-3.43 0-7.06 1.81-10.49 5.24l-3.74 3.76-.96.96h-.03l-5.03 5.01.74.74 7.17 7.17.73.73 5.03-5.03.96-.97 3.76-3.78Z"/></svg>

