<svg xmlns="http://www.w3.org/2000/svg" viewBox="0 0 48 48"><title>Paspoort ID-kaart gecombineerd internationaal</title><path d="M31 36v.14c-.07.48-.5.86-1 .86h-5c-.5 0-.93-.52-1-1 .17-1.08 2.38-1.62 3.5-1.62s3.33.55 3.5 1.62Zm5-1h-2c-.55 0-1 .45-1 1s.45 1 1 1h2c.55 0 1-.45 1-1s-.45-1-1-1Zm-8.49-1.43c.96 0 1.73-.78 1.73-1.75s-.78-1.75-1.73-1.75-1.73.78-1.73 1.75.78 1.75 1.73 1.75ZM25.93 23h-9.92c.21 1.4.88 2.78 1.99 4.05V30c-4.41 0-8-3.59-8-8s3.59-8 8-8 8 3.59 8 8c0 .34-.03.67-.07 1Zm-10.05 4.61c-1.08-1.45-1.71-3.02-1.9-4.61h-1.89a6.032 6.032 0 0 0 3.79 4.61Zm0-11.21a6.016 6.016 0 0 0-3.79 4.61h1.89c.19-1.59.82-3.15 1.9-4.61Zm4.1 4.61c-.21-1.4-.88-2.78-1.99-4.05-1.11 1.27-1.77 2.65-1.99 4.05h3.97Zm3.92 0a6.032 6.032 0 0 0-3.79-4.61c1.08 1.45 1.71 3.02 1.9 4.61h1.89Zm-10.91 11c-.55 0-1 .45-1 1s.45 1 1 1h4c.55 0 1-.45 1-1s-.45-1-1-1h-4Zm24-1h-3c-.55 0-1 .45-1 1s.45 1 1 1h3c.55 0 1-.45 1-1s-.45-1-1-1Zm5-3.47v11.94c0 1.4-1.13 2.53-2.53 2.53H22.53c-1.4 0-2.54-1.14-2.54-2.54v-.46H8.03c-1.13 0-2.04-.91-2.04-2.04V13h.02V8.95C6.01 7.32 7.33 6 8.96 6H26c.55 0 1 .45 1 1s-.45 1-1 1H9c-.56 0-1 .44-1 1s.44 1 1 1h18.7c.61 0 1.19.24 1.62.67.44.43.68 1.01.68 1.63v9.71c0 .55-.45 1-1 1s-1-.45-1-1v-10H8v25h12v-9.97c0-1.12.91-2.03 2.03-2.03h17.44A2.54 2.54 0 0 1 42 27.54Zm-2-.53h-8v2c0 .55-.45 1-1 1s-1-.45-1-1v-2h-8v13h18c.04 0 0-13 0-13Z"/></svg>
