<svg xmlns="http://www.w3.org/2000/svg" viewBox="0 0 48 48"><title>Paspoort</title><path d="M30 35c0 .55-.45 1-1 1H19c-.55 0-1-.45-1-1s.45-1 1-1h10c.55 0 1 .45 1 1ZM16 23c0-4.41 3.59-8 8-8s8 3.59 8 8-3.59 8-8 8-8-3.59-8-8Zm10.12-5.61c1.08 1.45 1.71 3.02 1.9 4.61h1.89a6.032 6.032 0 0 0-3.79-4.61Zm0 11.21a6.016 6.016 0 0 0 3.79-4.61h-1.89c-.19 1.59-.82 3.15-1.9 4.61Zm-4.1-6.61h3.97c-.21-1.4-.88-2.78-1.99-4.05-1.11 1.27-1.77 2.65-1.99 4.05Zm0 2c.21 1.4.88 2.78 1.99 4.05 1.11-1.27 1.77-2.65 1.99-4.05h-3.97Zm-3.92-2h1.89c.19-1.59.82-3.15 1.9-4.61a6.016 6.016 0 0 0-3.79 4.61Zm0 2a6.032 6.032 0 0 0 3.79 4.61c-1.08-1.45-1.71-3.02-1.9-4.61H18.1Zm18.91-11.71v27.69c0 1.11-.9 2.01-2.01 2.01H13.04c-1.13 0-2.04-.91-2.04-2.04l.02-31.01c0-1.63 1.32-2.95 2.95-2.95h19.04c.55 0 1 .45 1 1s-.45 1-1 1H14c-.56 0-1 .44-1 1s.44 1 1 1h20.7c.61 0 1.19.24 1.62.67.44.43.68 1.01.68 1.63Zm-2-.29H13v28h22V12Z"/></svg>

