<svg xmlns="http://www.w3.org/2000/svg" viewBox="0 0 48 48"><title>Politiek</title><path d="M24.59 12.06a3.006 3.006 0 0 0-3.53 3.53c.22 1.17 1.18 2.13 2.36 2.36 2.11.4 3.93-1.42 3.53-3.53-.22-1.17-1.18-2.13-2.36-2.36ZM24 16c-.55 0-1-.45-1-1s.45-1 1-1 1 .45 1 1-.45 1-1 1Zm16 20c0-1.1-.9-2-2-2h-1V21h2c1.1 0 2-.9 2-2v-1.38a2 2 0 0 0-1.11-1.79l-15-7.64c-.56-.28-1.23-.28-1.79 0l-15 7.64A1.99 1.99 0 0 0 7 17.62V19c0 1.1.9 2 2 2h2v13h-1c-1.1 0-2 .9-2 2v2c0 1.1.9 2 2 2h28c1.1 0 2-.9 2-2v-2ZM9 19v-1.38L23.97 10 39 17.62V19H9Zm26 2v13h-4V21h4Zm-6 0v13h-4V21h4Zm-6 0v13h-4V21h4Zm-6 0v13h-4V21h4Zm21 17H10v-2h28v2Z"/></svg>

