<svg xmlns="http://www.w3.org/2000/svg" viewBox="0 0 48 48"><title>Portemonnee</title><path d="M46.03,21.08,42,27.03v6.04c0,4.92-4.06,8.93-9.05,8.93H15.05c-4.99,0-9.05-4.01-9.05-8.93v-6.1c.02-2.04,1.26-3.79,3.03-4.56v-2.31c0-5.02,4.11-9.1,9.17-9.1h.16c-.22-.46-.35-.96-.35-1.5,0-1.93,1.57-3.5,3.5-3.5.98,0,1.86.41,2.5,1.06.64-.65,1.52-1.06,2.5-1.06,1.93,0,3.5,1.57,3.5,3.5,0,.54-.13,1.04-.35,1.5h.21c5.05,0,9.17,4.08,9.17,9.1v1.9c0,.14-.03.27-.08.39.59.25,1.13.61,1.6,1.08.95.95,1.46,2.21,1.45,3.56ZM25,9.5c0,.83.67,1.5,1.5,1.5s1.5-.67,1.5-1.5-.67-1.5-1.5-1.5-1.5.67-1.5,1.5ZM21.5,11c.83,0,1.5-.67,1.5-1.5s-.67-1.5-1.5-1.5-1.5.67-1.5,1.5.67,1.5,1.5,1.5ZM11.03,20.11v1.9h.3c.94,0,1.7-.76,1.7-1.7,0-2.92,2.41-5.3,5.37-5.3h11.27c2.96,0,5.37,2.38,5.37,5.3,0,.94.76,1.7,1.7,1.7h.28s.02,0,.03,0v-1.9c0-3.92-3.21-7.1-7.17-7.1h-11.67c-3.95,0-7.17,3.19-7.17,7.1ZM40,27.02c0-.8-.3-1.56-.87-2.13s-1.32-.89-2.13-.89h-.28c-2.04,0-3.7-1.66-3.7-3.7,0-1.82-1.51-3.3-3.37-3.3h-11.27c-1.86,0-3.37,1.48-3.37,3.3,0,2.04-1.66,3.7-3.7,3.7h-.32c-1.65,0-2.99,1.34-3,2.98v6.09c0,3.82,3.16,6.93,7.04,6.93h17.91c3.89,0,7.05-3.11,7.05-6.93v-6.05ZM24.89,23.4h.04c1.12,0,2.19.51,3,1.45.37.42,1,.46,1.41.09.42-.36.46-1,.09-1.41-1.2-1.38-2.8-2.13-4.51-2.13h-.06c-1.73.02-3.35.81-4.54,2.24-.56.66-.97,1.43-1.26,2.24h-1.3c-.55,0-1,.45-1,1s.45,1,1,1h.87c-.05.53-.05,1.05,0,1.58h-.87c-.55,0-1,.45-1,1s.45,1,1,1h1.28c.31.85.76,1.65,1.36,2.34,1.2,1.38,2.8,2.13,4.51,2.13h0c1.71,0,3.31-.76,4.51-2.13.36-.42.32-1.05-.09-1.41-.42-.36-1.05-.32-1.41.09-.82.93-1.88,1.45-3,1.45s-2.19-.51-3-1.45c-.27-.31-.49-.66-.68-1.03h3.69c.55,0,1-.45,1-1s-.45-1-1-1h-4.31c-.07-.52-.07-1.05,0-1.58h4.31c.55,0,1-.45,1-1s-.45-1-1-1h-3.69c.18-.34.38-.66.63-.95.81-.97,1.89-1.51,3.03-1.52Z"/></svg>