<svg xmlns="http://www.w3.org/2000/svg" viewBox="0 0 48 48"><title>Presentatie</title><path d="M19.99 22c4.42 0 8-3.58 8-8s-3.58-8-8-8-8 3.58-8 8 3.58 8 8 8Zm0-14c1.43 0 2.74.5 3.77 1.34-.06.61-.24 1.08-.55 1.4-.87.91-2.84.87-4.74.83-1.46-.03-2.95-.04-4.12.38.84-2.3 3.04-3.95 5.63-3.95Zm-5.52 6.19c.53-.69 2.36-.65 3.97-.62 2.23.04 4.74.09 6.22-1.45.26-.27.47-.57.64-.92.44.83.69 1.78.69 2.79 0 3.31-2.69 6-6 6-2.56 0-4.74-1.61-5.6-3.87-.2-.92-.19-1.59.08-1.94ZM40 33c0 .55-.45 1-1 1h-6v7c0 .55-.45 1-1 1s-1-.45-1-1v-7h-4v7c0 .55-.45 1-1 1s-1-.45-1-1v-7h-6c-.55 0-1-.45-1-1s.45-1 1-1h10v-3c0-1.99-1.37-3.57-3.23-3.92H13.22a3.968 3.968 0 0 0-3.23 3.93v7.94l2.01.02V30c0-.55.45-1 1-1s.99.45.99 1v10h8c.55 0 1 .45 1 1s-.45 1-1 1h-8c-1.1 0-2-.9-2-2v-1l-2-.02c-1.1 0-1.98-.9-1.98-2v-7.96c-.01-3.17 2.32-5.69 5.39-6h12.59c3.07.3 5.01 2.82 5.02 5.97l-.02 3h4v-7.11l-3.58-3.93c-.14.03-.28.05-.42.05-1.1 0-2-.9-2-2s.9-2 2-2 2 .9 2 2c0 .21-.04.41-.1.6l3.55 3.91c.35.39.55.9.55 1.42V32h2c.55 0 1 .45 1 1Z"/></svg>

