<svg xmlns="http://www.w3.org/2000/svg" viewBox="0 0 48 48"><title>Prijskaartje</title><path d="M20.1 25H23c.55 0 1 .45 1 1s-.45 1-1 1h-3.6c-.05.32-.08.66-.08 1s.03.68.08 1H23c.55 0 1 .45 1 1s-.45 1-1 1h-2.9c.69 1.21 1.78 2 3.02 2 .79 0 1.55-.32 2.2-.93a.996.996 0 0 1 1.41.04c.38.4.36 1.04-.04 1.41-1.02.96-2.26 1.47-3.56 1.47-2.31 0-4.3-1.64-5.23-4h-.89c-.55 0-1-.45-1-1s.45-1 1-1h.38c-.04-.33-.07-.66-.07-1s.03-.67.07-1h-.38c-.55 0-1-.45-1-1s.45-1 1-1h.89c.93-2.36 2.93-4 5.23-4 1.31 0 2.54.51 3.57 1.47a.996.996 0 1 1-1.37 1.45c-.65-.61-1.41-.93-2.2-.93-1.24 0-2.33.79-3.02 2ZM37.76 7.34c-.21-.43-.67-1-1.7-1.26-1.54-.4-4.48.08-7.21 1.14-.02 0-2.56 1.13-2.92 1.32l-.24-.22h.01l-1.68-1.54a3.001 3.001 0 0 0-4.02 0l-9.32 8.43c-.43.39-.67.93-.67 1.51v23.26c0 1.1.9 2 2 2h20c1.1 0 2-.9 2-2V16.73c0-.56-.23-1.09-.64-1.46l-.54-.5a.998.998 0 1 0-1.33 1.49l.52.47V40h-20V16.69l9.33-8.43c.38-.34.96-.34 1.34 0l3.41 3.09s.01 0 .02-.01c.41.37 1.04.33 1.41-.08.31-.35.31-.84.06-1.21 0 0 .47-.35 2.01-.96 2.4-.95 4.94-1.35 5.97-1.08.27.07.38.16.4.21.05.1-.03.29-.08.39-.68 1.3-5.35 3.85-12.38 5.07-.45-.52-1.16-.81-1.94-.64s-1.37.79-1.51 1.55c-.25 1.28.72 2.4 1.96 2.4a2 2 0 0 0 1.88-1.34c6.41-1.12 12.45-3.61 13.77-6.11.51-.97.34-1.73.11-2.2Z"/></svg>

