<svg xmlns="http://www.w3.org/2000/svg" viewBox="0 0 48 48"><title>Raad en college</title><path d="M42 29c0 .55-.44 1-.98 1H41c-.54 0-.99-.44-.99-.99v-4.74c0-.64-.63-1.25-1.28-1.25L34.98 23c-.55 0-1-.45-1-1s.45-1 1-1h3.76c1.76 0 3.25 1.46 3.25 3.18v4.83Zm-28.01-7.01c0-.55-.44-.99-.99-.99H9.28C7.5 21 6 22.46 6 24.18v4.83c0 .55.44 1 .98 1H7c.55 0 1-.44 1-.99v-4.77c0-.64.62-1.24 1.27-1.24l3.72-.02c.55 0 .99-.44.99-.99ZM33.05 16c0-2.21 1.79-4 4-4s4 1.79 4 4-1.79 4-4 4-4-1.79-4-4Zm2 0c0 1.1.9 2 2 2s2-.9 2-2-.9-2-2-2-2 .9-2 2ZM7 16c0-2.21 1.79-4 4-4s4 1.79 4 4-1.79 4-4 4-4-1.79-4-4Zm2 0c0 1.1.9 2 2 2s2-.9 2-2-.9-2-2-2-2 .9-2 2Zm27.02 13v7.98c-.02 1.1-.9 1.99-2 2L32 39v1c0 1.1-.9 2-2 2H17.97c-1.1 0-2-.89-2-1.99 0-.52 0-.95.03-.99L14 39c-1.1 0-1.98-.9-1.98-2v-8c-.01-3.18 2.32-5.71 5.41-6.01h13.58c3.07.3 5.02 2.83 5.02 6Zm-7.15-4.01h-9.74c.89 2.2 2.25 4.02 3.92 5.25.28-.15.6-.25.95-.25s.66.1.95.25c1.67-1.23 3.03-3.06 3.92-5.25ZM34 28.96c0-1.93-1.27-3.48-3.03-3.91-1.03 2.9-2.78 5.31-4.98 6.89V32c0 1.1-.9 2-2 2s-2-.9-2-2v-.06c-2.2-1.58-3.95-3.99-4.98-6.89-1.76.43-3.04 1.99-3.04 3.91v8.02l2.01.02v-6.94c0-.55.45-.99 1-.99s.99.44.99.99V40h12.01V30c0-.55.45-1 1-1s1 .45 1 1v7.02l1.99-.02v-8.03ZM16 13.99c0-4.42 3.58-8 8-8s8 3.58 8 8-3.58 8-8 8-8-3.58-8-8Zm2.37-2.05c1.17-.43 2.66-.41 4.12-.38 1.9.03 3.87.07 4.74-.83.31-.32.49-.79.55-1.4a5.938 5.938 0 0 0-3.77-1.34c-2.59 0-4.79 1.65-5.63 3.95Zm.03 4.18a5.995 5.995 0 0 0 5.6 3.87c3.31 0 6-2.69 6-6 0-1.01-.25-1.95-.69-2.79-.17.34-.38.65-.64.92-1.48 1.54-3.99 1.49-6.22 1.45-1.61-.03-3.44-.07-3.97.62-.27.35-.29 1.02-.08 1.94Z"/></svg>

