<svg xmlns="http://www.w3.org/2000/svg" viewBox="0 0 48 48"><title>Reclamebelasting</title><path d="m29.14 20.2-4.9 21.04c-.11.45-.51.77-.98.77-.64 0-1.1-.6-.96-1.22L23.65 35H9.67l-1.46 6.24c-.11.45-.51.77-.98.77-.64 0-1.1-.6-.96-1.22l6.35-27.25a2 2 0 0 1 1.95-1.55h11.41c.55 0 1 .45 1 1s-.45 1-1 1H14.6l-4.44 19H24.1l3.08-13.25c.12-.53.65-.87 1.19-.75h.02c.55.12.89.66.76 1.21Zm-5.17.02a.999.999 0 0 0-.97-1.23h-5.97c-.46 0-.87.32-.97.77-.15.63.33 1.23.97 1.23H23c.46 0 .87-.32.97-.77Zm9.55 2.54a1 1 0 0 0-1.2-.75h-.01c-.54.13-.87.66-.75 1.2l2.29 9.77h-5.29c-.46 0-.87.32-.97.77-.15.63.33 1.23.97 1.23h5.75l1.46 6.27c.11.47.53.79 1.01.77h.01a1 1 0 0 0 .93-1.22l-4.21-18.04Zm-17.43 1.23c-.46 0-.87.32-.97.77-.15.63.33 1.23.97 1.23h3.92c.46 0 .87-.32.97-.77a.999.999 0 0 0-.97-1.23h-3.92Zm24.35-4.77c-1.92 1.29-4.29.94-5.89-.89-.35-.4-.62-.86-.86-1.34h4.3c.55 0 1-.45 1-1s-.45-1-1-1h-4.92c-.09-.66-.1-1.34 0-2H38c.55 0 1-.45 1-1s-.45-1-1-1h-4.31c.22-.44.47-.87.79-1.26 1.58-1.88 4.03-2.28 5.96-.98.46.31 1.08.19 1.39-.27a.999.999 0 0 0-.27-1.39c-2.81-1.89-6.35-1.34-8.61 1.35-.63.75-1.11 1.62-1.43 2.54H30c-.55 0-1 .45-1 1s.45 1 1 1h1.08a9.55 9.55 0 0 0 0 2h-1.07c-.55 0-1 .45-1 1s.45 1 1 1h1.52c.34.97.85 1.88 1.53 2.66 1.35 1.54 3.14 2.35 4.96 2.35 1.22 0 2.45-.36 3.56-1.11.46-.31.58-.93.27-1.39a.999.999 0 0 0-1.39-.27Z"/></svg>

