<svg xmlns="http://www.w3.org/2000/svg" viewBox="0 0 48 48"><title>Reclame</title><path d="M16.59 16.77c.11-.45.51-.77.97-.77h7.27c.65 0 1.12.6.97 1.23-.11.45-.51.77-.97.77h-7.27c-.65 0-1.12-.6-.97-1.23Zm.02 6.23h5.15c.46 0 .87-.32.97-.77a.999.999 0 0 0-.97-1.23h-5.15c-.46 0-.87.32-.97.77-.15.63.33 1.23.97 1.23Zm22.41 16.03h-.01c-.49.02-.92-.3-1.03-.77l-1.48-6.27h-5.84c-.65 0-1.14-.6-.99-1.23.11-.45.52-.77.99-.77h5.36l-4.06-15.78-5.69 24.02c-.11.45-.52.77-.99.77a.99.99 0 0 1-.97-1.22l1.37-5.79H9.48L8 38.23c-.11.45-.52.77-.99.77a.99.99 0 0 1-.97-1.22l6.44-27.25c.21-.9 1.02-1.54 1.95-1.54h16.78a2 2 0 0 1 1.94 1.52l6.83 27.3c.14.61-.31 1.2-.94 1.22ZM30.62 11H14.47l-4.5 19h16.17l4.49-19Z"/></svg>

