<svg xmlns="http://www.w3.org/2000/svg" viewBox="0 0 48 48"><title>Regeling laag inkomen</title><path d="M35.51 15c2.49 0 4.5-2.01 4.5-4.5 0-1.96-1.26-3.61-3.01-4.23h-.02c-.46-.16-.95-.27-1.47-.27-.47 0-.92.09-1.35.23-.03 0-.05.02-.08.02-1.78.6-3.07 2.26-3.07 4.25 0 2.49 2.01 4.5 4.5 4.5Zm-.81-6.85h.05l.02-.02c.29-.09.53-.14.75-.14.25 0 .51.05.81.15l.05.02c.98.36 1.64 1.29 1.64 2.33a2.5 2.5 0 0 1-5 0c0-1.06.69-2.01 1.69-2.35ZM34 31v-2.94c0-.59-.48-1.06-1.06-1.06H26c-.55 0-1-.45-1-1s.45-1 1-1h6.94A3.06 3.06 0 0 1 36 28.06V31c0 .55-.45 1-1 1s-1-.45-1-1ZM7 14h.38c-.04-.33-.07-.66-.07-1s.03-.67.07-1H7c-.55 0-1-.45-1-1s.45-1 1-1h.89c.93-2.36 2.93-4 5.23-4 1.31 0 2.54.51 3.57 1.47a.996.996 0 1 1-1.37 1.45c-.65-.61-1.41-.93-2.2-.93-1.24 0-2.33.79-3.02 2H13c.55 0 1 .45 1 1s-.45 1-1 1H9.4c-.05.32-.08.66-.08 1s.03.68.08 1H13c.55 0 1 .45 1 1s-.45 1-1 1h-2.9c.69 1.21 1.78 2 3.02 2 .79 0 1.55-.32 2.2-.93a.996.996 0 0 1 1.41.04c.38.4.36 1.04-.04 1.41-1.02.96-2.26 1.47-3.56 1.47-2.31 0-4.3-1.64-5.23-4h-.89c-.55 0-1-.45-1-1s.45-1 1-1Zm35.01 6v7c0 1.1-.9 2-2 2v2c0 .55-.45 1-1.01 1s-1-.45-1.01-1v-4H40v-6.5a2.5 2.5 0 0 0-2.5-2.5h-1c-.55 0-1-.45-1-1s.45-1 1-1H38c2.21 0 4 1.79 4 4Zm-4.15 14.03h-5.84s0-3-2.59-3.98l-8.42-2.82c-.32-.1-.67-.12-1.01-.08V20c.01-1.1.91-2 2.01-2h1.59c.55 0 1-.45 1-1s-.45-1-1-1h-1.57c-2.22 0-4.02 1.79-4.02 4v7.43l-3.98.6v.02h-.27c-.33-.59-.95-1-1.68-1H8.03c-1.1 0-2 .9-2 2v10c0 1.1.9 2 2 2h4c1.1 0 2-.9 2-2h.2l11 2.77c.83.23 1.73.25 2.57.05l12.65-2.91c1.01-.23 1.72-1.26 1.53-2.27-.31-1.66-2.04-2.66-4.11-2.66Zm-25.84 5.02h-4v-10h4v10Zm14.69.99-12.69-2.99v-7l5.09-.95c.17-.03 1.34-.01 1.49.04l8 2.82c.77.26 1.41 1.37 1.41 2.07 0 0-4.15-.08-4.67-.22l-2.32-.67c-.52-.15-1.06.14-1.23.65v.02c-.18.54.12 1.12.67 1.27l2.17.63c.76.22 1.53.33 2.31.33l10.85.02c.77 0 2.06.55 2.14 1.27l-13.22 2.72ZM24.51 15c2.49 0 4.5-2.01 4.5-4.5 0-1.96-1.26-3.61-3.01-4.23h-.02c-.46-.16-.95-.27-1.47-.27-.47 0-.92.09-1.35.23-.03 0-.05.02-.08.02-1.78.6-3.07 2.26-3.07 4.25 0 2.49 2.01 4.5 4.5 4.5Zm-.81-6.85h.05l.02-.02c.29-.09.53-.14.75-.14.25 0 .51.05.81.15l.05.02c.98.36 1.64 1.29 1.64 2.33a2.5 2.5 0 0 1-5 0c0-1.06.69-2.01 1.69-2.35Zm4.88 7.1c-1.78.6-3.07 2.26-3.07 4.25 0 2.49 2.01 4.5 4.5 4.5s4.5-2.01 4.5-4.5c0-1.96-1.26-3.61-3.01-4.23h-.02c-.46-.16-.95-.27-1.47-.27-.47 0-.92.09-1.35.23-.03 0-.05.02-.08.02Zm.67 1.89h.02c.29-.1.53-.14.75-.14.25 0 .51.05.81.15l.05.02c.98.36 1.64 1.29 1.64 2.33a2.5 2.5 0 0 1-5 0c0-1.06.69-2.01 1.69-2.35h.05Z"/></svg>

