<svg xmlns="http://www.w3.org/2000/svg" viewBox="0 0 48 48"><title>Rijbewijs</title><path d="M38.01 11H9.99C7.79 11 6 12.79 6 14.99v18.03c0 2.2 1.79 3.99 3.99 3.99h28.03c2.2 0 3.99-1.79 3.99-3.99V14.99c0-2.2-1.79-3.99-3.99-3.99ZM40 33.01c0 1.1-.89 1.99-1.99 1.99H9.99C8.89 35 8 34.11 8 33.01V14.99c0-1.1.89-1.99 1.99-1.99H23v3c0 .55.45 1 1 1s1-.45 1-1v-3h13.01c1.1 0 1.99.89 1.99 1.99v18.03ZM34 30c0 .55-.45 1-1 1h-5c-.55 0-1-.45-1-1s.45-1 1-1h5c.55 0 1 .45 1 1Zm2-5c0 .55-.45 1-1 1h-7c-.55 0-1-.45-1-1s.45-1 1-1h7c.55 0 1 .45 1 1Zm0-5c0 .55-.45 1-1 1h-7c-.55 0-1-.45-1-1s.45-1 1-1h7c.55 0 1 .45 1 1Zm-13.07 3.58-1.3-3.39A1.72 1.72 0 0 0 19.99 19h-5.95c-.74 0-1.39.47-1.64 1.18l-1.32 3.38c-.05.15-.08.32-.08.48v5.95c0 .54.44.98.98.98h.03c.55 0 .99-.44.99-.98v-.98l8-.04v1.05c0 .54.44.98.98.98h.03c.54 0 .99-.44.99-.98v-5.96c0-.16-.03-.32-.08-.48ZM14.27 21h5.44l.77 2h-6.91l.7-2ZM13 25h3.03v2H13v-2Zm8 2h-3v-2h3v2Z"/></svg>

