<svg xmlns="http://www.w3.org/2000/svg" viewBox="0 0 48 48"><title>Rioolwerkzaamheden</title><path d="M33 14v-3c0-.55.45-1 1-1s1 .45 1 1v3c0 .55-.45 1-1 1s-1-.45-1-1Zm1.07 2c-.3 0-.54.09-.72.28s-.28.43-.28.72.09.53.28.72.43.28.72.28.54-.09.72-.28.28-.43.28-.72-.09-.53-.28-.72-.43-.28-.72-.28Zm-7.91-.4C25.17 10.48 29.06 6 34 6c4.42 0 8 3.58 8 8 0 4.94-4.48 8.84-9.61 7.84-3.12-.61-5.63-3.12-6.24-6.24ZM28 14c0 3.73 3.42 6.68 7.29 5.86 2.26-.48 4.1-2.31 4.57-4.57C40.67 11.42 37.73 8 34 8c-3.31 0-6 2.69-6 6Zm-9.01 15.06v3.93c.83-.62 1.85-1 2.96-1h6.01c0-.55.45-1 1-1h3.99c.55 0 1 .45 1 1h6.98c.55 0 1 .45 1 1s-.45 1-1 1h-6.98v2h6.98c.55 0 1 .45 1 1s-.45 1-1 1h-6.98c0 .55-.45 1-1 1h-3.99c-.55 0-1-.45-1-1h-5.09c-.46 2.3-2.45 4.01-4.84 4.01-2.78 0-5.04-2.27-5.04-5.06v-7.88H7c-.55 0-1-.45-1-1s.45-1 1-1h1v-8.24l-.35.33a.986.986 0 0 1-1.42-.12l-.02-.02c-.36-.43-.29-1.08.15-1.43l8.39-7.14c.71-.56 1.71-.58 2.43-.03l4.79 4.09v-1.46c0-.55.45-1 1-1s1 .45 1 1v3.09l1.66 1.45c.39.35.43.94.11 1.34a.966.966 0 0 1-1.46.06l-.3-.34v8.43h16.96c.55 0 1 .45 1 1s-.45 1-1 1H18.99Zm10.98 7.93h2v-4.01h-2v4.01Zm-11 0c0 .55-.45 1-1 1s-1-.45-1-1c0-.26.04-.51.08-.76-.02-.08-.05-.16-.05-.24v-6.93h-2v7.88c0 1.68 1.37 3.06 3.04 3.06s2.94-1.33 2.94-2.95c0-.55.45-1.05 1-1.05h5.99v-2h-6.01a3 3 0 0 0-2.99 3Zm3.02-9.94v-9.82l-5.99-5-5.98 5.01v9.82h11.97ZM17 20.04h-2c-.55 0-1 .45-1 1v1c0 .55.45 1 1 1h2c.55 0 1-.45 1-1v-1c0-.55-.45-1-1-1Z"/></svg>