<svg xmlns="http://www.w3.org/2000/svg" viewBox="0 0 48 48"><title>Rioolheffing</title><path d="M41.83 19.5c.31.46.19 1.08-.27 1.39A6.328 6.328 0 0 1 38 22c-1.81 0-3.6-.8-4.96-2.35a8.133 8.133 0 0 1-1.53-2.66h-1.52c-.55 0-1-.45-1-1s.45-1 1-1h1.07a9.55 9.55 0 0 1 0-2h-1.08c-.55 0-1-.45-1-1s.45-1 1-1h1.52c.32-.92.8-1.79 1.43-2.54 2.26-2.69 5.8-3.24 8.61-1.35.46.31.58.93.27 1.39-.31.46-.93.58-1.39.27-1.93-1.3-4.38-.9-5.96.98-.32.38-.57.81-.79 1.26h4.31c.55 0 1 .45 1 1s-.45 1-1 1h-4.93c-.09.66-.09 1.34 0 2h4.92c.55 0 1 .45 1 1s-.45 1-1 1h-4.3c.23.48.5.94.86 1.34 1.6 1.83 3.96 2.19 5.89.89a.999.999 0 0 1 1.39.27ZM26 23.89c0-1.04-.85-1.89-1.89-1.89H7.89C6.85 22 6 22.85 6 23.89c0 0 0 4.01.02 4.19.18 2.22 1.43 4.24 3.37 5.53l-1.31 7.21c-.1.54.26 1.06.8 1.16.06.01.12.02.18.02.47 0 .9-.34.98-.82l1.43-7.89a1 1 0 0 0-.51-1.06c-1.68-.91-2.78-2.48-2.95-4.23h15.94c-.18 1.75-1.27 3.32-2.95 4.23-.38.21-.08.63 0 1.06l.93 7.89c.09.48.51.82.98.82.06 0 .12 0 .18-.02.54-.1.9-.62.8-1.16l-1.31-7.21c1.94-1.28 3.19-3.3 3.38-5.53.01-.18.02-4.19.02-4.19ZM8 24h16v2H8v-2ZM23 8V7c0-.55-.45-1-1-1s-1 .45-1 1v1H9c-1.1 0-2 .9-2 2v7c0 1.1.9 2 2 2h14c1.1 0 2-.9 2-2v-7c0-1.1-.9-2-2-2ZM9 17v-7h14v7H9Z"/></svg>

