<svg xmlns="http://www.w3.org/2000/svg" viewBox="0 0 48 48"><title>Riool</title><path d="M40.94 34c.55 0 1-.45 1-1s-.45-1-1-1h-6.98c0-.55-.45-1-1-1h-3.99c-.55 0-1 .45-1 1h-3.01c-1.11 0-2.13.38-2.96 1v-7.95h18.95c.55 0 1-.45 1-1s-.45-1-1-1H26.99v-8.43l.3.34c.4.43 1.09.4 1.46-.06.33-.41.28-1-.11-1.34l-1.66-1.45V9.02c0-.55-.45-1-1-1s-1 .45-1 1v1.46l-4.79-4.09c-.72-.54-1.72-.53-2.43.03l-8.39 7.14c-.44.35-.51.99-.15 1.43l.02.02c.36.43 1 .48 1.42.12l.35-.33v8.24h-4c-.55 0-1 .45-1 1s.45 1 1 1H16v11.9c0 2.79 2.26 5.06 5.04 5.06 2.39 0 4.38-1.71 4.84-4.01h2.09c0 .55.45 1 1 1h3.99c.55 0 1-.45 1-1h6.98c.55 0 1-.45 1-1s-.45-1-1-1h-6.98v-2h6.98ZM13.01 23.05v-9.82l5.98-5.01 5.99 5v9.82H13.01Zm14.96 12.96h-2.99c-.55 0-1 .5-1 1.05 0 1.63-1.32 2.95-2.94 2.95S18 38.64 18 36.95v-11.9h2V36c0 .09.03.16.05.24-.04.25-.08.5-.08.76 0 .55.45 1 1 1s1-.45 1-1c0-1.66 1.34-3 2.99-3h3.01v2Zm3.99 1h-2V33h2v4.01ZM21 17.04v1c0 .55-.45 1-1 1h-2c-.55 0-1-.45-1-1v-1c0-.55.45-1 1-1h2c.55 0 1 .45 1 1Z"/></svg>