<svg xmlns="http://www.w3.org/2000/svg" viewBox="0 0 48 48"><title>Rioolwerkzaamheden</title><path d="M18 19.96v1c0 .55-.45 1-1 1h-2c-.55 0-1-.45-1-1v-1c0-.55.45-1 1-1h2c.55 0 1 .45 1 1Zm10.55.36c.32.05.64-.05.87-.28l3.07-3.08h1.47v1.47l-3.07 3.08c-.23.23-.33.56-.28.88.05.32.26.59.55.73.93.44 1.92.66 2.9.66 1.75 0 3.49-.69 4.78-1.98a6.826 6.826 0 0 0 1.6-7.05l1.14-1.15c.39-.39.39-1.03 0-1.42a.996.996 0 0 0-1.41 0l-1.61 1.62c-.3.3-.38.76-.19 1.14.87 1.82.49 4.01-.93 5.44a4.762 4.762 0 0 1-3.96 1.36l2.18-2.19a.99.99 0 0 0 .29-.71v-2.89c0-.55-.45-1-1-1h-2.88c-.27 0-.52.11-.71.29l-2.18 2.19c-.18-1.44.3-2.91 1.36-3.98 1.42-1.43 3.6-1.8 5.42-.93.38.18.83.11 1.13-.2l4.6-4.62c.39-.39.39-1.03 0-1.42a.996.996 0 0 0-1.41 0l-4.14 4.15a6.735 6.735 0 0 0-7.02 1.6 6.818 6.818 0 0 0-1.32 7.72c.14.29.41.5.73.56Zm-9.56 7.66v5.01c.83-.62 1.85-1 2.96-1h6.01c0-.55.45-1 1-1h3.99c.55 0 1 .45 1 1h6.98c.55 0 1 .45 1 1s-.45 1-1 1h-6.98v2h6.98c.55 0 1 .45 1 1s-.45 1-1 1h-6.98c0 .55-.45 1-1 1h-3.99c-.55 0-1-.45-1-1h-5.09c-.46 2.3-2.45 4.01-4.84 4.01-2.78 0-5.04-2.27-5.04-5.06v-8.96H7c-.55 0-1-.45-1-1s.45-1 1-1h1v-8.24l-.35.33a.986.986 0 0 1-1.42-.12l-.02-.02c-.36-.43-.29-1.08.15-1.43l8.39-7.14c.71-.56 1.71-.58 2.43-.03l4.79 4.09v-1.46c0-.55.45-1 1-1s1 .45 1 1v3.09l1.66 1.45c.39.35.43.94.11 1.34a.966.966 0 0 1-1.46.06l-.3-.34v8.43h16.96c.55 0 1 .45 1 1s-.45 1-1 1H18.99Zm10.98 9.01h2v-4.01h-2v4.01Zm-11 0c0 .55-.45 1-1 1s-1-.45-1-1c0-.26.04-.51.08-.76-.02-.08-.05-.16-.05-.24v-8.01h-2v8.96c0 1.68 1.37 3.06 3.04 3.06s2.94-1.33 2.94-2.95c0-.55.45-1.05 1-1.05h5.99v-2h-6.01a3 3 0 0 0-2.99 3Zm3.02-11.02v-9.82l-5.99-5-5.98 5.01v9.82h11.97Z"/></svg>
