<svg xmlns="http://www.w3.org/2000/svg" viewBox="0 0 48 48"><title>Roerende zaakbelasting</title><path d="M30 14.96h1.07a9.55 9.55 0 0 1 0-2h-1.08c-.55 0-1-.45-1-1s.45-1 1-1h1.52c.32-.92.8-1.79 1.43-2.54 2.26-2.69 5.8-3.24 8.61-1.35.46.31.58.93.27 1.39-.31.46-.93.58-1.39.27-1.93-1.3-4.38-.9-5.96.98-.32.38-.57.81-.79 1.26h4.31c.55 0 1 .45 1 1s-.45 1-1 1h-4.93c-.09.66-.09 1.34 0 2h4.92c.55 0 1 .45 1 1s-.45 1-1 1h-4.3c.23.48.5.94.86 1.34 1.6 1.83 3.96 2.19 5.89.89a.999.999 0 0 1 1.39.27c.31.46.19 1.08-.27 1.39a6.328 6.328 0 0 1-3.56 1.11c-1.81 0-3.6-.8-4.96-2.35a8.133 8.133 0 0 1-1.53-2.66h-1.52c-.55 0-1-.45-1-1s.45-1 1-1Zm10 23.03c0 .55-.45 1-1 1H25.85c-.45 1.72-2 2.99-3.85 2.99s-3.4-1.28-3.85-2.99h-4.14c-1.1 0-2-.9-2-2v-11c0-2.21 1.79-4 4-4h4v.02h1.14c2.05-1.47 3.51-3.61 4.1-6.03H21.89c-.37 0-.73.07-1.08.21l-2.37 2.16-.24.16c-.66.3-1.35.46-2.17.46H7.9l.11 2.99H9c.55 0 1 .45 1 1s-.45 1-1 1h-.99a2 2 0 0 1-2-2v-2.99c0-1.1.9-2 2-2h2.21l1.41-5h-.71c-.55 0-1-.45-1-1s.45-1 1-1h8.75c.41 0 .77.24.92.62l1.39 3.38h3.25c1.28 0 2.23 1.2 1.95 2.45-.04.2-.09.39-.15.55-.63 1.85-1.54 3.6-2.88 5.03h3.83v-.02h2.93c2.25 0 4.07 1.82 4.07 4.07v10.93h4c.55 0 1 .45 1 1Zm-20.01-23.6-.99-2.4h-5.3l-1.42 5h3.84c.37 0 .73-.07 1.08-.21l2.37-2.16c.08-.07.16-.13.26-.17.05-.02.1-.03.15-.05Zm4 23.6c0-1.1-.89-1.99-1.99-1.99s-1.99.89-1.99 1.99.89 1.99 1.99 1.99 1.99-.89 1.99-1.99ZM33 26.01c0-1.11-.9-2.01-2.01-2.01H16.03c-1.12 0-2.03.91-2.03 2.03V37h4.14c.45-1.72 2-3 3.85-3s3.41 1.28 3.85 3h7.15V26.01Zm-2 2v3c0 1.1-.9 2-2 2h-4c-1.1 0-2-.9-2-2v-3c0-1.1.9-2 2-2h4c1.1 0 2 .9 2 2Zm-2 0h-4v3h4v-3Z"/></svg>

