<svg xmlns="http://www.w3.org/2000/svg" viewBox="0 0 48 48"><title>Rolstoel</title><path d="M27.85 34.03c-.74 4.08-4.41 7.15-8.74 6.96-4.24-.19-7.79-3.65-8.09-7.89-.28-4.02 2.26-7.5 5.84-8.68a.88.88 0 0 1 1.14.84v.26c0 .39-.26.71-.63.84-2.87 1-4.84 3.96-4.27 7.27.47 2.74 2.74 4.92 5.49 5.3 3.57.49 6.69-1.95 7.3-5.25.07-.4.44-.69.85-.69h.25c.54 0 .96.5.87 1.03ZM20 11c0-2.21 1.79-4 4-4s4 1.79 4 4-1.79 4-4 4-4-1.79-4-4Zm2 0c0 1.1.9 2 2 2s2-.9 2-2-.9-2-2-2-2 .9-2 2Zm9 18h-7.09c-1.05 0-1.91-.86-1.91-1.91V21c0-1.1.9-2 2-2s2 .9 2 2v4.99c0 .55.44 1 .99 1s1-.45 1-1v-5.07c-.04-2.17-1.81-3.93-3.99-3.93s-4 1.79-4 4v6.09a3.91 3.91 0 0 0 3.91 3.91H31c1.1 0 2 .9 2 2v7c0 .55.45 1 1 1s1-.45 1-1v-7c0-2.2-1.79-4-4-4Z"/></svg>

