<svg xmlns="http://www.w3.org/2000/svg" viewBox="0 0 48 48"><title>Schoolkostenregeling</title><path d="M25 22c1.1 0 2-.9 2-2v-6c0-1.1-.9-2-2-2H14c-1.1 0-2 .9-2 2v6c0 1.1.9 2 2 2h11Zm-11-8 11-.02-.04 6.02H14v-6Zm19 16.01V8c0-1.1-.9-2-2-2H8c-1.1 0-2 .9-2 2v32a2 2 0 0 0 2 2h6c.55 0 1-.44 1-.99 0-.56-.45-1.01-1-1.01H8V8h23v22.01h-9.86c-.29.01-.58.1-.82.26l-7.81 5.1a.755.755 0 0 0 0 1.25l7.8 5.13c.26.17.56.26.87.26H40c1.1 0 2-.9 2-2v-8a2 2 0 0 0-2-2h-7ZM21 40l-4-2.61v-2.81L21 32v8Zm19 0H23v-3h17v3Zm0-5H23v-3h17v3Z"/></svg>

