<svg xmlns="http://www.w3.org/2000/svg" viewBox="0 0 48 48"><title>Schoolkostenregeling</title><path d="M41.85 19.51c.31.46.19 1.08-.27 1.39a6.328 6.328 0 0 1-3.56 1.11c-1.81 0-3.6-.8-4.96-2.35A8.133 8.133 0 0 1 31.53 17h-1.52c-.55 0-1-.45-1-1s.45-1 1-1h1.07a9.55 9.55 0 0 1 0-2H30c-.55 0-1-.45-1-1s.45-1 1-1h1.52c.32-.92.8-1.79 1.43-2.54 2.26-2.69 5.8-3.24 8.61-1.35.46.31.58.93.27 1.39-.31.46-.93.58-1.39.27-1.93-1.3-4.38-.9-5.96.98-.32.38-.57.81-.79 1.26H38c.55 0 1 .45 1 1s-.45 1-1 1h-4.93c-.09.66-.09 1.34 0 2h4.92c.55 0 1 .45 1 1s-.45 1-1 1h-4.3c.23.48.5.94.86 1.34 1.6 1.83 3.96 2.19 5.89.89a.999.999 0 0 1 1.39.27ZM14 40H8V8h23c.55 0 1-.45 1-1s-.45-1-1-1H8c-1.1 0-2 .9-2 2v32a2 2 0 0 0 2 2h6c.55 0 1-.44 1-.99 0-.56-.45-1.01-1-1.01Zm28-8v8c0 1.1-.9 2-2 2H21.18c-.31 0-.61-.09-.87-.26l-7.8-5.13s-.08-.06-.11-.09a.755.755 0 0 1 .11-1.16l7.81-5.1c.24-.16.53-.24.82-.24L31 30v-8c0-.55.45-1 1-1s1 .45 1 1v8.01h7c1.11 0 2 .89 2 1.99Zm-21 0-4 2.58v2.81L21 40v-8Zm19 5H23v3h17v-3Zm0-5H23v3h17v-3ZM25 12c1.1 0 2 .9 2 2v6c0 1.1-.9 2-2 2H14c-1.1 0-2-.9-2-2v-6c0-1.1.9-2 2-2h11Zm0 1.98L14 14v6h10.96l.04-6.02Z"/></svg>