<svg xmlns="http://www.w3.org/2000/svg" viewBox="0 0 48 48"><title>Sinterklaas</title><path d="M35.03 6H35h.03Zm6.79 5.02c-.26-1.58-1.21-2.99-2.53-3.78-1.39-.82-2.82-1.24-4.28-1.25-3.84 0-6.96 3-6.96 6.68 0 2.28 1.86 4.29 3.99 4.29 2.25 0 3.76-1.32 3.97-3.41v-.7c0-.56-.44-.99-.99-.99s-.99.44-.99.98-.02.96-.02.96l-.04-.33c-.21 1.15-1.16 1.41-1.98 1.41-1.04 0-2.02-1.11-2.02-2.29 0-2.58 2.27-4.68 5.05-4.68 1.09 0 2.2.33 3.21.95.95.58 1.58 1.53 1.74 2.6.61 4.23-1.45 7.75-5.24 8.95-.43.14-.72.52-.72.94v6.64h-2c-.55 0-1 .45-1 1s.45 1 1 1h2v11c0 .55.45 1 1 1s1-.45 1-1v-11h2c.55 0 1-.45 1-1s-.45-1-1-1h-2v-5.86l.29-.13c4.15-1.89 6.32-6.2 5.52-10.98ZM27.79 22.29c.21.34.27.74.18 1.12l-1.52 10.87c-.14.99-.98 1.72-1.98 1.72H9.82c-.98 0-1.81-.71-1.97-1.67l-1.8-10.92c-.09-.38-.02-.78.18-1.11l9.39-15.54c.31-.51.85-.76 1.38-.76s1.07.25 1.38.76l9.4 15.52Zm-1.81.87L17.01 8.34 8.04 23.16 9.8 33.99h6.22v-9h-4c-.55 0-1-.45-1-1s.45-1 1-1h4v-5c0-.55.45-1 1-1s1 .45 1 1v5h4c.55 0 1 .45 1 1s-.45 1-1 1h-4v9h6.48L26 23.15Z"/></svg>

