<svg xmlns="http://www.w3.org/2000/svg" viewBox="0 0 48 48"><title>Sociaal zorg welzijn</title><path d="m32.49 22.16-.76.8c-.39.41-1.06.41-1.45 0l-.76-.8-.16-.17c-.33-.35-.46-.88-.24-1.31.35-.71 1.2-.81 1.69-.3l.2.21.2-.21c.49-.51 1.34-.42 1.69.3.21.43.09.96-.24 1.31l-.16.17Zm-7.36-10.44a4.52 4.52 0 0 1 5.57-5.57c1.51.4 2.72 1.62 3.12 3.12a4.52 4.52 0 0 1-5.57 5.57 4.446 4.446 0 0 1-3.12-3.12Zm1.91-1.85a2.52 2.52 0 0 0 3.06 3.06c.88-.21 1.6-.93 1.81-1.81a2.52 2.52 0 0 0-3.06-3.06c-.88.21-1.6.93-1.81 1.81Zm-12.88 1.85a4.52 4.52 0 0 1 5.57-5.57c1.51.4 2.72 1.62 3.12 3.12a4.52 4.52 0 0 1-5.57 5.57 4.446 4.446 0 0 1-3.12-3.12Zm1.91-1.85a2.52 2.52 0 0 0 3.06 3.06c.88-.21 1.6-.93 1.81-1.81a2.52 2.52 0 0 0-3.06-3.06c-.88.21-1.6.93-1.81 1.81ZM33 16H15c-2.21 0-4 1.8-4 4.01l.03 9.01c0 1.1.89 1.98 1.99 1.98h.97v10c0 .55.45 1 1 1s1-.45 1-1V29h-3l-.03-9c0-1.1.9-2 2-2H33c1.1 0 2 .9 2 2v9h-3v12c0 .55.45 1 1 1s1-.45 1-1V31h1a2 2 0 0 0 2-2v-9c0-2.21-1.79-4-4-4Zm-8 24.99v-19c0-.55-.45-1-1-1s-1 .45-1 1v19c0 .55.45 1 1 1s1-.45 1-1Z"/></svg>

