<svg xmlns="http://www.w3.org/2000/svg" viewBox="0 0 48 48"><title>Speeltuin</title><path d="M29.5 20c1.93 0 3.5-1.57 3.5-3.5S31.43 13 29.5 13 26 14.57 26 16.5s1.57 3.5 3.5 3.5Zm0-5c.83 0 1.5.67 1.5 1.5s-.67 1.5-1.5 1.5-1.5-.67-1.5-1.5.67-1.5 1.5-1.5ZM27 27c-.55 0-1-.45-1-1v-1c0-2.21 1.79-4 4-4h2c2.76 0 4-2.24 4-5 0-.55.45-1 1-1s1 .45 1 1c0 3.52-1.61 6.43-5 6.92V31c0 .55-.45 1-1 1s-1-.45-1-1v-8h-1c-1.1 0-2 .9-2 2v1c0 .55-.45 1-1 1Zm14 13h-2.47c-.74 0-1.45-.32-1.94-.76L21 23.42V12.9c0-.57-.24-1.11-.66-1.49l-5.56-4.99c-.73-.59-1.77-.59-2.5 0l-5.6 4.99c-.43.38-.67.92-.67 1.49v28.09c0 .55.45 1 1 1s1-.45 1-1v-15h11v15c0 .55.45 1 1 1s1-.45 1-1V26.15l13.88 14.29c1.1 1 2.53 1.55 4.02 1.55h2.1c.55 0 1-.45 1-1s-.45-1-1-1ZM19 24H8V12.96l5.52-4.98L19 12.95v11.04Zm-9-7.5c0 1.93 1.57 3.5 3.5 3.5s3.5-1.57 3.5-3.5-1.57-3.5-3.5-3.5-3.5 1.57-3.5 3.5Zm5 0c0 .83-.67 1.5-1.5 1.5s-1.5-.67-1.5-1.5.67-1.5 1.5-1.5 1.5.67 1.5 1.5Z"/></svg>

