<svg xmlns="http://www.w3.org/2000/svg" viewBox="0 0 48 48"><title>Sportkleding muziekinstrumenten</title><path d="M33 36h2c.55 0 1 .45 1 1s-.45 1-1 1h-2c-.55 0-1-.45-1-1s.45-1 1-1Zm1.05-9.02c-1.1 0-2 .9-2 2s.9 2 2 2 2-.9 2-2-.9-2-2-2Zm7.95 7.8c0 4.62-2.89 7.27-7.94 7.27-6.02 0-7.53-3.54-7.9-5.64-.41-2.33.35-5.08 1.89-6.85.19-.21.21-.27.11-.58a5.82 5.82 0 0 1-.31-1.9c0-2.68 1.81-4.79 4.61-5.39.03 0 .3-.04.54-.08V12c0-.55.45-1 1-1s1 .45 1 1v9.6c.3.04.62.09.67.1 2.43.55 4.12 2.22 4.44 4.36.14.93.07 1.84-.21 2.72-.08.26-.08.49.22.83 1.2 1.4 1.88 3.28 1.88 5.17Zm-2 0c0-1.42-.51-2.83-1.4-3.87-.89-1.04-.82-2.06-.6-2.74.18-.58.23-1.19.14-1.81-.2-1.32-1.27-2.33-2.88-2.7-.07-.01-.24-.04-.45-.07h-1.59c-.17.03-.3.05-.33.06-1.88.4-3.04 1.71-3.04 3.44 0 .46.08.91.23 1.33.3.85.07 1.78-.52 2.46-1.14 1.31-1.73 3.45-1.43 5.19.46 2.65 2.46 3.99 5.93 3.99 3.94 0 5.94-1.77 5.94-5.27ZM25.99 15h-.98v12.01c0 1.1-.9 2-2 2H11a2 2 0 0 1-2-2v-12h-.99c-1.1 0-2-.9-2-2V9.73c0-.85.54-1.61 1.35-1.89l5.16-1.77c.1-.04.21-.05.32-.05h1.2c.45 0 .89.14 1.23.43.45.38 1.2.62 1.73.62s1.26-.24 1.71-.61c.36-.29.81-.44 1.27-.43.67.01 1.46.03 1.52.05l5.15 1.77c.81.28 1.35 1.04 1.35 1.89v3.27c0 1.11-.89 2.01-2 2Zm0-5.27-4.98-1.72h-.97c-.51.59-1.95 1-3.03 1s-2.52-.4-3.03-1h-.97l-5 1.72V13h2c.55 0 1 .45 1 1v13h12V14c0-.55.45-.99 1-1l1.97-.02V9.72Zm-11.98 3.28c0 .55.45 1 1 1h2.79l-2.53 6.64c-.25.65.23 1.36.93 1.36.41 0 .79-.26.93-.64l2.81-7.36h.07v-.51c0-.82-.67-1.49-1.49-1.49h-3.51c-.55 0-1 .45-1 1Z"/></svg>

