<svg xmlns="http://www.w3.org/2000/svg" viewBox="0 0 48 48"><title>Sport culturele activiteit</title><path d="M35.97 21.99c.92 0 1.79-.36 2.44-1.01.65-.65 1.01-1.52 1.01-2.44a3.461 3.461 0 0 0-6.92 0c0 1.91 1.55 3.46 3.46 3.46Zm0-4.91c.8 0 1.46.65 1.46 1.46 0 .39-.15.75-.43 1.03-.28.27-.64.43-1.03.43-.8 0-1.46-.65-1.46-1.46s.65-1.46 1.46-1.46Zm-2.03 15.78c-.24-1.46-1.29-2.52-2.83-2.83l-.1-.02v-8c0-.55-.45-1-1-1s-1 .45-1 1v8l-.1.02c-1.53.32-2.59 1.38-2.83 2.84-.08.52-.06 1.05.07 1.56-.73.86-1.14 1.97-1.14 3.09 0 1.35.49 4.48 5 4.49 4.51 0 5-3.14 5-4.49 0-1.13-.41-2.24-1.14-3.09.13-.51.16-1.04.07-1.56ZM30.01 40c-2.03 0-3.05-.74-3.05-2.49 0-.69.27-1.36.72-1.85.44-.48.59-1.05.39-1.65-.09-.26-.11-.54-.07-.83.1-.62.55-1.05 1.29-1.2h1.44c.74.15 1.19.59 1.29 1.2.05.29.02.57-.07.83-.2.59-.05 1.17.39 1.65.45.49.72 1.16.72 1.85 0 1.74-1.02 2.49-3.05 2.49Zm12-13.94V31c0 1.1-.9 2-2 2v7.99c0 .55-.45 1-1 1s-1-.45-1-1V31h2v-4.94c0-.59-.48-1.06-1.06-1.06h-4.94c-.55 0-1-.45-1-1s.45-1 1-1h4.94a3.06 3.06 0 0 1 3.06 3.06ZM9.99 29.05c0 1.1-.89 1.99-1.99 1.99s-1.99-.89-1.99-1.99.89-1.99 1.99-1.99 1.99.89 1.99 1.99Zm1.47-16.15c.92 0 1.79-.36 2.44-1.01.65-.65 1.01-1.52 1.01-2.44a3.461 3.461 0 0 0-6.92 0c0 1.91 1.55 3.46 3.46 3.46Zm0-4.91c.8 0 1.46.65 1.46 1.46 0 .39-.15.75-.43 1.03-.28.27-.64.43-1.03.43-.8 0-1.46-.65-1.46-1.46s.65-1.46 1.46-1.46ZM23.2 29.47c.32.45.2 1.08-.25 1.39-.17.12-.37.18-.57.18-.32 0-.63-.15-.82-.43l-2.44-3.53c-.15-.22-.21-.5-.16-.76l.67-1.7s0-.02.01-.03l.02-.04c.16-.31.47-.53.85-.53.53 0 .96.43.96.96 0 .13-.47 1.31-.47 1.31l2.2 3.19Zm1.64-11c.3.47.16 1.08-.31 1.38-.17.1-.35.16-.53.16-.33 0-.66-.16-.85-.46l-2.88-4.54h-2.24l3.37 5.01c.61.84.35 2.02-.56 2.52L14 26.28v3.73c0 .55-.45 1-1 1s-1-.45-1-1v-4.27c0-.34.17-.65.45-.83l7.21-3.97-4.02-5.91c-.29.03-.55.18-.71.41l-.71.87 2.37 3.37c.35.46.24 1.13-.25 1.45-.44.28-1.02.18-1.34-.24l-1.98-2.87-1.01 1.57c-.19.27-.49.42-.82.42H7c-.55 0-1-.45-1-1s.45-1 1-1h3.67l2.62-3.72c.56-.8 1.48-1.28 2.46-1.28h5.08c.34 0 .66.18.84.46l3.17 5Z"/></svg>

