<svg xmlns="http://www.w3.org/2000/svg" viewBox="0 0 48 48"><title>Sport</title><path d="M33.98 33.97c-2.21 0-4.02 1.8-4.02 4.02a4.02 4.02 0 1 0 4.02-4.02Zm0 6.03a2.02 2.02 0 1 1 .002-4.042A2.02 2.02 0 0 1 33.98 40Zm-6.73-26.05c2.21 0 4-1.79 4-4s-1.79-4-4-4-4 1.79-4 4 1.79 4 4 4Zm0-6c1.1 0 2 .9 2 2s-.9 2-2 2-2-.9-2-2 .9-2 2-2Zm.26 25.88-2.04 7.42a.99.99 0 0 1-.96.74c-.09 0-.17-.01-.26-.03-.53-.14-.85-.69-.71-1.23l2.04-7.43c.11-.42-.07-.88-.44-1.11l-4.13-2.54c-.06-.04-.12-.08-.17-.13a3.977 3.977 0 0 1-1.1-3.92l2.21-7.94-2.74 1.02c-.1.04-.18.09-.25.14l-1.91 7.4c-.14.53-.69.85-1.22.71s-.85-.69-.71-1.22l1.89-7.42c.17-.64.64-1.16 1.26-1.4l1.35-.51v.03l3.76-1.37c.42-.07 3.47-.48 5.01 1.22 0 0 2.51 2.69 3.42 3.72l4.2.02c.55 0 1 .45 1 1s-.45 1-1 1l-4.63-.02c-.3 0-.58-.13-.78-.35l-2.32-2.52-2.2 7.65a1.014 1.014 0 0 1-1.25.68.993.993 0 0 1-.67-1.24l2.47-8.59c.02-.06.05-.1.08-.15-.62-.47-1.75-.53-2.48-.49l-2.55 9.17c-.18.67 0 1.39.49 1.89l4.03 2.48c1.12.69 1.67 2.06 1.32 3.33Zm-7.33-1.39-1 2a1 1 0 0 1-.89.55h-7.3c-.55 0-1-.45-1-1s.45-1 1-1h6.68l.72-1.45c.25-.49.85-.69 1.34-.45s.69.85.45 1.34Z"/></svg>

