<svg xmlns="http://www.w3.org/2000/svg" viewBox="0 0 48 48"><title>Station sneltrein</title><path d="M12 14.99c1.93 0 3.5-1.57 3.5-3.5s-1.57-3.5-3.5-3.5-3.5 1.57-3.5 3.5 1.57 3.5 3.5 3.5Zm0-5c.83 0 1.5.67 1.5 1.5s-.67 1.5-1.5 1.5-1.5-.67-1.5-1.5.67-1.5 1.5-1.5Zm6 9.07V24c0 1.1-.9 2-2 2v6c0 .55-.45 1-1 1s-1-.45-1-1v-8h2v-4.94c0-.59-.48-1.06-1.06-1.06H9.03c-.57 0-1.02.46-1.02 1.02V24h2v8c0 .55-.45 1-1 1s-1-.45-1-1v-6c-1.1 0-2-.9-2-2v-4.98c0-1.67 1.35-3.02 3.02-3.02h5.91A3.06 3.06 0 0 1 18 19.06ZM35 6h-8c-3.86 0-7 3.14-7 7v10c0 6.07 4.93 11 11 11s11-4.93 11-11V13c0-3.86-3.14-7-7-7Zm5 17c0 4.96-4.04 9-9 9s-9-4.04-9-9V13c0-2.76 2.24-5 5-5h8c2.76 0 5 2.24 5 5v10Zm-12 1.5c0 .83-.67 1.5-1.5 1.5s-1.5-.67-1.5-1.5.67-1.5 1.5-1.5 1.5.67 1.5 1.5ZM35.95 10h-9.93c-1.12 0-2.02.91-2.02 2.02v3.96c0 1.21.68 4.02 7 4.02s7-2.81 7-4.02v-3.93c0-1.13-.92-2.05-2.05-2.05ZM30 17.97c-2.52-.15-4-.87-4-1.99v-3.96s0-.02.02-.02l3.98.02v5.95Zm6-1.99c0 1.12-1.48 1.84-4 1.99v-5.94l4 .02v3.93Zm1 8.52c0 .83-.67 1.5-1.5 1.5s-1.5-.67-1.5-1.5.67-1.5 1.5-1.5 1.5.67 1.5 1.5ZM24.45 36.44l-2.47 5c-.17.34-.52.56-.9.56H21c-.74 0-1.23-.78-.9-1.44l2.47-5c.17-.34.52-.56.9-.56h.08c.74 0 1.23.78.9 1.44Zm17.41 4.11a.997.997 0 0 1-.9 1.44h-.08c-.38 0-.73-.22-.9-.56l-2.47-5a.997.997 0 0 1 .9-1.44h.08c.38 0 .73.22.9.56l2.47 5Z"/></svg>

