<svg xmlns="http://www.w3.org/2000/svg" viewBox="0 0 48 48"><title>Station stoptrein</title><path d="M11.31 14.93c2.46.47 4.59-1.66 4.12-4.12a3.506 3.506 0 0 0-2.75-2.75 3.508 3.508 0 0 0-4.12 4.12 3.506 3.506 0 0 0 2.75 2.75ZM12 10c.83 0 1.5.67 1.5 1.5S12.83 13 12 13s-1.5-.67-1.5-1.5.67-1.5 1.5-1.5Zm6 9.07v4.94c0 1.1-.9 2-2 2v6c0 .55-.45 1-1 1s-1-.45-1-1v-8h2v-4.94c0-.59-.48-1.06-1.06-1.06H9.03c-.57 0-1.02.46-1.02 1.02v4.98h2v8c0 .55-.45 1-1 1s-1-.45-1-1v-6c-1.1 0-2-.9-2-2v-4.98c0-1.67 1.35-3.02 3.02-3.02h5.91A3.06 3.06 0 0 1 18 19.07Zm7.45 17.38-2.47 5c-.17.34-.52.56-.9.56H22c-.74 0-1.23-.78-.9-1.44l2.47-5c.17-.34.52-.56.9-.56h.08c.74 0 1.23.78.9 1.44ZM37 26.5c0 .83-.67 1.5-1.5 1.5s-1.5-.67-1.5-1.5.67-1.5 1.5-1.5 1.5.67 1.5 1.5Zm4.86 14.06a.997.997 0 0 1-.9 1.44h-.08c-.38 0-.73-.22-.9-.56l-2.47-5a.997.997 0 0 1 .9-1.44h.08c.38 0 .73.22.9.56l2.47 5ZM35.47 6h-7.94c-3.61 0-6.54 2.93-6.54 6.54V27.5c0 3.04 2.46 5.5 5.5 5.5h9.99c3.04 0 5.51-2.47 5.51-5.51V12.52c0-3.6-2.92-6.52-6.52-6.52Zm-7.94 2h7.94c1.96 0 3.61 1.26 4.24 3H23.28c.64-1.74 2.3-3 4.25-3Zm12.28 5-4.38 7h-7.89l-4.38-7H39.8Zm.18 14.49c0 1.94-1.57 3.51-3.51 3.51h-9.99c-1.93 0-3.5-1.57-3.5-3.5V16.49l2.86 4.57c.37.58 1.01.94 1.7.94h7.89c.69 0 1.33-.36 1.7-.94L40 16.49V27.5Zm-11-.99c0 .83-.67 1.5-1.5 1.5s-1.5-.67-1.5-1.5.67-1.5 1.5-1.5 1.5.67 1.5 1.5Z"/></svg>

