<svg xmlns="http://www.w3.org/2000/svg" viewBox="0 0 48 48"><title>Stookverbod</title><path d="M29.07 40.94V41c0 .55-.45 1-1 1h-16c-.55 0-1-.45-1-1v-.06c0-.55.45-1 1-1h16c.55 0 1 .45 1 1ZM33 21.95V25h-.03c-.06 2-.49 3.75-1.31 5.55-.89 1.96-2.57 3.88-3.77 4.93-.54.48-1.38.96-2.14 1.34-.73.37-1.56-.25-1.43-1.05l.39-2.42a5.842 5.842 0 0 0 .24-1.66c0-.73-.12-1.39-.35-2.02-.24-.63-.58-1.18-1.03-1.69l-3.08-3.41-3.07 3.4c-.46.52-.8 1.08-1.04 1.7-.24.62-.35 1.28-.35 2.02a5.899 5.899 0 0 0 .24 1.66l.45 2.47c.15.82-.71 1.45-1.44 1.06-.7-.37-1.5-.85-2.19-1.41-1.65-1.33-2.88-2.97-3.77-4.93a14.99 14.99 0 0 1-1.33-6.23c0-1.48.21-3.01.64-4.56.41-1.52 1.01-3.02 1.78-4.47a25.34 25.34 0 0 1 6.41-7.75l1.64-1.32c.66-.53 1.62-.05 1.62.81v2.99c0 1.42.37 2.54 1.12 3.43.23.27.52.49.83.67.03.02.06.02.09.04v.05c.22.19.38.47.38.79 0 .58-.47 1.05-1.05 1.05-.31 0-.58-.14-.77-.35-.35-.25-.68-.56-.98-.91-1.08-1.26-1.62-2.85-1.62-4.76v-.91c-1.24 1-2.36 2.11-3.35 3.32-1 1.21-1.84 2.48-2.55 3.8-.7 1.32-1.24 2.67-1.62 4.05-.38 1.38-.57 2.72-.57 4.03 0 1.91.38 3.71 1.15 5.4s1.84 3.09 3.21 4.21c-.11-.36-.19-.74-.24-1.12-.05-.38-.08-.75-.08-1.12 0-.97.16-1.88.48-2.73s.79-1.62 1.41-2.32l3.82-4.23c.4-.44 1.09-.44 1.49 0l3.82 4.23c.62.7 1.09 1.47 1.41 2.32s.48 1.76.48 2.73c0 .36-.03.74-.08 1.12-.05.38-.13.75-.24 1.12 1.37-1.12 2.44-2.53 3.21-4.21.77-1.68 1.15-3.26 1.15-5.18v-2.58c-3.94-.49-7-3.86-7-7.93 0-4.41 3.59-8 8-8s8 3.59 8 8c0 4.07-3.06 7.44-7 7.93Zm5-7.93c0-3.31-2.69-6-6-6s-6 2.69-6 6 2.69 6 6 6 6-2.69 6-6Zm-2.82-3.18a.996.996 0 0 0-1.41 0L32 12.61l-1.77-1.77a.996.996 0 1 0-1.41 1.41l1.77 1.77-1.77 1.77a.996.996 0 1 0 1.41 1.41L32 15.43l1.77 1.77a.996.996 0 1 0 1.41-1.41l-1.77-1.77 1.77-1.77a.996.996 0 0 0 0-1.41Z"/></svg>

