<svg xmlns="http://www.w3.org/2000/svg" viewBox="0 0 48 48"><title>Strand</title><path d="M9.79 14.94c3.04.47 5.62-2.12 5.16-5.16-.29-1.89-1.84-3.44-3.73-3.73-3.04-.47-5.62 2.12-5.16 5.16.29 1.89 1.84 3.44 3.73 3.73ZM8.08 9.87c.21-.87.93-1.59 1.8-1.8a2.51 2.51 0 0 1 3.05 3.05 2.49 2.49 0 0 1-1.8 1.8 2.51 2.51 0 0 1-3.05-3.05ZM42 36.63c0 .13-.03.25-.08.37s-.12.22-.21.31h-.01c-.12.12-.27.22-.44.28-.69.21-1.3.6-1.99.89-1.35.56-2.82.67-4.23.27-.07-.02-.13-.05-.19-.07-.41-.11-.82-.26-1.23-.48-.59-.31-1.18-.58-1.81-.7-.56-.08-1.11-.02-1.65.13h-.09c-.04.02-.08.06-.12.07-.53.19-1.11-.08-1.3-.61-.19-.51.07-1.08.57-1.28s.02-.01.03-.02c1.12-.41 2.07-.45 3.25-.19.06.01.11.04.16.05.4.09.8.22 1.19.39 1.44.6 2.71 1.37 4.47.65.77-.32 1.44-.74 2.24-.98.05-.02.11-.04.16-.05.03 0 .06-.02.1-.03.06 0 .11-.02.16-.02.55 0 .99.44.99.99v.02Zm-18.46.44c0 .55-.44.99-.99.99-.16 0-.31-.05-.45-.12-.1-.05-.35-.16-.66-.27-.1-.03-.21-.07-.3-.1-.06-.02-.12-.02-.17-.04-1.11-.21-2.04.15-3 .57-.25.13-.51.25-.78.37-1.26.52-2.62.67-3.95.35-.92-.22-1.64-.71-2.5-1.06-1.3-.54-2.33-.26-3.36.17A.998.998 0 0 1 6 37.01v-.07c0-.4.24-.76.61-.92.27-.12.54-.22.83-.31 1.41-.4 2.87-.29 4.23.27.95.39 1.73.98 2.8 1.05 1.11.07 1.95-.45 2.9-.9.03-.02.07-.03.11-.04.31-.14.63-.28.97-.38.21-.06.43-.09.64-.12.12-.02.24-.05.36-.07.13-.01.26-.01.39-.02.25-.02.49-.03.74-.01.31.02.63.05.94.12.16.04.49.15.78.25.26.09.59.17.75.38.29.17.49.47.49.83Zm1.5-8.73 12.88-3.1c.94-.23 1.52-1.17 1.29-2.11a.98.98 0 0 0-.22-.43c-4.01-4.71-10.33-7.16-16.76-5.98v-.04a1.01 1.01 0 0 0-1.21-.74c-.54.13-.87.67-.74 1.21v.04c-6.25 1.88-10.76 6.94-12.19 12.96-.04.16-.04.32 0 .48.23.94 1.17 1.52 2.11 1.29l12.88-3.1 2.99 12.42c.11.45.51.77.97.77.65 0 1.12-.61.97-1.23l-2.99-12.42Zm11.92-4.93-5.2 1.25c-1.16-3.12-3.78-5.08-6.06-6.25 4.23.06 8.28 1.82 11.26 5Zm-26.71 6.44c1.2-4.18 4-7.59 7.75-9.58-1.5 2.08-2.93 5.02-2.55 8.33l-5.2 1.25Zm7.16-1.72c-.28-3.52 2.03-6.66 3.53-8.29l1.69 7.03-5.23 1.26Zm5.48-8.76c2.08.77 5.57 2.51 6.92 5.77l-5.23 1.26-1.69-7.03Z"/></svg>

