<svg xmlns="http://www.w3.org/2000/svg" viewBox="0 0 48 48"><title>Subsidie</title><path d="M24 22c4.42 0 8-3.58 8-8s-3.58-8-8-8-8 3.58-8 8 3.58 8 8 8Zm0-14c1.43 0 2.74.5 3.77 1.34-.06.61-.24 1.08-.55 1.4-.87.91-2.84.87-4.74.83-1.46-.03-2.95-.04-4.12.38C19.2 9.65 21.4 8 23.99 8Zm-5.52 6.19c.53-.69 2.36-.65 3.97-.62 2.23.04 4.74.09 6.22-1.45.26-.27.47-.57.64-.92.44.83.69 1.78.69 2.79 0 3.31-2.69 6-6 6-2.56 0-4.74-1.61-5.6-3.87-.2-.92-.19-1.59.08-1.94ZM37.06 20c2.21 0 4-1.79 4-4s-1.79-4-4-4-4 1.79-4 4 1.79 4 4 4Zm0-6c1.1 0 2 .9 2 2s-.9 2-2 2-2-.9-2-2 .9-2 2-2ZM42 24.18V26c0 .55-.44 1-.99 1s-1-.44-1.01-1v-1.74c0-.64-.62-1.25-1.28-1.25l-3.75-.02c-.55 0-1-.45-1-1s.45-1 1-1h3.76c1.76 0 3.25 1.46 3.25 3.18ZM34.01 26c-4.41 0-8 3.59-8 8s3.59 8 8 8 8-3.59 8-8-3.59-8-8-8Zm0 14c-3.31 0-6-2.69-6-6s2.69-6 6-6 6 2.69 6 6-2.69 6-6 6Zm-1.58-7h2.56c.55 0 1 .45 1 1s-.45 1-1 1h-2.57c.25.62.71 1.13 1.35 1.36.48.18 1.01.18 1.49 0 .52-.19 1.09.07 1.29.58.2.52-.07 1.09-.58 1.29-.47.18-.96.26-1.45.26s-.98-.09-1.45-.26c-1.42-.54-2.39-1.79-2.71-3.23H30c-.55 0-1-.45-1-1s.45-1 1-1h.37c.04-.16.06-.32.11-.48.39-1.17 1.2-2.1 2.28-2.61 1.02-.49 2.17-.53 3.22-.14.52.2.78.77.58 1.29-.2.52-.77.78-1.29.58-.54-.2-1.13-.18-1.65.07-.53.25-.94.71-1.17 1.29Zm-5.42 8c0 .55-.45 1-1 1h-8.03c-1.1 0-2-.89-2-1.99 0-.52 0-.95.03-.98l-2-.02c-1.1 0-1.98-.9-1.98-2v-8c-.01-3.18 2.7-6.01 5.99-6.01h12c.55 0 1 .45 1 1s-.45 1-1 1h-12c-2 0-4.01 2.05-4.01 3.96v8.02l2.01.02v-6.94c0-.55.45-.99 1-.99s.99.44.99.99V40h8.01c.55 0 1 .45 1 1Zm-14-18.02L9.29 23c-.65 0-1.27.6-1.27 1.24v4.77a1 1 0 0 1-1 .99H7c-.55 0-.99-.45-.99-1v-4.83c0-1.72 1.51-3.18 3.29-3.18h3.72c.55 0 .99.44.99.99s-.44.99-.99.99Zm-2-2.98c2.21 0 4-1.79 4-4s-1.79-4-4-4-4 1.79-4 4 1.79 4 4 4Zm0-6c1.1 0 2 .9 2 2s-.9 2-2 2-2-.9-2-2 .9-2 2-2Z"/></svg>

