<svg xmlns="http://www.w3.org/2000/svg" viewBox="0 0 48 48"><title>Temperatuur melding</title><path d="M16.07 6C11.62 6 8 9.62 8 14.07s3.62 8.07 8.07 8.07 8.07-3.62 8.07-8.07S20.52 6 16.07 6Zm0 14.14c-3.35 0-6.07-2.72-6.07-6.07S12.72 8 16.07 8s6.07 2.72 6.07 6.07-2.72 6.07-6.07 6.07ZM16 15c-.55 0-1-.45-1-1v-3c0-.55.45-1 1-1s1 .45 1 1v3c0 .55-.45 1-1 1Zm.8 1.38c.19.19.28.43.28.72s-.09.53-.28.72c-.19.19-.43.28-.72.28s-.54-.09-.72-.28c-.19-.19-.28-.43-.28-.72s.09-.53.28-.72c.19-.19.43-.28.72-.28s.54.09.72.28Zm21.21 14.07V11c0-2.8-2.2-5-5.01-5s-5 2.2-5 5v19.35c-1.29 1.34-1.97 2.94-1.97 4.66 0 3.79 3.2 6.99 6.99 6.99S40 38.87 40 35.02c0-1.62-.69-3.2-1.99-4.58Zm-4.99 9.56c-2.71 0-4.99-2.29-4.99-4.99 0-1.62.91-2.8 1.67-3.5l.32-.3V11c-.01-1.68 1.3-3 2.99-3s3 1.32 3 3v20.28l.31.29c.77.74 1.69 1.94 1.69 3.45 0 2.7-2.28 4.98-4.98 4.98Zm.98-7.82V18.04c0-.56-.45-1.01-1.01-1.01s-1.01.45-1.01 1.01v14.17c-1.13.43-1.95 1.51-1.95 2.8 0 1.66 1.34 3 3 3s3-1.34 3-3c0-1.31-.85-2.42-2.03-2.83Zm-1 3.82c-.55 0-1-.45-1-1s.45-1 1-1 1 .45 1 1-.45 1-1 1Z"/></svg>

