<svg xmlns="http://www.w3.org/2000/svg" viewBox="0 0 48 48"><title>Thuiswerken</title><path d="M21.7 19.26a.996.996 0 1 1-1.41 1.41l-3.27-3.27v1.72c0 .55-.45 1-1 1s-1-.45-1-1v-3.11c0-1.1.9-2 2-2h3.11c.55 0 1 .45 1 1s-.45 1-1 1h-1.68l3.26 3.26ZM41.79 31.6c-.32.45-.95.55-1.4.23l-.39-.28V37c0 1.1-.9 2-2 2h-8c-1.1 0-2-.9-2-2v-5.47l-.43.31a.98.98 0 0 1-.58.19.97.97 0 0 1-.81-.42c-.32-.45-.22-1.07.23-1.4l7-5.02c.35-.25.82-.25 1.17 0l.42.3V11.93c0-.52-.42-.93-.93-.93H12.93c-.52 0-.93.42-.93.93V27h13c.55 0 1 .45 1 1s-.45 1-1 1H12l-4 4h17c.55 0 1 .45 1 1s-.45 1-1 1H8c-.81 0-1.54-.49-1.85-1.24a2 2 0 0 1 .43-2.18l3.41-3.41V11.93C9.99 10.31 11.3 9 12.92 9h21.13c1.62 0 2.93 1.31 2.93 2.93v14.98l.99.72v-.91c0-.55.45-.99 1-.99s1 .45 1 1v2.35l1.56 1.12c.45.32.55.95.23 1.4ZM38 30.11l-4.01-2.88L30 30.09V37h8v-6.89Z"/></svg>

