<svg xmlns="http://www.w3.org/2000/svg" viewBox="0 0 48 48"><title>Toegankelijkheid</title><path d="M24 18c1.93 0 3.5-1.57 3.5-3.5S25.93 11 24 11s-3.5 1.57-3.5 3.5S22.07 18 24 18Zm0-5c.83 0 1.5.67 1.5 1.5S24.83 16 24 16s-1.5-.67-1.5-1.5.67-1.5 1.5-1.5Zm8.54 5.1c-.09.04-1.9.9-6.52.91H21.99c-4.58 0-6.43-.87-6.52-.91a1.028 1.028 0 0 0-1.37.43c-.12.22-.14.48-.06.72.08.25.26.46.51.58.21.1 1.68.9 5.67 1.13h.63L19 34.86c-.07.55.31 1.05.86 1.12h.13c.49 0 .92-.37.99-.87l.82-6.13h4.38l.82 6.13c.07.5.5.87.99.87h.13a1 1 0 0 0 .86-1.12l-1.85-13.89h.64c4.01-.25 5.46-1.04 5.67-1.14.24-.12.42-.32.5-.57.08-.24.06-.49-.05-.72-.23-.46-.87-.68-1.36-.45ZM22.07 27l.8-6h2.25l.8 6h-3.85Zm1.91-21C14.05 6 6 14.06 6 24s8.05 18 17.98 18S42 33.94 42 24 33.94 6 23.98 6Zm0 33.98c-8.8 0-15.96-7.17-15.96-15.98S15.18 8.02 23.98 8.02s16 7.17 16 15.98-7.18 15.98-16 15.98Z"/></svg>

