<svg xmlns="http://www.w3.org/2000/svg" viewBox="0 0 48 48"><title>Toeslag</title><path d="M38 8v17.88H27.41c-.27 0-.52.11-.71.29l-2.71 2.71V26.9c0-.55-.45-1-1-1h-3L19.96 8h18.03m0-2H19.96c-.53 0-1.04.21-1.42.59-.38.38-.59.89-.58 1.42l.03 17.89c0 1.1.9 1.99 2 2h2v3.4c0 .89 1.07 1.33 1.7.71l4.13-4.12h10.17c1.1 0 2-.9 2-2V8c0-1.1-.9-2-2-2ZM12.53 36.02a4.511 4.511 0 0 0 0-9.02 4.511 4.511 0 0 0 0 9.02Zm0-7.02c1.38 0 2.51 1.13 2.51 2.51s-1.13 2.51-2.51 2.51-2.51-1.13-2.51-2.51S11.15 29 12.53 29Zm3.52 8H8.99c-1.66 0-3 1.34-3 3v1c0 .55.45 1 1 1s1-.45 1-1v-1c0-.36.18-.6.29-.71.11-.11.35-.29.71-.29h7.06c.34 0 .94.63.94 1v1c0 .55.45 1 1 1s1-.45 1-1v-1c0-1.45-1.48-3-2.94-3Zm14.06-25c.79 0 1.55.32 2.2.93.4.38 1.04.36 1.41-.04.38-.4.36-1.04-.04-1.41-1.02-.96-2.26-1.47-3.57-1.47-2.31 0-4.3 1.64-5.23 4h-.89c-.55 0-1 .45-1 1s.45 1 1 1h.38c-.04.33-.07.66-.07 1s.03.67.07 1h-.38c-.55 0-1 .45-1 1s.45 1 1 1h.89c.93 2.36 2.93 4 5.23 4 1.31 0 2.54-.51 3.56-1.47a.996.996 0 1 0-1.37-1.45c-.65.61-1.41.93-2.2.93-1.24 0-2.33-.79-3.02-2h2.9c.55 0 1-.45 1-1s-.45-1-1-1h-3.6c-.05-.32-.08-.66-.08-1s.03-.68.08-1h3.6c.55 0 1-.45 1-1s-.45-1-1-1h-2.9c.69-1.21 1.78-2 3.02-2Z"/></svg>

