<svg xmlns="http://www.w3.org/2000/svg" viewBox="0 0 48 48"><title>Trouwen en geregistreerd partnerschap</title><path d="m34.31 14.51 1.79-3.08c.48-.82.31-1.87-.41-2.5l-1.61-1.42c-.37-.32-.84-.5-1.32-.5h-3.53c-.49 0-.96.18-1.33.51l-1.6 1.42c-.7.63-.87 1.66-.41 2.48l1.76 3.12c-1.78.57-3.41 1.59-4.71 2.98a.996.996 0 1 0 1.46 1.36c1.7-1.83 4.1-2.87 6.59-2.87 4.96 0 9 4.04 9 9s-4.04 9-9 9-9-4.04-9-9c0-.77.1-1.54.29-2.28a8.92 8.92 0 0 1 3.1 4.03c.38.98.58 2 .61 3.04.01.54.46.98 1 .98h.02c.55-.01.99-.47.98-1.02-.03-1.28-.28-2.53-.74-3.72a10.92 10.92 0 0 0-5.81-6.09 10.928 10.928 0 0 0-8.42-.2c-2.74 1.06-4.9 3.12-6.09 5.81s-1.26 5.68-.2 8.42a10.92 10.92 0 0 0 5.81 6.09 10.931 10.931 0 0 0 8.41.19 11.04 11.04 0 0 0 5.75-5.12c1.31.56 2.76.86 4.27.86 6.07 0 11-4.93 11-11 0-4.91-3.24-9.08-7.69-10.49ZM29.23 9h3.53l1.61 1.42L32.3 14c-.48-.05-.96-.08-1.45-.08-.41 0-.81.02-1.21.06l-2-3.55 1.6-1.42Zm-8.98 29.39c-2.24.87-4.69.81-6.89-.16a8.898 8.898 0 0 1-4.75-4.98c-.87-2.24-.81-4.69.16-6.89.97-2.2 2.74-3.89 4.98-4.75 2.2-.85 4.59-.81 6.76.11-.33 1.06-.51 2.16-.51 3.28 0 3.84 1.98 7.22 4.97 9.19a9.087 9.087 0 0 1-4.72 4.21Z"/></svg>

