<svg xmlns="http://www.w3.org/2000/svg" viewBox="0 0 48 48"><title>Uw gemeente</title><path d="M23.5 15H21v-4h1v3h1.5v1Zm1.5-1.08.37-.4.82 1.48h1.12l-1.32-2.23L27.31 11h-1.17l-.83 1.25-.31.52v-1.76h-1v4h1v-1.08Zm-4.48.06h-1.65v-.59h1.47v-.88h-1.47v-.52h1.73v-.98h-2.59v3.97h2.52v-1.01Zm12.47-.52L32.01 11H31v4h1v-.96l-.03-1.07.71 2.03h.67l.69-2.03-.05 1.07V15h1v-4h-1.25l-.77 2.46Zm-5.85-.54c0-.38.08-.72.22-1.01.14-.29.34-.52.61-.68.26-.16.56-.24.9-.24s.63.08.89.24c.26.16.47.38.61.67.14.29.14.62.23 1v.18c0 .38-.08.72-.22 1.01-.14.29-.35.52-.61.68-.26.16-.56.24-.89.24s-.63-.08-.89-.23c-.26-.15-.46-.37-.61-.65s-.23-.61-.23-.98v-.22Zm.97.16c0 .38.06.67.19.88.13.2.31.31.56.31s.45-.1.58-.3c.13-.2.23-.49.23-.87v-.18c0-.39-.1-.68-.23-.88-.13-.2-.33-.3-.57-.3-.47 0-.73.35-.76 1.06v.29ZM39 10v24c0 2.21-1.79 4-4 4H25v3c0 .55-.45 1-1 1s-1-.45-1-1v-3H13c-2.21 0-4-1.79-4-4V10c0-2.21 1.79-4 4-4h22c2.21 0 4 1.79 4 4Zm-2 0c0-1.1-.9-2-2-2H13c-1.1 0-2 .9-2 2v23.99c0 1.1.9 2 2 2h22c1.1 0 2-.9 2-2V10ZM17 26c.55 0 1-.45 1-1s-.45-1-1-1-1 .45-1 1 .45 1 1 1Zm-2.19-11.01.51-2.22.52 2.22h.98l.83-3.97h-.94l-.45 2.44-.55-2.44h-.8l-.54 2.44-.45-2.44h-.94l.83 3.97h.98ZM35 24.46V32c0 1.1-.9 2-2 2H15c-1.1 0-2-.9-2-2v-8.01c0-.38.11-.76.32-1.08l2-3.09.84-1.29a1 1 0 0 1 1.68 0l.84 1.29 2 3.08c.21.32.32.7.32 1.09v1h3.23c.27-.51.61-.86.97-1.11a3.871 3.871 0 0 1 3.43-2.52 3.85 3.85 0 0 1 3.07-.9c1.93.27 3.31 2.03 3.31 3.98Zm-9.01 1.47L29 28.99v3h4v-7.62c0-.89-.59-1.71-1.46-1.89-.91-.19-1.72.28-2.07 1.01-.2-.08-.42-.12-.66-.12-1.03 0-1.86.83-1.86 1.86v.06c-.59.15-.79.31-.97.64ZM21 29.83V32h6v-2.18l-2.95-3.01L21 29.83ZM15 24v8h4v-3l2.02-2H19v-3l-2-3.08L15 24Z"/></svg>

