<svg xmlns="http://www.w3.org/2000/svg" viewBox="0 0 48 48"><title>Uw wijk</title><path d="M31 18c-.83 0-1.5-.67-1.5-1.5S30.17 15 31 15s1.5.67 1.5 1.5S31.83 18 31 18ZM16 37h-6c-2.2 0-4 1.8-4 4 0 .55.45 1 1 1s1-.45 1-1c0-1.1.9-2 2-2h6c1.1 0 2 .9 2 2 0 .55.45 1 1 1s1-.45 1-1c0-2.2-1.8-4-4-4Zm-7.45-4.79c-.47-3.04 2.12-5.62 5.16-5.16 1.9.29 3.44 1.84 3.73 3.73.47 3.04-2.12 5.62-5.16 5.16-1.9-.29-3.44-1.84-3.73-3.73Zm4.97 1.94c1.06-.2 1.92-1.07 2.12-2.12.36-1.9-1.28-3.54-3.18-3.18-1.06.2-1.92 1.06-2.12 2.12a2.709 2.709 0 0 0 3.18 3.18ZM39.99 21h-3v-5.86c0-.38-.11-.76-.32-1.09L31.8 6.41a1 1 0 0 0-1.63 0l-4.86 7.63c-.21.33-.32.72-.32 1.11v1.87l-2.22-1.63c-.35-.25-.77-.39-1.2-.39H7c-.95 0-1.36 1.19-.62 1.78l5.62 4.2V24c0 .55.45 1 1 1s1-.45 1-1v-3.48a1 1 0 0 0-.41-.81l-3.72-2.72H21.6l3.41 2.51v1.49c0 .55.45 1 1 1s1-.45 1-1v-5.81l4-6.47 4 6.46v5.81a2 2 0 0 0 2 2h3v15c0 .55.45 1 1 1s1-.45 1-1v-15c0-1.1-.9-2-2-2Zm-3.77 9.18-1.23-1.1v-3.11c0-.54-.44-.98-.98-.98h-.05c-.54 0-.98.44-.98.98v1.54l-4.68-3.83c-.75-.61-1.83-.6-2.56.02l-5.76 4.9-.74.59a.95.95 0 0 0-.26.65v5.15c0 .55.45 1 1 1s1-.45 1-1v-4.76l5.99-4.79 6.01 4.74v9.81H22.94c-.55 0-1 .45-1 1s.45 1 1 1h10.03c1.11 0 2.01-.9 2.01-2.01v-8.4l.69.73c.41.43 1.18.48 1.55.02l.14-.61c0-.69-.64-1.09-1.15-1.55ZM27.99 36c.55 0 1-.45 1-1v-1c0-.55-.45-1-1-1h-2c-.55 0-1 .45-1 1v1c0 .55.45 1 1 1h2Z"/></svg>

