<svg xmlns="http://www.w3.org/2000/svg" viewBox="0 0 48 48"><title>Vacatures</title><path d="M39.07 12H30V9c0-1.1-.9-2-2-2h-8c-1.1 0-2 .9-2 2v3H8.93C7.31 12 6 13.31 6 14.93V22c0 .88.39 1.65 1 2.19v13.76A3.05 3.05 0 0 0 10.05 41h27.91a3.05 3.05 0 0 0 3.05-3.05V24.19c.61-.54 1-1.31 1-2.19v-7.07c0-1.62-1.31-2.93-2.93-2.93ZM20 9h8v3h-8V9Zm19 28.95c0 .58-.47 1.05-1.05 1.05h-27.9C9.47 39 9 38.53 9 37.95V24.93L21 27v1c0 1.1.9 2 2 2h2c1.1 0 2-.9 2-2v-1l12-2.07v13.02ZM23 28v-3h2v3h-2Zm17-6c0 .48-.53.82-.97.9-.44.08-12.03 2.07-12.03 2.07 0-1.09-.88-1.97-1.97-1.97h-2.06c-1.09 0-1.97.88-1.97 1.97S8.99 22.9 8.99 22.9c-.54-.13-.99-.55-.99-.9v-7.07c0-.51.42-.93.93-.93h30.14c.51 0 .93.42.93.93V22Z"/></svg>

