<svg xmlns="http://www.w3.org/2000/svg" viewBox="0 0 48 48"><title>Vaccinatie</title><path d="m41.66 10.56-4.24-4.24a.996.996 0 1 0-1.41 1.41l1.41 1.41-4.67 4.67-1.44-1.44a1.97 1.97 0 0 0-2.78 0l-.02.02-14.19 14.16c-.59.59-.77 1.49-.4 2.25.38.8.93 1.74 1.5 2.36-.01.01-.03.01-.04.02l-9.11 9.11a.996.996 0 1 0 1.41 1.41l9.11-9.11s.02-.04.04-.06c.54.51 1.36 1.02 2.1 1.41s1.73.28 2.36-.34l14.27-14.12.04-.04c.77-.77.77-2.02 0-2.79l-1.44-1.44 4.67-4.67 1.41 1.41a.996.996 0 1 0 1.41-1.41ZM20.02 32.2c-.43-.1-1.48-.67-2.64-1.83l-.09-.09c-1.09-1.12-1.52-1.99-1.58-2.32.02-.02 1.04-1.02 2-1.95h8.52l-6.2 6.2Zm14.14-14.14L28.22 24h-8.3l2.94-3.11 1.41 1.41a.996.996 0 1 0 1.41-1.41l-1.41-1.41 2.12-2.12 1.41 1.41a.996.996 0 1 0 1.41-1.41l-1.41-1.41 2.12-2.12 4.24 4.24Z"/></svg>

