<svg xmlns="http://www.w3.org/2000/svg" viewBox="0 0 48 48"><title>Veerboot</title><path d="M25 14.01h5v3h-5v-3Zm-7 0h5v3h-5v-3Zm5 11v-2.02l-.67-2.19c-.15-.47-.55-.78-1-.78h-3.65c-.45 0-.86.32-1 .79L16 23v2.02c0 .55.45 1 1 1s1-.45 1-1h3c0 .55.45 1 1 1s1-.45 1-1Zm-5.54-2 .53-1.57h3l.53 1.57h-4.06Zm14.54 2v-2.02l-.67-2.19c-.15-.47-.55-.78-1-.78h-3.65c-.45 0-.86.32-1 .79L25 23v2.02c0 .55.45 1 1 1s1-.45 1-1h3c0 .55.45 1 1 1s1-.45 1-1Zm-5.54-2 .53-1.57h3l.53 1.57h-4.06Zm14.99 13.77c.34.16.54.52.54.89v.11c0 .72-.74 1.22-1.39.92-.22-.1-.44-.2-.67-.29-.64-.25-1.27-.37-1.91-.37-.92 0-1.82.25-2.69.72-1.44.77-2.95 1.2-4.47 1.2-1.27 0-2.55-.3-3.79-.96-.99-.53-1.99-.98-3.11-.98-.16 0-.33 0-.5.03-1.25.15-2.17.84-3.29 1.3-1.03.43-2.11.66-3.2.66-.6 0-1.21-.07-1.81-.21-1.16-.28-2.09-.9-3.17-1.35a4.6 4.6 0 0 0-1.8-.37c-1 0-1.89.34-2.81.74-.66.29-1.4-.2-1.4-.92v-.18c0-.38.21-.74.56-.9.41-.19.82-.36 1.26-.48.72-.2 1.45-.3 2.18-.3 1.08 0 2.16.22 3.18.65 1.2.5 2.19 1.24 3.55 1.33h.25c1.29 0 2.29-.61 3.43-1.15a8.46 8.46 0 0 1 3.62-.84c.55 0 1.1.06 1.65.18 1.32.29 2.34 1.03 3.57 1.48.58.21 1.15.31 1.72.31.94 0 1.86-.27 2.74-.74 1.4-.75 2.94-1.18 4.47-1.18 1.12 0 2.24.23 3.3.73Zm-4.92-9.77h-.22l-1.29-8h.99c.56 0 1.01-.45 1-1.01 0-.55-.45-.99-1-.99H32v-3c0-1.1-.9-2-2-2h-1v-2h1c.55 0 1-.45 1-1s-.45-1-1-1h-4c-.55 0-1 .45-1 1s.45 1 1 1h1v2h-9c-1.1 0-2 .9-2 2v3h-4c-.55 0-1 .45-1 1s.45 1 1 1h.97l-1.24 8h-.24c-1.28 0-2.23 1.18-1.96 2.43l.98 4.47c.1.38.42.64.81.69h.05c.65.08 1.2-.49 1.04-1.13L11.57 29h24.87l-.89 4.45c-.17.65.39 1.23 1.05 1.14.06 0 .12-.02.17-.02.38-.05.7-.31.8-.69l.93-4.47c.26-1.24-.69-2.41-1.96-2.41Zm-21.53-8h18l1.29 8H13.76l1.24-8Z"/></svg>

