<svg xmlns="http://www.w3.org/2000/svg" viewBox="0 0 48 48"><title>Veilige wijk</title><path d="M25.45 36c-.25 0-.45-.2-.45-.45v-2.11c0-.25.2-.45.45-.45h3.11c.25 0 .45.2.45.45v2.11c0 .25-.2.45-.45.45h-3.11ZM35 29.12v-3.14c0-.54-.44-.98-.98-.98h-.05c-.54 0-.98.44-.98.98v1.54l-4.72-3.74c-.73-.58-1.76-.57-2.49 0l-3.95 3.18c-.39.32-.49.88-.23 1.31.32.53 1.02.65 1.5.27l3.9-3.1 5.99 4.74v9.8h-12c0-.56-.45-1.01-1-1.01s-1 .45-1 1v.55c0 .8.65 1.45 1.45 1.45h13.11c.8 0 1.44-.65 1.44-1.44v-8.88l1.02.8c.43.34 1.06.27 1.4-.17a.992.992 0 0 0-.17-1.4l-2.26-1.79Zm-23.37 7.43c.17.17.46.17.63 0l4-4a.984.984 0 0 0 0-1.4.984.984 0 0 0-1.4 0l-2.91 2.91-.84-.83c-.39-.38-1.01-.38-1.4 0a.996.996 0 0 0 0 1.41l1.91 1.91ZM42 23v15c0 .55-.45 1-1 1s-1-.45-1-1V23h-3.55c-.8 0-1.45-.65-1.45-1.45v-6.36l-4-6.46-4 6.47v5.81c0 .55-.45 1-1 1s-1-.45-1-1v-1.57c-.13-.05-3.41-2.43-3.41-2.43H9.86l3.54 2.59c.37.27.59.7.59 1.16v5.25h4.02c1.1 0 1.98.89 1.98 1.99v5.5c0 3.65-2.23 6.48-6.6 8.41l-.39.1-.42-.1c-4.44-1.96-6.6-4.67-6.6-8.29 0 0 0-3.39.01-5.64 0-1.09.89-1.97 1.98-1.97H12v-5.02l-5.64-4.2c-.74-.59-.32-1.78.62-1.78h15.11c.09.03.17.06.26.09l2.64 1.94v-1.89c.11-.37.21-.71.31-1.07l4.87-7.64a1 1 0 0 1 1.63 0l4.87 7.64c.11.36.21.71.31 1.07v5.86h3a2 2 0 0 1 2 2ZM8 28l-.03 5.61c0 2.67 1.6 4.67 5.02 6.27 3.38-1.59 5.02-3.68 5.02-6.4l.03-5.48H8.01Zm24.5-11.5c0-.83-.67-1.5-1.5-1.5s-1.5.67-1.5 1.5.67 1.5 1.5 1.5 1.5-.67 1.5-1.5Z"/></svg>

