<svg xmlns="http://www.w3.org/2000/svg" viewBox="0 0 48 48"><title>Vergoeding energiekosten</title><path d="m34.82 12.52 3.29-5.96a1.086 1.086 0 0 1 1.9 1.05L37.58 12h2.73c.76 0 1.24.82.88 1.48l-3.29 5.96c-.19.34-.55.56-.95.56h-.14c-.76 0-1.24-.82-.88-1.48l2.5-4.52H35.7c-.76 0-1.24-.82-.88-1.48ZM22 21c0-2.76 2.24-5 5-5s5 2.24 5 5-2.24 5-5 5-5-2.24-5-5Zm2 0c0 1.66 1.34 3 3 3s3-1.34 3-3-1.34-3-3-3-3 1.34-3 3Zm16.42 17.96-12.65 2.91c-.84.19-1.73.17-2.57-.05l-11-2.77H14c0 1.1-.9 2-2 2H8c-1.1 0-2-.9-2-2v-10c0-1.1.9-2 2-2h4.05c.73 0 1.35.41 1.68 1H14v-.02l5.81-.87c.4-.08.81-.05 1.19.07l6.8 2.28c.65-2.01 2.51-3.48 4.74-3.48 2.76 0 5 2.24 5 5 0 1.13-.39 2.16-1.03 3h1.33c2.07 0 3.8 1 4.11 2.66.19 1.01-.52 2.04-1.53 2.27ZM12 29.04H8v10h4v-10Zm17.68 1.12C32 31.24 32 34.02 32 34.02h.56c1.64-.01 2.97-1.35 2.97-3s-1.35-3-3-3a3 3 0 0 0-2.86 2.14Zm10.23 7.15c-.08-.72-1.36-1.27-2.14-1.27l-10.85-.02c-.78 0-1.55-.11-2.31-.33l-2.17-.63a.997.997 0 0 1-.67-1.27v-.02c.17-.51.72-.8 1.23-.65l2.32.67c.51.14 4.67.22 4.67.22 0-.7-.64-1.81-1.41-2.07l-8-2.82c-.16-.06-1.33-.07-1.49-.04l-5.09.95v7l12.69 2.99 13.22-2.72Z"/></svg>

