<svg xmlns="http://www.w3.org/2000/svg" viewBox="0 0 48 48"><title>Vergunning algemeen</title><path d="m30.8 18.2-7.11 7.11c-.38.38-1 .38-1.38 0l-4.26-4.26a.99.99 0 0 1 0-1.39c.38-.38 1-.38 1.38 0l3.56 3.54 6.41-6.41c.38-.38 1-.38 1.38 0l.02.02c.38.38.38 1 0 1.38ZM38 7.97v32.05c0 1.09-.89 1.98-1.98 1.98H19.83c-.53 0-1.04-.21-1.41-.59l-7.83-7.83c-.38-.38-.59-.88-.59-1.41V7.97C10 6.88 10.88 6 11.97 6h24.05c1.09 0 1.97.88 1.97 1.97ZM19 33h-6.13L19 39.13V33Zm17 7V8H12v23h7.01c1.1 0 1.99.89 1.99 1.99V40h15Z"/></svg>

