<svg xmlns="http://www.w3.org/2000/svg" viewBox="0 0 48 48"><title>Vergaderen digitaal</title><path d="M36.94 26.01v1c0 .55-.45 1-1 1s-1-.45-1-1v-1c0-.36-.6-1-.94-1h-5c-.36 0-.6.18-.71.29-.11.11-.29.35-.29.71v1c0 .55-.45 1-1 1s-1-.45-1-1v-1c0-1.66 1.34-3 3-3h5c1.46 0 2.94 1.55 2.94 3ZM27 17.5a4.511 4.511 0 0 1 9.02 0 4.511 4.511 0 0 1-9.02 0Zm2 0c0 1.38 1.13 2.51 2.51 2.51s2.51-1.13 2.51-2.51-1.13-2.51-2.51-2.51S29 16.12 29 17.5Zm13-6.52V30c0 1.66-1.34 3-3 3l-11.29-.02v1.71c0 1.81 1.48 3.29 3.29 3.29l1 .02c.55 0 1 .45 1 1s-.45 1-1 1H16c-.55 0-1-.45-1-1s.45-1 1-1l.71-.02c1.81 0 3.29-1.48 3.29-3.29v-1.71L9 33c-1.66 0-3-1.34-3-3V10.98c0-1.66 1.34-3 3-3h30c1.66 0 3 1.34 3 3ZM25.71 34.69v-1.71H22v1.71c0 1.25-.45 2.38-1.18 3.29h6.07c-.73-.91-1.18-2.04-1.18-3.29ZM40 10.99c0-.55-.45-1-1-1H9c-.55 0-1 .45-1 1v19.02c0 .55.45 1 1 1h30c.55 0 1-.45 1-1V11ZM19.06 23.01h-5c-1.66 0-3 1.34-3 3v1c0 .55.45 1 1 1s1-.45 1-1v-1c0-.36.18-.6.29-.71.11-.11.35-.29.71-.29h5c.34 0 .94.63.94 1v1c0 .55.45 1 1 1s1-.45 1-1v-1c0-1.45-1.48-3-2.94-3Zm-7-5.51a4.511 4.511 0 0 1 9.02 0 4.511 4.511 0 0 1-9.02 0Zm2 0c0 1.38 1.13 2.51 2.51 2.51s2.51-1.13 2.51-2.51-1.13-2.51-2.51-2.51-2.51 1.13-2.51 2.51Z"/></svg>

