<svg xmlns="http://www.w3.org/2000/svg" viewBox="0 0 48 48"><title>Vergaderen</title><path d="M15.03 14c2.21 0 4-1.79 4-4s-1.79-4-4-4-4 1.79-4 4 1.79 4 4 4Zm0-6c1.1 0 2 .9 2 2s-.9 2-2 2-2-.9-2-2 .9-2 2-2Zm11.96 11c0-2.21 1.79-4 4-4H35c2.2 0 4 1.79 4 4v2c0 .55-.45 1-1 1s-1-.45-1-1v-2c0-1.1-.9-2-2-2h-4.01c-1.1 0-2 .9-2 2 0 .55-.45 1-1 1s-1-.45-1-1Zm15 8.5c0 .76-.32 1.89-1.82 3-.45.33-1.07.23-1.4-.21a.996.996 0 0 1 .21-1.4c.46-.34 1.01-.86 1.01-1.39 0-1.83-6.23-4.5-16-4.5s-16 2.67-16 4.5c0 .59.68 1.16 1.09 1.45a1.006 1.006 0 0 1-.58 1.82c-.2 0-.4-.06-.58-.19C6.33 29.44 6 28.28 6 27.5c0-4.27 9.05-6.5 18-6.5s18 2.23 18 6.5ZM32.96 14c2.21 0 4-1.79 4-4s-1.79-4-4-4-4 1.79-4 4 1.79 4 4 4Zm0-6c1.1 0 2 .9 2 2s-.9 2-2 2-2-.9-2-2 .9-2 2-2Zm-5.91 25.91a52.612 52.612 0 0 1-6.15 0c-.55-.03-.97-.51-.94-1.06s.49-.97 1.06-.94c1.93.11 3.97.11 5.92 0 .55-.02 1.02.39 1.06.94.03.55-.39 1.02-.94 1.06ZM18.97 30c0-2.21-1.79-4-4-4s-4 1.79-4 4 1.79 4 4 4 4-1.79 4-4Zm-6 0c0-1.1.9-2 2-2s2 .9 2 2-.9 2-2 2-2-.9-2-2Zm26.02 9c0 .55-.45 1-1 1s-1-.45-1-1c0-1.1-.9-2-2-2h-4.01c-1.1 0-2 .9-2 2v2c0 .55-.45 1-1 1s-1-.45-1-1v-2c0-2.2 1.79-4 4-4h4.01c2.2 0 4 1.79 4 4Zm-1.97-9c0-2.21-1.79-4-4-4s-4 1.79-4 4 1.79 4 4 4 4-1.79 4-4Zm-6 0c0-1.1.9-2 2-2s2 .9 2 2-.9 2-2 2-2-.9-2-2ZM9 21v-2c0-2.2 1.79-4 4-4h4.01c2.2 0 4 1.79 4 4 0 .55-.45 1-1 1s-1-.45-1-1c0-1.1-.9-2-2-2H13c-1.1 0-2 .9-2 2v2c0 .55-.45 1-1 1s-1-.45-1-1Zm12 18v2c0 .55-.45 1-1 1s-1-.45-1-1v-2c0-1.1-.9-2-2-2h-4.01c-1.1 0-2 .9-2 2 0 .55-.45 1-1 1s-1-.45-1-1c0-2.21 1.79-4 4-4H17c2.2 0 4 1.79 4 4Z"/></svg>

