<svg xmlns="http://www.w3.org/2000/svg" viewBox="0 0 48 48"><title>Verhuizen</title><path d="M20.4 18.89a.996.996 0 0 1 0-1.41l2.91-2.91a.996.996 0 0 1 1.41 0l2.91 2.91a.996.996 0 1 1-1.41 1.41l-1.21-1.21v5.33c0 .55-.45 1-1 1s-1-.45-1-1v-5.3l-1.19 1.19a.996.996 0 0 1-1.41 0ZM42 31.01c0 1.1-.9 1.99-2 1.99h-1.05c.02.17.05.33.05.5 0 2.49-2.01 4.5-4.5 4.5S30 35.99 30 33.5c0-.17.03-.33.05-.5H17.92c.02.17.05.33.05.5 0 2.48-2.02 4.5-4.5 4.5s-4.5-2.02-4.5-4.5c0-.17.03-.33.05-.5H8c-1.1 0-2-.9-2-2V12c0-1.1.9-2 2-2h22a2 2 0 0 1 2 2v3.96s.02.04.04.04h5.65c.8 0 1.52.47 1.83 1.21.65 1.53 1.75 4.11 2.24 5.24.16.37.25.77.25 1.18v7.39ZM8.04 12l-.03 14H30V12.04s-.02-.04-.04-.04H8.04Zm5.44 19c-.2 0-.41.02-.62.07-.87.21-1.59.93-1.8 1.8a2.502 2.502 0 0 0 3.05 3.04 2.49 2.49 0 0 0 1.8-1.8c.4-1.65-.84-3.12-2.43-3.12ZM30 30.96V28H8.01v3h1.72c.81-1.21 2.19-2 3.75-2s2.94.79 3.75 2h12.74s.04-.02.04-.04Zm2-8 .04.04h7.82l-2.14-5h-5.65l-.04.04-.04 4.92Zm1.44 8.26c-.54.23-.99.67-1.21 1.21-.92 2.18 1.17 4.26 3.34 3.34.54-.23.99-.67 1.21-1.21.92-2.18-1.17-4.26-3.34-3.34ZM40 25.04s-.02-.04-.04-.04h-7.93l-.04.04v4.67s.04.02.07.03c.71-.47 1.55-.74 2.46-.74 1.55 0 2.91.79 3.72 1.98.01 0 .02.01.03.02h1.7s.04-.02.04-.04v-5.92ZM14 22v-2.14c-1.72-.45-3-2-3-3.86v-1c0-.55.45-1 1-1h6c.55 0 1 .45 1 1v1c0 1.86-1.28 3.41-3 3.86V22h2c.55 0 1 .45 1 1s-.45 1-1 1h-6c-.55 0-1-.45-1-1s.45-1 1-1h2Zm1.34-4.03c.95-.16 1.6-1.02 1.65-1.97H13c0 1.21 1.09 2.18 2.34 1.97Z"/></svg>

