<svg xmlns="http://www.w3.org/2000/svg" viewBox="0 0 48 48"><title>Verhuizen</title><path d="M41.76 22.44c-.49-1.13-1.59-3.7-2.24-5.24a1.99 1.99 0 0 0-1.83-1.21h-5.65s-.04-.02-.04-.04v-3.96a2 2 0 0 0-2-2H8c-1.1 0-2 .9-2 2v19c0 1.1.9 2 2 2h1.02c-.02.17-.05.33-.05.5 0 2.48 2.02 4.5 4.5 4.5s4.5-2.02 4.5-4.5c0-.17-.03-.33-.05-.5h12.13c-.02.17-.05.33-.05.5 0 2.49 2.01 4.5 4.5 4.5s4.5-2.01 4.5-4.5c0-.17-.03-.33-.05-.5H40c1.1 0 2-.89 2-1.99v-7.39a3 3 0 0 0-.24-1.18ZM15.91 34.12a2.49 2.49 0 0 1-1.8 1.8c-.21.05-.42.08-.62.08-1.58 0-2.82-1.47-2.43-3.12.21-.87.93-1.59 1.8-1.8.21-.05.42-.07.62-.07 1.58 0 2.82 1.47 2.43 3.12ZM30 30.96s-.02.04-.04.04H17.22c-.81-1.21-2.19-2-3.75-2s-2.94.79-3.75 2H7.99l.04-19h21.92s.04.02.04.04v18.92Zm2.04-12.92.04-.04h5.65l2.14 5h-7.82l-.04-.04.04-4.92Zm4.74 16.52c-.23.54-.67.99-1.21 1.21-2.18.92-4.26-1.17-3.34-3.34.23-.54.67-.99 1.21-1.21 2.18-.92 4.26 1.17 3.34 3.34Zm3.22-3.6s-.02.04-.04.04h-1.7s-.02-.01-.03-.02A4.47 4.47 0 0 0 34.51 29c-.91 0-1.75.27-2.46.74-.03-.01-.03-.02-.06-.03v-4.67s.01-.02.03-.04h7.93s.04.02.04.04v5.92ZM27.63 18.47a.996.996 0 1 1-1.41 1.41l-1.21-1.21V26c0 .55-.45 1-1 1s-1-.45-1-1v-7.3l-1.19 1.19a.996.996 0 1 1-1.41-1.41l2.91-2.91a.996.996 0 0 1 1.41 0l2.91 2.91ZM18 15h-6c-.55 0-1 .45-1 1v2c0 1.86 1.28 3.41 3 3.86V25h-2c-.55 0-1 .45-1 1s.45 1 1 1h6c.55 0 1-.45 1-1s-.45-1-1-1h-2v-3.14c1.72-.45 3-2 3-3.86v-2c0-.55-.45-1-1-1Zm-1 3c-.05.95-.71 1.82-1.65 1.97-1.25.21-2.34-.76-2.34-1.97v-1h4v1Z"/></svg>
