<svg xmlns="http://www.w3.org/2000/svg" viewBox="0 0 48 48"><title>Verkeerslicht</title><path d="M26.02 26.99c0 1.1-.9 1.99-2.01 1.99S22 28.09 22 26.99 22.9 25 24.01 25s2.01.89 2.01 1.99ZM24.01 18c-1.11 0-2.01.89-2.01 1.99s.9 1.99 2.01 1.99 2.01-.89 2.01-1.99-.9-1.99-2.01-1.99Zm0-7c-1.11 0-2.01.89-2.01 1.99s.9 1.99 2.01 1.99 2.01-.89 2.01-1.99-.9-1.99-2.01-1.99ZM32 13.84v12.33c0 3.32-2.08 6.16-5 7.3v8.54h-6v-8.54c-2.92-1.14-5-3.98-5-7.3V13.84C16 9.52 19.52 6 23.84 6h.33c4.32 0 7.84 3.52 7.84 7.84ZM25 40v-2h-2v2h2Zm0-6.05h-2V36h2v-2.05Zm5-20.12c0-3.22-2.62-5.84-5.84-5.84h-.33c-3.22 0-5.84 2.62-5.84 5.84v12.33c0 3.22 2.62 5.84 5.84 5.84h.33c3.22 0 5.84-2.62 5.84-5.84V13.83Z"/></svg>

