<svg xmlns="http://www.w3.org/2000/svg" viewBox="0 0 48 48"><title>Verkiezingen</title><path d="M17.22 21.98a1 1 0 0 1-.72 1.19c-1.92.5-3.7 1.51-4.6 3.28-3.3 6.48 3.16 12.95 9.63 9.69 1.78-.9 2.8-2.69 3.31-4.61.14-.52.66-.83 1.19-.72.54.12.88.66.75 1.2-1.01 4.46-5.14 7.46-9.81 6.95-3.39-.37-6.34-2.73-7.46-5.95-1.84-5.28 1.49-10.65 6.51-11.77a.996.996 0 0 1 1.19.76ZM29 30c-.55 0-1 .45-1 1v9H8V20h9c.55 0 1-.45 1-1s-.45-1-1-1H8c-1.1 0-2 .9-2 2v20c0 1.1.9 2 2 2h20c1.1 0 2-.9 2-2v-9c0-.55-.45-1-1-1Zm12.42-14.97L28.59 27.86l-.38.38c-.28.28-.63.47-1.01.54l-9.02 1.86s-.1.01-.15.01c-.46 0-.83-.42-.74-.9l1.89-8.98c.08-.38.27-.73.54-1l.46-.46L32.95 6.59c.78-.78 2.04-.78 2.82 0l5.64 5.6c.79.78.79 2.05 0 2.83Zm-18.89 4.82 2.09 2.09 12-12-2.09-2.09-12 12Zm4.28 6.97-5.66-5.65v.02l-.93 4.13 2.43 2.43 4.16-.93Zm13.42-13.26-2.2-2.2-12 12 2.2 2.2 12-12ZM13.29 30.29a.996.996 0 0 0 0 1.41l4 4c.19.19.44.29.71.29.05 0 .11 0 .16-.01.32-.05.59-.25.73-.54l.55-1.11 1.11.55c.49.24 1.09.05 1.34-.45a.993.993 0 0 0-.45-1.34l-2-1a.993.993 0 0 0-1.34.45l-.38.76-3.02-3.02a.996.996 0 0 0-1.41 0Z"/></svg>

