<svg xmlns="http://www.w3.org/2000/svg" viewBox="0 0 48 48"><title>Verslaving</title><path d="m40.42 26.59-8.01-8.01c-2.11-2.1-5.53-2.11-7.64 0l-.18.18a5.349 5.349 0 0 0-.43 7.11c.09.17.2.31.29.4l.22.22a.996.996 0 1 0 1.41-1.41L26 25l.02-.02c-.64-.64-.99-1.49-.99-2.4s.35-1.76 1-2.4l.18-.18c.66-.66 1.53-.99 2.4-.99s1.74.33 2.4.99l3.29 3.29-3.24 3.24-1.61 1.61a5.03 5.03 0 0 0-.56-.09c-.04 0-.08-.01-.12-.02-.25-.03-.5-.04-.76-.04-.31 0-.61.03-.91.07a6.988 6.988 0 0 0-3.75 1.72l-.03.03c-.46.41-.86.89-1.2 1.41l-.06.09a6.797 6.797 0 0 0-.44.83c-.12.27-.23.55-.31.83l-.03.13c-.07.24-.12.49-.16.74-.01.08-.03.16-.04.23-.04.3-.07.6-.07.91 0 3.86 3.14 7 7 7 .33 0 .65-.03.96-.07l.23-.03c.31-.05.62-.12.91-.21 0 0 .02 0 .03-.01.29-.09.57-.21.84-.34.06-.03.12-.06.18-.08.28-.14.55-.29.8-.47h.01c.25-.18.49-.37.72-.58.04-.03.07-.07.11-.1.46-.44.87-.94 1.2-1.48l.06-.09c.16-.28.31-.58.44-.88.24-.59.4-1.22.47-1.88.67.19 1.34.25 2 .17v.03c1.24-.12 2.39-.64 3.28-1.53l.19-.19a5.402 5.402 0 0 0 0-7.64ZM24.46 38.53a5.006 5.006 0 0 1-.64-6.29l6.93 6.93a5.006 5.006 0 0 1-6.29-.64Zm7.71-.78-6.93-6.93a5.006 5.006 0 0 1 6.29.64 5.006 5.006 0 0 1 .64 6.29ZM39 32.8l-.19.19c-.52.52-1.19.82-1.88.92v.02c-.18.02-.35.05-.52.05-.54 0-1.07-.14-1.56-.4v-.05c-.01-.07-.04-.13-.05-.2a9.67 9.67 0 0 0-.14-.51c-.02-.06-.04-.11-.06-.17-.06-.17-.13-.34-.2-.51-.02-.04-.04-.09-.06-.13-.08-.18-.18-.35-.27-.52a.405.405 0 0 1-.05-.09c-.11-.18-.23-.36-.35-.53-.01-.02-.02-.03-.04-.05-.14-.18-.28-.36-.43-.52l-.02-.02c-.16-.17-.33-.34-.51-.5a6.96 6.96 0 0 0-1.18-.83l1.47-1.47 2.76-2.76 3.29 3.29a3.392 3.392 0 0 1 0 4.79ZM18.92 20.77a6.44 6.44 0 0 0-2.94-4.74V7.99c0-1.1-.9-2-2-2h-3c-1.1 0-2 .9-2 2v8.04c-1.64 1.05-2.77 2.79-2.99 4.74v.11l-.01 19.11c0 1.1.9 2 2 2h9c1.11 0 2-.9 2-2.01l-.05-19.11v-.11Zm-1.97 11.22h-3.96v-7h3.94v7Zm-8.97 8v-19c.16-1.39.96-2.58 2.1-3.29.59-.37.9-1.05.9-1.74V7.99h3v7.97c0 .69.31 1.38.9 1.75 1.12.71 1.9 1.9 2.05 3.29v2h-3.94c-1.1 0-2 .9-2 2v7c0 1.1.9 2 2 2h3.96v6H7.98Z"/></svg>

