<svg xmlns="http://www.w3.org/2000/svg" viewBox="0 0 48 48"><title>Vervoersvoorziening</title><path d="M41 22c.55 0 1-.45 1-1v-6.01c0-.7-.38-1.32-.93-1.67l-1.13-5.8A1.992 1.992 0 0 0 38 6.01H27c-.92 0-1.72.62-1.94 1.51l-1.14 5.78c-.55.34-.92.95-.92 1.65V21c0 .55.45 1 1 1s1-.45 1-1v-2h15v2c0 .55.45 1 1 1ZM27 8h11l1 5H26l1-5Zm9 7v2h-7v-2h7Zm-11 0h2v2h-2v-2Zm13 2v-2h2v2h-2Zm-22 1c.83 0 1.5.67 1.5 1.5S16.83 21 16 21s-1.5-.67-1.5-1.5.67-1.5 1.5-1.5m0-2c-1.93 0-3.5 1.57-3.5 3.5S14.07 23 16 23s3.5-1.57 3.5-3.5S17.93 16 16 16Zm.5 21.52c.17-.33.51-.52.88-.52.75 0 1.24.8.89 1.47a6.486 6.486 0 0 1-6.91 3.43c-2.72-.46-4.89-2.7-5.29-5.43-.43-2.91 1.1-5.53 3.46-6.75.67-.34 1.47.14 1.47.89 0 .38-.2.72-.52.88-1.82.92-2.94 3.02-2.29 5.31.43 1.52 1.61 2.65 3.14 3.04 2.23.57 4.27-.54 5.17-2.33Zm7.5-1.53v5c0 .55-.45 1-1 1s-1-.45-1-1v-5c0-.55-.45-1-1-1h-5.06c-1.62 0-2.94-1.32-2.94-2.94v-5.06c0-1.65 1.35-3 3-3s2.98 1.33 3 2.96v4.04c0 .55-.45 1-1 1s-1-.45-1-1v-4c0-.55-.45-1-1-1s-1 .45-1 1v5.06c0 .52.42.94.94.94H21c1.65 0 3 1.34 3 3Z"/></svg>

