<svg xmlns="http://www.w3.org/2000/svg" viewBox="0 0 48 48"><title>Virus</title><path d="M38 20c-1.86 0-3.41 1.28-3.86 3h-2.21c-.18-1.46-.76-2.8-1.61-3.9l2.53-2.53c.49.27 1.05.43 1.65.43 1.93 0 3.5-1.57 3.5-3.5S36.43 10 34.5 10 31 11.57 31 13.5c0 .6.17 1.16.43 1.65l-2.53 2.53a7.941 7.941 0 0 0-3.9-1.62v-2.2c1.72-.45 3-2 3-3.86 0-2.21-1.79-4-4-4s-4 1.79-4 4c0 1.86 1.28 3.41 3 3.86v2.2c-1.46.18-2.8.76-3.91 1.62l-3.52-3.52c.27-.49.43-1.05.43-1.65 0-1.93-1.57-3.5-3.5-3.5S9 10.58 9 12.51s1.57 3.5 3.5 3.5c.6 0 1.16-.17 1.65-.43l3.52 3.52a7.976 7.976 0 0 0-1.62 3.91h-2.2c-.45-1.72-2-3-3.86-3-2.21 0-4 1.79-4 4s1.79 4 4 4c1.86 0 3.41-1.28 3.86-3h2.2c.18 1.46.76 2.8 1.62 3.9l-3.4 3.4c-.39-.19-.82-.3-1.29-.3-1.66 0-3 1.34-3 3s1.34 3 3 3 3-1.34 3-3c0-.46-.11-.89-.3-1.29l3.4-3.4c1.11.86 2.44 1.43 3.9 1.61v2.64c-1.71.35-3 1.86-3 3.67 0 2.07 1.68 3.75 3.75 3.75s3.75-1.68 3.75-3.75c0-1.63-1.05-3-2.5-3.52v-2.8c1.46-.18 2.79-.76 3.9-1.62l1.67 1.67c-.35.59-.57 1.28-.57 2.02 0 2.21 1.79 4 4 4s4-1.79 4-4-1.79-4-4-4c-.74 0-1.43.22-2.02.57l-1.67-1.67a8.035 8.035 0 0 0 1.62-3.9h2.21c.45 1.72 2 3 3.86 3 2.21 0 4-1.79 4-4s-1.79-4-4-4Zm-3.5-8c.83 0 1.5.67 1.5 1.5s-.67 1.5-1.5 1.5-1.5-.67-1.5-1.5.67-1.5 1.5-1.5Zm-22 2c-.83 0-1.5-.67-1.5-1.5s.67-1.5 1.5-1.5 1.5.67 1.5 1.5-.67 1.5-1.5 1.5ZM10 26c-1.1 0-2-.9-2-2s.9-2 2-2 2 .9 2 2-.9 2-2 2Zm3 10c-.55 0-1-.45-1-1s.45-1 1-1 1 .45 1 1-.45 1-1 1Zm21-4c1.1 0 2 .9 2 2s-.9 2-2 2-2-.9-2-2 .9-2 2-2ZM22 10c0-1.1.9-2 2-2s2 .9 2 2-.9 2-2 2-2-.9-2-2Zm3.5 28.25c0 .96-.79 1.75-1.75 1.75S22 39.21 22 38.25s.79-1.75 1.75-1.75 1.75.79 1.75 1.75ZM24 30c-3.31 0-6-2.69-6-6s2.69-6 6-6 6 2.69 6 6-2.69 6-6 6Zm14-4c-1.1 0-2-.9-2-2s.9-2 2-2 2 .9 2 2-.9 2-2 2Zm-15-2v-3c0-.55.45-1 1-1s1 .45 1 1v3c0 .55-.45 1-1 1s-1-.45-1-1Zm1.79 2.29c.19.19.28.43.28.72s-.09.53-.28.72c-.19.19-.43.28-.72.28s-.54-.09-.72-.28c-.19-.19-.28-.43-.28-.72s.09-.53.28-.72c.19-.19.43-.28.72-.28s.54.09.72.28Z"/></svg>

