<svg xmlns="http://www.w3.org/2000/svg" viewBox="0 0 48 48"><title>Vlag</title><path d="M35.98 13c0-1.1-.9-2-2-2H30l-4.53-2.72A1.97 1.97 0 0 0 24.44 8H14V7c0-.55-.45-1-1-1s-1 .45-1 1v34c0 .55.44 1 1 1 .55 0 1-.45 1-1V25h5l4.51 2.7c.32.19.69.29 1.07.29l9.43-.03c1.1 0 1.99-.9 1.99-2l-.02-12.97ZM14 15h8.44l4.51 2.71c.31.19.67.29 1.04.29l5.99-.03v2.99h-7.44l-4.51-2.71a1.98 1.98 0 0 0-1.03-.29h-7.01V15Zm0-5h10.44l4.53 2.72c.31.19.67.28 1.03.28h3.98v2.97l-6 .03-4.51-2.71a1.98 1.98 0 0 0-1.03-.29H14v-3Zm20 15.97-9.45.03-4.52-2.71A1.98 1.98 0 0 0 19 23h-5v-3.04h7.01l4.51 2.71c.31.19.67.29 1.03.29h7.44v3.01Z"/></svg>

