<svg xmlns="http://www.w3.org/2000/svg" viewBox="0 0 48 48"><title>Vluchtelingenopvang</title><path d="M19 32h-2v-2a2 2 0 0 0-2-2h-3a2 2 0 0 0-2 2v2H8c-1.1 0-2 .9-2 2v6.01C6 41 7 42 8 42h11c1 0 2-1 2-1.99v-6.02C21 33 20 32 19 32Zm-7-2h3.01v2H12v-2Zm7 10H8v-6h11v6Zm5.65-14.71a4.52 4.52 0 0 0 5.57 5.57c1.51-.4 2.72-1.62 3.12-3.12a4.52 4.52 0 0 0-5.57-5.57c-1.51.4-2.72 1.62-3.12 3.12Zm6.78.6a2.52 2.52 0 0 1-3.06 3.06c-.88-.21-1.6-.93-1.81-1.81a2.52 2.52 0 0 1 3.06-3.06c.88.21 1.6.93 1.81 1.81ZM42 12.6c0 .66-.69 1.1-1.29.82L29 7.8l-11.71 5.62A.907.907 0 0 1 16 12.6c0-.35.21-.68.53-.82l11.63-5.59c.53-.25 1.14-.25 1.68 0l11.63 5.59c.32.15.53.47.53.82Zm0 14.41v9.01a2 2 0 0 1-2 2h-1V41c0 .55-.45 1-1 1s-1-.45-1-1v-4.98h3v-9c0-1.1-.9-2-2-2L35.47 25c-.55 0-1-.45-1-1 0-.49.35-.87.82-.96l2.71-.02c2.21 0 4 1.79 4 4Zm-18.47-3.02c0 .55-.45 1-1 1l-2.53.02c-.88 0-1.63.57-1.9 1.37-.13.39-.54.63-.95.63-.66 0-1.15-.64-.95-1.26a4.008 4.008 0 0 1 3.8-2.74s2.72.01 2.71.02c.46.09.82.48.82.96ZM35 35.07v5.92c0 .55-.45 1-1 1s-1-.45-1-1v-5.92c0-.59-.48-1.06-1.06-1.06h-5.91c-.57 0-1.02.46-1.02 1.02v5.96c0 .55-.45 1-1 1s-1-.45-1-1v-5.96c0-1.67 1.35-3.02 3.02-3.02h5.91A3.06 3.06 0 0 1 35 35.07Zm3.82-16.35a4.52 4.52 0 0 0-5.57-5.57c-1.51.4-2.72 1.62-3.12 3.12a4.52 4.52 0 0 0 5.57 5.57c1.51-.4 2.72-1.62 3.12-3.12Zm-6.78-.6a2.52 2.52 0 0 1 3.06-3.06c.88.21 1.6.93 1.81 1.81a2.52 2.52 0 0 1-3.06 3.06c-.88-.21-1.6-.93-1.81-1.81Zm-7.31-4.97a4.52 4.52 0 0 0-5.57 5.57c.4 1.51 1.62 2.72 3.12 3.12a4.52 4.52 0 0 0 5.57-5.57 4.446 4.446 0 0 0-3.12-3.12Zm-.6 6.78a2.52 2.52 0 0 1-3.06-3.06c.21-.88.93-1.6 1.81-1.81a2.52 2.52 0 0 1 3.06 3.06c-.21.88-.93 1.6-1.81 1.81Z"/></svg>

