<svg xmlns="http://www.w3.org/2000/svg" viewBox="0 0 48 48"><title>Voeding</title><path d="M16.47 20.47h2.52l-3.71-3.77a.99.99 0 0 1 0-1.39.996.996 0 0 1 1.41 0l3.78 3.84-.02-2.69a1 1 0 0 1 .99-1h.04a1 1 0 0 1 1 .99l.02 3.45c0 .3-.13.59-.37.78l-1.92 1.56c-.18.14-.4.22-.63.22h-3.11c-.55 0-.99-.44-.99-.99v-.02c0-.55.44-.99.99-.99Zm22.55 18.04c-.95 1.39-2.39 3.5-4.36 3.5h-.1c-.2 0-.37-.03-.54-.06-.67-.06-1.2-.28-1.71-.5-.59-.26-1.16-.5-2.06-.5-.95 0-1.53.25-2.15.52-.58.25-1.17.51-2.02.54h-.11c-1.38 0-2.41-1-3.06-1.75l-.07-.09s-.01-.02-.02-.02l-.16-.19s.01-.02.02-.02a1.09 1.09 0 0 1-.11-.27c-.13-.17-.23-.32-.35-.49-1.64 1.72-4.26 2.83-7.22 2.83-4.97 0-9-3.13-9-7 0-3.29 2.92-6.04 6.85-6.79-1.82-1.61-2.28-3.23-2.3-3.32-.19-.63-.26-1.3-.18-1.99l.09-.75-.64-.4c-.34-.21-.62-.43-.86-.67-1.4-1.4-1.78-3.56-.95-5.37l.37-.8-.66-.59s-.07-.06-.1-.08l-.11-.08a4.792 4.792 0 0 1 0-6.76c.93-.93 2.15-1.39 3.38-1.39s2.41.45 3.33 1.34c.09.11.14.17.19.22l.61.67.81-.4a4.765 4.765 0 0 1 5.48.88c.25.25.48.55.71.94l.39.65.75-.06a4.742 4.742 0 0 1 3.79 1.35 4.77 4.77 0 0 1 1.36 3.75l-.06.7.38.23c.51.31.62 1 .24 1.45-.29.36-.8.46-1.21.25l-1.51-.78v-.1l.07-.74.04-.46.06-.7c.06-.82-.22-1.62-.78-2.18-.51-.51-1.2-.79-1.95-.79-.09 0-.17 0-.26.01l-.75.06-.62.05c-.38.03-.75-.16-.94-.48l-.32-.54-.39-.65c-.15-.25-.28-.43-.41-.56-.51-.51-1.2-.79-1.93-.79-.43 0-.85.1-1.24.29l-.81.4-.67.33c-.4.2-.88.11-1.18-.22l-.51-.55-.61-.67c-.05-.05-.1-.11-.18-.2-.51-.46-1.17-.71-1.87-.71-.75 0-1.45.29-1.97.81a2.793 2.793 0 0 0-.09 3.84c.07.06.15.12.23.19l.64.58.55.49c.32.29.42.76.24 1.16l-.31.67-.37.8c-.49 1.06-.27 2.31.54 3.12.13.13.29.25.5.38l.65.41.54.33c.33.2.51.58.46.96l-.07.63-.09.75c-.06.51.01.99.2 1.43.22.55.46 1.85 2.91 3.08l.54.41c1.01.09 1.96.31 2.84.63.06-1.43.37-2.79 1.03-3.95a6.802 6.802 0 0 1 4.06-3.24c.09-.03.18-.04.28-.07h.04c.23-.07.47-.12.69-.16.33-.06.67-.11 1.01-.12.1 0 .22 0 .35.01.16 0 .33 0 .51.02v.03c.82.1 1.81.31 2.28.48.02-.18.06-.33.11-.46.2-1.5.91-2.92 2.08-3.98.45-.41 1.18-.29 1.5.23.26.41.17.94-.18 1.27a4.5 4.5 0 0 0-1.41 2.85c.77-.28 2.32-.54 3.43-.54.19 0 .37 0 .53.02.55.02 1.14.13 1.73.32 1.71.49 3.2 1.67 4.06 3.24 2.25 3.96.55 10.24-1.93 13.86ZM22 35.01c0-2.71-3.21-5-7-5s-7 2.29-7 5 3.21 5 7 5 7-2.29 7-5Zm17.21-9.37a4.76 4.76 0 0 0-2.87-2.3h-.04l-.04-.02c-.41-.13-.81-.21-1.18-.22h-.07l-.07-.01c-.09-.01-.2-.01-.32-.01-.9 0-2.21.23-2.74.42l-1.02.37-.85.31-1.05-.39-.55-.2c-.39-.15-1.56-.37-2.23-.41-.11 0-.21 0-.3.01h-.07l-.07.01c-.16 0-.33.03-.5.06-.1.02-.19.04-.29.07-.12.03-.24.05-.35.09-.07.02-.14.05-.2.07-.2.06-.4.15-.59.24-.08.04-.17.08-.25.12-.8.43-1.47 1.09-1.93 1.91-.63 1.1-.84 2.49-.78 3.96 1.93 1.28 3.16 3.19 3.16 5.32 0 .85-.21 1.67-.57 2.42.01.01.02.03.03.05.52.76 1.42 2.06 2.21 2.48.1.03.2.05.29.05h.07c.43-.02.76-.16 1.26-.38.71-.31 1.59-.68 2.95-.68s2.16.37 2.85.66c.43.19.74.32 1.08.35h.08l.08.02c.09.02.19.03.29.04h.06c.88 0 2.05-1.7 2.67-2.62 2.17-3.17 3.63-8.61 1.85-11.75Z"/></svg>

