<svg xmlns="http://www.w3.org/2000/svg" viewBox="0 0 48 48"><title>Vrijwilligerswerk</title><path d="M24 25.43c-1.74-1.74-5.15-1.2-5.85 1.61-.32 1.29.13 2.65 1.06 3.59l4.08 4.11c.39.39 1.03.39 1.42 0l4.08-4.11c.93-.94 1.39-2.3 1.06-3.59-.7-2.81-4.12-3.35-5.85-1.61Zm3.55 3.61L24 32.62l-3.55-3.58c-.6-.6-.6-1.58 0-2.19.29-.29.67-.45 1.07-.45s.79.16 1.07.45L24 28.27l1.41-1.42c.57-.58 1.57-.58 2.14 0 .6.6.6 1.58 0 2.19Zm14.07-5.85-6.4 7.06a5.716 5.716 0 0 0-1.3 5.24l1.32 5.26a.998.998 0 0 1-.97 1.24c-.46 0-.86-.31-.97-.76l-1.32-5.26c-.63-2.51.03-5.16 1.76-7.07l6.12-6.75c-.63-.65-1.06-.97-2.01-.62l-4.58 2.81c-.77.47-1.74.61-2.56.24a2.674 2.674 0 0 1-1.6-2.4c-.02-.85-.13-2.52-.25-4.3-.17-2.67-.37-5.61-.37-7.33 0-.5-.4-.91-.89-.91s-.86.38-.89.87l-.44 9.56-.73.18c-.43.1-.88.23-1.35.36l-.96.28-3.6-12.09c-.14-.53-.64-.84-1.14-.72-.5.13-.8.63-.68 1.16l3.27 12.44-.79.34c-.2.09-.4.18-.61.27l-.76.35-6.27-9.11c-.29-.43-.8-.61-1.2-.42-.26.12-.46.35-.53.63a.94.94 0 0 0 .1.75l5.74 9.29-.85.53c-.24.15-.48.3-.72.46l-.6.39-5.36-4.17c-.37-.34-.77-.34-1.03-.07-.27.27-.27.71-.02 1l4.76 4.81 7.07 10.04c.66.94 1.11 2.04 1.29 3.18l.15.89c.1.61-.37 1.16-.99 1.16a1 1 0 0 1-.99-.84l-.15-.9a5.77 5.77 0 0 0-.96-2.35l-7.02-9.97-4.63-4.67c-.98-1.12-.93-2.75.06-3.76 1.02-1.04 2.67-1.07 3.76-.06l2.34 1.82L9.3 15.5c-.41-.72-.51-1.53-.31-2.29.23-.86.83-1.57 1.64-1.94 1.29-.58 2.83-.11 3.67 1.11l3.68 5.34-2.11-8.03c-.36-1.63.58-3.18 2.14-3.57 1.54-.38 3.14.57 3.55 2.12l2.81 9.44.33-7.29c.08-1.56 1.35-2.77 2.88-2.77s2.88 1.3 2.89 2.9c0 1.67.2 4.57.37 7.14.12 1.87.24 3.57.25 4.46 0 .25.13.46.34.58.21.12.44.12.65 0l4.95-3.01c2.36-.93 3.67.44 4.37 1.18l.14.15c.55.58.58 1.55.07 2.15Z"/></svg>

