<svg xmlns="http://www.w3.org/2000/svg" viewBox="0 0 48 48"><title>Vuurwerk</title><path d="m39.01 9.05-5.55-.04c-.9 0-1.35 1.08-.71 1.71l.47.46-10.61 10.61c-.78.78-.78 2.05 0 2.83l2.83 2.83-9.84 9.84c-.63.63-.18 1.71.71 1.71h.27a1 1 0 0 0 .71-.3l21.59-21.86.41.42c.63.64 1.71.19 1.71-.7v-5.51c0-1.1-.89-1.99-1.99-2ZM39 11v3l-3-3h3ZM26.86 26.04l-2.83-2.83.71-.75h5.7l-3.58 3.58Zm5.84-5.84-5.84.19 2.83-2.83 5.69-.04-2.68 2.68Zm4.76-4.76H31.8l2.83-2.83 1.41 1.41 1.41 1.41ZM8.23 32.72c-.97.19-1.6-.99-.9-1.69l5.97-5.97-4.99-1.36c-.97-.26-.99-1.62-.03-1.92l4.26-1.32-3.85-6.56c-.48-.81.33-1.77 1.21-1.44l6.54 2.46v-3.94c0-.89 1.07-1.34 1.7-.71l3.46 3.46 2.66-2.75c.62-.65 1.72-.2 1.72.7v3.6c0 .55-.45 1-1 1s-1-.45-1-1v-1.07l-2.38 2.55-1.51-1.51-1.52-1.52V18.01l-2.89-1.09-3.54-1.33 2.23 3.79 1.37 2.33-2.58.8-.53.16 1.22.33 3.55.97-2.6 2.6-3.32 3.32 4.41-.88 2.56-.51.11 2.92c.01.28-.1.55-.29.75l-.25.25c-.63.63-1.71.18-1.71-.71v-.61l-8.09 1.62Z"/></svg>

