<svg xmlns="http://www.w3.org/2000/svg" viewBox="0 0 48 48"><title>Wandelen</title><path d="M25.19 13.98c2.21 0 4-1.79 4-4s-1.79-4-4-4-4 1.79-4 4 1.79 4 4 4Zm0-6c1.1 0 2 .9 2 2s-.9 2-2 2-2-.9-2-2 .9-2 2-2ZM18.26 31.8l-2.62 9.43c-.12.44-.53.74-.96.74-.09 0-.18-.01-.27-.04-.53-.15-.85-.7-.7-1.23l2.62-9.43c.15-.53.69-.85 1.23-.7.53.15.85.7.7 1.23Zm16.69-10.53-5.18 20.19c-.21.42-.67.66-1.14.53-.53-.14-.85-.69-.71-1.22L32.67 22h-3.38c-.3 0-.58-.13-.78-.35l-2.26-2.47-2.09 7.8a1.014 1.014 0 0 1-1.25.68.993.993 0 0 1-.67-1.24l2.4-8.94c-.61-.47-1.72-.53-2.46-.49l-2.51 9.21c-.18.67 0 1.39.49 1.89l4.03 2.48c1.12.69 1.67 2.06 1.32 3.33l-1.94 7.33a.99.99 0 0 1-.96.74c-.09 0-.17-.01-.26-.03-.53-.14-.85-.69-.71-1.23l1.94-7.33c.11-.42-.07-.88-.44-1.11l-4.13-2.54c-.06-.04-.12-.08-.17-.13a3.977 3.977 0 0 1-1.1-3.92l2.18-7.99-2.78 1.04c-.1.04-.18.09-.25.14l-1.91 7.4c-.14.53-.69.85-1.22.71s-.85-.69-.71-1.22l1.89-7.42c.17-.64.64-1.16 1.26-1.4l1.35-.51v.03l3.76-1.37c.42-.07 3.47-.48 5.01 1.22 0 0 2.51 2.69 3.42 3.72h4.25c.66 0 1.13.63.96 1.26Z"/></svg>

