<svg xmlns="http://www.w3.org/2000/svg" viewBox="0 0 48 48"><title>Welzijnswerk</title><path d="m41.66 20.4-2.63-2.17v-7.22c0-.55-.45-1-1-1s-1 .45-1 1v5.57L24.65 6.35a.983.983 0 0 0-1.27 0L6.37 20.4a.99.99 0 0 0-.13 1.41c.2.24.48.36.77.36.22 0 .45-.08.64-.23l1.39-1.15V41c0 .55.45 1 1 1h28c.55 0 1-.45 1-1V20.82l1.36 1.12c.43.35 1.06.29 1.41-.13.35-.43.29-1.06-.13-1.41ZM37.03 40h-26V19.14L24.02 8.41l13.01 10.75V40ZM20.17 20c-3.37 0-5.2 2.71-5.2 5.26 0 2.68 1.01 6.04 8.51 10.56.16.09.33.14.52.14.18 0 .36-.05.52-.14 7.5-4.53 8.51-7.88 8.51-10.56S31.21 20 27.83 20c-1.85 0-3.09.9-3.84 1.73C23.24 20.9 22 20 20.15 20Zm4.75 3.9c.04-.08.9-1.89 2.92-1.89 2.34 0 3.2 1.95 3.2 3.26 0 2.07-.85 4.7-7.03 8.54-6.18-3.84-7.03-6.47-7.03-8.54 0-1.31.85-3.26 3.2-3.26 2.02 0 2.89 1.82 2.92 1.89.16.36.52.59.92.59s.75-.23.91-.59Z"/></svg>
