<svg xmlns="http://www.w3.org/2000/svg" viewBox="0 0 48 48"><title>Werkzaamheden</title><path d="m27.49 31.76 1.44-.58 1.08-1.72c.14-.22.38-.35.64-.35h.02a.7.7 0 0 1 .63.39l2.4 4.34a.732.732 0 0 1-.66 1.09H27c-.25 0-.49-.13-.63-.34a.748.748 0 0 1-.06-.71l.76-1.72c.08-.18.22-.32.4-.39Zm-3.56-9.46c1.12 0 1.71 1.21 1.79 2.41l.42 5 1.99 1-.91.37c-.27.11-.47.3-.63.53l-3.99-1.99.68 1.02c.25.37.38.8.38 1.25v2.3c0 .41-.34.75-.75.75s-.75-.34-.75-.75v-2.3c0-.15-.04-.29-.13-.42l-1.56-2.33-3.04 5.04a.751.751 0 1 1-1.29-.77l3.25-5.39-1.59-.79a.998.998 0 0 1-.42-1.39l1.44-2.51c.67-1.03 1.62-1.19 2.05-1.13l3.06.12Zm-2.05 1.42-1.14-.04c-.11 0-.38 0-.64.42l-1.15 2.02 1.22.61 1.03-1.71.68-1.29Zm2.41 1.94-1.37 2.44 1.64.82-.27-3.26Zm2.24-2.71c.83 0 1.5-.67 1.5-1.5s-.67-1.5-1.5-1.5-1.5.67-1.5 1.5.67 1.5 1.5 1.5Zm15.02 16.1c-.36.61-1.02.99-1.73.99H8.05c-.71 0-1.37-.38-1.73-.99-.36-.61-.36-1.37-.01-1.99L22.2 9.02c.36-.63 1.02-1.01 1.74-1.01s1.38.39 1.74 1.01l15.89 28.04c.35.62.35 1.38-.01 1.99Zm-1.73-1.01L23.93 10 8.04 38.04h31.78Z"/></svg>

