<svg xmlns="http://www.w3.org/2000/svg" viewBox="0 0 48 48"><title>Wie is wie</title><path d="m41.41 29.32-7.25-7.25a1.983 1.983 0 0 0-2.82 0l-.35.35-1.62-1.62a8.922 8.922 0 0 0 2.04-5.7c0-4.96-4.04-9-9-9s-9 4.04-9 9 4.04 9 9 9c2.08 0 3.99-.72 5.52-1.91l1.65 1.65-.35.35c-.78.78-.78 2.05 0 2.83l7.25 7.25c.39.39.9.59 1.41.59s1.02-.2 1.41-.59l2.12-2.12a1.983 1.983 0 0 0 0-2.82ZM22.4 22.1c-3.86 0-7-3.14-7-7s3.14-7 7-7 7 3.14 7 7-3.14 7-7 7Zm15.47 10.76-7.25-7.25 2.12-2.12 7.25 7.25-2.12 2.12Zm-24.88-7.85a4.511 4.511 0 0 0 0 9.02 4.511 4.511 0 0 0 0-9.02Zm0 7.02c-1.38 0-2.51-1.13-2.51-2.51s1.13-2.51 2.51-2.51 2.51 1.13 2.51 2.51-1.13 2.51-2.51 2.51Zm6.94 5.98v3c0 .55-.45 1-1 1s-1-.45-1-1v-3c0-.36-.6-1-.94-1h-8c-.36 0-.6.18-.71.29-.11.11-.29.35-.29.71v3c0 .55-.45 1-1 1s-1-.45-1-1v-3c0-1.66 1.34-3 3-3h8c1.46 0 2.94 1.55 2.94 3Z"/></svg>

