<svg xmlns="http://www.w3.org/2000/svg" viewBox="0 0 48 48"><title>Wijkteam</title><path d="M12.49 21.02a4.511 4.511 0 0 0 0-9.02 4.511 4.511 0 0 0 0 9.02Zm0-7.02c1.38 0 2.51 1.13 2.51 2.51s-1.13 2.51-2.51 2.51-2.51-1.13-2.51-2.51S11.11 14 12.49 14ZM29 22c4.42 0 8-3.58 8-8s-3.58-8-8-8-8 3.58-8 8 3.58 8 8 8Zm0-14c1.43 0 2.74.5 3.77 1.34-.06.61-.24 1.08-.55 1.4-.87.91-2.84.87-4.74.83-1.46-.03-2.95-.04-4.12.38C24.2 9.65 26.4 8 28.99 8Zm-5.52 6.19c.53-.69 2.36-.65 3.97-.62 2.23.04 4.74.09 6.22-1.45.26-.27.47-.57.64-.92.44.83.69 1.78.69 2.79 0 3.31-2.69 6-6 6-2.56 0-4.74-1.61-5.6-3.87-.2-.92-.19-1.59.08-1.94Zm18.43 20.57s-1.54-6.15-1.57-6.22c-.42-1.24-1.52-4.55-4.86-4.55H23.04c-3.34 0-5 3.22-5.42 4.47-.02.07-1.57 6.22-1.57 6.22-.24.96 0 1.98.67 2.72.57.65 1.4 1.01 2.25 1.01.69 0 2.03-.36 2.03-.36V40a2 2 0 0 0 2 2h12.01a2 2 0 0 0 2-2v-1.9s1.52.39 1.99.39c.85 0 1.68-.36 2.25-1.01.66-.74.91-1.76.67-2.72Zm-14.82.31L35 37.56v2.43H22.96v-2.86l4.12-2.06Zm12.66 1.08c-.18.2-.43.32-.69.33-.91 0-1.42-.19-1.42-.19l-7.97-2.51 3.22-1.61c.69-.17 1.44-.13 1.55.02.32.45.95.56 1.39.23.45-.32.55-.94.23-1.39-1.04-1.46-3.35-.89-3.8-.77-.06.02-.12.04-.18.07l-11.53 5.76c-.07.03-.74.32-1.42.32-.9 0-1.29-.62-1.14-1.25.55-2.24 1.41-5.59 1.54-6.12.14-.38 1.21-3.05 3.5-3.05h12.44c1.33 0 2.19.91 2.94 3.12.12.48.98 3.87 1.54 6.13.08.32 0 .66-.22.9ZM7.01 31.99c-.55 0-1-.45-1-1v-4.98c0-2.22 1.81-4.02 4.02-4.02h4.95c1.32 0 2.56.65 3.31 1.74.31.45.2 1.08-.25 1.39-.46.31-1.08.2-1.39-.26-.38-.55-1-.88-1.67-.88h-4.95c-1.12 0-2.02.91-2.02 2.02v4.98c0 .55-.45 1-1 1Zm15.88.37a1.004 1.004 0 0 1-.52-1.86l2.34-1.4c.47-.28 1.09-.13 1.37.34s.13 1.09-.34 1.37l-2.34 1.4a.96.96 0 0 1-.51.14Z"/></svg>

