<svg xmlns="http://www.w3.org/2000/svg" viewBox="0 0 48 48"><title>Windenergie</title><path d="m37.77 22.93-11.25-2.76c-.11-.12-.23-.24-.36-.35l-.02-6.17-2.96-5.93a2.935 2.935 0 0 0-3.44-1.54 2.939 2.939 0 0 0-2.02 3.61l3.14 11.24c-.07.15-.12.3-.16.46l-5.32 3.13-3.63 5.54c-.79 1.18-.62 2.76.41 3.75.57.54 1.3.81 2.03.81s1.53-.3 2.11-.89l4.4-4.54-.79 10.73H9c-.55 0-1 .45-1 1s.45 1 1 1h30c.55 0 1-.45 1-1s-.45-1-1-1H28.03l-.99-13.45 3.24 1.81 6.62.33h.18c1.35 0 2.53-.92 2.85-2.25.38-1.57-.59-3.15-2.15-3.54ZM21.91 40.02l.29-3.91h3.54l.29 3.91h-4.11Zm.95-12.97 1.03-1.06h.08c.36 0 .69-.08 1.01-.18l.61 8.3h-3.24l.52-7.06Zm-.33-4.55c0-.83.64-1.5 1.44-1.5s1.44.67 1.44 1.5-.64 1.5-1.44 1.5c-.79 0-1.44-.67-1.44-1.5ZM19.64 9.26a.936.936 0 0 1 .64-1.15c.44-.13.9.08 1.1.5l2.75 5.52.02 4.9c-.06 0-.12-.02-.19-.02-.54 0-1.04.14-1.5.37L19.63 9.27Zm-4.78 23.18c-.35.37-.95.38-1.32.02a.927.927 0 0 1-.12-1.2l3.38-5.16 3.98-2.34c.22.58.6 1.08 1.07 1.47l-6.98 7.21ZM37.97 26a.93.93 0 0 1-.97.71l-6.16-.31-3.9-2.18c.29-.51.46-1.09.46-1.72v-.05l9.89 2.43c.5.12.8.63.68 1.12Z"/></svg>