<svg xmlns="http://www.w3.org/2000/svg" viewBox="0 0 48 48"><title>Winkelen</title><path d="M38.18 16.86A2.013 2.013 0 0 0 36.19 15H35v-3c-.02-3.31-3.15-5.99-6.96-5.99-.7 0-1.38.09-2.04.27v-.02s-.04.01-.05.02c-.6-.17-1.22-.26-1.87-.26-3.9 0-7.07 3.11-7.07 6.92l-.02 2.07-5.11-.02c-1.05 0-1.92.8-2 1.85L8.15 39.86c-.09 1.16.83 2.15 1.99 2.15h27.71c1.16 0 2.08-.99 1.99-2.14l-1.66-23ZM25.95 8.38c1.8.72 3.05 2.47 3.05 4.56L28.98 15H23v-2.96c0-1.58 1.22-3.01 2.95-3.66ZM10.23 40l1.58-23 5.19.02v2.89c-.3.27-.5.67-.5 1.11 0 .83.67 1.5 1.5 1.5s1.5-.67 1.5-1.5c0-.44-.2-.84-.5-1.11l.02-6.99c0-2.18 1.5-4.01 3.54-4.63-.95 1.02-1.55 2.31-1.55 3.71v3.13c-.31.17-.54.49-.54.87 0 .55.45 1 1 1h7.54v2.88c-.33.28-.54.68-.54 1.14 0 .83.67 1.5 1.5 1.5a1.498 1.498 0 0 0 1.04-2.58l.02-7.03c0-1.86-.75-3.55-1.96-4.78 2.22.36 3.94 1.97 3.94 3.89v3.12c-.31.17-.52.49-.52.86 0 .55.45 1 1 1h2.78l1.52 23H10.23ZM22.1 27H25c.55 0 1 .45 1 1s-.45 1-1 1h-3.6c-.05.32-.08.66-.08 1s.03.68.08 1H25c.55 0 1 .45 1 1s-.45 1-1 1h-2.9c.69 1.21 1.78 2 3.02 2 .79 0 1.55-.32 2.2-.93a.996.996 0 0 1 1.41.04c.38.4.36 1.04-.04 1.41-1.02.96-2.26 1.47-3.56 1.47-2.31 0-4.3-1.64-5.23-4h-.89c-.55 0-1-.45-1-1s.45-1 1-1h.38c-.04-.33-.07-.66-.07-1s.03-.67.07-1h-.38c-.55 0-1-.45-1-1s.45-1 1-1h.89c.93-2.36 2.93-4 5.23-4 1.31 0 2.54.51 3.57 1.47a.996.996 0 1 1-1.37 1.45c-.65-.61-1.41-.93-2.2-.93-1.24 0-2.33.79-3.02 2Z"/></svg>

