<svg xmlns="http://www.w3.org/2000/svg" viewBox="0 0 48 48"><title>Winkelwagen</title><path d="M36 39.96c0 1.08-.88 1.96-1.96 1.96s-1.96-.88-1.96-1.96.88-1.96 1.96-1.96 1.96.88 1.96 1.96ZM39.76 11c1.19 0 2.12 1.04 1.99 2.22l-1.37 12.09c-.13 1.97-1.75 3.55-3.74 3.66L24 28.99 22 29h-6.23l-1.16 2.16c-.47.87-.13 1.62.04 1.9.17.28.66.94 1.65.94H35c.55 0 1 .45 1 1s-.45 1-1 1H16.47c-1.28 0-2.44-.51-3.17-1.39-1.05-1.28-1.22-2.96-.44-4.39l1.35-2.53-2.27-19.68H7c-.55 0-1-.45-1-1s.45-1 1-1h4.52c1.18 0 2.17.84 2.37 2l.25 3h25.61Zm0 2H33v6h6.08l.68-6ZM24 13v6h7v-6h-7Zm-9.47 0 .69 6H22v-6h-7.47ZM22 26.99V21h-6.55l.69 6H22Zm2 0h7V21h-7v5.99Zm14.4-1.9.46-4.09H33v5.97h3.58c.97-.08 1.74-.84 1.81-1.79v-.1ZM14 38c-1.1 0-2 .9-2 2s.9 2 2 2 2-.9 2-2-.9-2-2-2Z"/></svg>

