<svg xmlns="http://www.w3.org/2000/svg" viewBox="0 0 48 48"><title>WMO</title><path d="M25 25h5c1.1 0 2-.9 2-2v-3c0-1.1-.9-2-2-2h-5c-1.1 0-2 .9-2 2v3c0 1.1.9 2 2 2Zm0-5 5-.02V23l-5 .02V20Zm12.84 13-5.83-.02s-.01 0-.01-.01c0-1.91-1.13-3.45-2.59-3.93l-8.42-2.82c-.31-.1-.65-.12-.99-.08V15.48l7.48-6.35h.02l7.49 6.33V30c0 .55.45 1 1 1s1-.45 1-1V17.15l1.71 1.52a.99.99 0 0 0 1.41-.1c.35-.42.31-1.04-.1-1.4l-3.03-2.65V11c0-.55-.44-.99-.99-.99h-.01c-.55 0-.99.44-.99.99v1.6l-6.14-5.09c-.77-.71-1.95-.72-2.72-.01l-11.04 9.47c-.41.36-.45.99-.09 1.4a1 1 0 0 0 1.42.08L18 17.01v9.39s0 .01-.01.01l-4.17.84h-.01c-.34-.69-1.07-1.23-1.81-1.23H8.01c-1.11 0-2.01.9-2.01 2.01V38c0 1.11.9 2.01 2.01 2.01h3.97c1.11 0 2.01-.9 2.01-2.01s0-.02.02-.01L25.2 40.8c.83.23 1.73.25 2.57.05l13.42-3.08c.47-.11.8-.53.8-1.01v-.53c0-1.99-1.87-3.22-4.16-3.22Zm-25.85 5H8.02s-.01 0-.01-.01v-9.97s0-.01.01-.01h3.97s.01 0 .01.01v9.97s0 .01-.01.01Zm14.7 1.01-12.68-3.07s-.01 0-.01-.01v-6.85s0-.01.01-.01l6.08-.99c.17-.03.34-.01.5.04l8 2.82c.77.26 1.4 1.36 1.41 2.05V33c-.18 0-4.16-.08-4.66-.22l-2.32-.67c-.52-.15-1.06.14-1.23.65v.02c-.18.54.12 1.12.67 1.27l2.17.63c.76.22 1.53.33 2.31.33l10.85.02c.77 0 2.06.55 2.14 1.27l-13.22 2.72Z"/></svg>
