<svg xmlns="http://www.w3.org/2000/svg" viewBox="0 0 48 48"><title>Woning zoeken</title><path d="m41.41 29.32-7.25-7.25a1.983 1.983 0 0 0-2.82 0l-.35.35-1.62-1.62a8.922 8.922 0 0 0 2.04-5.7c0-4.96-4.04-9-9-9s-9 4.04-9 9 4.04 9 9 9c2.08 0 3.99-.72 5.52-1.91l1.65 1.65-.35.35c-.78.78-.78 2.05 0 2.83l7.25 7.25c.39.39.9.59 1.41.59s1.02-.2 1.41-.59l2.12-2.12a1.983 1.983 0 0 0 0-2.82ZM22.4 22.1c-3.86 0-7-3.14-7-7s3.14-7 7-7 7 3.14 7 7-3.14 7-7 7Zm15.47 10.76-7.25-7.25 2.12-2.12 7.25 7.25-2.12 2.12Zm-31.8-2.85Zm13.97 2h1c.55 0 1 .45 1 1s-.45 1-1 1h-1c-.55 0-1-.45-1-1s.45-1 1-1Zm2 5c0 .55-.45 1-1 1h-1c-.55 0-1-.45-1-1s.45-1 1-1h1c.55 0 1 .45 1 1Zm3.95-6.23c0-.64-.31-1.25-.83-1.62l-3.51-2.82c-.7-.5-1.63-.5-2.33 0l-3.34 2.69-3.29-2.66c-.69-.5-1.63-.5-2.32-.01l-3.56 2.8a2 2 0 0 0-.82 1.62v9.23c0 1.1.9 2 2 2h16c1.1 0 2-.9 2-2v-9.23Zm-11 9.23h-7v-9.25l3.48-2.78 3.52 2.79v9.25Zm9 0h-7v-9.25l3.48-2.78 3.52 2.79v9.25Zm-12.95-8h1c.55 0 1 .45 1 1s-.45 1-1 1h-1c-.55 0-1-.45-1-1s.45-1 1-1Zm2 5c0 .55-.45 1-1 1h-1c-.55 0-1-.45-1-1s.45-1 1-1h1c.55 0 1 .45 1 1Z"/></svg>

