<svg xmlns="http://www.w3.org/2000/svg" viewBox="0 0 48 48"><title>WOZ waarde</title><path d="M41.83 39.5c.31.46.19 1.08-.27 1.39A6.328 6.328 0 0 1 38 42c-1.81 0-3.6-.8-4.96-2.35a8.133 8.133 0 0 1-1.53-2.66h-1.52c-.55 0-1-.45-1-1s.45-1 1-1h1.07a9.55 9.55 0 0 1 0-2h-1.08c-.55 0-1-.45-1-1s.45-1 1-1h1.52c.32-.92.8-1.79 1.43-2.54 2.26-2.69 5.8-3.24 8.61-1.35.46.31.58.93.27 1.39-.31.46-.93.58-1.39.27-1.93-1.3-4.38-.9-5.96.98-.32.38-.57.81-.79 1.26h4.31c.55 0 1 .45 1 1s-.45 1-1 1h-4.93c-.09.66-.09 1.34 0 2h4.92c.55 0 1 .45 1 1s-.45 1-1 1h-4.3c.23.48.5.94.86 1.34 1.6 1.83 3.96 2.19 5.89.89a.999.999 0 0 1 1.39.27ZM18.97 27.99h6c1.1 0 2-.9 2-2v-4c0-1.1-.9-2-2-2h-6c-1.1 0-2 .9-2 2v4c0 1.1.9 2 2 2Zm0-6h6v4h-6v-4Zm15.01-5.74v-4.27c0-.55-.44-.99-.99-.99-.54 0-.98.44-.98.99v2.54l-8.68-8.05c-.76-.67-1.89-.67-2.65 0L6.77 19.06a.99.99 0 0 0-.1 1.41c.36.41.99.46 1.4.09l1.95-1.71L10 33.99c0 1.11.89 2 2 2h14.51c.55 0 1-.45 1-1s-.45-1-1-1H11.96V17.15L22 7.95l9.96 9.18v7.85c0 .55.46 1 1.01 1s1-.45 1-1v-6.1l1.95 1.69c.42.36 1.05.31 1.41-.1a.998.998 0 0 0-.1-1.41l-3.26-2.82Z"/></svg>
