<svg xmlns="http://www.w3.org/2000/svg" viewBox="0 0 48 48"><title>Zelfstandig wonen</title><path d="M16 23c1.65 0 3-1.35 3-3s-1.35-3-3-3-3 1.35-3 3 1.35 3 3 3Zm0-4c.55 0 1 .45 1 1s-.45 1-1 1-1-.45-1-1 .45-1 1-1Zm2.27 19.47a6.486 6.486 0 0 1-6.91 3.43c-2.66-.45-4.81-2.61-5.26-5.27-.51-2.98 1.03-5.67 3.43-6.91.67-.34 1.47.14 1.47.89 0 .38-.2.72-.52.88-1.78.9-2.89 2.94-2.33 5.17a4.45 4.45 0 0 0 3.18 3.18c2.23.57 4.27-.54 5.17-2.33.17-.33.51-.52.88-.52.75 0 1.24.8.89 1.47ZM24 36v5c0 .55-.45 1-1 1s-1-.45-1-1v-5c0-.55-.45-1-1-1h-5.06C14.32 35 13 33.68 13 32.06V27c0-1.65 1.35-3 3-3s2.98 1.33 3 2.96V31c0 .55-.45 1-1 1s-1-.45-1-1v-4c0-.55-.45-1-1-1s-1 .45-1 1v5.06c0 .52.42.94.94.94H21c1.65 0 3 1.34 3 3Zm5.99-7.99c1.1 0 2-.9 2-2v-4c0-1.1-.9-2-2-2h-6c-1.1 0-2 .9-2 2v4c0 1.1.9 2 2 2h6Zm-6-6h6v4h-6v-4Zm17.7-3.5c.41.36.46.98.1 1.39l-.02.02c-.36.41-.98.45-1.39.1L39 18.91l.03 16.1c0 1.11-.89 2-2 2H26.55c-.55 0-1-.45-1-1s.45-1 1-1h10.48L37 17.15l-9.96-9.18-8.37 7.73c-.38.33-.94.34-1.32 0a.999.999 0 0 1 0-1.51l8.35-7.72c.76-.67 1.9-.67 2.65 0l8.68 8.04v-2.54c0-.54.44-.98.98-.99.55 0 .99.44.99.99v4.27l2.69 2.25Z"/></svg>
