<svg xmlns="http://www.w3.org/2000/svg" viewBox="0 0 48 48"><title>Zelfbeheer tegel</title><path d="M25.77 17.1a4.62 4.62 0 0 0-5.19-3.13C20.26 11.73 18.33 10 16 10s-4.26 1.73-4.58 3.97c-.26-.04-.52-.07-.79-.07a4.62 4.62 0 0 0-4.4 3.2c-.38 1.18-.28 2.43.28 3.53.46.9 1.19 1.61 2.08 2.05a4.623 4.623 0 0 0 4.1 6.78c.83 0 1.63-.24 2.33-.65v6.73c-1.77-2.06-4.41-3.68-6.98-4.04-.58-.08-1.09.45-1.02 1.07.51 4.92 4.25 8.86 8.83 9.42v.02H16.09c4.62-.52 8.42-4.48 8.93-9.44.06-.62-.44-1.15-1.02-1.07-2.57.37-5.21 1.99-6.99 4.04v-6.73c.71.41 1.51.65 2.34.65.98 0 1.92-.31 2.72-.88 1-.73 1.66-1.8 1.85-3.02.16-1-.01-2-.48-2.88 2.03-1 3.08-3.37 2.36-5.58ZM9.07 33.73c2.58.85 5.12 3.05 5.96 5.32v1.02c-2.82-1.1-5.17-3.33-5.96-6.34Zm13.85 0c-.79 3.02-3.14 5.25-5.96 6.34v-1.02c.85-2.27 3.38-4.47 5.96-5.32Zm-.75-12.69c-.17.06-.36.09-.54.11-.39.04-.73.31-.85.68-.12.38-.01.79.28 1.05.14.13.27.27.38.41.41.57.58 1.26.47 1.96s-.48 1.3-1.05 1.72c-1.14.83-2.85.54-3.67-.58-.11-.15-.2-.31-.28-.48a.998.998 0 0 0-1.82 0c-.08.18-.17.34-.28.48-.82 1.13-2.54 1.41-3.67.58a2.634 2.634 0 0 1-.21-4.08c.29-.26.41-.68.28-1.05s-.46-.65-.85-.69c-.19-.02-.37-.06-.54-.11a2.61 2.61 0 0 1-1.53-1.31c-.32-.63-.38-1.34-.16-2.01.44-1.35 1.94-2.14 3.31-1.69.17.06.34.13.51.23.34.2.77.18 1.09-.06.32-.23.47-.63.39-1.02-.04-.19-.06-.37-.06-.55 0-1.45 1.18-2.63 2.63-2.63s2.63 1.18 2.63 2.63c0 .18-.02.37-.06.55-.08.39.07.79.39 1.02.32.23.75.25 1.09.06.16-.09.33-.17.51-.23 1.37-.45 2.88.34 3.32 1.69.45 1.38-.31 2.87-1.69 3.31Zm14.82 1.06v-2.09c.55 0 1-.45 1-1v-10c0-1.66-1.34-3-3-3h-2c-1.66 0-3 1.34-3 3v10c0 .55.45 1 1 1v2.09c-2.83.48-5 2.94-5 5.91 0 4.04 3.19 14 8 14s8-9.96 8-14c0-2.97-2.17-5.43-5-5.91Zm-5-13.09c0-.55.45-1 1-1h2c.55 0 1 .45 1 1v9h-4v-9Zm2 31c-2.92 0-6-8.33-6-12 0-2.21 1.79-4 4-4 .55 0 1-.45 1-1v-3h2v9c0 .54-.24 1-.46 1.11-.49.25-.69.85-.43 1.35.18.35.53.54.89.54.15 0 .31-.04.46-.11.94-.48 1.54-1.61 1.54-2.89v-4.86c1.72.45 3 2 3 3.86 0 3.67-3.08 12-6 12Zm-16-20c0 1.1-.9 2-2 2s-2-.9-2-2 .9-2 2-2 2 .9 2 2Z"/></svg>

