<svg xmlns="http://www.w3.org/2000/svg" viewBox="0 0 48 48"><title>Zoeken</title><path d="m40.43 35.48-10.4-10.37a1.983 1.983 0 0 0-2.82 0l-.35.35-1.28-1.28a10.45 10.45 0 0 0 2.42-6.7c0-5.79-4.71-10.5-10.5-10.5S7 11.69 7 17.48s4.71 10.5 10.5 10.5c2.53 0 4.85-.9 6.66-2.39l1.28 1.28-.35.35c-.78.78-.78 2.05 0 2.83l10.4 10.37c.39.39.9.59 1.41.59s1.02-.2 1.41-.59l2.12-2.12a1.983 1.983 0 0 0 0-2.82Zm-22.94-9.49c-4.69 0-8.5-3.81-8.5-8.5s3.81-8.5 8.5-8.5 8.5 3.81 8.5 8.5-3.81 8.5-8.5 8.5Zm11.13.53 6.99 6.96-2.12 2.12-6.99-6.96 2.12-2.12Zm8.28 12.49-2-2 2.12-2.12 2 2-2.12 2.12Z"/></svg>

