<svg xmlns="http://www.w3.org/2000/svg" viewBox="0 0 48 48"><title>Zwemabonnement</title><path d="M11.77 11.75c0-.97.78-1.75 1.73-1.75s1.73.78 1.73 1.75-.78 1.75-1.73 1.75-1.73-.78-1.73-1.75ZM30 30.5c0-2.48 2.02-4.5 4.5-4.5s4.5 2.02 4.5 4.5-2.02 4.5-4.5 4.5-4.5-2.02-4.5-4.5Zm2 0a2.5 2.5 0 0 0 5 0 2.5 2.5 0 0 0-5 0Zm-1.1 6.05-3.89-7.79A4.979 4.979 0 0 0 22.54 26h-6.53c-.55 0-1 .45-1 1s.45 1 1 1h6.53c1.14 0 2.17.64 2.68 1.66l-9.71 5.47c-.48.27-.65.88-.37 1.36.18.32.52.5.87.5.17 0 .34-.04.5-.13l9.63-5.38 2.98 5.96a1.007 1.007 0 0 0 1.35.44c.49-.25.69-.85.45-1.34ZM13.5 14.3c-1.12 0-3.33.55-3.5 1.62.07.48.5 1 1 1h5c.5 0 .93-.38 1-.86v-.14c-.17-1.08-2.38-1.62-3.5-1.62ZM6 18.96V8c0-1.11.9-2.01 2-2.01h17.97c1.12 0 2.03.91 2.03 2.03v10.94c0 1.12-.91 2.03-2.03 2.03H8.03c-1.12 0-2.03-.91-2.03-2.03Zm2 .02h18V7.99H8v10.99ZM41.43 38.2c-2.35-1.24-5.38-.95-7.36.71-1.58 1.33-4.26 1.33-5.84 0-2.36-1.97-6.05-1.97-8.41 0-1.58 1.33-4.26 1.33-5.84 0-2.02-1.69-5.09-1.96-7.46-.65a1 1 0 1 0 .97 1.75c1.64-.9 3.83-.72 5.21.43 2.36 1.97 6.05 1.97 8.41 0 1.58-1.33 4.26-1.33 5.84 0 1.18.99 2.69 1.48 4.2 1.48s3.03-.49 4.2-1.48c1.35-1.13 3.51-1.33 5.14-.47.49.26 1.09.07 1.35-.42a.996.996 0 0 0-.42-1.35ZM23 10.99h-3c-.55 0-1 .45-1 1s.45 1 1 1h3c.55 0 1-.45 1-1s-.45-1-1-1Zm-1 4h-2c-.55 0-1 .45-1 1s.45 1 1 1h2c.55 0 1-.45 1-1s-.45-1-1-1Z"/></svg>

