<svg xmlns="http://www.w3.org/2000/svg" viewBox="0 0 48 48"><title>Zwemmen</title><path d="M15.02 14c0-.55.45-1 1-1h6.53c1.91 0 3.62 1.06 4.47 2.76l3.89 7.79c.25.49.05 1.09-.45 1.34a1.007 1.007 0 0 1-1.35-.44l-2.98-5.97-9.63 5.39c-.16.09-.33.13-.5.13a.996.996 0 0 1-.5-1.86l9.71-5.47a2.988 2.988 0 0 0-2.68-1.66H16c-.55 0-1-.45-1-1Zm15 3.5c0-2.48 2.02-4.5 4.5-4.5s4.5 2.02 4.5 4.5S37 22 34.52 22s-4.5-2.02-4.5-4.5Zm2 0a2.5 2.5 0 0 0 5 0 2.5 2.5 0 0 0-5 0ZM7.5 27.82c1.64-.9 3.83-.72 5.21.43 2.36 1.97 6.05 1.97 8.41 0 1.58-1.33 4.26-1.33 5.84 0 1.18.99 2.69 1.48 4.2 1.48s3.03-.49 4.2-1.48c1.35-1.13 3.51-1.33 5.14-.47.49.26 1.09.07 1.35-.42a.996.996 0 0 0-.42-1.35c-2.35-1.24-5.38-.95-7.36.71-1.58 1.33-4.26 1.33-5.84 0-2.36-1.97-6.05-1.97-8.41 0-1.58 1.33-4.26 1.33-5.84 0-2.02-1.69-5.09-1.96-7.46-.65a1 1 0 1 0 .97 1.75Zm33.94 3.46c-2.35-1.24-5.38-.95-7.36.71-1.58 1.33-4.26 1.33-5.84 0-2.36-1.97-6.05-1.97-8.41 0-1.58 1.33-4.26 1.33-5.84 0-2.02-1.69-5.09-1.96-7.46-.65a1 1 0 1 0 .97 1.75c1.64-.9 3.83-.72 5.21.43 2.36 1.97 6.05 1.97 8.41 0 1.58-1.33 4.26-1.33 5.84 0 1.18.99 2.69 1.48 4.2 1.48s3.03-.49 4.2-1.48c1.35-1.13 3.51-1.33 5.14-.47.49.26 1.09.07 1.35-.42a.996.996 0 0 0-.42-1.35Z"/></svg>

