<svg xmlns="http://www.w3.org/2000/svg" viewBox="0 0 48 48"><title>Paspoort ID-kaart gecombineerd</title><path d="M30 15.02V23h-6v-1h-1v-1h.49l.5-3h-1l-.5-1-3.17.32-.91.91-.2 1.62 1.21.22-.47 1.91-1.65.83.6-1.05s-.47-.89-.5-.95c-.03-.07.09-.8.09-.8l-1.5-.5-2 5v.99l1 .6-1 1.07-1.5-.54-.5 1.07 2 1.61 1.02-.89v4.57h-3v2h3v5h-5c-2.21 0-4-1.79-4-4V10c0-2.21 1.79-4 4-4h13.27c1.73 0 3.15 1.31 3.39 3H10c-.55 0-1 .44-1 1v1.06c0 .55.45 1 1 1l16.98-.05c1.67 0 3.02 1.34 3.02 3.01Zm12 14v9.97c0 1.66-1.36 3.01-3.03 3.01H21.05c-1.68 0-3.04-1.35-3.04-3.02v-9.97c0-1.66 1.36-3.01 3.04-3.01h7.96v3h2v-3h7.95c1.68 0 3.05 1.35 3.05 3.02Zm-17.26 3.74c0 .98.78 1.77 1.75 1.77s1.75-.79 1.75-1.77-.78-1.77-1.75-1.77-1.75.79-1.75 1.77ZM30 37.12c0-1.17-2.33-1.77-3.5-1.77s-3.5.59-3.5 1.77V38h7v-.88ZM36 36h-4v2h4v-2Zm1-4h-5v2h5v-2Z"/></svg>
