<svg xmlns="http://www.w3.org/2000/svg" viewBox="0 0 48 48"><title>Paspoort ID-kaart gecombineerd belgie</title><path d="M39.47 25h-7.48v2c0 .55-.45 1-1 1s-1-.45-1-1v-2h-7.96c-1.12 0-2.03.91-2.03 2.03v12.42c0 1.4 1.14 2.54 2.54 2.54h16.93c1.4 0 2.53-1.13 2.53-2.53V27.52a2.54 2.54 0 0 0-2.53-2.53Zm-11.96 5.07c.96 0 1.74.78 1.74 1.75s-.78 1.75-1.74 1.75-1.74-.78-1.74-1.75.78-1.75 1.74-1.75ZM30 37h-5c-.55 0-1-.45-1-1 0-1.16 2.33-1.62 3.5-1.62S31 34.84 31 36c0 .55-.45 1-1 1Zm7-1c0 .55-.45 1-1 1h-2c-.55 0-1-.45-1-1s.45-1 1-1h2c.55 0 1 .45 1 1Zm0-3h-3c-.55 0-1-.45-1-1s.45-1 1-1h3c.55 0 1 .45 1 1s-.45 1-1 1Zm-8-20.71V23h-4.72l.72-1.97-.65-.42.3-.54-2.37-1.12.69-2-1.32-.91-1.06.22-.12-.09v-.72h-2.76v.24l-.83-.12-1.33 1.01-1.53-.48-.53-.43-3.21 1.66.24 1.52 1.16.76.5-.42.41.06.85 1.69.9.09.33 1.04 1.25-.24-.05.53v1.74l2.12-.04V31h-5c-.55 0-1 .44-1 1 0 .55.45 1 1 1h5v6H8.03c-1.13 0-2.04-.91-2.04-2.04l.02-28.01C6.01 7.32 7.33 6 8.96 6H24.02C26 6 26 8 26 8H9c-.56 0-1 .44-1 1s.44 1 1 1h17.7c.61 0 1.19.24 1.62.67.44.43.68 1.01.68 1.63Z"/></svg>
