<svg xmlns="http://www.w3.org/2000/svg" viewBox="0 0 48 48"><title>Aanmelden</title><path d="M42.01 9v3h-3v3h-3v-3h-3V9h3V6h3v3h3ZM11 14V6.75c0-.41-.34-.75-.75-.75s-.75.34-.75.75V9H8.25C7.01 9 6 10.26 6 11.5S7.01 14 8.25 14H11Zm16.01 7.99H14.43c-2.36 0-3.43-1.91-3.43-4V16.1l-4-.06v1.95c0 4.26 2.9 8 7.43 8h.61v16l13.92-.08V39l3.03-.06.02-11.97c0-2.81-2.19-5-5-5ZM15.05 11.43l.12.03c.56.13 1.12.2 1.66.2 2.07 0 4.08-.86 5.53-2.36l1.6-1.58 1.37 1.36a7.68 7.68 0 0 0 3.07 2.09l.22.08-.07-.23c-.89-2.92-3.65-4.96-6.69-4.96s-5.97 2.16-6.77 5.25l-.03.11Zm-.18 2.06v.16c.31 3.6 3.38 6.41 6.98 6.41s6.76-2.89 6.98-6.58v-.1l-.65-.13a9.545 9.545 0 0 1-4.15-2.77l-.09-.1-.09.1c-1.79 2.06-4.36 3.24-7.03 3.24-.59 0-1.19-.07-1.8-.19l-.15-.03Z"/></svg>
