<svg xmlns="http://www.w3.org/2000/svg" viewBox="0 0 48 48"><title>Actueel</title><path d="M41.93 9.01h-26l.05 23.53c0 .9-.36 1.75-1 2.4-.69.69-1.57 1.08-2.6 1.05a3.391 3.391 0 0 1-3.36-3.38V16.12c0-.53.43-.96.96-.96.34 0 .57.17.67.28.15.15.24.34.24.52v17.06h3V15.96c0-.99-.4-1.93-1.13-2.65a3.951 3.951 0 0 0-2.79-1.15h-.02a3.971 3.971 0 0 0-3.94 3.96v16.49c0 3.5 2.85 6.36 6.35 6.38h22.2c4.09 0 7.42-3.32 7.42-7.42l-.05-22.56ZM20 13h16v2H20v-2Zm0 4h13v8.02H20V17Zm18 16.02H20v-2h18v2Zm0-4H20v-2h18v2ZM38 23h-3v-2h3v2Zm0-4h-3v-2.04h3V19Zm-6.92 4h-9v-4.02h9V23Z"/></svg>
