<svg xmlns="http://www.w3.org/2000/svg" viewBox="0 0 48 48"><title>Afval GFT</title><path d="M31 9H12c0-1.65 1.35-3 3-3h13c1.65 0 3 1.35 3 3ZM14.01 36c-1.66 0-3 1.34-3 3s1.34 3 3 3 3-1.34 3-3-1.34-3-3-3Zm25.95-20.06c-2.33 1.2-3.98 1.36-5.73 1.53-1.58.15-3.37.33-5.67 1.35-1.88.84-3.24 2.3-3.84 4.12-.44 1.33-.67 3.48.73 6.19l.09.17-2.02 3.18h2.62l1.16-1.83.08.04c1.19.58 2.45.87 3.75.87 1.91 0 3.81-.64 5.2-1.75 3.71-2.96 4.69-9.94 4.69-13.22v-1.2l-1.06.55ZM8.5 12c-.83 0-1.5.67-1.5 1.5S7.67 15 8.5 15c0 0 3.5-.04 3.5 0l.7 18.12a5.945 5.945 0 0 1 6.38 8.87H25c1.47.01 2.73-1.07 2.94-2.53l.63-5.41h-.97s-.99 1.08-1.69 1.08h-.73l-2.63-.05a1.999 1.999 0 0 1-1.9-2.53c.1-.35.17-.61.2-.67.49-.9 1.01-1.75 1.56-2.58-1.27-3.11-.94-5.66-.39-7.32.86-2.6 2.78-4.68 5.41-5.85 1.66-.74 2.29-.95 3.55-1.16l.03.03h2v-3H8.5Z"/></svg>
