<svg xmlns="http://www.w3.org/2000/svg" viewBox="0 0 48 48"><title>Afvalkalender</title><path d="M32 9V6h-3v6h-2V9l-8-.02V6h-3l-.02 6H14V9l-4-.02-.02 28.51C9.98 39.97 12 42 14.49 42l19.02.04c2.48 0 4.5-2.02 4.5-4.5V9h-6ZM20.9 35.94c-.83 0-1.5-.67-1.5-1.5s.67-1.5 1.5-1.5 1.5.67 1.5 1.5-.67 1.5-1.5 1.5Zm7.05-1.31c-.06.78-.71 1.38-1.49 1.38h-2.97c.41-.71.57-1.58.23-2.53a2.95 2.95 0 0 0-1.91-1.83c-.93-.29-1.81-.11-2.5.33l-.28-8.97h9.99l-1.06 11.62ZM31 21.01l-13 .03v-2.05l.99.02c0-.55.45-1 1-1h7.79c.55 0 1 .45 1 1H31v2Z"/></svg>
