<svg xmlns="http://www.w3.org/2000/svg" viewBox="0 0 48 48"><title>Afvalcontainer pas</title><path d="M31 36h8.02V20.39c0-5.77-4.19-10.46-9.97-10.46V7.41c0-.81-.67-1.46-1.51-1.46h-2.97c-.86 0-1.54.66-1.54 1.49v2.49c-5.53 0-10.01 4.48-10.01 10.01v4.03h12.93c2.78 0 5.05 2.25 5.05 5.02v7ZM25.04 7.94h1.98v2h-1.98v-2Zm-5.02 12 1-5h10l1 5h-12ZM6 28.96v11C6 41.09 6.91 42 8.04 42h17.99c1.09 0 1.97-.88 1.97-1.97V28.95c0-1.07-.87-1.94-1.94-1.94H7.96c-1.08 0-1.96.88-1.96 1.96Zm7.51 2.05h.04c.96 0 1.74.78 1.74 1.75s-.78 1.75-1.74 1.75h-.04c-.96 0-1.74-.78-1.74-1.75s.78-1.75 1.74-1.75Zm3.52 7.01h-6.99c0-1.53 1.28-2.74 2.81-2.66l.69.04 1.56-.08c1.06-.06 1.93.77 1.93 1.83v.88Zm5.99 0h-3.95v-1.88h3.95v1.88Zm1.02-4.01h-4.98v-1.88h4.98v1.88ZM42 39v3H30.63c.19-.44.32-.9.37-1.39V39h11Z"/></svg>
