<svg xmlns="http://www.w3.org/2000/svg" viewBox="0 0 48 48"><title>Afvalbak PMD</title><path d="M14 37.07c0 1.66-1.34 3-3 3s-3-1.34-3-3 1.34-3 3-3 3 1.34 3 3ZM30 8h-4c0-1.1-.9-2-2-2H9.96C8.88 6 8 6.88 8 7.96V8H6v3h24V8Zm-4.54 14.93L27 14H8.04L8 31.83a5.92 5.92 0 0 1 3.04-.83c3.31 0 6 2.69 6 6 0 .25-.02.49-.05.74 0 .06-.02.12-.03.18-.03.2-.07.39-.12.58l-.03.13c-.14.49-.33.95-.58 1.37H19V27.97s2-5.04 2.04-5.04h4.43ZM22.88 26 22 28v12.07l.89 1.89 8.2.03.9-2V28.13l-.89-2.11-8.23-.03Zm15.1-17.97-4-.03v3H38l-.02-2.97Zm3.93 10.57-.03-.11c-.05-.4-.21-.77-.49-1.07-.76-.99-3.53-4.38-3.53-4.38h-3.87s-2.58 3.3-3.49 4.41c-.26.28-.42.64-.47 1.04 0 0-.08 4.36-.08 4.51h3.04l2 4.97v12.14l-.23.43L34 42h5.41c1.39 0 2.52-1.13 2.52-2.52V32h.05l-.09-13.4Z"/></svg>
