<svg xmlns="http://www.w3.org/2000/svg" viewBox="0 0 48 48"><title>Afvalzak</title><path d="M25.53 8.92c.15-.22.21-.48.16-.74s-.19-.48-.41-.63l1.13-1.65c1.36.93 1.7 2.8.77 4.15-.15.22-.21.48-.16.74s.19.48.41.63l-1.13 1.65c-1.36-.93-1.7-2.8-.77-4.15Zm1.76 7.47c.29-.31-.13-.67-.78-.67h-.86c-.79 0-2.3-.11-2.97-.33l-1.01-.32c-.72-.23-1.57.17-1.24.58l2.03 3.36H26l1.29-2.62Zm6.62 21.72c-1.38-2.26-1.75-3.45-1.81-4.05-.05-.48-.1-.72-.14-.93-.04-.21-.07-.38-.11-.82l-.07-1.01c-.15-2.17-.34-3.88-.94-5.24-.54-1.24-2.27-2.57-3.66-3.37-.4-.23-.78-.46-1.07-.64l-1.61-.02c0 .14-.03.28-.1.42l-1.5 3-1.79-.89 1.27-2.55h-.41c-.29.21-.76.49-1.26.78-1.41.82-3.01 2.09-3.54 3.28-.6 1.36-.79 3.06-.94 5.24l-.07 1.01c-.03.43-.07.6-.11.82-.04.21-.08.45-.14.93-.07.6-.44 1.79-1.81 4.05-.46.75-.56 1.64-.26 2.38.38.93 1.21 1.51 2.17 1.51h16c.96 0 1.79-.58 2.17-1.51.3-.73.2-1.62-.26-2.38ZM21.37 13.07l1.13-1.65c-.22-.15-.36-.37-.41-.63s0-.52.16-.74c.93-1.36.59-3.22-.77-4.15l-1.13 1.65c.22.15.36.38.41.63s0 .52-.16.74c-.93 1.36-.59 3.22.77 4.15Z"/></svg>
