<svg xmlns="http://www.w3.org/2000/svg" viewBox="0 0 48 48"><title>Afval groenbak</title><path d="M16 37c0 1.66-1.34 3-3 3s-3-1.34-3-3 1.34-3 3-3 3 1.34 3 3ZM32 8h-4c0-1.1-.9-2-2-2H11.96C10.88 6 10 6.88 10 7.96V8H8v3h24V8Zm.9 16.43c1.71 0 3.1-1.54 3.1-3.43 0-.55-.4-1-.9-1-1.71 0-3.1 1.54-3.1 3.43 0 .55.4 1 .9 1ZM22 25c1-2 3.28-2.71 5.07-2.92l.94-8.08H10l-.04 17.83A5.92 5.92 0 0 1 13 31c3.31 0 6 2.69 6 6 0 .25-.02.49-.05.74 0 .06-.02.12-.03.18-.03.2-.07.39-.12.58l-.03.13c-.14.49-.33.95-.58 1.37H22s-.63-.71-.46-1.41c.23-.93 1.41-1.7 1.41-1.7.86-.82 1.82-2.59 1.82-3.84 0-1.7-.16-2.34-1.46-3.69-1.3-1.36-2.3-2.36-1.3-4.36Zm18 1.89c-.71-1.52-1.55-1.88-3.38-1.88-1.06 0-2.67.69-3.62.91-.09.02-.17.03-.24.05-.06 0-.11.02-.16.02-.03 0-.07.01-.1.01s-.07 0-.1-.01c-.05 0-.1-.01-.16-.02-.08-.01-.16-.03-.24-.05-.96-.22-2.56-.91-3.62-.91-1.83 0-2.67.37-3.38 1.88 1.86 1.29 2.75 3.61 2.75 6.16 0 2.15-1.35 4.69-2.75 6.02.83 1.68 2.34 2.93 3.38 2.93 1.12-.05 2.3-.78 3.62-.94a4.07 4.07 0 0 1 1 0c1.32.16 2.5.88 3.62.94 1.04 0 2.55-1.26 3.38-2.93-1.4-1.33-2.75-3.86-2.75-6.02 0-2.55.89-4.86 2.75-6.16Z"/></svg>
