<svg xmlns="http://www.w3.org/2000/svg" viewBox="0 0 48 48"><title>Afval scheiden</title><path d="M20.89 9.48c0-1.93 1.57-3.5 3.5-3.5s3.5 1.57 3.5 3.5-1.57 3.5-3.5 3.5-3.5-1.57-3.5-3.5ZM15.14 42H8.99l-1-13.02V28h10l-.87 12.15A1.99 1.99 0 0 1 15.13 42Zm12 0h-6.15l-1-12v-4h8c1.1 0 2 .9 2 2l-.86 12.15A2.004 2.004 0 0 1 27.14 42Zm11.99 0h-6.14l-1-12v-4h8c1.1 0 2 .9 2 2l-.86 12.14A2.017 2.017 0 0 1 39.12 42ZM7.73 28 6 27l4-6.93c.55-.96 1.78-1.28 2.73-.73s-5 8.66-5 8.66Zm22.25-10.12c0-1.59-1.3-2.88-2.89-2.88h-6.1c-1.41 0-2.6.64-3.25 1.92L13.99 25h3.18l2.82-5.67V23h10l-.02-5.12Z"/></svg>
