<svg xmlns="http://www.w3.org/2000/svg" viewBox="0 0 48 48"><title>Afval glascontainer</title><path d="m14.98 35 .02 7H6V25c.19-1.73 1.41-3.16 3-3.72V12h3v9.28c1.59.57 2.76 1.99 2.95 3.72v2H10v8h4.98ZM30 9h1v3h2V9h1c.55 0 1-.45 1-1s-.45-1-1-1h-4c-.55 0-1 .45-1 1s.45 1 1 1Zm10 7c0-1.1-.9-2-2-2H18c-1.1 0-2 .9-2 2v4.03a6.84 6.84 0 0 1 2 4.85V33h22V16Zm-18 7c-1.1 0-2-.9-2-2s.9-2 2-2 2 .9 2 2-.9 2-2 2Zm6 0c-1.1 0-2-.9-2-2s.9-2 2-2 2 .9 2 2-.9 2-2 2Zm6 0c-1.1 0-2-.9-2-2s.9-2 2-2 2 .9 2 2-.9 2-2 2ZM18 36v3h24v-3H18Z"/></svg>
