<svg xmlns="http://www.w3.org/2000/svg" viewBox="0 0 48 48"><title>Afval PMD</title><path d="M15 9H9.98L10 6.03 15 6v3Zm3.87 17.03-.89 2.11V40l.9 2 7.2-.03.89-1.89V28.01l-.88-2-7.23.03ZM19 22.8v-3.81h-.05c0-.06.02-.12.03-.18v-.16l-.03-.16v-.02c-.05-.4-.21-.76-.47-1.04-.91-1.11-3.13-4.14-3.4-4.97l-.06-.39-.03-1.06h-4.87l-.12.87-.03.18c-.28.96-2.63 4.36-3.38 5.35-.27.31-.44.68-.49 1.07l-.03.11-.05.19.03.2v.01H6v13h.02v5c0 1.66 1.35 3 3.01 3H15V28.37c0-.57.23-1.44.51-1.93l1.1-1.93c.33-.57.85-1.51 2.41-1.51 0-.08-.01-.13-.02-.19Zm20.62-11.47L38 13.66v26.33l4.02-1.83V12.71l-2.39-1.37ZM25.01 23h1.96c.64.15 1.19.55 1.54 1.12l1.1 2.13c.24.39.36.83.36 1.29V40h5.02l.02-25h-10v8ZM37.99 8.4V6h-9.98v2.74L25.3 12h9.95c.53-.69 2.25-2.96 2.75-3.6Z"/></svg>
