<svg xmlns="http://www.w3.org/2000/svg" viewBox="0 0 48 48"><title>Afval ophalen</title><path d="M17.01 34.48c0 .83-.67 1.5-1.5 1.5s-1.5-.67-1.5-1.5.67-1.5 1.5-1.5 1.5.67 1.5 1.5Zm17.43-1.5c-.83 0-1.5.67-1.5 1.5s.67 1.5 1.5 1.5 1.5-.67 1.5-1.5-.67-1.5-1.5-1.5ZM18.06 16.01h.89c1 0 1.92-.68 2.08-1.66.2-1.25-.76-2.34-1.97-2.34h-6L5.91 25.38 8.95 27l6.11-10.99h3ZM42 23l-.03 9.44c0 .06 0 .09-.02.1a1.48 1.48 0 0 1-1.48 1.39H38.9c-.24-2.26-2.13-4.03-4.45-4.03s-4.21 1.77-4.45 4.03H19.97c-.24-2.26-2.13-4.03-4.45-4.03s-4.21 1.77-4.45 4.03h-.6c-.83 0-1.5-.67-1.5-1.5v-2.01l1.13.6 1.43-2.58 5.25-9.45h2.13c2.49 0 4.65-1.8 5.04-4.18.16-.97.03-1.94-.35-2.81h10.42v4.99h4q1 0 2 2l2 4Zm-2 0-2-4h-4l-.04 4H40Z"/></svg>
