<svg xmlns="http://www.w3.org/2000/svg" viewBox="0 0 48 48"><title>Airborne</title><path d="M20.77 18.02c-1.77-.02-3.25-.06-4.5-.11.04-5.64 2.97-10.97 6.5-11.87-1.5 2.5-2 7.51-2 11.98Zm4.49-11.98c1.51 2.5 2 8.53 2.01 11.98 1.55-.02 2.87-.06 4-.11-.04-5.29-2.8-10.6-6-11.87Zm1.5 0c3.26 1.7 5.52 6.46 5.57 11.82 2.01-.1 3.27-.24 4.07-.38L25.99 37.02l6.34-19.17c-.34.02-.69.03-1.07.05l-6.27 19.13 2.27-19.02c-.32 0-.66 0-1 .01 0-7.38-1.5-11.49-2.25-11.99-.75.5-2.25 4.6-2.25 11.99h2c.89 0 1.71 0 2.49-.01L24 37.02l-2.24-19.01h-1.01l2.27 19.03-6.76-19.14c-.38-.02-.73-.03-1.07-.05l6.8 19.17-10.86-19.54c.8.13 2.06.27 4.07.38.05-5.34 2.31-10.11 5.57-11.82-6.22 1.03-11 5.61-11 11 0 0 0 .02.02.04l13.77 24.7.01.01c.03.05.07.1.12.14.01 0 .02.01.03.02.01 0 .03.02.04.03.07.04.14.06.22.06.08 0 .16-.03.23-.06.02 0 .03-.02.04-.03.01 0 .02-.01.03-.02.05-.04.1-.09.13-.15l13.3-24.7.02-.04c0-5.44-4.73-9.99-11.01-11Z"/></svg>
