<svg xmlns="http://www.w3.org/2000/svg" viewBox="0 0 48 48"><title>Bedrijventerrein</title><path d="m35.97 31 .03 6.99h-1.01c0 2.22-1.8 4.01-4 4.01s-4-1.79-4-4H21c0 2.21-1.8 4-4 4s-4-1.8-4-4v-.03h-.98L12 23.95h20.04c.6 0 1.15.36 1.38.92L35.99 31Zm-17.4 6.99c0-.88-.72-1.59-1.59-1.59s-1.59.72-1.59 1.59.72 1.59 1.59 1.59 1.59-.72 1.59-1.59Zm14 0c0-.88-.72-1.59-1.59-1.59s-1.59.72-1.59 1.59.72 1.59 1.59 1.59 1.59-.72 1.59-1.59Zm.39-6.99-1.76-4H28v4h4.96ZM42 17v19h-3l-.02-6.03-2.73-6.9a3.503 3.503 0 0 0-3.23-2.14l-24.03.08v15h-3l.02-17.99h5.98l.02-12h15l-.02 10.99 7.51-3.04 7.49 3.04Zm-24-2h-3v3h3v-3Zm0-6h-3v3h3V9Zm6 6h-3v3h3v-3Zm0-6h-3v3h3V9Z"/></svg>
