<svg xmlns="http://www.w3.org/2000/svg" viewBox="0 0 48 48"><title>Bedrijventerrein</title><path d="m32 13-7 4.49V6H10v15h15l7-4.39L39 21v12h3V19.46L32 13Zm-16 5h-3v-3h3v3Zm0-6h-3V9h3v3Zm6 6h-3v-3h3v3Zm0-6h-3V9h3v3Zm-8.45 28.45c0 .86-.69 1.55-1.55 1.55s-1.55-.69-1.55-1.55.69-1.55 1.55-1.55 1.55.69 1.55 1.55Zm16.95 0c0 .84-.68 1.51-1.51 1.51s-1.51-.68-1.51-1.51.68-1.51 1.51-1.51 1.51.68 1.51 1.51Zm4.48-7.46c0-1.08-.86-1.95-1.94-1.99l-3-8.01H5.98L6 39.98h2.05c.23-1.99 1.9-3.54 3.95-3.54s3.72 1.55 3.95 3.54h9.08c.23-1.99 1.9-3.54 3.95-3.54s3.72 1.55 3.95 3.54h2.05l-.02-7ZM24.03 31 24 26h3.96l1.88 5h-5.81Z"/></svg>
