<svg xmlns="http://www.w3.org/2000/svg" viewBox="0 0 48 48"><title>Begroting</title><path d="M8 33h9v9h-.06L8 33.03V33Zm12 9v-8.97c0-1.67-1.35-3.03-3.03-3.03H8V7.97C8 6.88 8.88 6 9.97 6h24.05c1.09 0 1.97.88 1.97 1.97v14.57c-.09 0-.18-.02-.26-.02-3.99 0-7.63 2.13-9.63 5.47H23v12h3.39c.49.74 1.07 1.41 1.71 2H20Zm-6.04-27.1h16v-2h-16v2Zm0 5.05h16v-2h-16v2Zm9.37 4.97v-2h-9.37v2h9.37Zm12.49.59c-3.57 0-6.61 2.29-7.75 5.47H26v2h1.54c-.02.25-.04.51-.04.76 0 .42.04.83.1 1.24H26v2h2.16c1.26 2.94 4.18 5 7.57 5 1.53 0 2.95-.43 4.18-1.15l-1.44-1.49c-.83.41-1.76.64-2.74.64-2.25 0-4.22-1.2-5.32-3h4.11l.91-2H29.7a6.284 6.284 0 0 1-.07-2h6.79l.91-2h-7.1c1.02-2.05 3.14-3.47 5.58-3.47 1 0 1.95.24 2.79.67l.83-1.82a8.14 8.14 0 0 0-3.62-.85"/></svg>
