<svg xmlns="http://www.w3.org/2000/svg" viewBox="0 0 48 48"><title>Begroting</title><path d="M17.99 33.02V41L10 33.02h7.99Zm19.82 5.58c-.7.66-1.71.99-2.87.99-1.61 0-3.06-.72-3.82-2.23h3.32l.85-1.82h-4.67c-.02-.14-.04-.39-.04-.76 0-.33.02-.56.04-.72h5.29l.87-1.8H31.1c.76-1.59 2.27-2.33 3.86-2.33 1.01 0 1.9.23 2.58.72l.95-1.92c-.93-.64-2.09-.95-3.53-.95-2.77 0-5.45 1.59-6.44 4.48h-1.94v1.8h1.59c-.02.21-.04.41-.04.74 0 .27.02.56.04.74h-1.59v1.82h1.96c.99 2.85 3.61 4.42 6.4 4.42 1.65 0 3.06-.58 4.03-1.4l-1.16-1.78Zm-11.35 1.59c.42.66.91 1.25 1.47 1.77l-6.89-.02v-9.95c0-1.1-.9-2-2-2H8.97V8.08c0-1.16.94-2.09 2.09-2.09h21.97c1.09 0 1.98.89 1.98 1.98v17.16c-.13 0-.26-.02-.39-.02-3.45 0-6.47 1.68-8.19 4.42h-2.42v10.49h2.35l.1.18ZM15 14h14v-2H15v2Zm0 5h14v-2H15v2Zm7 3h-7v2h7v-2Z"/></svg>
