<svg xmlns="http://www.w3.org/2000/svg" viewBox="0 0 48 48"><title>Begraafplaats</title><path d="M24 22.1a14.487 14.487 0 0 0-15 0V34h15V22.1ZM19 30h-5v-2h5v2Zm2-4h-9v-2h9v2Zm3 10H9c-1.1 0-2 .9-2 2v2h19v-2c0-1.1-.9-2-2-2Zm8.17-4.63c-1.65-1-3.38-1.73-5.17-2.2v3.13c1.24.39 2.45.93 3.61 1.64 3.1 1.88 5.6 4.72 7.1 8.06h3.26a21.321 21.321 0 0 0-8.81-10.63ZM36 26.08l-.06-4.09h.73c.25 0 .51-.03.75-.09 1.75-.44 2.82-2.29 2.41-4.13.26-.23.48-.49.66-.79.97-1.6.52-3.72-.99-4.74.68-1.28.52-2.87-.41-3.96a3.14 3.14 0 0 0-2.42-1.13c-.49-.7-1.28-1.16-2.17-1.16s-1.67.46-2.16 1.15c-.55 0-1.1.14-1.6.43-1.56.93-2.12 3.02-1.24 4.67-.28.19-.53.42-.75.69-1.15 1.46-.96 3.62.42 4.83-.04.2-.07.39-.08.59-.1 1.89 1.26 3.51 3.05 3.62H33v3.31c-2.46-.37-4.72-.35-6-.31v2.82c4.83-.15 9.61.9 14 3.11v-2.96c-1.63-.78-3.3-1.4-5-1.87Z"/></svg>
