<svg xmlns="http://www.w3.org/2000/svg" viewBox="0 0 48 48"><title>Belastingen</title><path d="M24.21 14h-6.44l-3.79 6.05 2.61 1.44-1.56 2.56-2.61-1.44-5.41 9.37 13 7 12.32-20.02-8.11-4.95Zm-5.97 22.18-2.56-1.56 4.17-6.83 2.56 1.56-4.17 6.83Zm9.58-14.53c-.83 1.36-2.26 2.26-3.88 2.26-.31 0-.63-.03-.96-.1l-.7 1.14-1.06-.64.56-.92c-.12-.05-.29-.14-.45-.24-.19-.12-.3-.2-.42-.29l-.56.92-1.04-.64.69-1.13c-1.33-1.6-1.3-3.72-.32-5.33.51-.84 1.1-1.4 1.8-1.71l.78 1.23c-.53.22-.98.66-1.33 1.24-.56.92-.67 2.06-.01 3.07l2.01-3.3.74 1.14-1.87 3.07a5.106 5.106 0 0 0 .87.53l1.65-2.71.76 1.14-1.18 1.93h.23c1.04 0 1.89-.57 2.42-1.44.41-.67.58-1.38.44-2.02l1.44-.04c.14.86-.03 1.88-.61 2.84ZM41 10.52v8.95c0 .84-.68 1.53-1.53 1.53h-4.88l.3-.49L36.42 18H38v-6H10v6h1.8l-.35.57L9.97 21H8.53C7.69 21 7 20.32 7 19.47v-8.94C7 9.69 7.68 9 8.53 9h30.95c.84 0 1.53.68 1.53 1.53Z"/></svg>
