<svg xmlns="http://www.w3.org/2000/svg" viewBox="0 0 48 48"><title>Betaaldatums uitkering</title><path d="M28 40h-3V28h3.19c.21-.35.45-.68.69-1H25v-3h4v2.82a11.31 11.31 0 0 1 5-3.6V9h-5V6h-3v6h-2V9l-8-.02V6h-3l-.02 6H11V9l-5-.02-.02 28.51C5.98 39.97 8 42 10.49 42l19.02.04c.2 0 .39-.03.59-.06-.63-.59-1.21-1.25-1.7-1.98h-.39Zm-3-23h4v3h-4v-3ZM15 34h-4v-3h4v3Zm0-7h-4v-3h4v3Zm0-7h-4v-3h4v3Zm3-3h4v3h-4v-3Zm0 7h4v3h-4v-3Zm1.5 11.53-2.83-2.83 1.42-1.41 1.42 1.41 3.19-3.19 1.41 1.41-4.61 4.61Zm22.42 5.32A8.142 8.142 0 0 1 37.74 42c-3.39 0-6.31-2.06-7.57-5h-2.16v-2h1.6c-.06-.4-.1-.82-.1-1.24 0-.26.02-.51.04-.76h-1.54v-2h2.07c1.14-3.18 4.18-5.47 7.75-5.47 1.3 0 2.52.31 3.62.85l-.83 1.82c-.84-.42-1.79-.67-2.79-.67-2.45 0-4.56 1.42-5.58 3.47h7.1l-.91 2h-6.79c-.03.25-.05.5-.05.76 0 .42.04.84.12 1.24h5.73l-.91 2h-4.11c1.1 1.8 3.07 3 5.32 3 .98 0 1.91-.24 2.74-.64l1.44 1.49Z"/></svg>
