<svg xmlns="http://www.w3.org/2000/svg" viewBox="0 0 48 48"><title>Bevolking</title><path d="M18.96 10.74c0-1.79 1.46-3.25 3.25-3.25s3.25 1.46 3.25 3.25-1.46 3.25-3.25 3.25-3.25-1.46-3.25-3.25Zm-3.5 22.01c0 1.79 1.46 3.25 3.25 3.25s3.25-1.46 3.25-3.25-1.46-3.25-3.25-3.25-3.25 1.46-3.25 3.25Zm4.42-5.69c1.14.24 2.17.8 2.96 1.64-.54-.89-.84-1.92-.84-2.98 0-2.96 2.22-5.41 5.16-5.71.28-.03.56-.04.83-.02v-1.38c-.25-1.24-1.38-2.17-2.69-2.17h-6.05c-.84 0-1.61.37-2.14 1.03l.1.25h-.14c.24.65.37 1.32.37 2.01 0 1.27-.42 2.49-1.19 3.5 1.82.54 3.21 2 3.63 3.83Zm4.61-1.31c0 1.79 1.46 3.25 3.25 3.25s3.25-1.46 3.25-3.25-1.46-3.25-3.25-3.25-3.25 1.46-3.25 3.25Zm11.74-6.76c1.79 0 3.25-1.46 3.25-3.25s-1.46-3.25-3.25-3.25-3.25 1.46-3.25 3.25 1.46 3.25 3.25 3.25ZM14.17 36.27a5.743 5.743 0 0 1-1.21-3.51 5.76 5.76 0 0 1 4.36-5.58 2.73 2.73 0 0 0-2.52-1.67H8.87c-1.01 0-2 .49-2.5 1.37-.24.43-.37.91-.37 1.39v1.99l.03 7.79h2.96v4.96h1.53v-1.75c0-2.29 1.48-4.29 3.64-4.98Zm-2.4-13.26c1.79 0 3.25-1.46 3.25-3.25s-1.46-3.25-3.25-3.25-3.25 1.46-3.25 3.25 1.46 3.25 3.25 3.25Zm21.69 10.68c-.25-1.24-1.32-2.13-2.6-2.17h-6.15c-.11 0-.23 0-.35.02.09.4.13.8.13 1.19 0 1.24-.41 2.45-1.15 3.45l.65.3c1.54.72 2.65 2.12 2.97 3.76l.04.19v2.59h6.5v-8.81c0-.07-.01-.14-.02-.22l-.02-.29Zm5.82-12.18h-7.67a5.747 5.747 0 0 1 1.89 4.25c0 1.25-.41 2.47-1.17 3.47 3.58.97 3.69 4.99 3.69 5.03v8.75h2.99v-9h3v-9.77c0-1.51-1.22-2.73-2.73-2.73Zm-17.47 17h-6.06c-.74 0-1.43.29-1.95.81s-.8 1.21-.8 1.95v1.75h11.5v-2.34c-.25-1.23-1.38-2.16-2.69-2.16Z"/></svg>
