<svg xmlns="http://www.w3.org/2000/svg" viewBox="0 0 48 48"><title>Bevolking</title><path d="M24 40.97V42H14v-1c0-1.66 1.34-3 3-3h4.06c1.46 0 2.94 1.55 2.94 2.97Zm12.55-21.95c2.21 0 4-1.79 4-4s-1.79-4-4-4-4 1.79-4 4 1.79 4 4 4ZM22.48 14c2.21 0 4-1.79 4-4s-1.79-4-4-4-4 1.79-4 4 1.79 4 4 4Zm1.5 11.01c0 2.21 1.79 4 4 4s4-1.79 4-4-1.79-4-4-4-4 1.79-4 4Zm-11.99-2.05c2.21 0 4-1.79 4-4s-1.79-4-4-4-4 1.79-4 4 1.79 4 4 4Zm2.98 9.07c0 2.21 1.79 4 4 4s4-1.79 4-4-1.79-4-4-4-4 1.79-4 4Zm3.99-7c.7 0 1.38.11 2.02.3 0-.11-.02-.21-.02-.31 0-3.87 3.13-7 7-7 .14 0 .27.01.4.02a2.998 2.998 0 0 0-2.83-2.02h-6.05c-.38 0-.74.08-1.07.21a6.976 6.976 0 0 1-1.19 7.36c.68.34 1.26.84 1.72 1.45Zm11.1 6.06h-4.22c.07.45.13.89.13.94 0 1.73-.63 3.3-1.67 4.52 1.35.68 2.38 1.93 2.68 3.49l.04.19v1.78H33v-8.49a2.995 2.995 0 0 0-2.94-2.42Zm11.93-7.64a2.995 2.995 0 0 0-2.94-2.42h-5.32a6.95 6.95 0 0 1-.37 8.44c1.36.67 2.39 1.93 2.69 3.49l.04 9.04h2.89l.02-8h3V23.44Zm-25.43 2.01s-.61-.44-1.49-.44H9.01c-1.66 0-3 1.34-3 3l-.03 9.99h3l.05 4h1.98v-1c0-1.91 1.08-3.55 2.66-4.39a6.962 6.962 0 0 1-1.72-4.59c0-3.02 1.92-5.59 4.6-6.57Z"/></svg>
