<svg xmlns="http://www.w3.org/2000/svg" viewBox="0 0 48 48"><title>Bevrijding</title><path d="m41.8 19.66-2.59 5.07.47.54.03.02c2.17 2.63 2.71 6.4 1.07 9.63a8.8 8.8 0 0 1-4.29-4.87l-1 1.95.33.37.03.02c2.17 2.63 2.71 6.4 1.07 9.63-4.16-2.12-5.99-7.82-4.13-11.32l7.52-14.83c1.41.72 2.03 2.36 1.47 3.79h.01Zm-5.76 2.8h-1.98c-.84.14-1.26.68-1.26 1.61 0 2-.61 3.58-1.86 4.81-2.24 2.21-5.84 2.31-6.25 2.31h-1.44c-2.19 0-3.08 1.97-3.11 2.04l-2.75 5.96c-.2.49-.66.81-1.19.81-.14 0-.28-.02-.41-.07l-.28-.1a12.66 12.66 0 0 1-6.88-5.62l-.51-.87a.9.9 0 0 1-.09-.7c.07-.24.22-.43.43-.55l5.49-3.26s.46.19 1.05.19h2v-3.04h-1.97c-.49-.1-.9-.32-1.24-.68-.45-.47-.69-1.08-.68-1.73 0-.45.15-.89.4-1.28l.03-.05.04-.04.54-.55.21-.21-3.26-3.26c-1.01-1.04-1.64-2.84-.08-4.49l.41-.39h.01l.24-.23-2.35-2.35c-.09-.09-.35-.45-.43-.96-.11-.82.28-1.71 1.17-2.64l1.13-1.15.4.39 11.87 12.45s1.37 1.88 1.6 3.56l2.97-.03c-.09-.96-.4-1.91-.93-2.85l-.17-.3.22-.27c.07-.08 1.7-2.01 1.88-2.21a3.698 3.698 0 0 1 3.65-1.12c1.1.26 2.03 1.05 2.5 2.12.31.7.4 1.42.26 2.14l.06.1 1.01 1.76.43.75h-.87Zm-2.87-3.84c0-.45-.36-.81-.81-.81s-.81.36-.81.81.36.81.81.81.81-.36.81-.81Z"/></svg>
