<svg xmlns="http://www.w3.org/2000/svg" viewBox="0 0 48 48"><title>Bezwaar en beroep</title><path d="m37.77 21.34-.03-.03.29-.13c.38-.17.87-.1 1.14.18l2.76 2.76-8.33 8.33-2.75-2.75a.976.976 0 0 1-.3-.7c0-.13.03-.26.1-.4l.14-.28 6.97-6.97ZM30 25.02l4.51-4.51-7.01-7.01-4.51 4.51L30 25.02Zm-7.79-3.38-15.7 15.7c-.58.58-.58 1.51 0 2.09l2.07 2.07c.57.57 1.5.58 2.08 0l15.72-15.7-4.16-4.16Zm16.78 17.34h-12c-1.66 0-3 1.34-3 3h18c0-1.66-1.34-3-3-3ZM18.37 17.2c.19.18.44.28.69.28.13 0 .26-.03.4-.1l.11-.05 7.09-7.09.04.04.16-.32c.07-.14.1-.28.1-.41 0-.27-.11-.51-.3-.71l-2.77-2.77-8.32 8.32 2.77 2.78.03.03Z"/></svg>
