<svg xmlns="http://www.w3.org/2000/svg" viewBox="0 0 48 48"><title>Bezwaar en beroep</title><path d="M41.99 41.98h-18c0-1.66 1.34-3 3-3h12c1.66 0 3 1.34 3 3Zm-35.48-4.7c-.69.69-.69 1.8 0 2.48l1.75 1.75c.69.69 1.72.61 2.41-.07L25.43 26.8l-4.19-4.19L6.52 37.29ZM16.95 16.9l-1.43-1.43a.99.99 0 0 1 0-1.39l7.79-7.79a.996.996 0 0 1 1.41 0l1.44 1.44c.77.77.77 2.02 0 2.78l-6.39 6.39c-.78.78-2.04.78-2.82 0Zm23.32 4.94 1.43 1.43a.99.99 0 0 1 0 1.39l-7.79 7.79a.996.996 0 0 1-1.41 0l-1.44-1.44c-.77-.77-.77-2.02 0-2.78l6.39-6.39c.78-.78 2.04-.78 2.82 0Zm-11.31 4.25-7.07-7.07 6.36-6.36 7.07 7.07-6.36 6.36Z"/></svg>
