<svg xmlns="http://www.w3.org/2000/svg" viewBox="0 0 48 48"><title>Bijstandsuitkering</title><path d="M42 9v3h-3v3h-3v-3h-3V9h3V6h3v3h3ZM30.9 38c-1.61-.15-2.84-1.45-2.85-3.03L28 27.03c0-.81.3-1.56.87-2.14.57-.57 1.32-.89 2.13-.89h8v-.02c0-2.21-1.79-4-4-4H8a2 2 0 0 0-2 2v18.01c0 1.11 1.02 2 2 2h26c3.21 0 4.99-1.79 4.99-3.99H39.09h-8.2Zm-11.28-.97c-2.35 0-4.56-1.32-5.39-3.72h-1.65v-1.53h1.34c-.02-.16-.03-.4-.03-.63 0-.28.02-.45.03-.63h-1.34v-1.51h1.64c.83-2.44 3.1-3.77 5.43-3.77 1.22 0 2.19.26 2.97.8l-.8 1.62c-.57-.42-1.32-.61-2.17-.61-1.34 0-2.61.63-3.25 1.97h4.78l-.73 1.51H16a4.5 4.5 0 0 0-.03.61c0 .31.02.52.03.64h3.93l-.71 1.53h-2.8c.64 1.27 1.86 1.88 3.22 1.88.97 0 1.83-.28 2.42-.83l.97 1.5c-.82.7-2 1.18-3.39 1.18ZM31 27l.05 7.94s.04.05.09.06H42v-8H31Zm3 5.5c-.83 0-1.5-.67-1.5-1.5s.67-1.5 1.5-1.5 1.5.67 1.5 1.5-.67 1.5-1.5 1.5ZM23 17v-.02c0-2.21 1.79-4 4-4s4 1.79 4 4V17h-8ZM18.93 5.99c2.21 0 4 1.79 4 4s-1.79 4-4 4-4-1.79-4-4 1.79-4 4-4Z"/></svg>
