<svg xmlns="http://www.w3.org/2000/svg" viewBox="0 0 48 48"><title>Bouwen en verbouwen</title><path d="M37.47 32.75a4.49 4.49 0 0 1 0 6.36 4.503 4.503 0 0 1-6.37 0l-8.12-8.12 2.12-2.12 8.12 8.12c.59.59 1.54.59 2.12 0 .59-.59.59-1.53 0-2.12l-8.12-8.12 2.12-2.12 8.12 8.12ZM12.69 16.52l5.19 5.14 2.14-2.14L15 14.4v-2.83L9.5 7.62l-3.54 3.54 3.89 5.37h2.83Zm29.34 2.41-6.36 6.36-4.99-4.99-19.32 19.22c-.69.69-1.72.76-2.41.07L7.2 37.84c-.69-.69-.69-1.8 0-2.48L26.47 16.1l-4.95-4.95 3.47-3.58h5.7l11.33 11.36Zm-6.36 2.16 2.12-2.12-8.49-8.49h-2.79l-.74.71 9.9 9.9Z"/></svg>
