<svg xmlns="http://www.w3.org/2000/svg" viewBox="0 0 48 48"><title>Brandgevaar</title><path d="m24.07 6-3.25 2.41c-1.34.99-2.56 2.1-3.64 3.3a22.71 22.71 0 0 0-2.77 3.78c-.77 1.32-1.37 2.69-1.78 4.08-.42 1.41-.64 2.82-.64 4.17 0 2.01.45 3.92 1.33 5.7.89 1.79 2.12 3.3 3.77 4.51s3.97 2.06 3.97 2.06l-.79-4a4.94 4.94 0 0 1-.24-1.52c0-.67.12-1.27.35-1.84.24-.57.58-1.08 1.04-1.56l3.07-3.11 3.08 3.12c.45.46.79.97 1.03 1.54.24.57.35 1.17.35 1.84a4.963 4.963 0 0 1-.24 1.52l-.69 3.9s2.67-.99 3.87-1.96c1.2-.97 2.88-2.72 3.77-4.51.88-1.77 1.33-3.69 1.33-5.7 0-1.73-.36-3.43-1.07-5.07-.7-1.62-1.72-3.13-3.03-4.48l-1.26-1.3-1.48 1.09c-.42.31-.85.55-1.29.71-.38.14-.74.21-1.09.21-1.05 0-1.87-.35-2.56-1.09-.76-.82-1.13-1.85-1.13-3.15V5.98ZM15 39h18v3H15v-3Z"/></svg>
