<svg xmlns="http://www.w3.org/2000/svg" viewBox="0 0 48 48"><title>Buitengebied</title><path d="m28.88 15.07.16-.15v4.06c5.92 0 9.97 1.37 9.97 1.37v-5.36l1.03.9 1.82-2.38-2.85-2.44V7.01h-2.99v1.68l-2.09-1.83-5.67 4.84c.45 1.05.66 2.2.62 3.37ZM32 13.04h4v3h-4v-3ZM28.98 24.1c.24-.85.37-1.75.37-2.68 0-.1-.01-.19-.01-.29 4.35.05 8.62.97 12.64 2.76v3.31c-3.81-1.91-8.48-3.1-12.99-3.11Zm13.03 17.91h-3.13c-1.95-6.3-7.08-11.17-13.42-12.78.9-.67 1.68-1.51 2.3-2.46 6.9 2.33 12.34 8.06 14.25 15.24ZM25.03 17.58c.98-1.84.96-3.95-.1-5.48-.85-1.24-2.25-1.95-3.84-1.95-.4 0-.8.04-1.2.13-1.2-1.38-2.83-2.18-4.46-2.18-1.04 0-2.02.33-2.82.96a4.85 4.85 0 0 0-1.47 2.01c-2.92.3-5.16 2.85-5.16 5.99 0 1.76.74 3.42 1.99 4.56a4.97 4.97 0 0 0-.26 1.57c0 2.68 2.08 4.85 4.64 4.85.51 0 1.27-.02 1.69-.06l-.02 2.96-2.06-.92-.94 2.44 3.02 1.38-.06 8.12 3.98.02V27.82c.53.1.97.21 1.92.21 3.47 0 6.3-2.97 6.3-6.62 0-1.69-.58-2.98-1.17-3.84Z"/></svg>
