<svg xmlns="http://www.w3.org/2000/svg" viewBox="0 0 48 48"><title>Burgemeester</title><path d="M32.95 23.96c.65.84 1.05 1.89 1.05 3.06l-.02 11.99H31v3H17v-3h-3V27.02c0-1.17.4-2.22 1.05-3.06 1.78 4.1 4.61 7.89 6.45 10.11-.01.1-.03.21-.03.31 0 1.38 1.13 2.5 2.51 2.5s2.51-1.12 2.51-2.5c0-.09-.02-.18-.03-.27 1.84-2.21 4.7-6.02 6.48-10.16Zm-10.28 8.29c-.72-.9-3.79-4.86-6-9.63.62-.33 2.08-.59 2.08-.62h.64s1.1 3.27 3.12 5.6l.46-2.58-.97-.99v-2.04h4v2.04l-1.07 1.01.55 2.54c2.26-2.82 3.02-5.56 3.02-5.59h.55s1.58.26 2.26.62c-2.22 4.8-5.31 8.76-6.02 9.64a2.469 2.469 0 0 0-2.62-.01Zm-5.39-20.88.12.03c.56.13 1.12.2 1.66.2 2.07 0 4.08-.86 5.53-2.36l1.6-1.58 1.37 1.36a7.68 7.68 0 0 0 3.07 2.09l.22.08-.07-.23C29.89 8.04 27.13 6 24.09 6s-5.97 2.16-6.77 5.25l-.03.11Zm-.18 2.06v.16c.31 3.6 3.38 6.41 6.98 6.41s6.76-2.89 6.98-6.58v-.1l-.65-.13a9.545 9.545 0 0 1-4.15-2.77l-.09-.1-.09.1c-1.79 2.06-4.36 3.24-7.03 3.24-.59 0-1.19-.07-1.8-.19l-.15-.03Z"/></svg>
