<svg xmlns="http://www.w3.org/2000/svg" viewBox="0 0 48 48"><title>Contact gemeente</title><path d="M25.01 18.99H21l-3.98 3.94v-3.94H7.99C6.89 18.99 6 18.1 6 17V7.97C6 6.88 6.88 6 7.97 6h17.04c1.1 0 1.99.89 1.99 1.99V17c0 1.1-.89 1.99-1.99 1.99ZM40 11h-9.99v6c0 2.73-2.21 5-4.94 5h-2.06v1c0 1.1.9 2 2 2h1.97l4.03 3.94V25h9c1.09 0 1.97-.88 1.97-1.97V12.98c0-1.09-.89-1.98-1.98-1.98Zm-.95 26h-6.08c-1.65 0-2.95 1.25-2.95 2.8V42h12v-2.48c-.15-1.41-1.41-2.52-2.96-2.52ZM13 23c-1.93 0-3.5 1.57-3.5 3.5S11.07 30 13 30s3.5-1.57 3.5-3.5S14.93 23 13 23Zm22.5 5c-1.93 0-3.5 1.57-3.5 3.5s1.57 3.5 3.5 3.5 3.5-1.57 3.5-3.5-1.57-3.5-3.5-3.5Zm-20.46 4H8.96c-1.65 0-2.95 1.25-2.95 2.8V42h12v-7.48C17.86 33.11 16.6 32 15.05 32Z"/></svg>
