<svg xmlns="http://www.w3.org/2000/svg" viewBox="0 0 48 48"><title>Economie werk en inkomen</title><path d="m25.22 11.37.12.03c.56.13 1.12.2 1.66.2 2.07 0 4.08-.86 5.53-2.36l1.6-1.58 1.37 1.36a7.68 7.68 0 0 0 3.07 2.09l.22.08-.07-.23C37.83 8.04 35.07 6 32.03 6s-5.97 2.16-6.77 5.25l-.03.11Zm-.18 2.06v.16c.31 3.6 3.38 6.41 6.98 6.41s6.76-2.89 6.98-6.58v-.1l-.65-.13a9.545 9.545 0 0 1-4.15-2.77l-.09-.1-.09.1c-1.79 2.06-4.36 3.24-7.03 3.24-.59 0-1.19-.07-1.8-.19l-.15-.03ZM8.87 14.92H7.01v-2h1.5c-.01-.06-.02-.23-.02-.39 0-.31.04-.61.04-.61H7.01v-2h1.85c.92-2.43 3.41-3.9 5.98-3.9 1.34 0 2.41.29 3.28.88l-.88 1.78c-.63-.46-1.46-.67-2.39-.67-1.48 0-2.87.69-3.58 1.91h5.27l-.8 2h-4.9s-.04.28-.04.59c0 .34.04.41.04.41h4.33l-.79 2H11.3c.71 1.38 2.05 2.05 3.54 2.05 1.07 0 2.01-.31 2.66-.92l1.07 1.65c-.9.77-2.2 1.3-3.74 1.3-2.59 0-5.02-1.46-5.94-4.1v.02Zm14.64 13.09h-4.5v-1.54c0-.81-.67-1.46-1.5-1.46h-3.96c-.85 0-1.54.66-1.54 1.49v1.51H7.5c-.83 0-1.5.67-1.5 1.5v11.01c0 .83.67 1.5 1.5 1.5h16c.83 0 1.5-.67 1.5-1.5V29.51c0-.83-.67-1.5-1.5-1.5Zm-6.5 0h-3v-1h3v1Zm25-1.98L41.99 39h-2.98v3H27.73c.17-.47.28-.97.28-1.5v-12c0-2.48-2.02-3.5-4.5-3.5h-.77s.02-.52.41-1c.03-.07.07-.11.12-.14A4.938 4.938 0 0 1 26.88 22s2.05 5.16 3.12 6.93l1.03-3.91L30.01 24v-2h4v2l-1.02 1.02.96 3.94c1.08-1.78 3.2-6.92 3.2-6.92 2.74.06 4.87 1.22 4.87 3.98Z"/></svg>
