<svg xmlns="http://www.w3.org/2000/svg" viewBox="0 0 48 48"><title>Economie werk inkomen</title><path d="M13.12 20c1.31 0 2.54-.51 3.56-1.47l.73-.68-1.37-1.46-.73.68c-.65.61-1.41.93-2.2.93-1.24 0-2.33-.79-3.02-2h3.9v-2h-4.6c-.05-.32-.08-.66-.08-1s.03-.68.08-1h4.6v-2h-3.9c.69-1.21 1.78-2 3.02-2 .79 0 1.55.32 2.2.93l.73.68 1.37-1.46-.73-.68C15.66 6.51 14.42 6 13.11 6c-2.31 0-4.3 1.64-5.23 4H5.99v2h1.38c-.04.33-.07.66-.07 1s.03.67.07 1H5.99v2h1.89c.93 2.36 2.93 4 5.23 4Zm10.29 8.59c.4.39.59.87.59 1.43v9.94c0 .56-.2 1.04-.59 1.44-.39.4-.87.6-1.42.6h-14c-.55 0-1.02-.2-1.41-.6-.39-.4-.58-.88-.58-1.44v-9.94c0-.56.19-1.04.58-1.43.39-.39.86-.59 1.41-.59H11v-1.92c0-.57.2-1.06.6-1.46.4-.41.89-.61 1.45-.61h3.89c.57 0 1.05.2 1.45.61.4.41.6.9.6 1.46V28h2.99c.55 0 1.02.2 1.42.59ZM17 26h-4v2h4v-2Zm20-4-3 7-1.02-3.98L34 24v-2h-4v2l1.02 1.02L30 29l-3-7c-2.06 0-3.82 1.25-4.59 3.04 2.56.19 4.59 2.3 4.59 4.91V42h12v-3h2.98L42 27c0-2.76-2.24-5-5-5ZM25.56 10.01A7.064 7.064 0 0 1 31.93 6c1.62 0 3.11.55 4.3 1.47-.07.53-.22.95-.47 1.23-.91 1-3.34.97-5.5.95-1.63-.01-3.28-.02-4.69.36Zm12.41.71c-1.81 1.99-4.97 1.96-7.75 1.94-1.98-.02-4.22-.04-4.84.75-.28.35-.38.83-.22 1.72.88 2.9 3.58 5.02 6.77 5.02A7.07 7.07 0 0 0 39 13.08c0-1.03-.22-2-.62-2.88-.12.18-.26.36-.41.53Z"/></svg>
