<svg xmlns="http://www.w3.org/2000/svg" viewBox="0 0 48 48"><title>Eikenprocessie</title><path d="M38.17 21c0 .8-.08 1.58-.19 2.34l2.35.63c.64.17 1.16.72 1.18 1.39.03.93-.7 1.6-1.51 1.6-.13 0-.26-.02-.39-.05l-2.33-.62c-.18.55-.39 1.08-.62 1.6l1.98 1.14c.59.34.95 1.02.78 1.68a1.52 1.52 0 0 1-1.47 1.17c-.26 0-.51-.07-.75-.2l-1.99-1.15c-.33.49-.69.96-1.07 1.41l1.68 1.68c.49.49.66 1.27.31 1.87a1.511 1.511 0 0 1-2.38.32l-1.74-1.74c-.47.39-.95.77-1.46 1.11l1.12 1.94c.36.62.3 1.45-.24 1.93-.31.27-.67.4-1.03.4-.52 0-1.03-.27-1.31-.76l-1.19-2.07c-.52.23-1.05.44-1.59.62l.63 2.36c.21.8-.26 1.63-1.07 1.85a1.516 1.516 0 0 1-1.85-1.07l-.66-2.46c-.78.11-1.57.19-2.37.19v2.51c0 .83-.67 1.5-1.5 1.5s-1.5-.67-1.5-1.5v-2.63h-2v2.7c0 .85-.67 1.53-1.5 1.53s-1.5-.69-1.5-1.53v-2.81c-.15-.05-.3-.11-.45-.18l-2.44 2.5a1.5 1.5 0 0 1-2.14 0c-.59-.6-.59-1.58 0-2.18l2.43-2.49c-.08-.17-.15-.35-.21-.54H7.42c-.81 0-1.47-.67-1.47-1.5s.66-1.5 1.47-1.5h2.78c.06-.17.12-.33.2-.49L8 29.05c-.59-.6-.59-1.58 0-2.18.59-.6 1.54-.6 2.13 0l2.41 2.47c.14-.07.28-.12.43-.17v-2.82c0-.85.67-1.53 1.5-1.53s1.5.69 1.5 1.53v2.64h2v-2.45c0-.83.67-1.5 1.5-1.5s1.5.67 1.5 1.5v2.52a8.1 8.1 0 0 0 4.57-1.44l-2.08-2.08c-.59-.59-.59-1.54 0-2.13.59-.59 1.54-.59 2.13 0l2.08 2.08c.88-1.28 1.4-2.83 1.43-4.5h-2.6c-.83 0-1.5-.67-1.5-1.5s.67-1.5 1.5-1.5h2.47v-2h-2.5c-.82 0-1.49-.67-1.49-1.5s.67-1.5 1.49-1.5h2.81l.18-.42-2.45-2.46c-.59-.59-.59-1.54 0-2.13a1.49 1.49 0 0 1 2.12 0l2.45 2.47.4-.17v-2.8c0-.83.67-1.51 1.5-1.51s1.5.68 1.5 1.51v2.79l.39.16 2.48-2.5c.59-.59 1.54-.59 2.12 0s.59 1.54 0 2.13l-2.45 2.46.2.47h2.7c.82 0 1.49.67 1.49 1.5s-.67 1.5-1.49 1.5h-2.44v2h2.61c.83 0 1.5.67 1.5 1.5s-.67 1.5-1.5 1.5h-2.43ZM13 20.01c3.87 0 7-3.13 7-7s-3.13-7-7-7-7 3.13-7 7 3.13 7 7 7M11.99 9h2v5h-2V9Zm.28 6.3c.19-.19.43-.28.72-.28s.54.09.72.28c.19.19.28.43.28.72s-.09.53-.28.72c-.19.19-.43.28-.72.28s-.54-.09-.72-.28c-.19-.19-.28-.43-.28-.72s.09-.53.28-.72Z"/></svg>
