<svg xmlns="http://www.w3.org/2000/svg" id="ICONEN" viewBox="0 0 48 48"><title>Elektrisch rijden</title><defs><style>.cls-1{stroke-width:0}</style></defs><path d="M32 37.9v1h-6v3l-10-3v-1h6v-3l10 3Z" class="cls-1"/><path d="M42 16.82v-1.67c0-.63-.51-1.15-1.14-1.15h-1.61l-1.59-4.92c-.6-1.83-2.31-3.06-4.26-3.07H14.67c-1.94 0-3.65 1.24-4.25 3.07l-1.65 4.93H7.12c-.63 0-1.14.51-1.14 1.15v1.67c0 .63.51 1.15 1.14 1.15h.32l-1.45 1.98v15.45c0 .89.72 1.61 1.61 1.61h2.79c.89 0 1.61-.72 1.61-1.61v-3.4h24v3.4c0 .89.72 1.61 1.61 1.61h2.79c.89 0 1.61-.72 1.61-1.61V19.96l-1.45-1.98h.32c.63 0 1.14-.51 1.14-1.15ZM12.5 28.01c-1.38 0-2.5-1.11-2.5-2.46s1.12-2.46 2.5-2.46S15 24.2 15 25.55s-1.12 2.46-2.5 2.46Zm16.49-1.05h-10V24h10v2.96Zm6.51 1c-1.38 0-2.5-1.11-2.5-2.46s1.12-2.46 2.5-2.46S38 24.15 38 25.5s-1.12 2.46-2.5 2.46ZM10.58 18l2.68-7.99c.2-.6.77-1.01 1.42-1.01h18.71c.65 0 1.22.41 1.42 1l2.6 8.02L10.58 18Z" class="cls-1"/></svg>
