<svg xmlns="http://www.w3.org/2000/svg" viewBox="0 0 48 48"><title>Elektrisch laden</title><path d="M6 39h24v3H6v-3ZM39 6c.55 0 1 .45 1 1v3h2v6c0 1.66-1.34 3-3 3h-1v9.48c0 2.5-2.03 4.52-4.52 4.52S29 31.01 29 28.56v-3.04c0-.84-.68-1.52-1.52-1.52H26v12H10V18c0-2.21 1.79-3.99 3.99-3.99H22c2.16 0 4 1.84 4 3.99v3h1.48c2.49 0 4.52 2.03 4.52 4.52v3.04c0 .79.64 1.44 1.44 1.44.88 0 1.56-.68 1.56-1.52V19h-1c-1.66 0-3-1.34-3-3v-6h2V7c0-.55.45-1 1-1s1 .45 1 1v3h3V7c0-.55.45-1 1-1ZM22 24h-3.84l2.5-5H16l-2 8h2.8l-2 6h2.17L22 24Z"/></svg>
