<svg xmlns="http://www.w3.org/2000/svg" viewBox="0 0 48 48"><title>Erfpacht</title><path d="M6.99 33h7.99l-.05 7.95L6.98 33Zm35.03 1.62-1.81 2.44-1.21-.89V42H27v-5.76l-1.21.89-1.78-2.41 9.01-6.59 2.97 2.16V29H39v3.45l3.02 2.16ZM35 35h-4v3h4v-3Zm-11.63 3.91.63.85v2.21l-6.02-.02v-9.97c0-1.1-.89-1.99-1.99-1.99H5.98V8a2 2 0 0 1 2-2h22.01c1.09 0 1.98.89 1.98 1.98l-.02 17.21-.71.52-9.01 6.59-2.43 1.78 1.79 2.43 1.78 2.41ZM20.12 26c1.31 0 2.54-.51 3.56-1.47l.73-.68-1.37-1.46-.73.68c-.65.61-1.41.93-2.2.93-1.24 0-2.33-.79-3.02-2h3.9v-2h-4.6c-.05-.32-.08-.66-.08-1s.03-.68.08-1h4.6v-2h-3.9c.69-1.21 1.78-2 3.02-2 .79 0 1.55.32 2.2.93l.73.68 1.37-1.46-.73-.68c-1.02-.96-2.26-1.47-3.57-1.47-2.31 0-4.3 1.64-5.23 4h-1.89v2h1.38c-.04.33-.07.66-.07 1s.03.67.07 1h-1.38v2h1.89c.93 2.36 2.93 4 5.23 4Z"/></svg>
