<svg xmlns="http://www.w3.org/2000/svg" viewBox="0 0 48 48"><title>F1</title><path d="m12.71 25.02 4.35-4.35-.59-1.76 2.68-2.68 3.05 3.08-3.21 3.15 1.76 1.76 3.22-3.12 3.12 3.15 1.76-1.76-3.1-3.12 3.26-3.16 2.68 2.68-.59 1.76L35.45 25l6.45-6.45-3.27-3.27.59-1.76L33.7 8l-9.74 9.57-9.49-9.54-5.52 5.52.59 1.76-3.27 3.27 6.45 6.45Zm21-13.5 2.68 2.68-.59 1.76 2.59 2.59-2.93 2.93-1.51-1.51.59-1.76-3.77-3.77 2.93-2.93Zm-21.92 2.7 2.68-2.68 2.93 2.93-3.77 3.77.59 1.76-1.51 1.51-2.93-2.93 2.59-2.59-.59-1.76Zm26.45 18.82c-.8-1.22-2.17-2.04-3.74-2.04-.94 0-1.8.29-2.53.78 0 0-4.97-.77-4.97-.78 0-1.66-1.34-3-3-3-.77 0-1.46.24-1.99.72V27H19L9 31v-4H6v9.95h3.28c.62 1.74 2.27 3 4.22 3s3.6-1.26 4.22-3h12.54c.61 1.77 2.27 3.05 4.24 3.05s3.63-1.28 4.24-3.05L42 37v-3l-3.76-.96ZM13.5 36.95c-.83 0-1.5-.67-1.5-1.5s.67-1.5 1.5-1.5 1.5.67 1.5 1.5-.67 1.5-1.5 1.5Zm21 .05c-.83 0-1.5-.67-1.5-1.5s.67-1.5 1.5-1.5 1.5.67 1.5 1.5-.67 1.5-1.5 1.5Z" style="fill-rule:evenodd"/></svg>
