<svg xmlns="http://www.w3.org/2000/svg" viewBox="0 0 48 48"><title>Fiets</title><path d="M34.49 21.98c-.23 0-.45.01-.68.03l-2.9-9.02a2.935 2.935 0 0 0-2.78-2h-2.12v3l2.05-.07.98 3.03H17.36l-.25-1.02h.08c.79 0 1.43-.64 1.43-1.43 0-.83-.67-1.5-1.5-1.5H12v2.94h2.02l.62 2.57-.86 3.54c-.09 0-.19-.01-.28-.01-4.13 0-7.49 3.35-7.49 7.49s3.35 7.49 7.49 7.49c3.63 0 6.65-2.58 7.34-6.01h1.18c.5 0 .97-.24 1.25-.66l6.79-10.19.86 2.74a7.504 7.504 0 0 0-3.93 6.6c0 4.15 3.36 7.51 7.51 7.51s7.51-3.36 7.51-7.51-3.36-7.51-7.51-7.51Zm-21 12.03C11.02 34.01 9 32 9 29.52c0-2.32 1.77-4.21 4.03-4.44l-1 4.09a1.496 1.496 0 0 0 1.46 1.85c.68 0 1.29-.46 1.46-1.14l1-4.11c1.22.8 2.03 2.18 2.03 3.74 0 2.47-2.01 4.49-4.49 4.49Zm7.71-6h-.38a7.515 7.515 0 0 0-4.13-5.25l.68-2.8h9.19L21.2 28Zm13.28 6c-2.49 0-4.51-2.03-4.51-4.51 0-1.49.74-2.81 1.86-3.63l1.27 4.07a1.497 1.497 0 0 0 1.88.98c.79-.25 1.23-1.09.98-1.88l-1.26-4.03c2.39.12 4.3 2.08 4.3 4.49s-2.03 4.51-4.51 4.51Z"/><path d="M34.49 19.98h1.24v-3h-1.24c-.83 0-1.5.67-1.5 1.5s.67 1.5 1.5 1.5Z"/></svg>
