<svg xmlns="http://www.w3.org/2000/svg" viewBox="0 0 48 48"><title>Gebruiker centraal</title><path d="M29.95 22H18.94c-2.98 0-3.98 1.01-4.98 5.01l-.95 4.27 4.8-3.36 2.4 3.82-3.25 2.28v7.99h15v-3h3l.02-11.97c0-2.83-2.2-5.03-5.03-5.03Zm-5.62 3.06-1.59 1.15.57.81c.64.97.67 2.41-.3 3.13-.48.36-.81.61-1.12.72l-2.55-4.06 4.11-2.97a.753.753 0 0 1 .88 1.22Zm-5.85-15.05A7.064 7.064 0 0 1 24.85 6c1.62 0 3.11.55 4.3 1.47-.07.53-.22.95-.47 1.23-.91 1-3.34.97-5.5.95-1.63-.01-3.28-.02-4.69.36Zm12.41.71c-1.81 1.99-4.97 1.96-7.75 1.94-1.98-.02-4.22-.04-4.84.75-.28.35-.38.83-.22 1.72.88 2.9 3.58 5.02 6.77 5.02a7.07 7.07 0 0 0 7.07-7.07c0-1.03-.22-2-.62-2.88-.12.18-.26.36-.41.53Z"/></svg>
