<svg xmlns="http://www.w3.org/2000/svg" viewBox="0 0 48 48"><title>Gebruikersvraag</title><path d="m20.16 11.46-.12-.03.03-.11c.8-3.09 3.58-5.25 6.77-5.25s5.8 2.04 6.69 4.96l.07.23-.22-.08a7.68 7.68 0 0 1-3.07-2.09l-1.37-1.36-1.6 1.58a7.746 7.746 0 0 1-5.53 2.36c-.53 0-1.09-.07-1.66-.2Zm6.68 8.6c3.69 0 6.76-2.89 6.98-6.58v-.1l-.65-.13a9.545 9.545 0 0 1-4.15-2.77l-.09-.1-.09.1c-1.79 2.06-4.36 3.24-7.03 3.24-.59 0-1.19-.07-1.8-.19l-.15-.03v.16c.31 3.6 3.38 6.41 6.98 6.41Zm5.15 1.93H19.42c-2.36 0-3.43-1.91-3.43-4V16.1l-4-.06v1.95c0 4.26 2.9 8 7.43 8h.61v16l13.92-.08V39l3.03-.06.02-11.97c0-2.81-2.19-5-5-5ZM13.54 14H16.01V7.01c0-.55-.44-1-1-1s-1 .45-1 1l-.02 2h-.48a2.5 2.5 0 0 0 0 5h.04Z"/></svg>
