<svg xmlns="http://www.w3.org/2000/svg" viewBox="0 0 48 48"><title>Gebruiker ingelogd</title><path d="M33 19.05v-3.97c0-5-4.04-9.08-9-9.08s-9 4.07-9 9.08V16h3v-.92C18 11.73 20.69 9 24 9s6 2.73 6 6.08V19H15.55C13.04 19 11 21.04 11 23.55V37.5c0 2.49 2.01 4.5 4.5 4.5h17c2.49 0 4.5-2.01 4.5-4.5v-14c0-2.31-1.76-4.2-4-4.45Zm-8.93 4.99c1.66.01 2.99 1.36 2.98 3.02s-1.36 2.99-3.02 2.98a2.996 2.996 0 0 1-2.98-3.02 2.996 2.996 0 0 1 3.02-2.98ZM29 37H19v-2.25c0-1.54 1.31-2.75 2.89-2.75h4.29c1.58 0 2.82 1.21 2.82 2.75V37Z"/></svg>
