<svg xmlns="http://www.w3.org/2000/svg" viewBox="0 0 48 48"><title>Gebruiker centraal</title><path d="M28.99 22H18.98C16 22 15 23.01 14.01 27.01l-.95 4.27 4.8-3.36 2.4 3.82-3.25 2.28v7.99h14v-3h3l.02-11.97c0-2.83-2.2-5.03-5.03-5.03Zm-4.62 3.06-1.59 1.15.57.81c.64.97.67 2.41-.3 3.13-.48.36-.8.61-1.12.72l-2.55-4.06 4.11-2.97a.753.753 0 0 1 .88 1.22Zm-7.18-13.69.12.03c.56.13 1.12.2 1.66.2 2.07 0 4.08-.86 5.53-2.36l1.6-1.58 1.37 1.36a7.68 7.68 0 0 0 3.07 2.09l.22.08-.07-.23C29.8 8.04 27.04 6 24 6s-5.97 2.16-6.77 5.25l-.03.11Zm-.18 2.06v.16c.31 3.6 3.38 6.41 6.98 6.41s6.76-2.89 6.98-6.58v-.1l-.65-.13a9.545 9.545 0 0 1-4.15-2.77l-.09-.1-.09.1c-1.79 2.06-4.36 3.24-7.03 3.24-.59 0-1.19-.07-1.8-.19l-.15-.03Z"/></svg>
