<svg xmlns="http://www.w3.org/2000/svg" viewBox="0 0 48 48"><title>Gemeenteraad</title><path d="M34.18 15.92c0-1.61 1.31-2.92 2.92-2.92s2.92 1.31 2.92 2.92-1.31 2.92-2.92 2.92-2.92-1.31-2.92-2.92ZM11.1 18.84c1.61 0 2.92-1.31 2.92-2.92S12.71 13 11.1 13s-2.92 1.31-2.92 2.92 1.31 2.92 2.92 2.92Zm17.85 3.14c-.66 2.16-1.9 4.22-3.01 6.02L25 24.98l1-1v-2h-4v2l1 1L21.93 28c-1.12-1.81-2.34-3.84-3.01-6.02l-.17-.04c-2.67.15-4.76 2.28-4.76 5v12.04h3v3h14v-3h3.05l-.05-12.05c0-2.78-2.3-4.88-5.05-4.95ZM11 26.94c0-2.81 1.39-5.24 3.55-6.67-.34-.18-.73-.29-1.13-.29H8.54c-1.34 0-2.53 1.17-2.53 2.5v5.5H11v-1.04Zm28.48-6.96h-4.87c-.44 0-.85.14-1.21.35 2.18 1.42 3.59 3.83 3.59 6.59v1.06h4.97l.03-5.5c0-1.33-1.19-2.5-2.52-2.5Zm-22-9.97A7.064 7.064 0 0 1 23.85 6c1.62 0 3.11.55 4.3 1.47-.07.53-.22.95-.47 1.23-.91 1-3.34.97-5.5.95-1.63-.01-3.28-.02-4.69.36Zm12.41.71c-1.81 1.99-4.97 1.96-7.75 1.94-1.98-.02-4.22-.04-4.84.75-.28.35-.38.83-.22 1.72.88 2.9 3.58 5.02 6.77 5.02a7.07 7.07 0 0 0 7.07-7.07c0-1.03-.22-2-.62-2.88-.12.18-.26.36-.41.53Z"/></svg>
