<svg xmlns="http://www.w3.org/2000/svg" viewBox="0 0 48 48"><title>Gemeenteraad</title><path d="M34.18 15.94c0-1.61 1.31-2.92 2.92-2.92s2.92 1.31 2.92 2.92-1.31 2.92-2.92 2.92-2.92-1.31-2.92-2.92ZM11.1 18.86c1.61 0 2.92-1.31 2.92-2.92s-1.31-2.92-2.92-2.92-2.92 1.31-2.92 2.92 1.31 2.92 2.92 2.92ZM28.95 22c-.66 2.16-1.9 4.22-3.01 6.02L25 25l1-1v-2h-4v2l1 1-1.07 3.02c-1.12-1.81-2.34-3.84-3.01-6.02l-.17-.04c-2.67.15-4.76 2.28-4.76 5V39h3v3h14v-3h3.05l-.05-12.05c0-2.78-2.3-4.88-5.05-4.95ZM11 26.96c0-2.81 1.39-5.24 3.55-6.67-.34-.18-.73-.29-1.13-.29H8.54c-1.34 0-2.53 1.17-2.53 2.5V28H11v-1.04ZM39.48 20h-4.87c-.44 0-.85.14-1.21.35 2.18 1.42 3.59 3.83 3.59 6.59V28h4.97l.03-5.5c0-1.33-1.19-2.5-2.52-2.5Zm-22.26-8.63.12.03c.56.13 1.12.2 1.66.2 2.07 0 4.08-.86 5.53-2.36l1.6-1.58 1.37 1.36a7.68 7.68 0 0 0 3.07 2.09l.22.08-.07-.23C29.83 8.04 27.07 6 24.03 6s-5.97 2.16-6.77 5.25l-.03.11Zm-.18 2.06v.16c.31 3.6 3.38 6.41 6.98 6.41s6.76-2.89 6.98-6.58v-.1l-.65-.13a9.545 9.545 0 0 1-4.15-2.77l-.09-.1-.09.1c-1.79 2.06-4.36 3.24-7.03 3.24-.59 0-1.19-.07-1.8-.19l-.15-.03Z"/></svg>
