<svg xmlns="http://www.w3.org/2000/svg" viewBox="0 0 48 48"><title>Gezicht</title><path d="M29.61 10.12c-1.79-.73-3.67-1.1-5.61-1.1-5.9 0-11.23 3.48-13.64 8.79 1.79.73 3.67 1.1 5.61 1.1 5.9 0 11.23-3.48 13.64-8.79ZM38.09 18.92a14.935 14.935 0 0 0-5.7-7.31c-.1.43-.14.87-.14 1.32 0 3.26 2.61 5.92 5.85 6Z"/><path d="M38.84 21.88c-.2.01-.4.04-.59.04-4.03 0-7.46-2.67-8.6-6.33a17.981 17.981 0 0 1-13.68 6.33c-2.28 0-4.49-.43-6.59-1.26-.24 1.07-.38 2.18-.38 3.32 0 8.27 6.73 15 15 15s15-6.73 15-15c0-.71-.07-1.41-.16-2.09Zm-19.37 1.48c.82 0 1.49.67 1.49 1.5s-.67 1.5-1.49 1.5-1.49-.67-1.49-1.5.67-1.5 1.49-1.5Zm9.98 9.43c-1.63 1.1-3.53 1.68-5.49 1.68s-3.73-.54-5.31-1.56c-.46-.3-.6-.92-.3-1.38.3-.46.92-.6 1.38-.3 2.57 1.66 6.07 1.62 8.61-.09a.999.999 0 0 1 1.39.27c.31.46.19 1.08-.27 1.39Zm-.98-6.49c-.82 0-1.49-.67-1.49-1.5s.67-1.5 1.49-1.5 1.49.67 1.49 1.5-.67 1.5-1.49 1.5Z"/></svg>
