<svg xmlns="http://www.w3.org/2000/svg" viewBox="0 0 48 48"><title>Gezicht</title><path d="m20.81 8.67-.15-.3c1.09-.23 2.22-.37 3.38-.37 6.49 0 12.06 3.87 14.57 9.42-1.03.2-2.07.3-3.13.3-6.23 0-11.86-3.47-14.68-9.05ZM40.04 24c0 8.84-7.16 16-16 16s-16-7.16-16-16c.07-.01.13-.01.2-.03 5.5-1.84 9.82-6.07 11.83-11.4 3.57 4.89 9.24 7.83 15.42 7.83 1.36 0 2.7-.15 4.02-.43.33 1.29.53 2.63.53 4.03Zm-22.06.13c0 .83.67 1.5 1.49 1.5s1.49-.67 1.49-1.5-.67-1.5-1.49-1.5-1.49.67-1.49 1.5Zm11.69 7.95a.999.999 0 0 0-1.39-.27c-2.54 1.72-6.03 1.75-8.61.09a.993.993 0 0 0-1.38.3c-.3.46-.17 1.08.3 1.38 1.58 1.02 3.42 1.56 5.31 1.56s3.87-.58 5.49-1.68c.46-.31.58-.93.27-1.39Zm.29-8.01c0-.83-.67-1.5-1.49-1.5s-1.49.67-1.49 1.5.67 1.5 1.49 1.5 1.49-.67 1.49-1.5ZM18.28 9.08a15.989 15.989 0 0 0-9.96 11.99c5.1-2.06 8.87-6.57 9.96-11.99Z"/></svg>
