<svg xmlns="http://www.w3.org/2000/svg" viewBox="0 0 48 48"><title>Gladheid</title><path d="M25.6 9.94h-3V6.03h3v3.91Zm0 2.07h-3v4h3v-4Zm8.78-5.97h-3.19l7.61 20.99h3.19L34.38 6.04Zm-20.76 0L6.01 27.03H9.2l7.61-20.99h-3.19ZM35 25.03l-2.11-2.11-5.57 5.57H25.5v-1.82l5.57-5.57-2.11-2.11-3.47 3.47v-4.47h-3v4.46l-3.46-3.46-2.11 2.11 5.57 5.57v1.82h-1.82l-5.57-5.57-2.11 2.11 3.47 3.47h-4.47v3h4.46l-3.46 3.46 2.11 2.11 5.57-5.57h1.82v1.82l-5.57 5.57L19.03 41l3.47-3.47V42h3v-4.46L28.96 41l2.11-2.11-5.57-5.57V31.5h1.82l5.57 5.57L35 34.96l-3.47-3.47H36v-3h-4.46L35 25.03Z"/></svg>
