<svg xmlns="http://www.w3.org/2000/svg" viewBox="0 0 48 48"><title>Grofvuil</title><path d="M10 32h14.99v5H12v2H9v-1.99c-1.65 0-3-1.34-3-2.97V29.2c0-.86.5-1.69 1.32-1.97A2.01 2.01 0 0 1 10 29.12v2.89Zm9.97-7h-3.05l.04 2.1c-.21.12-.23 0-.41 0L14.56 23l3.47-.04-.82-2.96h-5.23c-1.63 0-2.97 1.34-2.97 2.97v2.25c1.72.46 3 2.03 3 3.91V30H25V20h-6l.98 5Zm14.02 5h2v-.98c0-1.84 1.28-3.38 3-3.82v-2.23c0-1.63-1.34-2.97-2.97-2.97h-2.03v10Zm6.68-2.77a2.01 2.01 0 0 0-2.68 1.89v2.89h-4v5h2v2h3v-1.99c1.65 0 3-1.34 3-2.97v-4.84c0-.86-.5-1.69-1.32-1.97ZM33.96 5.97h-8.97l-2 9.03h5v27h3V15h5l-2.03-9.03Z"/></svg>
