<svg xmlns="http://www.w3.org/2000/svg" viewBox="0 0 48 48"><title>Hondenbelasting</title><path d="m9.35 26.38 10.06 4.83c-.18.62-.3 1.26-.36 1.92-.06.27-.1.54-.13.85H8.57l-2.54-.97 3.32-6.63ZM37 34c0 4.41-3.59 8-8 8s-8-3.59-8-8 3.59-8 8-8 8 3.59 8 8Zm-9.61-1.01c.23-.58.64-1.04 1.17-1.29.52-.25 1.11-.27 1.65-.07l.94.35.71-1.87-.94-.35c-1.05-.4-2.2-.35-3.22.14-1.08.51-1.89 1.44-2.28 2.61-.05.16-.08.32-.11.48h-1.37v2h1.36c.32 1.44 1.3 2.7 2.71 3.23.47.18.96.26 1.45.26s.98-.09 1.45-.26l.94-.35-.71-1.87-.94.35c-.48.18-1.01.18-1.49 0-.63-.24-1.1-.75-1.35-1.36h3.57v-2h-3.57Zm14.36-18.51-1.98 3.76c-1.11 2.35-3.56 3.91-6.16 3.91h-2.33l-.64 1.99c-.53-.09-1.08-.15-1.64-.15-3.48 0-6.54 1.78-8.34 4.48l-3.79-1.81-6.14-3.02 1.35-2.69 5.41 2.68c.63.3 1.43.55 2.09.55 1.42 0 2.69-.5 3.64-1.8.54-.74.73-1.81.73-2.73v-.25L21.71 8.64l-2.23 4.46 1.35 6.21c.08.52.03 1.1-.52 1.45-.58.37-1.27.4-1.88.11l-5.07-2.49 5.66-11.26c.27-.57 1.02-1.1 1.65-1.1h7.72c1.35 0 2.79.95 3.3 2.2l1.1 3.85h7.53c1.68 0 1.95 1.28 1.42 2.39Zm-12.74-2.99c0-.83-.68-1.51-1.51-1.51s-1.51.68-1.51 1.51S26.67 13 27.5 13s1.51-.68 1.51-1.51Z"/></svg>
