<svg xmlns="http://www.w3.org/2000/svg" viewBox="0 0 48 48"><title>Hondenbelasting</title><path d="M29.02 27.95c-3.87 0-7 3.13-7 7s3.13 7 7 7 7-3.13 7-7-3.13-7-7-7Zm.54 11.32c-1.69 0-3.28-.95-3.88-2.68h-1.19v-1.1h.96c-.01-.11-.03-.29-.03-.45 0-.2.01-.33.03-.45h-.96V33.5h1.18c.6-1.75 2.23-2.72 3.91-2.72.88 0 1.58.19 2.14.58l-.58 1.17c-.41-.3-.95-.44-1.57-.44-.96 0-1.88.45-2.34 1.42h3.45l-.53 1.09h-3.21c-.01.1-.03.24-.03.44 0 .23.01.38.03.46h2.83l-.51 1.1h-2.02c.46.91 1.34 1.35 2.32 1.35.7 0 1.32-.2 1.74-.6l.7 1.08c-.59.5-1.44.85-2.44.85Zm10.77-27.19H32.8l-1.1-3.85c-.51-1.25-1.95-2.19-3.3-2.19h-7.72c-.64-.01-1.38.51-1.65 1.09l-5.66 11.26 5.07 2.49c.61.29 1.3.25 1.88-.11.55-.35.6-.93.52-1.45l-1.35-6.21 2.23-4.46 2.24 10.76v.25c0 .92-.19 1.99-.73 2.73-.95 1.3-2.22 1.8-3.64 1.8-.67 0-1.47-.25-2.09-.55l-5.41-2.68-1.35 2.69 6.14 3.02 4.32 2.06c1.85-2.21 4.63-3.62 7.75-3.62.46 0 .91.04 1.35.1l.98-3.06h2.33c2.6 0 5.05-1.56 6.16-3.91l1.98-3.76c.53-1.11.26-2.39-1.42-2.39Zm-12.84.91c-.84 0-1.51-.68-1.51-1.51s.68-1.51 1.51-1.51 1.51.68 1.51 1.51-.68 1.51-1.51 1.51Zm-7.86 18.32L9.34 26.37 6.02 33l2.54.97h10.35c.1-1.01.35-1.76.72-2.66Z"/></svg>
