<svg xmlns="http://www.w3.org/2000/svg" viewBox="0 0 48 48"><title>Horecavergunningen</title><path d="M6.95 34H14v7l-7.05-7ZM37 35.01V39h2.02c1.09 0 1.98.89 1.98 1.98V42H30v-.98c0-1.12.91-2.02 2.02-2.02H34v-4c-2.71-.64-4.78-2.97-5-5.82V23h13v6.18c-.22 2.85-2.3 5.18-5 5.83Zm-5.02-6.02c0 1.94 1.57 3.51 3.51 3.51S39 30.93 39 28.99c0 0-7.02-.01-7.02 0ZM27 40.21v1.8l-10-.02v-8.94c0-1.12-.91-2.03-2.03-2.03H6v-23C6 6.9 6.9 6 8.02 6h21.95C31.09 6 32 6.91 32 8.03V20h-6l.02 9.8c.2 2.74 1.68 5.14 3.87 6.54 0 0-2.9.46-2.9 3.86Zm-8.44-16.19 8.49-8.49-2.12-2.11-6.36 6.36-3.2-3.18-2.13 2.12 5.31 5.31Z"/></svg>
