<svg xmlns="http://www.w3.org/2000/svg" viewBox="0 0 48 48"><title>Horeca</title><path d="m17.65 24.65 4.95-4.95L8.92 6.02a7.007 7.007 0 0 0 0 9.9l8.73 8.73ZM41.65 38.76 28.28 25.39l-2.83 2.83 13.37 13.37c.39.39 1.02.39 1.41 0l1.41-1.41a.996.996 0 0 0 0-1.41h.01Z"/><path d="M33.41 21.46c.09-.05.19-.1.28-.2l.16-.16s.09-.06.13-.1h-.01l7.78-7.79c.39-.4.39-1.03 0-1.42a.996.996 0 0 0-1.41 0l-6.56 6.56-1.41-1.41 6.56-6.56a.996.996 0 1 0-1.41-1.41l-6.56 6.56-1.41-1.41 6.56-6.56a.996.996 0 1 0-1.41-1.41l-8.06 8.06c-.13.13-.22.27-.27.4a5.01 5.01 0 0 0-.58 4.63L6.29 38.71a.996.996 0 0 0 0 1.41l1.45 1.45c.39.39 1.02.39 1.42 0l19.46-19.46c1.57.62 3.38.39 4.79-.65Z"/></svg>
