<svg xmlns="http://www.w3.org/2000/svg" viewBox="0 0 48 48"><title>Hulpmiddelen vinden</title><path d="M23 9.51c0-1.93 1.57-3.5 3.5-3.5S30 7.58 30 9.51s-1.57 3.5-3.5 3.5-3.5-1.57-3.5-3.5ZM6 40h6V30H6v10Zm30.5-26.99c1.93 0 3.5-1.57 3.5-3.5s-1.57-3.5-3.5-3.5S33 7.58 33 9.51s1.57 3.5 3.5 3.5Zm5.5 5V26h-3v7.77c-.59-.11-1.23-.17-1.94-.17h-.28l-.78.08v-5.61c0-1.14-.92-2.06-2.06-2.06h-4.98c-1.1 0-1.99.89-1.99 1.99v.89l-2.97-.9v-2h-3l-.02-8c0-1.66 1.34-2.99 3-2.99h4.45c1.66 0 3 1.34 3 3 0-1.66 1.34-3 3-3H39c1.66 0 3 1.34 3 3Zm-7.5 4c0-1.66-1.34-3-3-3s-3 1.34-3 3 1.34 3 3 3 3-1.34 3-3ZM39.97 34s.03 0 .05.01-.05-.01-.05-.01Zm-3.05 2.46-9.98.94-4.74-1.22.78-2.27 3.93 1.02h3.17s-.22-2.24-3.09-3.06l-6.14-1.88-5.83.89v8.08l11.94 3.03 14.06-3.11s0-2.42-4.09-2.42Z"/></svg>
