<svg xmlns="http://www.w3.org/2000/svg" viewBox="0 0 48 48"><title>Hulpmiddelen vinden</title><path d="M33 9.51c0-1.93 1.57-3.5 3.5-3.5S40 7.58 40 9.51s-1.57 3.5-3.5 3.5-3.5-1.57-3.5-3.5Zm-6.5 3.5c1.93 0 3.5-1.57 3.5-3.5s-1.57-3.5-3.5-3.5S23 7.58 23 9.51s1.57 3.5 3.5 3.5Zm-5.51 14.15V17.01c-.01-1.66 1.33-2 2.99-2h4.45c1.66 0 3 1.34 3 3 0-1.66 1.34-3 3-3H39c1.66 0 3 1.34 3 3v11h-2v5c-.82-.25-1.79-.41-2.94-.41h-.28l-.78.08v-5.61c0-1.14-.92-2.06-2.06-2.06h-4.98c-1.1 0-1.99.89-1.99 1.99v.89l-5.17-1.56-.65-.2-.16.02Zm7.51-5.15c0 1.66 1.34 3 3 3s3-1.34 3-3-1.34-3-3-3-3 1.34-3 3Zm-7.57 8.19-5.84.88v8l11.96 3L41.15 39s0-2.4-4.1-2.4l-10 .93-4.76-1.21.78-2.24 3.94 1.01h3.18s-.22-2.22-3.1-3.03l-6.16-1.86m-8.84-.11h-6v10h6v-10Z"/></svg>
