<svg xmlns="http://www.w3.org/2000/svg" viewBox="0 0 48 48"><title>Informatie en betalen</title><path d="M40.99 31.96c0 3.87-3.13 7-7 7s-7-3.13-7-7 3.13-7 7-7 7 3.13 7 7ZM35 31h-2v5h2v-5Zm0-2.04c0-.29-.09-.53-.28-.72-.19-.19-.43-.28-.72-.28s-.54.09-.72.28c-.19.19-.28.43-.28.72s.09.53.28.72c.19.19.43.28.72.28s.54-.09.72-.28c.19-.19.28-.43.28-.72Zm-10.99 3.07c0-4.05 2.41-7.52 5.86-9.1l2.45-3.98L24.21 14h-6.44l-3.79 6.05 2.61 1.44-1.56 2.56-2.61-1.44-5.41 9.37 13 7 4.02-6.54c0-.13-.02-.27-.02-.4Zm-5.77 4.15-2.56-1.56 4.17-6.83 2.56 1.56-4.17 6.83Zm4.75-12.38-.7 1.14-1.06-.64.56-.92c-.12-.05-.29-.14-.45-.24-.19-.12-.3-.2-.42-.29l-.56.92-1.04-.64.69-1.13c-1.33-1.6-1.3-3.72-.32-5.33.51-.84 1.1-1.4 1.8-1.71l.78 1.23c-.53.22-.98.66-1.33 1.24-.56.92-.67 2.06-.01 3.07l2.01-3.3.74 1.14-1.87 3.07a5.106 5.106 0 0 0 .87.53l1.65-2.71.76 1.14-1.18 1.93h.23c1.04 0 1.89-.57 2.42-1.44.41-.67.58-1.38.44-2.02l1.44-.04c.14.86-.03 1.88-.61 2.84C27 23 25.57 23.9 23.95 23.9c-.31 0-.63-.03-.96-.1ZM8.53 21h1.46l1.48-2.43.35-.57H10v-6h28v6h-1.58l-1.53 2.51-.3.49h4.88c.84 0 1.53-.68 1.53-1.53v-8.94C41 9.69 40.32 9 39.47 9H8.53C7.69 9 7 9.68 7 10.53v8.95c0 .84.68 1.53 1.53 1.53Z"/></svg>
