<svg xmlns="http://www.w3.org/2000/svg" viewBox="0 0 48 48"><title>Inspraak</title><path d="M14.99 41.99V26h-.61c-4.53 0-7.43-4.74-7.43-9v-1.95l4 .06V17c0 2.09 1.07 5 3.43 5h12.57c1.62 0 3.52 1.05 3.92 3L20.43 35.31l-1.34 5.07c-.12.53-.11 1.06 0 1.58l-4.11.02Zm-4.04-28.98V5.76c0-.41-.34-.75-.75-.75s-.75.34-.75.75v2.25H8.2c-1.24 0-2.25 1.26-2.25 2.5s1.01 2.5 2.25 2.5h2.75Zm11.74 25.24-.62 2.8a.78.78 0 0 0 .93.93l2.82-.61-3.12-3.12Zm19-12.89c.39.39.39 1.02 0 1.41L28.68 39.78l-1.41-1.41-.05-.04-1.4-1.4.04.03-1.4-1.4 13.1-13.12c.39-.39.92-.28 1.31.11l2.81 2.81ZM14.18 11.37l.12.03c.56.13 1.12.2 1.66.2 2.07 0 4.08-.86 5.53-2.36l1.6-1.58 1.37 1.36a7.68 7.68 0 0 0 3.07 2.09l.22.08-.07-.23C26.79 8.04 24.03 6 20.99 6s-5.97 2.16-6.77 5.25l-.03.11ZM14 13.43v.16c.31 3.6 3.38 6.41 6.98 6.41s6.76-2.89 6.98-6.58v-.1l-.65-.13a9.545 9.545 0 0 1-4.15-2.77l-.09-.1-.09.1c-1.79 2.06-4.36 3.24-7.03 3.24-.59 0-1.19-.07-1.8-.19l-.15-.03Z"/></svg>
