<svg xmlns="http://www.w3.org/2000/svg" viewBox="0 0 48 48"><title>Jeugd</title><path d="M8.99 8.46C8.99 7.1 10.09 6 11.45 6s2.46 1.1 2.46 2.46-1.1 2.46-2.46 2.46-2.46-1.1-2.46-2.46ZM7.96 25.02c-1.1 0-1.99.89-1.99 1.99S6.86 29 7.96 29s1.99-.89 1.99-1.99-.89-1.99-1.99-1.99Zm29.57-6.15c1.36 0 2.46-1.1 2.46-2.46s-1.1-2.46-2.46-2.46-2.46 1.1-2.46 2.46 1.1 2.46 2.46 2.46ZM40 40c-.55 0-1 .45-1 1s.45 1 1 1 1-.45 1-1-.45-1-1-1Zm-9-7.13v-.82l-2.98-1.71.02 1.48-4.87 1.65.93 2.84 5.88-1.99c.62-.21 1.03-.79 1.02-1.44Zm5.14-7.6.06.1c.35.57 1.01 1.64 2.22 1.64H42v-3h-3.12c-.05-.08-.1-.15-.13-.21l-2.65-3.84c-.04-.06-.09-.12-.14-.18-.78-.82-2.06-.8-2.81-.78h-.46c-5.12 0-4.86 0-5.28.2-.2.09-.37.23-.48.41l-2.58 4.07 2.16 1.62 2.1-3.3c.47 0 2.32.09 2.32.09l-2.66 3.87c-.73 1.06-.33 2.52.84 3.06l5.89 2.7V37h-6.77c-.53 0-.97.45-.97 1s.43 1 .97 1h12.56c.53 0 .97-.45.97-1s-.43-1-.97-1H38v-5.58c0-.75-.33-1.46-.91-1.94-.06-.05-.12-.09-.18-.13l-3.93-2.4c.61-1.01 1.46-2.41 2.01-3.32l1.15 1.64ZM29.97 40c-.55 0-1 .45-1 1s.45 1 1 1 1-.45 1-1-.45-1-1-1ZM19.75 20.3c.96-.58 1.25-1.83.65-2.77l-2.19-3.41-.03.02s-.05-.08-.07-.12h2.15l2.13 3.33 2.52-1.63-2.63-4.1c-.12-.18-.29-.32-.49-.42-.42-.2-.16-.2-5.38-.2h-.43c-.78-.02-2.09-.05-2.89.79-.07.07-.13.15-.19.24L10.39 16H7v3h3.61c.92 0 1.77-.47 2.26-1.24l1.25-1.94c.56.91 1.92 3.21 1.92 3.21v.02l-3.95 2.35c-.07.04-.13.08-.19.13-.58.48-.91 1.18-.91 1.93v5.53h3v-5.25l5.75-3.46Zm.73 1.93-4 2.47c0 .32.1.64.31.9l2.69 3.4h3.83l-3.63-4.61.81-2.17Z"/></svg>
