<svg xmlns="http://www.w3.org/2000/svg" viewBox="0 0 48 48"><title>Kennis</title><path d="M36.75 32c1.99 0 3.82-.71 5.25-1.89V42h-1.53C37.45 42 35 39.54 35 36.53V32h1.75ZM32 32h-1.75c-1.99 0-3.82-.71-5.25-1.89v4.38c0 4.14 3.58 7.51 7.98 7.51h1.03a8.467 8.467 0 0 1-2.02-5.47V32Zm1.5-11.48A7.3 7.3 0 0 1 35.02 19h-3.04a7.3 7.3 0 0 1 1.52 1.52ZM22 15h3c0 .88.46 1.65 1.15 2.1 1.21-.69 2.6-1.1 4.09-1.1h3.75v-1c.01-1.67-1.34-3-3-2.99l-20.48.05c-.92 0-1.65-.83-1.48-1.79.14-.76.87-1.28 1.64-1.28h19.99c-.24-1.69-1.66-3-3.39-3H10.46C8 5.99 6 7.99 6 10.45l.04 25.54a3.99 3.99 0 0 0 4 3.99h13.71c-1.1-1.67-1.75-3.66-1.75-5.79v-9.21h.04c-.02-.25-.04-.5-.04-.76 0-1.95.69-3.74 1.83-5.16A5.479 5.479 0 0 1 22 14.98Zm19.99 8.84V24v-.25.09Zm-1.66-3.41c.98.92 1.61 1.99 1.66 3.41-.05 2.85-2.37 5.16-5.24 5.16h-6.51c-2.86 0-5.19-2.31-5.24-5.16.04-1.42.68-2.49 1.66-3.41.27.04.55.07.83.07 2.48 0 4.5 2.02 4.5 4.5v1h3v-1c0-2.48 2.02-4.5 4.5-4.5.28 0 .56-.03.83-.07ZM30 24.5c0-.83-.67-1.5-1.5-1.5s-1.5.67-1.5 1.5.67 1.5 1.5 1.5 1.5-.67 1.5-1.5Zm10 0c0-.83-.67-1.5-1.5-1.5s-1.5.67-1.5 1.5.67 1.5 1.5 1.5 1.5-.67 1.5-1.5ZM25 24v-.25.25Z"/></svg>
