<svg xmlns="http://www.w3.org/2000/svg" viewBox="0 0 48 48"><title>Kind en familie</title><path d="M26 9.5C26 7.57 27.57 6 29.5 6S33 7.57 33 9.5 31.43 13 29.5 13 26 11.43 26 9.5ZM36 29h-3.08L33 42h-6v-8h2v-5.94c0-1.14-.92-2.06-2.06-2.06h-5.91c-1.12 0-2.02.91-2.02 2.02V34h2v8h-6V29h-2.96l-.04-10.99c0-1.66 1.34-3.01 3-3.01h6.06c1.66 0 3 1.35 3 3.01 0-1.66 1.34-3.01 3-3.01H33c1.66 0 3 1.34 3 3v11Zm-9-7c0-1.66-1.34-3-3-3s-3 1.34-3 3 1.34 3 3 3 3-1.34 3-3Zm-8.5-9c1.93 0 3.5-1.57 3.5-3.5S20.43 6 18.5 6 15 7.57 15 9.5s1.57 3.5 3.5 3.5Z"/></svg>
