<svg xmlns="http://www.w3.org/2000/svg" viewBox="0 0 48 48"><title>Kind en familie</title><path d="M36 18c0-1.66-1.34-3-3-3h-5.93c-1.66 0-3 1.35-3 3.01 0-1.66-1.34-3.01-3-3.01h-6.06c-1.66 0-3 1.35-3 3.01L12.05 29h2.96v12h6v-7h-2v-5.98c0-1.12.91-2.02 2.02-2.02h5.91c1.14 0 2.06.92 2.06 2.06V34h-2v7h6l-.08-12H36V18Zm-12 7c-1.66 0-3-1.34-3-3s1.34-3 3-3 3 1.34 3 3-1.34 3-3 3ZM15 9.5C15 7.57 16.57 6 18.5 6S22 7.57 22 9.5 20.43 13 18.5 13 15 11.43 15 9.5Zm11 0C26 7.57 27.57 6 29.5 6S33 7.57 33 9.5 31.43 13 29.5 13 26 11.43 26 9.5Z"/></svg>
