<svg xmlns="http://www.w3.org/2000/svg" viewBox="0 0 48 48"><title>Klacht</title><path d="M29.61 10.1C27.82 9.37 25.94 9 24 9c-5.9 0-11.23 3.49-13.64 8.81 1.79.73 3.67 1.1 5.61 1.1 5.9 0 11.23-3.49 13.64-8.81ZM38.09 18.91a15.029 15.029 0 0 0-5.7-7.33c-.1.43-.14.87-.14 1.32 0 3.26 2.61 5.93 5.85 6.01Z"/><path d="M38.84 21.88c-.2.01-.4.04-.59.04-4.03 0-7.46-2.67-8.6-6.34a17.957 17.957 0 0 1-13.68 6.34c-2.28 0-4.49-.43-6.59-1.27-.24 1.07-.38 2.18-.38 3.32C9 32.26 15.73 39 24 39s15-6.74 15-15.03c0-.71-.07-1.41-.16-2.09Zm-19.37 1.48c.82 0 1.49.67 1.49 1.5s-.67 1.5-1.49 1.5-1.49-.67-1.49-1.5.67-1.5 1.49-1.5Zm-.84 9.3c1.63-1.1 3.53-1.68 5.49-1.68s3.73.54 5.31 1.56c.46.3.6.92.3 1.39-.3.47-.92.6-1.38.3-2.57-1.66-6.07-1.63-8.61.09a.999.999 0 0 1-1.39-.27.999.999 0 0 1 .27-1.39Zm9.84-6.35c-.82 0-1.49-.67-1.49-1.5s.67-1.5 1.49-1.5 1.49.67 1.49 1.5-.67 1.5-1.49 1.5Z"/></svg>
