<svg xmlns="http://www.w3.org/2000/svg" viewBox="0 0 48 48"><title>Liefdadigheid</title><path d="m29.11 22-10.37.02c-2.68.15-4.73 2.26-4.73 4.96L14.03 39h2.98v3h14v-3h3l.02-12.02c0-2.77-2.14-4.92-4.91-4.98Zm.37 5.86-.24.26-2.23 2.35-2.23-2.35-.24-.26c-.5-.53-.69-1.32-.37-1.97.53-1.07 1.8-1.21 2.54-.44l.3.32.3-.32c.73-.77 2.01-.62 2.54.44.32.65.13 1.44-.37 1.97Zm-12.3-16.49.12.03c.56.13 1.12.2 1.66.2 2.07 0 4.08-.86 5.53-2.36l1.6-1.58 1.37 1.36a7.68 7.68 0 0 0 3.07 2.09l.22.08-.07-.23C29.79 8.04 27.03 6 23.99 6s-5.97 2.16-6.77 5.25l-.03.11ZM17 13.43v.16c.31 3.6 3.38 6.41 6.98 6.41s6.76-2.89 6.98-6.58v-.1l-.65-.13a9.545 9.545 0 0 1-4.15-2.77l-.09-.1-.09.1c-1.79 2.06-4.36 3.24-7.03 3.24-.59 0-1.19-.07-1.8-.19l-.15-.03Z"/></svg>
