<svg xmlns="http://www.w3.org/2000/svg" viewBox="0 0 48 48"><title>Locatie</title><path d="M24 11.04c3.85 0 6.98 3.13 6.98 6.98 0 .33-.03.65-.08.97 0 .06-.02.12-.03.18-.03.17-.06.33-.1.49C29.66 24.96 24 31.97 24 31.97s-5.67-7.01-6.77-12.31c-.04-.16-.07-.33-.1-.49 0-.06-.02-.12-.03-.18-.04-.32-.08-.64-.08-.97 0-3.85 3.13-6.98 6.98-6.98M32.53 24c-.46 1.02-.98 2.04-1.53 3h6.51L34 36H10.5l3.51-9h3c-.55-.96-1.08-1.98-1.53-3h-3.45L6 39h30.02l6.04-15h-9.5ZM24 15c-1.66 0-3 1.34-3 3s1.34 3 3 3 3-1.34 3-3-1.34-3-3-3Z"/></svg>
