<svg xmlns="http://www.w3.org/2000/svg" viewBox="0 0 48 48"><title>Manege</title><path d="M22.02 11.01s-.06-.35.04-.78c.21-.87.58-1.79 1.21-2.4C24.68 6.46 26.83 6.09 28 6v5.93l3.52 1.85.46.97c-2.02.02-5.04.29-7.52 1.52-2.55 1.27-4 2.81-4.74 3.83-1.45-2.47-2.62-5.18-3.18-8.04 2.15-.85 4.11-1.06 5.48-1.06Zm10.93 5.86 3 6.33s.98 1.59 2.15 3.46c-1.57 1.14-4.91 3.53-7.75 5.56-1.81-1.48-6.06-5.2-9.43-10.18h.03s1.06-2.2 4.43-3.88c2.55-1.27 5.93-1.34 7.58-1.29Zm-2.58 5.48c0-.87-.71-1.58-1.59-1.58s-1.59.71-1.59 1.58.71 1.58 1.59 1.58 1.59-.71 1.59-1.58Zm8.84 6.11c-1.23.89-3.76 2.71-9.03 6.48l3.07 3.72c4.02.58 7.79-1.99 8.72-5.74l-2.77-4.45Zm-10.86 4.85c-3.58-3-11.71-10.73-13.8-20.32-2.82 1.43-5.86 3.66-8.55 6.95v22.07h12l-.07-11.06c2.93 2.88 8.04 3.4 10.43 2.37Z"/></svg>
