<svg xmlns="http://www.w3.org/2000/svg" viewBox="0 0 48 48"><title>Manege</title><path d="M26.38 18.2a10.16 10.16 0 0 0-4.85 3.86c.56.82 1.18 1.66 1.88 2.51 2.84 3.45 5.26 5.66 6.94 7.01l7.48-5.33c-1.04-1.68-1.88-3.03-1.89-3.04l-2.76-5.83c-1.73-.1-4.47-.07-6.81.83Zm2.41 5.73c-.88 0-1.59-.71-1.59-1.58s.71-1.58 1.59-1.58 1.59.71 1.59 1.58-.71 1.58-1.59 1.58Zm-6.77-12.92s-.06-.35.04-.78c.21-.87.58-1.79 1.21-2.4 1.41-1.37 2.91-1.74 4.08-1.83v5.27l4.17 2.5.23.48c-2.18.06-4.97.35-7.04 1.34-3.07 1.46-4.46 2.95-4.94 3.55-1.97-3.65-2.62-6.5-2.77-7.25 1.97-.7 3.75-.89 5.02-.89Zm19.96 21.9c-.93 3.76-4.71 6.33-8.72 5.74l-2.73-3.3 8.96-6.46c1.32 2.12 2.5 4.02 2.5 4.02Zm-24.06-1.97L17.99 42H6V19.93c2.52-3.09 5.35-5.23 8.02-6.66.09.98.72 4.76 4.98 10.73 4.03 5.65 7.61 8.57 8.84 9.49-2.77.3-6.84-.05-9.92-2.55Z"/></svg>
