<svg xmlns="http://www.w3.org/2000/svg" viewBox="0 0 48 48"><title>Meeuwen overlast</title><path d="M12.92 19.55c3.87 0 7-3.13 7-7s-3.13-7-7-7-7 3.13-7 7 3.13 7 7 7Zm-.88-6.05h2v-5h-2v5Zm.16 1.33c.19-.19.43-.28.72-.28s.54.09.72.28c.18.19.28.43.28.72s-.09.53-.28.72-.43.28-.72.28-.54-.09-.72-.28c-.19-.19-.28-.43-.28-.72s.09-.53.28-.72ZM7.04 28.79c3.23-1.84 12.12-6.9 19.61-6.9.52 1.76 2.07 3.56 2.57 3.9.88.61 1.09.81 1.09 1.38 0 1.67-3.4 2.75-8.67 2.75-2.04 0-11.47-.8-14.6-1.13Zm29.55-7.81.85-1.02h4.64c-.04-.32-.09-2.47-2.12-2.47h-2.49c0-.81-.84-2.5-3.89-2.5-3.51 0-4.57 2.68-4.57 4.15 0 2.13.86 3.74 2.06 4.74.89.74 2.15 1.45 2.15 3.3 0 2.33-1.7 5.31-11.18 5.31-1.9 0-7-.53-10.17-.85l.05.09L6 34.71v1.78l5.67-.99h8.39l-.02 6.95h9.9V39.5h-1.92l.02-4h.42c5.46 0 10.59-3.01 10.59-7.6 0-5.31-2.46-6.92-2.46-6.92ZM25.04 39.5H23l.02-4h2.04l-.02 4Zm9.61-20.63a1.016 1.016 0 1 1 0-2.03c.57 0 1.01.45 1.01 1.02s-.45 1.01-1.01 1.01Z" style="fill-rule:evenodd"/></svg>
