<svg xmlns="http://www.w3.org/2000/svg" viewBox="0 0 48 48"><title>Meeuwen overlast</title><path d="M13 20c-3.87 0-7-3.13-7-7s3.13-7 7-7 7 3.13 7 7-3.13 7-7 7m-1-6h2V9h-2v5Zm0 2c0 .29.09.53.28.72.19.19.43.28.72.28s.54-.09.72-.28c.19-.19.28-.43.28-.72s-.09-.53-.28-.72c-.19-.19-.43-.28-.72-.28s-.54.09-.72.28c-.19.19-.28.43-.28.72Zm28.81.12c-.71-.73-1.67-1.12-2.79-1.12h-.41c-1.09-2.09-3.33-3.16-6.18-2.91-4.19.37-5.63 4.22-5.59 6.7v1.09C19.33 19.88 6 28.22 6 28.22l4 1-4 2v5l8.04-1.19h5.98l.03 6.97h9.99l-.03-3h-2v-3.99c8.59-.37 11.67-5.01 11.67-9.17 0-1.95-.3-3.58-.73-4.84h3.02l.05-1.44c0-.21.04-2.13-1.22-3.44Zm-11.97 9.03ZM24.99 39h-2.04v-3.99h2.04V39Zm14.75-19.97h-4.42l-1.99 1.04 1.33.47s2 .75 2 5.31-5.25 6.18-9.75 6.18H14l-5 1.2v-1l5.23-2.47c2.84.25 6.01.48 7.97.48 6.3 0 10.08-2.73 10.08-5.12 0-2.81-2.97-2.69-3.43-5.32v-1.02c0-.14-.03-3.43 2.84-3.68 2.83-.26 3.59.81 3.75 1.88l.17.57h2.77c1.59 0 1.35 1.49 1.35 1.49Zm-5.57-2.19c0 .47-.38.84-.84.84s-.84-.38-.84-.84.38-.84.84-.84.84.38.84.84Z"/></svg>
