<svg xmlns="http://www.w3.org/2000/svg" viewBox="0 0 48 48"><title>Melding omgevallen boom</title><path d="m12.2 35.47.3 6.53H6l.5-9.5 1.5-2 1.5 1 1-2L12 31l.13 2.84 1.93-.91.64 1.36-2.49 1.17ZM42 8v12a2 2 0 0 1-2 2h-2.98l-.03 3.47c0 .2-.12.38-.31.46a.5.5 0 0 1-.54-.1l-3.89-3.82h-4.27c-1.1 0-2-.9-2-2.01V8a2 2 0 0 1 2-2h12a2 2 0 0 1 2 2Zm-7 9.04c0-.55-.45-1-1-1s-1 .45-1 1 .45 1 1 1 1-.45 1-1Zm0-7.03h-2v5h2v-5Zm3.38 24.88c.37-1.97-.2-4.09-1.59-5.48a5.92 5.92 0 0 0-6.26-1.35c-.25-.12-.53-.25-.73-.34-2.36-1-4.24-1-6.6 0-.45.19-.88.42-1.28.69L14 21.19l-2 1.5.5 2-2.5 1 8.49 7.12c-.19.55-.35 1.09-.42 1.62-1.8.92-4.07 3.2-4.07 7.58h6v-2h7.69l3.7-3.7 1.7 1.7-2 2H35v2h7v-1.54c0-1.6-.86-4.2-3.62-5.58Z"/></svg>
