<svg xmlns="http://www.w3.org/2000/svg" viewBox="0 0 48 48"><title>Melding omgevallen boom</title><path d="m12.2 35.47.3 6.53H6l.5-9.5 1.5-2 1.5 1 1-2L12 31l.13 2.84 1.93-.91.64 1.36-2.49 1.17ZM28 18.5v-11c0-.83.67-1.5 1.5-1.5h11.01c.83 0 1.5.67 1.5 1.5v11c0 .83-.67 1.5-1.5 1.5h-1.5v3.95L34.98 20h-5.46c-.83 0-1.5-.67-1.5-1.5Zm6-4.5h2V9h-2v5Zm.07 2.01c0 .29.09.53.28.72.18.19.43.28.72.28s.54-.09.72-.28c.18-.19.28-.43.28-.72s-.09-.53-.28-.72c-.18-.19-.43-.28-.72-.28s-.54.09-.72.28c-.19.19-.28.43-.28.72ZM42 40.47v1.54h-7v-2h-3.91l2-2-1.7-1.7-3.7 3.7H20v2h-6c0-4.38 2.28-6.66 4.07-7.58.07-.53.23-1.07.42-1.62L10 25.69l2.5-1-.5-2 2-1.5 7.92 7.22c.41-.26.83-.5 1.28-.69 2.36-1 4.25-1 6.6 0 .2.08.47.22.73.34 2.14-.8 4.61-.3 6.26 1.35 1.39 1.39 1.96 3.51 1.59 5.48 2.76 1.38 3.62 3.98 3.62 5.58Z"/></svg>
