<svg xmlns="http://www.w3.org/2000/svg" viewBox="0 0 48 48"><title>Melding openbare ruimte</title><path d="M34 24c-3.31 0-6 2.69-6 6 0 .28.03.56.06.83 0 .05.02.1.02.16.02.14.05.28.09.42C29.12 35.97 34 42 34 42s4.87-6.03 5.83-10.59l.09-.42c0-.05.02-.1.02-.16.04-.27.06-.55.06-.83 0-3.31-2.69-6-6-6Zm0 9c-1.66 0-3-1.34-3-3s1.34-3 3-3 3 1.34 3 3-1.34 3-3 3ZM33 9.01c0-1.66-1.34-3-3-3H11c-1.66 0-3 1.34-3 3l.04 18.02A2.97 2.97 0 0 0 11.01 30H12v6l6-6h6.99c0-4.61 3.53-8.41 8.01-8.94V9.01ZM21.58 23.58c-.28.28-.64.42-1.08.42s-.8-.14-1.08-.42c-.28-.28-.42-.64-.42-1.08s.14-.8.42-1.08c.28-.28.64-.42 1.08-.42s.8.14 1.08.42c.28.28.42.64.42 1.08s-.14.8-.42 1.08ZM22 19h-3v-7h3v7Z"/></svg>
