<svg xmlns="http://www.w3.org/2000/svg" viewBox="0 0 48 48"><title>Milieuzone</title><path d="M37.9 6h-5.8L28 10.1v5.8l4.1 4.1h5.8l4.1-4.1v-5.8L37.9 6ZM34 9h2v5h-2V9Zm1.84 7.48c-.19.19-.43.28-.72.28s-.54-.09-.72-.28c-.19-.19-.28-.43-.28-.72s.09-.53.28-.72c.19-.19.43-.28.72-.28s.54.09.72.28c.19.19.28.43.28.72s-.09.53-.28.72ZM23.48 39c-.83 0-1.5.67-1.5 1.5s.67 1.5 1.5 1.5 1.5-.67 1.5-1.5-.67-1.5-1.5-1.5Zm4.49-15.13c-.24-.55-.78-.91-1.38-.91h-4.6v-7H6v3h13v15H6v6h13.03c.24-2.26 2.13-4.03 4.45-4.03s4.21 1.77 4.45 4.03h1.57c.82 0 1.49-.67 1.49-1.49v-8.56l-3.02-6.04Zm.02 7.09h-6v-5h3.96l2.04 4v1Z"/></svg>
