<svg xmlns="http://www.w3.org/2000/svg" viewBox="0 0 48 48"><title>Monitor sociaal</title><path d="M17.97 9.53c0-1.93 1.57-3.5 3.5-3.5s3.5 1.57 3.5 3.5-1.57 3.5-3.5 3.5-3.5-1.57-3.5-3.5Zm14.53 3.54c1.93 0 3.5-1.57 3.5-3.5s-1.57-3.5-3.5-3.5S29 7.64 29 9.57s1.57 3.5 3.5 3.5Zm-5.53 3.94Zm12.02 1c0-1.66-1.34-3-3-3l-18-.03c-1.66 0-3 1.35-3 3.01v8.02h15c1.1 0 2 .9 2 2v6h-2v8h5v-.05c.96 0 1 .03 1 .03L35.96 29h3.03V18Zm-8.48 2.51c0-1.94-1.57-3.51-3.51-3.51h-.03c-1.93.02-3.49 1.58-3.49 3.51s1.57 3.51 3.51 3.51 3.51-1.57 3.51-3.51Zm-7.04 8.49H10.5c-.83 0-1.51.67-1.51 1.51v9.99c.01.83.69 1.51 1.52 1.51h12.97c.83 0 1.51-.67 1.51-1.51v-9.99a1.53 1.53 0 0 0-1.52-1.51Zm-9.48 6h-2v4h2v-4Zm4.02 4-.02-7h-2.01l.01 7h2.02Zm3.98-3h-2v3h2v-3Z"/></svg>
