<svg xmlns="http://www.w3.org/2000/svg" viewBox="0 0 48 48"><title>Monitor duurzaamheid</title><path d="M25 18.23v-2.04c.44.03.97-.1 1.07.6.06.47-.53 1.19-1.07 1.44Zm0-6.28c1.02-.46 2.12-.75 3.29-.83l-.29.07c-1.04.57-1.1 2.16-.65 3.25.08.19.42.39.64.38 1.51-.06 3.02-.13 4.52-.28.7-.07 1.25.08 1.7.62.27.32.5.7.82.97 1.01.85 1.02 1.81.59 3.02-.64 1.81-.94 2.13-2.78 2.14-1.42 0-2.34 1.26-1.99 2.73.2.84.08 1.58-.48 2.24-.38.45-.76.91-1.1 1.39-.07.1-.14.16-.2.22l-1.26-.42c-.33-.3-.68-.58-1.02-.86-.6-.49-.99-1.12-.89-1.93.21-1.72-.3-3.22-1.1-4.65a3.04 3.04 0 0 1-2.81 1.9h-5.82c.06.73.16 1.45.34 2.14l-.05-.02c.29 1.16.74 2.26 1.32 3.28l1.65-.25.67-.1.65.2 6.14 1.85c3.06.87 4.47 2.94 5 4.54 2.01-.45 3.86-1.36 5.4-2.62l-.06-.02c2.92-2.37 4.8-5.98 4.8-10.04 0-7.15-5.8-12.96-12.96-12.96-1.41 0-2.76.23-4.03.65v3.37ZM6 40h5V30H6v10Zm29.98-3.56-10 .93-4.76-1.21.78-2.24 3.94 1.01h3.18s-.22-2.22-3.1-3.03l-6.16-1.86-5.84.88v8l11.96 3 14.1-3.08s0-2.4-4.1-2.4ZM20.48 6H7.51C6.68 6 6 6.67 6 7.51v9.99c.01.83.69 1.51 1.52 1.51h12.97c.83 0 1.51-.67 1.51-1.51V7.51A1.53 1.53 0 0 0 20.48 6ZM11 16H9v-4h2v4Zm2 0V9h2l.02 7H13Zm6 0h-2v-3h2v3Z"/></svg>
