<svg xmlns="http://www.w3.org/2000/svg" viewBox="0 0 48 48"><title>Monitor agrofood</title><path d="M7.52 19h12.97c.83 0 1.51-.67 1.51-1.51V7.51A1.53 1.53 0 0 0 20.48 6H7.51C6.68 6 6 6.67 6 7.51v9.99c.01.83.69 1.51 1.52 1.51ZM17 13h2v3h-2v-3Zm-2-4 .02 7H13V9h2Zm-6 3h2v4H9v-4Zm24.74 16.61c-4.64 0-8.27 2.93-8.27 6.68s3.63 6.68 8.27 6.68 8.27-2.93 8.27-6.68-3.63-6.68-8.27-6.68ZM25 11.56l1.95 1.15c.59-.34 1.23-.6 1.9-.78l.7-2.81c.45-.06 2.34-.06 2.79 0l.7 2.81c.67.18 1.31.44 1.9.78l2.46-1.47.02.02s1.42 1.28 1.92 1.92l-1.49 2.48c.35.6.62 1.24.8 1.93l2.81.7c.06.45.1.9.1 1.37s-.04.92-.1 1.37l-1.03.26-1.73.44c-.18.68-.45 1.33-.8 1.93l1.49 2.48c-.37.47-.78.9-1.22 1.31-.95-.37-1.98-.63-3.07-.75l-.16-.09-.12.06a12.317 12.317 0 0 0-4.16.33c-.23-1.01-.59-1.94-1.04-2.79.42.13.86.22 1.33.22 2.62-.02 4.74-2.15 4.74-4.77s-2.12-4.75-4.74-4.77a4.776 4.776 0 0 0-4.74 4.77c0 .31.03.61.09.91-.53-.34-1.1-.62-1.69-.85.24-.52.39-1.09.39-1.69v-6.46Zm-1.53 23.71c0 1.75.59 3.37 1.61 4.72-.89 1.11-1.91 2.02-3.15 1.98-1.67-.07-2.31-1.09-4.33-1.09-1.86 0-2.5.91-3.96 1.04-.15.03-.31.05-.48.05-1.74.07-3.06-1.76-4.17-3.38-2.27-3.32-4-9.38-1.68-13.47.84-1.53 2.69-3.1 5.69-3.1h-1.76l10.8.04c2.28.07 4.64 1.06 5.74 3.07.45.79.75 1.66.92 2.56-3.14 1.47-5.23 4.28-5.23 7.59Z"/></svg>
