<svg xmlns="http://www.w3.org/2000/svg" viewBox="0 0 48 48"><title>Monitor woningmarkt</title><path d="M22.01 17.52V7.55c-.01-.83-.69-1.5-1.53-1.5H7.51c-.83 0-1.51.67-1.51 1.5v9.97c.01.83.69 1.5 1.53 1.5h12.98c.83 0 1.51-.67 1.51-1.5Zm-11-1.5h-2v-4h2v4Zm2 0V9.01h1.98l.02 7.01h-2Zm6 0h-2v-3h2v3Z"/><path d="m41.82 32.68-8.86-6.66.03-10.95a2.49 2.49 0 0 1-1.49-2.28c0-1.38 1.11-2.49 2.49-2.49s2.49 1.11 2.49 2.49c0 1.02-.61 1.89-1.49 2.28v6.37c2.92-1.2 4.98-4.06 4.98-7.41a8.02 8.02 0 0 0-8.02-8.02c-2.96 0-5.54 1.61-6.93 4v8.01c0 2.2-1.79 3.99-3.99 3.99h-8.24l-2.78 1.65v3.74l3.74 1.6 2.19-1.35v-1.53l1.22-.89 1.64.66 3.16-1.95v-1.51l1.22-.89 1.62.65 2.55-1.57a8.36 8.36 0 0 0 3.64 1.39v4l-8.86 6.9 1.82 2.38 1.03-.8v7.52h13.99l-.02-7.56 1.04.81 1.81-2.57Zm-12.31-1.66h-.09l.09-.07v.07Zm4.48 5.97h-4v-3h4v3Z"/></svg>
