<svg xmlns="http://www.w3.org/2000/svg" viewBox="0 0 48 48"><title>Monitor sociaal</title><path d="M29 9.57c0-1.93 1.57-3.5 3.5-3.5S36 7.64 36 9.57s-1.57 3.5-3.5 3.5S29 11.5 29 9.57Zm-7.53 3.46c1.93 0 3.5-1.57 3.5-3.5s-1.57-3.5-3.5-3.5-3.5 1.57-3.5 3.5 1.57 3.5 3.5 3.5Zm3.52 17.48v9.99c.01.83-.66 1.51-1.49 1.51H10.52c-.83 0-1.51-.67-1.51-1.51v-9.99C9 29.68 9.67 29 10.5 29h12.97c.83 0 1.51.67 1.51 1.51ZM14 35h-2v4h2v-4Zm4.02 4L18 32h-2.01v7h2.03ZM22 36h-2v3h2v-3Zm17-7h-3.03L36 41.99s-.04-.02-1-.03v.05h-5v-8h2v-6c0-1.1-.9-2-2-2H15v-8.02c0-1.66 1.34-3.01 3-3.01l6.4.03c1.66 0 2.58 1.35 2.58 3.01 0-1.66 1.34-3.01 3-3.01H36c1.66 0 3 1.34 3 3v11Zm-9-6.97c0-1.66-1.34-3-3-3s-3 1.34-3 3 1.34 3 3 3 3-1.34 3-3Z"/></svg>
