<svg xmlns="http://www.w3.org/2000/svg" viewBox="0 0 48 48"><title>Natuur landschap</title><path d="M23.66 23.38c-.18-.24-.37-.46-.59-.65.29-.03.57-.09.86-.18a4.161 4.161 0 0 0 2.67-5.23 4.15 4.15 0 0 0-3.95-2.87c-.43 0-.86.07-1.28.2-.28.09-.55.21-.8.36a4.153 4.153 0 0 0-4.06-5.02 4.153 4.153 0 0 0-4.06 5.02 4.44 4.44 0 0 0-.8-.36 4.162 4.162 0 0 0-5.23 2.67 4.145 4.145 0 0 0 3.53 5.41c-.21.19-.41.41-.59.65a4.146 4.146 0 0 0 .92 5.8c.74.54 1.59.79 2.44.79 1.28 0 2.55-.59 3.36-1.71.18-.24.32-.5.44-.76.12.26.26.52.44.76a4.137 4.137 0 0 0 3.36 1.71 4.146 4.146 0 0 0 3.36-6.59Zm-7.14.61c-1.92 0-3.47-1.55-3.47-3.47s1.55-3.47 3.47-3.47 3.47 1.55 3.47 3.47-1.55 3.47-3.47 3.47Zm25.5 17.98-3.29-.02c-.51-1.09-1.14-2.14-1.86-3.12a17.565 17.565 0 0 0-5.22-4.9 16.237 16.237 0 0 0-7.18-2.34s.01 0 .02-.01a7.09 7.09 0 0 0 2.85-4.65c.06-.35.08-.7.08-1.05 2.22-.12 4.33-.02 6.54.33v-3.25h-5.02l3.92-5.66h-2.61l3.48-5.66h-1.74l3.48-5.66 3.48 5.66h-1.74l3.48 5.66h-2.61L42 22.96h-5.02v3.91c1.72.45 3.4 1.03 5.05 1.77L42 31.81c-1.5-.67-3.86-1.56-5.53-2l-2.95-.64c-1.79-.29-3.83-.36-5.81-.29 1.92.47 3.76 1.22 5.5 2.25 3.59 2.12 7.29 6.34 8.8 10.84Zm-24-9.42.06 9.43-3-.03c-5.08-.43-9.13-4.74-9.13-9.93 4.05 0 7.54 2.45 9.07 5.94v-5.43c.52-.18 1.02-.4 1.49-.69.47.3.98.52 1.51.7Z"/></svg>
