<svg xmlns="http://www.w3.org/2000/svg" viewBox="0 0 48 48"><title>Omgevingsvergunning</title><path d="m24.19 31.44-.03-.18c-.06-.46-.09-.86-.09-1.25 0-4.98 4.05-9.03 9.03-9.03.63 0 1.83.2 1.83.2l.03-13.19c0-1.09-.88-1.98-1.98-1.98H10.99c-1.11 0-2 .9-2 2.01V30H19c1.1 0 1.99.89 1.99 1.99v9.97l8.19.06c-1.78-2.61-4.13-6.51-4.85-9.92-.05-.2-.09-.4-.13-.66Zm-3.59-6.47-5.31-5.31 2.13-2.11 3.2 3.18 6.36-6.36 2.12 2.11-8.49 8.49ZM9.99 33h7.99l-.05 7.95L9.98 33ZM33 23.98c-3.31 0-6 2.69-6 6 0 .28.03.56.06.83 0 .05.02.1.02.16.02.14.05.28.09.42.95 4.56 5.83 10.59 5.83 10.59s4.87-6.03 5.83-10.59l.09-.42c0-.05.02-.1.02-.16.04-.27.06-.55.06-.83 0-3.31-2.69-6-6-6Zm0 9c-1.66 0-3-1.34-3-3s1.34-3 3-3 3 1.34 3 3-1.34 3-3 3Z"/></svg>
