<svg xmlns="http://www.w3.org/2000/svg" viewBox="0 0 48 48"><title>Omgevingsvisie document</title><path d="M6.99 33h7.99l-.05 7.95L6.98 33Zm16.38 5.91.63.85v2.21l-6.02-.02v-9.97c0-1.1-.89-1.99-1.99-1.99H5.98V8a2 2 0 0 1 2-2h22.01c1.09 0 1.98.89 1.98 1.98l-.02 17.21-.71.52-9.01 6.59-2.43 1.78 1.79 2.43 1.78 2.41ZM18.97 28s4.87-6.03 5.83-10.59l.09-.42c0-.05.02-.1.02-.16.04-.27.06-.55.06-.83 0-3.31-2.69-6-6-6s-6 2.69-6 6c0 .28.03.56.06.83 0 .05.02.1.02.16.02.14.05.28.09.42.95 4.56 5.83 10.59 5.83 10.59Zm0-15c-1.66 0-3 1.34-3 3s1.34 3 3 3 3-1.34 3-3-1.34-3-3-3Zm23.04 21.62-1.81 2.44-1.21-.89V42h-12v-5.76l-1.21.89L24 34.72l9.01-6.59 2.97 2.16V29h3.01v3.45l3.02 2.16Zm-7.02.38h-4v3h4v-3Z"/></svg>
