<svg xmlns="http://www.w3.org/2000/svg" viewBox="0 0 48 48"><title>Omgeving</title><path d="M20 29.05h-2v-9.19c0-1.55 1.31-2.81 2.98-2.81h6.04c1.56 0 2.83 1.11 2.99 2.53v9.47h-2V33a55.312 55.312 0 0 1-8 .01v-3.95ZM32.01 26v3c4.86.82 6.67 2.07 6.67 3.2 0 1.47-4.85 3.85-14.68 3.85S9.19 33.78 9.19 32.18c0-1.17 2.13-2.33 6.76-3.13v-2.99C9.8 27.15 6 29.38 6 32.19c0 4.48 9.1 6.82 18 6.82s17.98-2.34 17.98-6.82c0-2.87-3.6-5.13-9.97-6.2ZM24 15c1.93 0 3.5-1.57 3.5-3.5S25.93 8 24 8s-3.5 1.57-3.5 3.5S22.07 15 24 15Z"/></svg>
