<svg xmlns="http://www.w3.org/2000/svg" viewBox="0 0 48 48"><title>Omgeving</title><path d="M20 30.04h-2V19.81c0-1.55 1.31-2.81 2.98-2.81h6.04c1.56 0 2.83 1.11 2.99 2.53v10.51h-2v3.95a55.312 55.312 0 0 1-8 .01v-3.95Zm4-15.09c1.93 0 3.5-1.57 3.5-3.5s-1.57-3.5-3.5-3.5-3.5 1.57-3.5 3.5 1.57 3.5 3.5 3.5Zm8.01 12.04v3c4.86.82 6.67 2.07 6.67 3.2 0 1.47-4.85 3.85-14.68 3.85S9.19 34.77 9.19 33.17c0-1.17 2.13-2.33 6.76-3.13v-2.99C9.8 28.14 6 30.37 6 33.18 6 37.66 15.1 40 24 40s17.98-2.34 17.98-6.82c0-2.87-3.6-5.13-9.97-6.2Z"/></svg>
