<svg xmlns="http://www.w3.org/2000/svg" viewBox="0 0 48 48"><title>Onderhoud</title><path d="M20.07 13c0-3.87-3.13-7-7-7s-7 3.13-7 7 3.13 7 7 7 7-3.13 7-7Zm-6.28 3.72c-.19.19-.43.28-.72.28s-.54-.09-.72-.28c-.19-.19-.28-.43-.28-.72s.09-.53.28-.72c.19-.19.43-.28.72-.28s.54.09.72.28c.19.19.28.43.28.72s-.09.53-.28.72ZM14 14h-2V9h2v5Zm24.21 22.07L31.67 11h-6.35l-6.54 25.07a4.487 4.487 0 0 0-3.75 4.43v1.49H42v-1.51c0-2.24-1.65-4.08-3.8-4.42ZM27.64 14h1.72l2.09 8.01h-5.9L27.64 14Zm-4.95 18.99 1.37-5.27h8.87l1.37 5.27H22.68Z"/></svg>
