<svg xmlns="http://www.w3.org/2000/svg" viewBox="0 0 48 48"><title>Onderwijs</title><path d="M17 33c-1.66 0-3-1.34-3-3s1.34-3 3-3 3 1.34 3 3-1.34 3-3 3Zm2 9Zm-5.01-7c0-1.65-1.35-3-3-3s-3 1.35-3 3 1.35 3 3 3 3-1.35 3-3ZM29 42ZM42 8v14c0 1.1-.9 2-2 2H20v-3.04h7v-3H14.86c-1.61.1-2.84 1.37-2.84 3.01V24H8c-1.1 0-2-.9-2-2V8a2 2 0 0 1 2-2h32c1.1 0 2 .9 2 2Zm-22 4.97c0-1.65-1.35-3-3-3s-3 1.35-3 3 1.35 3 3 3 3-1.35 3-3Zm-7 26.04H9c-1.66 0-3 1.34-3 3h10c0-1.66-1.35-3-3-3Zm-7 3Zm10 0Zm16 0Zm7-3h-3.99c-1.66 0-3 1.34-3 3h10c0-1.66-1.35-3-3-3Zm3 3Zm-15.01-7c0-1.65-1.35-3-3-3s-3 1.35-3 3 1.35 3 3 3 3-1.35 3-3Zm-1 4H22c-1.66 0-3 1.34-3 3h10c0-1.66-1.35-3-3-3Zm11-1c1.65 0 3-1.35 3-3s-1.35-3-3-3-3 1.35-3 3 1.35 3 3 3Zm-2.99-8c0-1.66-1.34-3-3-3s-3 1.34-3 3 1.34 3 3 3 3-1.34 3-3Z"/></svg>
