<svg xmlns="http://www.w3.org/2000/svg" viewBox="0 0 48 48"><title>Onderwijs</title><path d="M17.46 32.02c-1.66 0-3-1.34-3-3s1.34-3 3-3 3 1.34 3 3-1.34 3-3 3ZM16 17c1.65 0 3-1.35 3-3s-1.35-3-3-3-3 1.35-3 3 1.35 3 3 3ZM8 34.97c0 1.65 1.35 3 3 3s3-1.35 3-3-1.35-3-3-3-3 1.35-3 3Zm8.01 7Zm-4.99-20.96V24H19v-3h6v-3h-9.01v.03l-.03-.03h-2.11c-1.61.1-2.84 1.37-2.84 3.01ZM6.01 41.97Zm23 0Zm-16-3h-4c-1.66 0-3 1.34-3 3h10c0-1.66-1.35-3-3-3Zm23.99-1c1.65 0 3-1.35 3-3s-1.35-3-3-3-3 1.35-3 3 1.35 3 3 3Zm5.01 4Zm-3-3h-3.99c-1.66 0-3 1.34-3 3h10c0-1.66-1.35-3-3-3Zm-7 3ZM6 6v18h3V9h30v12H27v3h15V6H6Zm20.99 28.97c0-1.65-1.35-3-3-3s-3 1.35-3 3 1.35 3 3 3 3-1.35 3-3Zm-1 4H22c-1.66 0-3 1.34-3 3h10c0-1.66-1.35-3-3-3Zm8.51-10c0-1.66-1.34-3-3-3s-3 1.34-3 3 1.34 3 3 3 3-1.34 3-3ZM18.99 41.98Z"/></svg>
