<svg xmlns="http://www.w3.org/2000/svg" viewBox="0 0 48 48"><title>Ondernemen</title><path d="M16.62 29.46v2.44c.01.74-.58 1.34-1.31 1.34h-.43a1.333 1.333 0 0 1-1.33-1.33v-2.46c0-.73.6-1.32 1.31-1.32h.43a1.333 1.333 0 0 1 1.33 1.33Zm-5.82-3.67h-.52c-.71 0-1.28.58-1.28 1.3v2.79c0 .71.58 1.3 1.28 1.3h.52c.7 0 1.28-.58 1.28-1.29V27.1c0-.71-.57-1.3-1.28-1.3Zm9.03 5.2h-.36c-.37 0-.71.15-.96.41-.26.26-.4.61-.4.97V35c.01.76.62 1.37 1.38 1.37h.36c.36 0 .71-.15.96-.41.09-.09.14-.18.2-.3l.04-.07c.1-.21.15-.4.14-.6v-2.63a1.38 1.38 0 0 0-1.38-1.37Zm20.09-4.16-4.91-3 .02-.03c-.12-.05-.22-.11-.32-.16l-6.55-3.72c-.58-.33-1.08-.79-1.46-1.34l-1.39-2.02-5.45 1.61c-1.9.52-3.92-.29-4.93-1.98l-.8-1.55c-.32-.62-.08-1.4.53-1.74l2.68-1.45-4.23.41c-.74.07-1.51-.06-2.2-.36L6 9l.03 14.94 1.08 1.02c.62-.97 1.66-1.56 2.8-1.56h.72a3.34 3.34 0 0 1 3.22 2.48c.31-.09.62-.14.93-.14h.43c.91 0 1.76.35 2.4.99.54.54.87 1.24.97 1.99.29-.08.59-.12.88-.13h.71c1.89 0 3.43 1.54 3.44 3.44v2.96c0 .17 0 .56-.02.72l4.95 3.02c.41.25.89.32 1.37.21.47-.12.86-.41 1.11-.83.25-.45.32-.92.21-1.38-.1-.42-.35-.78-.72-1.04l-4.5-2.75c-.61-.37-.8-1.17-.43-1.78.18-.3.46-.51.8-.59.34-.08.68-.03.97.15l4.32 2.64s.02 0 .07.03c.03.02.06.04.09.07l1.7 1.05c.41.25.9.32 1.37.21.47-.12.86-.41 1.11-.83.25-.45.32-.92.21-1.38a1.83 1.83 0 0 0-.79-1.1l-5.14-3.14-1.08-.67c-.61-.37-.8-1.17-.43-1.78.18-.3.46-.5.79-.59.33-.08.68-.03.97.15l7.52 4.6c.84.51 1.94.25 2.46-.6a1.833 1.833 0 0 0-.6-2.53ZM36.21 12.7c-1.08.26-2.2.1-3.17-.45l-4.89-2.78c-.54-.31-1.19-.31-1.73-.02L17 14.56l.18.35c.38.64 1.22.96 1.99.75l6.32-1.87a1.291 1.291 0 0 1 1.42.51l1.91 2.79c.15.23.36.42.6.55l6.55 3.72c.4.23.87.29 1.33.18l4.71-1.73v-8.85l-5.79 1.72Z"/></svg>
