<svg xmlns="http://www.w3.org/2000/svg" viewBox="0 0 48 48"><title>Ontheffing milieuzone</title><path d="M42 24.93v8.56c0 .82-.67 1.49-1.49 1.49h-1.57c-.24-2.26-2.13-4.03-4.45-4.03s-4.21 1.77-4.45 4.03H17.01c-.24-2.26-2.13-4.03-4.45-4.03s-4.21 1.77-4.45 4.03h-.6c-.83 0-1.5-.67-1.5-1.5v-22.5h27v7h4.94c.6 0 1.15.36 1.38.91l2.68 6.04ZM30 13.97H9v15h21V13.98Zm8.65 11-1.69-4H33v4h5.65Zm-24.6 10.54c0 .83-.67 1.5-1.5 1.5s-1.5-.67-1.5-1.5.67-1.5 1.5-1.5 1.5.67 1.5 1.5Zm21.93 0c0 .83-.67 1.5-1.5 1.5s-1.5-.67-1.5-1.5.67-1.5 1.5-1.5 1.5.67 1.5 1.5ZM18.36 22.07l6.36-6.36 2.12 2.11-8.49 8.49L13.04 21l2.13-2.12 3.2 3.18Z"/></svg>
