<svg xmlns="http://www.w3.org/2000/svg" viewBox="0 0 48 48"><title>Ontheffing milieuzone</title><path d="M24.99 40.5c0 .83-.67 1.5-1.5 1.5s-1.5-.67-1.5-1.5.67-1.5 1.5-1.5 1.5.67 1.5 1.5ZM31 29.91v8.56c0 .82-.67 1.49-1.49 1.49h-1.57c-.24-2.26-2.13-4.03-4.45-4.03s-4.21 1.77-4.45 4.03H5v-6h14.01v-15H4.99v-3H22v7h4.6c.6 0 1.15.36 1.38.91L31 29.91Zm-3 .04-2.04-4H22v5h6v-1Zm14-16.96c0 3.86-3.14 7-7 7s-7-3.14-7-7 3.14-7 7-7 7 3.14 7 7Zm-3.27-1.66-1.4-1.4-3.61 3.61-1.54-1.53-1.41 1.4 2.93 2.93 5.02-5.02Z"/></svg>
