<svg xmlns="http://www.w3.org/2000/svg" viewBox="0 0 48 48"><title>Overlijden</title><path d="m15 31.11.03 7.89-1.99-.02c-3.95-.33-7.11-3.66-7.11-7.66 3.16 0 5.87 1.89 7.06 4.59v-4.79c.35-.14.69-.3 1-.51.31.21.65.37 1 .51Zm27 .63V33H20v-1.25c0-.71.28-1.34.71-1.85.06-.06.11-.13.17-.19.32-.31.7-.56 1.13-.72v-4.22c1.65-1.32 2.41-3.57 1.72-5.7-.33-1-.94-1.85-1.72-2.47v-4.11c0-.83.67-1.5 1.5-1.5h1.91c1.54-1.25 3.5-2 5.64-2s4.1.75 5.64 2h1.81c.83 0 1.5.67 1.5 1.5V29c1.09.44 2 1.49 2 2.74ZM34 21h-6v2h6v-2Zm1-4h-8v2h8v-2Zm-21.02-3c-1.78 0-3.23 1.44-3.23 3.23 0 .23.03.46.07.68a3.17 3.17 0 0 0-1.62-.44c-1.36 0-2.62.87-3.07 2.23a3.226 3.226 0 0 0 2.74 4.2 3.23 3.23 0 0 0 .25 5.02 3.209 3.209 0 0 0 4.84-1.3 3.222 3.222 0 0 0 2.95 1.92c.66 0 1.32-.2 1.89-.62a3.23 3.23 0 0 0 .25-5.02 3.226 3.226 0 0 0 2.74-4.2 3.232 3.232 0 0 0-4.07-2.07c-.22.07-.43.17-.62.28.05-.22.07-.45.07-.68 0-1.78-1.44-3.23-3.23-3.23m0 10.89c-1.49 0-2.7-1.21-2.7-2.7s1.21-2.7 2.7-2.7 2.7 1.21 2.7 2.7-1.21 2.7-2.7 2.7"/></svg>
