<svg xmlns="http://www.w3.org/2000/svg" viewBox="0 0 48 48"><title>Overlijden</title><path d="M19.54 23.44c-.14-.19-.29-.36-.46-.51a3.226 3.226 0 0 0 2.74-4.2 3.232 3.232 0 0 0-4.07-2.07c-.22.07-.43.17-.62.28.05-.22.07-.45.07-.68 0-1.78-1.44-3.23-3.23-3.23s-3.23 1.44-3.23 3.23c0 .23.03.46.07.68a3.17 3.17 0 0 0-1.62-.44c-1.36 0-2.62.87-3.07 2.23a3.226 3.226 0 0 0 2.74 4.2 3.23 3.23 0 0 0 .25 5.02 3.172 3.172 0 0 0 3.86-.07v7.06a7.717 7.717 0 0 0-7.06-4.59c0 4 3.16 7.34 7.11 7.66l1.99.02-.03-10.12c.56.42 1.24.65 1.93.65s1.32-.2 1.89-.62a3.23 3.23 0 0 0 .71-4.51Zm-5.55.48c-1.49 0-2.7-1.21-2.7-2.7s1.21-2.7 2.7-2.7 2.7 1.21 2.7 2.7-1.21 2.7-2.7 2.7ZM42 30.78v1.26H20v-1.29c.21-.12.41-.23.6-.37.85-.62 1.51-1.42 1.96-2.34h17.43c1.09.44 2 1.49 2 2.74ZM24.7 17.81c.76 2.34.05 4.82-1.62 6.42.11.59.11 1.2.04 1.81H40v-13.8c-2.81-1.47-5.88-2.26-9-2.26s-6.19.78-9 2.26v2.17c1.25.76 2.22 1.94 2.7 3.4Zm9.3 3.23h-6v-2h6v2Zm-7-6h8v2h-8v-2Z"/></svg>
