<svg xmlns="http://www.w3.org/2000/svg" viewBox="0 0 48 48"><title>Parkeren bedrijven</title><path d="M21.46 12.01h-6.44v17.98h2.96v-6.01h3.48c3.04 0 5.52-2.68 5.52-5.98s-2.48-5.98-5.52-5.98Zm-.03 8.97h-3.41v-5.97h3.41c1.41 0 2.56 1.34 2.56 2.99s-1.15 2.99-2.56 2.99ZM21 36H10.5C8.02 36 6 33.98 6 31.5v-21C6 8.02 8.02 6 10.5 6h21c2.48 0 4.5 2.02 4.5 4.5V25h-3V10.5c0-.83-.67-1.5-1.5-1.5h-21C9.67 9 9 9.67 9 10.5v21c0 .83.67 1.5 1.5 1.5H21v3Zm9.54-9c-.85 0-1.54.67-1.54 1.5v1.51h-3.5c-.83 0-1.5.67-1.5 1.5v9.01c0 .83.67 1.5 1.5 1.5h15.01c.83 0 1.5-.67 1.5-1.5v-9.01c0-.83-.67-1.5-1.5-1.5h-3.5v-1.54c0-.81-.67-1.46-1.5-1.46h-4.96Zm.46 3v-1h4v1h-4Z"/></svg>
