<svg xmlns="http://www.w3.org/2000/svg" viewBox="0 0 48 48"><title>Parkeervergunning</title><path d="M27 29h7v2h-7zM18.3 19H14v12h2v-4h2.3c2.04 0 3.7-1.79 3.7-4s-1.66-4-3.7-4Zm-.02 6H16v-4h2.28c.95 0 1.72.9 1.72 2s-.77 2-1.72 2ZM27 24h9v2h-9z"/><path d="M37.07 11H10.93C8.21 11 6 13.21 6 15.93v16.15c0 2.72 2.21 4.93 4.93 4.93h26.15c2.72 0 4.93-2.21 4.93-4.93V15.93c0-2.72-2.21-4.93-4.93-4.93ZM39 32.07c0 1.06-.86 1.93-1.93 1.93H10.93C9.87 34 9 33.14 9 32.07V15.93c0-1.06.86-1.93 1.93-1.93H22v3h4v-3h11.07c1.06 0 1.93.86 1.93 1.93v16.15Z"/><path d="M27 19h9v2h-9z"/></svg>
