<svg xmlns="http://www.w3.org/2000/svg" viewBox="0 0 48 48"><title>Parkeervoorziening gehandicapten</title><path d="M26 17.51c0-.83.67-1.51 1.51-1.51s1.51.67 1.51 1.51-.67 1.51-1.51 1.51S26 18.35 26 17.51ZM19.83 21H18v4h-3V12h4.83c2.3 0 4.17 2.02 4.17 4.5S22.13 21 19.83 21Zm1.15-4.5c0-.83-.56-1.5-1.25-1.5h-1.72v3h1.72c.69 0 1.25-.67 1.25-1.5ZM31.4 24H29v-2.5c0-.83-.67-1.51-1.5-1.51s-1.5.67-1.5 1.51v2.99c0 .83.68 1.51 1.51 1.51H31v4h2v-4.4c0-.88-.72-1.6-1.6-1.6ZM39 10.5v21c0 2.49-2.01 4.5-4.5 4.5H26v6h-4v-6h-8.5A4.5 4.5 0 0 1 9 31.5v-21C9 8.01 11.01 6 13.5 6h21c2.49 0 4.5 2.01 4.5 4.5Zm-3 0c0-.83-.67-1.5-1.5-1.5h-21c-.83 0-1.5.67-1.5 1.5v21c0 .83.67 1.5 1.5 1.5h21c.83 0 1.5-.67 1.5-1.5v-21ZM23.57 26.86c-.32-1.24.38-2.36 1.43-2.74v-1.56c-2.29.46-3.83 3.01-2.55 5.57.3.61.81 1.12 1.42 1.42 2.57 1.27 5.11-.26 5.57-2.55h-1.56c-.37 1.06-1.52 1.76-2.77 1.42-.74-.2-1.34-.82-1.54-1.56Z"/></svg>
