<svg xmlns="http://www.w3.org/2000/svg" viewBox="0 0 48 48"><title>Parkeer plattegrond</title><path d="M22 15.99V12h1.28c.95 0 1.72.9 1.72 2s-.77 2-1.72 2H22Zm-7.09-.67c-.06-.42-.08-.78-.08-1.13 0-4.51 3.67-8.17 8.17-8.17s8.17 3.67 8.17 8.17c0 .35-.03.71-.09 1.13l-.02.14c-.04.27-.08.46-.13.65-1.11 5.32-6.54 12.08-6.77 12.37l-1.17 1.44-1.17-1.44c-.23-.29-5.66-7.05-6.78-12.41-.04-.15-.07-.34-.11-.53l-.03-.22ZM20 19.99h2v-2h1.3c2.04 0 3.7-1.79 3.7-4s-1.66-4-3.7-4H20v10Zm11.45 1c-.5 1.04-1.05 2.05-1.61 3h6.68l-3.51 9h-9.78l-.06.07-.06-.07H9.5l3.51-9h3.5c-.56-.95-1.12-1.96-1.61-3h-3.87l-6.04 15h30.02l6.03-15h-9.59Z"/></svg>
