<svg xmlns="http://www.w3.org/2000/svg" id="ICONEN" viewBox="0 0 48 48"><title>Parkeren bedrijven</title><defs><style>.cls-1{stroke-width:0}</style></defs><path d="M21.46 12.01h-6.44v17.98h2.96v-6.01h3.48c3.04 0 5.52-2.68 5.52-5.98s-2.48-5.98-5.52-5.98Zm-.03 8.97h-3.41v-5.97h3.41c1.41 0 2.56 1.34 2.56 2.99s-1.15 2.99-2.56 2.99ZM22 36H10.5C8.02 36 6 33.98 6 31.5v-21C6 8.02 8.02 6 10.5 6h21c2.48 0 4.5 2.02 4.5 4.5V23h-3V10.5c0-.83-.67-1.5-1.5-1.5h-21C9.67 9 9 9.67 9 10.5v21c0 .83.67 1.5 1.5 1.5H22v3Z" class="cls-1"/><path d="M39.99 29H37v-1.92c0-.57-.2-1.06-.6-1.46-.4-.41-.89-.61-1.45-.61h-3.89c-.57 0-1.05.2-1.45.61-.4.41-.6.9-.6 1.46V29H26c-.55 0-1.02.2-1.41.59-.39.39-.58.87-.58 1.43v8.94c0 .56.19 1.04.58 1.44.39.4.86.6 1.41.6h14c.55 0 1.02-.2 1.42-.6.4-.4.59-.88.59-1.44v-8.94c0-.56-.2-1.03-.59-1.43-.39-.39-.87-.59-1.42-.59ZM35 29h-4v-2h4v2Z" class="cls-1"/></svg>
