<svg xmlns="http://www.w3.org/2000/svg" viewBox="0 0 48 48"><title>Participatie checklist</title><path d="m41.04 16.78-3.82-3.82c-.64-.64-1.49-.96-2.33-.96s-1.69.32-2.33.96l-13.72 13.7-3.26 9.85c-.34 1.03.45 2.01 1.44 2.01.16 0 .32-.03.49-.08l9.84-3.29 13.68-13.71a3.308 3.308 0 0 0 0-4.66ZM25.5 32.74l-3.69 1.29-1.85-1.85 1.28-3.68 9.4-9.4 1.41 1.41-9.03 9.03 1.41 1.41 9.03-9.03 1.41 1.41-9.37 9.39Zm13.42-13.45L37 21.21l-4.24-4.24 1.92-1.91a.288.288 0 0 1 .42 0l3.82 3.82c.11.11.11.3 0 .42Zm-15.16 6.7.09.09h-.02l-.08-.07v-.02ZM11.31 16.6 6 11.29l2.13-2.12 3.2 3.18 6.36-6.36 2.12 2.11-8.49 8.49Zm0 12.83L6 24.12 8.13 22l3.2 3.18 6.36-6.36 2.12 2.11-8.49 8.49Zm3.03 9.54L11.31 42 6 36.69l2.13-2.12 3.2 3.18.9-.9c.58-.58 1.53-.58 2.11 0 .58.58.58 1.53 0 2.12Z"/></svg>
