<svg xmlns="http://www.w3.org/2000/svg" viewBox="0 0 48 48"><title>Participatie uitvoering</title><path d="m12 23.02-5-2.3 7.75-7.75 4.79 2.51L12 23.02Zm4 11.96c-1.47 1.47-3 1.7-5.18 2.22.52-2.17.74-3.7 2.23-5.19l-.74.74 3.32-3.32c-.59-.24-1.22-.38-1.89-.39-1.43-.02-2.72.54-3.63 1.46-2 2-3.08 10.5-3.08 10.5s8.5-1.07 10.5-3.08a5 5 0 0 0 1.46-3.63c-.01-.67-.16-1.3-.4-1.89l-2.6 2.58Zm9.1.86 2.18 5.15 7.75-7.75-2.52-4.81-7.41 7.41Zm-10.24-11.4 11.15-11.15c9.12-9.12 14.33-5.64 14.33-5.64s3.48 5.21-5.62 14.31L23.55 33.13l-8.68-8.68Zm13.33-4.63a2.668 2.668 0 0 0 3.77 0 2.668 2.668 0 0 0 0-3.77 2.668 2.668 0 0 0-3.77 0 2.668 2.668 0 0 0 0 3.77Z"/></svg>
