<svg xmlns="http://www.w3.org/2000/svg" viewBox="0 0 48 48"><title>Participatie like</title><path d="M8 23h7v14H8V23Zm32 1.09c0-1.15-.94-2.09-2.09-2.09H29v-3h2v-1.12c-.02-1.89-.02-2.96-.35-4.67-.55-2.85-1.74-3.21-2.4-3.21-.94 0-1.5.85-1.5 1.68v.38c0 6.46-3.44 11.82-8.74 11.95V36h.23c1.49 0 2.5.03 3.65.54l.37.16c1.41.63 3.06 1.3 5.74 1.3h7c.37 0 .53-.04.6-.13.81-.29 1.39-1.06 1.39-1.96 0-.8-.46-1.5-1.13-1.85h.04c1.15 0 2.09-.94 2.09-2.09 0-.8-.46-1.5-1.13-1.85h.04c1.15 0 2.09-.94 2.09-2.09 0-.8-.46-1.5-1.13-1.85h.04c1.15 0 2.09-.94 2.09-2.09Z"/></svg>
