<svg xmlns="http://www.w3.org/2000/svg" viewBox="0 0 48 48"><title>Paspoort belgie</title><path d="m32.99 12.01-16.48.05c-.83 0-1.5-.67-1.5-1.5S15.71 9 16.57 9h16.09c-.24-1.69-1.66-3-3.39-3H16.44c-2.46 0-4.46 2-4.46 4.46L12.03 39a3 3 0 0 0 2.99 3h17.96c1.66 0 3.01-1.35 3.01-3.01V15.02c0-1.67-1.35-3.02-3.02-3.01ZM30.01 37h-12v-2h12v2Zm1.08-10.57-.55-.22-1.09 2.42.36.57.07 1.06-1.61.43-.46-.85-2.18-1.21-.06-2.22-.89 1.07-2.68.05v-1.89l.05-.58-1.36.26-.36-1.13-.98-.09-.93-1.83-.45-.07-.54.46-1.26-.83-.27-1.65 3.49-1.8.58.47 1.67.52 1.45-1.1.91.13v-.26h3v.78l.13.1 1.15-.24 1.43.99-.75 2.18 2.57 1.22-.33.58.71.46-.81 2.22Z"/></svg>
