<svg xmlns="http://www.w3.org/2000/svg" viewBox="0 0 48 48"><title>Paspoort ID-kaart gecombineerd België</title><path d="M38.95 26H31v3h-2v-3h-7.96C19.36 26 18 27.35 18 29.01v9.97c0 1.66 1.37 3.02 3.04 3.02h17.92c1.67 0 3.03-1.35 3.03-3.01v-9.98c0-1.66-1.37-3.02-3.05-3.02Zm-12.46 4.99c.97 0 1.75.79 1.75 1.77s-.78 1.77-1.75 1.77-1.75-.79-1.75-1.77.78-1.77 1.75-1.77Zm3.5 7.01h-7v-.88c0-1.17 2.33-1.77 3.5-1.77s3.5.59 3.5 1.77V38Zm6 0h-4v-2h4v2Zm1-4h-5v-2h5v2Zm-7-18.98V23h-3.62l.1-.18-2.34-1.11-.06-.64.57-1.66-1.44-.99-1.15.24-.13-.1v-.79h-3.01v.26L18 17.9 16.55 19l-1.67-.52-.58-.47-3.5 1.8.27 1.65 1.26.83.54-.46.45.07.93 1.84.98.09.36 1.13.78-.15.08.07a5.693 5.693 0 0 0-1.47 3.82v6.27h-3v2h3v2.27c0 .99.25 1.92.69 2.73H9.01a3 3 0 0 1-2.99-3l-.05-28.54c0-2.46 1.99-4.46 4.46-4.46h12.83c1.73 0 3.15 1.31 3.39 3H10.56c-.86 0-1.56.7-1.56 1.56s.67 1.5 1.5 1.5l16.48-.05c1.67 0 3.02 1.34 3.02 3.01Z"/></svg>
