<svg xmlns="http://www.w3.org/2000/svg" viewBox="0 0 48 48"><title>Paspoort ID-kaart gecombineerd belgie</title><path d="M15 40H9.03a3 3 0 0 1-2.99-3l-.05-26.54C5.99 8 7.98 6 10.45 6h12.83c1.73 0 3.15 1.31 3.39 3H10.56C9.7 9 9 9.7 9 10.56s.67 1.5 1.5 1.5l16.48-.05c1.67 0 3.02 1.34 3.02 3.01V23h-3.62l.1-.18-2.34-1.11-.06-.64.57-1.66-1.44-.99-1.15.24-.13-.1v-.79h-3.01v.26l-.91-.13-1.45 1.1-1.67-.52-.58-.47-3.5 1.8.27 1.65 1.26.83.54-.46.45.07.93 1.84.98.09.36 1.13.78-.15.08.07a5.693 5.693 0 0 0-1.47 3.82v4.27h-4v2h4v5Zm27-10.98V39c0 1.66-1.36 3.01-3.03 3.01H21.05c-1.68 0-3.04-1.35-3.04-3.02v-9.97c0-1.66 1.36-3.01 3.04-3.01h7.96v3h2v-3h7.95c1.68 0 3.05 1.35 3.05 3.02Zm-17.26 3.74c0 .98.78 1.77 1.75 1.77s1.75-.79 1.75-1.77-.78-1.77-1.75-1.77-1.75.79-1.75 1.77ZM30 37.12c0-1.17-2.33-1.77-3.5-1.77s-3.5.59-3.5 1.77V38h7v-.88ZM36 36h-4v2h4v-2Zm1-4h-5v2h5v-2Z"/></svg>
