<svg xmlns="http://www.w3.org/2000/svg" viewBox="0 0 48 48"><title>Paspoort ID-kaart gecombineerd</title><path d="M15.75 42h-5.27c-2.46 0-4.45-1.99-4.45-4.45l-.05-27.09C5.98 8 7.97 6 10.44 6h12.83c1.73 0 3.15 1.31 3.39 3H10.67c-.77 0-1.5.51-1.64 1.27a1.5 1.5 0 0 0 1.48 1.79l16.48-.05c1.67 0 3.02 1.34 3.02 3.01V23h-6v-1h-1v-1h.49l.5-3h-1l-.5-1-3.17.32-.91.91-.2 1.62 1.21.22-.47 1.91-1.65.83.61-1.05s-.47-.89-.5-.95c-.03-.07.09-.8.09-.8l-1.5-.5-2 5v.99l1 .6-1 1.07-1.5-.54-.5 1.07 2 1.61 1.02-.89v6.57h-3v2h3v2.13c0 1.04.28 2.02.75 2.87Zm23.2-16H31v3h-2v-3h-7.96C19.36 26 18 27.35 18 29.01v9.97c0 1.66 1.37 3.02 3.04 3.02h17.92c1.67 0 3.03-1.35 3.03-3.01v-9.97c0-1.66-1.37-3.02-3.05-3.02Zm-12.46 4.99c.97 0 1.75.79 1.75 1.77s-.78 1.77-1.75 1.77-1.75-.79-1.75-1.77.78-1.77 1.75-1.77Zm3.5 7.01h-7v-.88c0-1.17 2.33-1.77 3.5-1.77s3.5.59 3.5 1.77V38Zm6 0h-4v-2h4v2Zm1-4h-5v-2h5v2Z"/></svg>
