<svg xmlns="http://www.w3.org/2000/svg" viewBox="0 0 48 48"><title>Raad en college</title><path d="M36.44 18.82c2.06.39 3.83-1.38 3.44-3.44-.22-1.14-1.15-2.08-2.29-2.29a2.927 2.927 0 0 0-3.44 3.44c.22 1.14 1.15 2.08 2.29 2.29ZM39.51 20h-4.89c-.77 0-1.49.4-1.96.98 2.03 1.23 3.35 3.44 3.35 6.01V29H42v-6.5c0-1.33-1.16-2.5-2.49-2.5ZM26.49 34.06c0 .09.03.18.03.27 0 1.38-1.13 2.5-2.52 2.5s-2.52-1.12-2.52-2.5c0-.11.02-.21.03-.31-1.84-2.22-4.67-6.01-6.45-10.11-.65.84-1.06 1.88-1.06 3.06v12.04h3.01v3H31v-3h3V26.97c0-1.17-.37-2.22-1.02-3.06-1.78 4.14-4.65 7.94-6.49 10.16ZM13.43 20H8.55c-1.34 0-2.54 1.17-2.54 2.5V29h6l.03-1.99c0-2.58 1.32-4.79 3.35-6.02-.47-.59-1.18-.99-1.96-.99Zm-2.99-1.18c2.06.39 3.83-1.38 3.44-3.44-.22-1.14-1.15-2.08-2.29-2.29a2.927 2.927 0 0 0-3.44 3.44c.22 1.14 1.15 2.08 2.29 2.29Zm13.55 13c.49 0 .94.14 1.32.38.71-.88 3.79-4.84 6.02-9.64-.67-.36-2.26-.59-2.26-.59h-.55s-.77 2.73-3.02 5.56c0 0-.54-2.52-.55-2.54l1.02-1.01v-1.99h-3.95v1.99l.96.99-.46 2.58c-2.02-2.34-3.12-5.57-3.12-5.57h-.64s-1.45.26-2.08.59c2.22 4.77 5.29 8.73 6 9.63.38-.23.82-.37 1.3-.37Zm-6.8-20.46.12.03c.56.13 1.12.2 1.66.2 2.07 0 4.08-.86 5.53-2.36l1.6-1.58 1.37 1.36a7.68 7.68 0 0 0 3.07 2.09l.22.08-.07-.23C29.8 8.03 27.04 5.99 24 5.99s-5.97 2.16-6.77 5.25l-.03.11Zm-.18 2.06v.16c.31 3.6 3.38 6.41 6.98 6.41s6.76-2.89 6.98-6.58v-.1l-.65-.13a9.545 9.545 0 0 1-4.15-2.77l-.09-.1-.09.1c-1.79 2.06-4.36 3.24-7.03 3.24-.59 0-1.19-.07-1.8-.19l-.15-.03Z"/></svg>
