<svg xmlns="http://www.w3.org/2000/svg" viewBox="0 0 48 48"><title>Reclamebelasting</title><path d="m42 20.59-.44.3A6.328 6.328 0 0 1 38 22c-1.81 0-3.6-.8-4.96-2.35a8.133 8.133 0 0 1-1.53-2.66h-2.52v-2h2.07a9.55 9.55 0 0 1 0-2h-2.08v-2h2.52c.32-.92.8-1.79 1.43-2.54 2.26-2.69 5.8-3.24 8.61-1.35l.43.29-1.17 1.62-.37-.25c-1.93-1.3-4.38-.9-5.96.98-.32.38-.57.81-.79 1.26h5.31v2h-5.93c-.09.66-.09 1.34 0 2h5.92v2h-5.3c.23.48.5.94.86 1.34 1.6 1.83 3.96 2.19 5.89.89l.38-.26 1.17 1.62Zm-9.98.87-.44 1.91 2.26 9.68h-4.51l-.7 3h5.9L35.92 42H39l-4.37-18.74a9.032 9.032 0 0 1-2.61-1.8Zm-1.63-2.15L25.1 42h-3.08l1.39-5.95H10.46L9.07 42H5.99l6.98-29.97h14.02v6.96h3.21c.06.11.13.21.19.32Zm-8.87 5.72h-5.83l-.7 3.02 5.84-.02.7-3Zm3.29-6.01h-7.68l-.7 3.02 7.69-.02.7-3Z"/></svg>
