<svg xmlns="http://www.w3.org/2000/svg" viewBox="0 0 48 48"><title>Recreatie</title><path d="M25.47 24.92c.23-.27.43-.57.62-.88 1.5-2.58 1.07-5.93-.88-7.99.64-2.12.21-4.5-1.19-6.22a5.871 5.871 0 0 0-3.75-2.13c-.98-1.09-2.34-1.72-3.76-1.72s-2.77.61-3.76 1.7c-.79.1-1.55.37-2.24.8-2.48 1.53-3.56 4.73-2.71 7.56-.16.17-.3.34-.44.52-1.87 2.46-1.74 6.04.18 8.35 0 .09-.02.18-.02.27-.19 3.53 2.34 6.57 5.68 6.79h1.81v10.01h3v-10h1.5c.48 0 .96-.06 1.42-.18 2.93-.76 4.84-3.75 4.55-6.89ZM18 24.11V29h-3v-1.89l-3.62-3.62 2.12-2.12 1.5 1.5v-6.86h3v3.87l1.5-1.5 2.12 2.12L18 24.12Zm24.04 10.85h-4.53l-.45-2h1.99v-3H26.01v3h1.89l-.51 2h-4.37v3h3.63l-1.05 4h3.1l1.05-4h5.39l.91 4h3.07l-.91-4h3.83v-3Zm-11.59 0 .52-2h2.99l.45 2h-3.96Z"/></svg>
