<svg xmlns="http://www.w3.org/2000/svg" viewBox="0 0 48 48"><title>Regeling laag inkomen</title><path d="M33 9.51c0-1.93 1.57-3.5 3.5-3.5S40 7.58 40 9.51s-1.57 3.5-3.5 3.5-3.5-1.57-3.5-3.5ZM6 40h6V30H6v10Zm11.41-22.16-1.37-1.46-.73.68c-.65.61-1.41.93-2.2.93-1.24 0-2.33-.79-3.02-2h3.9v-2h-4.6c-.05-.32-.08-.66-.08-1s.03-.68.08-1h4.6v-2h-3.9c.69-1.21 1.78-2 3.02-2 .79 0 1.55.32 2.2.93l.73.68 1.37-1.46-.73-.68c-1.02-.96-2.26-1.47-3.57-1.47-2.31 0-4.3 1.64-5.23 4H5.99v2h1.38c-.04.33-.07.66-.07 1s.03.67.07 1H5.99v2h1.89c.93 2.36 2.93 4 5.23 4 1.31 0 2.54-.51 3.56-1.47l.73-.68Zm19.5 18.62-9.98.94-4.74-1.22.78-2.27 3.93 1.02h3.17s-.22-2.24-3.09-3.06l-6.14-1.88-5.83.89v8.08l11.94 3.03 14.06-3.11s0-2.42-4.09-2.42ZM25.5 13c1.93 0 3.5-1.57 3.5-3.5S27.43 6 25.5 6 22 7.57 22 9.5s1.57 3.5 3.5 3.5ZM42 18v8h-3v7.93c-.83-.18-1.74-.28-2.75-.28-.07 0-.1 0-2.25.13v-1.79h2v-3.94c0-1.14-.92-2.06-2.06-2.06h-5.91c-1.12 0-2.02.91-2.02 2.02v.71l-3-.86v-1.87h-2.96L20.01 18c0-1.66 1.34-3.01 3-3.01h5.06c1.66 0 2.93 1.34 2.93 3 0-1.66 1.41-3 3.07-3H39c1.66 0 3 1.34 3 3Zm-8 4c0-1.66-1.34-3-3-3s-3 1.34-3 3 1.34 3 3 3 3-1.34 3-3Z"/></svg>
