<svg xmlns="http://www.w3.org/2000/svg" viewBox="0 0 48 48"><title>Rijbewijs</title><path d="M21.09 23.47h-8.16l.95-2.8c.03-.09.11-.2.24-.2h5.79c.12 0 .2.09.23.19l.95 2.81ZM13.26 25c-.41 0-.75.33-.75.74s.33.74.75.74a.74.74 0 1 0 0-1.48Zm7.51 0c-.41 0-.75.33-.75.74s.33.74.75.74a.74.74 0 1 0 0-1.48ZM42 15.99V32c0 2.21-1.79 4-4 4H9.98C7.78 36 6 34.22 6 32.02V15.99C6 13.78 7.79 12 9.99 12H22v4h4v-4h12.01c2.2 0 3.99 1.79 3.99 3.99Zm-19 8.54c0-.16-.03-.32-.08-.48l-1.3-3.86A1.72 1.72 0 0 0 19.98 19h-5.95c-.74 0-1.39.47-1.64 1.18l-1.32 3.85c-.05.15-.08.32-.08.48v6.46s2.03 0 2 .04v-2l8-.04v2.04h2v-6.47ZM34 29h-7v2h7v-2Zm2-5h-9v2h9v-2Zm0-5h-9v2h9v-2Z"/></svg>
