<svg xmlns="http://www.w3.org/2000/svg" viewBox="0 0 48 48"><title>Rioolheffing</title><path d="M8.23 42h13.6l-1.17-7.83c-.08-.52.13-1.04.51-1.28 1.6-1.05 2.66-2.87 2.84-4.88H6.05c.18 2.02 1.23 3.84 2.84 4.88.38.25.59.77.51 1.28L8.23 42ZM41 20.61l-.44.3A6.328 6.328 0 0 1 37 22.02c-1.81 0-3.6-.8-4.96-2.35a8.133 8.133 0 0 1-1.53-2.66h-2.52v-2h2.07a9.55 9.55 0 0 1 0-2h-2.08v-2h2.52c.32-.92.8-1.79 1.43-2.54 2.26-2.69 5.8-3.24 8.61-1.35l.43.29-1.17 1.62-.37-.25c-1.93-1.3-4.38-.9-5.96.98-.32.38-.57.81-.79 1.26h5.31v2h-5.93c-.09.66-.09 1.34 0 2h5.92v2h-5.3c.23.48.5.94.86 1.34 1.6 1.83 3.96 2.19 5.89.89l.38-.26 1.17 1.62ZM21 10V8h-3v2H7v10h16V10h-2Zm3 15v1H6v-1c0-1.1.9-2 2-2h14c1.1 0 2 .9 2 2Z"/></svg>
