<svg xmlns="http://www.w3.org/2000/svg" viewBox="0 0 48 48"><title>Roerende zaakbelasting</title><path d="M31.55 17.01h-2.52v-2h2.07a9.55 9.55 0 0 1 0-2h-2.08v-2h2.52c.32-.92.8-1.79 1.43-2.54 2.26-2.69 5.8-3.24 8.61-1.35l.43.29-1.17 1.62-.37-.25c-1.93-1.3-4.38-.9-5.96.98-.32.38-.57.81-.79 1.26h5.31v2H33.1c-.09.66-.09 1.34 0 2h5.92v2h-5.3c.23.48.5.94.86 1.34 1.6 1.83 3.96 2.19 5.89.89l.38-.26 1.17 1.62-.44.3a6.328 6.328 0 0 1-3.56 1.11c-1.81 0-3.6-.8-4.96-2.35a8.133 8.133 0 0 1-1.53-2.66ZM16.76 18a8.44 8.44 0 0 0-7.17 4H7.03c-.55 0-1-.45-1-1v-7h3.99l.75-4.05H8.9v-3h10.4L21.03 12h5l-3 6h-6.28Zm-3.68-4h4.82l.42-.83-1.03-3.22h-3.47L13.08 14Zm21.96 22h5v3H26.26c-.62 1.74-2.27 2.99-4.22 2.99s-3.6-1.25-4.22-2.99h-4.97c-1 0-1.81-.81-1.81-1.81V27.01c0-3.31 2.69-6 6-6h11.93c3.35 0 6.07 2.72 6.07 6.07V36Zm-11.5 1.49c0-.83-.67-1.5-1.5-1.5s-1.5.67-1.5 1.5.67 1.5 1.5 1.5 1.5-.67 1.5-1.5ZM30.04 26h-6v5h6v-5Z"/></svg>
