<svg xmlns="http://www.w3.org/2000/svg" viewBox="0 0 48 48"><title>Sociaal zorg en welzijn</title><path d="M35 15H12.95C11.32 15 10 16.35 10 18.01L10.04 29H13v13h9V19h4v23h9V28.98l3 .02V18c0-1.66-1.34-3-3-3Zm-.35 4.98-.16.17L33 21.71l-1.49-1.56-.16-.17c-.33-.35-.46-.88-.24-1.31.35-.71 1.2-.81 1.69-.3l.2.21.2-.21c.49-.51 1.34-.42 1.69.3.21.43.09.96-.24 1.31ZM27 9.5C27 7.57 28.57 6 30.5 6S34 7.57 34 9.5 32.43 13 30.5 13 27 11.43 27 9.5Zm-13-.04c0-1.93 1.57-3.5 3.5-3.5S21 7.53 21 9.46s-1.57 3.5-3.5 3.5-3.5-1.57-3.5-3.5Z"/></svg>
