<svg xmlns="http://www.w3.org/2000/svg" viewBox="0 0 48 48"><title>Sportkleding muziekinstrumenten</title><path d="M40.16 30.65c-.53-.6-.68-1.22-.46-1.9.25-.77.31-1.58.19-2.39-.29-1.85-1.82-3.23-3.9-3.68V11.01h-3v11.66c-2.47.51-4.09 2.25-4.09 4.62 0 .57.09 1.14.28 1.67.23.67.14 1.13-.34 1.66-1.47 1.63-2.19 4.18-1.8 6.34.41 2.3 2.04 5.04 7.44 5.04 6.17 0 7.46-3.58 7.46-6.58 0-1.75-.65-3.48-1.78-4.76ZM36 38h-3.04v-2H36v2Zm-1.56-7c-1.1 0-2-.9-2-2s.9-2 2-2 2 .9 2 2-.9 2-2 2ZM28.99 7.95l-6-1.95h-3c-1.76 1.47-3.24 1.47-5 0h-3.33L5.98 7.95V14H10v15h14.98V14.04l4-.04V7.95Zm-8 7.05h-.11l-2.68 7h-3.21l2.68-7h-3.68v-3h7v3Z"/></svg>
