<svg xmlns="http://www.w3.org/2000/svg" viewBox="0 0 48 48"><title>Sportkleding muziekinstrumenten</title><path d="M40.16 30.65c-.53-.6-.68-1.22-.46-1.9.25-.77.31-1.58.19-2.39-.29-1.85-1.82-3.23-3.9-3.68V9.06H33v13.59c-2.47.51-4.09 2.25-4.09 4.62 0 .57.09 1.14.28 1.67.23.67.14 1.13-.34 1.66-1.47 1.63-2.19 4.18-1.8 6.34.41 2.3 2.04 5.04 7.44 5.04 6.17 0 7.46-3.58 7.46-6.58 0-1.75-.65-3.48-1.78-4.76ZM36 38h-3.04v-2H36v2Zm-1.56-7c-1.1 0-2-.9-2-2s.9-2 2-2 2 .9 2 2-.9 2-2 2ZM27.05 10c0-2.11-1.92-4.01-4.03-4.01h-3.46l-3.03 3.57-2.92-3.57h-3.6C7.91 5.99 6 7.89 6 9.98l.02 5.06 2.99-.03v14.98h15.02V15.01l2.96-.03.05-4.97ZM21 14.47s0 1.51-1.51 1.51-1.51-1.51-1.51-1.51v-1.51h3.01v1.51Z"/></svg>
