<svg xmlns="http://www.w3.org/2000/svg" viewBox="0 0 48 48"><title>Station stoptrein</title><path d="M16 19.15 15.98 25H14v8H8v-8H6v-5.86c0-1.72 1.22-3.05 2.83-3.15h4.23c1.66.03 2.94 1.39 2.94 3.15Zm-5.04-4.13c1.65 0 3-1.35 3-3s-1.35-3-3-3-3 1.35-3 3 1.35 3 3 3ZM35.98 6h-8.96C23.71 6 21 8.71 21 12.02V29c0 2.76 2.24 5 5 5h10.99c2.77 0 5.01-2.24 5.01-5.01V12.02C42 8.69 39.3 6 35.98 6Zm-4.45 23.97a2.02 2.02 0 1 1 .002-4.042 2.02 2.02 0 0 1-.002 4.042ZM36.97 21H25.98l-2-8h14.99l-2 8Zm-8.99 16h-3.54L21 42h3.54l3.44-5Zm10.58 5h3.54l-3.44-5h-3.54l3.44 5Z"/></svg>
