<svg xmlns="http://www.w3.org/2000/svg" viewBox="0 0 48 48"><title>Station sneltrein</title><path d="M16 19.15v5.86h-2v8H8v-8H6v-5.86C6 17.43 7.22 16.1 8.83 16h4.23c1.66.03 2.94 1.39 2.94 3.15Zm5 9.55V18.12c0-3.15 1.01-4.61 2-5.16v-1.94c.03-2.46 2.52-5.01 4.98-5.01h7.06c2.73 0 4.94 2.2 4.96 4.93V13c.96.53 2 2.11 2 5.13l-.04 9.95c0 3.27-2.63 5.93-5.88 5.93H26.3c-2.93 0-5.3-2.37-5.3-5.3Zm16.48-3.66c-.83 0-1.5.66-1.5 1.48s.67 1.48 1.5 1.48 1.5-.66 1.5-1.48-.67-1.48-1.5-1.48ZM33 12.01l4-.04v-1.44c.02-.85-.67-1.53-1.52-1.52L33 9.05v2.96Zm-3.02 5.47c0 .82.67 1.48 1.5 1.48s1.5-.66 1.5-1.48-.67-1.48-1.5-1.48-1.5.66-1.5 1.48ZM26 10.54l.02 1.47H30v-3h-2.5c-.84.01-1.51.7-1.5 1.53Zm-2.02 15.98c0 .82.67 1.48 1.5 1.48s1.5-.66 1.5-1.48-.67-1.48-1.5-1.48-1.5.66-1.5 1.48Zm-13.19-11.7c1.65 0 3-1.35 3-3s-1.35-3-3-3-3 1.35-3 3 1.35 3 3 3ZM20.98 42h3.57l3.47-5h-3.57l-3.47 5Zm17.68-5h-3.57l3.47 5h3.57l-3.47-5Z"/></svg>
