<svg xmlns="http://www.w3.org/2000/svg" viewBox="0 0 48 48"><title>Toeslag</title><path d="M39 8v16a2 2 0 0 1-2 2H27l-3.88 3.82c-.1.09-.22.14-.35.14-.06 0-.13-.01-.19-.04a.499.499 0 0 1-.31-.46l-.03-3.47h-2.25a2 2 0 0 1-2-2V8a2 2 0 0 1 2-2h17a2 2 0 0 1 2 2ZM16.04 36.04H8.96c-1.65 0-2.95 1.25-2.95 2.8V42h13v-3.44c-.15-1.41-1.41-2.52-2.96-2.52Zm-3.54-2.03c1.94 0 3.51-1.57 3.51-3.51s-1.57-3.51-3.51-3.51-3.51 1.57-3.51 3.51 1.57 3.51 3.51 3.51ZM26.1 13c.69-1.21 1.78-2 3.02-2 .79 0 1.55.32 2.2.93l.73.68 1.37-1.46-.73-.68C31.67 9.51 30.43 9 29.12 9c-2.31 0-4.3 1.64-5.23 4H22v2h1.38c-.04.33-.07.66-.07 1s.03.67.07 1H22v2h1.89c.93 2.36 2.93 4 5.23 4 1.31 0 2.54-.51 3.56-1.47l.73-.68-1.37-1.46-.73.68c-.65.61-1.41.93-2.2.93-1.24 0-2.33-.79-3.02-2h3.9v-2h-4.6c-.05-.32-.08-.66-.08-1s.03-.68.08-1h4.6v-2h-3.9Z"/></svg>
