<svg xmlns="http://www.w3.org/2000/svg" viewBox="0 0 48 48"><title>Uittreksel</title><path d="M10 32.99h7.98V41h-.05l-7.94-8.01Zm29.02-4.47c0 3.02-2.46 5.48-5.48 5.48s-5.48-2.46-5.48-5.48 2.46-5.48 5.48-5.48 5.48 2.46 5.48 5.48Zm-3 0a2.48 2.48 0 1 0-4.96 0 2.48 2.48 0 0 0 4.96 0Zm-6 6.76v6.73l3.43-2.02 3.57 2.02v-6.66c-1.04.49-2.2.78-3.42.78s-2.5-.31-3.57-.85ZM25 28.48c0 2.01.71 3.92 1.97 5.43v8.05L21 41.93v-9.94a2 2 0 0 0-2-2H8.99V7.96c0-1.09.88-1.98 1.98-1.98h22.05c1.11 0 2.02.9 2.02 2.02v12.14c-.5-.09-1.02-.15-1.54-.15-4.68 0-8.48 3.81-8.48 8.48ZM14 13.95l15.98.05v-2l-16-.1v2.05ZM23 22l-9.02-.05v2L23 24v-2Zm7-2.95v-2L14 17v2l16 .05Z"/></svg>
