<svg xmlns="http://www.w3.org/2000/svg" viewBox="0 0 48 48"><title>Uw wijk</title><path d="M12.5 35C10.57 35 9 33.43 9 31.5s1.57-3.5 3.5-3.5 3.5 1.57 3.5 3.5-1.57 3.5-3.5 3.5Zm3.54 2H8.96c-1.65 0-2.95 1.25-2.95 2.8V42h13v-2.48C18.86 38.11 17.6 37 16.05 37Zm26-17.97v20h-10v-7.67l.98 1.04 1.94-2.4-2.92-2.62v-4.36h-3v1.91l-5.08-4.12-7.44 6.23a5.97 5.97 0 0 0-4.51-2.06H12v-5l-6.02-5.97h15.99l4.08 3.86v-4.98l4.52-6.95 4.48 6.95V19h7ZM31.99 14.6c0-.83-.67-1.5-1.5-1.5s-1.5.67-1.5 1.5.67 1.5 1.5 1.5 1.5-.67 1.5-1.5ZM21.04 35.03h6v-5h-6v5Z"/></svg>
