<svg xmlns="http://www.w3.org/2000/svg" viewBox="0 0 48 48"><title>Uw wijk</title><path d="M16 31c0 2.21-1.79 4-4 4s-4-1.79-4-4 1.79-4 4-4 4 1.79 4 4Zm26.04-11.97v20h-10v-7.67l.98 1.04 1.94-2.4-2.92-2.62v-4.36h-3v1.91l-5.08-4.12-6.7 5.56a6.95 6.95 0 0 0-5.21-2.38l.02-3.89-6.09-6.07h15.99l4.08 3.86v-4.98l4.52-6.95 4.48 6.95v6.11h7ZM31.99 14.6c0-.83-.67-1.5-1.5-1.5s-1.5.67-1.5 1.5.67 1.5 1.5 1.5 1.5-.67 1.5-1.5ZM15.05 37.03H9.01c-1.67 0-2.98 1.28-2.98 2.85v2.15h12V39.6c-.15-1.44-1.42-2.57-2.99-2.57Zm5.99-2h6v-5h-6v5Z"/></svg>
