<svg xmlns="http://www.w3.org/2000/svg" viewBox="0 0 48 48"><title>Vacatures</title><path d="M27 28h14v9c0 1.66-1.34 3-3 3H10c-1.66 0-3-1.34-3-3v-9h14v1.02c0 1.09.88 1.98 1.98 1.98h2.05c1.09 0 1.98-.88 1.98-1.98V28Zm-2-3h-2v4h2v-4Zm17-9v6.04c0 1.54-1.19 2.8-2.71 2.96H27v-.02c0-1.09-.88-1.98-1.98-1.98h-2.05c-1.09 0-1.98.88-1.98 1.98V25H8.69C7.18 24.84 6 23.59 6 22.04v-6c0-1.67 1.37-3.05 3.05-3.05H18v-1.97c0-1.6 1.28-2.93 2.9-3.03H27c1.72.1 3 1.44 3 3.03v1.97h9c1.66 0 3 1.34 3 3Zm-15-4.94s-.04-.05-.1-.06H21v2h6v-1.94Z"/></svg>
