<svg xmlns="http://www.w3.org/2000/svg" viewBox="0 0 48 48"><title>Vacatures</title><path d="m27 28 14-2v12c0 1.66-1.34 3-3 3H10c-1.66 0-3-1.34-3-3V26l14 2v.02c0 1.09.88 1.98 1.98 1.98h2.05c1.09 0 1.98-.88 1.98-1.98V28Zm-2-3h-2v3h2v-3Zm17-9v5a2 2 0 0 1-2 2l-13 2v-.02c0-1.09-.88-1.98-1.98-1.98h-2.05c-1.09 0-1.98.88-1.98 1.98V25L7.97 23c-1.09 0-1.98-.88-1.98-1.98v-4.98c0-1.67 1.37-3.05 3.05-3.05h7.94v-2.97c0-1.6 1.28-2.93 2.9-3.03h8.21c1.72.1 3 1.44 3 3.03v2.97h7.9c1.66 0 3 1.34 3 3Zm-13.9-5.94s-.04-.05-.1-.06h-8.02v3h8.11v-2.94Z"/></svg>
