<svg xmlns="http://www.w3.org/2000/svg" viewBox="0 0 48 48"><title>Veilige wijk</title><path d="M35 19v-6.11l-4.48-6.95L26 12.89v4.98l-4.08-3.86H5.9l6.1 6.14-.02 4.86h7.01l4.92-4.13L29 25.05v-2.04h3v4.36l2.93 2.62-1.94 2.4-.98-1.04v7.67h10V19h-7Zm-4.62-2.94c-.83 0-1.5-.67-1.5-1.5s.67-1.5 1.5-1.5 1.5.67 1.5 1.5-.67 1.5-1.5 1.5Z"/><path d="M5.96 34.61c0 3.43 2.21 5.7 6.02 7.38 3.81-1.68 6.02-4.07 6.02-7.5l.04-6.48H6l-.04 6.61Zm2.83-1.69 2.11 2.1 4.2-4.2 1.4 1.4-5.6 5.6-3.5-3.5 1.41-1.4ZM21 30h6v5h-6z"/></svg>
