<svg xmlns="http://www.w3.org/2000/svg" viewBox="0 0 48 48"><title>Veilige wijk</title><path d="M35 19v-6.11l-4.48-6.95L26 12.89v4.98l-4.08-3.86H5.9l6.1 6.14-.02 4.86h7.01l4.92-4.13L29 25.05v-2.04h3v4.36l2.93 2.62-1.94 2.4-.98-1.04v7.67h10v-20h-7Zm-4.62-2.94c-.83 0-1.5-.67-1.5-1.5s.67-1.5 1.5-1.5 1.5.67 1.5 1.5-.67 1.5-1.5 1.5ZM6 28h12.04L18 34.48c0 3.43-2.21 5.82-6.02 7.5-3.81-1.68-6.02-3.95-6.02-7.38L6 27.99Zm3.46 5.58 1.44 1.43 3.72-3.72 1.4 1.4-5.13 5.13-2.84-2.84 1.41-1.4ZM21 35h6v-5h-6v5Z"/></svg>
