<svg xmlns="http://www.w3.org/2000/svg" viewBox="0 0 48 48"><title>Vergoeding energiekosten</title><path d="M33 11.98v-3h3v-3h3v3h3v3h-3v3h-3v-3h-3Zm-2 5.01v-.02c0-2.21-1.79-4-4-4s-4 1.79-4 4v.02h8Zm-12.07-3.01c2.21 0 4-1.79 4-4s-1.79-4-4-4-4 1.79-4 4 1.79 4 4 4ZM42 26.99v8H31.14c-.05-.01-.08-.05-.09-.06L31 26.99h11Zm-6.5 4c0-.83-.67-1.5-1.5-1.5s-1.5.67-1.5 1.5.67 1.5 1.5 1.5 1.5-.67 1.5-1.5Zm-4.6 6.99h8.2s-.06.01-.09.01H39c0 2.2-1.79 3.99-4.99 3.99h-26c-.98 0-2-.9-2-2v-18a2 2 0 0 1 2-2h27c2.21 0 4 1.79 4 4V24h-8c-.81 0-1.56.31-2.13.89-.57.57-.88 1.33-.87 2.14l.05 7.94c.01 1.58 1.24 2.88 2.85 3.03ZM22.11 29h-3.85l2.33-4h-4.55L14 32h2.79l-1.94 5h2.05l5.21-8Z"/></svg>
