<svg xmlns="http://www.w3.org/2000/svg" viewBox="0 0 48 48"><title>Vergoeding energiekosten</title><path d="M36.79 15H34l2.04-7h4.55l-2.33 4h3.85l-5.21 8h-2.05l1.94-5Zm-1.38 19.35-10.38.66-3.74-1.19.56-1.75 3.66 1.15 3.54-.3c-.01-.1-.32-2.6-3.48-3.49l-6.27-1.89-5.31.81v8.85L25.02 40l14.96-3.14s0-2.51-4.58-2.51Zm-9.37-7.9.37.11c2.31.66 3.74 1.97 4.58 3.29 1.72-.45 3-2 3-3.86 0-2.21-1.79-4-4-4s-4 1.79-4 4c0 .16.03.3.05.45ZM6.01 37.9h5v-10h-5v10ZM23 23c2.21 0 4-1.79 4-4s-1.79-4-4-4-4 1.79-4 4 1.79 4 4 4Z"/></svg>
