<svg xmlns="http://www.w3.org/2000/svg" viewBox="0 0 48 48"><title>Verhuizen</title><path d="M23 22.07h-2l3-6.03 3 6.03h-2v5h-2v-5Zm-8-.2v3.2h-2v2h6v-2h-2v-3.2c1.16-.41 2-1.51 2-2.81v-2.99h-6v2.99c0 1.3.84 2.4 2 2.81Zm27 3.09v8.56c0 .82-.67 1.49-1.49 1.49h-1.57c-.24-2.26-2.13-4.03-4.45-4.03s-4.21 1.77-4.45 4.03H17.01c-.24-2.26-2.13-4.03-4.45-4.03s-4.21 1.77-4.45 4.03h-.6c-.83 0-1.5-.67-1.5-1.5V11h27v7h4.94c.6 0 1.15.36 1.38.91l2.68 6.04ZM30 14H9v15h21V14Zm8.65 11-1.69-4H33v4h5.65Zm-24.6 10.54c0 .83-.67 1.5-1.5 1.5s-1.5-.67-1.5-1.5.67-1.5 1.5-1.5 1.5.67 1.5 1.5Zm21.93 0c0 .83-.67 1.5-1.5 1.5s-1.5-.67-1.5-1.5.67-1.5 1.5-1.5 1.5.67 1.5 1.5Z"/></svg>
