<svg xmlns="http://www.w3.org/2000/svg" viewBox="0 0 48 48"><title>Verkiezingen</title><path d="M27.72 32.3 30 30.02V42H6V18h12.22L16 20.22c-4.77.97-8.31 5.33-7.97 10.46.33 4.91 4.36 8.96 9.28 9.3 5.04.34 9.33-3.05 10.42-7.68Zm-13.04-1.06-.87-1.4c-.5-.83-1.58-1.09-2.4-.58-.82.5-1.09 1.58-.58 2.4l2.83 4.64a1.74 1.74 0 0 0 1.94.78c.75-.2 1.28-.87 1.29-1.65v-.26l2.68.88c.92.3 1.91-.2 2.21-1.11.27-.81-.09-1.67-.81-2.07l-1.25.42c-.43.14-.86.21-1.31.21-1.31 0-2.55-.64-3.33-1.71-.15-.21-.3-.31-.41-.54Zm26.93-16.32L27.04 29.49l-9.44 1.82c-.52.1-.98-.36-.88-.88l1.85-9.4L33.13 6.44c.59-.59 1.54-.59 2.13 0l6.36 6.36c.59.59.59 1.54 0 2.12Zm-3.19-1.08L37 12.42 24.7 24.74l-1.36-1.46L35.59 11l-1.41-1.41-13.53 13.53h.02l-.52 2.27 2.44 2.43 2.28-.5.1-.02-.06.06.07-.06h-.01l13.45-13.47Z"/></svg>
