<svg xmlns="http://www.w3.org/2000/svg" viewBox="0 0 48 48"><title>Virus</title><path d="M38.99 20.98c-1.12 0-2.09.62-2.6 1.54H32.8c-.23-1.35-.76-2.6-1.52-3.67l1.93-1.93c.23.06.48.1.73.1 1.66 0 3-1.34 3-3s-1.34-3-3-3-3 1.34-3 3c0 .28.05.55.12.81l-1.9 1.9a9.066 9.066 0 0 0-3.65-1.54v-1.41a4.022 4.022 0 0 0-1.5-7.75 4.02 4.02 0 0 0-1.5 7.75v1.39c-1.38.22-2.66.75-3.75 1.53l-2.8-2.8c.39-1.37-.24-2.87-1.57-3.52-1.49-.72-3.28-.1-4 1.39-.72 1.49-.1 3.28 1.39 4 .66.32 1.37.36 2.02.2l2.84 2.84a8.817 8.817 0 0 0-1.55 3.71h-1.37a3.97 3.97 0 0 0-3.7-2.52c-2.2 0-3.99 1.78-3.99 3.99s1.78 3.99 3.99 3.99c1.66 0 3.08-1.01 3.68-2.45h1.39a8.94 8.94 0 0 0 1.55 3.74l-2.61 2.61c-.08-.03-.14-.07-.22-.09-1.69-.53-3.49.42-4.02 2.11-.53 1.69.42 3.49 2.11 4.02 1.69.53 3.49-.42 4.02-2.11.17-.55.17-1.1.06-1.63l2.79-2.79c1.1.78 2.38 1.31 3.76 1.54v4.04c-.41.26-.75.63-.98 1.1a2.745 2.745 0 0 0 1.28 3.67c1.37.66 3.01.09 3.67-1.28.61-1.26.16-2.74-.97-3.49V32.9a9.05 9.05 0 0 0 3.66-1.54l1.14 1.14c-.78 1.92.04 4.14 1.93 5.05a3.96 3.96 0 0 0 3.45-7.13 3.92 3.92 0 0 0-3.28-.06l-1.13-1.13c.77-1.08 1.3-2.34 1.52-3.71h3.63c.52.87 1.47 1.46 2.56 1.46 1.66 0 3-1.34 3-3s-1.34-3-3-3ZM23 20.01h2v5h-2v-5Zm1.73 7.72c-.19.19-.43.28-.72.28s-.54-.09-.72-.28c-.19-.19-.28-.43-.28-.72s.09-.53.28-.72c.19-.19.43-.28.72-.28s.54.09.72.28c.19.19.28.43.28.72s-.09.53-.28.72Z"/></svg>
