<svg xmlns="http://www.w3.org/2000/svg" viewBox="0 0 48 48"><title>Vluchtelingen opvang</title><path d="M38 24h-5.95c-1.66 0-3 1.34-3 3 0-1.66-1.34-3-3-3H20c-1.66 0-3.01 1.35-3 3.01v.39c1.06.49 1.84 1.42 2 2.6h1.5c1.93 0 3.5 1.57 3.5 3.5v2.43h7.94c1.14 0 2.06.93 2.06 2.07v4h4v-4h3V27c0-1.66-1.34-3-3-3Zm-8.99 10.04c-1.66 0-3-1.34-3-3s1.34-3 3-3 3 1.34 3 3-1.34 3-3 3ZM20.51 32h-3.5v-1.54c0-.81-.67-1.46-1.5-1.46h-2.96c-.85 0-1.54.66-1.54 1.49V32h-3.5c-.83 0-1.5.67-1.5 1.5v7.01c0 .83.67 1.5 1.5 1.5h13.01c.83 0 1.5-.67 1.5-1.5V33.5c0-.83-.67-1.5-1.5-1.5Zm-5.5 0h-2v-1h2v1ZM42 11.5v3.46L29.04 9.42 16 15v-3.45l13.05-5.58L42 11.51ZM34.5 22c-1.93 0-3.5-1.57-3.5-3.5s1.57-3.5 3.5-3.5 3.5 1.57 3.5 3.5-1.57 3.5-3.5 3.5Zm-11 0c-1.93 0-3.5-1.57-3.5-3.5s1.57-3.5 3.5-3.5 3.5 1.57 3.5 3.5-1.57 3.5-3.5 3.5Z"/></svg>
