<svg xmlns="http://www.w3.org/2000/svg" viewBox="0 0 48 48"><title>Vluchtelingen opvang</title><path d="M20.5 32H17v-1.54c0-.81-.67-1.46-1.5-1.46h-2.96c-.85 0-1.54.66-1.54 1.49V32H7.5c-.83 0-1.5.67-1.5 1.5v7.01c0 .83.67 1.5 1.5 1.5h13.01c.83 0 1.5-.67 1.5-1.5V33.5c0-.83-.67-1.5-1.5-1.5ZM15 32h-2v-1h2v1Zm27-20.5v3.46L29.04 9.42 16 15v-3.45l13.05-5.58L42 11.51ZM23.5 22c-1.93 0-3.5-1.57-3.5-3.5s1.57-3.5 3.5-3.5 3.5 1.57 3.5 3.5-1.57 3.5-3.5 3.5Zm11 0c-1.93 0-3.5-1.57-3.5-3.5s1.57-3.5 3.5-3.5 3.5 1.57 3.5 3.5-1.57 3.5-3.5 3.5Zm6.5 5c0-1.66-1.34-3-3-3H20c-1.37 0-2.51.93-2.87 2.18 1.34.4 2.38 1.46 2.73 2.82H21c2.21 0 4 1.79 4 4v1h6.94c1.14 0 2.06.93 2.06 2.07V42h4v-4h3V27Zm-11.99 5c-1.66 0-3-1.34-3-3s1.34-3 3-3 3 1.34 3 3-1.34 3-3 3Z"/></svg>
