<svg xmlns="http://www.w3.org/2000/svg" viewBox="0 0 48 48"><title>Voeding</title><path d="M7.29 13.54c-1.72-1.72-1.72-4.52 0-6.25a4.425 4.425 0 0 1 6.2-.05c.05.07.11.14.17.21l.89.97 1.18-.58a4.42 4.42 0 0 1 5.07.81c.23.23.43.5.65.87l.56.95 1.1-.09c1.32-.12 2.6.34 3.51 1.25.9.9 1.35 2.16 1.25 3.47l-.08 1.06.43.23a8.52 8.52 0 0 0-1.77 2.55c-.16-.01-.32-.02-.48-.02h-.12c-.99.03-1.95.23-2.85.55l-.02-4.48-3 .02.02 2.97-3.96-3.96-2.12 2.12 3.88 3.88h-2.79v3h3.33c-.18.26-.36.53-.52.82-.43.76-.78 1.62-1.03 2.56-.88-.19-1.81-.3-2.77-.3-.91 0-1.78.1-2.62.27-.78-.92-1.14-2.12-1-3.36l.13-1.1-.94-.59c-.32-.2-.58-.4-.8-.62-1.29-1.29-1.64-3.28-.87-4.96l.54-1.17-.96-.86c-.08-.07-.15-.13-.19-.15ZM14 42c2.63 0 4.92-.98 6.37-2.51l.37-.49c.11-.15.25-.32.4-.5.55-.88.87-1.89.87-2.96 0-3.62-3.51-6.46-8-6.46s-8 2.84-8 6.46 3.51 6.46 8 6.46Zm26.89-16.74a6.446 6.446 0 0 0-3.9-3.1c-.54-.18-1.1-.29-1.68-.31-.14-.01-.28-.02-.43-.02-1.19 0-2.33.49-3.25.86v-.03c0-1.13.6-2.12 1.53-2.52l-1.19-2.76c-2.02.87-3.32 2.91-3.34 5.22-.81-.32-1.72-.7-2.68-.7h-.07a6.474 6.474 0 0 0-5.47 3.35c-.37.66-.64 1.37-.81 2.11 3.24 1.63 5.39 4.64 5.39 8.17 0 1.83-.58 3.51-1.59 4.94.8.92 1.7 1.63 2.77 1.63h.09c1.67-.07 2.31-1.09 4.33-1.09 1.86 0 2.5.91 3.96 1.04.15.03.31.05.48.05h.09c1.69 0 2.99-1.79 4.08-3.38 2.27-3.32 4-9.38 1.68-13.47Z"/></svg>
