<svg xmlns="http://www.w3.org/2000/svg" viewBox="0 0 48 48"><title>Vrijwillegerswerk</title><path d="M41.16 21.49c.19-.23.16-.58-.06-.8l-.14-.14c-.7-.72-1.58-1.62-3.34-.94l-4.87 2.93c-.52.31-1.15.33-1.68.03a1.66 1.66 0 0 1-.87-1.44c-.02-.85-.13-2.47-.25-4.34v-.07c-.18-2.58-.37-5.5-.38-7.2 0-1.05-.87-1.91-1.92-1.91s-1.86.8-1.92 1.82l-.41 8.82c-.45.11-.93.23-1.41.37L20.54 7.48a1.998 1.998 0 0 0-2.38-1.41 1.953 1.953 0 0 0-1.44 2.35l3.11 11.64c-.21.09-.42.18-.64.28l-5.89-8.42c-.58-.83-1.61-1.15-2.47-.77-.55.24-.95.71-1.1 1.28-.14.51-.07 1.04.2 1.5l5.33 8.47c-.25.15-.5.31-.76.47l-4.88-3.73c-.71-.65-1.74-.64-2.4.02a1.72 1.72 0 0 0-.06 2.36l4.77 4.73 7.19 10.04c.58.82.98 1.77 1.14 2.76l.48 2.89h14.21l-1.85-7.26c-.56-2.19.02-4.49 1.56-6.16l6.51-7.06Zm-13.24 6.89-4.99 5.03-4.99-5.03a3 3 0 0 1 0-4.21 2.933 2.933 0 0 1 4.17 0l.82.82.82-.82a2.933 2.933 0 0 1 4.17 0 3 3 0 0 1 0 4.21Z"/></svg>
