<svg xmlns="http://www.w3.org/2000/svg" viewBox="0 0 48 48"><title>Werkzaamheden</title><path d="M41.55 34.98 26.89 9.7v-.02A3.355 3.355 0 0 0 23.97 8c-1.21 0-2.3.63-2.9 1.68L6.45 34.98c-.6 1.05-.6 2.3 0 3.34A3.323 3.323 0 0 0 9.35 40h29.28c1.21 0 2.3-.63 2.9-1.68.6-1.05.61-2.3 0-3.34Zm-2.6 1.85a.35.35 0 0 1-.31.18H9.36a.35.35 0 0 1-.31-.18.33.33 0 0 1 0-.36l14.62-25.3c.08-.14.21-.17.3-.17s.22.03.3.17l14.66 25.28v.02c.1.15.06.27.01.36ZM25.04 20.56c0-.83.68-1.5 1.5-1.5.83 0 1.5.68 1.5 1.5 0 .83-.68 1.5-1.5 1.5-.83 0-1.5-.68-1.5-1.5Zm8.67 12.39a.732.732 0 0 1-.66 1.09h-6.04c-.25 0-.49-.13-.63-.34a.748.748 0 0 1-.06-.71l.76-1.72c.08-.18.22-.32.4-.39l1.44-.58L30 28.58c.14-.22.38-.35.64-.35h.02a.7.7 0 0 1 .63.39l2.4 4.34Zm-11.12-4.22 3.99 1.99c.16-.23.37-.42.63-.53l.91-.37-1.99-1-.42-5c-.07-1.2-.67-2.41-1.79-2.41l-3.06-.12c-.44-.06-1.39.1-2.05 1.13l-1.96 3.43 2.53 1.27-3.63 6.03 1.29.77 3.42-5.68 1.56 2.33c.08.12.13.27.13.42v3.05h1.5v-3.05c0-.44-.13-.88-.38-1.25l-.68-1.02Zm1.7-3.95.27 3.26-1.64-.82 1.37-2.44Zm-3.09-.65-1.03 1.71-1.22-.61 1.15-2.02c.27-.41.53-.42.64-.42l1.14.04-.68 1.29Z"/></svg>
