<svg xmlns="http://www.w3.org/2000/svg" viewBox="0 0 48 48"><title>Wijkteam</title><path d="M40.78 32.77s-1.54-6.15-1.56-6.22C38.81 25.31 37.7 22 34.37 22H24c-3.33 0-4.99 3.22-5.41 4.47-.02.07-1.56 6.22-1.56 6.22-.24.96 0 1.98.67 2.72.57.65 1.39 1.01 2.24 1.01.12 0 2.06-.23 2.06-.23v5.82h14v-5.72s1.75.21 1.87.21c.85 0 1.67-.36 2.24-1.01.66-.74.91-1.76.67-2.72Zm-18.3-2.23s-.6-2.77 2.22-2.77c1.11 0 3.37.79 3.37.79l-5.59 1.99Zm12.86-.49-5.22-1.11s1.46-1.54 3.22-1.54c.28 0 .57.04.86.13 2.1.66 1.15 2.52 1.15 2.52ZM9.78 14.27a3.271 3.271 0 1 1 6.542.002 3.271 3.271 0 0 1-6.542-.002Zm9.04 6.74c-1.58 1.38-2.57 3.19-3.01 4.51-.04.12-.06.17-.89 3.48H7l-.04-7.01c0-1.6 1.43-2.99 3.03-2.99h6.02c1.25 0 2.38.86 2.81 2.01Zm3.39-9.64.12.03c.56.13 1.12.2 1.66.2 2.07 0 4.08-.86 5.53-2.36l1.6-1.58 1.37 1.36a7.68 7.68 0 0 0 3.07 2.09l.22.08-.07-.23C34.82 8.04 32.06 6 29.02 6s-5.97 2.16-6.77 5.25l-.03.11Zm-.18 2.06v.16c.31 3.6 3.38 6.41 6.98 6.41s6.76-2.89 6.98-6.58v-.1l-.65-.13a9.545 9.545 0 0 1-4.15-2.77l-.09-.1-.09.1c-1.79 2.06-4.36 3.24-7.03 3.24-.59 0-1.19-.07-1.8-.19l-.15-.03Z"/></svg>
