<svg xmlns="http://www.w3.org/2000/svg" viewBox="0 0 48 48"><title>Wijkteam</title><path d="M9.78 14.27a3.271 3.271 0 1 1 6.542.002 3.271 3.271 0 0 1-6.542-.002ZM16 19H9.98c-1.6 0-3.03 1.39-3.03 2.99L6.99 29h7.92c.83-3.31.85-3.36.89-3.48.44-1.32 1.43-3.13 3.01-4.51C18.38 19.87 17.25 19 16 19Zm24.11 16.48c-.57.65-1.39 1.01-2.24 1.01-.12 0-1.87-.21-1.87-.21V42H22v-5.82s-1.94.23-2.06.23c-.85 0-1.67-.36-2.24-1.01-.66-.74-.91-1.76-.67-2.72 0 0 1.54-6.15 1.56-6.22.42-1.24 2.08-4.47 5.41-4.47h10.37c3.33 0 4.43 3.31 4.85 4.55.02.07 1.56 6.22 1.56 6.22.24.96 0 1.98-.67 2.72Zm-12.04-6.93s-2.26-.79-3.37-.79c-2.82 0-2.22 2.77-2.22 2.77l5.59-1.99Zm6.13-1.03c-.29-.09-.58-.13-.86-.13-1.75 0-3.22 1.54-3.22 1.54l5.22 1.11s.95-1.86-1.15-2.52ZM22.56 10.01A7.064 7.064 0 0 1 28.93 6c1.62 0 3.11.55 4.3 1.47-.07.53-.22.95-.47 1.23-.91 1-3.34.97-5.5.95-1.63-.01-3.28-.02-4.69.36Zm12.41.71c-1.81 1.99-4.97 1.96-7.75 1.94-1.98-.02-4.22-.04-4.84.75-.28.35-.38.83-.22 1.72.88 2.9 3.58 5.02 6.77 5.02A7.07 7.07 0 0 0 36 13.08c0-1.03-.22-2-.62-2.88-.12.18-.26.36-.41.53Z"/></svg>
