<svg xmlns="http://www.w3.org/2000/svg" viewBox="0 0 48 48"><title>Winkelwagen</title><path d="m15.09 10-.18-1.45-.02-.13A2.909 2.909 0 0 0 12.02 6H6v3h6l2.19 18.09-1.28 2.39c-.86 1.59-.69 3.5.5 4.94.86 1.05 2.2 1.58 3.55 1.58h20.03v-3h-20.2c-.73 0-1.09-.48-1.22-.69-.12-.21-.37-.76-.02-1.41l1.02-1.9 19.5-.03c2.27-.13 4.09-1.93 4.24-4.12L41.99 10h-26.9Zm.37 3h5.53v5h-5l-.53-5Zm5.52 13h-4l-.55-5H21l-.02 5ZM30 26h-6v-5h6v5Zm0-8h-6v-5h6v5Zm7.34 6.6c-.05.76-.66 1.36-1.34 1.4l-3 .03V21h4.76l-.42 3.6ZM38 18h-5v-5h5.63L38 18ZM16.99 39.47a2.48 2.48 0 1 1-4.96 0 2.48 2.48 0 0 1 4.96 0Zm20.01 0a2.48 2.48 0 1 1-4.96 0 2.48 2.48 0 0 1 4.96 0Z"/></svg>
