<svg xmlns="http://www.w3.org/2000/svg" viewBox="0 0 48 48"><title>Zelfstandig wonen</title><path d="M15.65 37h3.17c-.68 2.86-3.25 5-6.32 5C8.92 42 6 39.08 6 35.5c0-3.07 2.14-5.64 5-6.32v3.17c-1.18.56-2 1.76-2 3.15 0 1.93 1.57 3.5 3.5 3.5 1.39 0 2.58-.82 3.15-2Zm-.14-13c1.38 0 2.49-1.12 2.49-2.5S16.88 19 15.51 19s-2.49 1.12-2.49 2.5 1.12 2.5 2.49 2.5Zm5.52 8H18v-4c0-1.38-1.12-2.5-2.49-2.5S13 26.62 13 28v4.53c0 1.36 1.11 2.47 2.47 2.47H21v7h3v-7.03c0-1.64-1.34-2.97-2.97-2.97Zm21.53-11.98-1.97 2.26-2.05-1.78V36H27v-1.03A5.98 5.98 0 0 0 21.03 29H21v-1c0-1.21-.4-2.34-1.06-3.25.67-.91 1.06-2.04 1.06-3.25 0-3.03-2.46-5.5-5.49-5.5-.12 0-.24.01-.35.02l11.37-9.94 9.02 7.85v-2.92h3v5.53l4.02 3.49ZM30.54 22h-8v6h8v-6Z" style="fill:#000;stroke-width:0"/></svg>
