<svg xmlns="http://www.w3.org/2000/svg" viewBox="0 0 48 48"><title>Zoeken</title><path d="M23.85 9.06c-4.08-4.08-10.71-4.08-14.79 0-4.08 4.08-4.08 10.71 0 14.79 2.04 2.04 4.72 3.06 7.39 3.06 2.18 0 4.35-.69 6.18-2.03l1.82 1.68a2.01 2.01 0 0 0 0 2.85l12 12c.79.79 2.06.79 2.85 0l2.11-2.11c.79-.79.79-2.06 0-2.85l-12-12c-.78-.78-2.05-.79-2.84 0l-1.81-1.66c3.12-4.1 2.82-9.98-.92-13.72Zm-2.06 12.73c-2.94 2.94-7.72 2.94-10.67 0-2.94-2.94-2.94-7.73 0-10.67 1.47-1.47 3.4-2.21 5.33-2.21s3.86.73 5.33 2.21c2.94 2.94 2.94 7.73 0 10.67Z"/></svg>
