<svg xmlns="http://www.w3.org/2000/svg" viewBox="0 0 48 48"><title>Zwemmen</title><path d="M24.02 24.01c.55 0 1.1.06 1.65.18 1.32.29 2.34 1.03 3.57 1.48.58.21 1.15.31 1.72.31.94 0 1.86-.27 2.74-.74 1.4-.75 2.94-1.18 4.47-1.18 1.32 0 2.62.32 3.84 1.02v3.27c-.69-.3-1.35-.65-2.07-.94-.64-.25-1.27-.37-1.91-.37-.92 0-1.83.25-2.69.72-1.44.77-2.95 1.2-4.47 1.2-1.27 0-2.55-.3-3.79-.97-.99-.53-1.99-.98-3.11-.98-.16 0-.33 0-.5.03-1.25.15-2.17.84-3.29 1.3-1.03.43-2.11.66-3.2.66-.6 0-1.21-.07-1.81-.21-1.16-.28-2.08-.9-3.16-1.35a4.6 4.6 0 0 0-1.8-.37c-1.5 0-2.77.77-4.2 1.33v-3.31c.59-.3 1.18-.57 1.82-.76.72-.2 1.45-.3 2.18-.3 1.08 0 2.16.22 3.18.65 1.2.5 2.19 1.24 3.55 1.33h.25c1.29 0 2.29-.61 3.43-1.15a8.46 8.46 0 0 1 3.62-.84Zm0 6c.55 0 1.1.06 1.65.18 1.32.29 2.34 1.03 3.57 1.48.58.21 1.15.31 1.72.31.94 0 1.86-.27 2.74-.74 1.4-.75 2.94-1.18 4.47-1.18 1.32 0 2.62.32 3.84 1.01v3.27c-.69-.3-1.35-.65-2.07-.94-.64-.25-1.27-.37-1.91-.37-.92 0-1.83.25-2.69.72-1.44.77-2.95 1.2-4.47 1.2-1.27 0-2.55-.3-3.79-.96-.99-.53-1.99-.98-3.11-.98-.16 0-.33 0-.5.03-1.25.15-2.17.84-3.29 1.3-1.03.43-2.11.65-3.2.65-.6 0-1.21-.07-1.81-.21-1.16-.28-2.08-.9-3.16-1.35a4.6 4.6 0 0 0-1.8-.37c-1.5 0-2.77.77-4.2 1.33v-3.31c.59-.3 1.18-.57 1.82-.76.72-.2 1.45-.3 2.18-.3 1.08 0 2.16.22 3.18.65 1.2.5 2.19 1.24 3.55 1.33h.25c1.29 0 2.29-.61 3.43-1.15a8.46 8.46 0 0 1 3.62-.84Zm7.66-7.15c-.23.05-.49.12-.71.12-.35 0-.69-.06-1.03-.19-.39-.14-.79-.34-1.21-.55-.74-.37-1.59-.78-2.61-1.01-.68-.15-1.38-.23-2.08-.23-1.51 0-3.06.36-4.48 1.03-.18.09-.35.17-.53.26-.88.43-1.44.7-2.04.7h-.13c-.55-.03-1.09-.3-1.76-.64-.26-.13-.4-.23-.69-.36l7.92-4.5-2.8-1.25-8.54 4.75c-.58-1.74.15-3.65 1.75-4.56l5.29-2.99a3.71 3.71 0 0 1 3.61.05l5.51 2.62c.59.25 1.11.68 1.45 1.28l3.07 5.45ZM36 22c2.21 0 4-1.79 4-4s-1.79-4-4-4-4 1.79-4 4 1.79 4 4 4Z" style="fill-rule:evenodd"/></svg>
