<svg xmlns="http://www.w3.org/2000/svg" viewBox="0 0 48 48"><title>Zwemabonnement</title><path d="M28 9.02v8.97c0 1.66-1.36 3.01-3.03 3.01H9.04C7.36 21 6 19.65 6 17.98V9.01C6 7.35 7.36 6 9.04 6h15.92c1.68 0 3.05 1.35 3.05 3.02Zm-15.5 4.46c.96 0 1.74-.78 1.74-1.75s-.78-1.75-1.74-1.75-1.74.78-1.74 1.75.78 1.75 1.74 1.75Zm0 .89c-1.17 0-3.5.59-3.5 1.75V17h7v-.88c0-1.17-2.33-1.75-3.5-1.75ZM19 13h6v-2h-6v2Zm0 4h5v-2h-5v2Zm-6.03 14.51-1.72-3.18 5.68-3.06c1.13-.61 2.5-.59 3.61.04l7.15 4.08c1.08.62 3.9 4.04 5.17 6.04a.3.3 0 0 1-.1.04c-.62.33-1.22.5-1.79.5-.35 0-.69-.06-1.04-.19-.39-.14-.79-.34-1.21-.55-.74-.37-1.59-.78-2.61-1.01-.68-.15-1.38-.22-2.08-.22-1.51 0-3.06.36-4.48 1.03-.18.08-.35.17-.53.26-.87.43-1.44.7-2.04.7h-.13c-.55-.03-1.09-.3-1.76-.64-.26-.13-.54-.27-.83-.4l8.1-4.44-3.69-2.1-5.72 3.1Zm11.05 5.5c.55 0 1.1.06 1.65.18 1.32.29 2.34 1.03 3.57 1.48.58.21 1.15.31 1.72.31.94 0 1.86-.27 2.74-.74 1.4-.75 2.94-1.18 4.47-1.18 1.32 0 2.63.32 3.84 1.01v3.27c-.69-.3-1.35-.65-2.07-.94-.64-.25-1.27-.37-1.91-.37-.92 0-1.82.25-2.69.72-1.44.77-2.95 1.2-4.47 1.2-1.27 0-2.55-.3-3.79-.96-.99-.53-1.99-.98-3.11-.98-.16 0-.33 0-.5.03-1.25.15-2.17.84-3.29 1.3-1.03.43-2.11.65-3.2.65-.6 0-1.21-.07-1.81-.21-1.16-.28-2.09-.9-3.17-1.35a4.6 4.6 0 0 0-1.8-.37c-1.5 0-2.77.77-4.21 1.33v-3.31c.59-.3 1.18-.57 1.82-.76.72-.2 1.45-.3 2.18-.3 1.08 0 2.16.22 3.18.65 1.2.5 2.19 1.24 3.55 1.33h.25c1.29 0 2.29-.61 3.43-1.15a8.46 8.46 0 0 1 3.62-.84M36 26c-2.21 0-4 1.79-4 4s1.79 4 4 4 4-1.79 4-4-1.79-4-4-4Z"/></svg>
