<svg xmlns="http://www.w3.org/2000/svg" viewBox="0 0 48 48"><title>Zwemmen</title><path d="M38.16 31.07c1.32 0 2.62.32 3.84 1.01v3.27c-.69-.3-1.35-.65-2.07-.94-.64-.25-1.27-.37-1.91-.37-.92 0-1.83.25-2.69.72-1.44.77-2.95 1.2-4.47 1.2-1.27 0-2.55-.3-3.79-.97-.99-.53-1.99-.98-3.11-.98-.16 0-.33 0-.5.03-1.25.15-2.17.84-3.29 1.3-1.03.43-2.11.66-3.2.66-.6 0-1.21-.07-1.81-.21-1.16-.28-2.09-.9-3.17-1.35a4.6 4.6 0 0 0-1.8-.37c-1.5 0-2.77.77-4.21 1.33v-3.31c.59-.3 1.18-.57 1.82-.76.72-.2 1.45-.3 2.18-.3 1.08 0 2.16.22 3.18.65 1.2.5 2.19 1.24 3.55 1.33h.25c1.29 0 2.29-.61 3.43-1.15a8.46 8.46 0 0 1 3.62-.84c.55 0 1.1.06 1.65.18 1.32.29 2.34 1.03 3.57 1.48.58.21 1.15.31 1.72.31.94 0 1.86-.27 2.74-.74 1.4-.75 2.94-1.18 4.46-1.18Zm0-6c-1.53 0-3.06.43-4.46 1.18-.88.47-1.8.74-2.74.74-.57 0-1.14-.1-1.72-.31-1.23-.45-2.25-1.19-3.57-1.48a7.72 7.72 0 0 0-1.65-.18c-1.24 0-2.48.3-3.62.84-1.13.54-2.14 1.15-3.43 1.15h-.25c-1.36-.08-2.35-.83-3.55-1.33-1.03-.43-2.1-.65-3.18-.65-.73 0-1.46.1-2.18.3-.64.18-1.23.46-1.82.76v3.31c1.44-.56 2.71-1.33 4.21-1.33.56 0 1.15.11 1.8.37 1.08.44 2 1.07 3.17 1.35.6.14 1.2.21 1.81.21 1.09 0 2.18-.23 3.2-.66 1.12-.47 2.04-1.15 3.29-1.3.17-.02.33-.03.5-.03 1.12 0 2.12.45 3.11.98 1.24.66 2.52.97 3.79.97 1.52 0 3.03-.43 4.47-1.2.87-.46 1.77-.72 2.69-.72.63 0 1.27.12 1.91.37.72.29 1.38.64 2.07.94v-3.27a7.638 7.638 0 0 0-3.84-1.01Zm-2.63-3.06a3.53 3.53 0 1 0 .001-7.059 3.53 3.53 0 0 0-.001 7.059ZM16.73 24h.25c1.29 0 2.29-.61 3.43-1.15a8.46 8.46 0 0 1 3.62-.84c.55 0 1.1.06 1.65.18 1.32.29 2.34 1.03 3.57 1.48.58.21 1.15.31 1.72.31.41 0 .81-.23 1.21-.46l-5.87-8.56A5.463 5.463 0 0 0 21.43 12h-6.92c-.83 0-1.5.67-1.5 1.5s.67 1.5 1.5 1.5h6.92c.95 0 1.81.53 2.24 1.38.03.05.05.1.08.15l.63.97-9.07 6.16c.44.17.91.3 1.42.33Z"/></svg>
