<svg xmlns="http://www.w3.org/2000/svg" viewBox="0 0 48 48"><title>Afvalcontainerpas</title><path d="M32 16h-9v-3h9v3Zm-3-8h1v3h2V8h1c.55 0 1-.45 1-1s-.45-1-1-1h-4c-.55 0-1 .45-1 1s.45 1 1 1Zm-1 21.47V40a2 2 0 0 1-2 2H7.47C6.66 42 6 41.34 6 40.53V29.47c0-.81.66-1.47 1.47-1.47h19.06c.81 0 1.47.66 1.47 1.47Zm-16.23 3.35c0 .97.78 1.75 1.74 1.75s1.74-.78 1.74-1.75-.78-1.75-1.74-1.75-1.74.78-1.74 1.75Zm5.23 4.3c0-1.16-2.33-1.75-3.5-1.75s-3.5.59-3.5 1.75v.87h7v-.87Zm6-1.13h-4v2h4v-2Zm1-4h-5v2h5v-2Zm7 3v3h11v-3H31Zm0-3h8V15c0-1.1-.9-2-2-2h-3v9c0 .55-.45 1-1 1H22c-.55 0-1-.45-1-1v-9h-3c-1.1 0-2 .9-2 2v3.82l.03 6.18H27c2.21 0 4 1.79 4 4v3Z"/></svg>
