<svg xmlns="http://www.w3.org/2000/svg" viewBox="0 0 48 48"><title>Afvalkalender</title><path d="M38 9v6H10V8.98L14 9v3h1.98L16 6h3v2.98L27 9v3h2V6h3.01v3H38Zm-28 9h28v19c0 3.21-1.79 5-4 5H14c-2.21 0-4-1.79-4-4V18Zm12 19.5c0-.83-.67-1.5-1.5-1.5s-1.5.67-1.5 1.5.67 1.5 1.5 1.5 1.5-.67 1.5-1.5ZM29.01 26h-9.99L19 34.97c.69-.44 1.57-.62 2.5-.33.88.27 1.6.97 1.91 1.83.34.94.18 1.82-.23 2.53h2.98c.78 0 1.43-.6 1.49-1.38L29.01 26Zm-11.02-2 13-.03V22h-1.94c0-.55-.45-1-1-1h-8.03c-.56 0-1.02.46-1.02 1.02L17.99 22v2Z"/></svg>
