<svg xmlns="http://www.w3.org/2000/svg" viewBox="0 0 48 48"><title>Afvalcontainer afvalzak</title><path d="M21.91 41.18c-.21.51-.65.82-1.16.82H7.29c-.51 0-.95-.31-1.16-.82-.18-.44-.08-.94.16-1.35.9-1.48 1.4-2.62 1.49-3.39.08-.76.14-.69.19-1.38.13-1.7.25-4.34.74-5.47.47-1.08 4.19-3 4.19-3l-1.86-3.85c-.31-.47.49-.93 1.16-.66l.94.37c.63.25 1.35.38 2.08.38h.82c.6 0 .99.41.72.77l-1.25 3s3.32 1.89 3.81 3c.5 1.13.61 3.77.74 5.47.05.69.11.62.19 1.38.09.77.59 1.9 1.49 3.39.25.4.34.91.16 1.35ZM29 8h1v3h2V8h1c.55 0 1-.45 1-1s-.45-1-1-1h-4c-.55 0-1 .45-1 1s.45 1 1 1Zm-9.5 13.86c.49.99.46 2.12-.05 3.07l-.2.48c1.46 1.05 2.41 2.05 2.82 2.98.5 1.14.7 2.66.85 4.61H39V15c0-1.1-.9-2-2-2h-3v12c0 .55-.45 1-1 1H22c-.55 0-1-.45-1-1V13h-3c-1.1 0-2 .9-2 2v4.82h.04c1.51 0 2.84.78 3.46 2.04ZM32 13h-9v4h9v-4Zm10 23H23.23s0 .06.01.09c0 .02.11.61 1.07 2.18.14.23.26.48.35.73h17.33v-3Z"/></svg>
