<svg xmlns="http://www.w3.org/2000/svg" viewBox="0 0 48 48"><title>Afvalbak afvalzak</title><path d="M32 11H8V8h2v-.04C10 6.88 10.88 6 11.96 6H26c1.1 0 2 .9 2 2h4v3ZM18.92 37.92c-.03.2-.07.39-.12.58l-.03.13c-.14.49-.33.95-.58 1.37h2.91c.09-.6.3-1.19.63-1.73.96-1.58 1.07-2.16 1.07-2.18.05-.41.09-.66.13-.89.02-.13.03-.17.05-.37.02-.24.04-.5.06-.78.17-2.47.34-4.32.93-5.66.41-.93 1.35-1.93 2.82-2.98L28.01 14H10l-.04 17.83A5.92 5.92 0 0 1 13 31c3.31 0 6 2.69 6 6 0 .25-.02.49-.05.74 0 .06-.02.12-.03.18ZM13 34c-1.66 0-3 1.34-3 3s1.34 3 3 3 3-1.34 3-3-1.34-3-3-3Zm11.13 7.18c.21.51.65.82 1.16.82h13.47c.51 0 .95-.31 1.16-.82.18-.44.08-.94-.16-1.35-.9-1.48-1.4-2.62-1.49-3.39-.08-.76-.14-.69-.19-1.38-.13-1.7-.25-4.34-.74-5.47-.47-1.08-4.19-3-4.19-3l1.86-3.85c.31-.47-.49-.93-1.16-.66l-.94.37c-.63.25-1.35.38-2.08.38h-.82c-.6 0-.99.41-.72.77l1.25 3s-3.32 1.89-3.81 3c-.5 1.13-.61 3.77-.74 5.47-.05.69-.11.62-.19 1.38-.09.77-.59 1.9-1.49 3.39-.25.4-.34.91-.16 1.35Z"/></svg>
