<svg xmlns="http://www.w3.org/2000/svg" viewBox="0 0 48 48"><title>Afval GFT</title><path d="M16 37c0 1.66-1.34 3-3 3s-3-1.34-3-3 1.34-3 3-3 3 1.34 3 3ZM27 8c0-1.1-.9-2-2-2H11.96C10.88 6 10 6.88 10 7.96V8H8v3h23V8h-4Zm-8 17.23v-2.22c0-2.21 1.79-4 4-4h3.42l.58-5H10l-.04 17.83a5.92 5.92 0 0 1 3.04-.83c3.31 0 6 2.69 6 6 0 .25-.02.49-.05.74 0 .06-.02.12-.03.18-.03.2-.07.39-.12.58l-.03.13c-.14.49-.33.95-.58 1.37h3.12c1.41 0 2.59-.98 2.91-2.31-3.08-2.68-4.9-6.91-5.22-12.46ZM38.92 40.8c-.59-5.3-2.96-8.69-7.46-10.7-.5-.22-.73-.82-.51-1.32.23-.5.82-.73 1.32-.51 3.37 1.5 5.72 3.76 7.15 6.81.56-1.35.59-2.52.59-3.16-.02-8.7-8.16-10-13-10H23c-.55 0-1 .45-1 1v2.06c.62 10.7 6.87 12.94 12 12.94h2.34c.32.94.54 1.97.67 3.11.06.51.49.89.99.89h.11c.49-.06.84-.46.87-.94-.02-.06-.05-.11-.05-.18Z"/></svg>
