<svg xmlns="http://www.w3.org/2000/svg" viewBox="0 0 48 48"><title>Airborne</title><path d="M38.94 16.38c0 .11-.02.22-.02.33-.04 0-15.21 25.3-15.21 25.3L9.07 16.78l.1-.06s-.06 0-.08-.01c0-.11-.02-.22-.02-.33 0-3.99 3.23-7.45 7.97-9.19-2.16 2.49-3.52 6.1-3.52 10.13-.65-.07-1.31-.15-1.95-.23l10.16 17.47-4.33-16.87c-.64-.04-1.25-.1-1.87-.16v-.21c0-5.1 2.42-9.44 5.79-10.98-1.22 2.6-1.8 6.98-1.8 11.16v.31l4.29 16.75s4.66-16.75 4.63-16.75v-.31c0-4.21-.58-8.62-1.83-11.21 3.42 1.5 5.9 5.88 5.9 11.03v.21c-.63.06-1.24.11-1.88.16l-4.74 16.87 10.36-17.44c-.57.08-1.16.14-1.74.2 0-4.03-1.37-7.64-3.52-10.13 4.74 1.74 7.97 5.2 7.97 9.19ZM23.85 5.99c-.79.43-2.37 4.44-2.37 11.51v.38c.84.02 1.67.04 2.52.04s1.63-.01 2.44-.03v-.38c0-7.1-1.59-11.1-2.38-11.51h-.21Z"/></svg>
