<svg xmlns="http://www.w3.org/2000/svg" viewBox="0 0 48 48"><title>Armoede</title><path d="M27.13 12h11.2l3.19 5H30.28l-3.16-5Zm10.84-3V5.94L23.92 6l.05 3h14Zm-7 11v20h-3V18.94L23.62 12h-.04l-3.61 5.7v7.41c.55.24 1.07.53 1.56.88 2.34 1.7 3.59 4.51 3.42 7.71-.18 3.44-1.32 6.35-3.15 8.29h9.15l11.01-.05V19.99h-11Zm-19.09 1.44a6 6 0 0 0 2.14.4c1.56 0 3.04-.63 4.08-1.81l-2.25-1.98c-.68.77-1.81 1-2.9.59-.6-.23-1.1-.62-1.52-1.14h2.55v-3h-3.65a5.848 5.848 0 0 1 .04-1.5h3.62v-3h-2.33c.36-.38.78-.68 1.26-.86 1.07-.41 2.19-.18 2.86.58l2.25-1.98c-1.5-1.7-3.92-2.25-6.17-1.4-1.7.64-2.98 1.94-3.75 3.67H5.98v3h1.36c-.02.19-.02.39-.03.58h-.03c0 .09.01.18.02.27 0 .09-.02.18-.02.27h.03c0 .13.01.25.02.37H5.98v3h2.01c.76 1.88 2.1 3.27 3.9 3.94Zm10.08 12.23c.12-2.32-.73-4.33-2.33-5.51-1.17-.87-2.64-1.21-4.2-1.01-.13-1.86-.67-3.11-1.86-4.37l-2.12 2.05c.61.65.93 1.19 1.04 2.31-1.53-.18-2.98.17-4.13 1.02-1.6 1.18-2.45 3.19-2.33 5.51.19 3.63 1.83 6.71 4.19 7.85 1.27.61 2.59.58 3.78-.06.66.36 1.36.55 2.07.55a4.2 4.2 0 0 0 1.84-.43c2.31-1.11 3.87-4.14 4.06-7.9Z"/></svg>