<svg xmlns="http://www.w3.org/2000/svg" viewBox="0 0 48 48"><title>Auto</title><path d="M42.01 18.82v-1.67c0-.63-.51-1.15-1.14-1.15h-1.61l-1.59-4.92c-.6-1.83-2.31-3.06-4.26-3.07H14.69c-1.94 0-3.65 1.24-4.25 3.07l-1.65 4.93H7.14c-.63 0-1.14.51-1.14 1.15v1.67c0 .63.51 1.15 1.14 1.15h.32l-1.45 1.98V38.4c0 .89.72 1.61 1.61 1.61h2.79c.89 0 1.61-.72 1.61-1.61V35h24v3.4c0 .89.72 1.61 1.61 1.61h2.79c.89 0 1.61-.72 1.61-1.61V21.96l-1.45-1.98h.32c.63 0 1.14-.51 1.14-1.15ZM12.5 30.01c-1.38 0-2.5-1.11-2.5-2.46s1.12-2.46 2.5-2.46S15 26.2 15 27.55s-1.12 2.46-2.5 2.46ZM29 28.96H19V26h10v2.96Zm6.5 1c-1.38 0-2.5-1.11-2.5-2.46s1.12-2.46 2.5-2.46S38 26.15 38 27.5s-1.12 2.46-2.5 2.46ZM10.59 20l2.68-7.99c.2-.6.77-1.01 1.42-1.01H33.4c.65 0 1.22.41 1.42 1l2.6 8.02L10.59 20Z"/></svg>
