<svg xmlns="http://www.w3.org/2000/svg" viewBox="0 0 48 48"><title>Begroting</title><path d="M8 33h9v9h-.06L8 33.03V33Zm30.82 5.97-.38.26c-1.92 1.3-4.29.94-5.89-.89-.35-.4-.62-.86-.86-1.34h5.3v-2h-5.92c-.09-.66-.1-1.34 0-2H37v-2h-5.31c.22-.44.47-.87.79-1.26 1.58-1.88 4.03-2.28 5.96-.98l.37.25 1.17-1.62-.43-.29c-2.81-1.89-6.35-1.34-8.61 1.35-.63.75-1.11 1.62-1.43 2.54h-2.52v2h2.08a9.55 9.55 0 0 0 0 2H27v2h2.52c.34.97.85 1.88 1.53 2.66C32.4 41.19 34.19 42 36.01 42c1.22 0 2.45-.36 3.56-1.11l.44-.3-1.17-1.62ZM30.61 42H19.99v-8.97c0-1.67-1.35-3.03-3.03-3.03H7.99V7.97C7.99 6.88 8.87 6 9.96 6h24.05c1.09 0 1.97.88 1.97 1.97V24c-2.43 0-4.84 1.09-6.58 3.16-.47.56-.87 1.17-1.21 1.83h-3.21v10h3.21c.37.72.82 1.38 1.34 1.98.33.38.7.72 1.07 1.03ZM13.96 14.9h16v-2h-16v2Zm0 5.05h16v-2h-16v2Zm9.37 2.97h-9.37v2h9.37v-2Z"/></svg>
