<svg xmlns="http://www.w3.org/2000/svg" viewBox="0 0 48 48"><title>Belastingen</title><path d="M41 10.54v8.95c0 .84-.68 1.53-1.53 1.53h-4.88l.3-.49 1.53-2.51H38v-6H10v6h1.8l-.35.57-1.48 2.43H8.53c-.84 0-1.53-.68-1.53-1.53v-8.95c0-.84.68-1.53 1.53-1.53h30.95c.84 0 1.53.68 1.53 1.53Zm-16.79 3.47 8.11 4.95L20 38.98l-13-7 5.41-9.37 2.61 1.44 1.56-2.56-2.61-1.44L17.76 14h6.44Zm-1.04 14.92-2.56-1.56-4.17 6.83L19 35.76l4.17-6.83Zm.08-6.89 1.81-3.08-1.72-1.01-1.81 3.07c-.38-.49-.57-1.07-.52-1.66.05-.58.33-1.1.78-1.46l.78-.63-1.25-1.56-.78.63c-.88.71-1.41 1.72-1.51 2.84-.1 1.19.29 2.36 1.1 3.29.11.13.24.23.36.34l-.69 1.18L21.52 25l.69-1.17c1.41.46 2.98.25 4.16-.7.39-.31.71-.69.96-1.12.25-.42.42-.89.51-1.38l.17-.99-1.97-.34-.17.99c-.09.5-.35.96-.75 1.28-.53.42-1.2.57-1.86.47Z"/></svg>
