<svg xmlns="http://www.w3.org/2000/svg" viewBox="0 0 48 48"><title>Betaaldatums uitkering</title><path d="M6 15V8.98L10 9v3h1.98L12 6h3v2.98L23 9v3h2V6h3.01v3H34v6H6Zm34.44 24.23c-1.92 1.3-4.29.94-5.89-.89-.35-.4-.62-.86-.86-1.34h5.3v-2h-5.92c-.09-.66-.1-1.34 0-2H39v-2h-5.31c.22-.44.47-.87.79-1.26 1.58-1.88 4.03-2.28 5.96-.98l.37.25 1.17-1.62-.43-.29c-2.81-1.89-6.35-1.34-8.61 1.35-.63.75-1.11 1.62-1.43 2.54h-2.52v2h2.08a9.55 9.55 0 0 0 0 2H29v2h2.52c.34.97.85 1.88 1.53 2.66C34.4 41.19 36.19 42 38.01 42c1.22 0 2.45-.36 3.56-1.11l.44-.3-1.17-1.62-.38.26ZM31.57 41c.1.11.2.21.31.32-.56.41-1.21.68-1.89.68H9.98c-2.2 0-3.99-2.82-3.98-4V18h27.98v3H34v4.04c-.95.52-1.83 1.23-2.58 2.13-.47.56-.87 1.17-1.21 1.83H27v10h3.21c.37.72.82 1.38 1.34 1.98 0 .01.02.02.03.03ZM18 25h4v-3h-4v3Zm0 6h4v-3h-4v3Zm-4 3h-4v3h4v-3Zm0-6h-4v3h4v-3Zm0-6h-4v3h4v-3Zm9.96 11.81-1.41-1.41-3.19 3.19-1.42-1.41-1.42 1.41 2.83 2.83 4.61-4.61ZM26 25h4v-3h-4v3Z"/></svg>
