<svg xmlns="http://www.w3.org/2000/svg" viewBox="0 0 48 48"><title>Bevrijding</title><path d="m41 22.4-1.41-1.41-12.97 13c-3.65.23-6.55 3.26-6.55 6.97V42h1.01c3.71 0 6.74-2.91 6.96-6.61l.99-.99c-.21 2.02.46 4.12 2 5.66l.73.73.66-.66.1-.1c2.59-2.61 2.69-6.65.31-9.44l1.67-1.68c-.2 2.02.46 4.12 2 5.66l.73.73.71-.71c2.59-2.6 2.71-6.75.36-9.5l2.68-2.68ZM23.71 30h.28c2.92 0 4.66-1.11 5.6-2.04 1.39-1.38 2.33-3.6 2.33-5.53 0-.88.36-1.29 1.26-1.45h2.83l-.85-1.49-.75-1.32c.13-.72.04-1.44-.26-2.14-.47-1.07-1.4-1.87-2.5-2.13-.3-.07-.59-.1-.89-.1-.66 0-1.31.17-1.88.5-.34.2-.63.44-.89.73l-.86.95-.33.37-.29.33c.08.08.15.16.23.26l.3.37s.1.15.16.25c.15.25.26.43.34.61.08.18.15.38.22.58l.03.1c.12.35.26.88.25 1.5l-2.47-.02c-.03-.15-.07-.3-.12-.46l-.03-.08c-.04-.11-.08-.22-.12-.32-.06-.12-.12-.24-.2-.35-.07-.12-.1-.17-.14-.22l-.13-.16c-.17-.2-.31-.34-.46-.47L13.56 6.52l-.06-.06-.07-.05c-.37-.26-.8-.4-1.25-.4-1.18 0-2.17 1.01-2.17 2.2 0 .98.41 1.45.76 1.74-.39.49-.62 1.26-.62 2.12 0 1.08.62 2.05 1.62 2.53-.38.55-.58 1.19-.58 1.85 0 1.38.9 2.63 2.23 3.1-.53.78-.81 1.68-.81 2.62 0 1.87 1.25 3.42 2.86 4.18l-.23-.1h-.02c.28.16.57.29.89.37L16 29.47c-1.42-.11-2.88-.59-3.79-1.98l-3.7 1.48c-.9.33-1.5 1.17-1.5 2.13 0 .84.47 1.61 1.22 2.01a2.88 2.88 0 0 0-.12 1.88c.22.84.88 1.56 1.71 1.87a2.779 2.779 0 0 0 2.43-.2c.39.78 1.16 1.26 2.02 1.26s1.59-.45 1.99-1.19l2.31-4.66c.11-.19 1.22-2.06 3.21-2.06h1.93Zm7.35-13.59c.55 0 1 .45 1 1s-.45 1-1 1-1-.45-1-1 .45-1 1-1Z"/></svg>
