<svg xmlns="http://www.w3.org/2000/svg" viewBox="0 0 48 48"><title>Bijstandsuitkering</title><path d="M14.93 9.99c0-2.21 1.79-4 4-4s4 1.79 4 4-1.79 4-4 4-4-1.79-4-4ZM30.9 38h8.2s-.06.01-.09.01H39c0 2.2-1.79 3.99-4.99 3.99H8c-.98 0-2-.9-2-2V21.99a2 2 0 0 1 2-2h27c2.21 0 4 1.79 4 4v.02h-8c-.81 0-1.56.31-2.13.89-.57.57-.88 1.33-.87 2.14l.05 7.94c.01 1.58 1.24 2.88 2.85 3.03ZM16.1 28c.69-1.21 1.78-2 3.02-2 .79 0 1.55.32 2.2.93l.73.68 1.37-1.46-.73-.68c-1.02-.96-2.26-1.47-3.57-1.47-2.31 0-4.3 1.64-5.23 4H12v2h1.38c-.04.33-.07.66-.07 1s.03.67.07 1H12v2h1.89c.93 2.36 2.93 4 5.23 4 1.31 0 2.54-.51 3.56-1.47l.73-.68-1.37-1.46-.73.68c-.65.61-1.41.93-2.2.93-1.24 0-2.33-.79-3.02-2h3.9v-2h-4.6c-.05-.32-.08-.66-.08-1s.03-.68.08-1h4.6v-2h-3.9ZM31 17.01v-.02c0-2.21-1.79-4-4-4s-4 1.79-4 4v.02h8ZM39 9V6h-3v3h-3v3h3v3h3v-3h3V9h-3Zm-8 18.01h11v8H31.14c-.05-.01-.08-.05-.09-.06L31 27.01Zm1.5 4c0 .83.67 1.5 1.5 1.5s1.5-.67 1.5-1.5-.67-1.5-1.5-1.5-1.5.67-1.5 1.5Z"/></svg>
