<svg xmlns="http://www.w3.org/2000/svg" viewBox="0 0 48 48"><title>BijzondereBijstand</title><path d="M40.51,37.57l1.52,1.3-.65.76c-1.29,1.51-3,2.34-4.83,2.34s-3.55-.83-4.84-2.34c-.62-.72-1.08-1.56-1.41-2.45h-2.28v-2h1.8c-.08-.66-.1-1.32-.04-1.98h-1.76v-2h2.15c.31-.98.79-1.91,1.44-2.7,1.28-1.57,3.01-2.44,4.87-2.46,1.88,0,3.59.81,4.89,2.34l.65.76-1.52,1.3-.65-.76c-.91-1.07-2.07-1.68-3.35-1.64-1.26.01-2.45.62-3.35,1.72-.35.43-.62.92-.85,1.44h5.13v2h-5.67c-.07.66-.07,1.33.04,1.98h5.63v2h-4.96c.21.41.45.8.75,1.15.9,1.06,2.08,1.64,3.31,1.64s2.41-.58,3.31-1.64l.65-.76ZM22.51,18.41c-1.87,0-3.4,1.57-3.4,3.5s1.52,3.5,3.4,3.5,3.4-1.57,3.4-3.5-1.52-3.5-3.4-3.5ZM29.03,29.02h-3.11v4.02l-14.96-.02V6.02s22.99,0,22.99,0v18.53s-3.5.97-4.91,4.47ZM24.94,11.02h2v-2h-2v2ZM13.94,11.02h6v-2h-6v2ZM28.91,21.91c0-3.58-2.87-6.5-6.4-6.5s-6.4,2.92-6.4,6.5,2.87,6.5,6.4,6.5,6.4-2.92,6.4-6.5ZM28.94,11.02h2v-2h-2v2ZM21.99,34.98h-12.98v-2.99c-.18,0-.36,0-.54.03-1.21.21-2.2,1.2-2.41,2.41-.33,1.9,1.12,3.54,2.95,3.54h3.87c.57,0,1.04.46,1.04,1.03.02,1.64,1.35,2.97,3,2.97h3.92c1.77-.18,3.15-1.69,3.15-3.5v-1.5c0-1.1-.9-2-2-2Z"/></svg>