<svg xmlns="http://www.w3.org/2000/svg" viewBox="0 0 48 48"><title>Bouwen en verbouwen</title><path d="M9.86 15.97 5.97 10.6l3.54-3.54 5.5 3.95v2.83l4.96 5.05-2.15 2.15-5.12-5.07H9.87Zm20.75 3.72L11.3 38.91c-.69.69-1.79.69-2.48 0l-1.04-1.04c-.69-.69-.69-1.8 0-2.48l19.27-19.27-5.52-5.52L25 7.02h5.7l11.33 11.36-6.36 6.36-5.06-5.06Zm5.06.85 2.12-2.12-8.49-8.49h-2.79l-.74.71 9.9 9.9Zm1.8 11.67a4.49 4.49 0 0 1 0 6.36 4.503 4.503 0 0 1-6.37 0l-7.54-7.54.05-.05h-.01l5.42-5.43h.01l.89-.88 7.54 7.54Zm-2.12 2.12-5.43-5.43-2.12 2.12 5.43 5.43c.59.59 1.54.59 2.12 0 .59-.58.59-1.53 0-2.12Z"/></svg>
