<svg xmlns="http://www.w3.org/2000/svg" viewBox="0 0 48 48"><title>Buitengebied</title><path d="M42 27.2c-3.79-1.9-8.8-3.07-13.29-3.1.56-.93.94-1.92 1.13-2.96 4.18.11 8.29 1.02 12.16 2.74v3.31Zm.01 14.8h-3.13c-1.84-5.93-6.49-10.59-12.32-12.46.22-.28.42-.56.61-.86.36-.58.63-1.19.85-1.82 6.77 2.38 12.11 8.06 13.99 15.15ZM28.45 14.29l.55 1.09c.35.68.62 1.41.79 2.17.03.14.05.28.07.42 5.47.12 9.14 1.35 9.14 1.35v-5.36l1.03.9 1.83-2.38L39 10.04V5.99h-3v1.68l-2-1.68-5.93 4.8c.35 1.12.48 2.31.38 3.48ZM32 12h4v3h-4v-3Zm-6.81 3.28c.64-1.96.21-4.15-1.19-5.74a5.969 5.969 0 0 0-3.75-1.96c-.98-1-2.34-1.58-3.76-1.58s-2.77.57-3.76 1.57c-.79.1-1.55.35-2.24.73a5.944 5.944 0 0 0-2.71 6.98c-.16.15-.3.31-.44.48-1.87 2.27-1.74 5.57.18 7.71 0 .08-.02.17-.02.25-.19 3.26 2.34 6.07 5.68 6.27H15V42h3V30h1.49c.48 0 .96-.05 1.42-.17 2.93-.7 4.84-3.46 4.55-6.36.23-.25.43-.52.62-.81 1.5-2.38 1.07-5.47-.88-7.38Zm-7.2 6.83V27h-3v-1.89l-3.62-3.62 2.12-2.12 1.5 1.5v-6.86h3v3.87l1.5-1.5 2.12 2.12-3.62 3.62Z"/></svg>
