<svg xmlns="http://www.w3.org/2000/svg" viewBox="0 0 48 48"><title>Burgemeester</title><path d="M17.56 10.01A7.064 7.064 0 0 1 23.93 6c1.62 0 3.11.55 4.3 1.47-.07.53-.22.95-.47 1.23-.91 1-3.34.97-5.5.95-1.63-.01-3.28-.02-4.69.36Zm12.41.71c-1.81 1.99-4.97 1.96-7.75 1.94-1.98-.02-4.22-.04-4.84.75-.28.35-.38.83-.22 1.72.88 2.9 3.58 5.02 6.77 5.02A7.07 7.07 0 0 0 31 13.08c0-1.03-.22-2-.62-2.88-.12.18-.26.36-.41.53Zm-12.48 11.5c.48-.15.97-.25 1.5-.25H29c.52 0 1.01.1 1.49.25-2.03 3.94-4.48 7.17-5.22 8.11-.37-.22-.81-.36-1.28-.36s-.91.14-1.29.37c-.72-.91-3.17-4.15-5.22-8.11Zm16.5 4.74v12.05h-3v3h-14v-3h-3V26.97c0-1.48.66-2.79 1.68-3.71 1.77 3.61 4.19 6.87 5.83 8.87l.03.03c-.01.1-.03.21-.03.32a2.5 2.5 0 0 0 5 0c0-.1-.02-.19-.03-.29v-.01c1.64-1.99 4.08-5.26 5.86-8.91 1.01.91 1.66 2.22 1.66 3.69Z"/></svg>
