<svg xmlns="http://www.w3.org/2000/svg" viewBox="0 0 48 48"><title>Contact gemeente</title><path d="M19 34.52V42H6v-7.2C6 33.25 7.3 32 8.95 32h7.08c1.55 0 2.81 1.11 2.96 2.52ZM27 17V7.99C27 6.89 26.11 6 25.01 6H7.97C6.88 6 6 6.88 6 7.97V17c0 1.1.89 1.99 1.99 1.99h9.02v3.94l3.98-3.94H25c1.1 0 1.99-.89 1.99-1.99Zm4 6.99h9c1.09 0 1.97-.88 1.97-1.97v-9.04c0-1.09-.89-1.98-1.98-1.98H30v6c0 2.73-2.21 5-4.94 5H23c0 1.1.9 1.99 2 1.99h1.97L31 27.93v-3.94ZM39.04 37h-7.08c-1.65 0-2.95 1.25-2.95 2.8V42h13v-2.48C41.86 38.11 40.6 37 39.05 37ZM23 22v-.01Zm-10.5 8c1.93 0 3.5-1.57 3.5-3.5S14.43 23 12.5 23 9 24.57 9 26.5s1.57 3.5 3.5 3.5Zm23 4.97c1.94 0 3.51-1.57 3.51-3.51s-1.57-3.51-3.51-3.51-3.51 1.57-3.51 3.51 1.57 3.51 3.51 3.51Z"/></svg>
