<svg xmlns="http://www.w3.org/2000/svg" viewBox="0 0 48 48"><title>Cultuur</title><path d="M41.81 21.09a2.797 2.797 0 0 0-1.93-1.52l-4.1-.86c-.93-.19-1.81-.62-2.55-1.23l-3.26-2.68c-.67-.55-1.54-.75-2.37-.56-.62.15-1.15.49-1.53.98v8.34c0 3.42-1.7 6.41-4.78 8.56.58 1.4 1.49 2.79 2.74 4.12.93.99 2.17 1.59 3.51 1.69.41.03.8.04 1.19.04 4.15 0 7.28-1.7 8.68-4.75l4.44-9.66c.37-.8.35-1.7-.03-2.49Zm-14.63 2.13c.3-.67 1.08-.96 1.73-.65.65.31.94 1.1.63 1.77s-1.08.96-1.73.65a1.34 1.34 0 0 1-.63-1.77Zm2.94 9.87c-.13-.46-.64-.97-1.33-1.33-.87-.47-1.86-.63-2.52-.41l-.61-1.95c1.18-.39 2.7-.18 4.06.55 1.18.63 2.02 1.56 2.32 2.55l-1.91.59Zm5.44-5.75c-.3.67-1.08.96-1.73.65a1.34 1.34 0 0 1-.63-1.77c.3-.67 1.08-.96 1.73-.65.65.31.94 1.1.63 1.77Zm-11.5-3.81V12.85c0-.88-.39-1.7-1.07-2.24-.68-.54-1.55-.73-2.4-.53l-4.1 1.01c-.93.23-1.92.23-2.85 0l-4.1-1.01c-.85-.2-1.72-.01-2.4.53-.68.54-1.07 1.36-1.07 2.24v10.68c0 3.69 2.56 6.81 7.04 8.56.63.25 1.29.37 1.95.37s1.33-.12 1.96-.37c4.47-1.75 7.04-4.86 7.04-8.56Zm-13.98-4.87c0-.74.58-1.33 1.3-1.33s1.3.6 1.3 1.33-.58 1.33-1.3 1.33-1.3-.6-1.3-1.33Zm4.82 8.48h-.32c-1.33-.07-2.48-.55-3.15-1.32l1.49-1.36c.31.35.98.6 1.76.64.98.05 1.94-.23 2.45-.71l1.36 1.5c-.85.8-2.17 1.26-3.59 1.26Zm3.9-7.15c-.72 0-1.3-.6-1.3-1.33s.58-1.33 1.3-1.33 1.3.6 1.3 1.33-.58 1.33-1.3 1.33Z"/></svg>