<svg xmlns="http://www.w3.org/2000/svg" viewBox="0 0 48 48"><title>Eenzaamheid</title><path d="M8.99 31.51c0-1.94 1.57-3.51 3.51-3.51s3.51 1.57 3.51 3.51-1.57 3.51-3.51 3.51-3.51-1.57-3.51-3.51Zm7.04 5.54H8.95c-1.65 0-2.96 1.25-2.96 2.8v2.16h13v-2.44c-.15-1.41-1.41-2.52-2.96-2.52Zm15.96-5.54c0 1.94 1.57 3.51 3.51 3.51s3.51-1.57 3.51-3.51S37.44 28 35.5 28s-3.51 1.57-3.51 3.51ZM30.12 13H29v.36c0 .54-.08 1.09-.23 1.64h1.35c.48 0 .88-.34.88-.75v-.5c0-.41-.39-.75-.88-.75Zm8.91 24.04h-7.08c-1.65 0-2.96 1.25-2.96 2.8V42h13v-2.44c-.15-1.41-1.41-2.52-2.96-2.52ZM33.99 25h-10l-3.88 3.82c-.1.09-.22.14-.35.14-.06 0-.13-.01-.19-.04a.499.499 0 0 1-.31-.46l-.03-3.47h-5.25a2 2 0 0 1-2-2V8a2 2 0 0 1 2-2h20a2 2 0 0 1 2 2v15a2 2 0 0 1-2 2Zm-1-11.25c0-1.52-1.29-2.75-2.88-2.75h-1.12v-1h-12v3.36c0 2.04 1.12 4.36 2.78 5.64h-2.78c-.55 0-1 .45-1 1s.45 1 1 1h12c.55 0 1-.45 1-1s-.45-1-1-1h-2.78c.68-.53 1.26-1.23 1.72-2.01.02 0 .04.01.06.01h2.12c1.58 0 2.88-1.23 2.88-2.75v-.5Z"/></svg>
