<svg xmlns="http://www.w3.org/2000/svg" viewBox="0 0 48 48"><title>Enquete</title><path d="M32 12.51v19.5h-9c-.19 0-.37.05-.53.15l-8 5c-.29.18-.47.5-.47.85s.18.67.47.85l5.04 3.15H7.49C6.66 42 6 41.33 6 40.5V12.48c0-.82.66-1.48 1.48-1.48H11v2c0 1.1.9 2 2 2h12c1.1 0 2-.9 2-2v-2h3.49c.83 0 1.51.67 1.51 1.51Zm9 21.5H25v3h17v-2c0-.55-.45-1-1-1Zm0 8c.55 0 1-.45 1-1v-2H25v3h16Zm-18-7.82-4 2.5v2.64l4 2.5v-7.64ZM22 9.01c0-1.66-1.34-3-3-3s-3 1.34-3 3h-2c-.55 0-1 .45-1 1v2c0 .55.45 1 1 1h10c.55 0 1-.45 1-1v-2c0-.55-.45-1-1-1h-2Zm1 18h-8v2h8v-2Zm4-4H15v2h12v-2Zm0-4H15v2h12v-2Zm-14 8h-2v2h2v-2Zm0-4h-2v2h2v-2Zm0-4h-2v2h2v-2Z"/></svg>
