<svg xmlns="http://www.w3.org/2000/svg" viewBox="0 0 48 48"><title>Erfgoed</title><path d="M39.05 6v4h-2V6h-3v4h-3V6h-3v4h-2V6h-3v8.32l.54.45c.77.64 1.26 1.54 1.46 2.66v5.87c.21.25.47.55.69.8l.56.63c4.11 4.74 2.47 9.37.69 14.26h5.06v-4.84c0-1.19 1.12-2.16 2.5-2.16s2.5.97 2.5 2.16v4.84h3V17.48c.3-1.2.81-2.13 1.51-2.77l.49-.45V6h-3Zm-2 15h-3v-2.35c0-.83.67-1.5 1.5-1.5s1.5.67 1.5 1.5V21Zm-13.94 7.41 1.5-2.24-.53-.63c-.81-.96-1.44-1.72-1.44-2.26 0-.78-.03-4.27-.03-4.27h-8.04s-.03 3.5-.03 4.27c0 .32-.23.72-.58 1.19-.96-.82-2.08-1.27-3.25-1.27-1.85 0-3.56 1.14-4.27 2.83-.54 1.3-.93 3.98 2.48 7.39.29.29.66.62 1.06.97.57.5 1.22 1.07 1.53 1.48l.06.06c.24.76 2.03 6.07 2.03 6.07h9.98s.95-2.86 1.23-3.68c1.74-5.06 2.88-8.4-.19-12.15Zm-5.58-5.19V22h2.09v1.22c0 1.56.99 2.69 2.14 4l.51.58c.88 1.03 1.25 1.97 1.22 3.15h-9.84c-.03-1.18.33-2.12 1.22-3.15l.51-.58c1.15-1.31 2.14-2.44 2.14-4Zm-8.31 3.96c.28-.67.97-.98 1.49-.98.47 0 .93.21 1.37.61-.96 1.36-1.37 2.68-1.42 4.07-1.28-1.42-1.82-2.78-1.44-3.7Z"/></svg>