<svg xmlns="http://www.w3.org/2000/svg" viewBox="0 0 48 48"><title>F1</title><path fill-rule="evenodd" d="m14.49 19.61-1.41-1.42.71-2.12 1.41 1.41-.71 2.12ZM39 37.5c0 .53-.11 1.03-.28 1.5H42v-3l-3.61-.73c.38.66.61 1.42.61 2.23ZM34.5 36c-.83 0-1.5.67-1.5 1.5s.67 1.5 1.5 1.5 1.5-.67 1.5-1.5-.67-1.5-1.5-1.5Zm-21 0c-.83 0-1.5.67-1.5 1.5s.67 1.5 1.5 1.5 1.5-.67 1.5-1.5-.67-1.5-1.5-1.5Zm20.02-16.39 1.41-1.42-.71-2.12-1.41 1.41.71 2.12Zm-20.44 7.07-7.07-7.07 4.05-4.05.9-2.32L15.2 9l8.81 8.81L32.82 9l4.24 4.24.9 2.32 4.05 4.05-7.07 7.07-4.24-4.24-.71-2.12-2.83-2.83-1.74 1.74 3.92 3.92-1.41 1.41-3.92-3.92-3.92 3.92-1.41-1.41 3.92-3.92-1.74-1.74-2.83 2.83-.71 2.12-4.24 4.24Zm15.49-10.61 1.41 1.41 1.41-1.41 1.42 1.41-1.42 1.41.71 2.12 1.42-1.41 1.41 1.41-1.41 1.41 1.41 1.41 1.41-1.41-1.41-1.41 1.41-1.41 1.41 1.41 1.41-1.41-1.41-1.42-1.41 1.42-1.41-1.42 1.41-1.41-.71-2.12-1.41 1.41-1.41-1.41 1.41-1.41-1.41-1.41-1.42 1.41 1.42 1.41-1.42 1.41-1.41-1.41-1.41 1.41Zm-15.49 4.95-1.41 1.41 1.41 1.41 1.41-1.41-1.41-1.41 1.41-1.41 1.41 1.41.71-2.12-1.41-1.41 1.41-1.41 1.41 1.41 1.41-1.41-1.41-1.41-1.41 1.41-1.41-1.41 1.41-1.41-1.41-1.41-1.41 1.41 1.41 1.41-1.41 1.41-1.41-1.41-.71 2.12 1.41 1.41-1.41 1.42-1.41-1.42-1.41 1.42 1.41 1.41 1.41-1.41 1.41 1.41Zm18.7 12.91-4.79-.97v-.02c.12-1.19-.56-2.36-1.7-2.73-1.27-.41-2.47-.23-3.29.5v-1.72h-3.01l-9.99 4v-4H6v10H9.27c-.36-1-.44-2.13.2-3.39.78-1.53 2.33-2.62 4.05-2.61 2.47.01 4.47 2.02 4.47 4.5 0 .53-.11 1.03-.28 1.5h12.55c-.17-.47-.27-.97-.27-1.5 0-1.46.71-2.75 1.78-3.57Z"/></svg>
