<svg xmlns="http://www.w3.org/2000/svg" viewBox="0 0 48 48"><title>Gebruikersvraag</title><path d="M32 21.99H19.43c-2.36 0-3.43-1.91-3.43-4V16.1l-4-.06v1.95c0 4.26 2.9 8 7.43 8h.61v16l13.92-.08V39l3.03-.06.02-11.97c0-2.81-2.19-5-5-5ZM13.53 14H16V7c0-.55-.45-1-1-1s-1 .45-1 1l-.02 2h-.48a2.5 2.5 0 0 0 0 5h.04Zm7.03-3.99A7.064 7.064 0 0 1 26.93 6c1.62 0 3.11.55 4.3 1.47-.07.53-.22.95-.47 1.23-.91 1-3.34.97-5.5.95-1.63-.01-3.28-.02-4.69.36Zm12.41.71c-1.81 1.99-4.97 1.96-7.75 1.94-1.98-.02-4.22-.04-4.84.75-.28.35-.38.83-.22 1.72.88 2.9 3.58 5.02 6.77 5.02A7.07 7.07 0 0 0 34 13.08c0-1.03-.22-2-.62-2.88-.12.18-.26.36-.41.53Z"/></svg>
