<svg xmlns="http://www.w3.org/2000/svg" viewBox="0 0 48 48"><title>Geld</title><path d="M36 38c2.35 0 4.43-.47 6-1.27v3.28c0 .78-2.28 2.21-6 2.21s-6-1.43-6-2.21v-3.28c1.57.79 3.65 1.27 6 1.27Zm-9-12c0 .11.02.21.03.31-.01.08-.03.17-.03.26v3.53H5.9V10.9h31.21v10.14c-.36-.02-.73-.04-1.1-.04-5.21 0-9 2.1-9 5Zm-1.1-5.55c0-2.46-1.99-4.45-4.45-4.45S17 17.99 17 20.45s1.99 4.45 4.45 4.45 4.45-1.99 4.45-4.45ZM10 6v3h29v10h3V6H10Zm20 23.81v2.98c0 .78 2.28 2.21 6 2.21s6-1.43 6-2.21v-2.98c-1.56.75-3.63 1.19-6 1.19s-4.44-.44-6-1.19ZM36 24c-3.94 0-6 1.49-6 2s2.06 2 6 2 6-1.49 6-2-2.06-2-6-2Z"/></svg>