<svg xmlns="http://www.w3.org/2000/svg" viewBox="0 0 48 48"><title>Gemeenteraadsvergadering</title><path d="M33.99 15c0-1.65 1.35-3 3-3s3 1.35 3 3-1.35 3-3 3-3-1.35-3-3Zm-10.1-3c1.65 0 3-1.35 3-3s-1.35-3-3-3-3 1.35-3 3 1.35 3 3 3Zm17.1 14v-3.46c0-1.67-1.28-2.97-2.94-3.01h-3.31a3 3 0 0 0-2.75 2.29c3.13.96 7.1 2.4 9 4.18Zm-27-11c0-1.65-1.35-3-3-3s-3 1.35-3 3 1.35 3 3 3 3-1.35 3-3Zm2 6.82c-.3-1.27-1.39-2.2-2.75-2.28H9.93c-1.66.03-2.94 1.33-2.94 3V26c1.9-1.78 5.87-3.22 9-4.18Zm8 12.23c1.65 0 3-1.35 3-3s-1.35-3-3-3-3 1.35-3 3 1.35 3 3 3Zm13-1.05c1.65 0 3-1.35 3-3s-1.35-3-3-3-3 1.35-3 3 1.35 3 3 3Zm-26.01 0c1.65 0 3-1.35 3-3s-1.35-3-3-3-3 1.35-3 3 1.35 3 3 3Zm15.06-19.52h-4.22c-1.61.1-2.84 1.38-2.84 3.01v4.41c.34-.05.66-.07 1.01-.12l2.1-4.23c.25-.49.85-.69 1.34-.45.49.25.69.85.45 1.34l-1.57 3.13c.55-.03 1.1-.07 1.67-.07 1.74 0 3.4.14 5 .39v-4.41c0-1.67-1.28-2.97-2.94-3.01Zm6.02 27.89c3.79-.6 7.18-1.62 9.93-2.93v-.95c0-1.67-1.28-2.97-2.94-3.01h-4.22c-1.61.1-2.84 1.38-2.84 3.01V41c0 .13.03.26.08.37Zm-8.08.63c1.71 0 3.38-.08 5-.23v-3.22c0-1.67-1.28-2.97-2.94-3.01h-4.22c-1.61.1-2.84 1.38-2.84 3.01v3.22c1.62.15 3.29.23 5 .23Zm-8-.61V37.5c0-1.67-1.28-2.97-2.94-3.01H8.82c-1.61.1-2.84 1.38-2.84 3.01v.95c2.77 1.32 6.19 2.34 10 2.95Z"/></svg>
