<svg xmlns="http://www.w3.org/2000/svg" viewBox="0 0 48 48"><title>Grofvuil</title><path d="M31 39h4v3H24v-3h4V15h-5l2-9.03h8.97L36 15h-5v24Zm-6-7.17-14.8 1.1-.21-2.88a2.005 2.005 0 0 0-2.81-1.68c-.8.34-1.24 1.2-1.17 2.06l.36 4.83c.12 1.63 1.57 2.86 3.21 2.74l15.43-1.15v-5.02Zm-13.02-1.91.06.87 12.95-.96v-11l-4.79.35-.54.04-1.65 3.1 2.42-.18-2.62 5.21-2.47.18 1.67-3.13-2.42.18 2.61-5.18-.78.06-3.19.24-2.02.15a2.974 2.974 0 0 0-2.74 3.18l.24 3.21c1.75.33 3.14 1.8 3.28 3.68ZM34 18.14v11l1.71-.13-.07-.98c-.14-1.84 1.03-3.46 2.71-4.03l-.24-3.19a2.974 2.974 0 0 0-3.18-2.74l-.93.07Zm7.99 14.46-.36-4.83c-.06-.86-.63-1.65-1.46-1.87-1.41-.36-2.63.76-2.53 2.08l.21 2.88-3.85.29v5.01l2.23-.16.15 1.99 2.99-.22-.15-1.98c1.65-.12 2.89-1.55 2.77-3.18Z"/></svg>
