<svg xmlns="http://www.w3.org/2000/svg" viewBox="0 0 48 48"><title>Hond</title><path d="M15.86 32.45V39h-3.7l1.5-5.44c.79-.31 1.51-.7 2.2-1.11Zm15.01-.16L29.54 39h3.57l.21-8.71-.44.24c-.73.73-1.45 1.31-2.01 1.75Zm.62-12.93c-.78.63-1.75 1.02-2.81 1.02-1.74 0-3.35-1.04-4.11-2.64l-.29-.62-8.29-.04c-2.64 0-5.03-1.87-5.94-4.63L8.96 9l-2.86.9 1.1 3.47c.81 2.46 2.46 4.42 4.52 5.58-.19 1.35-1.2 7.41-4.23 9.98l-.14.12-1.32 9.92h3.7l1.9-7c2.85-.83 5.23-2.64 6.07-4.57l5.88 2.25-.17 9.35 3.71-.02 1.51-7.74c.18-.15.37-.3.57-.46 1.84-1.46 4.85-3.87 5.1-8.57l-2.78-2.84Zm6.27-7.2c-.49 0-.93-.54-1.16-1l-.36-.73c-.4-.8-1.19-1.3-2.05-1.3h-2.74c-.7 0-1.35.32-1.79.89l-3.37 4.31 1 2.13c.27.57.8.92 1.39.92.86 0 1.56-.75 1.56-1.67V12.6h3v3.11c0 .35-.04.69-.12 1.02l2.71 2.77 3.92-1.59c1.35-.55 2.22-1.87 2.22-3.37v-2.39h-4.22Z"/></svg>