<svg xmlns="http://www.w3.org/2000/svg" viewBox="0 0 48 48"><title>Hoog Water</title><path d="M19.19 13c-.76 0-1.49-.22-2.16-.6V9c0-1.96 1.34-3 3-3h8c1.66 0 3 1.04 3 3v3.3c-.71.44-1.49.7-2.31.7-1.4 0-2.7-.67-3.67-1.89l-1.09-1.38-1.09 1.38C21.9 12.33 20.6 13 19.2 13Zm21.96 2.84c-.85.61-1.86.93-2.91.93-1.4 0-2.7-.57-3.67-1.6L33.48 14l-1.09 1.17c-.97 1.03-2.27 1.6-3.67 1.6s-2.7-.57-3.67-1.6L23.96 14l-1.09 1.17c-.97 1.03-2.27 1.6-3.67 1.6s-2.7-.57-3.67-1.6L14.44 14l-1.09 1.17a4.997 4.997 0 0 1-3.67 1.6c-1 0-1.97-.3-2.79-.86l-.84-.57v3.53c1.12.58 2.36.89 3.63.89 1.75 0 3.4-.55 4.77-1.57.78.58 1.67 1 2.6 1.26v22.54h14v-4h-5v-3h5v-4h-5v-3h5v-4h-5v-3h5v-1.58c.88-.27 1.71-.68 2.45-1.22a7.932 7.932 0 0 0 4.77 1.57c1.33 0 2.62-.34 3.78-.97V15.2l-.87.62Z"/></svg>