<svg xmlns="http://www.w3.org/2000/svg" viewBox="0 0 48 48"><title>Huis en omgeving</title><path d="m41.56 14.05-1.7 2.08-.86-.9V24H25v-8.69l-.93.83-1.67-2.07 9.31-7.99L36 9.67V8h3v3.78l2.56 2.27ZM29 19h6v-4h-6v4Zm-16.02 2.07c3.85 0 6.98 3.13 6.98 6.98 0 .33-.03.65-.08.97 0 .06-.02.12-.03.18-.03.17-.06.33-.1.49C18.64 34.99 12.98 42 12.98 42s-5.67-7.01-6.77-12.31c-.04-.16-.07-.33-.1-.49 0-.06-.02-.12-.03-.18-.04-.32-.08-.64-.08-.97 0-3.85 3.13-6.98 6.98-6.98m0 3.96c-1.66 0-3 1.34-3 3s1.34 3 3 3 3-1.34 3-3-1.34-3-3-3Zm8.95 2c.04.35.07.71.07 1.07 0 .3-.02.61-.06.93 9.63.23 16.64 3.83 20.06 6.03v-2.38c-3.91-2.34-10.8-5.45-20.07-5.65Zm-.77 5.16c-.23.64-.5 1.28-.8 1.92 6.3.68 9.97 4.42 12.05 7.88h2.23c-2.16-4.01-6.22-8.8-13.49-9.81Z"/></svg>
