<svg xmlns="http://www.w3.org/2000/svg" viewBox="0 0 48 48"><title>Hulp huishouden</title><path d="M14.97 36.07c0 2.21-1.79 4-4 4s-4-1.79-4-4 1.79-4 4-4 4 1.79 4 4Zm24.08 2.88h-2.04L34.49 17v-.11c-.59-3.44-3.02-6.21-6.34-7.23-1.04-.32-10.14-3.15-11.05-3.37-.98-.24-1.89-.21-2.15-.2-3.92.02-7.1 3.22-7.1 7.15s3.21 7.15 7.15 7.15l8.99-.03c.82 0 1.49.67 1.49 1.49 0 .44-.19.85-.53 1.14l-2.67 3.64c-1.63-1.02-3.46-1.64-5.29-1.64H9c-1.7 0-3.07 1.37-3.07 3.07v3.03A7.034 7.034 0 0 1 10.94 29c3.89 0 7.05 3.16 7.05 7.05 0 1.5-.47 2.89-1.27 4.03h7.29c2.22 0 4.02-1.8 4.02-4.02 0-2.74-1.36-5.49-3.4-7.56l2.43-3.36c.91-.85 1.43-2.03 1.43-3.29 0-2.48-2.02-4.49-4.5-4.49l-8.99.03c-2.29 0-4.15-1.86-4.15-4.15s1.86-4.15 4.24-4.15c0 0 .66-.04 1.3.12.62.15 6.84 2.07 10.87 3.32 2.22.68 3.84 2.52 4.25 4.81L34 38.95h-1c-1.66 0-3 1.34-3 3s12 0 12 0v-.05c0-1.63-1.32-2.95-2.95-2.95Z"/></svg>
