<svg xmlns="http://www.w3.org/2000/svg" viewBox="0 0 48 48"><title>In en om uw huis</title><path d="M14.02 24.22 14 26.09l-1.98 1.65 1.04 1.25h-.81c-2.93-.17-5.14-2.59-4.97-5.39v-.05a5.005 5.005 0 0 1-.05-6.59c.08-.09.15-.18.24-.26-.64-2.21.33-4.65 2.47-5.82a5.07 5.07 0 0 1 1.87-.6C12.67 9.46 13.8 9 15.02 9s2.37.46 3.22 1.29c1.23.16 2.37.74 3.2 1.65a4.978 4.978 0 0 1 1.13 4.77c.42.42.74.91.98 1.43l-7.54 6.28v-2.11L18.3 20l-1.42-1.41-.87.88v-3.46h-2v5.38l-1.03-1.05-1.42 1.4 2.46 2.49ZM14 30v9h2v-6.58l-.64-.77L14 30Zm17.89-10.88.4.3 1.79-2.41-.4-.3a.496.496 0 0 1-.1-.7c1.15-1.55.83-3.75-.72-4.9l-.4-.3-1.79 2.41.4.3c.22.16.27.48.1.7a3.507 3.507 0 0 0 .72 4.9ZM41 31.96l-.99 1.02V35h-2.02v-2.02L37 31.96l-.99 1.02v6.01H38v-2h2.02v2h1.99v-6.01l-.99-1.02Zm-4.86-4.14-2.08 2.55-1.06-.9V39H19.01V29.47l-1.1.77-1.74-2.23L25.99 20l5 4v-3h2.99v5l2.16 1.82ZM28.99 30h-6v4h6v-4Z"/></svg>
