<svg xmlns="http://www.w3.org/2000/svg" viewBox="0 0 48 48"><title>Informatie en betalen</title><path d="M40.99 31.96c0 3.87-3.13 7-7 7s-7-3.13-7-7 3.13-7 7-7 7 3.13 7 7ZM35 31h-2v5h2v-5Zm0-2.04c0-.29-.09-.53-.28-.72-.19-.19-.43-.28-.72-.28s-.54.09-.72.28c-.19.19-.28.43-.28.72s.09.53.28.72c.19.19.43.28.72.28s.54-.09.72-.28c.19-.19.28-.43.28-.72ZM24.01 32c0-4.07 2.43-7.56 5.91-9.12l2.41-3.92-8.11-4.95h-6.44l-3.79 6.05 2.61 1.44-1.56 2.56-2.61-1.44-5.41 9.37 13 7 4.02-6.53c0-.15-.02-.3-.02-.46Zm-5 3.77-2.56-1.56 4.17-6.83 2.56 1.56-4.17 6.83Zm3.2-11.93-.69 1.17L19.8 24l.69-1.18c-.12-.11-.25-.21-.36-.34-.81-.93-1.2-2.1-1.1-3.29.1-1.13.64-2.14 1.51-2.84l.78-.63 1.25 1.56-.78.63c-.45.36-.72.88-.78 1.46-.05.59.14 1.17.52 1.66l1.81-3.07 1.72 1.01-1.81 3.08c.66.1 1.33-.05 1.86-.47.4-.32.67-.78.75-1.28l.17-.99 1.97.34-.17.99c-.08.49-.26.96-.51 1.38-.25.42-.57.8-.96 1.12-1.18.95-2.76 1.16-4.16.7ZM8.54 21.01h1.44l1.48-2.43.35-.57h-1.8v-6h28v6h-1.58l-1.53 2.51-.3.49h4.88c.84 0 1.53-.68 1.53-1.53v-8.95c0-.84-.68-1.53-1.53-1.53H8.53C7.69 9 7 9.68 7 10.53v8.95c0 .84.68 1.53 1.53 1.53Z"/></svg>
