<svg xmlns="http://www.w3.org/2000/svg" viewBox="0 0 48 48"><title>Inkomen</title><path d="M14.91 9.99c0-2.21 1.79-4 4-4s4 1.79 4 4-1.79 4-4 4-4-1.79-4-4ZM30.98 17v-.02c0-2.21-1.79-4-4-4s-4 1.79-4 4V17h8Zm2.03 10.99.05 5.93s.04.05.09.06h8.84v-5.99h-8.97ZM38.04 31c0-.83-.67-1.5-1.5-1.5s-1.5.67-1.5 1.5.67 1.5 1.5 1.5 1.5-.67 1.5-1.5Zm.97 9a2 2 0 0 1-2 2H7.98c-.98 0-2-.9-2-2V21.99a2 2 0 0 1 2-2h28.99c1.11 0 2.01.9 2.01 2.01v3h-5.87c-.64 0-1.28.16-1.8.53-.84.59-1.31 1.51-1.3 2.5l.05 5.93c.01 1.58 1.24 2.88 2.85 3.03h6.1v3.02ZM16.08 27.99c.69-1.21 1.78-2 3.02-2 .79 0 1.55.32 2.2.93l.73.68 1.37-1.46-.73-.68c-1.02-.96-2.26-1.47-3.57-1.47-2.31 0-4.3 1.64-5.23 4h-1.89v2h1.38c-.04.33-.07.66-.07 1s.03.67.07 1h-1.38v2h1.89c.93 2.36 2.93 4 5.23 4 1.31 0 2.54-.51 3.56-1.47l.73-.68-1.37-1.46-.73.68c-.65.61-1.41.93-2.2.93-1.24 0-2.33-.79-3.02-2h3.9v-2h-4.6c-.05-.32-.08-.66-.08-1s.03-.68.08-1h4.6v-2h-3.9Z"/></svg>
