<svg xmlns="http://www.w3.org/2000/svg" viewBox="0 0 48 48"><title>Inloggen</title><path d="M42.03 10v25h-5.31a6.403 6.403 0 0 0-5.17-4.43A9.935 9.935 0 0 0 34.03 24c0-5.52-4.48-10-10-10s-10 4.48-10 10c0 2.55.97 4.88 2.54 6.64A6.974 6.974 0 0 0 11.48 35H6.03V6h13.62l2 4h20.38Zm-13 23h-10c-3 0-5 2-5 5v5h20v-5c0-3-2-5-5-5Zm-1.25-13.3c.26-.28.41-.71.47-1.23a7.005 7.005 0 0 0-4.3-1.47c-2.81 0-5.22 1.64-6.37 4.01 1.41-.37 3.06-.37 4.69-.36 2.16.02 4.59.04 5.5-.95Zm-10.59 6.43c.88 2.9 3.58 5.02 6.77 5.02a7.07 7.07 0 0 0 7.07-7.07c0-1.03-.22-2-.62-2.88-.12.19-.26.36-.41.53-1.81 1.99-4.97 1.96-7.75 1.94-1.98-.02-4.22-.04-4.84.75-.28.35-.38.83-.22 1.72Z"/></svg>