<svg xmlns="http://www.w3.org/2000/svg" viewBox="0 0 48 48"><title>Inspraak</title><path d="M8.24 14.99c-1.24 0-2.25-1.26-2.25-2.5S7 9.99 8.24 9.99h1.25V7.74c0-.41.34-.75.75-.75s.75.34.75.75v7.25H8.24Zm13.87 26.39c-.08.36.24.68.6.6l3.24-.7-3.12-3.12-.71 3.23Zm19.78-15.81-3.31-3.31a.567.567 0 0 0-.8 0l-13.3 13.32 4.21 4.21 13.2-13.2c.28-.28.28-.73 0-1.01Zm-14.93-3.56H14.39c-2.36 0-3.39-2.91-3.39-5H6.96c0 4.26 2.9 9 7.43 9H15V42l4.11-.02c-.1-.51-.11-1.05 0-1.58l1.34-5.07 10.44-10.31c-.4-1.95-2.3-3-3.92-3Zm-7.7-12.49c2.16.02 4.59.04 5.5-.95.26-.28.41-.71.47-1.23a7.005 7.005 0 0 0-4.3-1.47c-2.81 0-5.22 1.64-6.37 4.01 1.41-.37 3.06-.37 4.69-.36Zm8.13.54c.39.88.62 1.85.62 2.88a7.07 7.07 0 0 1-7.07 7.07c-3.19 0-5.89-2.11-6.77-5.02-.16-.89-.06-1.37.22-1.72.62-.79 2.86-.77 4.84-.75 2.78.02 5.94.06 7.75-1.94.15-.16.28-.34.41-.53Z"/></svg>
