<svg xmlns="http://www.w3.org/2000/svg" viewBox="0 0 48 48"><title>Leerlingenvervoer</title><path d="M38.67 6H24.34c-1.84-.01-3.33 1.5-3.33 3.37v24.56c0 .59.47 1.07 1.07 1.07h1.86c.59 0 1.07-.48 1.07-1.07V32h13v1.93c0 .59.48 1.07 1.07 1.07h1.86c.59 0 1.07-.48 1.07-1.07V9.39c0-1.87-1.49-3.38-3.33-3.39ZM26 8h11v2H26V8Zm-2 4h15v9H24v-9Zm1.67 16.25c-.92 0-1.67-.73-1.67-1.64s.75-1.64 1.67-1.64 1.67.73 1.67 1.64-.75 1.64-1.67 1.64Zm11.7-.03c-.92 0-1.67-.73-1.67-1.64s.75-1.64 1.67-1.64 1.67.73 1.67 1.64-.75 1.64-1.67 1.64Zm-26.52-5.39c1.65 0 2.99-1.35 2.99-2.99s-1.35-2.99-2.99-2.99-2.99 1.35-2.99 2.99 1.35 2.99 2.99 2.99ZM13.08 24H8.85c-1.61.1-2.84 1.42-2.84 3.11v6.9h2v8h6v-8h2v-6.9c0-1.72-1.27-3.07-2.93-3.11Z"/></svg>
