<svg xmlns="http://www.w3.org/2000/svg" viewBox="0 0 48 48"><title>Liefdadigheid</title><path d="m29.11 22-10.37.02c-2.68.15-4.73 2.26-4.73 4.96L14.03 39h2.98v3h14v-3h3l.02-12.02c0-2.77-2.14-4.92-4.91-4.98Zm.37 5.86-.24.26-2.23 2.35-2.23-2.35-.24-.26c-.5-.53-.69-1.32-.37-1.97.53-1.07 1.8-1.21 2.54-.44l.3.32.3-.32c.73-.77 2.01-.62 2.54.44.32.65.13 1.44-.37 1.97ZM17.57 10.01A7.064 7.064 0 0 1 23.94 6c1.62 0 3.11.55 4.3 1.47-.07.53-.22.95-.47 1.23-.91 1-3.34.97-5.5.95-1.63-.01-3.28-.02-4.69.36Zm12.41.71c-1.81 1.99-4.97 1.96-7.75 1.94-1.98-.02-4.22-.04-4.84.75-.28.35-.38.83-.22 1.72.88 2.9 3.58 5.02 6.77 5.02a7.07 7.07 0 0 0 7.07-7.07c0-1.03-.22-2-.62-2.88-.12.18-.26.36-.41.53Z"/></svg>
