<svg xmlns="http://www.w3.org/2000/svg" viewBox="0 0 48 48"><title>Marktgelden</title><path d="M31.52 17.01H29v-2h2.07a9.55 9.55 0 0 1 0-2h-2.08v-2h2.52c.32-.92.8-1.79 1.43-2.54 2.26-2.69 5.8-3.24 8.61-1.35l.43.29-1.17 1.62-.37-.25c-1.93-1.3-4.38-.9-5.96.98-.32.38-.57.81-.79 1.26H39v2h-5.93c-.09.66-.09 1.34 0 2h5.92v2h-5.3c.23.48.5.94.86 1.34 1.6 1.83 3.96 2.19 5.89.89l.38-.26 1.17 1.62-.44.3a6.328 6.328 0 0 1-3.56 1.11c-1.81 0-3.6-.8-4.96-2.35a8.133 8.133 0 0 1-1.53-2.66Zm-4.52-8h-5V19h5V9.01ZM19 9h-4l-2 8v2h6V9Zm20 14.94c-.33.04-.66.08-1 .08-.68 0-1.35-.1-2-.26v6.25H12v-8H9v17H6v3h36v-3h-3V23.95ZM36 39H12v-6h24v6ZM10 17l2-8H8.91L6 16.98V19h4v-2Z"/></svg>
