<svg xmlns="http://www.w3.org/2000/svg" viewBox="0 0 48 48"><title>Melding</title><path d="M42 8v10c0 1.1-.9 2-2 2h-5l-4.01 4v-4H30c-1.1 0-2-.9-2-2V8c0-1.1.9-2 2-2h10c1.1 0 2 .9 2 2Zm-6 8c0-.29-.09-.53-.28-.72-.19-.19-.43-.28-.72-.28s-.54.09-.72.28c-.19.19-.28.43-.28.72s.09.53.28.72c.19.19.43.28.72.28s.54-.09.72-.28c.19-.19.28-.43.28-.72Zm0-7h-2v5h2V9ZM21 31H11c-3 0-5 2-5 5v6h20v-6c0-3-2-5-5-5ZM9.56 19.01A7.064 7.064 0 0 1 15.93 15c1.62 0 3.11.55 4.3 1.47-.07.53-.22.95-.47 1.23-.91 1-3.34.97-5.5.95-1.63-.01-3.28-.02-4.69.36Zm12.41.71c-1.81 1.99-4.97 1.96-7.75 1.94-1.98-.02-4.22-.04-4.84.75-.28.35-.38.83-.22 1.72.88 2.9 3.58 5.02 6.77 5.02A7.07 7.07 0 0 0 23 22.08c0-1.03-.22-2-.62-2.88-.12.18-.26.36-.41.53Z"/></svg>
