<svg xmlns="http://www.w3.org/2000/svg" viewBox="0 0 48 48"><title>Melding straatverlichting</title><path d="m17.52 12.35 2.35 2.35-1.38 1.38-2.54-2.54a5.1 5.1 0 0 0 1.57-1.19Zm-5.56 5.63h1.95v-3.96h-1.96v3.95ZM9.01 9.01V6h9.43c1.57 0 2.99.67 4 1.73 1-1.06 2.42-1.73 4-1.73H36v3.01c0 1.65-1.34 2.99-2.99 2.99h-2.06c-1.66 0-3-1.35-3-3h-1.52a2.5 2.5 0 0 0-2.5 2.5L24 26l1 2v9h-5v-9l1-2V11.5A2.5 2.5 0 0 0 18.5 9H17c0 1.65-1.34 3-3 3h-2a3 3 0 0 1-3-2.99Zm21-.02c0 .55.45 1 1 1h2c.55 0 1-.45 1-1v-1h-4v1ZM9.89 13.57A4.97 4.97 0 0 1 8.3 12.4L6 14.7l1.38 1.38 2.51-2.51Zm32.12 4.42v10a2 2 0 0 1-2 2h-2l-.03 3.47c0 .2-.12.38-.31.46-.06.03-.13.04-.19.04-.13 0-.25-.05-.35-.14L33.25 30H30c-1.1 0-2-.9-2-2.01v-10a2 2 0 0 1 2-2h10a2 2 0 0 1 2 2Zm-6 8.03c0-.55-.45-1-1-1s-1 .45-1 1 .45 1 1 1 1-.45 1-1Zm0-7h-2v5h2v-5ZM6 42h36v-3H6v3Z"/></svg>
