<svg xmlns="http://www.w3.org/2000/svg" viewBox="0 0 48 48"><title>Monitor agrofood</title><path d="M7.52 19h12.97c.83 0 1.51-.67 1.51-1.51V7.51A1.53 1.53 0 0 0 20.48 6H7.51C6.68 6 6 6.67 6 7.51v9.99c.01.83.69 1.51 1.52 1.51ZM17 13h2v3h-2v-3Zm-2-4 .02 7H13V9h2Zm-6 3h2v4H9v-4Zm33.01 23.28c0 3.74-3.63 6.68-8.27 6.68s-8.27-2.93-8.27-6.68 3.63-6.68 8.27-6.68 8.27 2.93 8.27 6.68ZM26.25 20.01c-.49-.22-1-.42-1.54-.57.18-.45.3-.92.3-1.43v-6.46l1.95 1.15c.59-.34 1.23-.6 1.9-.78l.7-2.81c.45-.06 2.34-.06 2.79 0l.7 2.81c.67.18 1.31.44 1.9.78l2.46-1.48.02.02s1.42 1.28 1.92 1.92l-1.49 2.48c.35.6.62 1.24.8 1.93l2.81.7c.06.45.1.9.1 1.37s-.04.92-.1 1.37l-1.03.26v.01l-1.73.43c-.18.68-.45 1.33-.8 1.93l1.49 2.48c-.14.19-.3.36-.46.54-1.55-.68-3.3-1.06-5.19-1.06-.86 0-1.68.1-2.48.25v-.03c-.17-.51-.36-.98-.56-1.43.08 0 .17.02.25.02 2.62-.02 4.74-2.15 4.74-4.77s-2.12-4.75-4.74-4.77a4.776 4.776 0 0 0-4.74 4.77c0 .12.03.24.04.36Zm-3.84 15.27c0 2.05.71 3.93 1.92 5.47-.67.67-1.41 1.14-2.25 1.18-.05 0-.09.02-.14.01-1.67-.07-2.31-1.09-4.33-1.09h-.07c-1.86 0-2.5.91-3.96 1.04-.14.02-.29.04-.45.05-1.72.04-3.03-1.77-4.13-3.38-2.27-3.32-4-9.38-1.68-13.47.84-1.53 2.69-3.1 5.69-3.1h.04c.98 0 8.93.03 8.93.03 2.28.07 4.64 1.06 5.74 3.07.29.5.5 1.04.67 1.6-3.58 1.6-5.98 4.8-5.98 8.58Z"/></svg>
