<svg xmlns="http://www.w3.org/2000/svg" viewBox="0 0 48 48"><title>Monitor duurzaamheid</title><path d="M20.48 6H7.51C6.68 6 6 6.67 6 7.51v9.99c.01.83.69 1.51 1.52 1.51h12.97c.83 0 1.51-.67 1.51-1.51V7.51A1.53 1.53 0 0 0 20.48 6ZM11 16H9v-4h2v4Zm2 0V9h2l.02 7H13Zm6 0h-2v-3h2v3Zm6 2.3v-2.03c.43.02.95-.08 1.04.6.06.47-.51 1.17-1.04 1.43Zm0-9.65c1.26-.41 2.61-.64 4.01-.64 7.16 0 12.96 5.8 12.96 12.96 0 4.06-1.87 7.66-4.8 10.04l.06.02a12.853 12.853 0 0 1-5.4 2.62c-.52-1.6-1.94-3.67-5-4.54l-6.14-1.85-.65-.2-.67.1-1.65.25a12.88 12.88 0 0 1-1.32-3.28l.05.02c-.18-.69-.28-1.42-.34-2.15h5.88a3 3 0 0 0 2.77-1.86c.79 1.42 1.29 2.91 1.08 4.61-.1.8.29 1.43.89 1.93.34.28.69.56 1.02.86l1.26.42c.07-.06.13-.12.2-.22.34-.49.72-.94 1.1-1.39.55-.66.68-1.4.48-2.24-.35-1.48.57-2.73 1.99-2.73 1.84 0 2.14-.33 2.78-2.14.43-1.21.42-2.17-.59-3.02-.32-.27-.54-.65-.81-.97-.46-.54-1.01-.69-1.7-.62-1.5.15-3.01.22-4.52.28-.21 0-.55-.19-.64-.38-.45-1.09-.39-2.68.65-3.25l.29-.06c-1.16.08-2.25.37-3.27.82V8.67Zm15.06 30.27L25.96 42 14 39v-8l5.84-.88L26 31.98c2.88.81 3.1 3.03 3.1 3.03h-3.18L21.98 34l-.78 2.24 4.76 1.21 10-.93c4.1 0 4.1 2.4 4.1 2.4ZM6 30.01h5v10H6v-10Z"/></svg>
