<svg xmlns="http://www.w3.org/2000/svg" viewBox="0 0 48 48"><title>Monument Woning</title><path d="m30.55 37.28-3.38-3.37A5.458 5.458 0 0 1 25.55 30v-3h-2.5v-3c0-.83.67-1.5 1.5-1.5.39 0 .73.15 1 .39v-.87c0-2.81 2.12-5.13 4.84-5.47l-.71-.33c-2.1-.97-3.46-3.12-3.46-5.48v-1.5h-3.57c-.62-1.91-2.4-3.29-4.49-3.29s-3.86 1.38-4.49 3.29h-3.24v1.5c0 2.36-1.36 4.51-3.46 5.48l-.87.4V39h-.05v3h36v-3h-11.5v-1.72ZM13.05 37h-3v-3c0-.83.67-1.5 1.5-1.5s1.5.67 1.5 1.5v3Zm0-10h-3v-3c0-.83.67-1.5 1.5-1.5s1.5.67 1.5 1.5v3Zm6.5 10h-3v-3c0-.83.67-1.5 1.5-1.5s1.5.67 1.5 1.5v3Zm0-10h-3v-3c0-.83.67-1.5 1.5-1.5s1.5.67 1.5 1.5v3Zm-1.5-10c-1.1 0-2-.9-2-2s.9-2 2-2 2 .9 2 2-.9 2-2 2Zm8 20h-3v-3c0-.83.67-1.5 1.5-1.5s1.5.67 1.5 1.5v3Zm13.03-18h-8c-1.66 0-3.02 1.34-3.02 3v7.94c0 .8.32 1.57.89 2.14l4.01 3.95c.58.58 1.34.86 2.11.86s1.53-.29 2.11-.87l3.99-3.95c.57-.56.89-1.33.89-2.13l.02-7.81V22c0-1.66-1.34-3-3-3Zm-.03 11h-.02l-3.98-3.98L31.07 30h-.02v-8h.02l3.98 3.98L39.03 22h.02v8Z"/></svg>