<svg xmlns="http://www.w3.org/2000/svg" viewBox="0 0 48 48"><title>Onderwijs Hoger</title><path d="M41.36 29.05a4.509 4.509 0 0 0-6.05-1.6v-.02l-10.78 6.75c-.17.06-.27.23-.36.38l-3.14 5.92c-.17.31-.16.69.03.99.18.3.51.49.86.49l6.92-.02c.19 0 .37-.05.53-.16l10.6-6.6v-.02a4.537 4.537 0 0 0 1.37-6.12ZM28.54 39.93h-2.88l2.17-1.33h.01c.47-.29.61-.91.32-1.38-.29-.47-.91-.62-1.38-.33l-2.31 1.42 1.36-2.56 2.87-1.79 2.58 4.22-2.73 1.76ZM10.42 27.05l1.4 2.83-1.4.7v1.29H7.4v-1.32l-1.34-.67 1.34-2.71V16.55l-1.22-.68L23.87 6l16.17 9.02-16.12 9.16-13.59-6.81.08 9.67Zm24.52-5.65v2.66l-1.44.89-10.62 6.65c-.65.34-1.17.88-1.57 1.61l-.8 1.51c-4.52-.89-7.71-3.53-7.71-6.74v-5.94l11.21 5.55 10.92-6.21Z"/></svg>
