<svg xmlns="http://www.w3.org/2000/svg" viewBox="0 0 48 48"><title>Onderwijs Voortgezet</title><path d="m24.91 34.07 11.18-10.24a.984.984 0 0 1 1.4 0l1.39 1.42L27 36.19l-2.09-2.13Zm-13.36-2.04c-1.54 0-2.76 1.4-2.44 3.01.24 1.17 1.34 1.98 2.53 1.98h9.26s.5-2.26.58-2.59c.04-.24.22-.45.36-.59l1.9-1.81h-12.2Zm30.12-3.94-1.4-1.42-11.88 10.94 2.09 2.13L41.66 29.5c.39-.39.39-1.03 0-1.42ZM22.4 41.07c-.09.42.25.8.68.74l5.89-.78-5.33-5.41-1.24 5.45ZM11.55 29.03c-1.65 0-3.2.73-4.25 2.01-.8.98-1.23 2.18-1.24 3.43H6V10.95a4.98 4.98 0 0 1 4.98-4.98h20.97v18.67l-4.87 4.38H11.55Zm1.47-13.98h13v-3h-13v3Zm0 5h13v-3h-13v3Z"/></svg>
