<svg xmlns="http://www.w3.org/2000/svg" viewBox="0 0 48 48"><title>Onderwijs Basis</title><path d="m26.52 40.96-2.73-.36a2.033 2.033 0 0 1-1.49-3.04l1.38-2.38c.26-.45.61-.85 1-1.19l3.39 6.91c-.31.06-.63.1-.95.1-.2 0-.41-.01-.61-.04Zm3.42-.81-3.53-7.18 2.47-1.21 3.53 7.18-2.47 1.21Zm4.26-2.09-3.53-7.18 7.85-3.81 3.53 7.18-7.85 3.81ZM23.82 18.07c-.05 0-.11 0-.17.01-.99.13-1.88 1.29-1.95 2.53-.03.62.14 1.15.48 1.46.24.22.53.3.87.26.99-.13 1.88-1.29 1.95-2.53.03-.62-.14-1.15-.48-1.46-.2-.18-.43-.28-.7-.28ZM6.03 7v26h16.82c.55-.59 1.19-1.09 1.93-1.45l14.24-6.85V7H6.03Zm12.16 10.19-1.21 4.61c-.04.15-.1.54.17.74a1.003 1.003 0 0 1-.6 1.81c-.21 0-.41-.06-.59-.2-.23-.17-.42-.37-.57-.59-.53.4-1.13.68-1.78.77-.14.02-.29.03-.43.03-.77 0-1.49-.28-2.06-.81-.78-.72-1.18-1.83-1.12-3.04.12-2.21 1.74-4.15 3.68-4.41.94-.13 1.82.16 2.49.78 0 0 0 .01.01.01l.05-.21c.14-.53.69-.85 1.22-.71s.85.69.71 1.22Zm5.13 7.13a3.02 3.02 0 0 1-2.48-.77v.03a1.02 1.02 0 0 1-1.22.72c-.53-.14-.85-.69-.71-1.22l2.7-10.33c.14-.53.69-.85 1.22-.71s.85.69.71 1.22l-.78 3c.21-.07.42-.13.64-.15.94-.13 1.82.16 2.49.78.78.72 1.18 1.83 1.12 3.04-.12 2.21-1.74 4.15-3.68 4.41Zm11.1-4.99a.995.995 0 0 1-1.31-.52c-.11-.25-.44-.84-1.19-.74-.99.13-1.88 1.29-1.95 2.53-.03.62.14 1.15.48 1.46.24.22.53.3.87.26.5-.07 1.01-.41 1.39-.95.32-.45.94-.56 1.39-.24.45.32.56.94.24 1.39-.7.99-1.71 1.64-2.76 1.78-.14.02-.29.03-.43.03-.77 0-1.49-.28-2.06-.81-.78-.72-1.18-1.83-1.12-3.04.12-2.21 1.74-4.15 3.68-4.41 1.42-.19 2.71.57 3.29 1.93.22.51-.01 1.1-.52 1.31Zm-20.29-1.26c-.05 0-.11 0-.17.01-.99.13-1.88 1.29-1.95 2.53-.03.62.14 1.15.48 1.46.24.22.54.3.87.26.99-.13 1.88-1.29 1.95-2.53.03-.62-.14-1.15-.48-1.46-.2-.18-.43-.28-.7-.28Z"/></svg>