<svg xmlns="http://www.w3.org/2000/svg" viewBox="0 0 48 48"><title>Onderhoud</title><path d="M22 14c0-4.42-3.58-8-8-8s-8 3.58-8 8 3.58 8 8 8 8-3.58 8-8Zm-7.28 3.72c-.19.19-.43.28-.72.28s-.54-.09-.72-.28c-.19-.19-.28-.43-.28-.72s.09-.53.28-.72c.19-.19.43-.28.72-.28s.54.09.72.28c.19.19.28.43.28.72s-.09.53-.28.72Zm.21-2.72h-2v-5h2v5Zm22.78 19.03-6.04-23.02h-6.35l-6.04 23.01c-2.41.08-4.24 2.06-4.24 4.49v3.48h26.97v-3.48c0-2.41-1.91-4.37-4.29-4.48ZM27.63 14.01h1.72l1.58 6.02h-4.88l1.58-6.02Zm-2.37 9h6.45l1.06 4.01H24.2l1.06-4.01Zm-1.85 7h10.15l1 4.01H22.41l1-4.01ZM38.99 39H18.02v-.48c0-.83.57-1.5 1.39-1.5h18.07c.83 0 1.5.67 1.5 1.5V39Z"/></svg>
