<svg xmlns="http://www.w3.org/2000/svg" viewBox="0 0 48 48"><title>Parkeervergunning</title><path d="M27 19h9v2h-9v-2Zm15-3.07v16.15c0 2.72-2.21 4.93-4.93 4.93H10.93C8.21 37.01 6 34.8 6 32.08V15.93C6 13.21 8.21 11 10.93 11h26.15c2.72 0 4.93 2.21 4.93 4.93Zm-3 0c0-1.06-.86-1.93-1.93-1.93H26v3h-4v-3H10.93C9.87 14 9 14.86 9 15.93v16.15c0 1.06.86 1.93 1.93 1.93h26.15c1.06 0 1.93-.86 1.93-1.93V15.93ZM22 23c0 2.21-1.66 4-3.7 4H16v3.99h-2v-12h4.3c2.04 0 3.7 1.8 3.7 4Zm-2 0c0-1.1-.77-2-1.72-2H16v3.99h2.28c.95 0 1.72-.9 1.72-2Zm7 8h7v-2h-7v2Zm0-5h9v-2h-9v2Z"/></svg>
