<svg xmlns="http://www.w3.org/2000/svg" viewBox="0 0 48 48"><title>Parkeren bedrijven</title><path d="M10.5 33H22v3H10.5C8.02 36 6 33.98 6 31.5v-21C6 8.02 8.02 6 10.5 6h21c2.48 0 4.5 2.02 4.5 4.5V23h-3V10.5c0-.83-.67-1.5-1.5-1.5h-21C9.67 9 9 9.67 9 10.5v21c0 .83.67 1.5 1.5 1.5Zm10.96-20.99c3.04 0 5.52 2.68 5.52 5.98s-2.48 5.98-5.52 5.98h-3.48v6.01h-2.96V12.01h6.44Zm-.03 3h-3.41v5.97h3.41c1.41 0 2.56-1.34 2.56-2.99S22.84 15 21.43 15Zm19.98 14.58c.4.39.59.87.59 1.43v8.94c0 .56-.2 1.04-.59 1.44-.39.4-.87.6-1.42.6h-14c-.55 0-1.02-.2-1.41-.6-.39-.4-.58-.88-.58-1.44v-8.94c0-.56.19-1.03.58-1.43.39-.39.86-.59 1.41-.59H29v-1.92c0-.57.2-1.06.6-1.46.4-.41.89-.61 1.45-.61h3.89c.57 0 1.05.2 1.45.61.4.41.6.9.6 1.46V29h2.99c.55 0 1.02.2 1.42.59ZM35 27h-4v2h4v-2Z"/></svg>
