<svg xmlns="http://www.w3.org/2000/svg" viewBox="0 0 48 48"><title>Parkeerplattegrond</title><path d="M15.92 18.55c.03.19.07.39.11.53 1.12 5.36 6.55 12.12 6.78 12.41l1.17 1.44 1.17-1.44c.23-.29 5.66-7.05 6.77-12.37.05-.19.08-.38.13-.65l.02-.14c.06-.42.09-.78.09-1.13 0-4.51-3.67-8.17-8.17-8.17s-8.17 3.67-8.17 8.17c0 .35.03.71.08 1.13l.03.22ZM20.97 13h3.5c1.41 0 3.5.93 3.5 3.5s-2.09 3.5-3.5 3.5h-1.5v3h-2V13Zm3.5 5h-1.5v-3h1.5c.25 0 1.5.07 1.5 1.5 0 1.33-1.06 1.49-1.5 1.5ZM42 24l-6.03 15H5.95l6.04-15h3.72c.5 1.04 1.05 2.05 1.61 3h-3.34l-3.51 9h13.61l.06.07.06-.07h9.78l3.51-9H30.4c.56-.95 1.12-1.96 1.61-3h10Z"/></svg>
