<svg xmlns="http://www.w3.org/2000/svg" viewBox="0 0 48 48"><title>Participatie plan</title><path d="M24.01 9.99c-.51 0-1.01.04-1.5.1v-4.1h3v4.1c-.49-.06-.98-.1-1.49-.1h-.01ZM8 20.43v3h4.08c-.06-.5-.1-.99-.1-1.5s.04-1.01.11-1.5H8.01Zm8.61-7.92-2.93-2.93-2.12 2.12 2.93 2.93c.62-.79 1.33-1.51 2.12-2.12Zm19.31 7.92c.06.49.11.99.11 1.5 0 .5-.04 1-.1 1.5h4.08v-3h-4.08Zm-2.41-5.8 2.93-2.93-2.12-2.12-2.93 2.93c.79.62 1.5 1.33 2.12 2.12ZM17.73 28.36c.81.9 1.28 1.43 1.28 2.6v1.02h10v-.96c0-1.2.53-1.8 1.32-2.7.18-.21.37-.42.57-.66a8.933 8.933 0 0 0 2.07-5.72c0-4.94-4.01-8.97-8.95-8.97-4.94 0-8.96 4.02-8.96 8.95 0 2.09.73 4.13 2.07 5.74.21.25.41.48.6.69Zm1.28 6.63v.89c0 1.4.99 2.69 2.3 3l.55.13.17.53a2.005 2.005 0 0 0 3.8.07l.19-.54.56-.11c1.39-.26 2.43-1.56 2.43-3.02v-.96h-10Z"/></svg>
