<svg xmlns="http://www.w3.org/2000/svg" viewBox="0 0 48 48"><title>Participatie uitvoering</title><path d="M18.6 32.4c.24.59.39 1.23.4 1.89.02 1.43-.54 2.72-1.46 3.63-2 2-10.5 3.08-10.5 3.08s1.07-8.5 3.08-10.5a5 5 0 0 1 3.63-1.46c.67.01 1.3.16 1.89.39l-3.32 3.32.74-.74c-1.49 1.49-1.71 3.02-2.23 5.19 2.18-.52 3.7-.75 5.18-2.22 0 0 1.52-1.51 2.6-2.58Zm-5.34-11.88 6.65-6.65-4.64-2.44-6.68 6.68 4.54 2.36.12.05Zm14.15 14.13 2.4 4.67 6.72-6.72-2.47-4.6-6.64 6.64ZM36.2 21.5 25.17 32.55l-9.93-9.93 11.04-10.99c3.43-3.43 7.71-4.59 11.14-4.59 1.31 0 2.32.27 2.89.47.6 1.65 2.37 7.52-4.11 14Zm-2.67-7.21c-.51-.51-1.19-.77-1.86-.77a2.636 2.636 0 0 0-1.86 4.5c.51.51 1.19.77 1.86.77a2.636 2.636 0 0 0 1.86-4.5Z"/></svg>
