<svg xmlns="http://www.w3.org/2000/svg" viewBox="0 0 48 48"><title>Participatie</title><path d="M38.03 18h-4.02l-3.98 3.94V18h-7.01c-1.1 0-1.99-.89-1.99-1.99V7.97C21.03 6.88 21.91 6 23 6h15.04c1.1 0 1.99.89 1.99 1.99v8.02c0 1.1-.89 1.99-1.99 1.99Zm-.86 5.21h-.02c-.36-.12-.74-.21-1.14-.21-.37 0-.71.07-1.05.18-.02 0-.04.01-.06.02a3.467 3.467 0 0 0-2.38 3.29c0 1.92 1.56 3.48 3.48 3.48s3.48-1.56 3.48-3.48c0-1.52-.98-2.8-2.33-3.27Zm-24.01 0h-.02c-.36-.12-.73-.2-1.13-.2-.37 0-.71.07-1.04.18-.02 0-.04.01-.06.02-1.37.46-2.37 1.74-2.37 3.27 0 1.91 1.55 3.47 3.47 3.47s3.47-1.55 3.47-3.47c0-1.51-.97-2.78-2.32-3.26ZM11.05 36h6.97v-1.03s0-3-2.94-3H9.03c-1.66 0-3 1.34-3 3V42h5.03v-6Zm8.98-1.03V36h8v-3s0-3-2.94-3h-6.05c-.61 0-1.17.18-1.64.49 1.88.94 2.64 2.97 2.64 4.48ZM39.09 32h-6.05c-1.66 0-3 1.34-3 3v1h7.03v6h4.97v-7s0-3-2.94-3Zm-4.04 6h-22v4h22v-4ZM23.18 21.21h-.02c-.36-.12-.74-.21-1.14-.21-.37 0-.72.07-1.05.18-.02 0-.04.01-.06.02-1.39.47-2.39 1.76-2.39 3.3 0 1.93 1.57 3.5 3.5 3.5s3.5-1.57 3.5-3.5c0-1.53-.98-2.81-2.34-3.29Z"/></svg>