<svg xmlns="http://www.w3.org/2000/svg" viewBox="0 0 48 48"><title>Paspoort</title><path d="M22.01 25h3.97c-.21 1.4-.88 2.78-1.99 4.05C22.88 27.78 22.22 26.4 22 25Zm-3.92-2h1.89c.19-1.59.82-3.15 1.9-4.61A6.016 6.016 0 0 0 18.09 23Zm0 2a6.032 6.032 0 0 0 3.79 4.61c-1.08-1.45-1.71-3.02-1.9-4.61h-1.89ZM36 15.02v23.97c0 1.66-1.35 3.01-3.01 3.01H15.03a3 3 0 0 1-2.99-3l-.05-28.54C11.99 8 13.98 6 16.45 6h12.83c1.73 0 3.15 1.31 3.39 3H16.58c-.86 0-1.56.7-1.56 1.56s.67 1.5 1.5 1.5L33 12.01c1.67 0 3.02 1.34 3.02 3.01ZM30 35H18v2h12v-2Zm2-11c0-4.41-3.59-8-8-8s-8 3.59-8 8 3.59 8 8 8 8-3.59 8-8Zm-9.99-1h3.97c-.21-1.4-.88-2.78-1.99-4.05C22.88 20.22 22.22 21.6 22 23Zm4.1-4.61c1.08 1.45 1.71 3.02 1.9 4.61h1.89a6.032 6.032 0 0 0-3.79-4.61Zm0 11.21a6.016 6.016 0 0 0 3.79-4.61h-1.89c-.19 1.59-.82 3.15-1.9 4.61Z"/></svg>
