<svg xmlns="http://www.w3.org/2000/svg" viewBox="0 0 48 48"><title>Paspoort ID-kaart gecombineerd internationaal</title><path d="M23.91 23h-1.89c-.19-1.59-.82-3.15-1.9-4.61 1.96.74 3.43 2.49 3.79 4.61ZM10 24c0-4.41 3.59-8 8-8 4.07 0 7.44 3.06 7.93 7H30v-7.98c0-1.67-1.35-3.01-3.02-3.01L10 12.06c-.55 0-1-.45-1-1V10c0-.55.45-1 1-1h16.66c-.24-1.69-1.66-3-3.39-3H10c-2.21 0-4 1.79-4 4v26c0 2.21 1.79 4 4 4h5v-5h-3v-2h3v-1.59c-2.93-1.19-5-4.06-5-7.41Zm2.09 1c.3 1.79 1.4 3.3 2.91 4.18v-1c-.54-1.03-.89-2.1-1.02-3.17h-1.89ZM42 29.02v9.97c0 1.66-1.36 3.01-3.03 3.01H21.05c-1.68 0-3.04-1.35-3.04-3.02v-9.97c0-1.66 1.36-3.01 3.04-3.01h7.96v3h2v-3h7.95c1.68 0 3.05 1.35 3.05 3.02Zm-17.26 3.74c0 .98.78 1.77 1.75 1.77s1.75-.79 1.75-1.77-.78-1.77-1.75-1.77-1.75.79-1.75 1.77ZM30 37.12c0-1.17-2.33-1.77-3.5-1.77s-3.5.59-3.5 1.77V38h7v-.88ZM36 36h-4v2h4v-2Zm1-4h-5v2h5v-2ZM18 18.95c-1.11 1.27-1.77 2.65-1.99 4.05h3.97c-.21-1.4-.88-2.78-1.99-4.05ZM12.09 23h1.89c.19-1.59.82-3.15 1.9-4.61A6.016 6.016 0 0 0 12.09 23Z"/></svg>
