<svg xmlns="http://www.w3.org/2000/svg" viewBox="0 0 48 48"><title>Presentatie</title><path d="M12.48 10.01A7.064 7.064 0 0 1 18.85 6c1.62 0 3.11.55 4.3 1.47-.07.53-.22.95-.47 1.23-.91 1-3.34.97-5.5.95-1.63-.01-3.28-.02-4.69.36Zm12.41.71c-1.81 1.99-4.97 1.96-7.75 1.94-1.98-.02-4.22-.04-4.84.75-.28.35-.38.83-.22 1.72.88 2.9 3.58 5.02 6.77 5.02a7.07 7.07 0 0 0 7.07-7.07c0-1.03-.22-2-.62-2.88-.12.18-.26.36-.41.53ZM16 29h13.01v-1.04c0-1.17-.4-2.22-1.05-3.06 0 .02-.02.03-.02.05-.44-.57-1-1.03-1.64-1.37v-.02c-.04-.02-.09-.03-.14-.05-.66-.32-1.39-.52-2.18-.52h-10c-.78 0-1.51.19-2.17.51-.05.02-.11.04-.16.06 0 0 0 .02.01.02-.63.33-1.18.79-1.62 1.35 0-.01-.01-.02-.02-.04-.07.09-.12.19-.18.28-.01.02-.02.03-.03.05-.16.24-.3.5-.42.78-.01.03-.02.05-.03.08-.12.28-.21.57-.27.87 0 .02 0 .03-.01.05-.06.31-.1.63-.1.96V39h3v3h9v-4h-5v-9Zm21 3v-7.89l-4.1-4.51c.06-.19.1-.39.1-.6 0-1.1-.9-2-2-2s-2 .9-2 2 .9 2 2 2c.15 0 .29-.02.42-.05L35 24.88v7.11H19v3h5v7h10v-7h5v-3h-2Z"/></svg>
