<svg xmlns="http://www.w3.org/2000/svg" viewBox="0 0 48 48"><title>Prijskaartje</title><path d="M33.16 15.12c-2.51 1.05-5.38 1.85-8 2.37-.74.95-1.9 1.54-3.14 1.54s-2.32-.53-3.08-1.45a4.011 4.011 0 0 1-.84-3.32c.3-1.53 1.52-2.79 3.05-3.12.29-.06.58-.09.87-.09.72 0 1.42.2 2.03.56 1.3-.25 2.68-.59 3.75-.91l-3.77-3.86a3.001 3.001 0 0 0-4.02 0l-9.66 8.74a1 1 0 0 0-.33.74v25.69s.02.03.03.03h23.93l.03-.03V16.42c-.01-.26-.11-.5-.29-.69l-.57-.59ZM24 27v2h-4.6c-.05.32-.08.66-.08 1s.03.68.08 1H24v2h-3.9c.69 1.21 1.78 2 3.02 2 .79 0 1.55-.32 2.2-.93l.73-.68 1.37 1.46-.73.68c-1.02.96-2.26 1.47-3.56 1.47-2.31 0-4.3-1.64-5.23-4h-1.89v-2h1.38c-.04-.33-.07-.66-.07-1s.03-.67.07-1h-1.38v-2h1.89c.93-2.36 2.93-4 5.23-4 1.31 0 2.54.51 3.57 1.47l.73.68-1.37 1.46-.73-.68c-.65-.61-1.41-.93-2.2-.93-1.24 0-2.33.79-3.02 2h3.9ZM37.66 9.58c-1.31 2.5-7.36 4.98-13.77 6.11a1.99 1.99 0 0 1-1.88 1.34c-1.23 0-2.21-1.12-1.96-2.4.15-.76.76-1.38 1.51-1.55.78-.17 1.49.12 1.94.64 7.03-1.22 11.69-3.77 12.38-5.07.05-.1.13-.29.08-.39-.02-.04-.13-.14-.4-.21-1.03-.27-3.57.15-5.97 1.08a.99.99 0 0 1-1.04-.19c-.54-.5-.37-1.4.31-1.66 2.73-1.06 5.66-1.57 7.2-1.17 1.02.27 1.49.83 1.7 1.26.23.47.4 1.23-.11 2.2Z"/></svg>
