<svg xmlns="http://www.w3.org/2000/svg" viewBox="0 0 48 48"><title>Schoolkostenregeling</title><path d="M21.01 34v8l-3.04-2.36v-3.07l3.04-2.56Zm3 0v8H42v-8H24.01Zm5.1-20.98h2.08a9.55 9.55 0 0 0 0 2h-2.07v2h2.52c.34.97.85 1.88 1.53 2.66 1.35 1.54 3.14 2.35 4.96 2.35 1.22 0 2.45-.36 3.56-1.11l.44-.3L40.96 19l-.38.26c-1.92 1.3-4.29.94-5.89-.89-.35-.4-.62-.86-.86-1.34h5.3v-2h-5.92c-.09-.66-.1-1.34 0-2h5.93v-2h-5.31c.22-.44.47-.87.79-1.26 1.58-1.88 4.03-2.28 5.96-.98l.37.25 1.17-1.62-.43-.29c-2.81-1.89-6.35-1.34-8.61 1.35-.63.75-1.11 1.62-1.43 2.54h-2.52v2ZM31 30.99H20.66c-.12.01-.23.05-.33.13l-7.44 6.05a1 1 0 0 0 0 1.64l4.33 3.2H6V6h25.15c-.17.17-.34.34-.49.53-.38.46-.73.95-1.04 1.47H27v12h2.61c.34.58.74 1.13 1.18 1.63.07.07.14.13.21.21v9.15ZM24 20v-8H12.99v8H24Z"/></svg>