<svg xmlns="http://www.w3.org/2000/svg" viewBox="0 0 48 48"><title>Sociaal zorg welzijn</title><path d="M34 15H14c-1.63 0-2.95 1.35-2.95 3.01L11.09 29h2.96v13H23V19h2v23h9V28.98l3 .02V18c0-1.66-1.34-3-3-3Zm-.35 4.98-.16.17L32 21.71l-1.49-1.56-.16-.17c-.33-.35-.46-.88-.24-1.31.35-.71 1.2-.81 1.69-.3l.2.21.2-.21c.49-.51 1.34-.42 1.69.3.21.43.09.96-.24 1.31ZM26.5 9.5C26.5 7.57 28.07 6 30 6s3.5 1.57 3.5 3.5S31.93 13 30 13s-3.5-1.57-3.5-3.5Zm-12-.04c0-1.93 1.57-3.5 3.5-3.5s3.5 1.57 3.5 3.5-1.57 3.5-3.5 3.5-3.5-1.57-3.5-3.5Z"/></svg>
