<svg xmlns="http://www.w3.org/2000/svg" viewBox="0 0 48 48"><title>Station sneltrein</title><path d="M22.43 37H26l-3.47 5h-3.57l3.47-5Zm16.23 0h-3.57l3.47 5h3.57l-3.47-5ZM10.84 14.83c1.65 0 2.99-1.35 2.99-2.99s-1.35-2.99-2.99-2.99-2.99 1.35-2.99 2.99 1.35 2.99 2.99 2.99ZM13.07 16H8.84C7.23 16.1 6 17.42 6 19.11v6.9h2v8h6v-8h2v-6.9c0-1.72-1.27-3.07-2.93-3.11Zm17.42 18C24.42 34 19 29.07 19 23V13c0-3.86 3.14-7 7-7h9.02c3.86 0 7 3.14 7 7v10c0 6.07-5.47 11-11.53 11ZM23 14.98c0 1.11.99 3.55 6 3.96V9h-2c-2.21 0-4 1.79-4 4v1.98Zm4 9.52c0-.83-.67-1.5-1.5-1.5s-1.5.67-1.5 1.5.67 1.5 1.5 1.5 1.5-.67 1.5-1.5Zm10.02 0c0-.83-.67-1.5-1.5-1.5s-1.5.67-1.5 1.5.67 1.5 1.5 1.5 1.5-.67 1.5-1.5Zm1-11.5c0-2.21-1.79-4-4-4H32v9.93c4.99-.41 6.02-2.85 6.02-3.95V13Z"/></svg>
