<svg xmlns="http://www.w3.org/2000/svg" viewBox="0 0 48 48"><title>Station stoptrein</title><path d="M35.98 6h-9.99c-3.31 0-6.02 2.71-6.02 6.02V29c0 2.76 2.24 5 5 5h12.02c2.77 0 5.01-2.24 5.01-5.01V12.02C42 8.69 39.3 6 35.98 6Zm-10 23.97a2.02 2.02 0 1 1 .002-4.042 2.02 2.02 0 0 1-.002 4.042Zm10 0a2.02 2.02 0 1 1 .002-4.042 2.02 2.02 0 0 1-.002 4.042Zm.99-8.97H24.94l-2-8h16.03l-2 8ZM11 15c1.65 0 2.99-1.35 2.99-2.99S12.64 9.02 11 9.02s-2.99 1.35-2.99 2.99S9.36 15 11 15Zm2.07 1H8.84C7.23 16.1 6 17.42 6 19.11v6.9h2v8h6v-8h2v-6.9c0-1.72-1.27-3.07-2.93-3.11Zm6.91 26h3.51l3.42-6H23.4l-3.42 6Zm15.03-6 3.42 6h3.51l-3.42-6h-3.51Z"/></svg>
