<svg xmlns="http://www.w3.org/2000/svg" viewBox="0 0 48 48"><title>Stookverbod</title><path d="M11.01 42v-3h18v3M32 24c-5.37 0-9.74-4.24-9.98-9.55-.29-.16-.56-.36-.81-.62-.76-.82-1.28-1.85-1.28-3.15v-.83l.14-3.84-3.25 2.41c-1.34.99-2.56 2.1-3.64 3.3a22.71 22.71 0 0 0-2.77 3.78c-.77 1.32-1.37 2.69-1.78 4.08-.42 1.42-.64 2.82-.64 4.17 0 2.01.45 3.92 1.33 5.7.89 1.79 2.12 3.3 3.77 4.51s3.97 2.06 3.97 2.06l-.79-4a4.94 4.94 0 0 1-.24-1.52c0-.67.12-1.27.35-1.84.24-.57.58-1.08 1.04-1.56l3.07-3.11 3.08 3.12c.45.46.79.97 1.03 1.54.24.57.35 1.17.35 1.84a4.963 4.963 0 0 1-.24 1.52l-.69 3.9s2.67-.99 3.87-1.96c1.2-.97 2.88-2.72 3.77-4.51.85-1.71 1.29-3.56 1.32-5.48-.33.03-.66.05-1 .05Zm8-9.98c0 4.41-3.59 8-8 8s-8-3.59-8-8 3.59-8 8-8 8 3.59 8 8Zm-6.59 0 2.47-2.47-1.41-1.41L32 12.61l-2.47-2.47-1.41 1.41 2.48 2.47-2.48 2.47 1.41 1.41L32 15.42l2.47 2.48 1.41-1.41-2.47-2.47Zm-1.39 9.93c-5.35 0-9.71-4.22-9.95-9.51a3.83 3.83 0 0 1-.8-.62C20.51 13 20 11.97 20 10.67V6l-3.11 2.41c-1.34.99-2.56 2.1-3.64 3.3a22.71 22.71 0 0 0-2.77 3.78c-.77 1.32-1.37 2.69-1.78 4.08-.42 1.42-.64 2.82-.64 4.17 0 2.01.45 3.92 1.33 5.7.89 1.79 2.12 3.3 3.77 4.51s3.97 2.06 3.97 2.06l-.79-4a4.94 4.94 0 0 1-.24-1.52c0-.67.12-1.27.35-1.84.24-.57.58-1.08 1.04-1.56l3.07-3.11 3.08 3.12c.45.46.79.97 1.03 1.54.24.57.35 1.17.35 1.84a4.963 4.963 0 0 1-.24 1.52l-.69 3.9s2.67-.99 3.87-1.96c1.2-.97 2.88-2.72 3.77-4.51.86-1.73 1.3-3.59 1.32-5.54-.34.04-.69.05-1.04.05Z"/></svg>
