<svg xmlns="http://www.w3.org/2000/svg" viewBox="0 0 48 48"><title>Subsidie</title><path d="M34 26c-4.41 0-8 3.59-8 8s3.59 8 8 8 8-3.59 8-8-3.59-8-8-8Zm1.96 6.99v2h-3.57c.25.62.71 1.13 1.35 1.36.48.18 1.01.18 1.49 0l.94-.35.71 1.87-.94.35c-.47.18-.96.26-1.45.26s-.98-.09-1.45-.26c-1.42-.54-2.39-1.79-2.71-3.23h-1.36v-2h1.37c.04-.16.06-.32.11-.48.39-1.17 1.2-2.1 2.28-2.61 1.02-.49 2.17-.53 3.22-.14l.94.35-.71 1.87-.94-.35c-.54-.2-1.13-.18-1.65.07-.53.25-.94.71-1.17 1.29h3.56Zm-1.92-17.02c0-1.61 1.31-2.92 2.92-2.92s2.92 1.31 2.92 2.92-1.31 2.92-2.92 2.92-2.92-1.31-2.92-2.92ZM23.01 33.99c0 3.16 1.34 5.99 3.47 8H17v-3h-2.99v-12c0-2.72 2-4.84 4.66-4.99l10.3-.02c1.21.03 2.29.47 3.13 1.18-5.16.91-9.09 5.4-9.09 10.82ZM8.03 15.98c0-1.61 1.31-2.92 2.92-2.92s2.92 1.31 2.92 2.92-1.31 2.92-2.92 2.92-2.92-1.31-2.92-2.92Zm6.52 4.34A7.919 7.919 0 0 0 11 26.93V29H6v-6.5C6 21.17 7.16 20 8.49 20h4.89c.42 0 .81.12 1.17.32ZM42 22.5v3.97a11.01 11.01 0 0 0-5.94-3.27 8.024 8.024 0 0 0-2.61-2.88c.35-.2.75-.32 1.17-.32h4.89c1.34 0 2.49 1.16 2.49 2.5ZM17.56 9.87a7.064 7.064 0 0 1 6.37-4.01c1.62 0 3.11.55 4.3 1.47-.07.53-.22.95-.47 1.23-.91 1-3.34.97-5.5.95-1.63-.01-3.28-.02-4.69.36Zm12.41.71c-1.81 1.99-4.97 1.96-7.75 1.94-1.98-.02-4.22-.04-4.84.75-.28.35-.38.83-.22 1.72.88 2.9 3.58 5.02 6.77 5.02A7.07 7.07 0 0 0 31 12.94c0-1.03-.22-2-.62-2.88-.12.18-.26.36-.41.53Z"/></svg>
