<svg xmlns="http://www.w3.org/2000/svg" viewBox="0 0 48 48"><title>Temperatuur melding</title><path d="M27.02 35.98c0 3.27 2.73 5.99 5.99 5.99 3.27 0 5.98-2.71 5.98-5.98 0-1.67-.88-3.09-1.99-4.17l-.11-21.85c0-2.23-1.71-3.92-3.94-3.92s-3.94 1.69-3.94 3.92v21.77c-1.17 1.08-1.99 2.52-1.99 4.24Zm3 0c0-1.29.82-2.38 1.96-2.8V19.01c0-.56.45-1.01 1.01-1.01s1.01.45 1.01 1.01v14.15c1.18.41 2.03 1.51 2.03 2.83 0 1.66-1.34 3-3 3s-3-1.34-3-3ZM17 6c-4.42 0-8 3.58-8 8s3.58 8 8 8 8-3.58 8-8-3.58-8-8-8Zm-1.07 4h2v5h-2v-5Zm1.79 7.72c-.19.19-.43.28-.72.28s-.54-.09-.72-.28c-.19-.19-.28-.43-.28-.72s.09-.53.28-.72c.19-.19.43-.28.72-.28s.54.09.72.28c.19.19.28.43.28.72s-.09.53-.28.72Z"/></svg>
