<svg xmlns="http://www.w3.org/2000/svg" viewBox="0 0 48 48"><title>Thuiswerken</title><path d="M11.86 29h12.49l8.67-6.33h.02l1.18.84.67.49h1.14V12c0-1.66-1.34-3-3-3H12.02c-1.66 0-3 1.34-3 3v14c0 1.48 1.42 2.9 2.84 3Zm4.72-15.13 3.58.87-1.81 1.81 3.57 3.57-1.81 1.81-3.57-3.57-1.81 1.81-.87-3.58-.87-3.58 3.58.87Zm7.62 21.45.5.68H6v-1.51c0-.65.41-1.21.99-1.42.01 0 5.01-2.06 5.01-2.06h9.61l-.39.29 1.19 1.62 1.78 2.41Zm14.82-5.86v-3.45h-3v1.29l-2.98-2.16-9.01 6.58 1.78 2.41 1.21-.9v5.76h12v-5.83l1.21.89 1.81-2.44-3.02-2.16Zm-4 5.55h-4v-3h4v3Z"/></svg>
