<svg xmlns="http://www.w3.org/2000/svg" viewBox="0 0 48 48"><title>Toegankelijkheid</title><path d="M24 9C15.74 9 9.02 15.73 9.02 24S15.74 39 24 39s15.02-6.73 15.02-15S32.28 9 24 9Zm0 3.99c1.38 0 2.49 1.12 2.49 2.5s-1.12 2.5-2.49 2.5-2.49-1.12-2.49-2.5 1.12-2.5 2.49-2.5Zm4.35 21.98H25.3c-.23-1.22-.73-3.98-1.14-6.97h-.31c-.4 2.97-.91 5.73-1.15 6.97h-3.06c.12-.59.88-4.43 1.37-8.39v-4.71c-3.66-.3-6.27-1.03-6.41-1.07l.82-2.89s3.88 1.08 8.59 1.08c4.19 0 8.59-1.08 8.64-1.09l.72 2.91c-.15.04-2.97.73-6.36 1.03v4.79c.5 4 1.24 7.83 1.34 8.33Z"/></svg>
