<svg xmlns="http://www.w3.org/2000/svg" viewBox="0 0 48 48"><title>Trouwen en geregistreerd partnerschap</title><path d="M34.62 13.19 36.98 10l-3.01-4h-7.03l-3.01 4 2.29 3.12c-2.31.87-4.26 2.45-5.61 4.47 1.02.23 2.01.57 2.95 1.03a8.67 8.67 0 0 1 6.77-3.26c4.86 0 8.8 4.01 8.66 8.88-.14 4.72-4.28 8.55-9.02 8.36-4.48-.18-8.08-3.77-8.29-8.22-.89-.58-1.9-.96-2.98-1.1-.01.23-.05.46-.05.69 0 6.57 5.5 11.88 12.16 11.62 6.18-.25 11.21-5.47 11.2-11.63 0-4.89-3.07-9.08-7.38-10.79ZM32.13 12l-2.12-2.12 2.12-2.12 2.12 2.12L32.13 12Zm-7.68 23.75c.93.46 1.92.82 2.96 1.05-2.1 3.13-5.67 5.19-9.72 5.19-6.44 0-11.68-5.21-11.68-11.62s5.24-11.62 11.68-11.62 11.68 5.21 11.68 11.62c0 .23-.02.46-.04.69-1.1-.15-2.12-.56-3-1.16-.25-4.54-4.02-8.16-8.64-8.16s-8.66 3.87-8.66 8.62 3.89 8.62 8.66 8.62a8.64 8.64 0 0 0 6.76-3.25Z"/></svg>
