<svg xmlns="http://www.w3.org/2000/svg" viewBox="0 0 48 48"><title>Uitbuiting</title><path d="m21.72 27.44 1.4.46v14.06h-7.11l-1.99-10.7zm3.39 14.51 6.9.02 2.07-10.52-8.96-2.91v13.42Zm9.72-12.33-.4-.15-10.16-3.3 4.74-2.35c.7-.35 1.55-.19 2.08.39l.43.45 1.51-1.24-.47-.54a3.77 3.77 0 0 0-4.44-.84l-14.46 7.18-.88.43c-1.99.86-4.08-.98-3.48-3.06l2.49-8.65c.77-1.81 2.88-4.26 6.04-4.26h.23a6.3 6.3 0 0 1-.14-1.31c0-3.52 2.85-6.37 6.37-6.37a6.368 6.368 0 0 1 6.23 7.7c3.87.17 4.55 3.83 5.06 5.33.01.03 1.49 3.91 2.45 7.16.6 2.01-1.2 3.87-3.19 3.43Zm-16.72-8.89-2.6 1.54-.77 2.55 4.3-2.3-.94-1.8Zm11.21-5.32a5 5 0 0 1-.65-.26c-.85-.43-1.84-.26-2.56.35a6.4 6.4 0 0 1-6.08 1.22 4.94 4.94 0 0 0 4.43 2.76 4.93 4.93 0 0 0 4.85-4.06Z"/></svg>
