<svg xmlns="http://www.w3.org/2000/svg" viewBox="0 0 48 48"><title>Vergaderen digitaal</title><path d="M12.99 17.51c0 1.94 1.57 3.51 3.51 3.51s3.51-1.57 3.51-3.51S18.44 14 16.5 14s-3.51 1.57-3.51 3.51Zm6.04 5.54h-5.08c-1.65 0-2.96 1.25-2.96 2.8v1.16h11v-1.44c-.15-1.41-1.41-2.52-2.96-2.52Zm8.96-5.54c0 1.94 1.57 3.51 3.51 3.51s3.51-1.57 3.51-3.51S33.44 14 31.5 14s-3.51 1.57-3.51 3.51Zm6.04 5.54h-5.08c-1.65 0-2.96 1.25-2.96 2.8v1.16h11v-1.44c-.15-1.41-1.41-2.52-2.96-2.52Zm-1.04 16.96H15c0-1.1.9-2 2-2h3v-3h8v3h3c1.1 0 2 .9 2 2Zm9-29.02v19.02c0 1.66-1.34 3-3 3H9c-1.66 0-3-1.34-3-3V10.98c0-1.66 1.34-3 3-3h30c1.66 0 3 1.34 3 3Z"/></svg>
