<svg xmlns="http://www.w3.org/2000/svg" viewBox="0 0 48 48"><title>Verhuizen</title><path d="M23 22h-3l4-6.03L28 22h-3v5h-2v-5Zm-8-.2V25h-2v2h6v-2h-2v-3.2c1.16-.41 2-1.51 2-2.81V16h-6v2.99c0 1.3.84 2.4 2 2.81Zm-2.44 12.24c-.83 0-1.5.67-1.5 1.5s.67 1.5 1.5 1.5 1.5-.67 1.5-1.5-.67-1.5-1.5-1.5Zm21.93 0c-.83 0-1.5.67-1.5 1.5s.67 1.5 1.5 1.5 1.5-.67 1.5-1.5-.67-1.5-1.5-1.5ZM42 24.95v8.56c0 .82-.67 1.49-1.49 1.49h-1.57c-.24-2.26-2.13-4.03-4.45-4.03s-4.21 1.77-4.45 4.03H17.01c-.24-2.26-2.13-4.03-4.45-4.03S8.35 32.74 8.11 35h-.6c-.83 0-1.5-.67-1.5-1.5V11h27v7h4.6c.6 0 1.15.36 1.38.91l3.02 6.04ZM30 13.99H9v15h21v-15Zm9 11-2.04-4H33v5h6v-1Z"/></svg>
