<svg xmlns="http://www.w3.org/2000/svg" viewBox="0 0 48 48"><title>Verhuizen</title><path d="M38.98 18.91c-.24-.55-.78-.91-1.38-.91H33v-7H6v22.5c0 .83.67 1.5 1.5 1.5h.6c.24-2.26 2.13-4.03 4.45-4.03S16.76 32.74 17 35h13.03c.24-2.26 2.13-4.03 4.45-4.03s4.21 1.77 4.45 4.03h1.57c.82 0 1.49-.67 1.49-1.49v-8.56l-3.02-6.04ZM19 18.99c0 1.3-.84 2.4-2 2.81V25h2v2h-6v-2h2v-3.2c-1.16-.41-2-1.51-2-2.81V16h6v2.99ZM25 22v5h-2v-5h-3l4-6.03L28 22h-3Zm14 4h-6v-5h3.96L39 25v1Zm-24.94 9.54c0 .83-.67 1.5-1.5 1.5s-1.5-.67-1.5-1.5.67-1.5 1.5-1.5 1.5.67 1.5 1.5Zm21.93 0c0 .83-.67 1.5-1.5 1.5s-1.5-.67-1.5-1.5.67-1.5 1.5-1.5 1.5.67 1.5 1.5Z"/></svg>
