<svg xmlns="http://www.w3.org/2000/svg" viewBox="0 0 48 48"><title>Verkiezingen</title><path d="M23.86 31.2c.21.58.33 1.14.22 1.46-.3.92-1.29 1.42-2.21 1.11l-2.68-.88v.26a1.752 1.752 0 0 1-1.75 1.71c-.6 0-1.17-.31-1.49-.84l-2.78-4.56c-.45-.74-.36-1.75.3-2.31.84-.72 2.09-.5 2.64.41 0 0 .17.28.35.59l-.27 2.86c-.14.59.4 1.11.98.95l6.68-.76Zm-.27-2.47-4.25-4.25-.68 3.51 1.59 1.51 3.35-.76ZM41 11.24 36.76 7 21.28 22.47l4.25 4.25L41 11.24ZM28.9 27.6c.07.46.11.93.11 1.41 0 5.52-4.48 10-10 10s-10-4.48-10-10 4.48-10 10-10c.49 0 .96.05 1.43.11l2.11-2.11H7.01v24h24V25.49L28.9 27.6Z"/></svg>
