<svg xmlns="http://www.w3.org/2000/svg" viewBox="0 0 48 48"><title>Verslaving</title><path d="m40.43 33.96-.23.23c-.9.9-2.04 1.39-3.21 1.52v-.11c0-3.64-2.06-6.81-5.08-8.4l4.67-4.67 3.83 3.83c2.1 2.1 2.1 5.5 0 7.6Zm-15.54-7.49c.83-.24 1.71-.37 2.61-.37.41 0 .8.03 1.2.08l5.77-5.77-3.83-3.83c-2.1-2.1-5.5-2.1-7.6 0l-.23.23c-2.1 2.1-2.1 5.5 0 7.6l2.07 2.07ZM18 23v19H6V23a5.99 5.99 0 0 1 4-5.65V6h4v11.35c2.33.82 4 3.04 4 5.65Zm-3 6H9v10h6V29Zm7.9 11.2c2.19 2.19 5.58 2.48 8.09.88l-8.97-8.97c-1.6 2.51-1.31 5.9.88 8.09Zm1.28-10.18 8.9 8.9c1.48-2.49 1.16-5.77-.98-7.92-2.14-2.14-5.42-2.47-7.92-.98Z"/></svg>
