<svg xmlns="http://www.w3.org/2000/svg" viewBox="0 0 48 48"><title>Vluchtelingenopvang</title><path d="M42 11.5v3.46L29.04 9.42 16 15v-3.45l13.05-5.58L42 11.51Zm-15 7c0-1.93-1.57-3.5-3.5-3.5S20 16.57 20 18.5s1.57 3.5 3.5 3.5 3.5-1.57 3.5-3.5Zm11 0c0-1.93-1.57-3.5-3.5-3.5S31 16.57 31 18.5s1.57 3.5 3.5 3.5 3.5-1.57 3.5-3.5Zm3 8.5v11h-3v4h-3.99v-5.93c0-1.14-.93-2.06-2.07-2.06H25v-.47c0-1.95-1.59-3.53-3.53-3.53H20v-.54c0-1.68-1.22-3.08-2.83-3.39.39-1.2 1.51-2.07 2.83-2.07h18c1.66 0 3 1.34 3 3Zm-8.99 2c0-1.66-1.34-3-3-3s-3 1.34-3 3 1.34 3 3 3 3-1.34 3-3ZM23 33.53v6.97c0 .83-.67 1.5-1.5 1.5h-14c-.83 0-1.5-.67-1.5-1.5v-7.01c0-.83.67-1.5 1.5-1.5H11v-2.51c0-.83.69-1.49 1.54-1.49h3.95c.84 0 1.51.65 1.51 1.46v2.54h3.47c.84 0 1.53.69 1.53 1.53ZM16 30h-3v2h3v-2Z"/></svg>
