<svg xmlns="http://www.w3.org/2000/svg" viewBox="0 0 48 48"><title>Vuurwerk</title><path d="m5.98 32 6.24-7.82-6.24-2.21 6.41-2.07-4.6-8.73 8.24 3.53-.06-5.72 5.63 5.41 4.39-4.33v4.21l-4.68 4.62-1.8-2.3.09 2.64-5.33-2.17 2.41 4.58-1.12.37 2.06.58-4.59 5.2 5.94-1.12v3.25l-2.98 2.99v-2.63l-10.01 1.7ZM41.23 9h-8.27c-.43.1-.54.64-.2.98l.9.9-2.13 2.13H36l2 2h-8.47l-3 3h8.56l-2 2h-8.56l-2.74 2.74.26.26h8.03l-2 2h-4.03l1.98 1.98-12 12h4.24l11.55-11.55 4.3-4.3-.13-.13h.26l5.76-5.76.99.99c.34.34.87.22.96-.2V9.77c.1-.43-.32-.85-.75-.76Z"/></svg>
