<svg xmlns="http://www.w3.org/2000/svg" viewBox="0 0 48 48"><title>Wandelen</title><path d="M36.23 21 33 42h-2.77L33 24h-3.82c-1.2 0-2.29-.6-2.93-1.61l-1.13-1.61c-.54 2.67-1.22 6.17-1.35 6.85l2.32 2.79c.51.61.92 1.38.92 2.17V42H24v-9.48l-5.51-5.68c-.69-.71-.98-1.71-.79-2.68l1.13-5.57c-1.05.43-2.38.92-3.83 1.38v5.04h-3V20.3c0-1.31.79-2.47 1.99-2.98.94-.39 5.87-2.39 6.96-2.77 2.05-.72 3.29.15 3.85.73.06.06 4.07 5.69 4.07 5.69l7.36.04Zm-11.66-8.36c1.84 0 3.33-1.49 3.33-3.33s-1.49-3.33-3.33-3.33-3.33 1.49-3.33 3.33 1.49 3.33 3.33 3.33ZM16.96 28.6 13.99 42h3.22l2.56-10.49-2.81-2.91Z"/></svg>
