<svg xmlns="http://www.w3.org/2000/svg" viewBox="0 0 48 48"><title>Windenergie</title><path d="m28.42 39.05-.74-13.52 3.2.86 5.49.46h.2c1.08 0 2.03-.72 2.32-1.78.34-1.27-.42-2.58-1.69-2.93l-9.74-2.64a3.99 3.99 0 0 0-1.14-1.52l-1.14-5.36-2.09-5.09a2.388 2.388 0 0 0-2.73-1.43 2.393 2.393 0 0 0-1.83 2.84l2.03 9.52c-.33.4-.59.85-.76 1.35l-4.75 4.26-3.38 4.35c-.71.92-.66 2.21.12 3.08.47.52 1.12.79 1.78.79.57 0 1.14-.2 1.6-.61l4.39-3.93-.62 11.28h-8.86v3h29v-3H28.45Zm-6.26-4.4.53-9.56c.32.08.64.13.98.13s.67-.05.99-.13l.52 9.56h-3.01Zm1.51-11.43c-1.16 0-2.11-.95-2.11-2.11S22.51 19 23.67 19s2.11.95 2.11 2.11-.95 2.11-2.11 2.11Z"/></svg>