<svg xmlns="http://www.w3.org/2000/svg" viewBox="0 0 48 48"><title>Wolf</title><path d="M13 27.97c-3.87 0-7 3.14-7 7.02s3.13 7.02 7 7.02 7-3.14 7-7.02-3.13-7.02-7-7.02Zm.72 10.74c-.19.19-.43.28-.72.28s-.54-.09-.72-.28c-.19-.19-.28-.43-.28-.72s.09-.53.28-.72c.19-.19.43-.28.72-.28s.54.09.72.28c.19.19.28.43.28.72s-.09.53-.28.72Zm.28-2.72h-2v-5.01h2v5.01Zm19.13-15.41V20c0-1.27-.56-2.47-1.55-3.3L28 13.96V7.37s-3.26.87-5 3.09V5.99l-1.33.47c-.18.06-4.37 1.6-6.75 7.27L8.4 17.74l2.13 2.13-4.52 3.84v4.11a9.955 9.955 0 0 1 7-2.87c1.19 0 2.33.22 3.39.6.77-2.21 2.84-5.92 7.62-2.61 4.69 3.25 10.22 4.94 12.76 5.63l-.66.79c-.32.26-2.04 1.93-5.52.05l-5.5-2.47-3.08 4.95 2.28 3.07-2.04 3.06 2.98 3.96H29l-3.06-4.06 1.96-2.95-2.22-3.33c.09-.31.58-1.06.58-1.06l1.83.91c6.07 3.6 10.01.14 10.16 0l3.77-4.51-8.87-6.41Zm-3.23.82a1.007 1.007 0 0 1-1.35.44l-2-1a1.01 1.01 0 0 1-.45-1.34c.25-.5.85-.7 1.34-.45l2 1c.49.25.69.85.45 1.35Z"/></svg>
