<svg xmlns="http://www.w3.org/2000/svg" viewBox="0 0 48 48"><title>Woning zoeken</title><path d="m41.41 29.32-7.25-7.25a1.983 1.983 0 0 0-2.82 0l-.07.07-1.66-1.66c1.13-1.5 1.8-3.36 1.8-5.38 0-4.96-4.04-9-9-9s-9 4.04-9 9 4.04 9 9 9c1.86 0 3.59-.57 5.03-1.54l1.72 1.72c-.71.79-.69 1.99.07 2.75l7.25 7.25c.39.39.9.59 1.41.59s1.02-.2 1.41-.59l2.12-2.12a1.983 1.983 0 0 0 0-2.82ZM22.4 21.19c-3.36 0-6.1-2.73-6.1-6.1s2.74-6.1 6.1-6.1 6.1 2.73 6.1 6.1-2.74 6.1-6.1 6.1Zm-11.95 5.73 4.54 4.07v11H6v-11l4.46-4.07Zm12 0 4.54 4.07v11h-9v-11l4.46-4.07Z"/></svg>
