<svg xmlns="http://www.w3.org/2000/svg" viewBox="0 0 48 48"><title>WOZ waarde</title><path d="m42 40.59-.44.3A6.328 6.328 0 0 1 38 42c-1.81 0-3.6-.8-4.96-2.35a8.133 8.133 0 0 1-1.53-2.66h-2.52v-2h2.07a9.55 9.55 0 0 1 0-2h-2.08v-2h2.52c.32-.92.8-1.79 1.43-2.54 2.26-2.69 5.8-3.24 8.61-1.35l.43.29-1.17 1.62-.37-.25c-1.93-1.3-4.38-.9-5.96.98-.32.38-.57.81-.79 1.26h5.31v2h-5.93c-.09.66-.09 1.34 0 2h5.92v2h-5.3c.23.48.5.94.86 1.34 1.6 1.83 3.96 2.19 5.89.89l.38-.26 1.17 1.62ZM33.98 20.5 34 25h.1c-.99.52-1.91 1.24-2.68 2.17-.47.56-.87 1.17-1.21 1.83H27v7H9.98V20.54L8 22.27l-1.98-2.26L21.95 6.07l9.02 7.85V11h3v5.53l4.02 3.49-1.97 2.26-2.05-1.78ZM26 21h-8v6h8v-6Z"/></svg>
