<svg xmlns="http://www.w3.org/2000/svg" viewBox="0 0 48 48"><title>Zelfbeheer tegel</title><path d="M23.71 22.38c-.18-.24-.37-.46-.59-.65.29-.03.57-.09.86-.18a4.161 4.161 0 0 0 2.67-5.23 4.15 4.15 0 0 0-3.95-2.87c-.43 0-.86.07-1.28.2-.28.09-.55.21-.8.36a4.153 4.153 0 0 0-4.06-5.02 4.153 4.153 0 0 0-4.06 5.02 4.44 4.44 0 0 0-.8-.36 4.162 4.162 0 0 0-5.23 2.67A4.145 4.145 0 0 0 10 21.73c-.21.19-.41.41-.59.65a4.146 4.146 0 0 0 .92 5.8c.74.54 1.59.79 2.44.79 1.28 0 2.55-.59 3.36-1.71.18-.24.32-.5.44-.76.12.26.26.52.44.76a4.137 4.137 0 0 0 3.36 1.71 4.146 4.146 0 0 0 3.36-6.59Zm-7.14.61c-1.92 0-3.47-1.55-3.47-3.47s1.55-3.47 3.47-3.47 3.47 1.55 3.47 3.47-1.55 3.47-3.47 3.47Zm1.5 8.56.06 9.43-3-.03C10.05 40.52 6 36.21 6 31.02c4.05 0 7.54 2.45 9.07 5.94v-5.43c.52-.18 1.02-.4 1.49-.69.47.3.98.52 1.51.7ZM38 23.09v6.9c0 1.28-.61 2.41-1.54 2.89-.15.07-.3.11-.45.11-.36 0-.71-.2-.89-.54-.25-.49-.06-1.09.44-1.35.22-.11.46-.57.46-1.11v-10h2c.55 0 1-.45 1-1v-10c0-1.66-1.34-3-3-3h-2c-1.66 0-3 1.34-3 3v10c0 .55.45 1 1 1h2v3h-1c-2.76 0-5 2.24-5 5 0 3.87 3.13 13 7 13s7-9.13 7-13a5 5 0 0 0-4-4.9Z"/></svg>
