<svg xmlns="http://www.w3.org/2000/svg" viewBox="0 0 48 48"><title>Zwemabonnement</title><path d="M32 30.47a3.53 3.53 0 1 1 7.059-.001A3.53 3.53 0 0 1 32 30.47ZM16.73 36h.25c1.29 0 2.29-.61 3.43-1.15a8.46 8.46 0 0 1 3.62-.84c.55 0 1.1.06 1.65.18 1.32.29 2.34 1.03 3.57 1.48.58.21 1.15.31 1.72.31.41 0 .81-.23 1.21-.46l-5.87-8.56A5.463 5.463 0 0 0 21.43 24h-6.92c-.83 0-1.5.67-1.5 1.5s.67 1.5 1.5 1.5h6.92c.95 0 1.81.53 2.24 1.38.03.05.05.1.08.15l.63.97-9.07 6.16c.44.17.91.3 1.42.33ZM6 17.98V9.01C6 7.35 7.36 6 9.04 6h15.92c1.68 0 3.05 1.35 3.05 3.02v8.97c0 1.66-1.36 3.01-3.03 3.01H9.06c-1.68 0-3.04-1.35-3.04-3.02ZM19 13h6v-2h-6v2Zm0 4h5v-2h-5v2Zm-8.24-5.27c0 .97.78 1.75 1.74 1.75s1.74-.78 1.74-1.75-.78-1.75-1.74-1.75-1.74.78-1.74 1.75ZM9 17h7v-.88c0-1.17-2.33-1.75-3.5-1.75S9 14.96 9 16.12V17Zm29.16 20.07c-1.53 0-3.06.43-4.47 1.18-.88.47-1.8.74-2.74.74-.57 0-1.14-.1-1.72-.31-1.23-.45-2.25-1.19-3.57-1.48a7.72 7.72 0 0 0-1.65-.18c-1.24 0-2.48.3-3.62.84-1.13.54-2.14 1.15-3.43 1.15h-.25c-1.36-.08-2.35-.83-3.55-1.33-1.02-.43-2.1-.65-3.18-.65-.73 0-1.46.1-2.18.3-.64.18-1.23.46-1.82.76v3.31c1.44-.56 2.71-1.33 4.21-1.33.56 0 1.15.11 1.8.37 1.08.44 2 1.07 3.17 1.35.6.14 1.2.21 1.81.21 1.09 0 2.18-.23 3.2-.66 1.12-.47 2.04-1.15 3.29-1.3.17-.02.33-.03.5-.03 1.12 0 2.12.45 3.11.98 1.24.66 2.52.97 3.79.97 1.52 0 3.03-.43 4.46-1.2.87-.46 1.77-.72 2.69-.72.63 0 1.27.12 1.91.37.72.29 1.38.64 2.07.94v-3.27a7.638 7.638 0 0 0-3.84-1.01Z"/></svg>
