<svg xmlns="http://www.w3.org/2000/svg" viewBox="0 0 48 48"><title>Paspoort</title><path d="m32.98 12.01-16.48.05c-.83 0-1.5-.67-1.5-1.5C15 9.7 15.7 9 16.56 9h16.09c-.24-1.69-1.66-3-3.39-3H16.43c-2.46 0-4.46 2-4.46 4.46L12.02 39a3 3 0 0 0 2.99 3h17.96c1.66 0 3.01-1.35 3.01-3.01V15.02c0-1.67-1.35-3.02-3.02-3.01ZM30 37H18v-2h12v2Zm0-14-1 2-3 .3v.89l1 1.33v1.73l-1 .74v.5l1 .5-.5 1H25v-1.07l.5-1.61-1.5-.54-.5-.78h-2L20 29.31l-2-1.61.5-1.07 1.5.54 1-1.07-.99-.6v-.99l1.99-5 1.5.5s-.12.73-.09.8c.03.07.5.95.5.95l-.61 1.05 1.65-.83.47-1.91-1.21-.22.2-1.62.91-.91 3.17-.32.5 1h1l-.5 3H29v1h1v1Z"/></svg>
