<svg xmlns="http://www.w3.org/2000/svg" viewBox="0 0 48 48"><title>Afvalcontainerpas</title><path d="M12.77 31.69c0-.97.78-1.75 1.74-1.75s1.74.78 1.74 1.75-.78 1.75-1.74 1.75-1.74-.78-1.74-1.75Zm1.73 2.68c-1.17 0-3.5.59-3.5 1.75V37h7v-.88c0-1.17-2.33-1.75-3.5-1.75ZM30 28.02v10.97c0 1.66-1.36 3.01-3.03 3.01H9.04C7.36 42 6 40.65 6 38.98V28.01C6 26.35 7.36 25 9.04 25h17.92c1.68 0 3.05 1.35 3.05 3.02ZM26.99 28H9l-.04 11 18.04.02V28ZM20 37h4v-2h-4v2Zm0-4h5v-2h-5v2Zm-3-10h-3v-9c0-1.66 1.34-3 3-3h12V8h-1c-.55 0-1-.45-1-1s.45-1 1-1h4c.55 0 1 .45 1 1s-.45 1-1 1h-1v3h5c1.66 0 3 1.34 3 3v19h-3V15c0-.55-.45-1-1-1h-2v8c0 .55-.45 1-1 1H21c-.55 0-1-.45-1-1v-8h-2c-.55 0-1 .45-1 1v8Zm6-7h7v-2h-7v2Zm9 19v3h10v-3H32Z"/></svg>
