<svg xmlns="http://www.w3.org/2000/svg" viewBox="0 0 48 48"><title>Afval GFT</title><path d="M25.6 37.82c-.38-.28-.74-.59-1.08-.92l-.11 1.1H19s-.02.02-.05 0h-1.01c.02-.17.05-.33.05-.5 0-2.48-2.02-4.5-4.5-4.5-.17 0-.33.03-.5.05V12h14l-.8 8h2.97l.82-8h4V8h-4c0-1.1-.9-2-2-2H11.96C10.88 6 10 6.88 10 7.96V8H8v4h2l-.03 22.75a4.424 4.424 0 0 0-.76 4.11c.43 1.4 1.55 2.52 2.95 2.94 1.58.48 3.05.07 4.14-.8h8.02c1.4 0 2.58-.97 2.9-2.29-.51-.28-1.04-.57-1.62-.89Zm-12.29 1.64c-.83 0-1.5-.67-1.5-1.5s.67-1.5 1.5-1.5 1.5.67 1.5 1.5-.67 1.5-1.5 1.5Zm25.62 1.42c-.59-5.3-2.96-8.69-7.46-10.7-.5-.22-.73-.82-.51-1.32.23-.5.82-.73 1.32-.51 3.37 1.5 5.72 3.76 7.15 6.81.56-1.35.59-2.52.59-3.16-.02-8.7-8.16-10-13-10h-4.01c-.55 0-1 .45-1 1v2.06c.62 10.7 6.87 12.94 12 12.94h2.34c.32.94.54 1.97.67 3.11.06.51.49.89.99.89h.11c.49-.06.84-.46.87-.94-.02-.06-.05-.11-.05-.18Z"/></svg>
