<svg xmlns="http://www.w3.org/2000/svg" viewBox="0 0 48 48"><title>Afval glascontainer</title><path d="M10 26.3V34h4.98l.02 8H6V24.3c.19-1.73 1.41-3.16 3-3.72V10h3v10.58c1.59.57 2.81 1.99 3 3.72v2h-5ZM31 20c0 1.1.9 2 2 2s2-.9 2-2-.9-2-2-2-2 .9-2 2Zm-14 1.82V15c0-.55.45-1 1-1h18c.55 0 1 .45 1 1v19h3V14c0-1.66-1.34-3-3-3h-5V8h1c.55 0 1-.45 1-1s-.45-1-1-1h-4c-.55 0-1 .45-1 1s.45 1 1 1h1v3H17c-1.66 0-3 1.34-3 3v5c1.27.62 2.31 1.6 3 2.82ZM19 20c0 1.1.9 2 2 2s2-.9 2-2-.9-2-2-2-2 .9-2 2Zm6 0c0 1.1.9 2 2 2s2-.9 2-2-.9-2-2-2-2 .9-2 2Zm-7 16v3h24v-3H18Z"/></svg>
