<svg xmlns="http://www.w3.org/2000/svg" viewBox="0 0 48 48"><title>Afval PMD</title><path d="M13 39H8c-1.11 0-2-.9-2-2.01l.02-7H6V15.52c0-.49.18-.97.51-1.34l4.47-4.96V5.99h4.01v3.22l4.49 4.97c.33.37.51.84.51 1.34v4.47h-3v-4l-2.99-3h-2.19l-2.82 2.96V36h3.99v3Zm16 0-3.02 3H18l-3-3V26l2-4h3l3 .01 3-.01h1l2 3.62V39Zm-3-12.57-.88-1.47-6.23.03-.89 1.57v11.73l.79.73 6.43-.03.78-.64V26.42Zm16-13.2v22.32a2 2 0 0 1-1.38 1.9l-4.53 1.48-.53.07H31v-3h2V16.77h-7V20h-2.98l.05-6L27 10V8c0-1.1.9-2 2-2h8c1.1 0 2 .9 2 2v2l3 3.23ZM36 11V9h-6v1.95L27 14h6l3-3Zm3 3.47-1.38-1.38L36 15.42v20.43l3-1.22V14.47Z"/></svg>
