<svg xmlns="http://www.w3.org/2000/svg" viewBox="0 0 48 48"><title>Armoede</title><path d="M22.39 27.34c-1.27-.94-2.86-1.3-4.54-1.1-.19-1.59-.73-2.72-1.82-3.86l-2.16 2.07c.5.53.81.99.96 1.76-1.6-.15-3.12.23-4.34 1.13-1.74 1.28-2.67 3.44-2.54 5.93.19 3.81 1.96 7.05 4.49 8.25 1.32.63 2.72.63 3.99.05.67.32 1.37.49 2.08.49s1.39-.16 2.06-.48c2.49-1.18 4.16-4.37 4.36-8.31.13-2.49-.8-4.65-2.54-5.93ZM19.3 38.86c-.66.31-1.32.23-1.97-.25-.53-.39-1.24-.39-1.77 0-.59.44-1.19.5-1.84.19-1.23-.59-2.63-2.62-2.78-5.7-.08-1.48.39-2.67 1.32-3.35.94-.7 2.24-.78 3.66-.24.34.13.71.13 1.05 0 1.42-.54 2.72-.45 3.66.24.93.68 1.4 1.87 1.32 3.35-.17 3.4-1.54 5.22-2.66 5.75ZM7.99 17.5H5.98v-3h1.35c0-.12-.02-.25-.02-.37h-.03c0-.09.01-.18.02-.27 0-.09-.02-.18-.02-.27h.03c0-.2.02-.39.03-.58H5.98v-3h2.13c.77-1.73 2.05-3.03 3.75-3.67 2.25-.85 4.67-.3 6.17 1.4l-2.25 1.98c-.66-.75-1.79-.98-2.86-.58-.48.18-.9.48-1.26.86h2.33v3h-3.62c-.04.27-.06.56-.07.85 0 .22.01.44.03.65h3.65v3h-2.55c.41.52.92.91 1.52 1.14 1.09.41 2.23.18 2.9-.59l2.25 1.98c-1.04 1.18-2.52 1.81-4.08 1.81a6 6 0 0 1-2.14-.4c-1.79-.68-3.14-2.07-3.9-3.94Zm29.96-5.35V6h-14v6.09l-4 6.44v5.7c1.06.11 2.08.41 3 .89v-5.67l2.5-4.07 2.5 4.07v22.54h14V18.75l-4-6.61ZM26.95 9h8v2h-8V9Zm.76 5h7.89l2.17 3h-7.89l-2.17-3Zm11.24 25h-8V20h8v19Z"/></svg>