<svg xmlns="http://www.w3.org/2000/svg" viewBox="0 0 48 48"><title>Asbest Verwijderen</title><path d="M26.55 24c.83 0 1.5.67 1.5 1.5s-.67 1.5-1.5 1.5-1.5-.67-1.5-1.5.67-1.5 1.5-1.5Zm-2.52 4a.97.97 0 0 0-.97.97v.97h1.95v-.97a.97.97 0 0 0-.97-.97Zm6.94-2.61c0 1.95-.82 3.78-2.26 5.1v2.18c0 1.83-1.49 3.33-3.32 3.33h-2.76c-1.83 0-3.33-1.49-3.33-3.33v-2.18c-1.8-1.65-2.6-4.02-2.13-6.45.52-2.71 2.67-4.91 5.36-5.47 2.1-.44 4.24.08 5.88 1.41a6.956 6.956 0 0 1 2.57 5.41Zm-2 0c0-1.5-.67-2.91-1.83-3.86-.89-.73-2-1.11-3.15-1.11-.35 0-.71.04-1.06.11-1.9.39-3.43 1.95-3.8 3.88-.35 1.85.32 3.66 1.79 4.84a1 1 0 0 1 .38.78v2.64c0 .73.59 1.33 1.33 1.33h2.76c.73 0 1.32-.59 1.32-1.33v-2.64a1 1 0 0 1 .38-.78c1.2-.96 1.89-2.37 1.89-3.86Zm-7.4-1.36c-.82 0-1.48.66-1.48 1.48s.66 1.48 1.48 1.48 1.48-.66 1.48-1.48-.66-1.48-1.48-1.48Zm19.84 13.85A4.335 4.335 0 0 1 37.68 40H10.32c-1.52 0-2.95-.81-3.72-2.12-.79-1.34-.79-3 0-4.35l13.68-23.39C21.05 8.82 22.48 8 24.01 8s2.96.82 3.73 2.14l13.68 23.39c.79 1.34.78 3.01 0 4.35Zm-2.57-2.79L25.16 11.7c-.23-.4-.68-.65-1.16-.65s-.93.25-1.16.65L9.16 35.09c-.22.38-.22.84 0 1.22.23.4.68.65 1.16.65h27.35c.49 0 .93-.25 1.17-.64.22-.38.23-.84 0-1.22Z"/></svg>