<svg xmlns="http://www.w3.org/2000/svg" viewBox="0 0 48 48"><title>Attentie</title><path d="M42 22a3.98 3.98 0 0 0-2.69-3.76c-.09-.06-.18-.13-.27-.19V7.96h-4.9l-10.73 7.09H9.49c-.83 0-1.5.67-1.5 1.5v1.5H6v7.98h1.99v1.48c0 .83.67 1.5 1.5 1.5h1.63l2.67 9.91c.18.65.77 1.11 1.45 1.11h6.92a1.5 1.5 0 0 0 1.45-1.89l-2.46-9.13h1.59l11.42 7.03h4.88v-10.2c1.7-.46 2.97-2 2.97-3.85ZM16.39 37.04l-2.16-8.02h3.81l2.16 8.02h-3.81Zm5.62-11.02H10.98v-7.96h11.03v7.96Zm14.02 7.03h-1.09l-9.93-6.19v-9.28l9.95-6.62h1.06v22.09Z"/></svg>
