<svg xmlns="http://www.w3.org/2000/svg" viewBox="0 0 48 48"><title>Auto</title><path d="M29 28.99H19v-2.95h10v2.95Zm5.43 1c1.38 0 2.5-1.1 2.5-2.46s-1.12-2.46-2.5-2.46-2.5 1.1-2.5 2.46 1.12 2.46 2.5 2.46Zm6.44-9.96h-.32L42 22.01V38.4c0 .89-.72 1.61-1.61 1.61H37.6c-.89 0-1.61-.72-1.61-1.61v-3.39H12v3.39c0 .89-.72 1.61-1.61 1.61H7.6c-.89 0-1.61-.72-1.61-1.61V22.01l1.45-1.98h-.32c-.63 0-1.14-.51-1.14-1.14v-1.67c0-.63.51-1.14 1.14-1.14h1.65l1.65-4.91c.6-1.82 2.31-3.05 4.25-3.06h18.72c1.95 0 3.66 1.24 4.26 3.06l1.59 4.91h1.61c.63 0 1.14.51 1.14 1.14v1.67c0 .63-.51 1.14-1.14 1.14Zm-30.28.07 26.83.02-2.6-8.12c-.2-.59-.77-1-1.42-1H14.69c-.65 0-1.22.41-1.42 1.01l-2.68 8.09ZM39 23H9.01l-.05 9.05H39V23Zm-25.5 7.03c1.38 0 2.5-1.1 2.5-2.46s-1.12-2.46-2.5-2.46-2.5 1.1-2.5 2.46 1.12 2.46 2.5 2.46Z"/></svg>
