<svg xmlns="http://www.w3.org/2000/svg" viewBox="0 0 48 48"><title>Bedrijventerrein</title><path d="m32 13-7 4.49V6H10v15h15l7-4.39L39 21v12h3V19.46L32 13Zm-16 5h-3v-3h3v3Zm0-6h-3V9h3v3Zm6 6h-3v-3h3v3Zm0-6h-3V9h3v3Zm12.04 19.01-3-8.01H6l.02 14.96H8V38c0 2.21 1.8 4 4 4s4-1.79 4-4h9.96c0 2.21 1.8 4 4 4s4-1.79 4-4h2.02l-.02-5.01c0-1.08-.87-1.95-1.94-1.99ZM12 39.59c-.88 0-1.59-.71-1.59-1.59s.72-1.59 1.59-1.59 1.59.71 1.59 1.59-.72 1.59-1.59 1.59Zm11-6.58H9.02v-7H23v7Zm3-2v-5h2.96l1.88 5H26Zm3.97 8.58c-.88 0-1.59-.71-1.59-1.59s.72-1.59 1.59-1.59 1.59.71 1.59 1.59-.72 1.59-1.59 1.59Z"/></svg>
