<svg xmlns="http://www.w3.org/2000/svg" viewBox="0 0 48 48"><title>Begraafplaats</title><path d="M14 26h6v2h-6v-2Zm1 6h4v-2h-4v2Zm18.17-.63c-1.65-1-3.38-1.73-5.17-2.2v3.13c1.24.39 2.45.93 3.61 1.64 3.1 1.88 5.6 4.72 7.1 8.06h3.26a21.321 21.321 0 0 0-8.81-10.63ZM28 37v5H6v-5c0-1.3.84-2.4 2-2.82V22.35l.67-.45c2.52-1.67 5.4-2.54 8.33-2.54s5.8.88 8.33 2.54l.67.45v11.83c1.16.41 2 1.51 2 2.82Zm-17-3h12V24a12.017 12.017 0 0 0-12 0v10Zm14 3H9v2h16v-2Zm12-10.91L36.94 22h.73c.25 0 .51-.03.75-.09 1.75-.44 2.82-2.29 2.41-4.13.26-.23.48-.49.66-.79.97-1.6.52-3.72-.99-4.74.68-1.28.52-2.87-.41-3.96a3.14 3.14 0 0 0-2.42-1.13C37.18 6.46 36.39 6 35.5 6s-1.67.46-2.16 1.15c-.55 0-1.1.14-1.6.43-1.56.93-2.12 3.02-1.24 4.67-.28.19-.53.42-.75.69-1.15 1.46-.96 3.62.42 4.83-.04.2-.07.39-.08.59-.1 1.89 1.26 3.51 3.05 3.62H34v3.31c-2.46-.37-4.72-.35-6-.31v2.82c4.83-.15 9.61.9 14 3.11v-2.96c-1.63-.78-3.3-1.4-5-1.87Z"/></svg>
