<svg xmlns="http://www.w3.org/2000/svg" viewBox="0 0 48 48"><title>Belastingen</title><path d="M40.51 7.06h-31c-.83 0-1.5.67-1.5 1.5v8c0 .83.67 1.5 1.5 1.5h.46l5.04-8h3L6.21 29.29c-.42.71-.2 1.62.51 2.05l15.37 9.38c.24.15.51.22.78.22a1.494 1.494 0 0 0 1.28-.72l13.52-22.16h2.85c.83 0 1.5-.67 1.5-1.5v-8c0-.83-.67-1.5-1.5-1.5Zm-6.36 11L22.36 37.37l-12.8-7.81 6.12-10.03 2.52 1.53 1.56-2.56-2.52-1.54 4.21-6.91h6.44L36 15l-1.86 3.05Zm-10.62 5.85 2.56 1.56-4.17 6.83-2.56-1.56 4.17-6.83Zm5.53-8.89-1.81 3.08c.66.1 1.33-.05 1.86-.47.4-.32.67-.78.75-1.28l.17-.99 1.97.34-.17.99c-.08.49-.26.96-.51 1.38-.25.42-.57.8-.96 1.12-1.18.95-2.76 1.16-4.16.7l-.69 1.17-1.72-1.01.69-1.18c-.12-.11-.25-.21-.36-.34-.81-.93-1.2-2.1-1.1-3.29.1-1.13.64-2.14 1.51-2.84l.78-.63 1.25 1.56-.78.63c-.45.36-.72.88-.78 1.46-.05.59.14 1.17.52 1.66l1.81-3.07 1.72 1.01Z"/></svg>
