<svg xmlns="http://www.w3.org/2000/svg" viewBox="0 0 48 48"><title>Betaaldatums uitkering</title><path d="M19 25h4v3h-4v-3Zm7 3h4v-3h-4v3Zm-3-10h-4v3h4v-3Zm7.79 22.63c-.44-.5-.83-1.05-1.18-1.63H26h.43H26v-.02l-15.5-.02c-.83 0-1.5-.67-1.5-1.5V15h24v8.48c.94-.59 1.95-1.01 3-1.25V9h-6V6h-3v6h-2V9l-9-.02V6h-3l-.02 6H11V9l-5-.02-.02 28.51C5.98 39.97 8 42 10.49 42l21.02.04h.8c-.54-.41-1.05-.88-1.51-1.41ZM30 18h-4v3h4v-3Zm10.83 19.98-.38.26c-1.92 1.3-4.29.94-5.89-.89-.35-.4-.62-.86-.86-1.34H39v-2h-5.92c-.09-.66-.1-1.34 0-2h5.93v-2H33.7c.22-.44.47-.87.79-1.26 1.58-1.88 4.03-2.28 5.96-.98l.37.25 1.17-1.62-.43-.29c-2.81-1.89-6.35-1.34-8.61 1.35-.63.75-1.11 1.62-1.43 2.54H29v2h2.08a9.55 9.55 0 0 0 0 2h-2.07v2h2.52c.34.97.85 1.88 1.53 2.66 1.35 1.54 3.14 2.35 4.96 2.35 1.22 0 2.45-.36 3.56-1.11l.44-.3-1.17-1.62ZM16 18h-4v3h4v-3Zm-4 17h4v-3h-4v3Zm9.22 1.09 4.59-4.59-1.41-1.41-3.17 3.17-1.42-1.41-1.42 1.41 2.83 2.83ZM16 25h-4v3h4v-3Z"/></svg>
