<svg xmlns="http://www.w3.org/2000/svg" viewBox="0 0 48 48"><title>Bevolking</title><path d="M20.5 28.19h-.02c-.46-.16-.95-.27-1.47-.27-.47 0-.92.09-1.35.23-.03 0-.05.02-.08.02-1.78.6-3.07 2.26-3.07 4.25 0 2.49 2.01 4.5 4.5 4.5s4.5-2.01 4.5-4.5c0-1.96-1.26-3.61-3.01-4.23Zm-1.49 6.73a2.5 2.5 0 0 1-2.5-2.5c0-.21.03-.41.08-.6.3.07.61.11.93.11 1.25 0 2.37-.52 3.18-1.34.49.46.81 1.1.81 1.83a2.5 2.5 0 0 1-2.5 2.5Zm7.58-13.75s-.05.02-.08.02c-1.78.6-3.07 2.26-3.07 4.25 0 2.49 2.01 4.5 4.5 4.5s4.5-2.01 4.5-4.5c0-1.96-1.26-3.61-3.01-4.23h-.02c-.46-.16-.95-.27-1.47-.27-.47 0-.92.09-1.35.23Zm3.04 2.44c.49.46.81 1.1.81 1.83a2.5 2.5 0 0 1-5 0c0-.21.03-.41.08-.6.3.07.61.11.93.11 1.25 0 2.37-.52 3.18-1.34Zm6.8-3.64c2.49 0 4.5-2.01 4.5-4.5 0-1.96-1.26-3.61-3.01-4.23h-.02c-.46-.16-.95-.27-1.47-.27-.47 0-.92.09-1.35.23-.03 0-.05.02-.08.02-1.78.6-3.07 2.26-3.07 4.25 0 2.49 2.01 4.5 4.5 4.5Zm-2.42-5.1c.3.07.61.11.93.11 1.25 0 2.37-.52 3.18-1.34.49.46.81 1.1.81 1.83a2.5 2.5 0 0 1-5 0c0-.21.03-.41.08-.6Zm-16.93 8.57a6.5 6.5 0 0 0 1.35-3.95c0-1.04-.25-2.02-.69-2.89.49-.36 1.09-.57 1.75-.57h6.05c1.46 0 2.67 1.04 2.94 2.42v.47c-.15-.01-.3-.02-.46-.02-3.58 0-6.5 2.92-6.5 6.5 0 .39.04.77.11 1.14-.64-.28-1.33-.47-2.06-.53a4.995 4.995 0 0 0-2.5-2.56Zm7.93 16.93v1.58H13.02v-1c0-1.66 1.34-3 3-3h6.05c1.46 0 2.67 1.04 2.94 2.42Zm8.96-6.91v8.49h-6.96v-1.78l-.04-.19c-.31-1.61-1.4-2.9-2.81-3.56a6.5 6.5 0 0 0 1.35-3.95c0-.5-.06-.98-.17-1.44h5.68c1.46 0 2.67 1.04 2.94 2.42Zm8.01-10.06v10.61h-3.01v7.95h-2.89v-8.85l-.04-.19c-.31-1.61-1.4-2.9-2.81-3.56a6.453 6.453 0 0 0-.39-8.36c.05 0 .09-.01.14-.01h6.05c1.46 0 2.67 1.04 2.94 2.42ZM11.01 40.95v1H9.04v-3.96H6.02l-.04-10.03c0-1.66 1.34-3 3-3h6.05c.99 0 1.85.48 2.4 1.22-2.82.71-4.93 3.26-4.93 6.3 0 1.5.51 2.87 1.37 3.97-1.69.8-2.86 2.51-2.86 4.5ZM12.05 24c2.49 0 4.5-2.01 4.5-4.5 0-1.96-1.26-3.61-3.01-4.23h-.02c-.46-.16-.95-.27-1.47-.27-.47 0-.92.09-1.35.23-.03 0-.05.02-.08.02-1.78.6-3.07 2.26-3.07 4.25 0 2.49 2.01 4.5 4.5 4.5Zm-2.42-5.1c.3.07.61.11.93.11 1.25 0 2.37-.52 3.18-1.34.49.46.81 1.1.81 1.83a2.5 2.5 0 0 1-5 0c0-.21.03-.41.08-.6Zm12.83-3.87c2.49 0 4.5-2.01 4.5-4.5 0-1.96-1.26-3.61-3.01-4.23h-.02c-.46-.16-.95-.27-1.47-.27-.47 0-.92.09-1.35.23-.03 0-.05.02-.08.02-1.78.6-3.07 2.26-3.07 4.25 0 2.49 2.01 4.5 4.5 4.5Zm-2.42-5.1c.3.07.61.11.93.11 1.25 0 2.37-.52 3.18-1.34.49.46.81 1.1.81 1.83a2.5 2.5 0 0 1-5 0c0-.21.03-.41.08-.6Z"/></svg>
