<svg xmlns="http://www.w3.org/2000/svg" viewBox="0 0 48 48"><title>Bevrijding</title><path d="M32.97 19.42c0 .55-.45 1-1 1s-1-.45-1-1 .45-1 1-1 1 .45 1 1Zm7.34 8.52 1.62-1.62-1.4-1.4-10.19 10.16c-2.71.54-4.6 2.91-4.41 5.89v.04h.01c3.07.19 5.49-1.81 5.94-4.65l2.2-2.2c-.91 2.14-.39 4.63 1.55 6.35.01 0 .02.02.03.03h.01c2.56-2.26 2.64-5.87.26-8.23l2.5-2.5c-.91 2.14-.39 4.63 1.55 6.35.01 0 .02.02.03.03h.01c2.56-2.26 2.64-5.87.26-8.23Zm-1.66-4.53c.18.48-.17.98-.68.98h-3.04v.63c-.23 2.88-2 5.04-3.09 6.11-2.68 2.65-6.23 2.88-7.26 2.89h-1.8c-.55 0-1.06.64-1.37 1.03-.08.1-.15.18-.21.26l-2.16 4.36c-.78 1.43-2.22 2.3-3.79 2.3-.97 0-1.91-.34-2.66-.94-.83.14-1.69.06-2.51-.25a4.795 4.795 0 0 1-2.94-3.23c-.14-.55-.2-1.1-.16-1.64a4.255 4.255 0 0 1-1.02-2.76c0-1.79 1.13-3.4 2.82-4.01l2.91-1.17a6.596 6.596 0 0 1-1.17-3.76c0-.64.09-1.26.27-1.87a5.271 5.271 0 0 1-1.7-3.85c0-.42.05-.83.15-1.24a4.78 4.78 0 0 1-1.19-3.15c0-.67.1-1.32.29-1.9-.29-.58-.43-1.24-.43-1.96 0-2.28 1.91-4.2 4.18-4.2.93 0 1.82.31 2.56.88l.15.13 10.75 10.99c.66-.77 1.82-2.14 1.98-2.32.4-.44.85-.81 1.36-1.11 1.28-.75 2.79-.97 4.25-.62 1.71.4 3.16 1.63 3.88 3.27.36.82.52 1.67.49 2.52l-.07.42 1.21 3.22Zm-2.95-1.22-1.3-1.8.07-.36c.1-.52.03-1.04-.2-1.56a2.694 2.694 0 0 0-1.83-1.56c-.71-.17-1.43-.06-2.04.29-.24.14-.46.32-.65.53-.15.16-1.58 1.85-2.13 2.49l.06.07c.08.11.16.23.24.36.19.31.31.53.41.75.09.18.17.42.26.65l.04.12c.14.42.23.85.29 1.34h-2.98c-.03-.15-.07-.3-.12-.46l-.03-.08c-.04-.11-.08-.21-.12-.32-.06-.13-.13-.24-.2-.36-.08-.12-.1-.17-.14-.22l-.13-.16c-.18-.21-.31-.35-.46-.47L12.82 9.24c-.15-.11-.38-.22-.68-.22-.63 0-1.18.56-1.18 1.2 0 .59.18.79.4.97l.76.63-.62.77c-.19.24-.4.75-.4 1.49 0 .69.4 1.32 1.06 1.63l1.06.51-.67.96c-.27.38-.41.83-.41 1.29 0 .96.63 1.83 1.57 2.15l1.23.43-.74 1.08a3.61 3.61 0 0 0-.64 2.06c0 2 1.63 3.63 3.66 3.7v3.01c-1.08-.01-2.1-.28-3-.73l-4.41 1.76c-.54.19-.88.67-.88 1.2 0 .47.26.9.69 1.12l.82.43-.36.85c-.16.38-.19.81-.07 1.23.14.54.57.99 1.1 1.2.55.2 1.08.16 1.59-.13l.92-.54.48.95c.22.44.65.71 1.13.71s.9-.25 1.12-.67l2.31-4.65c.24-.54 1.89-2.63 4.11-2.63h1.78c.14 0 3.1.02 5.17-2.03 1.05-1.04 2.19-2.2 2.19-4.06 0-1.39.74-2.66 2.17-2.9h.16l1.45.15Z"/></svg>
