<svg xmlns="http://www.w3.org/2000/svg" viewBox="0 0 48 48"><title>Bijstandsuitkering</title><path d="M17.1 27H21v2h-4.6c-.05.32-.08.66-.08 1s.03.68.08 1H21v2h-3.9c.69 1.21 1.78 2 3.02 2 .79 0 1.55-.32 2.2-.93l.73-.68 1.37 1.46-.73.68c-1.02.96-2.26 1.47-3.56 1.47-2.31 0-4.3-1.64-5.23-4h-1.89v-2h1.38c-.04-.33-.07-.66-.07-1s.03-.67.07-1h-1.38v-2h1.89c.93-2.36 2.93-4 5.23-4 1.31 0 2.54.51 3.57 1.47l.73.68-1.37 1.46-.73-.68c-.65-.61-1.41-.93-2.2-.93-1.24 0-2.33.79-3.02 2ZM42 26v8.01c0 1.1-.89 1.99-1.99 2H39v2c0 2.21-1.79 3.99-3.99 3.99H8a2 2 0 0 1-2-2V19.99a2 2 0 0 1 2-2h11.85a6.002 6.002 0 0 1-5.71-7.3c.48-2.25 2.3-4.07 4.55-4.55C22.57 5.32 26 8.27 26 12c3.3 0 5.99 2.68 6 5.98h3c2.21 0 4 1.79 4 4V24h1a2 2 0 0 1 2 2Zm-19-8.01h6c0-1.65-1.35-2.98-3-2.98s-2.99 1.34-3 2.98ZM20.01 15c1.66 0 3-1.34 3-3s-1.34-3-3-3-3 1.34-3 3 1.34 3 3 3ZM36 36.01h-4.93c-1.66 0-3-1.34-3-3V27c0-1.66 1.34-3 3-3H36v-2.01c0-.55-.45-1-1-1H9V39h26.01c.55 0 .99-.44.99-.99v-2ZM39 27h-8.02v6.01H39V27Zm0-18V6h-3v3h-3v3h3v3h3v-3h3V9h-3Zm-5.01 22.5c.83 0 1.5-.67 1.5-1.5s-.67-1.5-1.5-1.5-1.5.67-1.5 1.5.67 1.5 1.5 1.5Z"/></svg>
