<svg xmlns="http://www.w3.org/2000/svg" viewBox="0 0 48 48"><title>Bladeren opruimen</title><path d="M41 7.22V6h-8.5C11.47 6 7.03 16.6 7 25.5c0 1.84 0 5.38 2.79 9.14-.51 1.24-.91 2.54-1.23 3.89-.3 1.19-.45 2.13-.51 2.73v.05c-.04.43-.04.69-.04.69h3v-.32h.02c.21-1.67.6-3.24 1.12-4.74.12.03.24.05.37.05h6.03c14.16 0 21.52-8.31 22.5-25.5v-4c0-.1-.01-.19-.03-.28ZM25.89 9.45C27.91 9.16 30.1 9 32.5 9h2.92c-2.04 1.66-4.15 3.27-6.22 4.83-1.11.84-2.22 1.68-3.32 2.53V9.44Zm-8.86 2.82c1.66-.97 3.61-1.73 5.86-2.27v8.75c-2.06 1.68-4.04 3.43-5.86 5.29V12.27Zm-5.7 19.23C10 29.05 10 26.86 10 25.51c.01-4.6 1.37-8.23 4.03-10.91v12.87c-1 1.28-1.9 2.62-2.7 4.03Zm7.2 2.5h-5.17c.89-1.77 1.99-3.43 3.25-5h15.63c-3.17 3.38-7.68 5-13.71 5Zm15.91-8H19.28c1.71-1.74 3.59-3.38 5.58-5h11.65c-.55 1.88-1.24 3.54-2.08 5Zm2.79-8h-8.55c.77-.59 1.55-1.18 2.33-1.77 2.33-1.77 4.72-3.58 7.02-5.47v.66c-.14 2.41-.41 4.58-.8 6.59Z"/></svg>
