<svg xmlns="http://www.w3.org/2000/svg" viewBox="0 0 48 48"><title>Bomen</title><path d="M31.54 12.3c-1.2 0-2.98.44-4.62 2.54-2.67 3.43-3.73 9.7-3.77 12.91-.11 3.74 1.38 6.65 4.09 7.99.67.33 1.42.56 2.23.7v2.57h-10v-2.13a9.57 9.57 0 0 0 3.55-1.4c-.62-.77-1.13-1.64-1.51-2.6-.61.43-1.3.74-2.04.93V22.07h-3v3.85l-.96-.93-2.09 2.16 3.05 2.95v3.79a6.401 6.401 0 0 1-5.01-6.24c0-.99.22-1.93.66-2.81.58-1.16.71-2.49.38-3.74-.52-1.97.26-3.59.78-4.38.67-1.02.96-2.3.83-3.61-.1-1.02.25-2.05.95-2.83.72-.79 1.74-1.25 2.79-1.25s2.07.45 2.79 1.25c.71.78 1.05 1.81.95 2.83-.13 1.31.17 2.59.83 3.61.1.16.21.35.33.57.5-1.25 1.1-2.42 1.82-3.45 0-.15 0-.3.01-.45.18-1.86-.44-3.73-1.72-5.14-1.29-1.42-3.11-2.23-5.01-2.23s-3.73.81-5.01 2.23a6.723 6.723 0 0 0-1.72 5.14c.06.63-.07 1.23-.36 1.68-.79 1.2-1.98 3.69-1.17 6.78.15.55.08 1.13-.17 1.64-.64 1.3-.97 2.69-.97 4.14 0 4.71 3.49 8.61 8.01 9.28V39h-5.47v3h26v-3h-4.53v-2.46c2-.2 3.62-.92 4.83-2.16 1.52-1.56 2.31-3.92 2.23-6.68-.03-2.39-1.63-15.39-7.99-15.39Zm3.61 19.98c-.65.67-1.55 1.08-2.68 1.24v-2.51l3.06-2.96-2.09-2.16-.97.94V20h-3v13.37c-.32-.09-.63-.19-.9-.32-2.21-1.09-2.46-3.73-2.42-5.21v-.11c.04-2.88 1.06-8.37 3.14-11.04.73-.93 1.46-1.39 2.25-1.39 2.9 0 4.94 8.85 4.99 12.43v.1c.05 1.9-.44 3.48-1.38 4.45Z"/></svg>