<svg xmlns="http://www.w3.org/2000/svg" viewBox="0 0 48 48"><title>Buitengebied</title><path d="M26.86 18.2a5.922 5.922 0 0 0-1.62-2.96c.6-1.97.15-4.16-1.27-5.74a5.994 5.994 0 0 0-3.75-1.94c-.98-1-2.3-1.56-3.72-1.56s-2.73.56-3.71 1.55c-.79.09-1.55.33-2.23.72-1.4.79-2.41 2.07-2.84 3.62-.31 1.12-.29 2.28.04 3.36a5.965 5.965 0 0 0-1.74 4.78c.12 1.3.64 2.49 1.49 3.45 0 .05 0 .1-.01.15-.09 1.6.44 3.14 1.51 4.34 1.06 1.19 2.53 1.9 4.17 2h1.81V40h2.99V29.97h1.51a5.967 5.967 0 0 0 5.11-2.86c.68-1.11.97-2.37.86-3.64a5.99 5.99 0 0 0 1.38-5.27Zm-3.32 2.89c-.17.26-.37.49-.61.69l-.72.6.22.91c.18.77.06 1.57-.36 2.25-.42.68-1.08 1.17-1.87 1.35-.23.05-.46.08-.7.08h-1.51v-4.26l3.32-3.36-2.13-2.12-1.19 1.21v-3.58H15v6.31l-1.19-1.21-2.13 2.11L15 25.45v1.52h-1.68c-.8-.05-1.54-.4-2.07-1a2.956 2.956 0 0 1-.67-2.68l.21-.91-.72-.6c-.62-.51-.99-1.23-1.07-2.03-.07-.79.17-1.57.68-2.18.2-.24.43-.44.69-.61l1.2-.77-.7-1.24c-.39-.69-.49-1.5-.27-2.26a2.989 2.989 0 0 1 2.89-2.19h.75l.45-.6c.43-.58 1.09-.91 1.8-.91s1.37.33 1.8.92l.45.6h.75c.88 0 1.68.35 2.24.98.85.95 1 2.34.38 3.45l-.7 1.24 1.2.77c.68.43 1.14 1.1 1.31 1.88.17.78.03 1.57-.4 2.24Zm4.14-6.61.28.37 1.05-.94v4.06c5.94 0 10 1.37 10 1.37v-5.36l1.03.9 1.83-2.38-2.86-2.44V6.01h-3v1.68l-2.09-1.83-6.62 5.62c.35.95.47 1.97.38 3.01ZM32.01 12h4v3h-4v-3Zm9.97 10.78v3.31c-4.04-2.02-9.03-3.24-13.78-3.1.46-.94.73-1.94.79-2.97 4.47 0 8.87.92 12.99 2.76Zm-.06 19.2h-3.13c-1.95-6.27-6.97-11.14-13.24-12.77.28-.33.55-.67.78-1.05.32-.52.56-1.08.76-1.65 7.21 2.17 12.87 8.05 14.83 15.47Z"/></svg>
