<svg xmlns="http://www.w3.org/2000/svg" viewBox="0 0 48 48"><title>Contact gemeente</title><path d="M25.01 18.99H21l-3.98 3.94v-3.94H7.99C6.89 18.99 6 18.1 6 17V7.97C6 6.88 6.88 6 7.97 6h17.04c1.1 0 1.99.89 1.99 1.99V17c0 1.1-.89 1.99-1.99 1.99ZM16.02 33H8.98C7.31 33 6 34.27 6 35.83V40s.01 2 .03 2h12.94l.03-2v-4.45c-.15-1.43-1.42-2.55-2.99-2.55Zm-8.01-5.5c0-1.98 1.29-3.65 3.07-4.25.03 0 .05-.02.08-.02.43-.14.88-.23 1.35-.23.52 0 1.01.11 1.47.27H14c1.75.62 3.01 2.27 3.01 4.23 0 2.49-2.01 4.5-4.5 4.5s-4.5-2.01-4.5-4.5Zm2 0a2.5 2.5 0 0 0 5 0c0-.72-.31-1.37-.81-1.83-.81.83-1.93 1.34-3.18 1.34-.32 0-.63-.05-.93-.11-.05.19-.08.39-.08.6ZM39.05 38h-7.08c-1.65 0-2.95 1.25-2.95 2.8v1.17s.01.03.03.03h12.94s.03-.01.03-.03v-1.45c-.15-1.41-1.41-2.52-2.96-2.52ZM37 28.27c1.75.62 3.01 2.27 3.01 4.23 0 2.49-2.01 4.5-4.5 4.5s-4.5-2.01-4.5-4.5c0-1.98 1.29-3.65 3.07-4.25.03 0 .05-.02.08-.02.43-.14.88-.23 1.35-.23.52 0 1.01.11 1.47.27H37Zm.2 2.4c-.81.83-1.93 1.34-3.18 1.34-.32 0-.63-.05-.93-.11-.05.19-.08.39-.08.6a2.5 2.5 0 0 0 5 0c0-.72-.31-1.37-.81-1.83Zm-6.19-6.68h9c1.09 0 1.97-.88 1.97-1.97v-9.04c0-1.09-.89-1.98-1.98-1.98h-9.99v6c0 2.73-2.21 5-4.94 5h-2.06c0 1.1.9 1.99 2 1.99h1.97l4.03 3.94v-3.94Z"/></svg>
