<svg xmlns="http://www.w3.org/2000/svg" viewBox="0 0 48 48"><title>Duurzaamheid</title><path d="m16.24 24.59 2.67-.5c.14-.03.28-.03.42-.04A9.912 9.912 0 0 1 18 19.09c0-2.43.88-4.67 2.33-6.4h.34s.03-.04.05-.06c.6.57 1.59 1.36 2.06 1.6.29.15.68.07 1.01.16.48.12 1.2-.18 1.31.65.07.55-.72 1.44-1.32 1.57-.52.12-.65.42-.44.91.09.22.19.44.3.64.9 1.55 1.5 3.17 1.27 5.05-.1.83.3 1.48.92 1.99.36.29.71.58 1.06.89l1.31.44c.07-.06.14-.13.21-.23.35-.5.75-.97 1.14-1.44.57-.68.7-1.45.5-2.32-.36-1.53.59-2.83 2.06-2.83 1.91 0 2.22-.34 2.88-2.21.45-1.26.43-2.25-.61-3.13-.33-.28-.56-.67-.84-1-.47-.55-1.04-.71-1.76-.64-1.55.15-3.12.23-4.68.29-.22 0-.57-.2-.66-.39-.47-1.13-.41-2.77.67-3.36l.54-.12c.12 0 .24-.02.36-.02 5.51 0 10 4.48 10 10 0 4.14-2.53 7.7-6.12 9.21a6.55 6.55 0 0 1 1.73 2.5c4.37-2.09 7.39-6.54 7.39-11.71 0-7.18-5.82-13-13-13-.12 0-.24.01-.36.02v-.02c-.73.02-1.44.11-2.13.24-.07.01-.15.03-.22.04-.38.08-.75.17-1.12.29-.05.01-.09.03-.14.05-.33.1-.64.22-.96.35-.07.03-.15.06-.22.09-.35.15-.69.31-1.02.49-.03.02-.06.04-.1.06-.32.18-.64.37-.94.57-.03.02-.07.04-.1.06a13.114 13.114 0 0 0-4.03 4.35h.03a12.946 12.946 0 0 0-.46 11.9ZM42 37.1v1.37l-14.58 3.36a5.614 5.614 0 0 1-2.81-.06L15 39.13v1.88H6v-15l9 .05v.89l4.28-.8c.18-.03.36-.05.55-.05.3 0 .6.05.89.14l8.39 2.82c1.74.57 2.9 2.32 2.9 3.96h5.35c2.57 0 4.65 1.83 4.65 4.1ZM12 29H9v9h3v-9Zm26.73 7.76c-.25-.45-.79-.76-1.39-.76h-9.96c-.84 0-1.66-.12-2.45-.35l-3.69-1.07.98-2.57 3.69 1.07c.48.14 2.99.2 2.99.2 0-.5-.36-1.21-.88-1.39l-8.13-2.43-4.88.88v6l11 3 12.73-2.59Z"/></svg>
