<svg xmlns="http://www.w3.org/2000/svg" viewBox="0 0 48 48"><title>Economie werk inkomen</title><path d="M7.89 16H6v-2h1.38c-.04-.33-.07-.66-.07-1s.03-.67.07-1H6v-2h1.89c.93-2.36 2.93-4 5.23-4 1.31 0 2.54.51 3.57 1.47l.73.68-1.37 1.46-.73-.68c-.65-.61-1.41-.93-2.2-.93-1.24 0-2.33.79-3.02 2H14v2H9.4c-.05.32-.08.66-.08 1s.03.68.08 1H14v2h-3.9c.69 1.21 1.78 2 3.02 2 .79 0 1.55-.32 2.2-.93l.73-.68 1.37 1.46-.73.68c-1.02.96-2.26 1.47-3.56 1.47-2.31 0-4.3-1.64-5.23-4ZM24 14c0-4.42 3.58-8 8-8s8 3.58 8 8-3.58 8-8 8-8-3.58-8-8Zm3.03.33C27.21 16.93 29.35 19 32 19s5-2.24 5-5c0-1.15-.41-2.2-1.06-3.04-1.29 1.66-3.41 1.7-5.08 1.72-2.12.03-3.61-.02-3.82 1.66ZM37 23l-3 7-1.02-3.98L34 25v-2h-4v2l1.02 1.02L30 30l-3-7c-2.05 0-3.81 1.23-4.58 3 0 0 1.47.22 2.4 1.15A3.96 3.96 0 0 1 26 30v9.96c0 .74-.2 1.43-.57 2.04H39v-3h2.98L42 28c0-2.76-2.24-5-5-5Zm-13.59 5.57c.4.39.59.87.59 1.43v9.96c0 .56-.2 1.04-.59 1.44-.39.4-.87.6-1.42.6h-14c-.55 0-1.02-.2-1.41-.6-.39-.4-.58-.88-.58-1.44V30c0-.56.19-1.04.58-1.43.39-.39.86-.59 1.41-.59H11v-1.92c0-.57.2-1.06.6-1.46.4-.41.89-.61 1.45-.61h3.89c.57 0 1.05.2 1.45.61.4.41.6.9.6 1.46v1.92h2.99c.55 0 1.02.2 1.42.59ZM17 25.98h-4v2h4v-2Z"/></svg>
