<svg xmlns="http://www.w3.org/2000/svg" viewBox="0 0 48 48"><title>Erfgoed</title><path d="M34.07 21h-3v-2.97c0-.83.67-1.5 1.5-1.5s1.5.67 1.5 1.5V21Zm-1.6 11c-1.35 0-2.44 1-2.44 2.23V39h4.89v-4.77c0-1.23-1.09-2.23-2.44-2.23Zm-8.51-5.18c3.06 3.61 1.86 6.98.21 11.64-.28.78-.57 1.61-.88 2.51l-.34 1.02h-9.82l-.34-1.02c-.3-.9-.6-1.74-.88-2.51-.35-1-.68-1.94-.96-2.83-.42-.53-.92-1.01-1.46-1.53-.19-.18-.38-.37-.57-.55-3.45-3.38-3.07-6.06-2.54-7.36.7-1.72 2.44-2.87 4.34-2.87 1.14 0 2.25.43 3.21 1.21.07-.15.11-.28.11-.39 0-.74.02-2.65.02-2.65V20h7.97v1.49s.03 1.91.03 2.65c0 .47.65 1.22 1.4 2.08l.52.6Zm-11.9.07c-.43-.37-.9-.56-1.36-.56-.55 0-1.28.31-1.56 1.01-.34.84.09 2.04 1.16 3.31.18-1.27.71-2.5 1.76-3.75Zm9.61 1.87-.5-.58c-1.14-1.32-2.13-2.46-2.13-4.05v-1.14h-2.01v1.14c0 1.59-.99 2.73-2.13 4.05l-.5.58c-1.85 2.18-1.4 3.83.33 8.7.17.49.35 1 .54 1.54h5.52c.19-.54.37-1.05.54-1.54 1.73-4.87 2.19-6.52.33-8.7ZM39.03 6v3h-2V6h-3v3h-3V6h-3v3h-2V6h-3v8.45l.54.45c.77.64 1.26 1.54 1.46 2.66v5.64l3 3.77v-9.53l-.02-.23c-.25-1.63-.93-3.04-1.98-4.13v-1.09h13v1.13c-.93 1.03-1.59 2.37-1.96 3.98L37.03 39h3V17.62c.3-1.2.81-2.13 1.51-2.77l.49-.45V6h-3Z"/></svg>