<svg xmlns="http://www.w3.org/2000/svg" viewBox="0 0 48 48"><title>F1</title><path fill-rule="evenodd" d="m32.81 15.49 1.41-1.41.71 2.12-1.41 1.41-.71-2.12Zm5.43 18.56 3.76.96v3h-3.26c-.61 1.77-2.27 3-4.24 3s-3.63-1.28-4.24-3.05H17.72c-.62 1.74-2.27 3-4.22 3s-3.6-1.2-4.22-2.95H6v-10h3.01v4l9.99-4h3v1.72c.54-.47 1.23-.72 2-.72 1.66 0 3 1.29 3 2.95v.02l4.98.81c.72-.49 1.59-.78 2.52-.78 1.57 0 2.93.82 3.74 2.04ZM15 36.46c0-.83-.67-1.5-1.5-1.5s-1.5.67-1.5 1.5.67 1.5 1.5 1.5 1.5-.67 1.5-1.5Zm10-2.45-6-1v-2l-3.27 1.54c.93.53 1.65 1.44 2.01 2.46H25v-1Zm11 2.5c0-.83-.67-1.5-1.5-1.5s-1.5.67-1.5 1.5.67 1.5 1.5 1.5 1.5-.67 1.5-1.5ZM15.19 15.49l-1.41-1.41-.71 2.12 1.41 1.41.71-2.12Zm-2.12 9.19L6 17.61l4.05-4.05.9-2.32L15.19 7 24 15.81 32.81 7l4.24 4.24.9 2.32L42 17.61l-7.07 7.07-4.24-4.24-.71-2.12-2.83-2.83-1.74 1.74 3.92 3.92-1.41 1.41L24 18.64l-3.92 3.92-1.41-1.41 3.92-3.92-1.74-1.74-2.83 2.83-.71 2.12-4.24 4.24Zm15.49-10.61 1.41 1.41 1.41-1.41 1.41 1.41-1.41 1.41.71 2.12 1.41-1.41 1.41 1.41-1.41 1.41 1.41 1.41 1.41-1.41-1.41-1.41 1.41-1.41 1.41 1.41 1.42-1.41-1.42-1.41-1.41 1.41-1.41-1.41 1.41-1.41-.71-2.12-1.41 1.41-1.41-1.41 1.41-1.41-1.41-1.42-1.41 1.42 1.41 1.41-1.41 1.41-1.41-1.41-1.41 1.41Zm-15.49 4.95-1.41 1.41 1.41 1.41 1.41-1.41-1.41-1.41 1.41-1.41 1.41 1.41.71-2.12-1.41-1.41 1.41-1.41 1.41 1.41 1.41-1.41-1.41-1.41-1.41 1.41-1.41-1.41 1.41-1.41-1.41-1.42-1.41 1.42 1.41 1.41-1.41 1.41-1.41-1.41-.71 2.12 1.41 1.41-1.41 1.41-1.41-1.41-1.41 1.41 1.41 1.41 1.41-1.41 1.41 1.41Z"/></svg>
