<svg xmlns="http://www.w3.org/2000/svg" viewBox="0 0 48 48"><title>Gebruiker ingelogd</title><path d="M29 34.75V37H19v-2.25c0-1.54 1.31-2.75 2.89-2.75h4.29c1.58 0 2.82 1.21 2.82 2.75Zm-4.96-4.71c1.66.01 3.01-1.32 3.02-2.98s-1.32-3.01-2.98-3.02a2.996 2.996 0 0 0-3.02 2.98 2.996 2.996 0 0 0 2.98 3.02ZM37 23.5v14.01c0 2.49-2.01 4.5-4.5 4.5h-17c-2.49 0-4.5-2.01-4.5-4.5V23.56c0-2.51 2.04-4.55 4.55-4.55H30v-3.92c0-3.35-2.69-6.08-6-6.08s-6 2.73-6 6.08v.92h-3v-.92c0-5 4.04-9.08 9-9.08s9 4.07 9 9.08v3.98c2.24.25 4 2.13 4 4.44Zm-4.5-1.49H15.55c-.86 0-1.55.69-1.55 1.55v13.95c0 .83.67 1.5 1.5 1.5h17c.83 0 1.5-.67 1.5-1.5v-14c0-.83-.67-1.5-1.5-1.5Z"/></svg>
