<svg xmlns="http://www.w3.org/2000/svg" viewBox="0 0 48 48"><title>Gebruiker centraal</title><path d="M29.95 24H18.94c-2.98 0-3.98 1.01-4.98 5.01l-.95 4.27 4.8-3.36 2.4 3.82-3.25 2.28v5.99h15v-3h3l.02-9.97c0-2.83-2.2-5.03-5.03-5.03Zm-5.62 3.06-1.59 1.15.57.81c.64.97.67 2.41-.3 3.13-.48.36-.81.61-1.12.72l-2.55-4.06 4.11-2.97a.753.753 0 0 1 .88 1.22ZM25 6c-4.42 0-8 3.58-8 8s3.58 8 8 8 8-3.58 8-8-3.58-8-8-8Zm0 13c-2.64 0-4.79-2.07-4.97-4.67.21-1.67 1.7-1.63 3.82-1.66 1.67-.02 3.79-.06 5.08-1.72a4.92 4.92 0 0 1 1.06 3.04c0 2.76-2.24 5-5 5Z"/></svg>
