<svg xmlns="http://www.w3.org/2000/svg" viewBox="0 0 48 48"><title>Geld</title><path d="M21.47 16c-3.03 0-5.5 2.47-5.5 5.5s2.47 5.5 5.5 5.5 5.5-2.47 5.5-5.5-2.47-5.5-5.5-5.5Zm0 8a2.5 2.5 0 0 1 0-5 2.5 2.5 0 0 1 0 5Zm15.5-1.66V11h-31v21h20v4.93c0 2.94 3.51 5.25 8 5.25s8-2.31 8-5.25V27c0-2.18-2.01-3.95-5-4.66ZM8.97 29V14h25v8c-4.56 0-8 2.15-8 5v2h-17Zm20 1.96c1.35.66 3.07 1.04 5 1.04s3.65-.39 5-1.04v1.11c0 .92-1.95 2.25-5 2.25s-5-1.33-5-2.25v-1.11Zm5 8.22c-3.05 0-5-1.33-5-2.25v-.74c1.36.71 3.09 1.13 5 1.13s3.64-.42 5-1.13v.74c0 .92-1.95 2.25-5 2.25Zm0-10.18c-3.1 0-5-1.29-5-2s1.9-2 5-2 5 1.29 5 2-1.9 2-5 2Zm-24-23h32v13h-3V9h-29V6Z"/></svg>