<svg xmlns="http://www.w3.org/2000/svg" viewBox="0 0 48 48"><title>Gemeenteraad</title><path d="M34.18 16.92c0-1.61 1.31-2.92 2.92-2.92s2.92 1.31 2.92 2.92-1.31 2.92-2.92 2.92-2.92-1.31-2.92-2.92Zm5.3 4.06h-4.87c-.77 0-1.48.4-1.95.98 2.02 1.23 3.33 3.44 3.33 6.01v1.01h5.97l.03-5.5c0-1.33-1.19-2.5-2.52-2.5ZM11.1 19.84c1.61 0 2.92-1.31 2.92-2.92S12.71 14 11.1 14s-2.92 1.31-2.92 2.92 1.31 2.92 2.92 2.92Zm17.85 3.14c-.66 2.16-1.9 4.22-3.01 6.02L25 25.98l1-1v-2h-4v2l1 1L21.93 29c-1.12-1.81-2.34-3.84-3.01-6.02l-.17-.04c-2.67.15-4.76 2.28-4.76 5v11.04h3v3h14v-3h3.05l-.05-11.05c0-2.78-2.3-4.88-5.05-4.95Zm-13.57-1.01c-.47-.59-1.18-.99-1.96-.99H8.54c-1.34 0-2.53 1.17-2.53 2.5v5.5h5.98l.04-.99c0-2.58 1.32-4.79 3.35-6.02ZM32 14c0 4.42-3.58 8-8 8s-8-3.58-8-8 3.58-8 8-8 8 3.58 8 8Zm-3 0c0-1.15-.41-2.2-1.06-3.04-1.29 1.66-3.41 1.7-5.08 1.72-2.12.03-3.61-.02-3.82 1.66.18 2.6 2.32 4.67 4.97 4.67s5-2.24 5-5Z"/></svg>
