<svg xmlns="http://www.w3.org/2000/svg" viewBox="0 0 48 48"><title>Gezicht</title><path d="M17.98 23.99c0-.83.67-1.5 1.49-1.5s1.49.67 1.49 1.5-.67 1.5-1.49 1.5-1.49-.67-1.49-1.5Zm10.49-1.56c-.82 0-1.49.67-1.49 1.5s.67 1.5 1.49 1.5 1.49-.67 1.49-1.5-.67-1.5-1.49-1.5Zm13.56 1.55c0 9.92-8.07 18-18 18s-17.99-8.08-17.99-18 8.07-18 18-18 18 8.07 18 18Zm-18-15c-1.03 0-2.04.11-3.02.31 2.82 5.13 8.12 8.29 13.99 8.29.83 0 1.66-.07 2.48-.2-2.45-4.97-7.55-8.4-13.45-8.4ZM9.51 20.3c3.93-2.01 6.88-5.58 8.1-9.85-3.98 1.9-6.99 5.49-8.1 9.85Zm29.52 3.68c0-1.29-.18-2.54-.49-3.73-1.16.22-2.35.33-3.54.33-6.03 0-11.56-2.81-15.12-7.51A19.007 19.007 0 0 1 9.04 23.76c0 .07-.01.14-.01.21 0 8.27 6.73 15 15 15s15-6.73 15-15Zm-10.75 6.69c-2.54 1.72-6.03 1.75-8.61.09a.993.993 0 0 0-1.38.3c-.3.46-.17 1.08.3 1.38C20.17 33.46 22.01 34 23.9 34s3.87-.58 5.49-1.68c.46-.31.58-.93.27-1.39a.999.999 0 0 0-1.39-.27Z"/></svg>
