<svg xmlns="http://www.w3.org/2000/svg" viewBox="0 0 48 48"><title>Hondenbelasting</title><path d="m10.15 25.13 10.58 5.12c-.38.94-.62 1.94-.69 3l-8.62-4.17-2.7 4.68-2.63-1.44 4.07-7.19ZM38 34c0 4.41-3.59 8-8 8s-8-3.59-8-8 3.59-8 8-8 8 3.59 8 8Zm-9.61-1.01c.23-.58.64-1.04 1.17-1.29.52-.25 1.11-.27 1.65-.07l.94.35.71-1.87-.94-.35c-1.05-.4-2.2-.35-3.22.14-1.08.51-1.89 1.44-2.28 2.61-.05.16-.08.32-.11.48h-1.37v2h1.36c.32 1.44 1.3 2.7 2.71 3.23.47.18.96.26 1.45.26s.98-.09 1.45-.26l.94-.35-.71-1.87-.94.35c-.48.18-1.01.18-1.49 0-.63-.24-1.1-.75-1.35-1.36h3.57v-2h-3.57Zm13.2-19.87c-.3-.47-1.06-1.12-2.6-1.12h-5.37l-.59-2.9-.05-.15c-.69-1.7-2.53-2.92-4.37-2.92h-7.03c-1.14 0-2.34.77-2.84 1.82L11.07 23.2l6.85 3.38c1.4.67 3.02.57 4.33-.25s2.1-2.24 2.11-3.79v-.16l-2.15-10.27-2.16 4.32 1.31 6.23c-.04.47-.29.88-.7 1.13-.44.28-.97.31-1.43.09l-4.13-2.04 4.28-8.57.94-1.89 1.1-2.2c.04-.06.16-.15.15-.16h7.01v.01c.6 0 1.32.46 1.57.99L31.34 15h5.16c.07.23.2.31.33.52.29.46.72.79 1.19 1.01l-.89 1.69C36.39 19.8 34.8 21 33.06 21h-3.1l-1.05 3.06c.35-.04.7-.06 1.05-.06a10 10 0 0 1 2.13.23l.08-.23h.9c2.92 0 5.53-1.85 6.75-4.44l1.8-3.42c.5-1.05.47-2.18-.06-3.01Zm-12.65-.18c0-.83-.67-1.5-1.5-1.5s-1.5.67-1.5 1.5.67 1.5 1.5 1.5 1.5-.67 1.5-1.5Z"/></svg>
