<svg xmlns="http://www.w3.org/2000/svg" viewBox="0 0 48 48"><title>Hoog Water</title><path d="M42 15.02v3.59c-1.16.63-2.45.97-3.78.97-1.75 0-3.4-.55-4.77-1.57-.74.55-1.57.95-2.45 1.22v22.78h-3v-4h-4v-3h4v-4h-4v-3h4v-4h-4v-3h4v-1.48c-1.47-.13-2.89-.64-4.07-1.52A8.016 8.016 0 0 1 20 19.52v22.49h-3V19.26a8.12 8.12 0 0 1-2.6-1.25 7.932 7.932 0 0 1-4.77 1.57c-1.28 0-2.51-.31-3.63-.89v-3.53l.84.57c.83.56 1.79.86 2.79.86 1.4 0 2.7-.57 3.67-1.6l1.09-1.17 1.09 1.17c.97 1.03 2.27 1.6 3.67 1.6s2.7-.57 3.67-1.6l1.09-1.17L25 14.99c.97 1.03 2.27 1.6 3.67 1.6s2.7-.57 3.67-1.6l1.09-1.17 1.09 1.17c.97 1.03 2.27 1.6 3.67 1.6 1.05 0 2.05-.32 2.91-.93l.87-.62ZM18.7 13.2c.45 0 .89-.08 1.31-.19V9.47c.01-.28.18-.47.3-.47h7.4c.11 0 .28.19.3.47v3.58c.38.09.76.15 1.16.15 1.2 0 1.84-.77 1.84-.77V9.5c0-1.93-1.48-3.5-3.3-3.5h-7.4c-1.82 0-3.3 1.57-3.3 3.5v2.98s.63.72 1.7.72Z"/></svg>