<svg xmlns="http://www.w3.org/2000/svg" viewBox="0 0 48 48"><title>Horeca</title><path d="m25.41 19.76 2.15-2.15c-.53-2-.15-4.09 1.41-5.66l5.66-5.66a.996.996 0 1 1 1.41 1.41l-5.66 5.66 1.41 1.41 5.66-5.66a.996.996 0 1 1 1.41 1.41l-5.66 5.66 1.41 1.41 5.66-5.66a.996.996 0 1 1 1.41 1.41L36.02 19c-1.56 1.56-3.66 1.94-5.66 1.41l-2.15 2.15-2.83-2.83Zm16 18.83L9.17 6.34c-.2-.2-.45-.29-.71-.29s-.51.1-.71.29c-4.24 4.24 1.61 10.1 3.54 12.02l7.46 7.46a1.007 1.007 0 0 0 1.16.18l2.18-1.09 16.5 16.5c.39.39.9.58 1.41.58s1.02-.2 1.41-.58c.78-.78.78-2.05 0-2.83ZM20.79 27.8a2.955 2.955 0 0 1-3.13-.29L6.58 38.59c-.78.78-.78 2.05 0 2.83.78.78 2.05.78 2.83 0l13.17-13.17-.89-.89-.89.45Z"/></svg>
