<svg xmlns="http://www.w3.org/2000/svg" viewBox="0 0 48 48"><title>Hulp huishouden</title><path d="M12.01 29.95c-3.28 0-5.95 2.67-5.95 5.95s2.67 5.95 5.95 5.95 5.95-2.67 5.95-5.95-2.67-5.95-5.95-5.95Zm0 8.9a2.949 2.949 0 1 1 0-5.9 2.949 2.949 0 1 1 0 5.9ZM42 41.96v.05H30c0-1.66 1.34-3 3-3h1L31.51 17.4a6.136 6.136 0 0 0-4.25-4.81c-4.03-1.25-10.25-3.17-10.87-3.32-.64-.16-1.29-.12-1.3-.12-2.38 0-4.24 1.86-4.24 4.15s1.86 4.15 4.15 4.15l8.99-.03c2.48 0 4.5 2.02 4.5 4.49 0 1.27-.53 2.47-1.47 3.32l-1.57 1.94c2.19 2.1 3.56 5.04 3.56 8.3 0 2.83-2.06 4.52-5.52 4.52h-4.53c.52-.91.86-1.92.99-3.01h3.54c2.52 0 2.52-1.06 2.52-1.51 0-4.69-3.81-8.5-8.5-8.5h-6.93c-.87 0-1.57.71-1.57 1.57v.05c-1.16.47-2.18 1.2-3 2.12v-2.18c0-2.52 2.05-4.57 4.57-4.57h6.93c2 0 3.88.52 5.53 1.42l1.92-2.35c.33-.28.53-.7.53-1.14 0-.82-.67-1.49-1.49-1.49l-8.99.03c-3.95 0-7.15-3.21-7.15-7.15s3.18-7.13 7.1-7.15c.25 0 1.17-.04 2.15.2.91.22 10.01 3.05 11.05 3.37 3.33 1.02 5.75 3.79 6.33 7.23v.11l2.53 21.95h2.04c1.63 0 2.95 1.32 2.95 2.95Z"/></svg>
