<svg xmlns="http://www.w3.org/2000/svg" viewBox="0 0 48 48"><title>ID-kaart</title><path d="M27 29h7v2h-7v-2Zm-7.82-2h-4.29C13.31 27 12 28.21 12 29.75V31h10v-1.25c0-1.54-1.24-2.75-2.82-2.75ZM27 26h9v-2h-9v2Zm-9.96-.96c1.66.01 3.01-1.32 3.02-2.98a2.996 2.996 0 0 0-2.98-3.02 2.996 2.996 0 0 0-3.02 2.98 2.996 2.996 0 0 0 2.98 3.02ZM27 21h9v-2h-9v2Zm15-5.5v17c0 2.49-2.01 4.5-4.5 4.5h-27C8.01 37 6 34.99 6 32.5v-17c0-2.49 2.01-4.5 4.5-4.5h27c2.49 0 4.5 2.01 4.5 4.5Zm-3 0c0-.83-.67-1.5-1.5-1.5H26v3h-4v-3H10.5c-.83 0-1.5.67-1.5 1.5v17c0 .83.67 1.5 1.5 1.5h27c.83 0 1.5-.67 1.5-1.5v-17Z"/></svg>
