<svg xmlns="http://www.w3.org/2000/svg" viewBox="0 0 48 48"><title>Informatie en betalen</title><path d="M35.01 26c-3.87 0-7 3.13-7 7s3.13 7 7 7 7-3.13 7-7-3.13-7-7-7Zm.98 10.93h-2v-5h2v5Zm-.26-6.21c-.19.19-.43.28-.72.28s-.54-.09-.72-.28c-.19-.19-.28-.43-.28-.72s.09-.53.28-.72c.19-.19.43-.28.72-.28s.54.09.72.28c.19.19.28.43.28.72s-.09.53-.28.72Zm-16.37.02 4.17-6.83 2.56 1.56-4.17 6.83-2.56-1.56Zm11-11.55c-1.18.95-2.76 1.16-4.16.7l-.69 1.17-1.72-1.01.69-1.18c-.12-.11-.25-.21-.36-.34-.81-.93-1.2-2.1-1.1-3.29.1-1.13.64-2.14 1.51-2.84l.78-.63 1.25 1.56-.78.63c-.45.36-.72.88-.78 1.46-.05.59.14 1.17.52 1.66l1.81-3.07 1.72 1.01-1.81 3.08c.66.1 1.33-.05 1.86-.47.4-.32.67-.78.75-1.28l.17-.99 1.97.34-.17.99c-.08.49-.26.96-.51 1.38-.25.42-.57.8-.96 1.12ZM26.01 33c0 1.12.21 2.19.59 3.18l-2.46 4.04c-.21.34-.54.58-.93.68-.12.03-.23.04-.35.04-.27 0-.54-.07-.78-.22L6.71 31.34c-.7-.43-.93-1.34-.51-2.05L18 10.06h-3l-5.04 8H9.5c-.83 0-1.5-.67-1.5-1.5v-8c0-.83.67-1.5 1.5-1.5h31c.83 0 1.5.67 1.5 1.5v8c0 .83-.67 1.5-1.5 1.5h-2.85l-3.66 6c-1.8.2-3.44.93-4.76 2.04l4.9-8.04 1.86-3.05-8.11-4.95h-6.44l-4.38 7.07 2.52 1.54-1.56 2.56-2.52-1.53-5.96 9.87 12.8 7.81 3.88-6.36c-.14.64-.23 1.3-.23 1.99Z"/></svg>
