<svg xmlns="http://www.w3.org/2000/svg" viewBox="0 0 48 48"><title>Inkomen</title><path d="M17.07 27h3.9v2h-4.6c-.05.32-.08.66-.08 1s.03.68.08 1h4.6v2h-3.9c.69 1.21 1.78 2 3.02 2 .79 0 1.55-.32 2.2-.93l.73-.68 1.37 1.46-.73.68C22.64 36.49 21.4 37 20.1 37c-2.31 0-4.3-1.64-5.23-4h-1.89v-2h1.38c-.04-.33-.07-.66-.07-1s.03-.67.07-1h-1.38v-2h1.89c.93-2.36 2.93-4 5.23-4 1.31 0 2.54.51 3.57 1.47l.73.68-1.37 1.46-.73-.68c-.65-.61-1.41-.93-2.2-.93-1.24 0-2.33.79-3.02 2Zm24.9-1v8.01c0 1.1-.89 1.99-1.99 2h-1.01v2c0 2.21-1.79 3.99-3.99 3.99h-27a2 2 0 0 1-2-2V19.99a2 2 0 0 1 2-2h11.85a6.002 6.002 0 0 1-5.71-7.3c.48-2.25 2.3-4.07 4.55-4.55 3.88-.82 7.31 2.13 7.31 5.86 3.3 0 5.99 2.68 6 5.98h3c2.21 0 4 1.79 4 4V24h1a2 2 0 0 1 2 2Zm-19-8.01h6c0-1.65-1.35-2.98-3-2.98s-2.99 1.34-3 2.98ZM19.98 15c1.66 0 3-1.34 3-3s-1.34-3-3-3-3 1.34-3 3 1.34 3 3 3Zm15.99 21.01h-4.93c-1.66 0-3-1.34-3-3V27c0-1.66 1.34-3 3-3h4.93v-2.01c0-.55-.45-1-1-1h-26V39h26.01c.55 0 .99-.44.99-.99v-2Zm3-9.01h-8.02v6.01h8.02V27Zm-5 4.5c.83 0 1.5-.67 1.5-1.5s-.67-1.5-1.5-1.5-1.5.67-1.5 1.5.67 1.5 1.5 1.5Z"/></svg>
