<svg xmlns="http://www.w3.org/2000/svg" viewBox="0 0 48 48"><title>Inloggen</title><path d="M23 11h-1.3L19 6H6v30h6.28c.34-1.15.96-2.18 1.79-3H8.99V14h30v19h-4.76c.78.82 1.35 1.85 1.6 3h6.16V11h-19ZM9 11V9h8.21l1.08 2H9Zm23 13.11c0-4.41-3.58-7.98-8-7.98s-8 3.57-8 7.98 3.58 7.98 8 7.98 8-3.57 8-7.98Zm-12.97.33c.21-1.67 1.7-1.62 3.82-1.65 1.67-.02 3.79-.06 5.08-1.72.66.84 1.06 1.89 1.06 3.04 0 2.75-2.24 4.99-5 4.99s-4.79-2.06-4.97-4.66ZM34 38.06 33.98 42h-2.94v-4.36c0-.87-.71-1.58-1.59-1.58H18.63c-.88 0-1.59.71-1.59 1.58V42H14l-.02-3.94c0-2.81 2.19-4.99 5-4.99h10c2.81 0 5 2.18 5 4.99Z"/></svg>