<svg xmlns="http://www.w3.org/2000/svg" viewBox="0 0 48 48"><title>Inspraak</title><path d="M8.24 14.99c-1.24 0-2.25-1.26-2.25-2.5S7 9.99 8.24 9.99h1.25V7.74c0-.41.34-.75.75-.75s.75.34.75.75v7.25H8.24ZM14 14c0-4.42 3.58-8 8-8s8 3.58 8 8-3.58 8-8 8-8-3.58-8-8Zm3.03.33C17.21 16.93 19.35 19 22 19s5-2.24 5-5c0-1.15-.41-2.2-1.06-3.04-1.29 1.66-3.41 1.7-5.08 1.72-2.12.03-3.6-.02-3.82 1.66Zm12.16 9.16c-.65-.31-1.37-.49-2.15-.49H14.41c-2.36 0-3.43-1.94-3.43-4.07V17h-4v2c0 4.26 2.89 8 7.4 8h.6v15h2.37l1.82-7.66c.14-.69.49-1.32.99-1.82l9.03-9.03Zm12.44 3.06L27.62 40.56l-6.51 1.41a.97.97 0 0 1-.23.03c-.66 0-1.2-.62-1.04-1.31l1.43-6.47 13.8-13.83c.3-.3.68-.44 1.07-.44s.77.15 1.07.44l4.43 4.43c.48.48.48 1.25 0 1.72ZM26.06 37.83l-2.07-2.07-.58 2.64 2.65-.58Zm12.19-12.14-2.12-2.12L26.1 33.63l2.11 2.11L38.25 25.7Z"/></svg>
