<svg xmlns="http://www.w3.org/2000/svg" viewBox="0 0 48 48"><title>Isolatie</title><path d="m41.96 20.88-2.93-2.42V11h-3v4.98L23.98 6.02 5.99 20.88l1.91 2.31 1.13-.93V42h30V22.35l1.02.84 1.91-2.31ZM36.03 39h-24V19.78l11.95-9.87 12.05 9.96V39ZM20.51 15.27a5.477 5.477 0 0 0-2.01 4.25v7.52c-1.22 1.65-1.63 3.71-1.12 5.74a6.787 6.787 0 0 0 5.23 4.99c.46.09.93.14 1.39.14 1.58 0 3.11-.54 4.34-1.55a6.83 6.83 0 0 0 2.51-5.29c0-1.45-.47-2.86-1.34-4.04v-7.35c0-2.71-1.85-5.05-4.39-5.55-1.64-.32-3.32.09-4.6 1.14Zm4.01 1.81c1.13.22 1.97 1.34 1.97 2.61v8.44l.37.42c.44.5.97 1.35.97 2.52s-.51 2.24-1.41 2.97c-.91.75-2.06 1.02-3.24.79-1.39-.28-2.56-1.4-2.91-2.78-.43-1.71.34-2.92.84-3.49l.37-.42v-8.61c0-.75.33-1.46.92-1.93.45-.37 1-.57 1.58-.57.17 0 .35.02.53.05ZM22 30.95c0 1.1.89 2 2 2s2-.89 2-2c0-.71-.37-1.33-.93-1.68v-8.91h-2v8.85c-.63.34-1.06.99-1.06 1.75Zm2 .01h1-1Z"/></svg>