<svg xmlns="http://www.w3.org/2000/svg" viewBox="0 0 48 48"><title>Leerlingenvervoer</title><path d="M42 9.39v24.54c0 .59-.48 1.07-1.07 1.07h-1.86c-.59 0-1.07-.48-1.07-1.07V32H25v1.93c0 .59-.48 1.07-1.07 1.07h-1.86c-.59 0-1.07-.48-1.07-1.07V9.37c0-1.87 1.5-3.38 3.34-3.38h14.33C40.51 6 42 7.52 42 9.39ZM26 10h11V8H26v2Zm-2 11h15v-9H24v9Zm3.33 5.61c0-.9-.75-1.64-1.67-1.64s-1.67.73-1.67 1.64.75 1.64 1.67 1.64 1.67-.73 1.67-1.64Zm11.7-.03c0-.9-.75-1.64-1.67-1.64s-1.67.73-1.67 1.64.75 1.64 1.67 1.64 1.67-.73 1.67-1.64Zm-28.19-3.75c1.65 0 2.99-1.35 2.99-2.99s-1.35-2.99-2.99-2.99-2.99 1.35-2.99 2.99 1.35 2.99 2.99 2.99ZM13.07 24H8.84C7.23 24.1 6 25.42 6 27.11v6.9h2v8h6v-8h2v-6.9c0-1.72-1.27-3.07-2.93-3.11Z"/></svg>
