<svg xmlns="http://www.w3.org/2000/svg" viewBox="0 0 48 48"><title>Liefdadigheid</title><path d="m29.23 31.15.24-.26c.5-.53.69-1.32.37-1.97-.53-1.07-1.8-1.21-2.54-.44l-.3.32-.3-.32c-.73-.77-2.01-.62-2.54.44-.32.65-.13 1.44.37 1.97l.24.26L27 33.5l2.23-2.35Zm4.72-3.16c0-2.77-2.15-4.93-4.9-4.99l-10.31.02C16.08 23.17 14 25.29 14 28v11h3v3h3v-6l-3.01.03v-8.04c-.01-.99 1-1.99 2-1.99h9.98c1 0 2.03 1 2.03 1.99L30.97 36l-2.97.03V42l3-.02V39h3l-.05-11.01ZM24 6c-4.42 0-8 3.58-8 8s3.58 8 8 8 8-3.58 8-8-3.58-8-8-8Zm0 13c-2.64 0-4.79-2.07-4.97-4.67.21-1.67 1.7-1.63 3.82-1.66 1.67-.02 3.79-.06 5.08-1.72a4.92 4.92 0 0 1 1.06 3.04c0 2.76-2.24 5-5 5Z"/></svg>
