<svg xmlns="http://www.w3.org/2000/svg" viewBox="0 0 48 48"><title>Melding</title><path d="m26 35.98-.02 5.94h-2.94v-6.37c0-.88-.71-1.59-1.59-1.59H10.63c-.88 0-1.59.71-1.59 1.59v6.37H6l-.02-5.94c0-2.81 2.19-5 5-5h10c2.81 0 5 2.19 5 5Zm2.02-28.41v11.04c0 .83.67 1.5 1.5 1.5h1.49v3.95l4.03-3.95h5.47c.83 0 1.5-.67 1.5-1.5V7.57c0-.83-.67-1.5-1.49-1.5H29.51c-.83 0-1.5.67-1.5 1.5Zm5.93 8.51c0-.29.09-.53.28-.72.18-.19.43-.28.72-.28s.54.09.72.28c.19.19.28.43.28.72s-.09.53-.28.72c-.18.19-.43.28-.72.28s-.54-.09-.72-.28c-.18-.19-.28-.43-.28-.72Zm0-7.01h2v5.01h-2V9.07Zm-17.96 4.92c-4.42 0-8 3.58-8 8s3.58 8 8 8 8-3.58 8-8-3.58-8-8-8Zm0 13c-2.64 0-4.79-2.07-4.97-4.67.21-1.67 1.7-1.63 3.82-1.66 1.67-.02 3.79-.06 5.08-1.72a4.92 4.92 0 0 1 1.06 3.04c0 2.76-2.24 5-5 5Z"/></svg>
