<svg xmlns="http://www.w3.org/2000/svg" viewBox="0 0 48 48"><title>Melding openbare ruimte</title><path d="M20 18.89h3V12h-3v6.89Zm0 3.61c0 .44.14.8.42 1.08.28.28.64.42 1.08.42s.8-.14 1.08-.42c.28-.28.42-.64.42-1.08s-.14-.8-.42-1.08c-.28-.28-.64-.42-1.08-.42s-.8.14-1.08.42c-.28.28-.42.64-.42 1.08ZM39 30c0 .28-.03.56-.06.83 0 .05-.02.1-.02.16-.02.14-.05.28-.09.42C37.88 35.97 33 42 33 42s-4.87-6.03-5.83-10.59l-.09-.42c0-.05-.02-.1-.02-.16A5.69 5.69 0 0 1 27 30c0-3.31 2.69-6 6-6s6 2.69 6 6Zm-3 0c0-1.66-1.34-3-3-3s-3 1.34-3 3 1.34 3 3 3 3-1.34 3-3Zm-10.99-.02h-3.76l-6.91 6.21c-.52.46-1.34.1-1.34-.6v-5.65c-2.25-.25-4-2.16-4-4.47V10.49c0-2.49 2.01-4.5 4.5-4.5h16c2.49 0 4.5 2.01 4.5 4.5v11.39c-.33-.04-.66-.07-1-.07-.69 0-1.36.1-2 .26V10.49c0-.83-.67-1.5-1.5-1.5h-16c-.83 0-1.5.67-1.5 1.5v14.98c0 .83.67 1.5 1.5 1.5H16v4l4-4h5.53c-.34.88-.53 1.84-.53 2.84v.16Z"/></svg>
