<svg xmlns="http://www.w3.org/2000/svg" viewBox="0 0 48 48"><title>Mobiliteit</title><path d="M24.99 32.18c-.15 0-.3 0-.45.02l-1.94-5.9c-.13-.38-.38-.71-.72-.95-.33-.23-.73-.36-1.14-.36H19v2h1.72l.66 1.99h-7.79l-.18-1h.32c.53 0 .94-.49.94-1.01 0-.54-.45-.98-1-.98h-2.7c-.54 0-.98.43-.98.96s.45 1.03.99 1.03h.37l.4 1.92-.58 2.31h-.19c-3.08 0-5.51 2.74-4.89 5.88.39 1.96 2.03 3.51 4.03 3.84 2.79.46 5.24-1.36 5.75-3.85 0 0 .12-.46.06-1.34l6.24-5.26.42 1.29c-1.77.94-2.89 2.9-2.56 5.07.33 2.16 2.17 3.89 4.38 4.13 3.02.33 5.58-1.98 5.58-4.88 0-2.71-2.24-4.91-5.01-4.91Zm-11.44-1.21 6.14.02-4.37 3.69c-.51-.83-1.31-1.57-2.2-1.99l.43-1.72Zm-3.22 9c-1.19-.25-2.13-1.24-2.3-2.42-.26-1.71 1-3.18 2.65-3.34l-.67 2.52c-.12.49.11 1.03.59 1.21.12.04.24.07.36.07.45 0 .86-.3.97-.75l.69-2.59c.81.52 1.35 1.42 1.35 2.45 0 1.83-1.71 3.27-3.65 2.86Zm14.01 0a2.972 2.972 0 0 1-2.31-2.35c-.22-1.19.31-2.28 1.19-2.91l.83 2.59c.13.42.53.69.95.69.15 0 .3-.03.44-.1.45-.21.65-.74.5-1.21l-.82-2.54c1.59.08 2.86 1.36 2.86 2.94 0 1.83-1.72 3.28-3.66 2.88ZM42 23v-7.27c-.01-.74-.42-1.38-1.03-1.73.03-.28-1.03-5.59-1.03-5.59A2.999 2.999 0 0 0 37 6h-9c-1.43 0-2.66 1.01-2.94 2.41 0 0-1.08 5.61-1.03 5.59-.61.34-1.03.98-1.03 1.72V23h3v-3h13v3h3ZM28 9h9l1 5H27l1-5Zm-1 9c-.55 0-1-.45-1-1s.45-1 1-1 1 .45 1 1-.45 1-1 1Zm11 0c-.55 0-1-.45-1-1s.45-1 1-1 1 .45 1 1-.45 1-1 1Z"/></svg>
