<svg xmlns="http://www.w3.org/2000/svg" viewBox="0 0 48 48"><title>Monitor virus</title><path d="M42 23.98c0 1.66-1.34 3-3 3-1.09 0-2.04-.59-2.56-1.46h-3.63a9.15 9.15 0 0 1-1.52 3.71l1.13 1.13a3.92 3.92 0 0 1 3.28.06 3.96 3.96 0 0 1-3.45 7.13 3.955 3.955 0 0 1-1.93-5.05l-1.14-1.14c-1.07.77-2.31 1.3-3.66 1.54v4.07c1.14.75 1.58 2.23.97 3.49a2.748 2.748 0 1 1-4.95-2.39c.23-.47.57-.83.98-1.1v-4.04a8.93 8.93 0 0 1-3.76-1.54l-2.79 2.79c.11.52.11 1.08-.06 1.63a3.213 3.213 0 0 1-4.02 2.11 3.213 3.213 0 0 1-2.11-4.02 3.213 3.213 0 0 1 4.02-2.11c.08.02.15.06.22.09l2.61-2.61a8.94 8.94 0 0 1-1.55-3.74h-1.39a3.988 3.988 0 0 1-7.67-1.54c0-1.19.53-2.25 1.36-2.98h5.25c.47.41.84.93 1.07 1.52h1.37c.09-.53.24-1.03.41-1.52h3.35A5.988 5.988 0 0 0 24 30.02c3.31 0 5.99-2.68 5.99-5.99s-2.68-5.99-5.99-5.99h-.02V7c0-.34-.07-.65-.17-.95.06 0 .12-.02.18-.02a4.02 4.02 0 0 1 1.5 7.75v1.42c1.34.24 2.58.77 3.65 1.54l1.9-1.9a3.11 3.11 0 0 1-.12-.81c0-1.66 1.34-3 3-3s3 1.34 3 3-1.34 3-3 3c-.25 0-.49-.04-.73-.1l-1.93 1.93a8.924 8.924 0 0 1 1.52 3.67h3.59c.51-.91 1.48-1.54 2.6-1.54 1.66 0 3 1.34 3 3ZM6.02 17.53V7.55c-.01-.83.66-1.5 1.5-1.5H20.5c.83 0 1.51.67 1.51 1.5v9.97c.01.83-.66 1.5-1.5 1.5H7.53c-.83 0-1.51-.67-1.51-1.5Zm11-1.5h2v-3h-2v3ZM13 9.02v7.01h2.01l-.02-7.01h-2Zm-3.98 7.01h2v-4h-2v4Z"/></svg>
