<svg xmlns="http://www.w3.org/2000/svg" viewBox="0 0 48 48"><title>Monument Woning</title><path d="M21.29 17c0-1.65-1.35-3-3-3s-3 1.35-3 3 1.35 3 3 3 3-1.35 3-3Zm-3 1c-.55 0-1-.45-1-1s.45-1 1-1 1 .45 1 1-.45 1-1 1Zm-3.75 9h-3v-3.13c0-.83.67-1.5 1.5-1.5s1.5.67 1.5 1.5V27ZM20 27h-3v-3.13c0-.83.67-1.5 1.5-1.5s1.5.67 1.5 1.5V27Zm5.47 0h-3v-3.13c0-.83.67-1.5 1.5-1.5s1.5.67 1.5 1.5V27Zm-12.43 4.37c.83 0 1.5.67 1.5 1.5V36h-3v-3.13c0-.83.67-1.5 1.5-1.5Zm5.46 0c.83 0 1.5.67 1.5 1.5V36h-3v-3.13c0-.83.67-1.5 1.5-1.5Zm5.47 0c.83 0 1.5.67 1.5 1.5V36h-3v-3.13c0-.83.67-1.5 1.5-1.5ZM31.03 39h11v3h-36V15.73l.88-.4c2.53-1.14 3.56-2.45 3.56-4.52v-1.5h3.32C14.42 7.39 16.23 6 18.36 6s3.94 1.39 4.57 3.31h3.65v1.5c0 2.07 1.03 3.38 3.56 4.52l.88.4v.77h-.03c-1.18 0-2.28.38-3.18 1.02-1.76-.96-3.6-2.49-4.11-5.21h-3.54v-1.5a1.81 1.81 0 1 0-3.62 0v1.5h-3.21c-.52 2.83-2.5 4.37-4.31 5.33v21.37h19v-4.15l3 3.01v1.15Zm8.02-20h-8c-1.66 0-3.02 1.34-3.02 3v7.94c0 .8.32 1.57.89 2.14l4.01 3.95c.58.58 1.34.86 2.11.86s1.53-.29 2.11-.87l3.99-3.95c.57-.56.89-1.33.89-2.13l.02-7.81V22c0-1.66-1.34-3-3-3Zm-4.01 14.89-4.01-3.95V22h8.02l-.02 7.94-3.99 3.95Z"/></svg>