<svg xmlns="http://www.w3.org/2000/svg" viewBox="0 0 48 48"><title>Natuur landschap</title><path d="M19.43 21.02c0 1.66-1.34 3-3 3s-3-1.34-3-3 1.34-3 3-3 3 1.34 3 3Zm17.55 4.85v-2.91H42l-3.92-5.66h2.61l-3.48-5.66h1.74l-3.48-5.66-3.48 5.66h1.74l-3.48 5.66h2.61l-3.92 5.66h5.02v2.25c-2.21-.36-4.45-.47-6.7-.35 0 .38-.03.75-.09 1.13-.11.67-.3 1.31-.56 1.92 5.32-.43 10.6.61 15.42 3.04v-3.31c-1.64-.74-3.33-1.32-5.05-1.77Zm-3.77 5.5a19.287 19.287 0 0 0-7.03-2.6c-.55.95-1.3 1.79-2.22 2.46-.16.12-.34.21-.51.31 2.83.04 5.64.84 8.19 2.4 3.1 1.88 5.6 4.72 7.1 8.06H42a21.321 21.321 0 0 0-8.81-10.63Zm-10.4-1.75a6.012 6.012 0 0 1-3.54 1.15c-.43 0-.86-.05-1.27-.14v11.36l-1.83-.03c-.07 0-.14.01-.2.01-.14 0-.27-.02-.41-.02h-.54v-.03c-5.02-.48-8.95-4.72-8.95-9.88 3.97 0 7.39 2.35 8.97 5.74l-.03-7.15c-.41.09-.83.14-1.26.14-1.28 0-2.5-.4-3.54-1.15a6.026 6.026 0 0 1-2.4-5.84c-.45-.45-.83-.97-1.13-1.55a5.96 5.96 0 0 1-.36-4.59 5.98 5.98 0 0 1 4.82-4.09 6.02 6.02 0 0 1 10.76 0c2.23.34 4.11 1.9 4.82 4.1.72 2.23.07 4.59-1.49 6.14.1.63.11 1.27 0 1.92a5.968 5.968 0 0 1-2.41 3.93Zm1.04-11.06a3.014 3.014 0 0 0-4.39-1.68c.04-.21.07-.42.07-.64 0-1.67-1.35-3.02-3.02-3.02s-3.02 1.35-3.02 3.02c0 .22.02.43.07.63-.18-.1-.38-.19-.58-.26-.31-.1-.62-.15-.93-.15-1.27 0-2.46.81-2.87 2.09a3.02 3.02 0 0 0 2.56 3.94c-.16.14-.3.3-.43.47-.98 1.35-.68 3.24.67 4.22a3.015 3.015 0 0 0 4.22-.67c.13-.18.23-.36.32-.55.09.19.19.38.32.55.59.81 1.51 1.25 2.45 1.25.62 0 1.24-.19 1.77-.58 1.35-.98 1.65-2.87.67-4.22-.13-.18-.27-.33-.43-.47a3.02 3.02 0 0 0 2.57-3.94Z"/></svg>
