<svg xmlns="http://www.w3.org/2000/svg" viewBox="0 0 48 48"><title>Onderwijs Basis</title><path d="M38.48 26.42c-.15-.37-.45-.66-.82-.81-.37-.15-.78-.15-1.15 0l-13.45 5.67s-.05.03-.08.04c-.02 0-.04.01-.06.02-.1.04-.19.09-.28.15-.93.48-1.74 1.18-2.32 2.06l-1.52 2.29a3.534 3.534 0 0 0 2.28 5.42l2.7.52c.38.07.77.11 1.16.11.71 0 1.41-.13 2.08-.37.05-.02.11-.03.16-.05.02 0 .03-.02.05-.03l.09-.03 4.22-1.78 9.21-3.88a1.5 1.5 0 0 0 .8-1.96l-3.11-7.37ZM24.36 38.85l-2.7-.52a.51.51 0 0 1-.39-.32c-.04-.1-.09-.3.05-.5l1.51-2.29s.04-.06.07-.08l1.57 3.73s-.07 0-.11-.01Zm3.06-.72-1.94-4.61 1.61-.68 1.94 4.61-1.61.68Zm4.37-1.84-1.94-4.61 6.45-2.72 1.94 4.61-6.45 2.72ZM24.3 12.24a1.01 1.01 0 0 0-1.22.71l-2.82 10.77c-.14.53.18 1.08.71 1.22a1.012 1.012 0 0 0 1.22-.72l.03-.1s.02.03.03.04c.59.54 1.33.83 2.12.83.15 0 .29 0 .44-.03 2.01-.26 3.68-2.26 3.81-4.55.07-1.25-.35-2.39-1.16-3.13-.69-.64-1.6-.92-2.56-.8a3 3 0 0 0-.73.18l.83-3.19c.14-.53-.18-1.08-.71-1.22Zm.88 6.22c.06 0 .12-.01.18-.01.29 0 .55.1.76.3.36.34.55.9.52 1.56-.07 1.31-1.02 2.54-2.07 2.68-.37.05-.69-.05-.94-.29-.36-.34-.55-.91-.52-1.56.07-1.31 1.02-2.54 2.07-2.68ZM42 7.5v15c0 .83-.67 1.5-1.5 1.5s-1.5-.67-1.5-1.5V9H9v23h7.5c.83 0 1.5.67 1.5 1.5s-.67 1.5-1.5 1.5h-9c-.83 0-1.5-.67-1.5-1.5v-26C6 6.67 6.67 6 7.5 6h33c.83 0 1.5.67 1.5 1.5ZM31.72 21.14c-.04.66.15 1.22.52 1.56.26.24.57.33.94.29.54-.07 1.08-.44 1.48-1.01.32-.45.94-.56 1.39-.24.45.32.56.94.24 1.39-.73 1.02-1.77 1.69-2.85 1.84-.15.02-.3.03-.44.03-.79 0-1.54-.29-2.12-.83-.8-.74-1.22-1.88-1.15-3.13.12-2.29 1.79-4.29 3.81-4.55 1.46-.19 2.78.58 3.39 1.98.22.51-.01 1.1-.52 1.31a.987.987 0 0 1-1.31-.52c-.12-.27-.47-.9-1.29-.79-1.05.14-2 1.36-2.07 2.68Zm-12.27-3.57c.14-.53-.18-1.08-.71-1.22-.54-.13-1.08.18-1.22.71l-.08.3s-.04-.05-.06-.07c-.7-.64-1.6-.92-2.56-.8-2.01.26-3.68 2.26-3.81 4.55-.07 1.25.35 2.39 1.15 3.13.59.54 1.33.83 2.12.83.15 0 .29 0 .44-.03.68-.09 1.32-.39 1.87-.82.16.24.36.47.61.65.18.13.39.2.59.2a1.005 1.005 0 0 0 .6-1.81c-.31-.23-.24-.65-.2-.82l1.26-4.8Zm-2.92 2.74c-.07 1.31-1.02 2.54-2.07 2.68-.37.05-.69-.05-.94-.29-.36-.34-.55-.91-.52-1.56.07-1.31 1.02-2.54 2.07-2.68.06 0 .12-.01.18-.01.29 0 .55.1.76.3.36.34.55.9.52 1.56Z"/></svg>