<svg xmlns="http://www.w3.org/2000/svg" viewBox="0 0 48 48"><title>Onderwijs Voortgezet</title><path d="M26.02 13v3H13.01v-3h13.01Zm-13.01 8h13.01v-3H13.01v3Zm16.93 19.28-6.12 1.63c-1.47.39-2.83-.92-2.47-2.4l1.51-6.26h.03L34.9 21.19l7.09 7.07-12.06 12.02Zm-2.84-7.07 2.84 2.83 7.8-7.78-2.84-2.83-7.8 7.78Zm.35 4.59-2.09-2.08-.68 2.83 2.77-.76Zm-8.17.99.69-2.79h-8.69c-1.09 0-2.06-.73-2.25-1.69-.02-.1-.02-.21-.03-.31v-.2c.04-.39.18-.75.43-1.06.39-.47.96-.74 1.57-.74h9.97l.36-.36L23.95 29H11c-.7 0-1.38.15-2 .42V11.5A2.5 2.5 0 0 1 11.5 9h18.52v13.84l3-3.02V6h-21.5C8.49 6 6 8.48 6 11.51v22.08c-.04.47-.02.94.08 1.41.47 2.32 2.6 4 5.06 4h8.11c.01-.07 0-.14.03-.21Z"/></svg>