<svg xmlns="http://www.w3.org/2000/svg" viewBox="0 0 48 48"><title>Onderwijs Hoger</title><path d="M41.68 29.11c-.64-2.07-2.27-3.5-4.27-3.89-.85-.16-1.69-.11-2.49.11v-7.05l6.86-3.41L23.9 6 6.03 14.88l1.45.72v10.6l-1.34 2.67 1.34.66v1.3h3.05v-1.5l.96-.7-.96-2.85V16.6l2.03 1.22v9.62c-.05 3.33 4.08 5.89 9.75 6.25l-2.56 6.24c-.19.47-.14 1.01.15 1.43.28.42 1.26.64 1.26.64h.26l7.22-.04c.29 0 .58-.09.83-.25l9.98-6.58c1.94-1.33 2.93-3.77 2.24-6.01ZM23.69 8.68l11.33 5.66L23.69 20l-11.33-5.66 11.33-5.66Zm-8.08 10.66 8.13 4.06 8.13-4.06v1.77c0 1.72-3.48 3.64-8.13 3.64s-8.13-1.92-8.13-3.64v-1.77Zm0 8.09v-1.7c2.02 1.27 4.89 2.06 8.13 2.06s6.12-.76 8.13-2.01v.89l-4.21 2.8c-.11.04-.21.09-.31.16-.09.06-.18.14-.25.22l-1.04.69c-.72.09-1.48.15-2.31.15-4.96 0-8.13-1.93-8.13-3.25Zm12.41 11.52-2.76.02 1.51-1.02c.47-.31.59-.94.27-1.41s-.95-.59-1.41-.27l-1.51 1.02 1.04-2.53 2.58-1.71 2.85 4.21-2.57 1.71Zm9.75-6.48-4.63 3.07-2.85-4.21 4.62-3.06c.56-.38 1.24-.52 1.91-.39.67.13 1.24.51 1.62 1.07.78 1.15.48 2.73-.67 3.52Z"/></svg>