<svg xmlns="http://www.w3.org/2000/svg" viewBox="0 0 48 48"><title>Ontheffing milieuzone</title><path d="M35 6c-3.86 0-7 3.14-7 7s3.14 7 7 7 7-3.14 7-7-3.14-7-7-7Zm-1.28 10.36-2.93-2.93 1.41-1.4 1.54 1.53 3.61-3.61 1.4 1.4-5.02 5.02Zm-5.4 5.51c-.24-.55-.78-.91-1.38-.91H22v-7H5v3h14v15H5v6h14.05c.25 2.24 2.14 4 4.45 4s4.2-1.76 4.45-4h1.56c.82 0 1.49-.67 1.49-1.49v-8.56l-2.68-6.04ZM23.5 38.96c-.83 0-1.5-.67-1.5-1.5s.67-1.5 1.5-1.5 1.5.67 1.5 1.5-.67 1.5-1.5 1.5Zm4.5-10h-6v-5h3.96l2.04 4v1Z"/></svg>
