<svg xmlns="http://www.w3.org/2000/svg" viewBox="0 0 48 48"><title>Participatie checklist</title><path d="M16 16H6V6h10v10Zm-2.31 9.72.43-.43L16 23.41v-4.4H6v10h7.04l.53-2.69.12-.6ZM14.42 39H9v-4h2.86l.59-3H6v10h10v-3.25l-1.05.2c-.17.03-.35.05-.52.05ZM35.25 9.13l6.36 6.36c.59.59.59 1.54 0 2.12L24.2 35.02l-9.66 2.04c-.52.1-.98-.36-.88-.88l2.09-9.64 17.36-17.4c.59-.59 1.54-.59 2.13 0ZM22.08 32.85l-4.22-4.22-.73 3.59 1.41 1.41 3.54-.77Zm12.1-20.56-14.2 14.22 4.24 4.24 14.2-14.22-4.24-4.24Z"/></svg>
