<svg xmlns="http://www.w3.org/2000/svg" viewBox="0 0 48 48"><title>Participatie</title><path d="M42.03 36v6h-3v-3c0-1.1-.9-2-2-2h-7v-1c0-1.66 1.34-3 3-3h6.05c2.94 0 2.94 3 2.94 3Zm-24 1v-.03s0-3-2.94-3H9.04c-1.66 0-3 1.34-3 3V42h4v-3c0-1.1.9-2 2-2h6Zm4.99-19h7.01v3.94L34.01 18h4.02c1.1 0 1.99-.89 1.99-1.99V7.99c0-1.1-.89-1.99-1.99-1.99H22.99c-1.09 0-1.97.88-1.97 1.97v8.04c0 1.1.89 1.99 1.99 1.99Zm17.5 9.47c0 2.49-2.01 4.5-4.5 4.5s-4.5-2.01-4.5-4.5c0-1.98 1.29-3.65 3.07-4.25.03 0 .05-.02.08-.02.43-.14.88-.23 1.35-.23.52 0 1.01.1 1.47.27h.02c1.75.62 3.01 2.27 3.01 4.23Zm-2 0c0-.72-.31-1.37-.81-1.83-.81.83-1.93 1.34-3.18 1.34-.32 0-.63-.05-.93-.11-.05.19-.08.39-.08.6a2.5 2.5 0 0 0 5 0Zm-21-3c0-1.98 1.29-3.65 3.07-4.25.03 0 .05-.02.08-.02.43-.14.88-.23 1.35-.23.52 0 1.01.1 1.47.27h.02c1.75.62 3.01 2.27 3.01 4.23 0 2.49-2.01 4.5-4.5 4.5s-4.5-2.01-4.5-4.5Zm2 0a2.5 2.5 0 0 0 5 0c0-.72-.31-1.37-.81-1.83-.81.83-1.93 1.34-3.18 1.34-.32 0-.63-.05-.93-.11-.05.19-.08.39-.08.6ZM12.03 42h25v-3h-25v3ZM7.52 28.43c0-1.98 1.29-3.65 3.07-4.25.03 0 .05-.02.08-.02.43-.14.88-.23 1.35-.23.52 0 1.01.1 1.47.27h.02c1.75.62 3.01 2.27 3.01 4.23 0 2.49-2.01 4.5-4.5 4.5s-4.5-2.01-4.5-4.5Zm2 0a2.5 2.5 0 0 0 5 0c0-.72-.31-1.37-.81-1.83-.81.83-1.93 1.34-3.18 1.34-.32 0-.63-.05-.93-.11-.05.19-.08.39-.08.6Zm10.51 8.54V37h8v-4s0-3-2.94-3h-6.05c-.26 0-.51.04-.76.11-.22.83-.59 1.6-1.1 2.27 2.05.88 2.85 3.03 2.85 4.59Z"/></svg>
