<svg xmlns="http://www.w3.org/2000/svg" viewBox="0 0 48 48"><title>Paspoort</title><path d="M18 34h12v2H18v-2Zm19-19.98v24.97c0 1.66-1.35 3.01-3.01 3.01H14.03a3 3 0 0 1-2.99-3L11 9.01C11 7.35 12.33 6 13.96 6h16.31c1.73 0 3.15 1.31 3.39 3H15v.01h-.03c-.56 0-1.01.46-1.01 1.02s.45 1.02 1.01 1.02H15v.02l18.98-.06c1.67 0 3.02 1.34 3.02 3.01ZM34 14H14v25h20V14ZM16 24c0-4.41 3.59-8 8-8s8 3.59 8 8-3.59 8-8 8-8-3.59-8-8Zm10.12-5.61c1.08 1.45 1.71 3.02 1.9 4.61h1.89a6.032 6.032 0 0 0-3.79-4.61Zm0 11.21a6.016 6.016 0 0 0 3.79-4.61h-1.89c-.19 1.59-.82 3.15-1.9 4.61Zm-4.1-6.61h3.97c-.21-1.4-.88-2.78-1.99-4.05-1.11 1.27-1.77 2.65-1.99 4.05Zm0 2c.21 1.4.88 2.78 1.99 4.05 1.11-1.27 1.77-2.65 1.99-4.05h-3.97Zm-3.92-2h1.89c.19-1.59.82-3.15 1.9-4.61a6.016 6.016 0 0 0-3.79 4.61Zm0 2a6.032 6.032 0 0 0 3.79 4.61c-1.08-1.45-1.71-3.02-1.9-4.61H18.1Z"/></svg>
