<svg xmlns="http://www.w3.org/2000/svg" viewBox="0 0 48 48"><title>Paspoort ID-kaart gecombineerd</title><path d="M12 33h4v2h-4v-2Zm-3 4h7v3H9.01A3.01 3.01 0 0 1 6 37l.05-28c0-1.66 1.3-3 2.95-3h16.36c1.75 0 3.18 1.31 3.42 3H10v.02a1.02 1.02 0 0 0-.01 2.04l19.02-.05A2.99 2.99 0 0 1 31.99 14v8.01h-3v-8H9v23Zm1-25.95h.03H10ZM18.03 23A4.966 4.966 0 0 0 16 27v1.17c-.54-1.03-.89-2.1-1.02-3.17h-1.89c.3 1.79 1.4 3.3 2.91 4.18v2.24c-2.93-1.19-5-4.06-5-7.41 0-4.41 3.59-8 8-8 3.72 0 6.85 2.56 7.74 6h-2.1a6.037 6.037 0 0 0-3.52-3.61c.85 1.15 1.41 2.36 1.71 3.61h-1.82c-.08 0-.16.02-.24.02-.32-1.06-.91-2.1-1.76-3.07-1.11 1.27-1.77 2.65-1.99 4.05h1.02Zm-1.15-4.61A6.016 6.016 0 0 0 13.09 23h1.89c.19-1.59.82-3.15 1.9-4.61Zm9.62 15.05c.96 0 1.74-.78 1.74-1.75s-.78-1.75-1.74-1.75-1.74.78-1.74 1.75.78 1.75 1.74 1.75Zm15.49-6.43v11.97c0 1.66-1.36 3.01-3.03 3.01H21.04c-1.68 0-3.04-1.35-3.04-3.02V27c0-1.66 1.36-3.01 3.04-3.01h17.92c1.68 0 3.05 1.35 3.05 3.02Zm-2.96 0-.05-.02h-7.99v2h-2v-2h-8l-.04 12 18.04.02.04-12Zm-12.54 7.35c-1.17 0-3.5.59-3.5 1.75v.88h7v-.88c0-1.17-2.33-1.75-3.5-1.75Zm5.5-1.37h5v-2h-5v2Zm0 4h4v-2h-4v2Z"/></svg>
