<svg xmlns="http://www.w3.org/2000/svg" viewBox="0 0 48 48"><title>Presentatie</title><path d="M17 37h5v5H12v-3H9V27.96c0-.33.04-.65.1-.96 0-.02 0-.03.01-.05.06-.3.16-.59.27-.87.01-.03.02-.05.03-.08.12-.27.26-.53.42-.78.01-.02.02-.03.03-.05.06-.09.12-.19.18-.28 0 .01.01.02.02.04.44-.56.98-1.02 1.62-1.35 0 0 0-.02-.01-.02.05-.02.11-.04.16-.06.66-.32 1.39-.51 2.17-.51h10a5 5 0 0 1 2.18.52c.04.02.09.03.14.05v.02c.64.34 1.2.8 1.64 1.37 0-.02.02-.03.02-.05.65.84 1.05 1.89 1.05 3.06V30H17.01v7Zm-6-23c0-4.42 3.58-8 8-8s8 3.58 8 8-3.58 8-8 8-8-3.58-8-8Zm3.03.33C14.21 16.93 16.35 19 19 19s5-2.24 5-5c0-1.15-.41-2.2-1.06-3.04-1.29 1.66-3.41 1.7-5.08 1.72-2.12.03-3.6-.02-3.82 1.66ZM37 32v-7.89l-4.1-4.51c.06-.19.1-.39.1-.6 0-1.1-.9-2-2-2s-2 .9-2 2 .9 2 2 2c.15 0 .29-.02.42-.05L35 24.88v7.11H19v3h5v7h10v-7h5v-3h-2Z"/></svg>
