<svg xmlns="http://www.w3.org/2000/svg" viewBox="0 0 48 48"><title>Raad en college</title><path d="M36.44 19.82c2.06.39 3.83-1.38 3.44-3.44-.22-1.14-1.15-2.08-2.29-2.29a2.927 2.927 0 0 0-3.44 3.44c.22 1.14 1.15 2.08 2.29 2.29ZM39.51 21h-4.89c-.77 0-1.49.4-1.96.98 2.03 1.23 3.35 3.44 3.35 6.01V29h6l.03-5.5c0-1.33-1.2-2.5-2.53-2.5Zm-26.08 0H8.55c-1.34 0-2.53 1.17-2.53 2.5V29H12l.04-.99c0-2.58 1.32-4.79 3.35-6.02-.47-.59-1.18-.99-1.96-.99Zm-2.99-1.18c2.06.39 3.83-1.38 3.44-3.44-.22-1.14-1.15-2.08-2.29-2.29a2.927 2.927 0 0 0-3.44 3.44c.22 1.14 1.15 2.08 2.29 2.29ZM24.01 6c-4.42 0-8 3.58-8 8s3.58 8 8 8 8-3.58 8-8-3.58-8-8-8Zm0 13c-2.64 0-4.79-2.07-4.97-4.67.21-1.67 1.7-1.63 3.82-1.66 1.67-.02 3.79-.06 5.08-1.72A4.92 4.92 0 0 1 29 13.99c0 2.76-2.24 5-5 5Zm-6.51 4.25c.48-.15.97-.25 1.5-.25h10.01c.52 0 1.01.1 1.49.25-2.03 3.94-4.48 7.17-5.22 8.11-.37-.22-.81-.36-1.28-.36s-.91.14-1.29.37c-.72-.91-3.17-4.15-5.22-8.11ZM34 27.99V39h-3v3H17v-3h-3V28c0-1.48.66-2.79 1.68-3.71 1.77 3.61 4.19 6.87 5.83 8.87l.03.03c-.01.1-.03.21-.03.32a2.5 2.5 0 0 0 5 0c0-.1-.02-.19-.03-.29v-.01c1.64-1.99 4.08-5.26 5.86-8.91 1.01.91 1.66 2.22 1.66 3.69Z"/></svg>
