<svg xmlns="http://www.w3.org/2000/svg" viewBox="0 0 48 48"><title>Reclamebelasting</title><path d="m42 20.58-.44.3A6.328 6.328 0 0 1 38 21.99c-1.81 0-3.6-.8-4.96-2.35a8.133 8.133 0 0 1-1.53-2.66h-2.52v-2h2.07a9.55 9.55 0 0 1 0-2h-2.08v-2h2.52c.32-.92.8-1.79 1.43-2.54 2.26-2.69 5.8-3.24 8.61-1.35l.43.29L40.8 9l-.37-.25c-1.93-1.3-4.38-.9-5.96.98-.32.38-.57.81-.79 1.26h5.31v2h-5.93c-.09.66-.09 1.34 0 2h5.92v2h-5.3c.23.48.5.94.86 1.34 1.6 1.83 3.96 2.19 5.89.89l.38-.26 1.17 1.62Zm-11.79-1.57h-2.82l-3.27 14.04H11.17l4.2-18.02h11.64v-3H12.99L6.01 42h3.08l1.39-5.95h12.95L22.04 42h3.08l5.28-22.68c-.06-.11-.13-.2-.19-.31Zm-5.52.01h-7.55l-.7 3.02 7.56-.02.7-3Zm7.33 2.45-.44 1.9 2.26 9.68h-4.51l-.7 3h5.9L35.92 42H39l-4.36-18.72a9.077 9.077 0 0 1-2.62-1.8Zm-17.01 6.6 5.57-.02.7-3h-5.57l-.7 3.02Z"/></svg>
