<svg xmlns="http://www.w3.org/2000/svg" viewBox="0 0 48 48"><title>Regeling laag inkomen</title><path d="M26.5 15c2.49 0 4.5-2.01 4.5-4.5 0-1.96-1.26-3.61-3.01-4.23h-.02c-.46-.16-.95-.27-1.47-.27-.47 0-.92.09-1.35.23-.03 0-.05.02-.08.02-1.78.6-3.07 2.26-3.07 4.25 0 2.49 2.01 4.5 4.5 4.5Zm-2.42-5.1c.3.07.61.11.93.11 1.25 0 2.37-.52 3.18-1.34.49.46.81 1.1.81 1.83a2.5 2.5 0 0 1-5 0c0-.21.03-.41.08-.6ZM36.5 15c2.49 0 4.5-2.01 4.5-4.5 0-1.96-1.26-3.61-3.01-4.23h-.02c-.46-.16-.95-.27-1.47-.27-.47 0-.92.09-1.35.23-.03 0-.05.02-.08.02-1.78.6-3.07 2.26-3.07 4.25 0 2.49 2.01 4.5 4.5 4.5Zm-2.42-5.1c.3.07.61.11.93.11 1.25 0 2.37-.52 3.18-1.34.49.46.81 1.1.81 1.83a2.5 2.5 0 0 1-5 0c0-.21.03-.41.08-.6ZM7.89 16H6v-2h1.38c-.04-.33-.07-.66-.07-1s.03-.67.07-1H6v-2h1.89c.93-2.36 2.93-4 5.23-4 1.31 0 2.54.51 3.57 1.47l.73.68-1.37 1.46-.73-.68c-.65-.61-1.41-.93-2.2-.93-1.24 0-2.33.79-3.02 2H14v2H9.4c-.05.32-.08.66-.08 1s.03.68.08 1H14v2h-3.9c.69 1.21 1.78 2 3.02 2 .79 0 1.55-.32 2.2-.93l.73-.68 1.37 1.46-.73.68c-1.02.96-2.26 1.47-3.56 1.47-2.31 0-4.3-1.64-5.23-4Zm29.46 17h-4.77c0-1.64-1.16-3.38-2.9-3.96l-8.96-2.82c-.47-.15-.96-.18-1.45-.09l-4.26.8v-.89L6 25.99v15h9v-1.88l9.6 2.64c.92.25 1.9.27 2.83.06L42 38.45v-1.37c0-2.27-2.08-4.1-4.65-4.1ZM12 38H9v-9h3v9Zm14 1.34-11-3v-6l4.88-.88 8.71 2.43c.53.18.88.89.88 1.39 0 0-3.08-.07-3.56-.2l-3.69-1.07-.98 2.57 3.69 1.07c.79.23 1.61.35 2.45.35h9.96c.6 0 1.15.31 1.39.76L26 39.35ZM39 16h-4.57c-1.66 0-3 1.34-3 3 0-1.66-1.34-3-3-3h-4.45c-1.66 0-3 1.34-3 3l.02 5.03c.1.03 6.42 2.06 6.42 2.06.17-.05.35-.09.54-.09h5.97c1.14 0 2.06.92 2.06 2.06V31h1.35c.57 0 1.12.08 1.65.21V28h3v-9c0-1.66-1.34-3-3-3Zm-7.55 9.07c-1.36 0-2.47-1.11-2.47-2.47 0-.26.05-.5.12-.74.16.02.31.03.47.03 1.15 0 2.19-.44 2.98-1.16.03.03.05.06.08.09.32.32.69.56 1.07.75.15.32.23.66.23 1.03 0 1.36-1.11 2.47-2.48 2.47Z"/></svg>
