<svg xmlns="http://www.w3.org/2000/svg" viewBox="0 0 48 48"><title>Rekenhulp</title><path d="M23.95,18.99v23h18.13v-23h-18.13ZM39.08,38.99h-12.13v-17h12.13v17ZM37.36,26.99h-8.58v-3h8.58v3ZM30.77,31.15h-2v-2h2s0,2,0,2ZM30.77,34.15h-2v-2h2s0,2,0,2ZM30.77,37.15h-2v-2h2s0,2,0,2ZM32.04,29.15h2s0,2,0,2h-2v-2ZM32.04,32.15h2s0,2,0,2h-2v-2ZM32.04,35.15h2s0,2,0,2h-2v-2ZM35.32,29.15h2s0,2,0,2h-2v-2ZM35.32,32.15h2s0,2,0,2h-2v-2ZM35.32,35.15h2s0,2,0,2h-2v-2ZM17.51,38.99h4.53v3h-6.25l-9.78-9.78V6h28.47v11.09h-3v-8.09H9.02v21.5h8.49v8.49ZM15.46,14.52c-.21.27-.39.56-.55.86h3.73v2h-4.32c-.05.48-.05.95,0,1.43h4.31v2h-3.72c.17.33.36.65.6.93,1.46,1.75,3.89,1.75,5.35,0l.64-.77,1.53,1.28-.64.77c-1.12,1.34-2.61,2.07-4.21,2.07s-3.09-.74-4.21-2.07c-.54-.65-.95-1.41-1.24-2.21h-2.11v-2h1.71c-.04-.48-.04-.95,0-1.43h-1.71v-2h2.12c.27-.76.64-1.48,1.14-2.11,1.11-1.39,2.62-2.16,4.24-2.17h.05c1.6,0,3.09.73,4.21,2.07l.64.77-1.53,1.28-.64-.77c-.73-.88-1.68-1.36-2.67-1.36h-.03c-1.01,0-1.97.52-2.7,1.43Z"/></svg>