<svg xmlns="http://www.w3.org/2000/svg" viewBox="0 0 48 48"><title>Rioolwerkzaamheden</title><path d="M35.52 28h-4.98c-.65 0-1.2.42-1.4 1h-5.57c-.9 0-1.74.22-2.49.61V26h20.91v-3H25.05l-.03-6.45.98 1.04 1.94-2.4-2.92-2.62V8.21h-2.99v1.91l-5.04-4.11-10.95 9.14L8 17.52l1.09-.95.03 6.43H6v3h7.11v9.5c0 3.58 2.9 6.5 6.52 6.5 3.02 0 5.56-2.11 6.25-4.96 0-.02.02-.04.05-.04h3.21c.21.58.75 1 1.4 1h4.98c.65 0 1.2-.42 1.4-1h5.03s.05-.02.05-.05v-2.9s-.02-.05-.05-.05h-4.94v-2H42v-3h-5.08c-.21-.58-.75-1-1.4-1Zm-23.44-5v-8.86l4.93-4.1 5.03 4.1V23h-9.96Zm16.97 11h-4.99c-.54 0-.98.44-.98.99v.56c0 1.94-1.6 3.51-3.6 3.45-1.92-.06-3.37-1.79-3.37-3.72V26h1.99v9.5c0 .83.67 1.5 1.49 1.5s1.49-.67 1.49-1.5v-1c0-1.38 1.12-2.5 2.49-2.5h5.48v2Zm4.97 1h-1.99v-4h1.99v4Zm1.05-15c3.87 0 7-3.13 7-7s-3.13-7-7-7-7 3.13-7 7 3.13 7 7 7Zm.72-3.28c-.19.19-.43.28-.72.28s-.54-.09-.72-.28c-.19-.19-.28-.43-.28-.72s.09-.53.28-.72c.19-.19.43-.28.72-.28s.54.09.72.28c.19.19.28.43.28.72s-.09.53-.28.72ZM34 9h2v5h-2V9Zm-14.95 7.2h1V20h-5.97v-3.8h4.98Z"/></svg>