<svg xmlns="http://www.w3.org/2000/svg" viewBox="0 0 48 48"><title>Rioolwerkzaamheden</title><path d="M19.09 16.2h1V20h-5.97v-3.8h4.98Zm13.49-2.97h2.56v2.57l-2.99 3c1.96.94 4.3.54 5.84-1a5.137 5.137 0 0 0 1-5.85l2.6-2.9c.65-.72.63-1.82-.06-2.5-.73-.74-1.94-.71-2.64.06l-2.47 2.78c-1.96-.94-4.3-.54-5.84 1a5.137 5.137 0 0 0-1 5.85l2.99-3ZM36.96 29h5.08v3h-4.99v2h4.94s.05.02.05.05v2.9s-.02.05-.05.05h-5.03c-.21.58-.75 1-1.4 1h-4.98c-.65 0-1.2-.42-1.4-1h-3.21s-.04.02-.05.04C25.24 39.9 22.7 42 19.67 42c-3.61 0-6.52-2.92-6.52-6.5V26H6.18v-3h2.98l-.03-6.43-1.09.96-1.96-2.37 10.95-9.15 5.04 4.11V8.21h2.99v4.36l2.92 2.62-1.94 2.4-.98-1.04.03 6.45h16.94v3H21.12v3.61c.75-.39 1.59-.61 2.49-.61h5.57c.21-.58.75-1 1.4-1h4.98c.65 0 1.2.42 1.4 1Zm-14.88-6v-8.86l-5.03-4.1-4.93 4.1V23h9.96Zm7 9H23.6c-1.37 0-2.49 1.12-2.49 2.5v1c0 .83-.67 1.5-1.49 1.5s-1.49-.67-1.49-1.5V26h-1.99v9.28c0 1.93 1.45 3.66 3.37 3.72 1.99.06 3.6-1.51 3.6-3.45v-.56c0-.54.44-.99.98-.99h4.99v-2Zm4.98-1h-1.99v4h1.99v-4Z"/></svg>
