<svg xmlns="http://www.w3.org/2000/svg" viewBox="0 0 48 48"><title>Roerende zaakbelasting</title><path d="M16 19.01h7.81L27 12h-5.86l-1.73-5.05H9.01v3h1.87L10.13 14H6v7c0 .55.45 1 1 1h2.77A7.988 7.988 0 0 1 16 19.01Zm-2.08-9.06h3.47l1.03 3.22L18 14h-4.82l.74-4.05ZM31.52 17H29v-2h2.07a9.55 9.55 0 0 1 0-2h-2.08v-2h2.52c.32-.92.8-1.79 1.43-2.54 2.26-2.69 5.8-3.24 8.61-1.35l.43.29-1.17 1.62-.37-.25c-1.93-1.3-4.38-.9-5.96.98-.32.38-.57.81-.79 1.26H39v2h-5.93c-.09.66-.09 1.34 0 2h5.92v2h-5.3c.23.48.5.94.86 1.34 1.6 1.83 3.96 2.19 5.89.89l.38-.26 1.17 1.62-.44.3a6.328 6.328 0 0 1-3.56 1.11c-1.81 0-3.6-.8-4.96-2.35A8.133 8.133 0 0 1 31.5 17ZM23 27h6v5h-6v-5Zm12 .07c0-3.35-2.72-6.07-6.07-6.07H16c-3.31 0-6 2.69-6 6v10.19c0 1 .81 1.81 1.81 1.81h4.47c.62 1.74 2.27 2.99 4.22 2.99s3.6-1.25 4.22-2.99H40v-3h-5v-8.93ZM20.5 38.99c-.83 0-1.5-.67-1.5-1.5s.67-1.5 1.5-1.5 1.5.67 1.5 1.5-.67 1.5-1.5 1.5ZM32 36h-7.27c-.62-1.75-2.27-3.01-4.23-3.01s-3.61 1.26-4.23 3.01H13v-9c0-1.66 1.34-3 3-3h12.93c1.69 0 3.07 1.38 3.07 3.07V36Z"/></svg>
