<svg xmlns="http://www.w3.org/2000/svg" viewBox="0 0 48 48"><title>Schoolkostenregeling</title><path d="M30.79 21.63c.65.75 1.4 1.37 2.21 1.88v4.48h-3v-7.41c.25.36.5.71.79 1.04ZM9 39V9h20c.48-1.24 1.27-2.01 1.65-2.47.16-.19.33-.36.49-.53H6v36h10.31L12 39H9Zm20.02-25.87h2.08a9.55 9.55 0 0 0 0 2h-2.07v2h2.52c.34.97.85 1.88 1.53 2.66 1.35 1.54 3.14 2.35 4.96 2.35 1.22 0 2.45-.36 3.56-1.11l.44-.3-1.17-1.62-.38.26c-1.92 1.3-4.29.94-5.89-.89-.35-.4-.62-.86-.86-1.34h5.3v-2h-5.92c-.09-.66-.1-1.34 0-2h5.93v-2h-5.31c.22-.44.47-.87.79-1.26C36.11 8 38.56 7.6 40.49 8.9l.37.25 1.17-1.62-.43-.29c-2.81-1.89-6.35-1.34-8.61 1.35-.63.75-1.11 1.62-1.43 2.54h-2.52v2ZM22 30.02 42 30v12H21.97l-8.27-5.39a.757.757 0 0 1 0-1.25l8.3-5.34ZM22 33l-3.05 2.02v2L22 38.98v-5.97Zm3 6h14.01v-6.01H25V39ZM12 22V12h15v10H12Zm3-3.03h8.97l.03-3.96h-9v3.96Z"/></svg>
