<svg xmlns="http://www.w3.org/2000/svg" viewBox="0 0 48 48"><path d="M36.5 21.04a2.5 2.5 0 0 0 0-5 2.5 2.5 0 0 0 0 5Zm-1.68 13.49c.73.84 1.18 2 1.18 3.18 0 3-1.67 4.28-4.99 4.28-3.33 0-4.99-1.28-4.99-4.28 0-1.18.44-2.34 1.18-3.18.72-.82.97-1.81.63-2.84-.14-.44-.19-.93-.11-1.43.16-1.06.9-1.81 2.3-2.08V20l2-.02v8.19c1.4.26 2.13 1.02 2.3 2.08.08.5.03.99-.11 1.43-.33 1.02-.08 2.02.63 2.84Zm-2.41-2.56c0-.79-.63-1.42-1.41-1.44a1.44 1.44 0 0 0 0 2.88 1.44 1.44 0 0 0 1.41-1.44ZM39.07 22H34.94c-.33 0-.65.08-.94.19v4.6c1.25.66 2.05 1.76 2.27 3.18.12.8.06 1.59-.18 2.36-.07.23-.1.51.23.9a6.92 6.92 0 0 1 1.68 4.5c0 1.26-.27 2.96-1.44 4.28H40v-10h2v-6.9c0-1.72-1.27-3.07-2.93-3.11ZM8.99 8.45c0-1.36 1.1-2.46 2.46-2.46s2.46 1.1 2.46 2.46-1.1 2.46-2.46 2.46-2.46-1.1-2.46-2.46ZM7.96 25.01c-1.1 0-1.99.89-1.99 1.99s.89 1.99 1.99 1.99S9.95 28.1 9.95 27s-.89-1.99-1.99-1.99Zm11.79-4.72c.96-.58 1.25-1.83.65-2.77l-2.19-3.41-.03.02s-.05-.08-.07-.12h2.15l2.13 3.33 2.52-1.63-2.63-4.1c-.12-.18-.29-.32-.49-.42-.42-.2-.16-.2-5.38-.2h-.43c-.78-.02-2.09-.05-2.89.79-.07.07-.13.15-.19.24l-2.51 3.97H7v3h3.61c.92 0 1.77-.47 2.26-1.24l1.25-1.94c.56.91 1.92 3.21 1.92 3.21v.02l-3.95 2.35c-.07.04-.13.08-.19.13-.58.48-.91 1.18-.91 1.93v5.53h3v-5.25l5.75-3.46Zm.73 1.93-4 2.47c0 .32.1.64.31.9l2.69 3.4h3.83l-3.63-4.61.81-2.17Z" style="stroke-width:0"/></svg>
