<svg xmlns="http://www.w3.org/2000/svg" viewBox="0 0 48 48"><title>Thuiswerken</title><path d="m24.16 35.28.5.68H6.01s-.05-1.4-.05-1.51c0-.65.41-1.21.99-1.42l1.89-.75c1.25-.5 3.09-1.26 3.12-1.27-1.47-.02-2.99-1.48-2.99-3.01V11.96c0-1.66 1.34-3 3-3h21c1.66 0 3 1.34 3 3v12h-1.14l-.67-.49-1.18-.86h-.02V11.95H11.98v16h13.7l-2.88 2.1-1.62 1.19 1.19 1.62 1.78 2.41Zm-6.5-20.82-3.58-.87.87 3.58.87 3.58 1.81-1.81 3.57 3.57 1.81-1.81-3.57-3.57 1.81-1.81-3.58-.87Zm24.35 17.12-1.81 2.44-1.21-.89v5.83h-12V33.2l-1.21.9L24 31.69l9.01-6.58 2.97 2.16v-1.29h3.01v3.45l3.02 2.16Zm-7.02.38h-4v3h4v-3Z"/></svg>
