<svg xmlns="http://www.w3.org/2000/svg" viewBox="0 0 48 48"><title>Toegankelijkheid</title><path d="M24 6.03c-9.94 0-17.98 8.06-17.98 18s8.05 18 17.98 18 18.02-8.06 18.02-18-8.07-18-18.02-18Zm0 33c-8.26 0-14.98-6.73-14.98-15s6.72-15 14.98-15 15.02 6.73 15.02 15-6.74 15-15.02 15Zm-2.49-23.51c0-1.38 1.12-2.5 2.49-2.5s2.49 1.12 2.49 2.5-1.12 2.5-2.49 2.5-2.49-1.12-2.49-2.5Zm-.49 6.37c-3.66-.3-6.27-1.03-6.41-1.07l.82-2.89s3.88 1.08 8.59 1.08c4.19 0 8.59-1.08 8.64-1.09l.72 2.91c-.15.04-2.97.73-6.36 1.03v4.79c.5 4 1.24 7.83 1.34 8.33h-3.05c-.23-1.22-.73-3.98-1.14-6.97h-.31c-.4 2.97-.91 5.73-1.15 6.97h-3.06c.12-.59.88-4.43 1.37-8.39v-4.71Z"/></svg>
