<svg xmlns="http://www.w3.org/2000/svg" viewBox="0 0 48 48"><title>Toeslag</title><path d="M12.5 37c2.49 0 4.5-2.01 4.5-4.5 0-1.96-1.26-3.61-3.01-4.23h-.02c-.46-.16-.95-.27-1.47-.27-.47 0-.92.09-1.35.23-.03 0-.05.02-.08.02C9.29 28.85 8 30.51 8 32.5c0 2.49 2.01 4.5 4.5 4.5Zm-2.42-5.1c.3.07.61.11.93.11 1.25 0 2.37-.52 3.18-1.34.49.46.81 1.1.81 1.83a2.5 2.5 0 0 1-5 0c0-.21.03-.41.08-.6Zm5.96 6.1H8.96c-1.65 0-2.95 1.25-2.95 2.8V42s.01.03.03.03h12.94s.03-.01.03-.03v-1.48C18.86 39.11 17.6 38 16.05 38ZM38 6H19.97c-.53 0-1.04.21-1.42.59-.38.38-.59.89-.58 1.42L18 28.02c0 1.1.9 1.99 2 2h3v3.4c0 .89 1.07 1.33 1.7.71l4.13-4.12H38c1.1 0 2-.9 2-2V8c0-1.1-.9-2-2-2ZM26 27.02h-5L20.97 9H37v18h-8.97L26 29v-1.98ZM30.12 13c.79 0 1.55.32 2.2.93l.73.68 1.37-1.46-.73-.68c-1.02-.96-2.26-1.47-3.57-1.47-2.31 0-4.3 1.64-5.23 4H23v2h1.38c-.04.33-.07.66-.07 1s.03.67.07 1H23v2h1.89c.93 2.36 2.93 4 5.23 4 1.31 0 2.54-.51 3.56-1.47l.73-.68-1.37-1.46-.73.68c-.65.61-1.41.93-2.2.93-1.24 0-2.33-.79-3.02-2h3.9v-2h-4.6c-.05-.32-.08-.66-.08-1s.03-.68.08-1h4.6v-2h-3.9c.69-1.21 1.78-2 3.02-2Z"/></svg>
