<svg xmlns="http://www.w3.org/2000/svg" viewBox="0 0 48 48"><title>Trouwen en geregistreerd partnerschap</title><path d="M27.4 36.81C25.3 39.94 21.73 42 17.68 42 11.24 42 6 36.79 6 30.38s5.24-11.62 11.68-11.62 11.68 5.21 11.68 11.62c0 .23-.02.46-.04.69-1.1-.15-2.12-.56-3-1.16-.25-4.54-4.02-8.16-8.64-8.16s-8.66 3.87-8.66 8.62 3.89 8.62 8.66 8.62a8.64 8.64 0 0 0 6.76-3.25c.93.46 1.92.82 2.96 1.05ZM42 23.98c0 6.16-5.02 11.38-11.2 11.63-6.66.26-12.16-5.05-12.16-11.62 0-.24.04-.46.05-.69 1.08.14 2.09.52 2.98 1.1.21 4.45 3.81 8.03 8.29 8.22 4.74.19 8.88-3.64 9.02-8.36.14-4.87-3.8-8.88-8.66-8.88a8.67 8.67 0 0 0-6.77 3.26c-.94-.46-1.92-.8-2.95-1.03 1.35-2.02 3.3-3.6 5.61-4.47l-2.29-3.12 3.01-4h7.03l3.01 4-2.36 3.19c4.31 1.71 7.38 5.89 7.38 10.79Zm-9.04-13.97-.61-1h-3.81l-.61 1 1.19 2h2.63l1.21-2Z"/></svg>
