<svg xmlns="http://www.w3.org/2000/svg" viewBox="0 0 48 48"><title>Uw gemeente</title><path d="M35 6H13c-2.21 0-4 1.79-4 4v24c0 2.21 1.79 4 4 4h9v4h4v-4h9c2.21 0 4-1.79 4-4V10c0-2.21-1.79-4-4-4Zm1 28c0 .55-.45 1-1 1H13c-.55 0-1-.45-1-1V10c0-.55.45-1 1-1h21.99c.55 0 1 .45 1 1v24ZM14.72 14.99 14 11.04h.81l.39 2.43.47-2.43h.69l.47 2.43.39-2.43h.81l-.72 3.95h-.85l-.45-2.21-.44 2.21h-.84Zm6.08 0h-2.36v-3.95h2.36v.81h-1.57v.81h1.34v.63h-1.34v.9h1.57V15Zm2.67 0h-2.28v-3.95h.86v3.15h1.41V15Zm1.26 0h-.86v-3.95h.86v1.74l.27-.51.72-1.23h1.01l-1.14 1.75 1.14 2.2h-.97l-.71-1.46-.32.4V15Zm2.85-.22c.22.15.48.23.77.23s.55-.08.77-.24c.23-.16.4-.38.53-.67.12-.29.19-.63.19-1v-.18c-.08-.37-.07-.7-.2-.99-.12-.29-.31-.51-.53-.67-.22-.16-.48-.23-.77-.23s-.55.08-.78.24c-.23.16-.4.38-.53.67s-.19.62-.19 1v.22c0 .37.08.69.2.97.12.28.3.5.53.65Zm.12-1.97c.02-.7.25-1.05.66-1.05.21 0 .38.1.5.3.11.2.2.49.2.88v.18c0 .38-.09.66-.2.86-.11.2-.3.3-.5.3-.22 0-.38-.1-.49-.31-.11-.2-.16-.5-.16-.88v-.28Zm5.22-1.77H34v3.95h-.86v-.95l.1-1.83-.8 2.78h-.54l-.81-2.78.09 1.83v.95h-.86v-3.95h1.11l.76 2.7.75-2.7ZM18 24.99v-3l-2-4-2 4v11h4v-6l2.5-2H18Zm-2-1c-.55 0-1-.45-1-1s.45-1 1-1 1 .45 1 1-.45 1-1 1Zm18-1.7v10.7h-4v-6l-3.32-2.55c.21-.57.69-1 1.28-1.15v-.06a1.856 1.856 0 0 1 2.52-1.74c.3-.62.93-1.06 1.67-1.06 1.03 0 1.86.83 1.86 1.86Zm-14 5.69v5.01h8v-5l-4-3-4 2.99Zm5 3.01h-2v-2h2v2Z"/></svg>
