<svg xmlns="http://www.w3.org/2000/svg" viewBox="0 0 48 48"><title>Veerboot</title><path d="M12.01 26h3.03l.96-7h15.99l.98 7H36l-.98-7h2L37 16h-5v-5h-3V9h2V7h-6v2h2v2H16v5h-5v3h1.97l-.96 7ZM25 14h4v2h-4v-2Zm-6 0h4v2h-4v-2Zm-2.1 22.01h-.05.29s-.07.01-.11.01h-.13ZM31.01 26v-3.02l-.67-2.19c-.15-.47-.55-.78-1-.78h-2.65c-.45 0-.86.32-1 .79l-.68 2.19v3.02h1v-1h4v1h1Zm-4.88-3 .42-2h2.86l.42 2h-3.7ZM10.57 34.06 9.05 28h30l-1.54 6.12c-1.42.1-2.85.48-4.21 1.13L35 31H13l1.65 4.13c-.21-.1-.42-.2-.66-.3-1.11-.46-2.26-.71-3.43-.78Zm31.43 3v3.27c-.69-.3-1.35-.65-2.07-.94-.64-.25-1.27-.37-1.91-.37-.92 0-1.82.25-2.69.72-1.44.77-2.95 1.2-4.47 1.2-1.27 0-2.55-.3-3.79-.96-.99-.53-1.99-.98-3.11-.98-.16 0-.33 0-.5.03-1.25.15-2.17.84-3.29 1.3-1.03.43-2.11.66-3.2.66-.6 0-1.21-.07-1.81-.21-1.16-.28-2.09-.9-3.17-1.35a4.6 4.6 0 0 0-1.8-.37c-1.5 0-2.77.77-4.21 1.33v-3.31c.59-.3 1.18-.57 1.82-.76.72-.2 1.45-.3 2.18-.3 1.08 0 2.16.22 3.18.65 1.2.5 2.19 1.24 3.55 1.33h.25c1.29 0 2.29-.61 3.43-1.15 1.11-.53 2.31-.82 3.53-.83h.19c.52 0 1.03.06 1.55.17 1.32.29 2.34 1.03 3.57 1.48.58.21 1.15.31 1.72.31.94 0 1.86-.27 2.74-.74 1.4-.75 2.94-1.18 4.47-1.18 1.32 0 2.62.32 3.84 1.01ZM23 26v-3.02l-.67-2.19c-.15-.47-.55-.78-1-.78h-2.65c-.45 0-.86.32-1 .79L17 22.99v3.02h1v-1h4v1h1Zm-4.87-3 .42-2h2.86l.42 2h-3.7Z"/></svg>
