<svg xmlns="http://www.w3.org/2000/svg" viewBox="0 0 48 48"><title>Vergoeding energiekosten</title><path d="M36.79 13H34l2.04-7h4.55l-2.33 4h3.85l-5.21 8h-2.05l1.94-5ZM20 19.03c0-3.31 2.69-6 6-6s6 2.69 6 6-2.69 6-6 6-6-2.69-6-6Zm3 0c0 1.66 1.34 3 3 3s3-1.34 3-3-1.34-3-3-3-3 1.34-3 3Zm19 18.1v1.37l-14.58 3.36a5.63 5.63 0 0 1-2.81-.06L15 39.16v1.88H6v-15l9 .05v.89l4.28-.8c.18-.03.36-.05.55-.05.3 0 .6.05.89.14l5.6 1.88c.8-2.38 3.04-4.11 5.69-4.11 3.31 0 6 2.69 6 6 0 1.09-.3 2.12-.81 3h.16c2.57 0 4.65 1.83 4.65 4.1Zm-30-8.1H9v9h3v-9Zm17.16.07c1.7.6 2.84 2.31 2.84 3.93 1.66 0 3-1.34 3-3s-1.34-3-3-3c-1.33 0-2.44.87-2.84 2.07Zm9.57 7.69c-.25-.45-.79-.76-1.39-.76h-9.96c-.84 0-1.66-.12-2.45-.35l-3.69-1.07.98-2.57 3.69 1.07c.48.14 2.99.2 2.99.2 0-.5-.36-1.21-.88-1.39l-8.13-2.43-4.88.88v6l11 3 12.73-2.59Z"/></svg>
