<svg xmlns="http://www.w3.org/2000/svg" viewBox="0 0 48 48"><title>Verhuizen</title><path d="M13 17.99V15h6v2.99c0 1.3-.84 2.4-2 2.81V24h2v2h-6v-2h2v-3.2c-1.16-.41-2-1.51-2-2.81ZM23 26h2v-5h3l-4-6.03L20 21h3v5Zm19-2.04v8.56c0 .82-.67 1.49-1.49 1.49h-1.56c-.25 2.24-2.14 4-4.45 4s-4.2-1.76-4.45-4h-13.1c-.25 2.24-2.14 4-4.45 4s-4.2-1.76-4.45-4H7.5c-.83 0-1.5-.67-1.5-1.5V10h27v7h4.94c.6 0 1.15.36 1.38.91L42 23.95ZM14 33.5c0-.83-.67-1.5-1.5-1.5s-1.5.67-1.5 1.5.67 1.5 1.5 1.5 1.5-.67 1.5-1.5ZM30 13H9v15h21V13Zm6 20.5c0-.83-.67-1.5-1.5-1.5s-1.5.67-1.5 1.5.67 1.5 1.5 1.5 1.5-.67 1.5-1.5Zm3-9.5-2.04-4H33v5h6v-1Z"/></svg>
