<svg xmlns="http://www.w3.org/2000/svg" viewBox="0 0 48 48"><title>Verkiezingen</title><path d="M14.68 31.24c.11.23.25.33.41.54a4.122 4.122 0 0 0 4.64 1.5l1.25-.42c.72.4 1.07 1.26.81 2.07-.3.92-1.29 1.42-2.21 1.11l-2.68-.88v.26a1.752 1.752 0 0 1-1.75 1.71c-.6 0-1.17-.31-1.49-.84l-2.83-4.64c-.5-.82-.24-1.9.58-2.4.83-.5 1.9-.24 2.4.58 0 0 .83 1.41.87 1.4Zm2.62 8.74c-4.91-.34-8.95-4.38-9.28-9.3a9.999 9.999 0 0 1 8.63-10.58l2.1-2.1H6v24h24V29.32l-2.12 2.12a10 10 0 0 1-10.59 8.54Zm24.29-25.04L27.16 29.37l-9.66 2.04c-.52.1-.98-.36-.88-.88l2.09-9.64L33.09 6.47c.59-.59 1.54-.59 2.13 0l6.36 6.36c.59.59.59 1.54 0 2.12ZM25.05 27.2l-4.22-4.22-.73 3.59 1.41 1.41 3.54-.77Zm13.36-13.34-4.24-4.24-11.22 11.24 4.24 4.24 11.22-11.24Z"/></svg>
