<svg xmlns="http://www.w3.org/2000/svg" viewBox="0 0 48 48"><title>Vluchtelingenopvang</title><path d="M23.5 23c2.49 0 4.5-2.01 4.5-4.5 0-1.96-1.26-3.61-3.01-4.23h-.02c-.46-.16-.95-.27-1.47-.27-.47 0-.92.09-1.35.23-.03 0-.05.02-.08.02-1.78.6-3.07 2.26-3.07 4.25 0 2.49 2.01 4.5 4.5 4.5Zm-2.42-5.1c.3.07.61.11.93.11 1.25 0 2.37-.52 3.18-1.34.49.46.81 1.1.81 1.83a2.5 2.5 0 0 1-5 0c0-.21.03-.41.08-.6ZM42 11.51v3.46L29.04 9.43 16 15.01v-3.46l13.05-5.58L42 11.51ZM21.46 32H18v-2.54c0-.81-.67-1.46-1.51-1.46h-3.95c-.86 0-1.54.66-1.54 1.49V32H7.5c-.83 0-1.5.67-1.5 1.5v7.01c0 .83.67 1.5 1.5 1.5h14c.83 0 1.5-.67 1.5-1.5v-6.97c0-.84-.69-1.53-1.53-1.53ZM16 32h-3v-2h3v2Zm23-13.5c0-1.96-1.26-3.61-3.01-4.23h-.02c-.46-.16-.95-.27-1.47-.27-.47 0-.92.09-1.35.23-.03 0-.05.02-.08.02-1.78.6-3.07 2.26-3.07 4.25 0 2.49 2.01 4.5 4.5 4.5s4.5-2.01 4.5-4.5Zm-7 0c0-.21.03-.41.08-.6.3.07.61.11.93.11 1.25 0 2.37-.52 3.18-1.34.49.46.81 1.1.81 1.83a2.5 2.5 0 0 1-5 0Zm6 5.5H19.99c-1.33 0-2.44.87-2.83 2.07 1.62.31 2.84 1.71 2.84 3.39V30h1.47c1.95 0 3.53 1.59 3.53 3.53V34h6.94c1.14 0 2.06.93 2.06 2.07V42h4v-4h3V27c0-1.66-1.34-3-3-3Zm-9.15 8C27.28 32 26 30.72 26 29.15c0-.3.06-.58.14-.85.18.02.36.04.54.04 1.32 0 2.52-.51 3.43-1.34.03.03.05.07.09.1.37.37.79.64 1.23.86.17.36.27.76.27 1.19 0 1.57-1.28 2.85-2.85 2.85Z"/></svg>
