<svg xmlns="http://www.w3.org/2000/svg" viewBox="0 0 48 48"><title>Wijkteam</title><path d="M40.79 33.82s-1.53-6.12-1.56-6.19c-.41-1.24-1.51-4.53-4.82-4.53l-10.88-.08c-3.31 0-4.41 3.29-4.82 4.53-.02.07-1.56 6.19-1.56 6.19-.24.95 0 1.97.66 2.7.57.64 1.39 1.01 2.23 1.01.12 0 2.05-.23 2.05-.23v4.8h13.93v-4.69s1.74.21 1.86.21c.85 0 1.66-.36 2.23-1.01.65-.74.9-1.75.66-2.7Zm-18.16-2.43s-.54-2.5 2-2.5c1 0 3.04.71 3.04.71l-5.04 1.79Zm12.71-.44-4.71-1s1.32-1.39 2.9-1.39c.25 0 .51.04.77.12 1.89.6 1.03 2.27 1.03 2.27ZM9.78 15.27c0-1.81 1.47-3.27 3.27-3.27s3.27 1.47 3.27 3.27-1.47 3.27-3.27 3.27-3.27-1.47-3.27-3.27Zm7.05 11.65c-.02.08-.04.14-.78 3.07H7.03l-.04-6.97c0-1.59 1.42-2.97 3.01-2.97h5.98c1.59 0 2.99 1.38 2.99 2.97 0 0-1.37 1.05-2.15 3.9ZM29 6c-4.42 0-8 3.58-8 8s3.58 8 8 8 8-3.58 8-8-3.58-8-8-8Zm0 13c-2.64 0-4.79-2.07-4.97-4.67.21-1.67 1.7-1.63 3.82-1.66 1.67-.02 3.79-.06 5.08-1.72a4.92 4.92 0 0 1 1.06 3.04c0 2.76-2.24 5-5 5Z"/></svg>
