<svg xmlns="http://www.w3.org/2000/svg" viewBox="0 0 48 48"><title>Windenergie</title><path d="m28.67 39.02-.69-12.64 2.51.65 5.79.44h.25a3.4 3.4 0 0 0 3.3-2.56c.46-1.81-.64-3.66-2.45-4.12l-9.92-2.56-1.08-4.82-2.25-5.34a3.395 3.395 0 0 0-3.9-1.98 3.41 3.41 0 0 0-2.56 4.06l2.06 9.11-4.51 4.12-3.52 4.6c-1 1.32-.91 3.15.22 4.36.67.72 1.58 1.09 2.5 1.09.82 0 1.65-.29 2.3-.89l3.23-2.95-.58 9.44H8.03v2.99h32v-2.99H28.68Zm-.15-17.43 8.11 2.09a.4.4 0 0 1 .29.49c-.05.19-.22.34-.42.31l-5.39-.39-2.96-.77c.23-.53.36-1.12.37-1.73Zm-2.99-.1c0 .83-.68 1.51-1.51 1.51s-1.51-.68-1.51-1.51.68-1.51 1.51-1.51 1.51.68 1.51 1.51Zm-.18 11.81h-2.63l.41-6.63.71-.65c.06 0 .12.02.18.02.32 0 .63-.05.94-.12l.4 7.38ZM20.9 9s.06-.01.09-.01c.16 0 .31.1.38.25l2.11 4.96.64 2.85s-.07-.01-.11-.01c-.58 0-1.13.12-1.64.32l-1.78-7.87c-.05-.22.09-.44.31-.49Zm-6.21 21.33c-.16.15-.42.14-.57-.02a.408.408 0 0 1-.03-.52l3.26-4.3 2.49-2.27c.23.57.56 1.08.99 1.5l-6.13 5.61Zm7.68 8.69.17-2.72h2.98l.15 2.72h-3.3Z"/></svg>