<svg xmlns="http://www.w3.org/2000/svg" viewBox="0 0 48 48"><title>Winkelen</title><path d="M39.96 42.02H7.97L10 14.99l6.97.02.02-2.07c0-3.82 3.17-6.92 7.08-6.92.65 0 1.27.1 1.87.26.02 0 .03-.01.05-.02v.02c.66-.18 1.35-.27 2.05-.27 3.82 0 6.96 2.7 6.96 6.02v.95h-2v-.95c0-1.95-1.74-3.57-4-3.94a6.885 6.885 0 0 1 1.99 4.84l-.02 6.99a1.498 1.498 0 0 1-1.04 2.58c-.83 0-1.5-.67-1.5-1.5 0-.46.21-.87.54-1.14v-1.87h-8v-3h8l.02-2.06c0-2.09-1.24-3.84-3.05-4.56-1.73.64-2.95 2.08-2.95 3.66v.95h-2v-.95c0-1.43.61-2.74 1.57-3.78-2.07.62-3.58 2.47-3.58 4.68l-.02 6.96c.3.27.5.67.5 1.11 0 .83-.67 1.5-1.5 1.5s-1.5-.67-1.5-1.5c0-.44.2-.84.5-1.11V18l-4.19-.02L11.19 39h25.53L35.2 18H33v-3h4.99l1.95 27ZM25.11 25c.79 0 1.55.32 2.2.93l.73.68 1.37-1.46-.73-.68c-1.02-.96-2.26-1.47-3.57-1.47-2.31 0-4.3 1.64-5.23 4h-1.89v2h1.38c-.04.33-.07.66-.07 1s.03.67.07 1h-1.38v2h1.89c.93 2.36 2.93 4 5.23 4 1.31 0 2.54-.51 3.56-1.47l.73-.68-1.37-1.46-.73.68c-.65.61-1.41.93-2.2.93-1.24 0-2.33-.79-3.02-2h3.9v-2h-4.6c-.05-.32-.08-.66-.08-1s.03-.68.08-1h4.6v-2h-3.9c.69-1.21 1.78-2 3.02-2Z"/></svg>
