<svg xmlns="http://www.w3.org/2000/svg" viewBox="0 0 48 48"><title>Wolf</title><path d="M24.52 20.89a1.01 1.01 0 0 1-.45-1.34c.25-.49.85-.69 1.34-.45l2 1c.49.25.69.85.45 1.34-.18.35-.53.55-.89.55-.15 0-.3-.03-.45-.11l-2-1ZM19.97 35c0 3.87-3.13 7-6.99 7s-6.99-3.13-6.99-7 3.13-7 6.99-7 6.99 3.13 6.99 7Zm-5.99 3c0-.29-.09-.53-.28-.72-.18-.19-.43-.28-.72-.28s-.54.09-.72.28c-.18.19-.28.43-.28.72s.09.53.28.72c.19.19.43.28.72.28s.54-.09.72-.28c.19-.19.28-.43.28-.72Zm0-7h-2v5h2v-5Zm18.96-10.5v-.58c0-1.27-.56-2.46-1.53-3.27l-2.66-2.2V6.99s-2.8.4-4.8 2.11V6s-6.9 1.64-9.46 7.46l-6.92 4.25 2.21 2.21-3.8 3.33v3.99l8.18-7.17-1.79-1.79 4.52-2.78.18-.46c1.05-2.65 2.82-3.93 4.1-4.68v4.18s1.84-2.44 4.77-3.57v4.68l3.54 3.28c.29.24.45.6.45.97v2.08l7.73 5.53-1.57 1.88c-.33.27-2.63 2.4-6.37.19l-4.78-2.6-3.07 4.94 2.27 3.06-2.03 3.05 2.97 3.95h3.75l-3.06-4.05 1.96-2.95-2.21-3.32c.09-.31.58-1.06.58-1.06l2.12 1.32c6.06 3.59 9.84-.27 9.99-.42l3.76-4.5-9.06-6.52Z"/></svg>
