<svg xmlns="http://www.w3.org/2000/svg" viewBox="0 0 48 48"><title>Woning zoeken</title><path d="M16.5 29.38 12.02 26 6 30.5V42h21V30.5L21.02 26l-4.52 3.38ZM15 39H9v-6.99l3.01-2.25L15 32.01v7Zm9 0h-6v-6.99l3.01-2.25L24 32.01v7Zm17.41-9.68-7.25-7.25a1.983 1.983 0 0 0-2.82 0l-.07.07-1.66-1.66c1.13-1.5 1.8-3.36 1.8-5.38 0-4.96-4.04-9-9-9s-9 4.04-9 9 4.04 9 9 9c1.86 0 3.59-.57 5.03-1.54l1.72 1.72c-.71.79-.69 1.99.07 2.75l7.25 7.25c.39.39.9.59 1.41.59s1.02-.2 1.41-.59l2.12-2.12a1.983 1.983 0 0 0 0-2.82ZM22.4 21.19c-3.36 0-6.1-2.73-6.1-6.1s2.74-6.1 6.1-6.1 6.1 2.73 6.1 6.1-2.74 6.1-6.1 6.1Z"/></svg>
