<svg xmlns="http://www.w3.org/2000/svg" viewBox="0 0 48 48"><title>Zwemabonnement</title><path d="M12.76 12.69c0-.97.78-1.75 1.74-1.75s1.74.78 1.74 1.75-.78 1.75-1.74 1.75-1.74-.78-1.74-1.75Zm4.05 24.18h.25c1.29 0 2.29-.61 3.43-1.15a8.46 8.46 0 0 1 3.62-.84h.18l1.81-1.32 1.38 2.13c.61.29 1.2.61 1.85.84a5.006 5.006 0 0 0 2.44.26l-5.12-7.88a5.463 5.463 0 0 0-4.88-2.96h-7.25c-.83 0-1.5.67-1.5 1.5s.67 1.5 1.5 1.5h7.25c.95 0 1.81.53 2.24 1.38.03.05.46.71.46.71l-7.89 5.79c.08.01.16.03.25.03Zm13.72-4.26a4.495 4.495 0 0 1 1.8-6.1c1.74-.95 3.82-.61 5.2.67l.06.06c.32.31.62.66.85 1.08.25.45.39.93.47 1.42v.02c.29 1.83-.55 3.73-2.27 4.67a4.495 4.495 0 0 1-6.1-1.8Zm1.76-.96a2.502 2.502 0 0 0 3.39 1c.64-.35 1.05-.93 1.22-1.58a4.452 4.452 0 0 1-2.7-2.15c-.15-.28-.26-.57-.35-.87-.19.05-.38.12-.56.22a2.502 2.502 0 0 0-1 3.39ZM20 13.99h5v-2h-5v2Zm-5.5 1.37c-1.17 0-3.5.59-3.5 1.75v.88h7v-.88c0-1.17-2.33-1.75-3.5-1.75Zm23.74 21.76c-1.53 0-3.06.43-4.46 1.18-.88.47-1.8.74-2.74.74-.57 0-1.14-.1-1.72-.31-1.23-.45-2.25-1.19-3.57-1.48a7.72 7.72 0 0 0-1.65-.18c-1.24 0-2.48.3-3.62.84-1.13.54-2.14 1.15-3.43 1.15h-.25c-1.36-.08-2.35-.83-3.55-1.33-1.03-.43-2.1-.65-3.18-.65-.73 0-1.46.1-2.18.3-.64.18-1.23.46-1.82.76v3.31c1.44-.56 2.71-1.33 4.21-1.33.56 0 1.15.11 1.8.37 1.08.44 2 1.07 3.17 1.35.6.14 1.2.21 1.81.21 1.09 0 2.18-.23 3.2-.66 1.12-.47 2.04-1.15 3.29-1.3.17-.02.33-.03.5-.03 1.12 0 2.12.45 3.11.98 1.24.66 2.52.97 3.79.97 1.52 0 3.03-.43 4.47-1.2.87-.46 1.77-.72 2.69-.72.63 0 1.27.12 1.91.37.72.29 1.38.64 2.07.94v-3.27a7.638 7.638 0 0 0-3.84-1.01ZM6 19.98V9.01C6 7.35 7.36 6 9.04 6h17.92c1.68 0 3.05 1.35 3.05 3.02v10.97c0 1.66-1.36 3.01-3.03 3.01H9.04C7.36 23 6 21.65 6 19.98Zm2.96.02 18.04.02.04-11-.05-.02H9l-.04 11ZM20 18h4v-2h-4v2Z"/></svg>
