<svg xmlns="http://www.w3.org/2000/svg" viewBox="0 0 48 48"><title>Paspoort</title><path d="M33.98 11.01 15 11.07v-.02h-.03c-.56 0-1.01-.46-1.01-1.02s.45-1.02 1.01-1.02H15L33.66 9c-.24-1.69-1.66-3-3.39-3H13.96C12.33 6 11 7.35 11 9.01L11.04 39a3 3 0 0 0 2.99 3h19.96c1.66 0 3.01-1.35 3.01-3.01V14.02c0-1.67-1.35-3.01-3.02-3.01ZM34 39H14V14h20v25Zm-15.9-5.98h12.02V35H18.1v-1.98Zm-2.18-7.81 3.23-3.23-1.2-1.2v-.04h-.09v-1.75h2.59v1.47l2.51 2.51v-3.95h-1.97v-2h3.97v5.88l2.38-2.38V19h2.59v1.75h-.07l.04.04-1.2 1.2 3.23 3.23-1.41 1.41-3.23-3.23-1.22 1.22 3.4 3.4-1.41 1.41-3.09-3.09v4.69h-2v-4.77l-3.17 3.17-1.41-1.41 3.4-3.4-1.22-1.22-3.23 3.23-1.41-1.41Z"/></svg>