<svg xmlns="http://www.w3.org/2000/svg" viewBox="0 0 48 48"><title>Aanmelden</title><path d="M27 22.98H14.43c-2.36 0-3.43-1.91-3.43-4v-1.89l-4-.06v1.95c0 4.26 2.9 8 7.43 8h.61v15.01l13.92-.08V39l3.03-.06.02-10.97c0-2.81-2.19-5-5-5ZM8.54 14H11.01V7c0-.55-.45-1-1-1s-1 .45-1 1l-.02 2h-.48a2.5 2.5 0 0 0 0 5h.04Zm30.47-5V6h-3v3h-3v3h3v3h3v-3h3V9h-3ZM22 6c-4.42 0-8 3.58-8 8s3.58 8 8 8 8-3.58 8-8-3.58-8-8-8Zm0 13c-2.64 0-4.79-2.07-4.97-4.67.21-1.67 1.7-1.63 3.82-1.66 1.67-.02 3.79-.06 5.08-1.72a4.92 4.92 0 0 1 1.06 3.04c0 2.76-2.24 5-5 5Z"/></svg>
