<svg xmlns="http://www.w3.org/2000/svg" viewBox="0 0 48 48"><title>Afvalcontainer afvalzak</title><path d="M21.91 41.18c-.21.51-.65.82-1.16.82H7.29c-.51 0-.95-.31-1.16-.82-.18-.44-.08-.94.16-1.35.9-1.48 1.4-2.62 1.49-3.39.08-.76.14-.69.19-1.38.13-1.7.25-4.34.74-5.47.47-1.08 4.19-3 4.19-3l-1.86-3.85c-.31-.47.49-.93 1.16-.66l.94.37c.63.25 1.35.38 2.08.38h.82c.6 0 .99.41.72.77l-1.25 3s3.32 1.89 3.81 3c.5 1.13.61 3.77.74 5.47.05.69.11.62.19 1.38.09.77.59 1.9 1.49 3.39.25.4.34.91.16 1.35Zm-7.68-21.52-.23-.09v-5.56c0-1.66 1.34-3 3-3h12v-3h-1c-.55 0-1-.45-1-1s.45-1 1-1h4c.55 0 1 .45 1 1s-.45 1-1 1h-1v3h5c1.66 0 3 1.34 3 3v20h-3V15c0-.55-.45-1-1-1h-2v12c0 .55-.45 1-1 1H21c-.55 0-1-.45-1-1V14h-2c-.55 0-1 .45-1 1v4.94a4.35 4.35 0 0 0-.96-.12h-.82c-.36 0-.71-.06-.99-.17ZM23 17.01h7v-3h-7v3Zm19 19H23.23s0 .06.01.09c0 .02.11.61 1.07 2.18.14.23.26.48.35.73h17.33v-3Z"/></svg>
