<svg xmlns="http://www.w3.org/2000/svg" viewBox="0 0 48 48"><title>Afval groenbak</title><path d="M37.25 33.05c0 2.15 1.35 4.69 2.75 6.02-.83 1.68-2.34 2.93-3.38 2.93-1.12-.05-2.3-.78-3.62-.94a4.07 4.07 0 0 0-1 0c-1.32.16-2.5.88-3.62.94-1.04 0-2.55-1.26-3.38-2.93 1.4-1.33 2.75-3.86 2.75-6.02 0-2.55-.89-4.86-2.75-6.16.71-1.52 1.55-1.88 3.38-1.88 1.06 0 2.67.69 3.62.91.09.02.17.03.24.05.06 0 .11.02.16.02.03 0 .07.01.1.01s.07 0 .1-.01c.05 0 .1-.01.16-.02.08-.01.16-.03.24-.05.96-.22 2.56-.91 3.62-.91 1.83 0 2.67.37 3.38 1.88-1.86 1.29-2.75 3.61-2.75 6.16ZM32 23.43c0 .55.4 1 .9 1 1.71 0 3.1-1.54 3.1-3.43 0-.55-.4-1-.9-1-1.71 0-3.1 1.54-3.1 3.43Zm-8.79 16.52c.17.35.39.7.63 1.05H16.3c-.77.62-1.73 1-2.79 1-2.48 0-4.5-2.02-4.5-4.5 0-1.04.37-1.99.97-2.75L10.01 12h-2V8h2v-.04c0-1.08.88-1.96 1.96-1.96h16.04a2 2 0 0 1 2 2h4v4h-4l-1.13 11.05c-.16-.02-.33-.04-.49-.04-.85 0-1.71.08-2.51.39L27.01 12h-14v21.05c.17-.02.33-.05.5-.05 2.48 0 4.5 2.02 4.5 4.5 0 .17-.03.33-.05.5h1.01s.05.02.05 0h3.53l.03.63.65 1.32ZM15 37.5c0-.83-.67-1.5-1.5-1.5s-1.5.67-1.5 1.5.67 1.5 1.5 1.5 1.5-.67 1.5-1.5Z"/></svg>
