<svg xmlns="http://www.w3.org/2000/svg" viewBox="0 0 48 48"><title>Afvalbak PMD</title><path d="M33.02 21H23.5L21 24.33V40l3.04 2h7.9l3.02-2-.08-15-1.86-4ZM32 38.3l-.8.73-6.41-.03-.79-.64V25.43l.89-1.47 6.2.03.9 1.57v12.73ZM42 15v22h-5v-3h2l-.04-17.96L36 13h-1l-3.04 3.08-.05 2.92h-2.96l.05-4 5-6V6h3v3l5 6ZM16.95 36h-1.01c.02-.17.05-.33.05-.5 0-2.48-2.02-4.5-4.5-4.5-.17 0-.33.03-.5.05V11h12l-1.07 8h2.98l1.1-8h3V8h-3.32c0-1.1-.9-2-2-2H9.95c-1.08 0-1.96.88-1.96 1.96V8h-2v3h2l-.03 21.75c-.6.76-.97 1.71-.97 2.75 0 2.48 2.02 4.5 4.5 4.5 1.06 0 2.02-.38 2.79-1h4.71v-3h-2s-.02.02-.05 0Zm-5.46 1c-.83 0-1.5-.67-1.5-1.5s.67-1.5 1.5-1.5 1.5.67 1.5 1.5-.67 1.5-1.5 1.5Z"/></svg>
