<svg xmlns="http://www.w3.org/2000/svg" viewBox="0 0 48 48"><title>Afvalbak afvalzak</title><path d="M38.91 41.18c-.21.51-.65.82-1.16.82H24.28c-.51 0-.95-.31-1.16-.82-.18-.44-.08-.94.16-1.35.9-1.48 1.4-2.62 1.49-3.39.08-.76.14-.69.19-1.38.13-1.7.25-4.34.74-5.47.49-1.12 3.81-3 3.81-3l-1.25-3c-.27-.35.12-.77.72-.77h.82c.73 0 1.45-.13 2.08-.38l.94-.37c.67-.26 1.47.19 1.16.66l-1.86 3.85s3.71 1.92 4.19 3c.5 1.13.61 3.77.74 5.47.05.69.11.62.19 1.38.09.76.59 1.9 1.49 3.39.25.4.34.91.16 1.35ZM20 38h2.04c-.13.24-.28.49-.46.79-.42.68-.58 1.46-.51 2.21h-3.78c-.77.62-1.73 1-2.79 1-2.48 0-4.5-2.02-4.5-4.5 0-1.04.37-1.99.97-2.75L11 12H9V8h2v-.04C11 6.88 11.88 6 12.96 6H29a2 2 0 0 1 2 2h4v4h-4l-1 9h-3l1-9H14v21.05c.17-.02.33-.05.5-.05 2.48 0 4.5 2.02 4.5 4.5 0 .17-.03.33-.05.5h1.01s.05.02.05 0Zm-4-.5c0-.83-.67-1.5-1.5-1.5s-1.5.67-1.5 1.5.67 1.5 1.5 1.5 1.5-.67 1.5-1.5Z"/></svg>
