<svg xmlns="http://www.w3.org/2000/svg" viewBox="0 0 48 48"><title>Afvalzak</title><path d="M20.43 15.64c-.33-.41.52-.81 1.24-.58l1.01.32c.67.21 2.19.33 2.97.33h.86c.64 0 1.06.36.78.67L26 19h-3.54l-2.03-3.36Zm2.07-4.22c-.22-.15-.36-.37-.41-.63s0-.52.16-.74c.93-1.36.59-3.22-.77-4.15l-1.13 1.65c.22.15.36.37.41.63s0 .52-.16.74c-.93 1.36-.59 3.22.77 4.15l1.13-1.65Zm4.93 0c-.22-.15-.36-.37-.41-.63s0-.52.16-.74c.93-1.36.59-3.22-.77-4.15l-1.13 1.65c.22.15.36.37.41.63s0 .52-.16.74c-.93 1.36-.59 3.22.77 4.15l1.13-1.65Zm6.48 26.68c-1.38-2.26-1.75-3.45-1.81-4.05-.05-.48-.1-.72-.14-.93-.04-.21-.07-.38-.11-.82l-.07-1.01c-.15-2.17-.34-4.92-.94-6.28-.54-1.24-2.27-2.57-3.66-3.37-.4-.23-.78-.46-1.07-.64l-1.42-.02-1.79 3.46-1.79-.89 1.3-2.59h-.43c-.29.21-.76.49-1.26.78-1.41.82-3.01 2.09-3.54 3.28-.6 1.36-.79 4.11-.94 6.28l-.07 1.01c-.03.43-.07.6-.11.82-.04.21-.08.45-.14.93-.07.6-.44 1.79-1.81 4.05-.46.75-.56 1.64-.26 2.38.38.93 1.21 1.51 2.17 1.51h16c.96 0 1.79-.58 2.17-1.51.3-.73.2-1.62-.26-2.38Z"/></svg>
