<svg xmlns="http://www.w3.org/2000/svg" viewBox="0 0 48 48"><title>Afvalkalender</title><path d="M19.02 23h9.99l-1.36 11.62c-.06.78-.71 1.38-1.49 1.38h-2.98c.41-.71.57-1.58.23-2.53a2.95 2.95 0 0 0-1.91-1.83c-.93-.29-1.81-.11-2.5.33l.02-8.97ZM39 9v28.5c0 2.48-2.02 4.5-4.5 4.5l-21.01-.04c-2.47 0-4.48-2.02-4.48-4.5L9.03 9l4.98.02V12h2l.03-6h2.97v3l8 .02V12h2V6h3v3h7Zm-3 6H12v22.5c0 .83.67 1.5 1.49 1.5l21.01.04c.83 0 1.5-.67 1.5-1.5V15ZM20.5 33c-.83 0-1.5.67-1.5 1.5s.67 1.5 1.5 1.5 1.5-.67 1.5-1.5-.67-1.5-1.5-1.5ZM31 19h-1.94c0-.55-.45-1-1-1h-8.03c-.56 0-1.02.46-1.02 1.02L18 19v2l13-.03V19Z"/></svg>
