<svg xmlns="http://www.w3.org/2000/svg" viewBox="0 0 48 48"><title>Afval scheiden</title><path d="M25.59,6.27h-.02c-.46-.17-.95-.27-1.47-.27-.47,0-.92,.09-1.35,.23-.03,0-.05,.02-.08,.02-1.78,.6-3.07,2.26-3.07,4.25,0,2.49,2.01,4.5,4.5,4.5s4.5-2.01,4.5-4.5c0-1.96-1.26-3.61-3.01-4.23Zm-1.49,6.73c-1.38,0-2.5-1.12-2.5-2.5,0-.21,.03-.41,.08-.6,.3,.07,.61,.11,.93,.11,1.25,0,2.37-.52,3.18-1.34,.49,.46,.81,1.1,.81,1.83,0,1.38-1.12,2.5-2.5,2.5Zm-6.97,27.15l.87-12.15H8v2l1,12h6.15c1.05,0,1.91-.81,1.99-1.85Zm12.01,0l.86-11.15c0-1.1-.9-2-2-2h-8v2l1,13h6.15c1.04,0,1.91-.8,1.99-1.85Zm12-.01l.86-11.14c0-1.1-.9-2-2-2h-8v2l1,13h6.14c1.05,0,1.93-.81,2.01-1.86ZM12.73,19.34h0c-.96-.55-2.18-.22-2.73,.73l-4,6.93,1.73,1,5-8.66Zm17.27,4.66h-10v-3.67l-2.82,5.67h-3.18l3.75-8.08c.64-1.28,1.83-1.92,3.25-1.92h6.1c1.59,0,2.88,1.29,2.89,2.88l.02,5.12Z"/></svg>
