<svg xmlns="http://www.w3.org/2000/svg" viewBox="0 0 48 48"><title>Agenda</title><path d="M32.01 9V5.99h-2.99v6h-1.99V9.04l-7.99-.02V6h-3l-.03 5.99H14V9.02L9.01 9l-.02 28.47c0 2.48 2.02 4.5 4.5 4.5l21.02.04c2.48 0 4.5-2.02 4.5-4.5V9h-7Zm4 28.52c0 .83-.67 1.5-1.5 1.5l-21.02-.04c-.83 0-1.5-.67-1.5-1.5V14.99h24.02v22.53Zm-3-16.53h-4v-3h4v3Zm-7 7h-4v-3h4v3Zm7 7h-4v-3h4v3Zm0-7h-4v-3h4v3Zm-7-7h-4v-3h4v3Zm-7 14h-4v-3h4v3Zm0-7h-4v-3h4v3Zm0-7h-4v-3h4v3Zm4.33 15-2.83-2.83 1.42-1.41 1.42 1.41 3.17-3.17 1.41 1.41-4.59 4.59Z"/></svg>
