<svg xmlns="http://www.w3.org/2000/svg" viewBox="0 0 48 48"><title>Agenda</title><path d="M33.01 20.99h-4v-3h4v3Zm-7-3h-4v3h4v-3Zm7 14h-4v3h4v-3Zm-7-7h-4v3h4v-3Zm7 0h-4v3h4v-3Zm6-15.99v28.52c0 2.48-2.02 4.5-4.5 4.5l-21.02-.04c-2.48 0-4.5-2.02-4.5-4.5l.02-28.47 4.99.02V12h2.01l.03-5.99h3v3.02l7.99.02V12h1.99V6h3v3.01h6.99Zm-3 5.99H12v22.48c0 .83.67 1.5 1.49 1.5l21.02.04c.83 0 1.5-.67 1.5-1.5V14.99ZM27.93 31.4l-1.41-1.41-3.17 3.17-1.42-1.41-1.42 1.41 2.83 2.83 4.59-4.59Zm-8.92.59h-4v3h4v-3Zm0-14h-4v3h4v-3Zm0 7h-4v3h4v-3Z"/></svg>
