<svg xmlns="http://www.w3.org/2000/svg" viewBox="0 0 48 48"><title>Auto</title><path d="M13.5 25.12c-1.38 0-2.5 1.1-2.5 2.46s1.12 2.46 2.5 2.46 2.5-1.1 2.5-2.46-1.12-2.46-2.5-2.46ZM19 26.04h10v2.95H19z"/><path d="M42.01 18.88v-1.67c0-.63-.51-1.14-1.14-1.14h-1.61l-1.59-4.91c-.6-1.82-2.31-3.05-4.26-3.06H14.69c-1.94 0-3.65 1.24-4.25 3.06l-1.65 4.91H7.14c-.63 0-1.14.51-1.14 1.14v1.67c0 .63.51 1.14 1.14 1.14h.32L6.01 23V38.4c0 .89.72 1.61 1.61 1.61h2.79c.89 0 1.61-.72 1.61-1.61v-3.39h24v3.39c0 .89.72 1.61 1.61 1.61h2.79c.89 0 1.61-.72 1.61-1.61V23.01l-1.45-2.98h.32c.63 0 1.14-.51 1.14-1.14ZM13.28 12.1c.2-.6.77-1 1.42-1.01h18.71c.65 0 1.22.41 1.42 1l2.6 8.02c-.14-.01-.28-.04-.42-.04l-25.99-.02c-.14 0-.27.03-.41.04l2.68-7.99ZM39.01 23v9.05H8.96L9.01 23h30Z"/><path d="M34.43 25.08c-1.38 0-2.5 1.1-2.5 2.46S33.05 30 34.43 30s2.5-1.1 2.5-2.46-1.12-2.46-2.5-2.46Z"/></svg>
