<svg xmlns="http://www.w3.org/2000/svg" viewBox="0 0 48 48"><title>Begroting</title><path d="M30,20H14v-2H30v2Zm-4,19h-7v-8H11l-.02-22h22.02v14c.86-.24,1.76-.37,2.68-.37,.11,0,.22,.02,.32,.02V9c0-1.66-1.34-3-3-3H11c-1.66,0-3,1.34-3,3v23.96l8.97,9.04h11.67c-1.64-1-2.64-3-2.64-3Zm4-26H14v2H30v-2ZM14,25h9v-2H14v2Zm24.48,14.36c-.83,.41-1.76,.64-2.74,.64-2.25,0-4.22-1.2-5.32-3h4.11l.91-2h-5.81c-.08-.4-.12-.81-.12-1.24,0-.26,.02-.51,.05-.76h6.79l.91-2h-7.1c1.02-2.05,3.14-3.47,5.58-3.47,1,0,1.95,.24,2.79,.67l.83-1.82c-1.09-.54-2.32-.85-3.62-.85-3.57,0-6.61,2.29-7.75,5.47h-1.99v2h1.54c-.02,.25-.04,.51-.04,.76,0,.42,.04,.83,.1,1.24h-1.6v2h2.16c1.26,2.94,4.18,5,7.57,5,1.53,0,3.06-.44,4.29-1.16l-1.55-1.48Z"/></svg>
