<svg xmlns="http://www.w3.org/2000/svg" viewBox="0 0 48 48"><title>Begroting</title><path d="M27.87 38.97h-8.83v-8.01h-8l-.02-22h22.04v17.52a9.08 9.08 0 0 1 2.92-.49h.08V8.96c0-1.66-1.34-3-3-3H11.02c-1.66 0-3 1.34-3 3v24l8.95 8.95 13.28.04c-.79-.66-1.87-1.7-2.38-2.99Z"/><path d="M13.96 22.93h9.37v2h-9.37zM13.96 17.96h16v2h-16zM13.96 12.9h16v2h-16zM38.83 38.81c-.7.66-1.71.99-2.87.99-1.61 0-3.06-.72-3.82-2.23h3.32l.85-1.82h-4.67c-.02-.14-.04-.39-.04-.76 0-.33.02-.56.04-.72h5.29l.87-1.8h-5.68c.76-1.59 2.27-2.33 3.86-2.33 1.01 0 1.9.23 2.58.72l.95-1.92c-.93-.64-2.09-.95-3.53-.95-2.77 0-5.45 1.59-6.44 4.48H27.6v1.8h1.59c-.02.21-.04.41-.04.74 0 .27.02.56.04.74H27.6v1.82h1.96c.99 2.85 3.61 4.42 6.4 4.42 1.65 0 3.06-.58 4.03-1.4l-1.16-1.78Z"/></svg>
