<svg xmlns="http://www.w3.org/2000/svg" viewBox="0 0 48 48"><title>Begroting</title><path d="M30 20H14v-2h16v2Zm-16 5h9v-2h-9v2Zm16-12H14v2h16v-2Zm8.83 24.98-.38.26c-1.92 1.3-4.29.94-5.89-.89-.35-.4-.62-.86-.86-1.34H37v-2h-5.92c-.09-.66-.1-1.34 0-2h5.93v-2H31.7c.22-.44.47-.87.79-1.26 1.58-1.88 4.03-2.28 5.96-.98l.37.25 1.17-1.62-.43-.29c-2.81-1.89-6.35-1.34-8.61 1.35-.63.75-1.11 1.62-1.43 2.54H27v2h2.08a9.55 9.55 0 0 0 0 2h-2.07v2h2.52c.34.97.85 1.88 1.53 2.66 1.35 1.54 3.14 2.35 4.96 2.35 1.22 0 2.45-.36 3.56-1.11l.44-.3-1.17-1.62Zm-9.28 2c-.27-.31-.52-.63-.74-.97h-9.8v-8h-8l-.02-22h22.02v14.58c.96-.38 1.98-.57 3-.57V9.01c0-1.66-1.34-3-3-3H11c-1.66 0-3 1.34-3 3v23.96l8.97 9.04h15.14c-.95-.5-1.82-1.18-2.57-2.03Z"/></svg>
