<svg xmlns="http://www.w3.org/2000/svg" viewBox="0 0 48 48"><title>Begraafplaats</title><path d="M14 25h6v2h-6zM36.77 26.04v-6.63c.41.03.86.06 1.37.06 2.13 0 3.86-1.75 3.86-3.89 0-1.18-.5-2.03-.93-2.53l-.52-.62.46-.67c.72-1.06.78-2.28.18-3.11-.43-.59-1.13-.91-1.97-.91-.35 0-.7.06-1.05.17l-.7.22-.46-.58C36.25 6.58 35.17 6 34.12 6c-.53 0-1.02.16-1.42.45-.41.3-.7.73-.86 1.28l-.23.77h-.91c-1.8.04-3.27 1.56-3.27 3.38 0 1.12.55 2.16 1.46 2.79l.76.52-.4.83c-.17.35-.26.7-.26 1.05 0 1.32 1.06 2.4 2.37 2.4.93 0 1.62-.07 2.17-.22h.12v1.93l-.18 2.26-.07 1.86c-1.78-.26-3.58-.36-5.39-.31v2.82c4.83-.15 9.61.9 14 3.11v-2.96c-1.63-.78-3.3-1.4-5-1.87l-.23-.05ZM15 29h4v2h-4zM33.17 31.37c-1.65-1-3.38-1.73-5.17-2.2v3.13c1.24.39 2.45.93 3.61 1.64 3.1 1.88 5.6 4.72 7.1 8.06h3.26a21.321 21.321 0 0 0-8.81-10.63Z"/><path d="M26 35V21.5c0-.83-.67-1.5-1.5-1.5h-1.81c-1.54-1.25-3.5-2-5.64-2s-4.1.75-5.64 2H9.5c-.82 0-1.49.67-1.49 1.49V35c-1.13.42-1.99 1.48-2 2.75V39h21.98v-1.26c0-1.25-.9-2.3-1.99-2.74Zm-3-1H11V23h1.41l.74-.59c.78-.63 1.68-1.11 2.67-1.29 1.83-.34 3.59.1 4.97 1.22l.82.66h1.38v11Z"/></svg>
