<svg xmlns="http://www.w3.org/2000/svg" viewBox="0 0 48 48"><title>Betaaldatums uitkering</title><path d="M23,21h-4v-3h4v3Zm-4,7h4v-3h-4v3Zm7,0h3.39c.19-.28,.4-.53,.61-.79v-2.21h-4v3Zm2.94,11h-2.94l-15.5-.04c-.83,0-1.5-.67-1.5-1.5V15h24v9.77c.93-.5,1.94-.86,3-1.06V9h-6v-3h-3v6h-2v-3l-9-.02v-2.98h-3l-.02,6h-1.98v-3l-5-.02-.02,28.51c0,2.48,2.02,4.51,4.51,4.51l21.02,.04c.07,0,.14-.02,.21-.02-1.1-.8-2.05-1.82-2.76-3.02Zm1.06-21h-4v3h4v-3Zm-14,0h-4v3h4v-3Zm-4,17h4v-3h-4v3Zm4-10h-4v3h4v-3Zm5.22,11.09l4.59-4.59-1.41-1.41-3.17,3.17-1.42-1.41-1.42,1.41,2.83,2.83Zm19.25,3.27c-.83,.41-1.76,.64-2.74,.64-2.25,0-4.22-1.2-5.32-3h4.11l.91-2h-5.73c-.08-.4-.12-.81-.12-1.24,0-.26,.02-.51,.05-.76h6.79l.91-2h-7.1c1.02-2.05,3.14-3.47,5.58-3.47,1,0,1.95,.24,2.79,.67l.83-1.82c-1.09-.54-2.32-.85-3.62-.85-3.57,0-6.61,2.29-7.75,5.47h-2.07v2h1.54c-.02,.25-.04,.51-.04,.76,0,.42,.04,.83,.1,1.24h-1.6v2h2.16c1.26,2.94,4.18,5,7.57,5,1.53,0,2.95-.43,4.18-1.15l-1.44-1.49Z"/></svg>
