<svg xmlns="http://www.w3.org/2000/svg" id="ICONEN" viewBox="0 0 48 48"><title>Computerregeling</title><defs><style>.cls-1{stroke-width:0}</style></defs><path d="m22.03 16.91-4-.96-4-.97.97 4 .97 4 2.02-2.02 3.99 3.99L24 22.93l-3.99-3.99 2.02-2.03z" class="cls-1"/><path d="M42.01 36.49c0-.65-.41-1.21-.99-1.42-.02 0-5.02-2.01-5.02-2.01 1.48 0 3-1.48 3-3.02V13c0-1.66-1.34-3-3-3H12c-1.66 0-3 1.34-3 3v17.03c0 1.54 1.53 3.02 3 3.02 0 0-5 2.01-5.02 2.01-.58.22-.99.77-.99 1.42L6 37.99h36l.01-1.51ZM12 30V13h24v17H12Z" class="cls-1"/></svg>
