<svg xmlns="http://www.w3.org/2000/svg" viewBox="0 0 48 48"><title>Eikenprocessie</title><path d="M40.61 21c.83 0 1.5-.67 1.5-1.5s-.67-1.5-1.5-1.5H38v-2h2.44c.82 0 1.49-.67 1.49-1.5s-.67-1.5-1.49-1.5h-2.7l-.2-.47 2.45-2.46c.59-.59.59-1.54 0-2.13s-1.54-.59-2.12 0l-2.48 2.5-.39-.16V7.49c0-.83-.67-1.51-1.5-1.51S32 6.66 32 7.49v2.8l-.4.17L29.15 8c-.59-.59-1.54-.59-2.12 0s-.59 1.54 0 2.13l2.45 2.46-.17.42H26.5c-.82 0-1.49.67-1.49 1.5s.67 1.5 1.49 1.5H29v2h-2.47c-.83 0-1.5.67-1.5 1.5s.67 1.5 1.5 1.5h2.6a8.204 8.204 0 0 1-1.43 4.5l-2.08-2.08c-.59-.59-1.54-.59-2.13 0-.59.59-.59 1.54 0 2.13l2.08 2.08c-1.3.9-2.88 1.42-4.57 1.44v-2.52c0-.83-.67-1.5-1.5-1.5s-1.5.67-1.5 1.5v2.45h-2v-2.64c0-.85-.67-1.54-1.5-1.54s-1.5.69-1.5 1.54v2.82c-.14.05-.29.1-.43.17l-2.41-2.47c-.59-.6-1.54-.6-2.13 0s-.59 1.58 0 2.18l2.4 2.45c-.08.16-.14.32-.2.49H7.45c-.81 0-1.47.67-1.47 1.5s.66 1.5 1.47 1.5h2.76c.06.19.13.37.21.54l-2.43 2.49c-.59.6-.59 1.58 0 2.18a1.5 1.5 0 0 0 2.14 0l2.44-2.5c.14.07.29.13.45.18v2.81c0 .85.67 1.54 1.5 1.54s1.5-.69 1.5-1.54v-2.7h2v2.63c0 .83.67 1.5 1.5 1.5s1.5-.67 1.5-1.5v-2.51c.81 0 1.6-.08 2.37-.19l.66 2.46c.18.68.79 1.12 1.46 1.12.13 0 .26-.02.39-.05.8-.21 1.28-1.04 1.07-1.85l-.63-2.37c.54-.18 1.08-.38 1.59-.62l1.19 2.07c.28.48.79.76 1.31.76.36 0 .72-.13 1.03-.4.54-.48.6-1.31.24-1.93l-1.12-1.94c.51-.34.99-.72 1.46-1.11l1.74 1.74c.29.29.68.44 1.07.44.51 0 1.02-.25 1.31-.76.35-.6.19-1.38-.31-1.87l-1.68-1.68c.38-.45.74-.92 1.07-1.41l1.99 1.15a1.512 1.512 0 0 0 2.22-.97c.17-.66-.19-1.34-.78-1.68l-1.98-1.14c.23-.52.44-1.06.62-1.6l2.33.62a1.516 1.516 0 0 0 1.9-1.54c-.02-.67-.54-1.22-1.18-1.39l-2.35-.63c.11-.77.19-1.55.19-2.34h2.43ZM20.72 35h-6.33c-.83 0-1.5-.67-1.5-1.5s.67-1.5 1.5-1.5h6.46C27 32 32 27 32 20.85l-.04-6.35c0-.83.66-1.5 1.49-1.5h.05c.83 0 1.5.67 1.5 1.49l.04 6.35c0 7.81-6.43 14.16-14.32 14.16Zm-7.71-14.98c-3.87 0-7-3.13-7-7s3.13-7 7-7 7 3.13 7 7-3.13 7-7 7M12 14h2V9h-2v5Zm0 2.02c0 .29.09.53.28.72.19.19.43.28.72.28s.54-.09.72-.28c.19-.19.28-.43.28-.72s-.09-.53-.28-.72c-.19-.19-.43-.28-.72-.28s-.54.09-.72.28c-.19.19-.28.43-.28.72Z"/></svg>
