<svg xmlns="http://www.w3.org/2000/svg" viewBox="0 0 48 48"><title>Electrisch rijden</title><path d="M13.49 23.12c-1.38 0-2.5 1.1-2.5 2.46s1.12 2.46 2.5 2.46 2.5-1.1 2.5-2.46-1.12-2.46-2.5-2.46ZM18.99 24.04h10v2.95h-10z"/><path d="M42 16.88v-1.67c0-.63-.51-1.14-1.14-1.14h-1.61l-1.59-4.91c-.6-1.82-2.31-3.05-4.26-3.06H14.67c-1.94 0-3.65 1.24-4.25 3.06l-1.65 4.91H7.12c-.63 0-1.14.51-1.14 1.14v1.67c0 .63.51 1.14 1.14 1.14h.32L5.99 21V36.4c0 .89.72 1.61 1.61 1.61h2.79c.89 0 1.61-.72 1.61-1.61v-3.39h24v3.39c0 .89.72 1.61 1.61 1.61h2.79c.89 0 1.61-.72 1.61-1.61V21.01l-1.45-2.98h.32c.63 0 1.14-.51 1.14-1.14ZM13.26 10.1c.2-.6.77-1 1.42-1.01h18.71c.65 0 1.22.41 1.42 1l2.6 8.02c-.14-.01-.28-.04-.42-.04L11 18.05c-.14 0-.27.03-.41.04l2.68-7.99ZM38.99 21v9.05H8.94L8.99 21h30Z"/><path d="M34.41 23.08c-1.38 0-2.5 1.1-2.5 2.46S33.03 28 34.41 28s2.5-1.1 2.5-2.46-1.12-2.46-2.5-2.46ZM22 35v3h-6v1l10 3v-3h6v-1l-10-3z"/></svg>
