<svg xmlns="http://www.w3.org/2000/svg" viewBox="0 0 48 48"><title>Elektrisch rijden</title><path d="m21.99 34.9 10 3v1h-6v3l-10-3v-1h6v-3Zm7-10.96h-10v2.95h10v-2.95Zm2.93 1.49c0-1.35 1.12-2.46 2.5-2.46s2.5 1.1 2.5 2.46-1.12 2.46-2.5 2.46-2.5-1.1-2.5-2.46Zm10.09-8.65v-1.67c0-.63-.51-1.14-1.14-1.14h-1.61l-1.59-4.91c-.6-1.82-2.31-3.05-4.26-3.06H14.67c-1.94 0-3.65 1.24-4.25 3.06l-1.65 4.91H7.12c-.63 0-1.14.51-1.14 1.14v1.67c0 .63.51 1.14 1.14 1.14h.32L5.99 19.9v16.39c0 .89.72 1.61 1.61 1.61h2.79c.89 0 1.61-.72 1.61-1.61V32.9h24v3.39c0 .89.72 1.61 1.61 1.61h2.79c.89 0 1.61-.72 1.61-1.61V19.9l-1.45-1.98h.32c.63 0 1.14-.51 1.14-1.14ZM13.27 9.91c.2-.6.77-1 1.42-1.01H33.4c.65 0 1.22.41 1.42 1l2.6 8.12L10.59 18l2.68-8.09ZM39 29.96H8.94l.05-9.05h30v9.05Zm-28-4.47c0-1.35 1.12-2.46 2.5-2.46s2.5 1.1 2.5 2.46-1.12 2.46-2.5 2.46-2.5-1.1-2.5-2.46Z"/></svg>
