<svg xmlns="http://www.w3.org/2000/svg" viewBox="0 0 48 48"><title>Enquete</title><path d="M40.49 30 22 30.02l-8.09 5.13a1 1 0 0 0 0 1.69l8.07 5.15h18.53c.83 0 1.5-.67 1.5-1.5V31.5c0-.83-.68-1.51-1.51-1.51ZM22 38.91l-3-1.92v-1.96l3-1.98v5.87ZM39 39H25v-6h14v6ZM16 25h8v2h-8v-2Zm12-2H16v-2h12v2Zm0-4H16v-2h12v2Zm-16 6h2v2h-2v-2Zm2-2h-2v-2h2v2Zm0-4h-2v-2h2v2Zm-2 20 4.31 3.01H7.5C6.67 42 6 41.33 6 40.5v-29c0-.83.67-1.5 1.5-1.5H12v3H9v26h3Zm19-26h-3v-3h4.51c.82 0 1.49.67 1.49 1.49v15.52h-3v-14Zm-17-1v-2c0-.55.45-1 1-1h2c0-1.66 1.34-3 3-3s3 1.34 3 3h2c.55 0 1 .45 1 1v2c0 .55-.45 1-1 1H15c-.55 0-1-.45-1-1Z"/></svg>
