<svg xmlns="http://www.w3.org/2000/svg" id="ICONEN" viewBox="0 0 48 48"><title>Erfpacht</title><defs><style>.cls-1{stroke-width:0}</style></defs><path d="M17 38.96h8l-.03 2.97-9.97.03-9-9.12V8.97c0-1.66 1.34-3 3-3h22c1.66 0 3 1.34 3 3v17.25l-1-.73-2 1.42V8.97H8.98l.02 22h8v8Zm24.99-4.47-1.81 2.46-1.21-.89v5.88h-12v-5.88l-1.21.89-1.78-2.41 9.01-6.59 2.97 2.16v-1.29h3.01v3.48l3.02 2.18Zm-7 .46H31v3.5h3.99v-3.5Z" class="cls-1"/><path d="M18.1 17H22v2h-4.6c-.05.32-.08.66-.08 1s.03.68.08 1H22v2h-3.9c.69 1.21 1.78 2 3.02 2 .79 0 1.55-.32 2.2-.93l.73-.68 1.37 1.46-.73.68c-1.02.96-2.26 1.47-3.56 1.47-2.31 0-4.3-1.64-5.23-4h-1.89v-2h1.38c-.04-.33-.07-.66-.07-1s.03-.67.07-1h-1.38v-2h1.89c.93-2.36 2.93-4 5.23-4 1.31 0 2.54.51 3.57 1.47l.73.68-1.37 1.46-.73-.68c-.65-.61-1.41-.93-2.2-.93-1.24 0-2.33.79-3.02 2Z" class="cls-1"/></svg>
