<svg xmlns="http://www.w3.org/2000/svg" viewBox="0 0 48 48"><title>Evenementen</title><path d="m42.04 22.8-1.09-.31c-9.11-2.59-15.66-10.84-15.73-10.93l-1.18-1.51-1.18 1.51c-.06.08-6.61 8.34-15.73 10.93l-1.09.31v6.19h2V41.9l8.62.09h23.33v-13h2.04V22.8Zm-3 2.24v.95h-5.97c-.86-.79-4.62-4.42-6.48-8.64 2.85 2.64 7.18 5.93 12.46 7.69ZM29 38.99H18.98v-10H29v10Zm-4.97-20.01c1.33 2.82 3.27 5.3 4.82 7.01h-9.63c1.53-1.68 3.48-4.17 4.8-7.01Zm-15 6.06c5.27-1.75 9.59-5.04 12.44-7.67-1.99 4.55-6.17 8.35-6.47 8.62H9.03v-.95Zm2 3.95h4.94v9.99l-4.94-.05v-9.94Zm25.96 10h-5v-10h5v10ZM30.02 8.01l-6 2.01v-4l6 1.99Z"/></svg>
