<svg xmlns="http://www.w3.org/2000/svg" viewBox="0 0 48 48"><title>Gebruikersvraag</title><path d="m37 27.98-.02 10.97-3.03.06v2.91L20.03 42V26.99h-.61c-4.53 0-7.43-3.74-7.43-8v-1.95l4 .06v1.89c0 2.09 1.07 4 3.43 4h12.57c2.81 0 5 2.19 5 5ZM13.5 14a2.5 2.5 0 0 1 0-5h.48L14 7c0-.55.45-1 1-1s1 .45 1 1v7h-2.51ZM27 6c-4.42 0-8 3.58-8 8s3.58 8 8 8 8-3.58 8-8-3.58-8-8-8Zm0 13c-2.64 0-4.79-2.07-4.97-4.67.21-1.67 1.7-1.63 3.82-1.66 1.67-.02 3.79-.06 5.08-1.72a4.92 4.92 0 0 1 1.06 3.04c0 2.76-2.24 5-5 5Z"/></svg>
