<svg xmlns="http://www.w3.org/2000/svg" viewBox="0 0 48 48"><title>Gebruiker centraal</title><path d="M28.99 23H18.98C16 23 15 24.01 14.01 28.01l-.95 4.27 4.8-3.36 2.4 3.82-3.25 2.28v6.99h14v-3h3l.02-10.97c0-2.83-2.2-5.03-5.03-5.03Zm-4.67 3.05-1.59 1.15.57.81c.64.97.67 2.41-.3 3.13-.48.36-.8.61-1.12.72l-2.55-4.06 4.11-2.97a.753.753 0 0 1 .88 1.22Zm-.36-4.02c4.41 0 8.01-3.59 8.01-8.01s-3.59-8.01-8.01-8.01-8.01 3.59-8.01 8.01 3.59 8.01 8.01 8.01Zm-4.75-9.26c.28.03.56.06.84.06 2.23 0 4.25-.86 5.78-2.25.05.06.09.12.15.17.78.78 1.68 1.34 2.64 1.72.16.49.27 1 .27 1.55 0 2.72-2.21 4.93-4.93 4.93s-4.93-2.21-4.93-4.93c0-.43.07-.85.18-1.25Z"/></svg>
