<svg xmlns="http://www.w3.org/2000/svg" viewBox="0 0 48 48"><title>Gebruikersvraag</title><path d="M27.03,22.03c4.41,0,8.01-3.59,8.01-8.01s-3.59-8.01-8.01-8.01-8.01,3.59-8.01,8.01,3.59,8.01,8.01,8.01Zm-4.75-9.26c.28,.03,.56,.06,.84,.06,2.23,0,4.25-.86,5.78-2.25,.05,.06,.09,.12,.15,.17,.78,.78,1.68,1.34,2.64,1.72,.16,.49,.27,1,.27,1.55,0,2.72-2.21,4.93-4.93,4.93s-4.93-2.21-4.93-4.93c0-.43,.07-.85,.18-1.25Z"/><path d="M32,22.98h-12.57c-2.36,0-3.43-1.91-3.43-4v-1.89l-4-.06v1.95c0,4.26,2.9,8,7.43,8h.61v15.01l13.92-.08v-2.91l3.03-.06,.02-10.97c0-2.81-2.19-5-5-5Z"/><path d="M13.54,14s.02,0,.03,0h2.44V7c0-.55-.44-1-1-1s-1,.45-1,1l-.02,2s-.37,0-.48,0c-1.38,0-2.5,1.12-2.5,2.5s1.12,2.5,2.5,2.5c.01,0,.02,0,.04,0Z"/></svg>
