<svg xmlns="http://www.w3.org/2000/svg" viewBox="0 0 48 48"><title>Gemeenteraad</title><path d="M37.1 19.86c1.61 0 2.92-1.31 2.92-2.92s-1.31-2.92-2.92-2.92-2.92 1.31-2.92 2.92 1.31 2.92 2.92 2.92ZM24.04 21.99c4.41 0 8.01-3.59 8.01-8.01s-3.59-8.01-8.01-8.01-8.01 3.59-8.01 8.01 3.59 8.01 8.01 8.01Zm-4.75-9.26c.28.03.56.06.84.06 2.23 0 4.25-.86 5.78-2.25.05.06.09.12.15.17.78.78 1.68 1.34 2.64 1.72.16.49.27 1 .27 1.55 0 2.72-2.21 4.93-4.93 4.93s-4.93-2.21-4.93-4.93c0-.43.07-.85.18-1.25ZM39.48 21h-4.87c-.77 0-1.48.4-1.95.98 2.02 1.23 3.33 3.44 3.33 6.01V29h5.97l.03-5.5c0-1.33-1.19-2.5-2.52-2.5ZM11.1 19.86c1.61 0 2.92-1.31 2.92-2.92s-1.31-2.92-2.92-2.92-2.92 1.31-2.92 2.92 1.31 2.92 2.92 2.92ZM28.95 23c-.66 2.16-1.9 4.22-3.01 6.02L25 26l1-1v-2h-4v2l1 1-1.07 3.02c-1.12-1.81-2.34-3.84-3.01-6.02l-.17-.04c-2.67.15-4.76 2.28-4.76 5V39h3v3h14v-3h3.05l-.05-11.05c0-2.78-2.3-4.88-5.05-4.95ZM15.38 21.99c-.47-.59-1.18-.99-1.96-.99H8.54c-1.34 0-2.53 1.17-2.53 2.5V29h5.98l.04-.99c0-2.58 1.32-4.79 3.35-6.02Z"/></svg>
