<svg xmlns="http://www.w3.org/2000/svg" viewBox="0 0 48 48"><title>Gemeenteraadsvergadering</title><path d="M23.89 12c1.65 0 3-1.35 3-3s-1.35-3-3-3-3 1.35-3 3 1.35 3 3 3Zm-7.9 25.49v3.89c-3.82-.6-7.24-1.62-10.01-2.95v-.95c0-1.64 1.23-2.91 2.84-3h4.22c1.66.03 2.94 1.33 2.94 3ZM7.99 15c0-1.65 1.35-3 3-3s3 1.35 3 3-1.35 3-3 3-3-1.35-3-3Zm26 0c0-1.65 1.35-3 3-3s3 1.35 3 3-1.35 3-3 3-3-1.35-3-3Zm7 11c-1.9-1.78-5.87-3.22-9-4.18.3-1.27 1.39-2.2 2.75-2.28h3.31c1.66.03 2.94 1.33 2.94 3V26Zm-4 1c1.65 0 3 1.35 3 3s-1.35 3-3 3-3-1.35-3-3 1.35-3 3-3Zm-13 1.05c1.65 0 3 1.35 3 3s-1.35 3-3 3-3-1.35-3-3 1.35-3 3-3Zm5 10.49v3.22a54.256 54.256 0 0 1-10 0v-3.22c0-1.64 1.23-2.91 2.84-3h4.22c1.66.03 2.94 1.33 2.94 3Zm13-1.05v.95c-2.75 1.32-6.14 2.33-9.93 2.93a.946.946 0 0 1-.08-.37v-3.51c0-1.64 1.23-2.91 2.84-3h4.22c1.66.03 2.94 1.33 2.94 3ZM7.99 30c0-1.65 1.35-3 3-3s3 1.35 3 3-1.35 3-3 3-3-1.35-3-3Zm8-8.18c-3.13.96-7.1 2.4-9 4.18v-3.46c0-1.67 1.28-2.97 2.94-3.01h3.31a3 3 0 0 1 2.75 2.29Zm4-1.04c-.35.04-.67.06-1.01.12v-4.41c0-1.64 1.23-2.91 2.84-3h4.22c1.66.03 2.94 1.33 2.94 3v4.41c-1.6-.24-3.26-.39-5-.39-.57 0-1.12.04-1.67.07l1.57-3.13a.993.993 0 0 0-.45-1.34c-.49-.24-1.09-.05-1.34.45l-2.1 4.23Z"/></svg>
