<svg xmlns="http://www.w3.org/2000/svg" viewBox="0 0 48 48"><title>Grofvuil</title><path d="M31 15.03h5L33.97 6H25l-2 9.03h5V39h-3v3h3v.03h3V42h3v-3h-3V15.03Zm-4.26-3L27.41 9h4.16l.68 3.03h-5.51Zm-.76 25.69-15.23 1.23c-2.25-.09-4.16-1.82-4.33-4.1 0 0-.33-4.1-.33-4.13-.15-1.94.99-3.67 2.67-4.44l-.22-2.79c-.19-2.44 1.65-4.6 4.09-4.79l13.35-1.05v3.01l-4.76.37-1.1 2.09 2.41-.19-2.6 5.22-2.46.19 1.65-3.14-2.41.19 2.08-4.18-5.9.46c-.81.06-1.43.78-1.36 1.6l.21 2.72c1.76.42 3.16 1.86 3.31 3.85l.06.68 10.86-.84v2.99l-13.63 1.06-.29-3.54c-.06-.82-.8-1.41-1.61-1.35-.81.06-1.43.79-1.36 1.6l.32 4.04c.06.82.79 1.44 1.61 1.37l14.97-1.18v3.01Zm12.38-.98.16 2.02-2.99.24-.16-1.99-2.37.19v-3.01l4.63-.36c.82-.06 1.44-.79 1.37-1.61l-.32-4.05c-.06-.82-.79-1.44-1.6-1.37s-1.45.77-1.39 1.59l.27 3.57-2.96.24v-5.63a4.303 4.303 0 0 1 2.36-2.36l-.22-2.73c-.06-.81-.78-1.43-1.6-1.36l-.55.04v-3.01l.34-.03c2.44-.19 4.6 1.65 4.79 4.09l.22 2.77c1.78.49 3.17 2.01 3.32 3.92 0 .03.31 4.1.31 4.1.18 2.3-1.42 4.32-3.63 4.76Z"/></svg>
