<svg xmlns="http://www.w3.org/2000/svg" viewBox="0 0 48 48"><title>Hondenbelasting</title><path d="m6.08 32.32 2.63 1.44 2.7-4.68 8.76 4.24c.19-1.01.55-1.96 1.06-2.82l-11.09-5.37-4.07 7.19Z"/><circle cx="27.52" cy="12.59" r="1.5"/><path d="M28.94 28c-3.87 0-7 3.13-7 7s3.13 7 7 7 7-3.13 7-7-3.13-7-7-7Zm.54 11.32c-1.69 0-3.28-.95-3.88-2.68h-1.19v-1.1h.96c-.01-.11-.03-.29-.03-.45 0-.2.01-.33.03-.45h-.96v-1.09h1.18c.6-1.75 2.23-2.72 3.91-2.72.88 0 1.58.19 2.14.58l-.58 1.17c-.41-.3-.95-.44-1.57-.44-.96 0-1.88.45-2.34 1.42h3.45l-.53 1.09h-3.21c-.01.1-.03.24-.03.44 0 .23.01.38.03.46h2.83l-.51 1.1h-2.02c.46.91 1.34 1.35 2.32 1.35.7 0 1.32-.2 1.74-.6l.7 1.08c-.59.5-1.44.85-2.44.85ZM41.59 12.86c-.3-.47-1.03-1.27-2.57-1.27h-5.37l-.69-2.41-.05-.15c-.69-1.7-2.53-2.92-4.37-2.92h-7.03c-1.14 0-2.34.77-2.84 1.82L11 23.28l6.85 3.38c1.4.67 3.02.57 4.33-.25s2.1-2.24 2.11-3.79v-.16l-2.15-10.27-2.16 4.32 1.31 6.23c-.04.47-.29.88-.7 1.13-.44.28-.97.31-1.43.09l-4.13-2.04 4.28-8.57.94-1.89 1.1-2.2c.04-.06.16-.15.15-.16h7.02c.6.01 1.32.47 1.57 1.01l1.28 4.49h5.16c.07.23.17.45.3.66.29.46.72.79 1.19 1.01l-.89 1.69c-.74 1.58-2.41 2.64-4.14 2.64h-3.1l-1.7 5.45c.27-.02.53-.04.8-.04.78 0 1.53.11 2.26.3l.85-2.7h.9c2.92 0 5.61-1.71 6.83-4.3l1.8-3.42c.5-1.05.47-2.18-.06-3.01Z"/></svg>
