<svg xmlns="http://www.w3.org/2000/svg" viewBox="0 0 48 48"><title>Huis en omgeving</title><path d="M15.34 40.56c.23-.29 5.66-7.05 6.77-12.37.05-.19.08-.38.13-.65l.02-.14c.06-.42.09-.78.09-1.13 0-4.51-3.67-8.17-8.17-8.17s-8.17 3.67-8.17 8.17c0 .35.03.71.08 1.13l.03.22c.03.19.07.39.11.53 1.12 5.36 6.55 12.12 6.78 12.41L14.18 42l1.17-1.44Zm4-14.29c0 .24-.02.48-.06.72l-.02.13c-.02.12-.05.25-.08.41-.68 3.26-3.42 7.39-5.01 9.59-1.59-2.2-4.33-6.34-5.02-9.64-.03-.12-.05-.24-.07-.37l-.02-.13c-.03-.24-.06-.47-.06-.72 0-2.85 2.32-5.17 5.17-5.17s5.17 2.32 5.17 5.17Zm-5.17-3.2c-1.66 0-3 1.34-3 3s1.34 3 3 3 3-1.34 3-3-1.34-3-3-3ZM33 16h1v4h-6v-4h5Zm-10 .37v5.44c.63 1.27 1 2.69 1.04 4.19H39v-9.66l.98 1.04 1.95-2.4L39 12.36V8h-3v1.91L30.93 5.8l-11 9.15 1.97 2.37 1.1-.96Zm3-2.43 4.95-4.1 5.05 4.1v9.07H26v-9.07Zm7.94 28.07h-3.53c-1.97-2.57-4.94-4.98-9.36-5.77l-.54-.1c.52-.88 1.04-1.82 1.5-2.78l.13.03c5.93 1.25 9.59 5.05 11.8 8.61ZM42 33.63v3.66c-2.75-2.03-9.16-5.87-18.79-6.27h-.18c.31-.84.57-1.66.74-2.47.04-.16.07-.33.1-.5 8.5.45 14.58 3.32 18.12 5.58Z"/></svg>
