<svg xmlns="http://www.w3.org/2000/svg" viewBox="0 0 48 48"><title>Huiselijk geweld</title><path d="m33.86 8.01-2.33 4h3.85l-5.21 8h-2.05l1.94-5h-2.79l2.04-7h4.56m-7.26 10.36.53-1.36h-2.09l1.56 1.36Zm1.36 9.65h-8v6h8v-6Zm-6.51-10.69.21.73 2.28-2 .74.64.66-2.25.26-.91-1.67-1.45-3.2 2.8.71 2.44Zm14.51 5.22v-5.53h-1.46l-1.54 2.36v.56l-.23-.2-.89 1.36-.59.91h-.46l2.17 1.89v15.12h-18V23.98l-1.67-2.56-5.27 4.61 1.98 2.26 1.98-1.73v15.46h24v-15.5l2.05 1.78 1.97-2.26-4.02-3.49ZM12.94 10.89h4.56l2.04 7h-2.79l1.94 5h-2.05l-5.21-8h3.85l-2.33-4"/></svg>
