<svg xmlns="http://www.w3.org/2000/svg" viewBox="0 0 48 48"><title>In en om uw huis</title><path d="M13.04 28.99h-.81c-2.93-.17-5.14-2.59-4.97-5.39v-.05a5.005 5.005 0 0 1-.05-6.59c.08-.09.15-.18.24-.26-.64-2.21.33-4.65 2.47-5.82a5.07 5.07 0 0 1 1.87-.6C12.65 9.46 13.78 9 15 9s2.37.46 3.22 1.29c1.23.16 2.37.74 3.2 1.65a4.978 4.978 0 0 1 1.13 4.77c.42.42.74.91.98 1.43l-2.49 2.07c0-.74-.38-1.46-1.06-1.88l-1.16-.73.67-1.17c.48-.84.37-1.89-.29-2.6a2.28 2.28 0 0 0-1.7-.73h-.75l-.44-.58c-.64-.84-1.99-.84-2.64 0l-.44.58h-.74c-.4 0-.78.09-1.11.28-1.11.61-1.5 1.98-.87 3.07l.67 1.17-1.16.73c-.2.12-.37.28-.52.45-.82.96-.68 2.38.29 3.17l.69.56-.2.85c-.03.13-.05.26-.06.4-.07 1.24.89 2.3 2.15 2.38H13.93l-.39.32-1.53 1.28 1.04 1.25ZM14 16v5.38l-1.03-1.05-1.42 1.4 2.46 2.49v1.85l2-1.67v-2.11l2.29-2.31-1.42-1.41-.87.88v-3.46h-2Zm1.88 23v-6.58l-.64-.77-1.24-1.5V39h1.88Zm26.1-6.02v6.01h-1.99v-2h-2.02v2h-1.99v-6.01l.99-1.02.99 1.02V35h2.02v-2.02l.99-1.02.99 1.02Zm-8-7.58L34 21h-3l-.02 1.96-5.06-4.11L14.93 28l1.97 2.37 1.1-.95V39h15.99v-9.63l.98 1.03 1.94-2.39-2.93-2.61Zm-3 10.6h-9.99v-9.07l4.94-4.1 5.04 4.1V36Zm-7.79-7.03h5.62v4.02h-5.62v-4.02Zm7.48-15.74.4.3c.22.16.27.48.1.7a3.507 3.507 0 0 0 .72 4.9l.4.3 1.79-2.41-.4-.3a.496.496 0 0 1-.1-.7c1.15-1.55.83-3.75-.72-4.9l-.4-.3-1.79 2.41Z"/></svg>
