<svg xmlns="http://www.w3.org/2000/svg" viewBox="0 0 48 48"><title>Inkomen</title><path d="m23.03 33.35.97 1.5c-.82.7-2 1.18-3.39 1.18-2.35 0-4.56-1.32-5.39-3.72h-1.65v-1.53h1.34c-.02-.16-.03-.4-.03-.63 0-.28.02-.45.03-.63h-1.34v-1.51h1.64c.83-2.44 3.1-3.77 5.43-3.77 1.22 0 2.19.26 2.97.8l-.8 1.62c-.57-.42-1.32-.61-2.17-.61-1.34 0-2.61.63-3.25 1.97h4.78l-.73 1.51h-4.45a4.5 4.5 0 0 0-.03.61c0 .31.02.52.03.64h3.93l-.71 1.53h-2.8c.64 1.27 1.86 1.88 3.22 1.88.97 0 1.83-.28 2.42-.83ZM41.99 26v8.01c0 1.1-.89 1.99-1.99 2h-1.01v2c0 2.2-1.79 3.99-3.99 3.99H8a2 2 0 0 1-2-2V19.99a2 2 0 0 1 2-2h7.01c0-3.3 2.7-5.98 6-5.98 0-3.74 3.43-6.68 7.31-5.86 2.25.48 4.07 2.3 4.55 4.55a6.002 6.002 0 0 1-5.71 7.3H35c2.21 0 4 1.79 4 4v2.02h1a2 2 0 0 1 2 2ZM24 12c0 1.66 1.34 3 3 3s3-1.34 3-3-1.34-3-3-3-3 1.34-3 3Zm-5.99 5.99h6c0-1.65-1.35-2.98-3-2.98s-2.99 1.34-3 2.98ZM36 36.01h-4.93c-1.66 0-3-1.34-3-3V27c0-1.66 1.34-3 3-3H36v-2.01c0-.55-.45-1-1-1H9V39h26.01c.55 0 .99-.44.99-.99v-2ZM39 27h-8.02v6.01H39V27Zm-5 4.5c.83 0 1.5-.67 1.5-1.5s-.67-1.5-1.5-1.5-1.5.67-1.5 1.5.67 1.5 1.5 1.5Z"/></svg>
