<svg xmlns="http://www.w3.org/2000/svg" viewBox="0 0 48 48"><title>Inspraak</title><path d="M22 22.03c4.41 0 8.01-3.59 8.01-8.01S26.42 6.01 22 6.01s-8.01 3.59-8.01 8.01 3.59 8.01 8.01 8.01Zm-4.75-9.26c.28.03.56.06.84.06 2.23 0 4.25-.86 5.78-2.25.05.06.09.12.15.17.78.78 1.68 1.34 2.64 1.72.16.49.27 1 .27 1.55 0 2.72-2.21 4.93-4.93 4.93s-4.93-2.21-4.93-4.93c0-.43.07-.85.18-1.25Zm-9.01 2.22c-1.24 0-2.25-1.26-2.25-2.5S7 9.99 8.24 9.99h1.25V7.74c0-.41.34-.75.75-.75s.75.34.75.75v7.25H8.24ZM14.99 42V27h-.6c-4.51 0-7.4-3.74-7.4-8v-2h4v1.93c0 2.13 1.07 4.08 3.43 4.08h12.63c.78 0 1.5.18 2.15.49l-9.03 9.03c-.5.5-.84 1.13-.99 1.82l-1.82 7.64h-2.37Zm22.28-21.5c-.59-.59-1.55-.59-2.14 0l-13.8 13.83-1.34 6.04c-.21.97.65 1.83 1.61 1.62l6.08-1.32 13.81-13.81c.59-.59.59-1.54 0-2.12l-4.23-4.23Zm1.07 5.28L25.6 38.52l-1.15.27-1.25-1.25.25-1.09h-.02l12.8-12.78 2.11 2.11Z"/></svg>
