<svg xmlns="http://www.w3.org/2000/svg" viewBox="0 0 48 48"><title>Kersbomen</title><path d="M24.85 13.09-9.1 35M22.62 17.07l-5.6 6.44"/><g><path d="m20.71 24.2 2.5-4.69-6.07-11.67-8.11 15.14h1.63l-3.08 6.04h1.9l-2.99 7.02h9.06v3.99h3v-3.99l1.28-3h-8.8l3-7.02-1.53-.06 3.09-5.98-1.56.07 3.07-5.76 2.98 5.76-1.55-.07 2.18 4.22zM39.47 29.02h1.5l-2.86-6.04h1.66L32.04 7.84l-7.98 15.14h1.6l-3.03 6.04h1.87l-2.95 7.01h8.99v3.99h3v-3.99h8.99l-3.07-7.01Zm-13.45 4.01 2.95-7.01-1.5-.07 3.03-5.98-1.53.07 3.02-5.76 2.93 5.76-1.53-.07 2.86 5.98-1.33.07 3.07 7.01H26.02Z"/></g></svg>
