<svg xmlns="http://www.w3.org/2000/svg" viewBox="0 0 48 48"><title>Kind en familie</title><path d="M36 19c0-1.66-1.34-3-3-3h-5.93c-1.66 0-3 1.35-3 3.01 0-1.66-1.34-3.01-3-3.01h-6.06c-1.66 0-3 1.35-3 3.01L12.05 30h2.96v12h6v-7h-2v-5.98c0-1.12.91-2.02 2.02-2.02h5.91c1.14 0 2.06.92 2.06 2.06V35h-2v7h6l-.08-12H36V19Zm-12 6.97c-1.56 0-2.83-1.27-2.83-2.83 0-.3.06-.58.14-.85.18.02.36.04.54.04 1.32 0 2.51-.51 3.41-1.33.03.03.05.07.09.1.37.37.78.64 1.22.85.17.36.27.76.27 1.18 0 1.56-1.27 2.83-2.83 2.83Zm5.5-11.03c2.49 0 4.5-2.01 4.5-4.5 0-1.96-1.26-3.61-3.01-4.23h-.02c-.46-.16-.95-.27-1.47-.27-.47 0-.92.09-1.35.23-.03 0-.05.02-.08.02-1.78.6-3.07 2.26-3.07 4.25 0 2.49 2.01 4.5 4.5 4.5Zm-2.42-5.1c.3.07.61.11.93.11 1.25 0 2.37-.52 3.18-1.34.49.46.81 1.1.81 1.83a2.5 2.5 0 0 1-5 0c0-.21.03-.41.08-.6Zm-8.58 5.1c2.49 0 4.5-2.01 4.5-4.5 0-1.96-1.26-3.61-3.01-4.23h-.02c-.46-.16-.95-.27-1.47-.27-.47 0-.92.09-1.35.23-.03 0-.05.02-.08.02-1.78.6-3.07 2.26-3.07 4.25 0 2.49 2.01 4.5 4.5 4.5Zm-2.42-5.1c.3.07.61.11.93.11 1.25 0 2.37-.52 3.18-1.34.49.46.81 1.1.81 1.83a2.5 2.5 0 0 1-5 0c0-.21.03-.41.08-.6Z"/></svg>
