<svg xmlns="http://www.w3.org/2000/svg" viewBox="0 0 48 48"><title>Klacht</title><path d="M19.46 26.45c.82 0 1.49-.67 1.49-1.5s-.67-1.5-1.49-1.5-1.49.67-1.49 1.5.67 1.5 1.49 1.5Z"/><path d="M24 6.06c-9.93 0-18 8.07-18 18s8.07 18 18 18 18-8.07 18-18-8.07-18-18-18Zm8.39 5.63c2.63 1.78 4.62 4.34 5.7 7.31a6.007 6.007 0 0 1-5.85-6c0-.45.05-.89.14-1.32ZM24 9.12c1.94 0 3.82.37 5.61 1.1a15.005 15.005 0 0 1-13.64 8.79c-1.94 0-3.82-.37-5.61-1.1C12.77 12.6 18.1 9.12 24 9.12Zm0 29.94c-8.27 0-15-6.73-15-15 0-1.14.14-2.25.38-3.32 2.1.83 4.31 1.26 6.59 1.26 5.37 0 10.32-2.4 13.68-6.33 1.14 3.66 4.56 6.33 8.6 6.33.2 0 .4-.02.59-.04.1.69.16 1.38.16 2.09 0 8.27-6.73 15-15 15Z"/><path d="M19.74 34.39c2.54-1.72 6.03-1.75 8.61-.09.46.3 1.08.17 1.38-.3.3-.46.17-1.08-.3-1.38-1.58-1.02-3.42-1.56-5.31-1.56s-3.87.58-5.49 1.68c-.46.31-.58.93-.27 1.39.31.46.93.58 1.39.27Z"/><ellipse cx="28.46" cy="24.89" rx="1.49" ry="1.5"/></svg>
