<svg xmlns="http://www.w3.org/2000/svg" viewBox="0 0 48 48"><title>Koningsdag</title><path d="M40.56 20.9c-1.65-2.43-4.55-3.94-7.56-3.94-1.7 0-4.75.46-4.75.46s-2.19.53-2.72.7v-4.63l2.5-.02-.02-3-2.48.02v-2.5h-3v2.53l-2.5.02.02 3 2.48-.02v4.6c-.47-.17-2.72-.7-2.72-.7s-3.05-.46-4.75-.46c-3.01 0-5.9 1.51-7.56 3.94-1.63 2.4-1.89 5.37-.71 8.37 1.26 3.21 2.45 5.96 3.28 7.81v2.87h27.91v-2.87c.83-1.85 2.02-4.6 3.28-7.81 1.18-3 .93-5.97-.7-8.37Zm-18.03.8v15.25h-1.44c-1.43-2.65-3.76-7.59-3.76-10.68s3.2-4.13 5.2-4.57Zm3 0c1.99.44 5.2 1.6 5.2 4.57s-2.32 8.03-3.76 10.68h-1.44V21.7Zm-15.55.89c1.1-1.62 3.05-2.63 5.08-2.63 1.05 0 2.09.09 3.05.23-2.09 1.21-3.78 3.14-3.78 6.08 0 3.37 1.96 7.87 3.38 10.68h-4.4c-.77-1.7-2.19-4.9-3.72-8.78-1.03-2.62-.36-4.48.39-5.58Zm28.49 5.58c-1.53 3.88-2.95 7.08-3.72 8.78h-4.4c1.42-2.82 3.38-7.31 3.38-10.68 0-2.95-1.69-4.87-3.78-6.08.97-.14 2-.23 3.05-.23 2.03 0 3.98 1.01 5.08 2.63.75 1.1 1.42 2.96.39 5.58Z"/></svg>
