<svg xmlns="http://www.w3.org/2000/svg" viewBox="0 0 48 48"><title>Leerlingenvervoer</title><circle cx="11.02" cy="21" r="3"/><path d="M15.99 20v.5c0 3.1-1.83 4.88-5.02 4.88H8.86c-1.61.1-2.84 1.37-2.84 3.01L6 34l2.04-.03v8.04H14v-14c3.09-1.09 4.98-3.84 4.98-7.5v-.5h-2.99ZM38.67 6H24.34c-1.84-.01-3.33 1.5-3.33 3.37v24.56c0 .59.47 1.07 1.07 1.07h1.87c.59 0 1.07-.48 1.07-1.07V32h13v1.93c0 .59.48 1.07 1.07 1.07h1.86c.59 0 1.07-.48 1.07-1.07V9.39c0-1.87-1.49-3.38-3.33-3.39ZM26 8h11v2H26V8Zm-2 4h15v9H24v-9Zm1.67 16.25c-.92 0-1.67-.73-1.67-1.64s.75-1.64 1.67-1.64 1.67.73 1.67 1.64-.75 1.64-1.67 1.64Zm11.7-.03c-.92 0-1.67-.73-1.67-1.64s.75-1.64 1.67-1.64 1.67.73 1.67 1.64-.75 1.64-1.67 1.64Z"/></svg>
