<svg xmlns="http://www.w3.org/2000/svg" viewBox="0 0 48 48"><title>Manege</title><path d="M30.03 22.5c0 .83-.67 1.5-1.5 1.5s-1.5-.67-1.5-1.5.67-1.5 1.5-1.5 1.5.67 1.5 1.5Zm12 9.86c-.77 3.92-4.27 6.64-8.18 6.64-.54 0-1.09-.05-1.64-.16v-.04l-3.12-3.79c-4.59-.14-9.4-2.49-11.11-4.06l.03 11.04h-3v-16h3c.05.46 2.85 5.11 9.6 5.99-2.66-2.63-8.62-8.35-10.85-15.14 1.05-.41 2.03-.68 2.88-.85.38 1.15.76 1.98 1.33 3.08 2.47-2.73 5.43-3.69 7.62-4.08l-1.54-1.95V9.13c-.82.16-1.74.47-2.34 1.05-.47.46-.69 1.01-.69 1.8v1.57l-1.52-.01c-.53 0-11.13.14-16.44 10.82l-.04-5.38c5.17-6.55 12.22-8.07 15.15-8.37.24-1 .73-1.88 1.46-2.59 2.14-2.08 5.56-2.05 5.95-2.04h1.44v6l1.82 1.69 4.35 9.2 5.85 9.47Zm-11.85-2.04 4.91-3.64-1.65-2.53-3.39-6.33c-1.73.19-5.21.9-7.49 4.04 2.5 3.88 6.14 7.03 7.61 8.46Zm8.6 2.45-2.13-3.52-5.24 3.89L33.78 36c2.19.03 4.18-1.26 5.01-3.23Z"/></svg>
