<svg xmlns="http://www.w3.org/2000/svg" viewBox="0 0 48 48"><title>Marktgelden</title><path d="M31.52 17.01H29v-2h2.07a9.55 9.55 0 0 1 0-2h-2.08v-2h2.52c.32-.92.8-1.79 1.43-2.54 2.26-2.69 5.8-3.24 8.61-1.35l.43.29-1.17 1.62-.37-.25c-1.93-1.3-4.38-.9-5.96.98-.32.38-.57.81-.79 1.26H39v2h-5.93c-.09.66-.09 1.34 0 2h5.92v2h-5.3c.23.48.5.94.86 1.34 1.6 1.83 3.96 2.19 5.89.89l.38-.26 1.17 1.62-.44.3a6.328 6.328 0 0 1-3.56 1.11c-1.81 0-3.6-.8-4.96-2.35a8.133 8.133 0 0 1-1.53-2.66ZM39 23.94c-.33.04-.66.08-1 .08-.68 0-1.35-.1-2-.26v6.25H12v-8h20.6c-.37-.31-.73-.64-1.06-1.01-.52-.6-.97-1.26-1.34-1.98h-5.21v-10h5.21c.34-.66.74-1.27 1.21-1.83.37-.44.77-.83 1.2-1.18H10.04L6 16.99v2.02c0 1.65 1.36 3 3.04 3H9v17H6v3h36v-3h-3V23.95ZM17 17l1.56-8h3.43v10h-5v-2Zm-8 2v-2.02L11.91 9h3.67L14 17v2H9Zm27 20H12v-6h24v6Z"/></svg>
