<svg xmlns="http://www.w3.org/2000/svg" viewBox="0 0 48 48"><title>Meeuwenoverlast</title><path fill-rule="evenodd" d="M34.15 16.84c0 .47-.38.84-.84.84s-.84-.38-.84-.84.38-.84.84-.84.84.38.84.84Zm6.64-.72C40.08 15.39 39.12 15 38 15h-.41c-1.09-2.09-3.33-3.16-6.18-2.91-4.19.37-5.63 4.22-5.59 6.7v1.09c-6.51 0-19.84 8.34-19.84 8.34l4 1-4 2v5l8.04-1.19H20l.03 6.97h9.99l-.03-3h-2v-3.99c8.59-.37 11.67-5.01 11.67-9.17 0-1.95-.3-3.58-.73-4.84h3.02l.05-1.44c0-.21.04-2.13-1.22-3.44Zm-11.97 9.04v-.01Zm-3.45-2.23c-1.5 0-4.13.67-7.22 1.88l2.19 2.44c.55.02 1.02.03 1.39.03 4.48 0 6.68-1.58 7.06-2.16-.14-.14-.43-.37-.54-.46-.51-.41-1.17-.95-1.74-1.73h-1.14Zm-.4 12.08h-2.04V39h2.04v-3.99Zm13.39-17.47h-2.77l-.17-.57c-.17-1.07-.92-2.14-3.75-1.88-2.87.25-2.84 3.54-2.84 3.68v1.02c.46 2.62 3.43 2.51 3.43 5.32 0 2.39-3.78 5.12-10.08 5.12-1.96 0-5.13-.23-7.97-.48l-5.23 2.47v1l5-1.2h12.91c4.5 0 9.75-1.48 9.75-6.18s-1.98-5.3-2-5.31l-1.33-.47 1.99-1.04h4.42s.24-1.49-1.35-1.49ZM12.98 20c3.87 0 7-3.13 7-7s-3.13-7-7-7-7 3.13-7 7 3.13 7 7 7Zm-1-6h2V9h-2v5Zm0 2c0 .29.09.53.28.72.19.19.43.28.72.28s.54-.09.72-.28c.19-.19.28-.43.28-.72s-.09-.53-.28-.72c-.19-.19-.43-.28-.72-.28s-.54.09-.72.28c-.19.19-.28.43-.28.72Z"/></svg>
