<svg xmlns="http://www.w3.org/2000/svg" viewBox="0 0 48 48"><title>Melding</title><path d="M16 29.96c4.41 0 8-3.59 8-8s-3.59-8-8-8-8 3.59-8 8 3.59 8 8 8Zm-4.74-9.25c.28.03.56.06.84.06 2.23 0 4.25-.86 5.77-2.25.05.06.09.12.15.17.78.78 1.68 1.34 2.64 1.72.16.49.27 1 .27 1.55 0 2.72-2.21 4.93-4.93 4.93s-4.93-2.21-4.93-4.93c0-.43.07-.85.18-1.25ZM26 35.98l-.02 5.94h-2.94v-6.37c0-.88-.71-1.59-1.59-1.59H10.64c-.88 0-1.59.71-1.59 1.59v6.37H6.01l-.02-5.94c0-2.81 2.19-5 5-5h10c2.81 0 5 2.19 5 5Zm2.02-28.41v11.04c0 .83.67 1.5 1.5 1.5h1.49v3.95l4.03-3.95h5.47c.83 0 1.5-.67 1.5-1.5V7.57c0-.83-.67-1.5-1.49-1.5H29.51c-.83 0-1.5.67-1.5 1.5Zm5.93 8.51c0-.29.09-.53.28-.72.18-.19.43-.28.72-.28s.54.09.72.28c.19.19.28.43.28.72s-.09.53-.28.72c-.18.19-.43.28-.72.28s-.54-.09-.72-.28c-.18-.19-.28-.43-.28-.72Zm0-7.01h2v5.01h-2V9.07Z"/></svg>
