<svg xmlns="http://www.w3.org/2000/svg" viewBox="0 0 48 48"><title>Melding straatverlichting</title><path d="M7.37 16.08 5.99 14.7l2.3-2.3c.44.49.98.9 1.59 1.17l-2.51 2.51Zm6.53-2.06h-1.96v3.95h1.95v-3.96Zm3.61-1.67c-.44.5-.97.9-1.57 1.19l2.54 2.54 1.38-1.38-2.35-2.35ZM6 39h14V28l1-2V11.5A2.5 2.5 0 0 0 18.5 9H17c0 1.65-1.34 3-3 3h-2a3 3 0 0 1-3-2.99V6h9.43c1.57 0 2.99.67 4 1.73 1-1.06 2.42-1.73 4-1.73h9.56v3.01c0 1.65-1.34 2.99-2.99 2.99h-2.06c-1.65 0-3-1.35-3-3h-1.52a2.5 2.5 0 0 0-2.5 2.5l.07 14.5 1 2v11h17v3H6v-3Zm8.93-31h-4v1c0 .55.45 1 1 1h2c.55 0 1-.45 1-1V8Zm25.57 7.04H29.47c-.83 0-1.5.67-1.5 1.5L28 27.51c0 .83.67 1.5 1.5 1.5H35l4 4v-4l1.48.02c.83 0 1.5-.74 1.5-1.57V16.54c.01-.83-.66-1.5-1.49-1.5Zm-4.72 10.72c-.19.19-.43.28-.72.28s-.54-.09-.72-.28c-.19-.19-.28-.43-.28-.72s.09-.53.28-.72c.19-.19.43-.28.72-.28s.54.09.72.28c.19.19.28.43.28.72s-.09.53-.28.72Zm.23-2.75h-2v-5h2v5Z"/></svg>
