<svg xmlns="http://www.w3.org/2000/svg" viewBox="0 0 48 48"><title>Melding straatverlichting</title><path d="M12 12h2c1.66 0 3-1.35 3-3h1.5a2.5 2.5 0 0 1 2.5 2.5V26l-1 2v14h5V28l-1-2-.07-14.5a2.5 2.5 0 0 1 2.5-2.5h1.52c0 1.65 1.35 3 3 3h2.06C34.66 12 36 10.66 36 9.01V6h-9.56c-1.57 0-2.99.67-4 1.73-1-1.06-2.42-1.73-4-1.73H9.01v3.01a3 3 0 0 0 3 2.99Zm-1.07-4h4v1c0 .55-.45 1-1 1h-2c-.55 0-1-.45-1-1V8Zm6.59 4.35 2.35 2.35-1.38 1.38-2.54-2.54a5.1 5.1 0 0 0 1.57-1.19ZM7.38 16.08 6 14.7l2.3-2.3c.44.49.98.9 1.59 1.17l-2.51 2.51ZM40.01 16h-10a2 2 0 0 0-2 2v10a2 2 0 0 0 2 2h3.25l3.88 3.82c.1.09.22.14.35.14.06 0 .13-.01.19-.04.19-.08.31-.26.31-.46l.03-3.47h2a2 2 0 0 0 2-2v-10a2 2 0 0 0-2-2Zm-5 11.03c-.55 0-1-.45-1-1s.45-1 1-1 1 .45 1 1-.45 1-1 1Zm1-3h-2v-5h2v5Zm-9 14.97h15v3h-15v-3Zm-21 0h12v3H6v-3Zm5.95-24.97h1.96v3.96h-1.95v-3.95Z"/></svg>
