<svg xmlns="http://www.w3.org/2000/svg" viewBox="0 0 48 48"><title>Melding omgevallen boom</title><path d="M42 40.5V42h-7v-3h3.6c-.55-.96-1.8-2-4.6-2v-3c.53 0 1.01.04 1.48.1.09-.93-.2-1.92-.82-2.53a2.88 2.88 0 0 0-3.44-.5l-.7.39-.71-.37s-.78-.4-1.18-.58c-1.63-.69-2.69-.68-4.36.05v.01L25.84 32H25v.02c-2.5.11-4.5 1.83-4.5 3.95V36h.49v.8l-.62.16c-.27.08-2.8.93-2.8 5.04h-2.93c0-4.34 2.22-6.62 3.98-7.54.07-.53.22-1.07.41-1.62l-8.3-7.12 2.44-1-.49-2 1.95-1.5 7.74 7.22c.4-.26.81-.5 1.25-.69 2.31-1 4.15-1 6.45 0 .19.08.46.22.71.34 2.09-.8 4.5-.3 6.11 1.35 1.36 1.39 1.92 3.51 1.56 5.48 2.7 1.38 3.53 3.98 3.53 5.58Zm-27.3-6.2-.64-1.36-1.93.91-.13-2.84-1.5-1.5-1 2-1.5-1-1.5 2-.5 9.5h6.5l-.3-6.53 2.49-1.17Zm15.11 4.42-1.06-1.09-2.31 2.36H21v2h10v-2h-2.44l1.25-1.28ZM42 8v12a2 2 0 0 1-2 2h-2.98l-.03 3.47c0 .2-.12.38-.31.46a.5.5 0 0 1-.54-.1l-3.89-3.82h-4.27c-1.1 0-2-.9-2-2.01V8a2 2 0 0 1 2-2h12a2 2 0 0 1 2 2Zm-7 9.04c0-.55-.45-1-1-1s-1 .45-1 1 .45 1 1 1 1-.45 1-1Zm0-7.03h-2v5h2v-5Z"/></svg>
