<svg xmlns="http://www.w3.org/2000/svg" viewBox="0 0 48 48"><title>Milieuzone</title><path d="M28.32 21.87c-.24-.55-.78-.91-1.38-.91H22v-7H6v3h13v15H6v6h13.05c.25 2.24 2.14 4 4.45 4s4.2-1.76 4.45-4h1.56c.82 0 1.49-.67 1.49-1.49v-8.56l-2.68-6.04ZM23.5 38.96c-.83 0-1.5-.67-1.5-1.5s.67-1.5 1.5-1.5 1.5.67 1.5 1.5-.67 1.5-1.5 1.5Zm4.5-10h-6v-5h3.96l2.04 4v1ZM37.9 6h-5.8L28 10.1v5.8l4.1 4.1h5.8l4.1-4.1v-5.8L37.9 6ZM34 9h2v5h-2V9Zm1.84 7.48c-.19.19-.43.28-.72.28s-.54-.09-.72-.28c-.19-.19-.28-.43-.28-.72s.09-.53.28-.72c.19-.19.43-.28.72-.28s.54.09.72.28c.19.19.28.43.28.72s-.09.53-.28.72Z"/></svg>
