<svg xmlns="http://www.w3.org/2000/svg" viewBox="0 0 48 48"><title>Monitor agrofood</title><path d="M23.52 19.33c.31-.52.48-1.13.48-1.77v-5.97c.2-.2.35-.34.38-.36l.03.02 2.48 1.46c.59-.34 1.23-.6 1.9-.78l.7-2.81c.45-.06 2.34-.06 2.79 0l.7 2.81c.67.18 1.31.44 1.9.78l2.46-1.47.02.02s1.42 1.28 1.92 1.92l-1.49 2.48c.35.6.62 1.24.8 1.93l2.81.7c.06.45.1.9.1 1.37s-.04.92-.1 1.37l-1.03.26v.01l-1.73.43c-.18.68-.45 1.33-.8 1.93l1.49 2.48c-.37.47-.78.9-1.22 1.31-.95-.37-1.98-.63-3.07-.75l-.16-.09-.12.06a12.317 12.317 0 0 0-4.16.33c-.23-1.01-.59-1.94-1.04-2.79.42.13.86.22 1.33.22 2.62-.02 4.74-2.15 4.74-4.77s-2.12-4.75-4.74-4.77a4.776 4.776 0 0 0-4.74 4.77c0 .31.03.61.09.91-.83-.54-1.74-.96-2.71-1.22Zm18.49 15.95c0 3.74-3.63 6.68-8.27 6.68s-8.27-2.93-8.27-6.68 3.63-6.68 8.27-6.68 8.27 2.93 8.27 6.68Zm-3 0c0-2.03-2.36-3.68-5.27-3.68s-5.27 1.65-5.27 3.68 2.36 3.68 5.27 3.68 5.27-1.65 5.27-3.68ZM6 17.49V7.51C5.99 6.68 6.66 6 7.5 6h12.99c.84 0 1.51.67 1.51 1.51v9.99c.01.83-.66 1.51-1.5 1.51H7.51c-.84 0-1.51-.67-1.51-1.51ZM17 16h2v-3h-2v3Zm-4-7v7h2l-.02-7H13Zm-4 7h2v-4H9v4Zm5.06 8h-.22c1.29 0 2.51.89 3.3.89.75 0 2.1-.96 3.56-.96.11 0 .22 0 .33.02.45.02.88.1 1.29.24a4.93 4.93 0 0 1 2.99 2.38c.55.96.8 2.07.84 3.21.81-.79 1.78-1.46 2.88-1.96-.19-.97-.51-1.89-1-2.74a8.125 8.125 0 0 0-4.81-3.86c-.6-.19-1.22-.21-1.82-.26-.12.03-1.79.04-3.62.04-2.38 0-4.76-.01-4.76-.01-2.39.37-4.52 1.83-5.68 3.94-2.47 4.33-1.27 9.7.9 12.86 1.93 2.82 3.96 4.25 6.05 4.25h.17c1.14-.05 1.96-.4 2.5-.63.4-.17.44-.19.62-.19.13 0 .16 0 .54.17.45.2 1.13.49 2.04.58.17.03.38.05.63.06h.19c1.82 0 3.17-.97 4.15-2.03a7.905 7.905 0 0 1-1.39-3.1c-.75 1.06-1.64 2.1-2.75 2.1h-.1c-.13 0-.25-.02-.36-.04-1.09-.09-1.56-.77-2.95-.77-1.5 0-1.97.76-3.22.81h-.05c-1.28 0-2.72-1.73-3.53-2.91-1.69-2.46-2.49-6.56-.76-9.6A4.797 4.797 0 0 1 14.08 24Z"/></svg>
