<svg xmlns="http://www.w3.org/2000/svg" viewBox="0 0 48 48"><title>Monitor agrofood</title><path d="M23.59 19.33c.3-.52.48-1.12.48-1.77v-5.97c.2-.2.35-.34.38-.36l.03.02 2.48 1.46c.59-.34 1.23-.6 1.9-.78l.7-2.81c.45-.06 2.34-.06 2.79 0l.7 2.81c.67.18 1.31.44 1.9.78l2.46-1.47.02.02s1.42 1.28 1.92 1.92l-1.49 2.48c.35.6.62 1.24.8 1.93l2.81.7c.06.45.1.9.1 1.37s-.04.92-.1 1.37l-1.03.26-1.73.44c-.18.68-.45 1.33-.8 1.93l1.49 2.48c-.37.47-.78.9-1.22 1.31-.95-.37-1.98-.63-3.07-.75l-.16-.09-.12.06a12.317 12.317 0 0 0-4.16.33c-.23-1.01-.59-1.94-1.04-2.79.42.13.86.22 1.33.22 2.62-.02 4.74-2.15 4.74-4.77s-2.12-4.75-4.74-4.77a4.776 4.776 0 0 0-4.74 4.77c0 .31.03.61.09.91a9.93 9.93 0 0 0-2.58-1.19c-.04-.01-.09-.03-.13-.04Zm18.42 15.95c0 3.74-3.63 6.68-8.27 6.68s-8.27-2.93-8.27-6.68 3.63-6.68 8.27-6.68 8.27 2.93 8.27 6.68Zm-3 0c0-2.03-2.36-3.68-5.27-3.68s-5.27 1.65-5.27 3.68 2.36 3.68 5.27 3.68 5.27-1.65 5.27-3.68ZM6.07 17.56V7.59c-.01-.83.66-1.5 1.5-1.5h12.98c.83 0 1.51.67 1.51 1.5v9.97c.01.83-.66 1.5-1.5 1.5H7.58c-.83 0-1.51-.67-1.51-1.5Zm11-1.5h2v-3h-2v3Zm-4.01-7.01v7.01h2.01l-.02-7.01h-2Zm-3.99 7.01h2v-4h-2v4Zm4.99 7.91h.05c1.25 0 2.42.86 3.18.86.72 0 2.03-.92 3.43-.92.1 0 .21 0 .31.02.43.02.85.1 1.25.23 1.22.35 2.26 1.16 2.89 2.3.53.93.77 2 .81 3.1.78-.76 1.72-1.41 2.78-1.89-.19-.93-.5-1.83-.96-2.65a7.798 7.798 0 0 0-4.64-3.72c-.58-.19-1.17-.2-1.76-.25-.12.03-1.72.04-3.5.04-2.29 0-4.87-.01-4.87-.01-2.37.36-4.48 1.81-5.63 3.9-2.45 4.29-1.25 9.62.89 12.74 1.91 2.79 3.93 4.21 5.99 4.21h.17c1.13-.04 1.94-.39 2.48-.62.39-.17.44-.18.61-.18.13 0 .16 0 .53.17.45.19 1.12.48 2.02.58.17.03.38.05.62.06h.18c1.8 0 3.14-.96 4.11-2.01a7.97 7.97 0 0 1-1.38-3.07c-.75 1.05-1.62 2.09-2.73 2.09h-.07c-.13 0-.24-.02-.36-.04-1.09-.09-1.56-.77-2.94-.77-1.5 0-1.97.76-3.21.81h-.05c-1.27 0-2.71-1.72-3.52-2.9-1.68-2.46-2.48-6.54-.76-9.57A4.758 4.758 0 0 1 14.03 24Z"/></svg>
