<svg xmlns="http://www.w3.org/2000/svg" viewBox="0 0 48 48"><title>Monitor duurzaamheid</title><path d="M6.02 17.53V7.55c-.01-.83.66-1.5 1.5-1.5H20.5c.83 0 1.51.67 1.51 1.5v9.97c.01.83-.66 1.5-1.5 1.5H7.53c-.83 0-1.51-.67-1.51-1.5Zm11-1.5h2v-3h-2v3Zm-4.01-7.01v7.01h2.01L15 9.02h-2Zm-3.99 7.01h2v-4h-2v4Zm7.23 8.56 2.67-.5c.14-.03.28-.03.42-.04-.54-.93-.91-1.97-1.12-3.06h-3.05c.19 1.26.55 2.47 1.07 3.59Zm8.86-9.55c.06.49-.54 1.23-1.1 1.49v1.46c0 .23-.03.46-.08.67.74 1.4 1.19 2.87.99 4.54-.1.83.3 1.48.92 1.99.35.29.71.58 1.06.89l1.31.44c.07-.06.14-.13.21-.23.35-.5.75-.97 1.14-1.44.57-.68.7-1.45.5-2.32-.36-1.53.59-2.83 2.06-2.83 1.91 0 2.22-.34 2.88-2.21.45-1.26.43-2.25-.61-3.13-.33-.28-.56-.67-.84-1-.47-.55-1.04-.71-1.76-.64-1.55.15-3.12.23-4.68.29-.22 0-.57-.2-.66-.39-.46-1.13-.41-2.77.67-3.36l.54-.12c.12 0 .24-.02.36-.02 5.51 0 10 4.48 10 10 0 4.14-2.53 7.7-6.12 9.21a6.55 6.55 0 0 1 1.73 2.5c4.37-2.09 7.39-6.54 7.39-11.71 0-7.18-5.82-13-13-13-.12 0-.24.01-.36.02v-.02c-.73.02-1.44.11-2.13.24-.07.01-.15.03-.22.04-.38.08-.75.17-1.12.29-.05.01-.09.03-.14.05-.01 0-.02 0-.04.01v7.69c.45.03 1-.1 1.1.62ZM37.36 33h-5.35c0-1.64-1.16-3.38-2.9-3.96l-8.39-2.82c-.29-.09-.59-.14-.89-.14-.18 0-.37.02-.55.05l-4.27.8v-.89L6 25.99v15h9v-1.88l9.61 2.64a5.63 5.63 0 0 0 2.81.06L42 38.45v-1.37c0-2.27-2.08-4.1-4.65-4.1Zm-25.35 5h-3v-9h3v9Zm14 1.34-11-3v-6l4.88-.88 8.13 2.43c.53.18.88.89.88 1.39 0 0-2.51-.07-2.99-.2l-3.69-1.07-.98 2.57 3.69 1.07c.79.23 1.61.35 2.45.35h9.96c.6 0 1.15.31 1.39.76L26 39.35Z"/></svg>
