<svg xmlns="http://www.w3.org/2000/svg" id="ICONEN" viewBox="0 0 48 48"><title>Monitor virus</title><defs><style>.cls-1{stroke-width:0}</style></defs><path d="M39 20.98c-1.12 0-2.09.62-2.6 1.54h-3.59c-.23-1.35-.76-2.6-1.52-3.67l1.93-1.93c.23.06.48.1.73.1 1.66 0 3-1.34 3-3s-1.34-3-3-3-3 1.34-3 3c0 .28.05.55.12.81l-1.9 1.9a9.066 9.066 0 0 0-3.65-1.54v-1.42a4.022 4.022 0 0 0-1.5-7.75c-.06 0-.12.02-.18.02.1.3.17.62.17.95v11.03h.02c3.31 0 5.99 2.68 5.99 5.99S27.34 30 24.03 30a5.988 5.988 0 0 1-5.17-9.01h-3.35c-.18.49-.32.99-.41 1.52h-1.37c-.23-.59-.61-1.1-1.07-1.52H7.41c-.83.73-1.36 1.79-1.36 2.98a3.988 3.988 0 0 0 7.67 1.54h1.39a8.94 8.94 0 0 0 1.55 3.74l-2.61 2.61c-.08-.03-.14-.07-.22-.09-1.69-.53-3.49.42-4.02 2.11-.53 1.69.42 3.49 2.11 4.02 1.69.53 3.49-.42 4.02-2.11.17-.55.17-1.1.06-1.63l2.79-2.79c1.1.78 2.38 1.31 3.76 1.54v4.04c-.41.26-.75.63-.98 1.1a2.745 2.745 0 0 0 1.28 3.67c1.37.66 3.01.09 3.67-1.28.61-1.26.16-2.74-.97-3.49v-4.07a9.05 9.05 0 0 0 3.66-1.54l1.14 1.14c-.78 1.92.04 4.14 1.93 5.05a3.96 3.96 0 0 0 3.45-7.13 3.92 3.92 0 0 0-3.28-.06l-1.13-1.13c.77-1.08 1.3-2.34 1.52-3.71h3.63c.52.87 1.47 1.46 2.56 1.46 1.66 0 3-1.34 3-3s-1.34-3-3-3Z" class="cls-1"/><path d="M6.02 17.53V7.55c-.01-.83.66-1.5 1.5-1.5H20.5c.83 0 1.51.67 1.51 1.5v9.97c.01.83-.66 1.5-1.5 1.5H7.53c-.83 0-1.51-.67-1.51-1.5Zm11-1.5h2v-3h-2v3Zm-4.01-7.01v7.01h2.01L15 9.02h-2Zm-3.99 7.01h2v-4h-2v4Z" class="cls-1"/></svg>
