<svg xmlns="http://www.w3.org/2000/svg" viewBox="0 0 48 48"><title>Natuurlandschap</title><path d="M26.69 17.61a6.022 6.022 0 0 0-4.82-4.1 6.02 6.02 0 0 0-10.76 0c-2.23.34-4.11 1.9-4.82 4.09-.5 1.53-.37 3.16.36 4.59.3.58.68 1.1 1.13 1.55-.35 2.17.5 4.46 2.4 5.84 1.04.75 2.26 1.15 3.54 1.15.97 0 1.92-.24 2.77-.67.85.44 1.79.67 2.77.67 1.28 0 2.5-.4 3.54-1.15 1.3-.95 2.16-2.34 2.41-3.93.1-.65.1-1.29 0-1.92 1.56-1.55 2.22-3.91 1.49-6.14Zm-4.8 4.73c-.21.07-.42.11-.63.13.16.14.3.3.43.47.98 1.35.68 3.24-.67 4.22a3.015 3.015 0 0 1-4.22-.67c-.13-.18-.23-.36-.32-.55-.09.19-.19.38-.32.55-.59.81-1.51 1.25-2.45 1.25-.62 0-1.24-.19-1.77-.58a3.022 3.022 0 0 1-.67-4.22c.13-.18.27-.33.43-.47a3.02 3.02 0 0 1-2.57-3.94c.41-1.28 1.6-2.09 2.87-2.09a3.014 3.014 0 0 1 1.51.41c-.04-.2-.07-.42-.07-.63 0-1.67 1.35-3.02 3.02-3.02a3.017 3.017 0 0 1 2.95 3.66 3.022 3.022 0 0 1 1.51-.41c1.27 0 2.46.81 2.88 2.09.51 1.59-.35 3.29-1.94 3.81Zm-5.48-4.35c1.66 0 3 1.34 3 3s-1.34 3-3 3-3-1.34-3-3 1.34-3 3-3m.12 14.24c.48.18.98.3 1.49.39v9.36l-1.84-.03c-.07 0-.14.01-.2.01-.14 0-.27-.02-.41-.02h-.54v-.03c-5.02-.48-8.95-4.72-8.95-9.88 3.97 0 7.39 2.35 8.97 5.74l.02-5.16c.5-.08 1-.21 1.48-.38Zm25.49 9.75h-3.26c-1.5-3.34-4.01-6.18-7.1-8.06-2.55-1.55-5.36-2.35-8.19-2.4.17-.1.35-.19.51-.31.92-.67 1.66-1.51 2.22-2.46 2.43.39 4.81 1.26 7.03 2.6 4 2.43 7.13 6.19 8.81 10.63Zm0-14.36v3.31c-4.82-2.43-10.1-3.47-15.42-3.04.26-.61.46-1.25.56-1.92.06-.38.08-.75.09-1.13 2.25-.12 4.5 0 6.7.35v-2.25h-5.02l3.92-5.66h-2.61l3.48-5.66h-1.74l3.48-5.66 3.48 5.66H37.2l3.48 5.66h-2.61l3.92 5.66h-5.02v2.91c1.72.45 3.4 1.03 5.05 1.77Z"/></svg>
