<svg xmlns="http://www.w3.org/2000/svg" viewBox="0 0 48 48"><title>Omgeving</title><path d="M20.01 30.02h-2v-9.19c0-1.55 1.31-2.81 2.98-2.81h6.04c1.56 0 2.83 1.11 2.99 2.53v9.47h-2v3.95c-.93.07-1.94.11-3 .13v-7.07h2v-6h-6v6h2v7.07c-1.05-.02-2.06-.06-3-.12v-3.95Zm12.01-3.05v3c4.86.82 6.67 2.07 6.67 3.2 0 1.47-4.85 3.85-14.68 3.85S9.2 34.75 9.2 33.15c0-1.17 2.13-2.33 6.76-3.13v-2.99c-6.15 1.09-9.95 3.32-9.95 6.13 0 4.48 9.1 6.82 18 6.82s17.98-2.34 17.98-6.82c0-2.87-3.6-5.13-9.97-6.2ZM19.53 12.5c0-1.98 1.29-3.65 3.07-4.25.02 0 .05-.02.08-.02.43-.14.88-.23 1.35-.23.52 0 1.01.11 1.47.27h.02c1.75.62 3.01 2.27 3.01 4.23 0 2.49-2.01 4.5-4.5 4.5s-4.5-2.01-4.5-4.5Zm2 0a2.5 2.5 0 0 0 5 0c0-.72-.31-1.37-.81-1.83-.81.83-1.93 1.34-3.18 1.34-.32 0-.63-.05-.93-.11-.05.19-.08.39-.08.6Z"/></svg>
