<svg xmlns="http://www.w3.org/2000/svg" viewBox="0 0 48 48"><title>Omgevingsvisie document</title><path d="M17 38.96h8l-.03 2.97-9.97.03-9-9.12V8.97c0-1.66 1.34-3 3-3h22c1.66 0 3 1.34 3 3v17.25l-1-.73-2 1.42V8.97H8.98l.02 22h8v8Zm3-26.95c3.31 0 6 2.69 6 6 0 .28-.03.56-.06.83 0 .05-.02.1-.02.16-.02.14-.05.28-.09.42C24.88 23.98 20 30.01 20 30.01s-4.87-6.03-5.83-10.59l-.09-.42c0-.05-.02-.1-.02-.16a5.69 5.69 0 0 1-.06-.83c0-3.31 2.69-6 6-6Zm0 3c-1.66 0-3 1.34-3 3s1.34 3 3 3 3-1.34 3-3-1.34-3-3-3Zm21.99 19.48-1.81 2.46-1.21-.89v5.88h-12v-5.88l-1.21.89-1.78-2.41 9.01-6.59 2.97 2.16v-1.29h3.01v3.48l3.02 2.18Zm-7 .46H31v3.5h3.99v-3.5Z"/></svg>
