<svg xmlns="http://www.w3.org/2000/svg" viewBox="0 0 48 48"><title>Ontheffing milieuzone</title><path d="m18.36 21.08 6.36-6.36 2.12 2.11-8.49 8.49-5.31-5.31 2.13-2.12 3.2 3.18ZM42 23.96v8.56c0 .82-.67 1.49-1.49 1.49h-1.56c-.25 2.24-2.14 4-4.45 4s-4.2-1.76-4.45-4h-13.1c-.25 2.24-2.14 4-4.45 4s-4.2-1.76-4.45-4H7.5c-.83 0-1.5-.67-1.5-1.5V10h27v7h4.94c.6 0 1.15.36 1.38.91L42 23.95ZM14 33.5c0-.83-.67-1.5-1.5-1.5s-1.5.67-1.5 1.5.67 1.5 1.5 1.5 1.5-.67 1.5-1.5ZM30 13H9v15h21V13Zm6 20.5c0-.83-.67-1.5-1.5-1.5s-1.5.67-1.5 1.5.67 1.5 1.5 1.5 1.5-.67 1.5-1.5Zm2.65-9.5-1.69-4H33v4h5.65Z"/></svg>
