<svg xmlns="http://www.w3.org/2000/svg" viewBox="0 0 48 48"><title>Openingstijden winkels</title><path d="M42 33a9 9 0 1 1-18.001-.001A9 9 0 0 1 42 33Zm-3 0c0-3.31-2.69-6-6-6s-6 2.69-6 6 2.69 6 6 6 6-2.69 6-6Zm-5-5h-2v5.41l3.29 3.29 1.41-1.41-2.71-2.71v-4.59Zm-3.11-9.99h2.2l.29 4.01c1.06.04 2.08.21 3.05.53l-.54-7.53H30.9v2.99Zm-7.09 21H9.07l1.58-21.02 4.19.02v1.89c-.3.27-.5.67-.5 1.11 0 .83.67 1.5 1.5 1.5s1.5-.67 1.5-1.5c0-.44-.2-.84-.5-1.11l.02-6.96c0-2.21 1.51-4.06 3.58-4.68-.96 1.04-1.57 2.35-1.57 3.78v.95h2v-.95c0-1.58 1.21-3.01 2.95-3.66 1.8.72 3.05 2.47 3.05 4.56L26.85 15h-8v3h8v1.87c-.33.28-.54.68-.54 1.14 0 .83.67 1.5 1.5 1.5a1.498 1.498 0 0 0 1.04-2.58l.02-6.99c0-1.89-.76-3.59-1.99-4.84 2.25.37 4 2 4 3.94v.95h2v-.95c0-3.32-3.15-6.02-6.96-6.02-.7 0-1.38.09-2.04.27v-.02s-.04.01-.05.02c-.6-.17-1.22-.26-1.87-.26-3.9 0-7.08 3.11-7.08 6.92l-.02 2.07L7.89 15 5.86 42.03h20.87c-1.15-.81-2.14-1.82-2.91-3Z"/></svg>
