<svg xmlns="http://www.w3.org/2000/svg" viewBox="0 0 48 48"><title>Overlijden</title><path d="M42 31.74V33H18v-1.26c.15-.19.27-.35.42-.53a4.87 4.87 0 0 0 1.53-.76c.85-.62 1.48-1.47 1.83-2.45h15.23V13.39c-2.24-.93-4.6-1.42-7-1.42s-4.76.49-7 1.42v4.38a5.187 5.187 0 0 0-3-2.12v-4.17c3.12-1.64 6.53-2.51 10-2.51s6.88.87 10 2.51V29c1.09.44 2 1.49 2 2.74Zm-25.12-2.29c-.68 0-1.35-.23-1.91-.65L15 39.02 13.05 39c-3.88-.33-6.99-3.66-6.99-7.66 3.1 0 5.77 1.89 6.94 4.59v-7.17c-.57.45-1.27.7-1.99.7-.65 0-1.31-.2-1.88-.61a3.211 3.211 0 0 1-.26-4.98 3.11 3.11 0 0 1-.66-.14c-1.68-.55-2.61-2.36-2.06-4.04a3.22 3.22 0 0 1 3.05-2.22 3.17 3.17 0 0 1 1.61.44 3.214 3.214 0 0 1 3.14-3.88 3.214 3.214 0 0 1 3.14 3.88 3.17 3.17 0 0 1 1.61-.44 3.207 3.207 0 0 1 .99 6.26c-.22.07-.44.12-.66.14a3.211 3.211 0 0 1-.26 4.98c-.57.41-1.23.61-1.88.61Zm-.24-7.29a2.68 2.68 0 1 0-5.36 0 2.68 2.68 0 0 0 5.36 0ZM34 16.99h-8v2h8v-2Zm-1 6v-2h-6v2h6Z"/></svg>
