<svg xmlns="http://www.w3.org/2000/svg" viewBox="0 0 48 48"><title>Overlijden</title><path d="M42.01 31.73v1.26H18v-1.26l.42-.53a4.87 4.87 0 0 0 1.53-.76 5.16 5.16 0 0 0 2.08-3.43c.12-.78.07-1.56-.14-2.29.44-.34.81-.76 1.12-1.21v4.48h14v-14h-2.38l-.82-.66c-1.39-1.12-3.15-1.56-4.97-1.22-.98.18-1.89.66-2.67 1.29l-.74.59h-2.42v3.77a5.187 5.187 0 0 0-3-2.12v-3.16c0-.83.67-1.5 1.5-1.5h2.86c1.55-1.25 3.52-2 5.66-2s4.11.75 5.66 2h2.82c.83 0 1.5.67 1.5 1.5v16.51c1.1.44 2.01 1.49 2.01 2.74Zm-22.53-7.37a3.63 3.63 0 0 0-.45-.5c.22-.02.44-.07.66-.14a3.207 3.207 0 0 0-.99-6.26 3.17 3.17 0 0 0-1.61.44 3.214 3.214 0 0 0-3.14-3.88 3.214 3.214 0 0 0-3.14 3.88 3.17 3.17 0 0 0-1.61-.44c-1.35 0-2.61.86-3.05 2.22a3.203 3.203 0 0 0 2.72 4.18 3.211 3.211 0 0 0 .26 4.98 3.217 3.217 0 0 0 4.48-.71c.14-.19.25-.38.34-.59a3.207 3.207 0 0 0 2.94 1.91c.65 0 1.31-.2 1.88-.61a3.211 3.211 0 0 0 .71-4.48Zm-5.53 6.18c-.3.2-.62.36-.95.5v4.87c-1.17-2.7-3.84-4.59-6.94-4.59 0 4 3.11 7.34 6.99 7.66L15 39l-.03-7.94c-.36-.14-.7-.31-1.02-.52ZM34 16.98h-8v2h8v-2Zm-1 6v-2h-6v2h6Zm-19.04 1.86a2.68 2.68 0 1 1 0-5.36 2.68 2.68 0 0 1 0 5.36Z"/></svg>
