<svg xmlns="http://www.w3.org/2000/svg" viewBox="0 0 48 48"><title>Parkeerkosten</title><path d="M10.46 33H25v3H10.46c-2.48 0-4.5-2.02-4.5-4.5v-21c0-2.48 2.02-4.5 4.5-4.5h21c2.48 0 4.5 2.02 4.5 4.5v12.2c-1.05.18-2.06.51-3 .96V10.5c0-.83-.67-1.5-1.5-1.5h-21c-.83 0-1.5.67-1.5 1.5v21c0 .83.67 1.5 1.5 1.5Zm16.48-15.01c0 3.3-2.48 5.98-5.52 5.98h-3.48v6.01h-2.96V12.01h6.44c3.04 0 5.52 2.68 5.52 5.98Zm-2.99 0c0-1.65-1.15-2.99-2.56-2.99h-3.41v5.97h3.41c1.41 0 2.56-1.34 2.56-2.99Zm16.53 21.36c-.83.41-1.76.64-2.74.64-2.25 0-4.22-1.2-5.32-3h4.11l.91-2h-5.73a6.284 6.284 0 0 1-.07-2h6.79l.91-2h-7.1c1.02-2.05 3.14-3.47 5.58-3.47 1 0 1.95.24 2.79.67l.83-1.82a8.14 8.14 0 0 0-3.62-.85c-3.57 0-6.61 2.29-7.75 5.47H28v2h1.54c-.02.25-.04.51-.04.76 0 .42.04.83.1 1.24H28v2h2.16c1.26 2.94 4.18 5 7.57 5 1.53 0 2.95-.43 4.18-1.15l-1.44-1.49Z"/></svg>
