<svg xmlns="http://www.w3.org/2000/svg" viewBox="0 0 48 48"><title>Parkeerkosten</title><path d="M17.74 12.01h-2.76v17.98h2.96v-6.01h3.48c3.04 0 5.52-2.68 5.52-5.98s-2.48-5.98-5.52-5.98h-3.68Zm6.21 5.98c0 1.65-1.15 2.99-2.56 2.99h-3.41v-5.97h3.41c1.41 0 2.56 1.34 2.56 2.99ZM42 40.59l-.44.3A6.328 6.328 0 0 1 38 42c-1.81 0-3.6-.8-4.96-2.35a8.133 8.133 0 0 1-1.53-2.66h-2.52v-2h2.07a9.55 9.55 0 0 1 0-2h-2.08v-2h2.52c.32-.92.8-1.79 1.43-2.54 2.26-2.69 5.8-3.24 8.61-1.35l.43.29-1.17 1.62-.37-.25c-1.93-1.3-4.38-.9-5.96.98-.32.38-.57.81-.79 1.26h5.31v2h-5.93c-.09.66-.09 1.34 0 2h5.92v2h-5.3c.23.48.5.94.86 1.34 1.6 1.83 3.96 2.19 5.89.89l.38-.26 1.17 1.62ZM10.46 33H27v3H10.46c-2.48 0-4.5-2.02-4.5-4.5v-21c0-2.48 2.02-4.5 4.5-4.5h21c2.48 0 4.5 2.02 4.5 4.5v13.76a8.51 8.51 0 0 0-3 1.45V10.49c0-.83-.67-1.5-1.5-1.5h-21c-.83 0-1.5.67-1.5 1.5v21c0 .83.67 1.5 1.5 1.5Z"/></svg>
