<svg xmlns="http://www.w3.org/2000/svg" viewBox="0 0 48 48"><title>Participatie plan</title><path d="M24 9.99c-.51 0-1.01.04-1.5.1V6h3v4.1c-.49-.06-.98-.1-1.49-.1H24ZM7.99 20.44v3h4.08c-.06-.5-.1-.99-.1-1.5s.04-1.01.11-1.5H7.99Zm8.61-7.92-2.93-2.93-2.12 2.12 2.93 2.93c.62-.79 1.33-1.51 2.12-2.12Zm19.31 7.92c.06.49.11.99.11 1.5 0 .5-.04 1-.1 1.5H40v-3h-4.08Zm-2.41-5.8 2.93-2.93-2.12-2.12-2.93 2.93c.79.62 1.5 1.33 2.12 2.12Zm.46 7.32c0 2.32-.81 4.58-2.3 6.36-.2.24-.4.47-.59.68-.81.92-1.07 1.25-1.07 2.03v4.92c0 1.97-1.43 3.66-3.25 4-.42 1.16-1.52 1.99-2.83 1.99s-2.46-.88-2.86-2.09c-1.73-.41-3.07-2.06-3.07-3.98v-4.91c0-.76-.23-1.04-1.01-1.92-.2-.23-.42-.47-.64-.74a9.971 9.971 0 0 1-2.3-6.38c0-5.49 4.47-9.95 9.96-9.95h.01c5.49 0 9.95 4.48 9.95 9.97ZM27 35.95v-.98h-6v.91c0 .54.45 1.08.92 1.08l4.19.06c.44 0 .9-.53.9-1.08Zm3.96-14c0-3.84-3.11-6.96-6.95-6.97-3.83 0-6.96 3.12-6.96 6.95 0 1.62.57 3.21 1.61 4.46.2.24.39.45.57.65.88.98 1.78 1.98 1.78 3.93v1.01h6v-.95c0-1.96.93-3.01 1.83-4.02.17-.19.35-.39.53-.61a6.878 6.878 0 0 0 1.6-4.44Z"/></svg>
