<svg xmlns="http://www.w3.org/2000/svg" viewBox="0 0 48 48"><title>Participatie pitch</title><path d="M17 6v6.15A9.899 9.899 0 0 1 25.85 23H42V6H17Zm10.07 12.41-.02-7.7 6.4 3.78-6.38 3.91ZM21.41 34H10.58c-.88 0-1.59.71-1.59 1.59V42H6.01l-.02-5.97c0-2.83 2.19-5.03 5-5.03h10.02c2.76 0 4.99 2.24 4.99 5v6h-3v-6.41c0-.88-.71-1.59-1.59-1.59ZM16 13.86c-4.42 0-8 3.58-8 8s3.58 8 8 8 8-3.58 8-8-3.58-8-8-8Zm0 13c-2.64 0-4.79-2.07-4.97-4.67.21-1.67 1.7-1.63 3.82-1.66 1.67-.02 3.79-.06 5.08-1.72a4.92 4.92 0 0 1 1.06 3.04c0 2.76-2.24 5-5 5Z"/></svg>
