<svg xmlns="http://www.w3.org/2000/svg" viewBox="0 0 48 48"><title>Paspoort ID-kaart gecombineerd</title><path d="M17 42H9.01A3.01 3.01 0 0 1 6 39l.05-30c0-1.66 1.3-3 2.95-3h14.36c1.75 0 3.18 1.31 3.42 3H10v.02h.03c-.57 0-1.02.46-1.02 1.02s.46 1.02 1.02 1.02H10l17.02-.05A2.99 2.99 0 0 1 30 14v8.01h-3V14H9v25h7v.03c0 1.11.38 2.14 1 2.97Zm-5-8h4v-2h-4v2Zm.49-8.28-.5 1.01L14 28.24l1.51-1.23h.32c.03-2.76 2.27-5 5.04-5H24v-1h-2v-1h.94l.47-3h-.94l-.47-1-2.99.32-.85.91-.19 1.62 1.14.22-.44 1.91-1.55.83.57-1.05-.47-.95c-.03-.06.08-.8.08-.8l-1.41-.5-1.88 5v1.15l1.01.56-1.01 1.01-1.51-.5ZM42 27.02v11.97c0 1.66-1.36 3.01-3.03 3.01H21.04C19.36 42 18 40.65 18 38.98V27.01c0-1.66 1.36-3.01 3.04-3.01h17.91c1.68 0 3.05 1.35 3.05 3.02Zm-2.96 0-.05-.02H31v2h-2v-2h-8l-.04 12 18.04.02.04-12Zm-12.53 6.43c.96 0 1.74-.78 1.74-1.75s-.78-1.75-1.74-1.75-1.74.78-1.74 1.75.78 1.75 1.74 1.75Zm0 .93c-1.17 0-3.5.59-3.5 1.75v.88h7v-.88c0-1.17-2.33-1.75-3.5-1.75Zm5.5-1.37h5v-2h-5v2Zm0 4h4v-2h-4v2Z"/></svg>
