<svg xmlns="http://www.w3.org/2000/svg" viewBox="0 0 48 48"><title>Paspoort ID-kaart gecombineerd</title><path d="M20.87 22c-2.77 0-5.02 2.24-5.04 5h-.32L14 28.23l-2.01-1.51.5-1.01 1.51.5 1.01-1.01-.99-.56v-1.15l1.87-5 1.41.5s-.11.73-.08.8c.03.07.47.95.47.95l-.57 1.05 1.55-.83.44-1.91-1.14-.22.19-1.62.85-.91 2.99-.32.47 1h.94l-.47 3H22v1h2v1h-3.13ZM12 33h4v-2h-4v2Zm4 7H9.01A3.01 3.01 0 0 1 6 37l.05-28c0-1.66 1.3-3 2.95-3h14.36c1.75 0 3.18 1.31 3.42 3H10v.02a1.02 1.02 0 0 0-.01 2.04l17.02-.05A2.99 2.99 0 0 1 29.99 14v8.01h-3v-8H9v23h7v3Zm-6-28.95h.03H10Zm0-2.04h.02H10Zm31.99 18v11.97c0 1.66-1.36 3.01-3.03 3.01H21.04c-1.68 0-3.04-1.35-3.04-3.02V27c0-1.66 1.36-3.01 3.04-3.01h17.92c1.68 0 3.05 1.35 3.05 3.02Zm-2.96 0-.05-.02h-7.99v2h-2v-2h-8l-.04 12 18.04.02.04-12Zm-7.04 5.98h5v-2h-5v2Zm-5.49.44c.96 0 1.74-.78 1.74-1.75s-.78-1.75-1.74-1.75-1.74.78-1.74 1.75.78 1.75 1.74 1.75Zm5.49 3.56h4v-2h-4v2Zm-5.5-2.63c-1.17 0-3.5.59-3.5 1.75v.88h7v-.88c0-1.17-2.33-1.75-3.5-1.75Z"/></svg>
