<svg xmlns="http://www.w3.org/2000/svg" viewBox="0 0 48 48"><title>Paspoort</title><path d="M18 33h12v2H18v-2Zm3.49-6h2l.5.78 1.5.54-.5 1.61V31h1.5l.5-1-1-.5V29l1-.74v-1.73l-1-1.33v-.89l3-.3 1-2v-1h-1v-1h.49l.5-3h-1l-.5-1-3.17.32-.91.91-.2 1.62 1.21.22-.47 1.91-1.65.83.61-1.05s-.47-.89-.5-.95c-.03-.07.09-.8.09-.8l-1.5-.5-2 5v.99l1 .6-1 1.07-1.5-.54-.5 1.07 2 1.61 1.5-1.32ZM37 14.02v24.97c0 1.66-1.35 3.01-3.01 3.01H14.03a3 3 0 0 1-2.99-3L11 9.01C11 7.35 12.33 6 13.96 6h16.31c1.73 0 3.15 1.31 3.39 3H15v.01h-.03c-.56 0-1.01.46-1.01 1.02s.45 1.02 1.01 1.02H15v.02l18.98-.06c1.67 0 3.02 1.34 3.02 3.01ZM34 14H14v25h20V14Z"/></svg>
