<svg xmlns="http://www.w3.org/2000/svg" viewBox="0 0 48 48"><title>Paspoort Belgie</title><path d="M37.11 11.87c-.57-.57-1.33-.88-2.13-.88h-.01l-19 .07c-.57 0-1.02-.46-1.02-1.02s.46-1.02 1.02-1.02h19c-.24-1.69-1.69-3-3.45-3H14.94c-1.66 0-3.01 1.35-3.01 3.01l.04 29.99c0 1.65 1.35 3 3 3h18.54c2.47 0 4.48-2.03 4.48-4.5V14.01c0-.81-.32-1.57-.89-2.14ZM35 37.5c0 .82-.67 1.5-1.49 1.5H14.97V14.06L35 14.01V37.5Zm-15.99-4.48h12.02V35H19.01v-1.98Zm13.19-9.41.33-.58-2.57-1.22.75-2.18-1.43-.99-1.15.24-.13-.1V18h-3v.26l-.91-.13-1.45 1.1-1.67-.52-.58-.47-3.49 1.8.27 1.65 1.26.83.54-.46.45.07.93 1.83.98.09.36 1.13 1.36-.26-.05.58v1.89l2.68-.05.89-1.07.06 2.22 2.18 1.21.46.85 1.61-.43-.07-1.06-.36-.57 1.09-2.42.55.22.81-2.22-.71-.46Z"/></svg>
