<svg xmlns="http://www.w3.org/2000/svg" viewBox="0 0 48 48"><title>Paspoort ID-kaart gecombineerd belgie</title><path d="M12 31h4v2h-4v-2ZM9 14l17.95-.05s.05.02.05.05v8h3v-8.01c0-1.67-1.35-3.02-3.02-3.01-5.55.02-16.82.05-16.83.05-.56 0-1.02-.46-1.02-1.02s.44-.99.99-1.01h.03-.03l16.68-.02C26.56 7.3 25.13 6 23.4 6H8.97C7.33 6 6 7.35 6 9l.04 28c0 1.65 1.35 3 3 3H16v-3H9V14Zm17.5 19.45c.96 0 1.74-.78 1.74-1.75s-.78-1.75-1.74-1.75-1.74.78-1.74 1.75.78 1.75 1.74 1.75ZM24.36 22l.14-.23-2.03-.97-.05-.55.5-1.44-1.25-.86-1 .21.32-.08v-1.07h-3v.62l-.84-.11-1.26.96-1.45-.45-.5-.41-3.04 1.57.23 1.44 1.1.72.47-.4.39.06.81 1.6.85.08.31.98 1.18-.23.27-.15.18.57.4-.05c.79-.97 1.92-1.64 3.21-1.79h4.05Zm17.63 5.02v11.97c0 1.66-1.36 3.01-3.03 3.01H21.04C19.36 42 18 40.65 18 38.98V27.01c0-1.66 1.36-3.01 3.04-3.01h17.92c1.68 0 3.05 1.35 3.05 3.02Zm-3 0-.05-.02h-7.95v2h-2v-2h-7.96l-.04 11.98 17.96.02.04-11.98Zm-7 5.98h5v-2h-5v2Zm0 4h4v-2h-4v2Zm-5.5-2.63c-1.17 0-3.5.59-3.5 1.75V37h7v-.88c0-1.17-2.33-1.75-3.5-1.75Z"/></svg>
