<svg xmlns="http://www.w3.org/2000/svg" viewBox="0 0 48 48"><title>Paspoort ID-kaart gecombineerd België</title><path d="M10 9.02h.03H10ZM16 33h-4v2h4v-2Zm0 6H9V14.05L27 14v8h3v-7.84c0-1.68-1.3-3.14-2.98-3.16l-16.99.06c-.57 0-1.02-.46-1.02-1.02s.44-1 .99-1.02L26.78 9c-.24-1.69-1.68-3-3.42-3H8.95C7.3 6 5.97 7.35 5.97 9l.04 30c0 1.65 1.35 3 3.01 3h7.99c-.62-.83-1-1.85-1-2.97V39Zm16-2h4v-2h-4v2Zm-5.5-2.63c-1.17 0-3.5.59-3.5 1.75V37h7v-.88c0-1.17-2.33-1.75-3.5-1.75ZM32 33h5v-2h-5v2Zm-5.5.45c.96 0 1.74-.78 1.74-1.75s-.78-1.75-1.74-1.75-1.74.78-1.74 1.75.78 1.75 1.74 1.75ZM42 27.02v11.97c0 1.66-1.36 3.01-3.03 3.01H21.04C19.36 42 18 40.65 18 38.98V27.01c0-1.66 1.36-3.01 3.04-3.01h17.91c1.68 0 3.05 1.35 3.05 3.02Zm-2.96 0-.05-.02H31v2h-2v-2h-8l-.04 12 18.04.02.04-12Zm-14.67-4.99.14-.26-2.03-.97-.05-.55.5-1.44-1.25-.86-1 .21-.11-.08v-.68h-2.61v.23l-.79-.11-1.26.96-1.45-.45-.5-.41-3.04 1.57.23 1.44 1.1.72.47-.4.39.06.81 1.6.85.08.31.98 1.18-.23.27-.15.18.57.4-.05c.79-.97 1.92-1.64 3.21-1.77h4.05Z"/></svg>
