<svg xmlns="http://www.w3.org/2000/svg" viewBox="0 0 48 48"><title>Prijskaartje</title><path d="M20.1 24.98H24v2h-4.6c-.05.32-.08.66-.08 1s.03.68.08 1H24v2h-3.9c.69 1.21 1.78 2 3.02 2 .79 0 1.55-.32 2.2-.93l.73-.68 1.37 1.46-.73.68c-1.02.96-2.26 1.47-3.56 1.47-2.31 0-4.3-1.64-5.23-4h-1.89v-2h1.38c-.04-.33-.07-.66-.07-1s.03-.67.07-1h-1.38v-2h1.89c.93-2.36 2.93-4 5.23-4 1.31 0 2.54.51 3.57 1.47l.73.68-1.37 1.46-.73-.68c-.65-.61-1.41-.93-2.2-.93-1.24 0-2.33.79-3.02 2Zm12.97-10.01c-.95.45-1.99.86-3.11 1.23l1.05.95v21.83H13V17.15l9-8.14 2.67 2.41c1.29-.28 2.42-.59 3.41-.92l-2.54-2.33-1.53-1.38a3.001 3.001 0 0 0-4.02 0l-9.49 8.59c-.31.28-.49.69-.49 1.11v25.5h24v-25.5c0-.42-.18-.83-.49-1.11l-.44-.4Zm4.71-7.53c-.21-.43-.67-1-1.7-1.26-1.72-.45-5.18.17-8.16 1.46l1.61 1.49c2.43-.92 5-1.28 6.04-1.01.27.07.38.16.4.21.05.1-.03.29-.08.39-.68 1.3-5.37 3.75-12.4 4.97-.45-.52-1.16-.81-1.94-.64-.75.16-1.37.79-1.52 1.55-.25 1.28.72 2.4 1.96 2.4a2 2 0 0 0 1.88-1.34c6.41-1.12 12.47-3.51 13.79-6 .51-.97.34-1.73.11-2.2Z"/></svg>
