<svg xmlns="http://www.w3.org/2000/svg" viewBox="0 0 48 48"><title>Recreatie</title><path d="M42.04 34.96h-4.53l-.45-2h1.99v-3H26.01v3h1.89l-.51 2h-4.37v3h3.63l-1.05 4h3.1l1.05-4h5.39l.91 4h3.07l-.91-4h3.83v-3Zm-11.59 0 .52-2h2.99l.45 2h-3.96Zm-4.98-10.04c.23-.27.43-.57.62-.88 1.5-2.58 1.07-5.93-.88-7.99.64-2.12.21-4.5-1.19-6.22a5.871 5.871 0 0 0-3.75-2.13c-.98-1.09-2.34-1.72-3.76-1.72s-2.77.61-3.76 1.7c-.79.1-1.55.37-2.24.8-2.48 1.53-3.56 4.73-2.71 7.56-.16.17-.3.34-.44.52-1.87 2.46-1.74 6.04.18 8.35 0 .09-.02.18-.02.27-.19 3.53 2.34 6.57 5.68 6.79h1.81v10.01h3v-10h1.5c.48 0 .96-.06 1.42-.18 2.93-.76 4.84-3.75 4.55-6.89Zm-2.6-1.61-.64.58.18.84c.41 1.87-.6 3.74-2.25 4.17-.22.06-.44.09-.66.09H18v-5.88l3.62-3.62-2.12-2.12-1.5 1.5V15h-3v6.86l-1.5-1.5-2.12 2.12L15 26.1v2.89h-1.67c-1.66-.11-2.93-1.74-2.83-3.63.01-.21.04-.42.08-.61l.19-.85-.64-.58c-1.33-1.21-1.51-3.46-.4-4.93.2-.27.44-.49.7-.68l1.07-.75-.6-1.16c-.87-1.69-.34-3.82 1.17-4.75.43-.26.91-.4 1.42-.4h.8l.45-.65c.44-.64 1.08-1 1.76-1s1.32.37 1.76 1.01l.45.66h.79c.85 0 1.63.38 2.2 1.08.91 1.12 1.07 2.75.39 4.07l-.6 1.16 1.07.75c1.47 1.03 1.89 3.19.93 4.82a3 3 0 0 1-.63.78Z"/></svg>
