<svg xmlns="http://www.w3.org/2000/svg" viewBox="0 0 48 48"><title>Sinterklaas</title><path d="M8.02 38.45v-1.49h17v1.5c0 .83-.67 1.5-1.5 1.5h-14c-.83 0-1.51-.67-1.51-1.51Zm26.23-32.4c-3.99.14-7.2 3.31-7.2 7.18 0 2.55 2.1 4.79 4.49 4.79 2.69 0 4.49-1.77 4.49-4.41h-.04s.01-.09.01-.13c0-.82-.66-1.48-1.48-1.48s-1.48.66-1.48 1.48c0 .05 0 .09.01.13h-.04c0 .66-.17 1.41-1.49 1.41-.75 0-1.49-.88-1.49-1.79 0-2.32 2.03-4.2 4.51-4.18 2.67.02 4.62 2.49 4.42 5.16-.21 2.75-1.7 4.97-4.09 6.06-1.11.5-1.87 1.56-1.87 2.78V27h-1.49c-.83 0-1.5.67-1.5 1.5s.67 1.5 1.5 1.5h1.5v11.97h3V30h1.53c.83 0 1.5-.67 1.5-1.5s-.67-1.5-1.49-1.5h-1.54v-3.98c3.17-1.44 5.33-4.28 5.86-7.79.72-4.79-2.8-9.34-7.64-9.17Zm-7.69 17.43c.19.33.25.73.17 1.1l-1.66 10.35H8.01L6.06 24.58c-.08-.37-.02-.76.17-1.09l8.86-15.21c.29-.5.8-.75 1.3-.75s1.01.25 1.3.75l8.87 15.2Zm-2.87 1.03-7.3-12.52-7.3 12.53 1.25 7.4h4.46v-4.95h-2.86v-3h2.86v-5.02h3v5.02h3.04v3H17.8v4.95h4.56l1.33-7.41Z"/></svg>
