<svg xmlns="http://www.w3.org/2000/svg" viewBox="0 0 48 48"><title>Sociaal zorg welzijn</title><path d="M17.5 15c2.49 0 4.5-2.01 4.5-4.5 0-1.96-1.26-3.61-3.01-4.23h-.02c-.46-.16-.95-.27-1.47-.27-.47 0-.92.09-1.35.23-.03 0-.05.02-.08.02-1.78.6-3.07 2.26-3.07 4.25 0 2.49 2.01 4.5 4.5 4.5Zm-2.42-5.1c.3.07.61.11.93.11 1.25 0 2.37-.52 3.18-1.34.49.46.81 1.1.81 1.83a2.5 2.5 0 0 1-5 0c0-.21.03-.41.08-.6ZM30.5 15c2.49 0 4.5-2.01 4.5-4.5 0-1.96-1.26-3.61-3.01-4.23h-.02c-.46-.16-.95-.27-1.47-.27-.47 0-.92.09-1.35.23-.03 0-.05.02-.08.02-1.78.6-3.07 2.26-3.07 4.25 0 2.49 2.01 4.5 4.5 4.5Zm-2.42-5.1c.3.07.61.11.93.11 1.25 0 2.37-.52 3.18-1.34.49.46.81 1.1.81 1.83a2.5 2.5 0 0 1-5 0c0-.21.03-.41.08-.6ZM35 16H12.95C11.32 16 10 17.35 10 19.01L10.04 30H13v12h10V21c0-.55.45-1 1-1s1 .45 1 1v21h10V30h3V19c0-1.66-1.34-3-3-3Zm-.35 4.99-.16.17L33 22.72l-1.49-1.56-.16-.17c-.33-.35-.46-.88-.24-1.31.35-.71 1.2-.81 1.69-.3l.2.21.2-.21c.49-.51 1.34-.42 1.69.3.21.43.09.96-.24 1.31Z"/></svg>
