<svg xmlns="http://www.w3.org/2000/svg" viewBox="0 0 48 48"><title>Sport</title><path d="M37.96 39.18c0 1.55-1.26 2.81-2.81 2.81s-2.81-1.26-2.81-2.81 1.26-2.81 2.81-2.81 2.81 1.26 2.81 2.81Zm-12-26.43c1.86 0 3.37-1.51 3.37-3.37s-1.51-3.37-3.37-3.37-3.37 1.51-3.37 3.37 1.51 3.37 3.37 3.37Zm1.67 9.68a3.443 3.443 0 0 0 2.93 1.61H35v-3.37h-4.44l-4.13-5.77c-.71-.93-2.53-1.18-3.91-.74 0 0-5.94 2.41-6.9 2.81a3.285 3.285 0 0 0-2.02 3.02l-.02 5.14h3.37l-.04-5.05s2.37-.99 3.45-1.43l-3.15 14.48-6.32-1.66-.87 3.26 8.03 2.11a1.632 1.632 0 0 0 1.31-.19c.39-.24.67-.63.77-1.08l1.55-7.09c.07.02 3.91 3.46 3.91 3.46v10.05h3.37V31.86c0-.95-.42-1.85-1.15-2.46l-2.5-2.42c.25-1.25.78-3.9 1.22-6.08l1.07 1.51Z"/></svg>
