<svg xmlns="http://www.w3.org/2000/svg" viewBox="0 0 48 48"><title>Sportkleding muziekinstrumenten</title><path d="M27.01 30V16.98l1.98-.02h.99v-1L30 9.28v-.72l-.68-.23-6.82-2.28-.15-.05h-2.68l-.29.28-.29.28c-.26.26-.64.41-1.04.41s-.78-.15-1.04-.4l-.29-.28-.29-.28h-2.72l-.15.05-6.84 2.28-.69.23v8.46l1.01-.01L9.02 17v14.01h18.01v-1Zm-.03-16.02-2.96.03V28H12V13.96l-2.99.03v-3.27L14.17 9h1.04c1.6 1.29 4.04 1.29 5.64 0h1l5.14 1.72v3.26Zm13.18 16.65c-.53-.6-.68-1.22-.46-1.9.25-.77.31-1.58.19-2.39-.29-1.85-1.82-3.23-3.9-3.68V11.02h-3v11.63c-2.47.51-4.09 2.25-4.09 4.62 0 .57.09 1.13.28 1.67.2.58.08 1.21-.34 1.67-1.47 1.63-2.19 4.18-1.8 6.34.41 2.3 2.04 5.04 7.44 5.04 6.17 0 7.46-3.58 7.46-6.58 0-1.75-.65-3.48-1.78-4.76ZM36 37.98h-3.04v-2H36v2Zm-1.56-7c-1.1 0-2-.9-2-2s.9-2 2-2 2 .9 2 2-.9 2-2 2ZM21.99 13v3l-2.79 7h-3.21l2.68-7h-3.68v-3h7Z"/></svg>
