<svg xmlns="http://www.w3.org/2000/svg" viewBox="0 0 48 48"><title>Station stoptrein</title><path d="M8.05 12c0-1.65 1.35-3 3-3s3 1.35 3 3-1.35 3-3 3-3-1.35-3-3Zm26.43-6C38.63 6 42 9.37 42 13.52v14.03c0 3.29-2.44 6-5.6 6.45H23.6a6.511 6.511 0 0 1-5.6-6.44V13.54C18 9.39 21.39 6 25.54 6h8.94Zm0 3h-8.94A4.55 4.55 0 0 0 21 13.54V27.5c0 1.93 1.57 3.5 3.5 3.5h10.99c1.94 0 3.51-1.57 3.51-3.51V13.52C39 11.02 36.98 9 34.48 9Zm-21.41 7H8.84C7.23 16.11 6 17.44 6 19.15V25h2v8h6v-8h2v-5.85c0-1.75-1.27-3.11-2.93-3.15Zm16.91 8.97a2.02 2.02 0 1 0 .002 4.042 2.02 2.02 0 0 0-.002-4.042ZM25.03 22h9.9l2.1-8h-14.1l2.1 8Zm-2.48 20h-3.53l3.44-6h3.53l-3.44 6Zm10.58-6h3.53l3.44 6h-3.53l-3.44-6Z"/></svg>
