<svg xmlns="http://www.w3.org/2000/svg" viewBox="0 0 48 48"><title>Station sneltrein</title><path d="M34.96 15.01h-3.43v-2.56h1.95c.82 0 1.48.66 1.48 1.48v1.08Zm-24.12-.19c1.65 0 3-1.35 3-3s-1.35-3-3-3-3 1.35-3 3 1.35 3 3 3ZM13.07 16H8.84C7.23 16.11 6 17.44 6 19.15V25h2v8h6v-8h2v-5.85c0-1.75-1.27-3.11-2.93-3.15Zm16.35-.99v-2.56h-1.86c-.85 0-1.53.69-1.53 1.54v1.02h3.39ZM26.5 25c-.83 0-1.5.67-1.5 1.5s.67 1.5 1.5 1.5 1.5-.67 1.5-1.5-.67-1.5-1.5-1.5Zm7.98.02c-.83 0-1.5.67-1.5 1.5s.67 1.5 1.5 1.5 1.5-.67 1.5-1.5-.67-1.5-1.5-1.5Zm7.57-4.69-.03 5.62c0 3.38-2.11 6.28-5.08 7.47 0 0-1.56.59-2.95.59h-6.96c-1.57 0-2.69-.5-2.69-.5-3.11-1.13-5.35-4.09-5.35-7.58v-5.62c0-2.8.77-4.56 1.72-5.68v-.7c0-3.83 3.13-6.95 6.98-6.95h5.66c3.85 0 6.98 3.12 6.98 6.95v.69c.88 1.08 1.72 2.85 1.72 5.7Zm-3-.02c0-2.58-.9-3.92-1.72-4.37v-2c0-2.18-1.78-3.95-3.98-3.95h-5.66c-2.2 0-3.98 1.77-3.98 3.95V16c-.86.48-1.72 1.64-1.72 4.32v5.62c0 2.8 2.29 5.07 5.11 5.07h6.83c2.81 0 5.09-2.26 5.09-5.06l.03-5.63Zm-8.57-2.32c-.83 0-1.5.67-1.5 1.5s.67 1.5 1.5 1.5 1.5-.67 1.5-1.5-.67-1.5-1.5-1.5Zm-3.51 17.97h-3.53l-3.43 6.02h3.53l3.43-6.02Zm10.59 6.02h3.53l-3.43-6.02h-3.53l3.43 6.02Z"/></svg>
