<svg xmlns="http://www.w3.org/2000/svg" viewBox="0 0 48 48"><title>Stookverbod</title><path d="M41 13.02c0 3.87-3.13 7-7 7s-7-3.13-7-7 3.13-7 7-7 7 3.13 7 7Zm-5.59 0 2.47-2.47-1.41-1.41L34 11.61l-2.47-2.47-1.41 1.41 2.47 2.47-2.47 2.47 1.41 1.41L34 14.43l2.47 2.47 1.41-1.41-2.47-2.47Zm-19.38 29h16v-3h-16v3ZM34 22a9 9 0 0 1-8.34-12.38c-1.02-1.51-2.33-2.82-4.01-3.63.23 3.8.79 8.53-5.28 15.01 0-3.22-2.11-5.36-2.11-5.36 0 7.51-7.66 17.07 5.28 20.38-3.29-6.12-.12-7.43 1.25-12.72.82 1.11 1.41 3.09 1.14 4.2 1.92-2.51 1.88-7.45 1.88-9.68 4.11 2.78 7.74 11.24 4.18 18.2 7.53-3.19 8.89-8.85 7.54-14.15-.5.09-1.01.14-1.53.14Z"/></svg>
