<svg xmlns="http://www.w3.org/2000/svg" viewBox="0 0 48 48"><title>Subsidie</title><path d="M34.12 16.98c0-1.61 1.31-2.92 2.92-2.92s2.92 1.31 2.92 2.92-1.31 2.92-2.92 2.92-2.92-1.31-2.92-2.92Zm-26 0c0-1.61 1.31-2.92 2.92-2.92s2.92 1.31 2.92 2.92-1.31 2.92-2.92 2.92-2.92-1.31-2.92-2.92Zm3.92 11.01-.04.98H6.06v-5.44c0-1.32 1.19-2.48 2.52-2.48h4.84c.77 0 1.47.39 1.94.98-2.01 1.22-3.32 3.41-3.32 5.97Zm29.98-4.46L42 28.07a9.988 9.988 0 0 0-7.18-4.01 6.815 6.815 0 0 0-2.1-2.04c.47-.58 1.17-.98 1.94-.98h4.85c1.33 0 2.51 1.16 2.51 2.48ZM34 25.99c-4.41 0-8 3.59-8 8s3.59 8 8 8 8-3.59 8-8-3.59-8-8-8Zm2 7v2h-3.57c.25.62.71 1.13 1.34 1.36.48.18 1.01.18 1.48 0l.93-.35.7 1.87-.93.35c-.47.18-.96.26-1.45.26s-.98-.09-1.45-.26c-1.42-.54-2.39-1.79-2.71-3.23h-1.36v-2h1.37c.04-.16.06-.32.11-.48.49-1.48 1.64-2.56 3.16-2.93.81-.19 1.66-.08 2.44.22l.83.31-.71 1.87-.93-.35c-.54-.2-1.13-.18-1.65.07-.53.25-.94.71-1.17 1.29h3.56Zm-19.02 3.04 3-.03v6.01h-3v-3h-3v-11c0-2.71 2.08-4.83 4.74-4.98l10.31-.02c1.21.03 2.3.47 3.14 1.18a9.85 9.85 0 0 0-4.15 1.82h-9.04c-1 0-2.01.99-2.01 1.99v8.04ZM24 5.85c-4.42 0-8 3.58-8 8s3.58 8 8 8 8-3.58 8-8-3.58-8-8-8Zm0 13c-2.64 0-4.79-2.07-4.97-4.67.21-1.67 1.7-1.63 3.82-1.66 1.67-.02 3.79-.06 5.08-1.72a4.92 4.92 0 0 1 1.06 3.04c0 2.76-2.24 5-5 5Z"/></svg>
