<svg xmlns="http://www.w3.org/2000/svg" viewBox="0 0 48 48"><title>Uittreksel</title><path d="M15 15v-2h14v2H15Zm8 8h-8v2h8v-2Zm-4 8h-8l-.02-22H33v12.1c.51-.1 1.04-.16 1.58-.16.48 0 .95.05 1.41.13V9c0-1.66-1.34-3-3-3H11C9.34 6 8 7.34 8 9v24.03L16.97 42l12.03.03V39H19v-8Zm21-2.49c0 3.02-2.46 5.48-5.48 5.48s-5.48-2.46-5.48-5.48 2.46-5.48 5.48-5.48S40 25.49 40 28.51Zm-3 0a2.48 2.48 0 1 0-4.96 0 2.48 2.48 0 0 0 4.96 0Zm-6 6.76V42l3.43-2.02L38 42v-6.66c-1.04.49-2.2.78-3.43.78s-2.5-.31-3.57-.85ZM15 20h14v-2H15v2Z"/></svg>
