<svg xmlns="http://www.w3.org/2000/svg" viewBox="0 0 48 48"><title>Uw wijk</title><path d="M16.47 31.48c0-2.49-2.01-4.5-4.5-4.5s-4.5 2.01-4.5 4.5 2.01 4.5 4.5 4.5 4.5-2.01 4.5-4.5Zm-6.98 0c0-.26.05-.5.12-.74.16.02.31.03.47.03 1.15 0 2.19-.44 2.98-1.16.03.03.05.06.08.09.32.32.69.56 1.07.75.15.32.23.66.23 1.03 0 1.36-1.11 2.47-2.48 2.47s-2.48-1.11-2.48-2.47Zm8.5 8.09V42H6v-2.15C6 38.27 7.31 37 8.98 37h6.04c1.56 0 2.83 1.13 2.99 2.57Zm16.93-8.59-1.94 2.4-.98-1.04v9.65H20v-2.68c-.02-.11-.05-.21-.07-.32H29v-9.1l-5.04-4.11-5.56 4.66s-.28-1.86-1.27-2.97l6.8-5.68 5.06 4.13V24h3v4.36l2.93 2.62ZM34.99 19v-6.13l-4.48-7.05-4.52 7.05v5.04l-4.08-3.92H6.02L12 19.91v4.98a6.5 6.5 0 0 1 3.67 1.16l6.98-5.8 1.27-1.05 1.28 1.04 2.16 1.75h6.65v5.53l2.26 2.02 1.42 1.27-1.2 1.48-1.94 2.39-.54.66v3.65h8v-20h-7Zm-4.5-3.03c-.83 0-1.5-.67-1.5-1.5s.67-1.5 1.5-1.5 1.5.67 1.5 1.5-.67 1.5-1.5 1.5ZM25.99 32v4h-5v-4h5Z"/></svg>
