<svg xmlns="http://www.w3.org/2000/svg" viewBox="0 0 48 48"><title>Vacatures</title><path d="M39 13h-9v-1.98c0-1.59-1.27-2.91-3-3.02h-6.1c-1.63.11-2.9 1.43-2.9 3.02V13H9c-1.66 0-3 1.34-3 3v6.98c0 .88.39 1.67 1 2.22V37c0 1.66 1.34 3 3 3h28c1.66 0 3-1.34 3-3V25.2c.61-.55 1-1.34 1-2.22V16c0-1.66-1.34-3-3-3Zm-18-1.95s.04-.05 0-.05h5.9c.06 0 .09.04.1.05V13h-6v-1.95ZM38 37H10V26h11v.04c0 1.08.88 1.96 1.96 1.96h2.09c1.08 0 1.96-.88 1.96-1.96V26h11v11ZM23 26v-3h2v3h-2Zm16-3H27v-.04c0-1.08-.88-1.96-1.96-1.96h-2.09c-1.08 0-1.96.88-1.96 1.96V23H9v-7h30v7Z"/></svg>
