<svg xmlns="http://www.w3.org/2000/svg" viewBox="0 0 48 48"><title>Vacatures</title><path d="M39 13h-7.9v-2.98c0-1.59-1.27-2.91-3-3.02h-8.21c-1.63.11-2.9 1.43-2.9 3.02V13H9.01c-1.66 0-3 1.34-3 3v6.99c0 .88.39 1.67 1 2.22V38c0 1.66 1.34 3 3 3h28c1.66 0 3-1.34 3-3V25.21c.61-.55 1-1.34 1-2.22V16c0-1.66-1.34-3-3-3Zm-19.02-2.95s.04-.05 0-.05H28c.06 0 .09.04.1.05V13h-8.11v-2.95ZM38 38H10V26.01L21 28v.04c0 1.08.88 1.96 1.96 1.96h2.09c1.08 0 1.96-.88 1.96-1.96V28l11-1.99V38ZM23 28v-3h2v3h-2Zm16-4.99L27 25v-.04c0-1.08-.88-1.96-1.96-1.96h-2.09c-1.08 0-1.96.88-1.96 1.96V25l-12-1.99V16h30v7.01Z"/></svg>
