<svg xmlns="http://www.w3.org/2000/svg" viewBox="0 0 48 48"><title>Veilige wijk</title><path d="m34.93 31.35-1.94 2.53-.98-1.09v9.22H16v-.1c1.17-.86 2.06-1.83 2.72-2.9H29v-9.03l-5.05-4.08L20 29.16v-3.15h-.98l4.92-4.33L29 26.02V24h3v4.59l2.93 2.76ZM21 32v4h5v-4h-5Zm21-13v20h-8v-3.37l.55-.68 2-2.46 1.24-1.52-1.46-1.31-2.32-2.07v-5.6h-6.82l-2.22-1.8-1.31-1.07-1.3 1.08-6.95 5.79h-3.4l.02-6.03L6 13.99h15.93l4.08 3.92v-5.04l4.52-7.05 4.48 7.05V19h7Zm-10.02-4.48c0-.83-.67-1.5-1.5-1.5s-1.5.67-1.5 1.5.67 1.5 1.5 1.5 1.5-.67 1.5-1.5ZM17.96 34.49c0 3.43-2.2 5.82-5.98 7.5C8.2 40.31 6 38.04 6 34.61L6.04 28H18l-.04 6.48Zm-1.41-2.22-1.4-1.4-4.2 4.2-2.11-2.1-1.41 1.4 3.5 3.5 5.6-5.6Z"/></svg>
