<svg xmlns="http://www.w3.org/2000/svg" viewBox="0 0 48 48"><title>Vergoeding energiekosten</title><path d="M42.01 8.98v3h-3v3h-3v-3h-3v-3h3v-3h3v3h3Zm0 17v8.01c0 1.1-.89 1.99-1.99 2h-1.01v2c0 2.21-1.79 3.99-3.99 3.99H8.01a2 2 0 0 1-2-2V19.97a2 2 0 0 1 2-2h11.85a6.002 6.002 0 0 1-5.71-7.3c.48-2.25 2.3-4.07 4.55-4.55 3.88-.82 7.31 2.13 7.31 5.86 3.3 0 5.99 2.68 6 5.98h3c2.21 0 4 1.79 4 4v2.02h1a2 2 0 0 1 2 2Zm-19-8.01h6c0-1.65-1.35-2.98-3-2.98s-2.99 1.34-3 2.98Zm-2.99-2.99c1.66 0 3-1.34 3-3s-1.34-3-3-3-3 1.34-3 3 1.34 3 3 3Zm15.99 21.01h-4.93c-1.66 0-3-1.34-3-3v-6.01c0-1.66 1.34-3 3-3h4.93v-2.01c0-.55-.45-1-1-1H9v18.01h26.01c.55 0 .99-.44.99-.99v-2Zm3-9.01h-8.02v6.01h8.02v-6.01Zm-5 4.5c.83 0 1.5-.67 1.5-1.5s-.67-1.5-1.5-1.5-1.5.67-1.5 1.5.67 1.5 1.5 1.5ZM24.12 28h-3.85l2.33-4h-4.56L16 31h2.79l-1.94 5h2.05l5.21-8Z"/></svg>
