<svg xmlns="http://www.w3.org/2000/svg" viewBox="0 0 48 48"><title>Vergaderen digitaal</title><path d="M39 7.98H9c-1.66 0-3 1.34-3 3v20c0 1.66 1.34 3 3 3h11v3h-2.24c-1.53 0-2.76 1.42-2.76 3l18 .03c0-1.67-1.31-3.03-2.93-3.03H28v-3h11c1.66 0 3-1.34 3-3v-20c0-1.66-1.34-3-3-3Zm0 23H9v-20h30v20Zm-6.03-16.72c-.46-.16-.95-.27-1.47-.27-.47 0-.92.09-1.35.23-.02 0-.05.02-.08.02-1.78.6-3.07 2.26-3.07 4.25 0 2.49 2.01 4.5 4.5 4.5s4.5-2.01 4.5-4.5c0-1.96-1.26-3.61-3.01-4.23h-.02ZM34 18.49a2.5 2.5 0 0 1-5 0c0-.21.03-.41.08-.6.3.07.61.11.93.11 1.25 0 2.37-.52 3.18-1.34.49.46.81 1.1.81 1.83Zm2.96 8.02v.45s-.01.03-.03.03H26.07s-.03-.01-.03-.03v-.17c0-1.55 1.3-2.8 2.96-2.8h5c1.55 0 2.81 1.11 2.96 2.52ZM16.5 22.99c2.49 0 4.5-2.01 4.5-4.5 0-1.96-1.26-3.61-3.01-4.23h-.02c-.46-.16-.95-.27-1.47-.27-.47 0-.92.09-1.35.23-.02 0-.05.02-.08.02-1.78.6-3.07 2.26-3.07 4.25 0 2.49 2.01 4.5 4.5 4.5Zm-2.42-5.1c.3.07.61.11.93.11 1.25 0 2.37-.52 3.18-1.34.49.46.81 1.1.81 1.83a2.5 2.5 0 0 1-5 0c0-.21.03-.41.08-.6Zm7.88 8.62v.45s-.01.03-.03.03H11.07s-.03-.01-.03-.03v-.17c0-1.55 1.3-2.8 2.96-2.8h5c1.55 0 2.81 1.11 2.96 2.52Z"/></svg>
