<svg xmlns="http://www.w3.org/2000/svg" viewBox="0 0 48 48"><title>Verkeerslicht</title><path d="M23.77 32h.4c3.78 0 6.84-3.06 6.84-6.84V12.83c0-3.78-3.06-6.84-6.84-6.84h-.4c-3.78 0-6.84 3.06-6.84 6.84v12.33c0 3.78 3.06 6.84 6.84 6.84Zm.2-21.31c1.09 0 1.96.88 1.96 1.96s-.88 1.96-1.96 1.96-1.96-.88-1.96-1.96.88-1.96 1.96-1.96Zm0 6.31c1.09 0 1.96.88 1.96 1.96s-.88 1.96-1.96 1.96-1.96-.88-1.96-1.96.88-1.96 1.96-1.96Zm0 6.31c1.09 0 1.96.88 1.96 1.96s-.88 1.96-1.96 1.96-1.96-.88-1.96-1.96.88-1.96 1.96-1.96ZM26.01 34v3h-4v-3h4Zm.02 5h-4.05c-1.09 0-1.97.88-1.97 1.97V42h8v-1.02c0-1.1-.89-1.98-1.98-1.98Z"/></svg>
