<svg xmlns="http://www.w3.org/2000/svg" viewBox="0 0 48 48"><title>Verkiezingen</title><path d="M18.41 33.49c.44 0 .88-.07 1.31-.21l1.25-.42c.72.4 1.07 1.26.81 2.07-.3.92-1.29 1.42-2.21 1.11l-2.68-.88v.26a1.752 1.752 0 0 1-1.75 1.71c-.6 0-1.17-.31-1.49-.84l-2.83-4.64c-.5-.82-.24-1.9.58-2.4.83-.5 1.9-.24 2.4.58 0 0 .83 1.41.87 1.4.11.23.25.33.41.54a4.122 4.122 0 0 0 3.33 1.71Zm23.2-20.69-6.36-6.36c-.59-.59-1.54-.59-2.13 0L18.56 21.03l-1.85 9.4c-.1.52.36.99.88.88l9.44-1.82L41.6 14.92c.59-.59.59-1.54 0-2.12ZM24.97 27.32h.01l-.07.06.06-.06-.1.02-2.28.5-2.44-2.44.52-2.27h-.02L34.18 9.6l1.41 1.41-12.25 12.28 1.36 1.46L37 12.43l1.42 1.42-13.45 13.47Zm2.91 4.12a10 10 0 0 1-10.59 8.54c-4.91-.34-8.95-4.38-9.28-9.3-.36-5.37 3.53-9.89 8.63-10.58l2.1-2.1H6v24h24V29.32l-2.12 2.12Z"/></svg>
