<svg xmlns="http://www.w3.org/2000/svg" viewBox="0 0 48 48"><title>Verslaving</title><path d="M22.09 34.01H35m5.15-8.02-8.67-8.67c-2.47-2.47-6.49-2.47-8.97 0l-.2.2c-2.47 2.47-2.47 6.49 0 8.97l1.88 1.88c-.35.24-.68.51-.99.82-2.93 2.93-2.93 7.69 0 10.61 1.46 1.46 3.38 2.19 5.31 2.19s3.84-.73 5.31-2.19c.82-.82 1.4-1.78 1.76-2.81 1.59-.03 3.17-.63 4.38-1.84l.2-.2c2.47-2.47 2.47-6.49 0-8.97Zm-15.72-1.62c-1.3-1.3-1.3-3.42 0-4.72l.2-.2c1.3-1.3 3.42-1.3 4.72 0l3.22 3.22-4.37 4.35c-.34.01-.69.05-1.02.11l-2.75-2.75Zm7.39 6.82c.85.85 1.38 2.02 1.38 3.31 0 .75-.19 1.44-.5 2.07l-6.26-6.26c.63-.31 1.32-.5 2.07-.5 1.29 0 2.46.53 3.31 1.38Zm-8 3.32c0-.75.19-1.44.5-2.07l6.26 6.26c-.63.31-1.32.5-2.07.5a4.69 4.69 0 0 1-4.69-4.69Zm14.21-1.67-.2.2c-.52.52-1.17.83-1.85.93a7.437 7.437 0 0 0-2.17-4.77c-.62-.62-1.32-1.1-2.07-1.46l2.97-2.95 3.32 3.32c1.3 1.3 1.3 3.42 0 4.72ZM14.01 17.36V6h-4v11.35c-2.33.82-4 3.04-4 5.65v19h12V23a5.99 5.99 0 0 0-4-5.65Zm1 21.65h-6v-10h6v10Z"/></svg>
