<svg xmlns="http://www.w3.org/2000/svg" viewBox="0 0 48 48"><title>Vervoersvoorziening</title><path d="M15.66 34h3.15a6.483 6.483 0 0 1-7.43 4.94c-2.65-.45-4.8-2.59-5.25-5.24A6.494 6.494 0 0 1 11 26.27v3.17a3.479 3.479 0 0 0-1.88 3.92 3.46 3.46 0 0 0 2.59 2.58c1.73.39 3.3-.53 3.95-1.95Zm-.15-13.5c1.38 0 2.51-1.12 2.51-2.51s-1.12-2.51-2.51-2.51S13 16.6 13 17.99s1.12 2.51 2.51 2.51Zm5.82 8.5H18v-4.18c0-1.17-.74-2.28-1.88-2.55-1.65-.4-3.12.85-3.12 2.43v4.79c0 1.38 1.13 2.51 2.51 2.51H21v7h3v-7.33C24 30.2 22.8 29 21.33 29ZM39 27h3v-9.91l-1.99-6.03c-.44-1.23-1.64-2.06-3-2.06h-8.96c-1.36 0-2.56.83-3 2.08l-2.04 6.01V27h3v-3h13v3ZM27.74 12h9.47l1.23 4H26.5l1.24-4Zm.26 8h-2v-2h2v2Zm11 0h-2v-2h2v2Z"/></svg>
