<svg xmlns="http://www.w3.org/2000/svg" viewBox="0 0 48 48"><title>Vervoersvoorziening</title><path d="M15.66 34h3.15a6.483 6.483 0 0 1-7.43 4.94c-2.65-.45-4.8-2.59-5.25-5.24A6.494 6.494 0 0 1 11 26.27v3.17a3.479 3.479 0 0 0-1.88 3.92 3.46 3.46 0 0 0 2.59 2.58c1.73.39 3.3-.53 3.95-1.95Zm-.15-13.5c1.38 0 2.51-1.12 2.51-2.51s-1.12-2.51-2.51-2.51S13 16.6 13 17.99s1.12 2.51 2.51 2.51Zm5.82 8.5H18v-4.18c0-1.17-.74-2.28-1.88-2.55-1.65-.4-3.12.85-3.12 2.43v4.79c0 1.38 1.13 2.51 2.51 2.51H21v7h3v-7.33C24 30.2 22.8 29 21.33 29ZM42 23v-7.27c-.01-.74-.42-1.38-1.03-1.73.03-.28-1.03-5.59-1.03-5.59A2.999 2.999 0 0 0 37 6h-9c-1.43 0-2.66 1.01-2.94 2.41 0 0-1.08 5.61-1.03 5.59-.61.34-1.03.98-1.03 1.72V23h3v-3h13v3h3ZM28 9h9l1 5H27l1-5Zm-1 9c-.55 0-1-.45-1-1s.45-1 1-1 1 .45 1 1-.45 1-1 1Zm11 0c-.55 0-1-.45-1-1s.45-1 1-1 1 .45 1 1-.45 1-1 1Z"/></svg>
