<svg xmlns="http://www.w3.org/2000/svg" viewBox="0 0 48 48"><title>Wie is wie</title><path d="m41.41 29.32-7.25-7.25a1.983 1.983 0 0 0-2.82 0l-.07.07-1.66-1.66c1.13-1.5 1.8-3.36 1.8-5.38 0-4.96-4.04-9-9-9s-9 4.04-9 9 4.04 9 9 9c1.86 0 3.59-.57 5.03-1.54l1.72 1.72c-.71.79-.69 1.99.07 2.75l7.25 7.25c.39.39.9.59 1.41.59s1.02-.2 1.41-.59l2.12-2.12a1.983 1.983 0 0 0 0-2.82ZM22.4 21.19c-3.36 0-6.1-2.73-6.1-6.1s2.74-6.1 6.1-6.1 6.1 2.73 6.1 6.1-2.74 6.1-6.1 6.1ZM16.01 35H8.97c-1.67 0-2.98 1.27-2.98 2.83V40s.01 2 .03 2h12.94l.03-2v-2.45C18.84 36.12 17.57 35 16 35ZM8 29.5c0-1.98 1.29-3.65 3.07-4.25.03 0 .05-.02.08-.02.43-.14.88-.23 1.35-.23.52 0 1.01.11 1.47.27h.02c1.75.62 3.01 2.27 3.01 4.23 0 2.49-2.01 4.5-4.5 4.5S8 31.99 8 29.5Zm2 0a2.5 2.5 0 0 0 5 0c0-.72-.31-1.37-.81-1.83-.81.83-1.93 1.34-3.18 1.34-.32 0-.63-.05-.93-.11-.05.19-.08.39-.08.6Z"/></svg>
