<svg xmlns="http://www.w3.org/2000/svg" viewBox="0 0 48 48"><title>Wijkteam</title><path d="M28.98 22.04c4.42 0 8.02-3.6 8.02-8.02S33.4 6 28.98 6s-8.02 3.6-8.02 8.02 3.6 8.02 8.02 8.02Zm-4.6-9.35c.28.03.56.06.84.06 2.24 0 4.26-.86 5.79-2.26.05.06.09.12.15.17a7.61 7.61 0 0 0 2.65 1.72c.16.49.27 1.01.27 1.55 0 2.72-2.22 4.94-4.94 4.94s-4.94-2.22-4.94-4.94c0-.43.07-.85.18-1.25ZM40.8 33.83s-1.53-6.12-1.56-6.19c-.41-1.24-1.51-4.53-4.82-4.53l-10.88-.08c-3.31 0-4.41 3.29-4.82 4.53-.02.07-1.56 6.19-1.56 6.19-.24.95 0 1.97.66 2.7.57.64 1.39 1.01 2.23 1.01.12 0 2.05-.23 2.05-.23v4.8h13.93v-4.69s1.74.21 1.86.21c.85 0 1.66-.36 2.23-1.01.65-.74.9-1.75.66-2.7ZM22.64 31.4s-.54-2.5 2-2.5c1 0 3.04.71 3.04.71l-5.04 1.79Zm12.71-.44-4.71-1s1.32-1.39 2.9-1.39c.25 0 .51.04.77.12 1.89.6 1.03 2.27 1.03 2.27ZM9.78 15.27c0-1.81 1.47-3.27 3.27-3.27s3.27 1.47 3.27 3.27-1.47 3.27-3.27 3.27-3.27-1.47-3.27-3.27Zm7.05 11.65c-.02.08-.04.14-.78 3.07H7.03l-.04-6.97c0-1.59 1.42-2.97 3.01-2.97h5.98c1.59 0 2.99 1.38 2.99 2.97 0 0-1.37 1.05-2.15 3.9Z"/></svg>
