<svg xmlns="http://www.w3.org/2000/svg" viewBox="0 0 48 48"><title>WOZ-waarde</title><path d="M18.1 22h7.85v5.99H18.1V22Zm23.89 13.01a6.99 6.99 0 1 1-13.981-.001 6.99 6.99 0 0 1 13.981.001Zm-4.01 3.47-.7-1.08c-.43.4-1.04.6-1.74.6-.98 0-1.85-.44-2.31-1.35h2.01l.51-1.1h-2.83c-.01-.09-.03-.24-.03-.46 0-.2.01-.34.03-.44h3.2l.53-1.09h-3.44c.46-.96 1.38-1.41 2.34-1.41.61 0 1.15.14 1.56.44l.58-1.16c-.56-.39-1.26-.58-2.14-.58-1.68 0-3.3.96-3.9 2.72h-1.18v1.09h.96c-.01.13-.03.25-.03.45 0 .16.01.34.03.45h-.96v1.1h1.19c.6 1.73 2.19 2.68 3.88 2.68 1 0 1.85-.35 2.44-.85Zm-25-5.49v-15.1l8.98-7.86 9.02 7.85v9.06c.93-.46 1.94-.77 3-.88V20.5l2.05 1.78L38 20.02l-4.02-3.5v-5.53h-3v2.92l-9.02-7.85L6.04 19.98l1.98 2.26L10 20.51v15.48h16.04a8.22 8.22 0 0 1-.06-.99c0-.69.08-1.36.23-2.01H12.99Z"/></svg>
