<svg xmlns="http://www.w3.org/2000/svg" viewBox="0 0 48 48"><title>WOZ-waarde</title><path d="m42 39.6-.44.3A6.328 6.328 0 0 1 38 41.01c-1.81 0-3.6-.8-4.96-2.35A8.133 8.133 0 0 1 31.51 36h-2.52v-2h2.07a9.55 9.55 0 0 1 0-2h-2.08v-2h2.52c.32-.92.8-1.79 1.43-2.54 2.26-2.69 5.8-3.24 8.61-1.35l.43.29-1.17 1.62-.37-.25c-1.93-1.3-4.38-.9-5.96.98-.32.38-.57.81-.79 1.26h5.31v2h-5.93c-.09.66-.09 1.34 0 2h5.92v2h-5.3c.23.48.5.94.86 1.34 1.6 1.83 3.96 2.19 5.89.89l.38-.26 1.17 1.62Zm-29.01-6.61v-15.1l8.98-7.86 9.02 7.85v9.33c1.22-2.43 3.01-3.08 3.01-3.08v-3.64l2.04 1.78 1.97-2.26-4.02-3.5v-5.53h-3v2.92l-9.02-7.85L6.04 19.99l1.98 2.26L10 20.52V36l17.01.01v-3h-2.95L13 33ZM18.11 28h7.85v-5.99h-7.85V28Z"/></svg>
