<svg xmlns="http://www.w3.org/2000/svg" viewBox="0 0 48 48"><title>Zelfbeheer tegel</title><path d="M26.7 17.41a6.022 6.022 0 0 0-4.82-4.1 6.02 6.02 0 0 0-10.76 0c-2.23.34-4.11 1.9-4.82 4.09-.5 1.53-.37 3.16.36 4.59.3.58.68 1.1 1.13 1.55-.35 2.17.5 4.46 2.4 5.84 1.04.75 2.26 1.15 3.54 1.15.45 0 .89-.06 1.33-.15l-.02 7.34c-1.58-3.38-5-5.74-8.97-5.74 0 5.15 3.94 9.4 8.95 9.88v.02h.54c.14.01.27.03.41.03.07 0 .14 0 .2-.01l1.84.03V30.4c.41.09.82.14 1.24.14 1.28 0 2.5-.4 3.54-1.15 1.3-.95 2.16-2.34 2.41-3.93.1-.65.1-1.29 0-1.92 1.56-1.55 2.22-3.91 1.49-6.14Zm-4.8 4.73c-.21.07-.42.11-.62.13.16.14.3.3.43.47.98 1.35.68 3.24-.67 4.22a3.015 3.015 0 0 1-4.22-.67c-.13-.18-.23-.36-.32-.55-.08.19-.19.38-.32.55-.59.81-1.51 1.25-2.45 1.25-.62 0-1.24-.19-1.77-.58a3.022 3.022 0 0 1-.67-4.22c.13-.18.27-.33.43-.47a3.02 3.02 0 0 1-2.56-3.94c.41-1.28 1.6-2.09 2.87-2.09a3.014 3.014 0 0 1 1.51.41c-.04-.2-.07-.42-.07-.63 0-1.67 1.35-3.02 3.02-3.02a3.017 3.017 0 0 1 2.95 3.66 3.022 3.022 0 0 1 1.51-.41c1.27 0 2.46.81 2.88 2.09a3.02 3.02 0 0 1-1.94 3.81Zm-2.48-1.35c0 1.66-1.34 3-3 3s-3-1.34-3-3 1.34-3 3-3 3 1.34 3 3ZM37 22.08v-2.09c.55 0 1-.45 1-1v-10c0-1.66-1.34-3-3-3h-2c-1.66 0-3 1.34-3 3v10c0 .55.45 1 1 1v2.09c-2.83.48-5 2.94-5 5.91 0 4.04 3.19 14 8 14s8-9.96 8-14c0-2.97-2.17-5.43-5-5.91Zm-3 17.91c-2.92 0-6-8.33-6-12 0-2.21 1.79-4 4-4 .55 0 1-.45 1-1v-3h2v9c0 .54-.24 1-.46 1.11-.49.25-.69.85-.43 1.35.18.35.53.54.89.54.15 0 .31-.04.46-.11.94-.48 1.54-1.61 1.54-2.89v-4.86c1.72.45 3 2 3 3.86 0 3.67-3.08 12-6 12Z"/></svg>
