<svg xmlns="http://www.w3.org/2000/svg" viewBox="0 0 48 48"><title>Paspoort</title><path d="M35.99 13v-.03c0-.81-.32-1.57-.89-2.14-.57-.57-1.33-.88-2.13-.88h-.01l-17.91.07h-.03C14.46 10.02 14 9.56 14 9s.46-1.02 1.02-1.02h.03l17.91-.01C32.8 7.03 32 6 30.06 6H15c-1.66 0-3 1.35-3 3.01L12.04 39c0 1.66 1.35 3 3 3h17.98c1.65 0 2.98-1.34 2.98-2.98V13h-.01ZM29 36H19c-.55 0-1-.45-1-1s.45-1 1-1h10c.55 0 1 .45 1 1s-.45 1-1 1Zm1-14-1 2-3 .3v.89l1 1.33v1.73l-1 .74v.5l1 .5-.5 1H25v-1.07l.5-1.61-1.5-.54-.5-.78h-2L20 28.31l-2-1.61.5-1.07 1.5.54 1-1.07-.99-.6v-.99l1.99-5 1.5.5s-.12.73-.09.8c.03.07.5.95.5.95l-.61 1.05 1.65-.83.47-1.91-1.21-.22.2-1.62.91-.91 3.17-.32.5 1h1l-.5 3H29v1h1v1Z"/></svg>
