<svg xmlns="http://www.w3.org/2000/svg" viewBox="0 0 48 48"><title>Paspoort ID-kaart gecombineerd</title><path d="m17.97 16.85 1.14.22-.44 1.91-1.55.83.57-1.05-.47-.95c-.03-.07.08-.8.08-.8l-1.41-.5-1.88 5v1.09l.92.58-.92 1.03-1.38-.52-.46 1.03L14.01 26l1.38-1h1.84l.46.75.3.11V31h-5c-.55 0-1 .44-1 1 0 .55.45 1 1 1h5v6H8.04C6.91 39 6 38.09 6 36.96V12.29h.02V8.94c0-1.63 1.32-2.95 2.95-2.95h15.02c1.3 0 2.39.84 2.8 2H9c-.56 0-1 .44-1 1s.44 1 1 1h17.7c.61 0 1.19.24 1.62.67.44.43.68 1.01.68 1.63V23h-8l1-2h1v-2h-1v-1h.94l.47-3h-.94L22 14l-2.99.32-.85.91-.19 1.62ZM42 27.53v11.94c0 1.4-1.13 2.53-2.53 2.53H22.54c-1.4 0-2.54-1.14-2.54-2.54V27.04c0-1.12.91-2.03 2.03-2.03h7.96v2c0 .55.45 1 1 1s1-.45 1-1v-2h7.48A2.54 2.54 0 0 1 42 27.54Zm-16.23 4.29c0 .97.78 1.75 1.74 1.75s1.74-.78 1.74-1.75-.78-1.75-1.74-1.75-1.74.78-1.74 1.75ZM31 36c-.17-1.08-2.38-1.62-3.5-1.62s-3.33.55-3.5 1.62c.07.48.5 1 1 1h5c.5 0 .93-.38 1-.86V36Zm6 0c0-.55-.45-1-1-1h-2c-.55 0-1 .45-1 1s.45 1 1 1h2c.55 0 1-.45 1-1Zm1-4c0-.55-.45-1-1-1h-3c-.55 0-1 .45-1 1s.45 1 1 1h3c.55 0 1-.45 1-1Z"/></svg>
