<svg xmlns="http://www.w3.org/2000/svg" viewBox="0 0 48 48"><title>Paspoort belgie</title><path d="M35.99 13v-.03c0-.81-.32-1.57-.89-2.14-.57-.57-1.33-.88-2.13-.88h-.01l-17.91.07h-.03C14.46 10.02 14 9.56 14 9s.46-1.02 1.02-1.02h.03L33 8s0-2-2-2H15c-1.66 0-3 1.35-3 3.01L12.04 39c0 1.66 1.35 3 3 3h17.98c1.65 0 2.98-1.34 2.98-2.98V13h-.01ZM29 36H19c-.55 0-1-.45-1-1s.45-1 1-1h10c.55 0 1 .45 1 1s-.45 1-1 1Zm2.19-10.72-.55-.22-1.09 2.42.36.57.07 1.06-1.61.43-.46-.85-2.18-1.21-.06-2.22-.89 1.07-2.68.05v-1.89l.05-.58-1.36.26-.36-1.13-.98-.09-.93-1.83-.45-.07-.54.46-1.26-.83-.27-1.65 3.49-1.8.58.47 1.67.52 1.45-1.1.91.13v-.26h3v.78l.13.1 1.15-.24 1.43.99-.75 2.18 2.57 1.22-.33.58.71.46-.81 2.22Z"/></svg>
