<svg xmlns="http://www.w3.org/2000/svg" viewBox="0 0 48 48"><title>Paspoort belgie</title><path d="M25 25v-6c0-.55.45-1 1-1h3c.55 0 1 .45 1 1s-.45 1-1 1h-2v1h1c.55 0 1 .45 1 1s-.45 1-1 1h-1v1h2c.55 0 1 .45 1 1s-.45 1-1 1h-3c-.55 0-1-.45-1-1Zm-7-.05V19c0-.55.45-1 1-1h2a2.5 2.5 0 0 1 2.5 2.5c0 .43-.12.82-.31 1.17.49.46.81 1.1.81 1.83 0 .98-.57 1.83-1.4 2.23a.98.98 0 0 1-.6.22h-.05c-.15.03-2.95 0-2.95 0-.55 0-1-.45-1-1ZM20 21h1c.28 0 .5-.22.5-.5s-.22-.5-.5-.5h-1v1Zm0 2.95h1.7c.17-.08.3-.25.3-.45 0-.28-.22-.5-.5-.5-.06 0-.11-.02-.17-.03-.11.01-.22.03-.33.03h-1v.95ZM29 30H19c-.55 0-1 .45-1 1s.45 1 1 1h10c.55 0 1-.45 1-1s-.45-1-1-1Zm5.7-20.01H14c-.56 0-1-.44-1-1s.44-1 1-1h19c.55 0 1-.45 1-1s-.45-1-1-1H13.96c-1.63 0-2.95 1.32-2.95 2.95l-.02 31.01c0 1.13.91 2.04 2.04 2.04h21.94c1.11 0 2.01-.9 2.01-2.01V12.29c0-.62-.24-1.19-.68-1.63-.43-.43-1.01-.67-1.62-.67ZM35 40H13V12h22v28Z"/></svg>

