<svg xmlns="http://www.w3.org/2000/svg" viewBox="0 0 48 48"><title>Paspoort ID-kaart gecombineerd belgie</title><path d="M37 36c0 .55-.45 1-1 1h-2c-.55 0-1-.45-1-1s.45-1 1-1h2c.55 0 1 .45 1 1Zm-9.5-1.62c-1.12 0-3.33.55-3.5 1.62.07.48.5 1 1 1h5c.5 0 .93-.38 1-.86V36c-.17-1.08-2.38-1.62-3.5-1.62Zm0-.81c.96 0 1.74-.78 1.74-1.75s-.78-1.75-1.74-1.75-1.74.78-1.74 1.75.78 1.75 1.74 1.75ZM36.99 31h-3c-.55 0-1 .45-1 1s.45 1 1 1h3c.55 0 1-.45 1-1s-.45-1-1-1Zm5-3.47v11.94c0 1.4-1.13 2.53-2.53 2.53H22.53c-1.4 0-2.54-1.14-2.54-2.54V39H8.03c-1.13 0-2.04-.91-2.04-2.04V13h.02V8.95C6.01 7.32 7.33 6 8.96 6H25c.55 0 1 .45 1 1s-.45 1-1 1H9c-.56 0-1 .44-1 1s.44 1 1 1h17.7c.61 0 1.19.24 1.62.67.44.43.68 1.01.68 1.63v9.71c0 .55-.45 1-1 1s-1-.45-1-1v-10H8v25h12v-9.97c0-1.12.91-2.03 2.03-2.03h17.44A2.54 2.54 0 0 1 42 27.54Zm-2-.53h-8v2c0 .55-.45 1-1 1s-1-.45-1-1v-2h-8v13h18c.04 0 0-13 0-13Zm-27 1c-.55 0-1 .45-1 1s.45 1 1 1h4c.55 0 1-.45 1-1s-.45-1-1-1h-4Zm10-11c.55 0 1-.45 1-1s-.45-1-1-1h-3c-.55 0-1 .45-1 1v5.95c0 .55.45 1 1 1h3c.55 0 1-.45 1-1s-.45-1-1-1h-2V20h1c.55 0 1-.45 1-1s-.45-1-1-1h-1v-1h2Zm-5 3.5c0 .98-.57 1.83-1.4 2.23a.98.98 0 0 1-.6.22h-.05c-.15.03-.3.05-.45.05-.08 0-.15-.03-.23-.05h-2.27c-.55 0-1-.45-1-1V16c0-.55.45-1 1-1h2a2.5 2.5 0 0 1 2.5 2.5c0 .43-.12.82-.31 1.17.49.46.81 1.1.81 1.83Zm-4-2.5h1c.28 0 .5-.22.5-.5s-.22-.5-.5-.5h-1v1Zm2 2.5c0-.28-.22-.5-.5-.5-.06 0-.11-.02-.17-.03-.11.01-.22.03-.33.03h-1v.95h1.7c.17-.08.3-.25.3-.45Z"/></svg>
