<svg xmlns="http://www.w3.org/2000/svg" viewBox="0 0 48 48"><title>Paspoort ID-kaart gecombineerd</title><path d="M25.77 31.82c0-.97.78-1.75 1.74-1.75s1.74.78 1.74 1.75-.78 1.75-1.74 1.75-1.74-.78-1.74-1.75ZM36 35h-2c-.55 0-1 .45-1 1s.45 1 1 1h2c.55 0 1-.45 1-1s-.45-1-1-1Zm1-4h-3c-.55 0-1 .45-1 1s.45 1 1 1h3c.55 0 1-.45 1-1s-.45-1-1-1Zm-9.5 3.38c-1.12 0-3.33.55-3.5 1.62.07.48.5 1 1 1h5c.5 0 .93-.38 1-.86V36c-.17-1.08-2.38-1.62-3.5-1.62ZM18 16.05c0-.55-.45-1-1-1s-1 .45-1 1v2.67l-2.17-3.23c-.25-.36-.7-.53-1.12-.4-.42.13-.71.52-.71.96v6c0 .55.45 1 1 1s1-.45 1-1v-2.72l2.17 3.23c.25.36.7.53 1.12.4.42-.13.71-.52.71-.96v-5.95Zm24 11.48v11.94c0 1.4-1.13 2.53-2.53 2.53H22.54c-1.4 0-2.54-1.14-2.54-2.54V39H8.04C6.91 39 6 38.09 6 36.96V13h.02V8.95C6.02 7.32 7.34 6 8.97 6h16.04c.55 0 1 .45 1 1s-.45 1-1 1H9c-.56 0-1 .44-1 1s.44 1 1 1h17.7c.61 0 1.19.24 1.62.67.44.43.68 1.01.68 1.63v9.71c0 .55-.45 1-1 1s-1-.45-1-1v-10H8v25h12v-9.97c0-1.12.91-2.03 2.03-2.03h17.44A2.54 2.54 0 0 1 42 27.54ZM40 27h-8v2c0 .55-.45 1-1 1s-1-.45-1-1v-2h-8v13h18c.04 0 0-13 0-13Zm-23 1h-4c-.55 0-1 .45-1 1s.45 1 1 1h4c.55 0 1-.45 1-1s-.45-1-1-1Zm4-12.95c-.55 0-1 .45-1 1V22c0 .55.45 1 1 1h3c.55 0 1-.45 1-1s-.45-1-1-1h-2v-4.95c0-.55-.45-1-1-1Z"/></svg>
