<svg xmlns="http://www.w3.org/2000/svg" viewBox="0 0 48 48"><title>Paspoort</title><path d="M26 24.95V19c0-.55.45-1 1-1s1 .45 1 1v4.95h2c.55 0 1 .45 1 1s-.45 1-1 1h-3c-.55 0-1-.45-1-1ZM19 26c.55 0 1-.45 1-1v-2.72l2.17 3.23c.25.36.7.53 1.12.4.42-.13.71-.52.71-.96V19c0-.55-.45-1-1-1s-1 .45-1 1v2.67l-2.17-3.23c-.25-.36-.7-.53-1.12-.4-.42.13-.71.52-.71.96v6c0 .55.45 1 1 1Zm17.32-15.34c.44.43.68 1.01.68 1.63v27.69c0 1.11-.9 2.01-2.01 2.01H13.04c-1.13 0-2.04-.91-2.04-2.04l.02-31.01c0-1.63 1.32-2.95 2.95-2.95h19.04c.55 0 1 .45 1 1s-.45 1-1 1H14c-.56 0-1 .44-1 1s.44 1 1 1h20.7c.61 0 1.19.24 1.62.67ZM35 12H13v28h22V12ZM19 32h10c.55 0 1-.45 1-1s-.45-1-1-1H19c-.55 0-1 .45-1 1s.45 1 1 1Z"/></svg>

