<svg xmlns="http://www.w3.org/2000/svg" id="ICONEN" viewBox="0 0 48 48"><title>Zelfstandig wonen</title><defs><style>.cls-1{stroke-width:0}</style></defs><path d="M16 23c1.65 0 3-1.35 3-3s-1.35-3-3-3-3 1.35-3 3 1.35 3 3 3Zm0-4c.55 0 1 .45 1 1s-.45 1-1 1-1-.45-1-1 .45-1 1-1Zm.5 18.52c.17-.33.51-.52.88-.52.75 0 1.24.8.89 1.47a6.486 6.486 0 0 1-6.91 3.43c-2.66-.45-4.81-2.61-5.26-5.27-.51-2.98 1.03-5.67 3.43-6.91.67-.34 1.47.14 1.47.89 0 .38-.2.72-.52.88-1.78.9-2.89 2.94-2.33 5.17a4.45 4.45 0 0 0 3.18 3.18c2.23.57 4.27-.54 5.17-2.33Zm7.5-1.53v5c0 .55-.45 1-1 1s-1-.45-1-1v-5c0-.55-.45-1-1-1h-5.06c-1.62 0-2.94-1.32-2.94-2.94v-5.06c0-1.65 1.35-3 3-3s2.98 1.33 3 2.96v4.04c0 .55-.45 1-1 1s-1-.45-1-1v-4c0-.55-.45-1-1-1s-1 .45-1 1v5.06c0 .52.42.94.94.94H21c1.65 0 3 1.34 3 3ZM29.99 28.01h-6c-1.1 0-2-.9-2-2v-4c0-1.1.9-2 2-2h6c1.1 0 2 .9 2 2v4c0 1.1-.9 2-2 2Zm-6-2h6v-4h-6v4Z" class="cls-1"/><path d="M41.69 18.51 39 16.26v-4.27c0-.55-.44-.99-.99-.99-.54 0-.98.44-.98.99v2.54l-8.68-8.04c-.76-.67-1.9-.67-2.65 0l-8.35 7.72a1.004 1.004 0 0 0 1.32 1.51l8.37-7.73L37 17.17l.03 17.85H26.55c-.55 0-1 .45-1 1s.45 1 1 1h10.48a2 2 0 0 0 2-2L39 18.92l1.38 1.11c.41.35 1.03.31 1.39-.1l.02-.02a.983.983 0 0 0-.1-1.39Z" class="cls-1"/></svg>

