<svg xmlns="http://www.w3.org/2000/svg" id="ICONEN" viewBox="0 0 48 48"><title>Betaaldatums uitkering</title><defs><style>.cls-1{stroke-width:0}</style></defs><path d="M40.44 39.24c-1.92 1.29-4.29.94-5.89-.89-.35-.4-.62-.86-.86-1.34h4.3c.55 0 1-.45 1-1s-.45-1-1-1h-4.92c-.09-.66-.1-1.34 0-2H38c.55 0 1-.45 1-1s-.45-1-1-1h-4.31c.22-.44.47-.87.79-1.26 1.58-1.88 4.03-2.28 5.96-.98.46.31 1.08.19 1.39-.27a.999.999 0 0 0-.27-1.39c-2.81-1.89-6.35-1.34-8.61 1.35-.63.75-1.11 1.62-1.43 2.54H30c-.55 0-1 .45-1 1s.45 1 1 1h1.08a9.55 9.55 0 0 0 0 2h-1.07c-.55 0-1 .45-1 1s.45 1 1 1h1.52c.34.97.85 1.88 1.53 2.66 1.35 1.54 3.14 2.35 4.96 2.35 1.22 0 2.45-.36 3.56-1.11.46-.31.58-.93.27-1.39a.999.999 0 0 0-1.39-.27ZM32.98 9H28V6.99c0-.55-.44-.99-.99-.99h-.03c-.55 0-.99.44-.99.99V11c0 .55-.45 1-1 1s-1-.45-1-1V9.01l-10-.02V6.98c0-.55-.44-.99-.99-.99-.54 0-.99.44-.99.99L11.99 11c0 .55-.45.99-1 .99s-1-.45-1-1v-2H7c-.55 0-1 .45-1 1v6h27.96v-6c0-.55-.45-1-1-1Z" class="cls-1"/><path d="M30.21 39H30c-1.65 0-2.99-1.33-3-2.98h-1c-.55 0-1-.45-1-1s.45-1 1-1h.99V32c0-.77.29-1.45.76-1.98h-1.76c-.55 0-1-.45-1-1s.45-1 1-1h2c.55 0 1 .45 1 1V29c.31-.11 1.2 0 1.2 0 .34-.66.74-1.27 1.21-1.83.62-.74 1.32-1.34 2.08-1.83l.49-.86v-6.49H6v20c-.02 1.18 1.77 4 3.97 4h20c.18 0 .37-.02.54-.06.71-.15 1.02-1.01.59-1.59-.35-.47-.73-1-.91-1.35Zm-4.2-16.98h2c.55 0 1 .45 1 1s-.45 1-1 1h-2c-.55 0-1-.45-1-1s.45-1 1-1Zm-7 0h2c.55 0 1 .45 1 1s-.45 1-1 1h-2c-.55 0-1-.45-1-1s.45-1 1-1Zm0 6h2c.55 0 1 .45 1 1s-.45 1-1 1h-2c-.55 0-1-.45-1-1s.45-1 1-1Zm-4 7c0 .55-.45 1-1 1h-2c-.55 0-1-.45-1-1s.45-1 1-1h2c.55 0 1 .45 1 1Zm0-6c0 .55-.45 1-1 1h-2c-.55 0-1-.45-1-1s.45-1 1-1h2c.55 0 1 .45 1 1Zm0-6c0 .55-.45 1-1 1h-2c-.55 0-1-.45-1-1s.45-1 1-1h2c.55 0 1 .45 1 1Zm3.71 14.47-1.39-1.19a.955.955 0 0 1-.05-1.41c.38-.37.98-.37 1.36 0l.74.74 2.5-2.5c.38-.38 1-.38 1.38 0 .39.39.38 1.03-.03 1.41L20 37.49c-.36.33-.91.34-1.28.02Z" class="cls-1"/></svg>
