<svg xmlns="http://www.w3.org/2000/svg" id="ICONEN" viewBox="0 0 48 48"><title>Elektrisch rijden</title><defs><style>.cls-1{stroke-width:0}</style></defs><path d="m30.46 39-6.06-3.86c-.67-.4-1.5.13-1.48.95l.05 3.07-4.53-2.95c-.48-.28-1.09-.1-1.36.42-.27.51-.09 1.16.39 1.45l6.04 3.8c.67.39 1.49-.12 1.48-.94l-.02-3.06 4.51 2.99c.48.28 1.09.1 1.36-.42s.09-1.16-.39-1.45Z" class="cls-1"/><path d="M41.29 15h-1.51l-2.11-5.93c-.6-1.83-2.31-3.06-4.26-3.07H14.7c-1.94.11-3.65 1.34-4.25 3.15L8.29 15H6.72c-.39 0-.71.42-.71.94V17c0 .55.45 1 1 1h.18s-1.18 2.21-1.18 3.01V35.4c0 .89.72 1.61 1.61 1.61h2.79c.89 0 1.61-.72 1.61-1.61v-3.39h24v3.39c0 .89.72 1.61 1.61 1.61h2.79c.89 0 1.61-.72 1.61-1.61V21.01c0-.78-1.15-3.01-1.15-3.01h.14c.55 0 1-.45 1-1v-1.06c0-.52-.32-.94-.71-.94ZM12.5 28c-1.38 0-2.5-1.11-2.5-2.47s1.12-2.47 2.5-2.47 2.5 1.11 2.5 2.47S13.88 28 12.5 28Zm15.51-1.01H20c-.55 0-.99-.45-.99-.99 0-.55.45-.99.99-.99h8.01c.55 0 .99.45.99.99 0 .55-.45.99-.99.99Zm7.49.94c-1.37 0-2.49-1.1-2.49-2.46s1.12-2.46 2.49-2.46 2.49 1.1 2.49 2.46-1.12 2.46-2.49 2.46ZM9.32 18.01l3.01-8.15v-.03l.02-.03c.33-.99 1.3-1.71 2.42-1.78h18.64c1.08 0 2.04.69 2.38 1.74l2.94 8.26H9.31Z" class="cls-1"/></svg>
