<svg xmlns="http://www.w3.org/2000/svg" id="ICONEN" viewBox="0 0 48 48"><title>Monitor virus</title><defs><style>.cls-1{stroke-width:0}</style></defs><path d="M38 20c-1.86 0-3.41 1.28-3.86 3h-2.21c-.18-1.46-.76-2.8-1.61-3.9l2.53-2.53c.49.27 1.05.43 1.65.43 1.93 0 3.5-1.57 3.5-3.5S36.43 10 34.5 10 31 11.57 31 13.5c0 .6.17 1.16.43 1.65l-2.53 2.53a7.941 7.941 0 0 0-3.9-1.62v-2.2c1.72-.45 3-2 3-3.86 0-2.21-1.79-4-4-4-.06 0-.12.02-.18.02.11.31.18.63.18.98v11.01c0 1.65-1.34 3-3 3h-4.42c-.26.63-.44 1.3-.52 2h-2.2c-.2-.79-.65-1.48-1.24-2H7.38c-.84.73-1.38 1.8-1.38 3 0 2.21 1.79 4 4 4 1.86 0 3.41-1.28 3.86-3h2.2c.18 1.46.76 2.8 1.62 3.9l-3.4 3.4c-.39-.19-.82-.3-1.29-.3-1.66 0-3 1.34-3 3s1.34 3 3 3 3-1.34 3-3c0-.46-.11-.89-.3-1.29l3.4-3.4c1.11.86 2.44 1.43 3.9 1.61v2.21c-1.72.45-3 2-3 3.86 0 2.21 1.79 4 4 4s4-1.79 4-4c0-1.86-1.28-3.41-3-3.86v-2.21c1.46-.18 2.79-.76 3.9-1.62l1.67 1.67c-.35.59-.57 1.28-.57 2.02 0 2.21 1.79 4 4 4s4-1.79 4-4-1.79-4-4-4c-.74 0-1.43.21-2.02.57L30.3 28.9a8.035 8.035 0 0 0 1.62-3.9h2.21c.45 1.72 2 3 3.86 3 2.21 0 4-1.79 4-4s-1.79-4-4-4Z" class="cls-1"/><path d="M6.02 17.53V7.55c-.01-.83.66-1.5 1.5-1.5H20.5c.83 0 1.51.67 1.51 1.5v9.97c.01.83-.66 1.5-1.5 1.5H7.53c-.83 0-1.51-.67-1.51-1.5Zm12-1.5c.55 0 1-.45 1-1v-1c0-.55-.45-1-1-1s-1 .45-1 1v1c0 .55.45 1 1 1Zm-5.01-6.01v5.01c.01.55.46 1 1.01 1s1-.45 1-1v-5.01c-.01-.55-.46-1-1.01-1s-1 .45-1 1Zm-2.99 6.01c.55 0 1-.45 1-1v-2c0-.55-.45-1-1-1s-1 .45-1 1v2c0 .55.45 1 1 1Z" class="cls-1"/></svg>
