<svg xmlns="http://www.w3.org/2000/svg" id="ICONEN" viewBox="0 0 48 48"><title>Monitor sociaal</title><defs><style>.cls-1{stroke-width:0}</style></defs><path d="M22.48 29H9.51C8.68 29 8 29.67 8 30.51v9.99c.01.83.69 1.51 1.52 1.51h12.97c.83 0 1.51-.67 1.51-1.51v-9.99A1.53 1.53 0 0 0 22.48 29ZM12 39c-.55 0-1-.45-1-1v-2c0-.55.45-1 1-1s1 .45 1 1v2c0 .55-.45 1-1 1Zm4 0c-.55 0-1-.45-1-1v-5c-.01-.55.44-1 .99-1h.02c.55 0 1 .45 1 1v5c.01.55-.43 1-.99 1H16Zm4 0c-.55 0-1-.45-1-1v-1c0-.55.45-1 1-1s1 .45 1 1v1c0 .55-.45 1-1 1Z" class="cls-1"/><path d="M30 9.5C30 7.57 31.57 6 33.5 6S37 7.57 37 9.5 35.43 13 33.5 13 30 11.43 30 9.5ZM16.03 27 16 18.01c0-1.66 1.34-3.01 3-3.01h6.06c1.66 0 3 1.35 3 3.01 0-1.66 1.34-3.01 3-3.01h5.93c1.66 0 3 1.34 3 3v9.5c0 .83-.67 1.5-1.5 1.5h-1.58l.07 11.49c0 .83-.67 1.51-1.5 1.51h-4.49v-8h.5c.83 0 1.5-.67 1.5-1.5V29c0-1.14-.92-2-2.06-2m0-3.41c.4-2.11-1.42-3.93-3.53-3.53-1.17.22-2.13 1.18-2.36 2.36a3.006 3.006 0 0 0 3.53 3.53c1.17-.22 2.13-1.18 2.36-2.36ZM22.49 13c1.93 0 3.5-1.57 3.5-3.5S24.42 6 22.49 6s-3.5 1.57-3.5 3.5 1.57 3.5 3.5 3.5Z" class="cls-1"/></svg>
