<svg xmlns="http://www.w3.org/2000/svg" viewBox="0 0 48 48"><title>Wolf</title><path d="M24.55 20.77a1.01 1.01 0 0 1-.45-1.34c.25-.5.85-.7 1.34-.45l2 1c.49.25.69.85.45 1.34a1.007 1.007 0 0 1-1.35.44l-2-1Zm17.05 6.04-7.99-6v-.92c0-1.18-.52-2.28-1.42-3.04L29 14.17V7.62c0-.33-.16-.64-.44-.83a.965.965 0 0 0-.93-.1c-.1.04-1.9.77-3.63 2.31V7a1.005 1.005 0 0 0-1.35-.94c-.22.08-5.26 1.99-7.8 7.21l-5.42 3.77c-.24.17-.4.44-.43.73-.03.3.08.59.29.8l1.18 1.19-4.08 3.32c-.44.33-.53.96-.2 1.4.2.26.5.4.8.4.21 0 .42-.07.6-.2l5-4.01a1 1 0 0 0 .11-1.51L11.55 18l4.66-3.24c.15-.1.26-.24.34-.4 1.42-3.07 3.91-4.88 5.45-5.76v5.25c0 .55.45 1 1 1s1-.45 1-1v-1.88c.89-1.24 2.08-2.14 3-2.7v5.37c0 .3.13.58.36.77l3.55 2.98c.44.37.7.92.7 1.5v1.42a1 1 0 0 0 .4.8l7.55 5.67-1.7 2.04C35 29.97 30.3 28.68 25 24.88c-3.24-2.32-5.32.86-6.31 3.12A9.004 9.004 0 0 1 22 34.99c0 2.27-.85 4.35-2.23 5.93H26c.19 0 .38-.05.55-.17.46-.31.58-.93.28-1.39l-1.41-2.12.03-.13 1.95-1.38c.44-.31.55-.93.25-1.38l-1.8-2.67c.05-.28.18-.67.45-.82.18-.1.91-.34 2.82.79 6.09 3.6 9.6.23 9.81.01l2.83-3.4c.18-.21.26-.49.23-.76s-.17-.52-.39-.69ZM20 34.98c0 3.87-3.13 7.02-7 7.02s-7-3.14-7-7.02 3.13-7.02 7-7.02 7 3.14 7 7.02Zm-6 3.01c0-.29-.09-.53-.28-.72-.19-.19-.43-.28-.72-.28s-.54.09-.72.28c-.19.19-.28.43-.28.72s.09.53.28.72c.19.19.43.28.72.28s.54-.09.72-.28c.19-.19.28-.43.28-.72Zm0-7.01h-2v5.01h2v-5.01Z"/></svg>
