<svg xmlns="http://www.w3.org/2000/svg" viewBox="0 0 48 48"><title>Paspoort</title><path d="M30 33c0 .55-.45 1-1 1H19c-.55 0-1-.45-1-1s.45-1 1-1h10c.55 0 1 .45 1 1Zm-11.84-8.3 2.41-2.41 1.22 1.22-2.75 2.75a.996.996 0 0 0 .71 1.7c.26 0 .51-.1.71-.29l2.48-2.48s.01.03.02.04c0 0 .02 0 .02.02v3.77c0 .55.45 1 1 1s1-.45 1-1v-3.79l2.51 2.51c.2.2.45.29.71.29s.51-.1.71-.29a.996.996 0 0 0 0-1.41l-2.81-2.81 1.22-1.22 2.42 2.42a.996.996 0 1 0 1.41-1.41l-2.42-2.42 1.2-1.2a.996.996 0 0 0-.72-1.7c-.03 0-.06-.02-.09-.02H27.9c-.55 0-1 .45-1 1 0 .26.1.49.26.66l-2.18 2.18v-4.8c0-.55-.45-1-1-1h-1.79c-.55 0-1 .45-1 1s.45 1 1 1h.79v3.87L20.7 19.6c.15-.17.25-.39.25-.64 0-.55-.45-1-1-1h-1.22c-.14 0-.27.03-.39.08-.14.05-.27.12-.38.23a.996.996 0 0 0 0 1.41l1.2 1.2-2.41 2.41a.996.996 0 1 0 1.41 1.41ZM37 12.29v27.69c0 1.11-.9 2.01-2.01 2.01H13.04c-1.13 0-2.04-.91-2.04-2.04l.02-31.01c0-1.63 1.32-2.95 2.95-2.95h19.04c.55 0 1 .45 1 1s-.45 1-1 1H14c-.56 0-1 .44-1 1s.44 1 1 1h20.7c.61 0 1.19.24 1.62.67.44.44.68 1.01.68 1.63ZM35 12H13v28h22V12Z"/></svg>