<svg xmlns="http://www.w3.org/2000/svg" viewBox="0 0 48 48"><title>Paspoort Idkaart Gecombineerd</title><path d="M31 35.94v.14c-.07.48-.5.86-1 .86h-5c-.5 0-.93-.52-1-1 .17-1.08 2.38-1.62 3.5-1.62s3.33.55 3.5 1.62Zm-3.49-2.43c.96 0 1.74-.78 1.74-1.75s-.78-1.75-1.74-1.75-1.74.78-1.74 1.75.78 1.75 1.74 1.75ZM36 34.94h-2c-.55 0-1 .45-1 1s.45 1 1 1h2c.55 0 1-.45 1-1s-.45-1-1-1ZM13 31c-.55 0-1 .45-1 1s.45 1 1 1h4c.55 0 1-.45 1-1s-.45-1-1-1h-4Zm29-3.54V39.4c0 1.4-1.13 2.53-2.53 2.53H22.54c-1.4 0-2.54-1.14-2.54-2.54v-.46H8.04c-1.13 0-2.04-.91-2.04-2.04V12.94h.02V8.89c0-1.63 1.32-2.95 2.95-2.95h16.04c.55 0 1 .45 1 1s-.45 1-1 1H9c-.56 0-1 .44-1 1s.44 1 1 1h17.7c.61 0 1.19.24 1.62.67.44.43.68 1.01.68 1.63v9.71c0 .55-.45 1-1 1s-1-.45-1-1v-10H8v25h12v-9.97c0-1.12.91-2.03 2.03-2.03h17.44A2.54 2.54 0 0 1 42 27.48Zm-2-.52h-8v2c0 .55-.45 1-1 1s-1-.45-1-1v-2h-8v13h18c.04 0 0-13 0-13Zm-3 4h-3c-.55 0-1 .45-1 1s.45 1 1 1h3c.55 0 1-.45 1-1s-.45-1-1-1Zm-13.91-7.92h2.4c0-.26-.09-.52-.29-.72l-2.42-2.42 1.2-1.2a.996.996 0 0 0-.72-1.7c-.03 0-.06-.02-.09-.02h-1.22c-.55 0-1 .45-1 1 0 .26.1.49.26.66l-2.18 2.18V16c0-.55-.45-1-1-1h-1.79c-.55 0-1 .45-1 1s.45 1 1 1h.79v3.87l-2.28-2.28c.15-.17.25-.39.25-.64 0-.55-.45-1-1-1h-1.22c-.14 0-.27.03-.39.08-.14.05-.27.12-.38.23a.996.996 0 0 0 0 1.41l1.2 1.2-2.41 2.41a.996.996 0 1 0 1.41 1.41l2.41-2.41 1.22 1.22-2.75 2.75a.996.996 0 0 0 .71 1.7c.26 0 .51-.1.71-.29l2.48-2.48s.01.03.02.04c0 0 .02 0 .02.02v3.77c0 .54.43.98.97.99v-2.02c0-1.02.4-1.95 1.03-2.65v-.12l.05.05c.47-.5 1.07-.87 1.75-1.07l-.69-.69 1.22-1.22 1.73 1.73Z"/></svg>