<svg xmlns="http://www.w3.org/2000/svg" viewBox="0 0 48 48"><title>Aanmelden</title><path d="M8.54 14h1.47c.55 0 1-.45 1-1V7c0-.55-.44-1-1-1s-1 .45-1 1l-.02 2h-.48a2.5 2.5 0 0 0 0 5h.04Zm18.47 7.99H14.44c-2.36 0-3.43-1.91-3.43-4v-.9a1 1 0 0 0-.99-1l-2-.03c-.56 0-1.01.44-1.01 1v.93c0 4.26 2.9 8 7.43 8h.61v15c0 .55.45 1 1.01 1l11.92-.07c.55 0 .99-.45.99-1v-1.91l2.04-.04c.54 0 .98-.45.98-1V26.98c.01-2.81-2.17-5-4.99-5Zm14-11.99h-3V7c0-.55-.45-1-1-1s-1 .45-1 1v3h-3c-.55 0-1 .45-1 1s.45 1 1 1h3v3c0 .55.45 1 1 1s1-.45 1-1v-3h3c.55 0 1-.45 1-1s-.45-1-1-1Zm-26 1.53C15.69 8.37 18.53 6 21.93 6c1.99 0 3.79.81 5.07 2.12-.02.72-.2 1.25-.54 1.6-.9.94-3.09.88-5.22.83-2.29-.06-4.64-.11-6.24.98Zm13.47-1.18c.34.82.53 1.71.53 2.65 0 3.87-3.17 7-7.08 7-3.16 0-5.83-2.04-6.74-4.87-.14-.74.06-1.2.42-1.61.93-1.04 3.38-1.03 5.59-.97 2.57.06 5.21.13 6.73-1.46.22-.22.4-.48.55-.75Z"/></svg>
