<svg xmlns="http://www.w3.org/2000/svg" viewBox="0 0 48 48"><title>Actueel</title><path d="M28 26h-7v-5h7v5ZM42 9v26c0 2.76-2.24 5-5 5H11c-2.76 0-5-2.24-5-5V16c0-1.85 1.68-3.31 3.6-2.94 1.42.28 2.4 1.61 2.4 3.06V33c0 .55-.45 1-1 1s-1-.45-1-1V16c0-.55-.45-1-1-1s-1 .45-1 1v18.88c0 1.45.98 2.78 2.4 3.06 1.92.37 3.6-1.09 3.6-2.94V9c0-.55.45-1 1-1h26c.55 0 1 .45 1 1Zm-23 6c0 .55.45 1 1 1h14c.55 0 1-.45 1-1s-.45-1-1-1H20c-.55 0-1 .45-1 1Zm0 11c0 1.1.9 2 2 2h7c1.1 0 2-.9 2-2v-5c0-1.1-.9-2-2-2h-7c-1.1 0-2 .9-2 2v5Zm18 6c0-.55-.45-1-1-1H20c-.55 0-1 .45-1 1s.45 1 1 1h16c.55 0 1-.45 1-1Zm0-7c0-.55-.45-1-1-1h-3c-.55 0-1 .45-1 1s.45 1 1 1h3c.55 0 1-.45 1-1Zm0-5c0-.55-.45-1-1-1h-3c-.55 0-1 .45-1 1s.45 1 1 1h3c.55 0 1-.45 1-1Z"/></svg>
