<svg xmlns="http://www.w3.org/2000/svg" viewBox="0 0 48 48"><title>Afval GFT</title><path d="M32 9v1c0 .55-.45 1-1 1H9c-.55 0-1-.45-1-1V9c0-.55.45-1 1-1h1v-.04C10 6.88 10.88 6 11.96 6H26a2 2 0 0 1 2 2h3c.55 0 1 .45 1 1ZM16 37c0 1.66-1.34 3-3 3s-3-1.34-3-3 1.34-3 3-3 3 1.34 3 3Zm4-11.83v-2.18c0-1.65 1.34-3 3-3h4.22l.78-7.01H10v20s.05-.02.07-.03c.83-.6 1.84-.97 2.94-.97 2.76 0 5 2.24 5 5 0 1.13-.39 2.16-1.02 3h5.34c1.53 0 2.81-1.15 2.98-2.67v-.02c-2.73-2.11-4.93-5.8-5.29-12.14Zm18.93 15.7c-.59-5.3-2.96-8.69-7.46-10.7-.5-.22-.73-.82-.51-1.32.23-.5.82-.73 1.32-.51 3.37 1.5 5.72 3.76 7.15 6.81.56-1.35.59-2.52.59-3.16-.02-8.7-8.16-10-13-10h-4.01c-.55 0-1 .45-1 1v2.06c.62 10.7 6.87 12.94 12 12.94h2.34c.32.94.54 1.97.67 3.11.06.51.49.89.99.89h.11c.49-.06.84-.46.87-.94-.02-.06-.05-.11-.05-.18Z"/></svg>
