<svg xmlns="http://www.w3.org/2000/svg" viewBox="0 0 48 48"><title>Afvalzak</title><path d="M27.29 15.38 26 18h-3.54l-2.03-3.36c-.33-.41.52-.81 1.24-.58l1.01.32c.67.21 2.18.33 2.97.33h.86c.64 0 1.06.36.78.67Zm-.08-3.79a.96.96 0 0 0-.19-1.35.478.478 0 0 1-.09-.67c.8-1.06.59-2.57-.47-3.36-.42-.32-1.03-.24-1.35.19s-.24 1.03.19 1.35c.21.16.25.46.09.67-.39.51-.55 1.14-.46 1.78s.42 1.2.93 1.59a.945.945 0 0 0 1.34-.18Zm-4.91 0a.96.96 0 0 0-.19-1.35.478.478 0 0 1-.09-.67c.8-1.06.59-2.57-.47-3.36-.42-.32-1.03-.24-1.35.19s-.24 1.03.19 1.35c.21.16.25.46.09.67-.39.51-.55 1.14-.46 1.78s.42 1.2.93 1.59a.945.945 0 0 0 1.34-.18ZM33.91 38.1c-1.38-2.26-1.75-3.45-1.81-4.05-.05-.48-.1-.72-.14-.93-.04-.21-.07-.38-.11-.82l-.07-1.01c-.15-2.17-.34-5.94-.94-7.3-.54-1.24-2.27-2.57-3.66-3.37-.4-.23-.78-.46-1.07-.64l-1.5-.02-1.71 3.48a1.007 1.007 0 0 1-1.35.44 1.01 1.01 0 0 1-.45-1.34l1.31-2.61h-.44c-.29.21-.76.49-1.26.78-1.41.82-3.01 2.09-3.54 3.28-.6 1.36-.79 5.13-.94 7.3l-.07 1.01c-.03.43-.07.6-.11.82-.04.21-.08.45-.14.93-.07.6-.44 1.79-1.81 4.05-.46.75-.56 1.64-.26 2.38.38.93 1.21 1.51 2.17 1.51h16c.96 0 1.79-.58 2.17-1.51.3-.73.2-1.62-.26-2.38Z"/></svg>
