<svg xmlns="http://www.w3.org/2000/svg" viewBox="0 0 48 48"><title>Afvalbak PMD</title><path d="M29 11H7c-.55 0-1-.45-1-1V9c0-.55.45-1 1-1h1v-.04C8 6.88 8.88 6 9.96 6H24c1.1 0 2 .9 2 2h3c.55 0 1 .45 1 1v1c0 .55-.45 1-1 1Zm7.98-1.03a.997.997 0 0 0-.99-.98h-1.98c-.55-.01-1 .44-1 .99v1.01l4-.03-.02-1ZM11 34c-1.66 0-3 1.34-3 3s1.34 3 3 3 3-1.34 3-3-1.34-3-3-3Zm12.1-10h1.51l1.38-11H8v20s.05-.02.07-.03c.83-.6 1.84-.97 2.94-.97 2.76 0 5 2.24 5 5 0 1.13-.39 2.16-1.02 3h5.03V27.83c0-.36.1-.72.28-1.03l1.1-1.83c.36-.6 1.01-.97 1.72-.97Zm0 2L22 27.83v12.1l1.1 2.01 7.81.03 1.1-2.12V27.97l-1.1-1.94L23.1 26Zm17.85-7.39s-.01-.04-.02-.06c-.06-.48-.27-.93-.58-1.27A650.28 650.28 0 0 0 37.01 13h-4s-1.89 2.52-3.33 4.26c-.32.35-.53.8-.6 1.28-.05.13-.08.27-.08.42V24h2c.72 0 1.29.43 1.65 1.05l1.1 1.94c.17.3.26.64.26.98V40H38c1.66 0 3-1.34 3-3 0 0 0-18.27-.04-18.4Z"/></svg>
