<svg xmlns="http://www.w3.org/2000/svg" viewBox="0 0 48 48"><title>Afval ophalen</title><path d="M41.96 24v-.38c0-.41-.08-.8-.25-1.18-.49-1.13-1.59-3.7-2.24-5.23A1.988 1.988 0 0 0 37.63 16h-5.64s-.04-.02-.04-.04v-4.11c0-1.02-.83-1.85-1.85-1.85h-7.62c.46.8.65 1.73.5 2.66-.31 1.91-2.06 3.34-4.06 3.34h-2.69l-5.86 10.44c-.32.43-.84.68-1.37.78v4.28c0 .83.66 1.5 1.49 1.5h1.52c-.02.17-.05.33-.05.5 0 2.48 2.02 4.5 4.51 4.5s4.51-2.02 4.51-4.5c0-.17-.03-.33-.05-.5H30v.13c-.02.12-.04.24-.04.37 0 2.48 2.02 4.5 4.5 4.5s4.5-2.02 4.5-4.5c0-.17-.03-.33-.05-.5h1.05c1.1 0 2-.9 2-2v-7ZM16.5 36a2.5 2.5 0 0 1 0-5 2.5 2.5 0 0 1 0 5Zm17.96 0a2.5 2.5 0 0 1 0-5 2.5 2.5 0 0 1 0 5Zm-2.5-13s-.04-.02-.04-.04l.04-4.92s.02-.04.04-.04h5.65l2.14 5h-7.82ZM7.82 25.07l-1.28-.68c-.48-.26-.67-.85-.42-1.34l6.39-11.96c.34-.67 1.03-1.09 1.78-1.09h4.77c1.32 0 2.33 1.27 1.9 2.65-.26.83-1.11 1.35-1.98 1.35h-3.92L9.17 24.65c-.26.49-.87.67-1.35.41Z"/></svg>
