<svg xmlns="http://www.w3.org/2000/svg" viewBox="0 0 48 48"><title>Afvalcontainer afvalzak</title><path d="M21.87 41.18c-.21.51-.65.82-1.16.82H7.24c-.51 0-.95-.31-1.16-.82-.18-.44-.08-.94.16-1.35.9-1.48 1.4-2.62 1.49-3.39.08-.76.14-.69.19-1.38.13-1.7.25-4.34.74-5.47.47-1.08 4.19-3 4.19-3l-1.86-3.85c-.31-.47.49-.93 1.16-.66l.94.37c.63.25 1.35.38 2.08.38h.82c.6 0 .99.41.72.77l-1.25 3s3.32 1.89 3.81 3c.5 1.13.61 3.77.74 5.47.05.69.11.62.19 1.38.09.77.59 1.9 1.49 3.39.25.4.34.91.16 1.35ZM33 18H22v7h11v-7Zm-14.44 4.3c.35.7.32 1.52-.05 2.2l-.53 1.27c1.37.9 2.68 1.98 3.14 3.01.51 1.17.68 3.97.84 6.21h17.05V15c0-1.1-.9-2-2-2h-2v13c0 .55-.45 1-1 1h-13c-.55 0-1-.45-1-1V13h-2c-1.1 0-2 .9-2 2v5.82c1.13 0 2.11.57 2.56 1.48ZM41 37H22.46c.17.4.46.98.95 1.79.04.07.06.14.1.21H41c.55 0 1-.45 1-1s-.45-1-1-1ZM29 8h2v3h2V8h2c.55 0 1-.45 1-1s-.45-1-1-1h-6c-.55 0-1 .45-1 1s.45 1 1 1Zm4 5H22v3h11v-3Z"/></svg>
