<svg xmlns="http://www.w3.org/2000/svg" viewBox="0 0 48 48"><title>Afvalcontainerpas</title><path d="M26.53 28H7.47C6.66 28 6 28.66 6 29.47v11.06c0 .81.66 1.47 1.47 1.47h18.52a2 2 0 0 0 2-2V29.47c0-.81-.66-1.47-1.47-1.47Zm-13.02 3.07c.96 0 1.74.78 1.74 1.75s-.78 1.75-1.74 1.75-1.74-.78-1.74-1.75.78-1.75 1.74-1.75ZM16 38h-5c-.53 0-.95-.41-.99-.93.08-1.12 2.34-1.69 3.49-1.69s3.41.57 3.49 1.69c-.04.52-.46.93-.99.93Zm7-1c0 .55-.45 1-1 1h-2c-.55 0-1-.45-1-1s.45-1 1-1h2c.55 0 1 .45 1 1Zm1-4c0 .55-.45 1-1 1h-3c-.55 0-1-.45-1-1s.45-1 1-1h3c.55 0 1 .45 1 1Zm9-18H22v-2h11v2Zm9 22c0 .55-.45 1-1 1H30v-2h11c.55 0 1 .45 1 1ZM28 7c0-.55.45-1 1-1h6c.55 0 1 .45 1 1s-.45 1-1 1h-2v3h-2V8h-2c-.55 0-1-.45-1-1Zm5 15H22v-5h11v5Zm-3 7c0-1.66-1.34-3-3-3H16V15c0-1.1.9-2 2-2h2v10c0 .55.45 1 1 1h13c.55 0 1-.45 1-1V13h2c1.1 0 2 .9 2 2v19h-9v-5Z"/></svg>
