<svg xmlns="http://www.w3.org/2000/svg" viewBox="0 0 48 48"><title>Afvalkalender</title><path d="M38 10v5H10V9.98c0-.55.45-1 1-1h4v2.03c0 .55.44.99.99.99.54 0 .99-.44.99-.99L17 6.99c0-.55.45-1 1-1s1 .45 1 1v1.98l9 .02V11c0 .55.44.99.99.99h.02c.55 0 .99-.44.99-.99V6.99c0-.55.45-1 1-1s1 .45 1 1v2h5c.55 0 1 .45 1 1Zm-28 7h28v20c0 3.21-1.79 5-4 5H14c-2.21 0-4-1.79-4-4V17Zm12 19.5c0-.83-.67-1.5-1.5-1.5s-1.5.67-1.5 1.5.67 1.5 1.5 1.5 1.5-.67 1.5-1.5ZM29.01 25h-9.99L19 33.97c.69-.44 1.57-.62 2.5-.33.88.27 1.6.97 1.91 1.83.34.94.18 1.82-.23 2.53h2.98c.78 0 1.43-.6 1.49-1.38L29.01 25ZM18 22c0 .55.45 1 1 1l11.02-.02c.54 0 .98-.44.98-.99s-.44-.99-.99-.99h-.95c0-.55-.45-1-1-1h-8.03c-.56 0-1.03.44-1.03 1-.55 0-1 .45-1 1Z"/></svg>
