<svg xmlns="http://www.w3.org/2000/svg" viewBox="0 0 48 48"><title>Afval PMD</title><path d="m26 26.05 1.01 1.79V40L26 42h-8l-1-2V27.98l1.1-1.94H26Zm-8.03-2H18v-3.46c0-1.04-.27-2.07-.79-2.97 0 0-3.21-3.63-3.21-5.63h-4c0 2.01-2.05 3.58-3.22 5.62-.52.91-.79 1.93-.79 2.97V36c0 1.66 1.35 3 3 3H15V28c0-.34.09-.68.26-.98l1.1-1.94c.33-.58.94-.95 1.6-.99v-.04ZM14.01 8.99v-.02c0-.55-.45-1-1-.99h-2c-.54.01-.98.45-.99.99 0 .55-.02 1-.02 1h4v-.98Zm25-1.99c0-.55-.45-1-1-1h-8C29.45 6 29 6.45 29 7.01V8l-3 4h10.01L39 8V7ZM42 12.35c0-.27-.11-.52-.29-.71L40 9.93l-1.99 3.01v25.05l3.24-.79c.45-.11.76-.51.76-.97V12.35ZM26 14v10.05c.66.03 1.27.38 1.61.95l1.1 1.82c.19.31.29.67.29 1.03V38h7V14H25.99Z"/></svg>
