<svg xmlns="http://www.w3.org/2000/svg" viewBox="0 0 48 48"><title>Afval glascontainer</title><path d="M10 34v-6c0-.55.45-1 1-1h3.96v-2A4.472 4.472 0 0 0 12 21.28V12c0-.55-.45-1-1-1h-1c-.55 0-1 .45-1 1v9.28c-1.59.57-2.81 1.99-3 3.72v16c0 .55.45 1 1 1h7c.55 0 1-.45 1-1l-.02-6H11c-.55 0-1-.45-1-1ZM29 7c0-.55.45-1 1-1h6c.55 0 1 .45 1 1s-.45 1-1 1h-2v3h-2V8h-2c-.55 0-1-.45-1-1ZM17 34h23V15c0-1.1-.9-2-2-2H18c-1.1 0-2 .9-2 2v6.69c.63.95 1 2.09 1 3.31v9Zm17-16c1.1 0 2 .9 2 2s-.9 2-2 2-2-.9-2-2 .9-2 2-2Zm-6 0c1.1 0 2 .9 2 2s-.9 2-2 2-2-.9-2-2 .9-2 2-2Zm-6 0c1.1 0 2 .9 2 2s-.9 2-2 2-2-.9-2-2 .9-2 2-2Zm20 19c0 .55-.45 1-1 1H17v-2h24c.55 0 1 .45 1 1Z"/></svg>
