<svg xmlns="http://www.w3.org/2000/svg" viewBox="0 0 48 48"><title>Afval scheiden</title><path d="M20.89 9.48c0-1.93 1.57-3.5 3.5-3.5s3.5 1.57 3.5 3.5-1.57 3.5-3.5 3.5-3.5-1.57-3.5-3.5ZM15.14 42H9.92c-.52 0-.96-.4-1-.92l-.93-12.09v-1c0-.55.45-1 1-1h7.93c.58 0 1.04.49 1 1.07l-.8 12.1a1.99 1.99 0 0 1-1.99 1.85Zm12 0h-5.22c-.52 0-.96-.4-1-.92l-.93-12.09v-3c0-.55.45-1 1-1h7c1.1 0 2 .9 2 2l-.86 13.17a2.004 2.004 0 0 1-1.99 1.85Zm11.99 0h-5.21c-.52 0-.96-.4-1-.92l-.93-12.09v-3c0-.55.45-1 1-1h7c1.1 0 2 .9 2 2l-.86 13.16a2.017 2.017 0 0 1-2.01 1.86ZM6.87 26.43a1.01 1.01 0 0 1-.37-1.37L10 19c.55-.96 1.78-1.28 2.73-.73s-4.5 7.79-4.5 7.79c-.28.48-.89.64-1.37.37Zm23.11-8.55c0-1.59-1.3-2.88-2.89-2.88H21c-1.41 0-2.6.64-3.25 1.92L14 25h2.97L20 19.06V23h10l-.02-5.12Z"/></svg>
