<svg xmlns="http://www.w3.org/2000/svg" viewBox="0 0 48 48"><title>Agenda</title><path d="M10.02 38c0 1.18 1.78 4 3.98 4h20c2.21 0 4-2.82 4-4.01V17H10.03v21ZM30 22.98c0-.53.43-.96.96-.96H33c.55 0 1 .45 1 1s-.45 1-1 1h-2.04a.96.96 0 0 1-.96-.96v-.07Zm0 6c0-.53.43-.96.96-.96H33c.55 0 1 .45 1 1s-.45 1-1 1h-2.04a.96.96 0 0 1-.96-.96v-.07Zm0 6c0-.53.43-.96.96-.96H33c.55 0 1 .45 1 1s-.45 1-1 1h-2.04a.96.96 0 0 1-.96-.96v-.07Zm-7.98-12c0-.53.43-.96.96-.96h2.04c.55 0 1 .45 1 1s-.45 1-1 1h-2.04a.96.96 0 0 1-.96-.96v-.07Zm0 6c0-.53.43-.96.96-.96h2.04c.55 0 1 .45 1 1s-.45 1-1 1h-2.04a.96.96 0 0 1-.96-.96v-.07Zm-.74 5.9c.38-.37.98-.37 1.36 0l.74.74 2.51-2.51c.38-.38.99-.38 1.36 0l.02.02c.39.39.37 1.02-.03 1.39L24 37.47c-.36.33-.91.34-1.28.02l-1.39-1.19a.955.955 0 0 1-.05-1.41Zm-7.29-11.9c0-.53.43-.96.96-.96h2.04c.55 0 1 .45 1 1s-.45 1-1 1h-2.04a.96.96 0 0 1-.96-.96v-.07Zm0 6c0-.53.43-.96.96-.96h2.04c.55 0 1 .45 1 1s-.45 1-1 1h-2.04a.96.96 0 0 1-.96-.96v-.07Zm0 6c0-.53.43-.96.96-.96h2.04c.55 0 1 .45 1 1s-.45 1-1 1h-2.04a.96.96 0 0 1-.96-.96v-.07ZM36.99 9c.55 0 1 .45 1 1v5H10.03v-5c0-.55.45-1 1-1h2.99v2.01c0 .55.44.99.99.99h.02c.54 0 .99-.44.99-.99l.02-4.03c0-.54.44-.99.99-.99s.99.44.99.99v2.01l10 .02V11c0 .55.44.99.99.99h.02c.55 0 .99-.44.99-.99V6.98c0-.55.45-.99.99-.99h.03c.55 0 .99.44.99.99v2.01H37Z"/></svg>
