<svg xmlns="http://www.w3.org/2000/svg" viewBox="0 0 48 48"><title>Airborne</title><path d="M39 16.53c0 .11-10.97 19.52-14.21 24.98a1 1 0 0 1-1.73-.01S8.99 16.65 8.99 16.54c0-4.05 3.24-7.56 8-9.32-2.17 2.53-3.54 6.19-3.54 10.28-.66-.08-1.32-.15-1.95-.24l10.41 18.17-4.56-17.56c-.64-.04-1.26-.11-1.88-.16v-.21c0-5.18 2.43-9.57 5.81-11.14-1.23 2.64-1.81 7.08-1.81 11.32v.31l4.52 17.44s4.47-17.44 4.44-17.44v-.31c0-4.27-.59-8.74-1.83-11.38 3.43 1.52 5.93 5.96 5.93 11.19v.21c-.63.06-1.25.12-1.89.16L26.1 35.42l10.19-18.14c-.57.08-1.16.14-1.75.21 0-4.09-1.37-7.75-3.54-10.28 4.75 1.77 8 5.28 8 9.32ZM23.85 5.99c-.79.44-2.38 4.5-2.38 11.68v.38c.84.02 1.68.04 2.53.04s1.64-.01 2.45-.03v-.38c0-7.2-1.6-11.27-2.39-11.68h-.21Z"/></svg>
