<svg xmlns="http://www.w3.org/2000/svg" viewBox="0 0 48 48"><title>Armoede</title><path d="M22.95 33.57c-.19 3.85-1.77 6.92-4.12 8.02-.58.27-1.19.41-1.79.41-.71 0-1.41-.18-2.07-.55-1.18.64-2.48.67-3.74.08-2.4-1.12-4.06-4.25-4.25-7.96-.12-2.38.75-4.42 2.39-5.61 1.26-.92 2.87-1.22 4.55-.92-.11-1.35-.49-2-1.21-2.75a.996.996 0 1 1 1.44-1.38c1.15 1.2 1.65 2.35 1.77 4.15 1.71-.33 3.35-.03 4.64.9 1.64 1.19 2.51 3.23 2.39 5.61Zm2.24-22.43 1.1-.14 4.17 5.99h11.31l-3.76-6.01s-.05.01-.07.01H26.29ZM30.91 19v20.01c0 .55-.45.99-1 .99s-1-.44-1-.99V18.27l-4.93-7.09-3.86 5.56c-.12.17-.18.37-.18.57v8.17c.63.23 1.23.54 1.79.94 2.19 1.59 3.35 4.25 3.2 7.29 0 .07-.02.14-.03.22-.21 3.42-1.38 6.26-3.23 8.06h9.14l10.14-.04c.55 0 1-.45 1-1V18.99H30.92Zm7.04-10V7c0-.55-.45-1-1-1h-12c-.55 0-1 .45-1 1v2h14Zm-14 0h3V7h-3v2Zm-8.83 8.2c-.74.84-1.97 1.09-3.14.66-.84-.32-1.52-.94-1.99-1.8h2.95c.55 0 1-.45 1-1s-.45-1-1-1H9.35c-.05-.33-.08-.66-.09-1.02.01-.35.04-.69.09-1.02h3.59c.55 0 1-.45 1-1s-.45-1-1-1H9.99c.47-.85 1.14-1.48 1.99-1.8 1.16-.44 2.4-.19 3.14.65.37.42 1 .46 1.41.09.41-.37.45-1 .09-1.41-1.29-1.47-3.39-1.94-5.34-1.2-1.63.61-2.82 1.92-3.47 3.67h-.87c-.55 0-1 .45-1 1s.45 1 1 1h.39c-.02.18-.02.37-.04.56-.01.07-.04.13-.04.2 0 .09.01.17.01.26s-.01.17-.01.26c0 .07.03.13.04.2.01.19.01.38.04.56h-.39c-.55 0-1 .45-1 1s.45 1 1 1h.87c.65 1.75 1.85 3.05 3.47 3.67.61.23 1.24.34 1.85.34 1.34 0 2.61-.54 3.49-1.55a.988.988 0 0 0-.09-1.41.989.989 0 0 0-1.41.09Z"/></svg>