<svg xmlns="http://www.w3.org/2000/svg" viewBox="0 0 48 48"><title>Asbest Verwijderen</title><path d="M41.5 34.18 27.41 9.94C26.71 8.74 25.42 8 24.02 8s-2.69.75-3.39 1.94L6.54 34.18c-.7 1.2-.7 2.69 0 3.89.7 1.19 1.99 1.93 3.37 1.93h28.17c1.41-.03 2.7-.73 3.4-1.93.7-1.2.7-2.69 0-3.89Zm-13.63-3.99v2.78c0 1.35-1.1 2.45-2.45 2.45h-2.91c-1.35 0-2.45-1.1-2.45-2.45v-2.78c-1.73-1.38-2.74-3.63-2.27-6.11.46-2.43 2.4-4.42 4.82-4.92 4.06-.84 7.63 2.23 7.63 6.14 0 1.99-.94 3.74-2.38 4.89Zm.16-4.69c0 .83-.67 1.5-1.5 1.5s-1.5-.67-1.5-1.5.67-1.5 1.5-1.5 1.5.67 1.5 1.5Zm-5 0c0 .83-.67 1.5-1.5 1.5s-1.5-.67-1.5-1.5.67-1.5 1.5-1.5 1.5.67 1.5 1.5Zm1.94 3.53V30h-1.95v-.97c0-.54.44-.97.97-.97s.97.44.97.97Z"/></svg>