<svg xmlns="http://www.w3.org/2000/svg" viewBox="0 0 48 48"><title>Auto</title><path d="M41.29 17h-1.51l-2.11-5.93c-.6-1.83-2.31-3.06-4.26-3.07H14.7c-1.94.11-3.65 1.34-4.25 3.15L8.29 17H6.72c-.39 0-.71.42-.71.94V19c0 .55.45 1 1 1h.18s-1.18 2.21-1.18 3.01V38.4c0 .89.72 1.61 1.61 1.61h2.79c.89 0 1.61-.72 1.61-1.61v-3.39h24v3.39c0 .89.72 1.61 1.61 1.61h2.79c.89 0 1.61-.72 1.61-1.61V23.01c0-.78-1.15-3.01-1.15-3.01h.14c.55 0 1-.45 1-1v-1.06c0-.52-.32-.94-.71-.94ZM12.5 30c-1.38 0-2.5-1.11-2.5-2.47s1.12-2.47 2.5-2.47 2.5 1.11 2.5 2.47S13.88 30 12.5 30Zm15.51-1.01H20c-.55 0-.99-.45-.99-.99 0-.55.45-.99.99-.99h8.01c.55 0 .99.45.99.99 0 .55-.45.99-.99.99Zm7.49.94c-1.37 0-2.49-1.1-2.49-2.46s1.12-2.46 2.49-2.46 2.49 1.1 2.49 2.46-1.12 2.46-2.49 2.46ZM9.32 20.01l3.01-8.15v-.03l.02-.03c.33-.99 1.3-1.71 2.42-1.78h18.64c1.08 0 2.04.69 2.38 1.74l2.94 8.26H9.31Z"/></svg>
