<svg xmlns="http://www.w3.org/2000/svg" viewBox="0 0 48 48"><title>Bedrijventerrein</title><path d="m36.32 30.05-2.57-.86-2.82-6.59c-.16-.37-.52-.61-.92-.61H7c-.55 0-1 .45-1 1v15c0 .55.45 1 1 1h2.24c.42 1.72 1.96 3 3.81 3s3.39-1.28 3.81-3h9.37c.42 1.72 1.96 3 3.81 3s3.39-1.28 3.81-3h2.13c.55 0 1-.45 1-1v-7c0-.43-.28-.81-.68-.95ZM13.06 40c-1.07 0-1.94-.87-1.94-1.94s.87-1.94 1.94-1.94 1.94.87 1.94 1.94S14.13 40 13.06 40ZM25 29v-5h4.34l2.14 5H25Zm5.06 11c-1.07 0-1.94-.87-1.94-1.94s.87-1.94 1.94-1.94 1.94.87 1.94 1.94S31.13 40 30.06 40Zm11.47-21.85-8-5c-.34-.21-.78-.2-1.11.03L26 17.05V7c0-.55-.45-1-1-1H13c-.55 0-1 .45-1 1v12c0 .55.45 1 1 1h17c1.2 0 2.28.72 2.76 1.82l2.47 5.76 1.72.57C38.17 28.56 39 29.7 39 31v1c0 .55.45 1 1 1h1c.55 0 1-.45 1-1V19c0-.34-.18-.67-.47-.85ZM18 18h-4v-4h4v4Zm0-6h-4V8h4v4Zm6 6h-4v-4h4v4Zm0-6h-4V8h4v4Z"/></svg>
