<svg xmlns="http://www.w3.org/2000/svg" viewBox="0 0 48 48"><title>Begroting</title><path d="M41.83 39.51c.31.46.19 1.08-.27 1.39A6.328 6.328 0 0 1 38 42.01c-1.81 0-3.6-.8-4.96-2.35A8.133 8.133 0 0 1 31.51 37h-1.52c-.55 0-1-.45-1-1s.45-1 1-1h1.07a9.55 9.55 0 0 1 0-2h-1.08c-.55 0-1-.45-1-1s.45-1 1-1h1.52c.32-.92.8-1.79 1.43-2.54 2.26-2.69 5.8-3.24 8.61-1.35.46.31.58.93.27 1.39-.31.46-.93.58-1.39.27-1.93-1.3-4.38-.9-5.96.98-.32.38-.57.81-.79 1.26h4.31c.55 0 1 .45 1 1s-.45 1-1 1h-4.93c-.09.66-.09 1.34 0 2h4.92c.55 0 1 .45 1 1s-.45 1-1 1h-4.3c.23.48.5.94.86 1.34 1.6 1.83 3.96 2.19 5.89.89a.999.999 0 0 1 1.39.27ZM8 33.03 16.94 42H17v-8c0-.55-.45-1-1-1H8v.03ZM19 42v-8c0-1.66-1.34-3-3-3H8V7.97C8 6.88 8.88 6 9.97 6h24.05c1.09 0 1.97.88 1.97 1.97v16.28c-1.71.43-3.32 1.41-4.58 2.91-.47.56-.87 1.17-1.21 1.83h-.21c-1.66 0-3 1.34-3 3v4c0 1.66 1.34 3 3 3h.21c.37.72.82 1.38 1.34 1.98.33.38.7.72 1.08 1.03H19Zm-5-28c0 .55.45 1 1 1h14c.55 0 1-.45 1-1s-.45-1-1-1H15c-.55 0-1 .45-1 1Zm0 5c0 .55.45 1 1 1h14c.55 0 1-.45 1-1s-.45-1-1-1H15c-.55 0-1 .45-1 1Zm1 6h7c.55 0 1-.45 1-1s-.45-1-1-1h-7c-.55 0-1 .45-1 1s.45 1 1 1Z"/></svg>
