<svg xmlns="http://www.w3.org/2000/svg" viewBox="0 0 48 48"><title>Belastingen</title><path d="M35.64 17.45c.28-.46.14-1.06-.31-1.36L29.04 12h-12l-3.6 5.82 2.1 1.33c.47.3.61.91.31 1.38-.3.47-.91.61-1.38.31l-2.1-1.33L6.2 29.54c-.29.47-.15 1.09.32 1.38l14.04 8.8c.47.29 1.08.15 1.38-.31l13.71-21.96ZM24.11 29.89 21 34.99c-.29.48-.92.63-1.4.34-.48-.29-.63-.92-.34-1.4l3.11-5.1c.29-.48.92-.63 1.4-.34.48.29.63.92.34 1.4Zm-1.07-7.83-.19.31c-.3.47-.91.61-1.38.31a.994.994 0 0 1-.31-1.38l.2-.31c-.12-.12-.24-.22-.35-.35-.78-.96-1.13-2.14-.99-3.32.14-1.12.71-2.11 1.61-2.79.44-.33 1.07-.24 1.4.2.33.44.24 1.07-.2 1.4-.46.35-.75.86-.82 1.43-.07.59.1 1.18.46 1.68l1.37-2.17c.3-.47.91-.61 1.38-.31.47.3.61.91.31 1.38l-1.38 2.17c.65.12 1.33 0 1.87-.41.41-.31.69-.76.79-1.25.11-.54.64-.89 1.18-.78.54.11.89.64.78 1.18a4.056 4.056 0 0 1-1.55 2.44c-1.21.91-2.79 1.06-4.18.56ZM42 10v6c0 1.1-.89 1.99-1.99 2h-2.16l.58-1.16c.16-.26.18-.56.09-.84H40v-6H10v6h2.23l-1.24 2h-1C8.89 18 8 17.11 8 16.01V10c0-1.1.9-2 2-2h30c1.1 0 2 .9 2 2Z"/></svg>
