<svg xmlns="http://www.w3.org/2000/svg" viewBox="0 0 48 48"><title>Betaaldatums uitkering</title><path d="M34.48 29.75c-.32.38-.57.81-.79 1.26H38c.55 0 1 .45 1 1s-.45 1-1 1h-4.93c-.09.66-.09 1.34 0 2h4.92c.55 0 1 .45 1 1s-.45 1-1 1h-4.3c.23.48.5.94.86 1.34 1.6 1.83 3.96 2.19 5.89.89a.999.999 0 0 1 1.39.27c.31.46.19 1.08-.27 1.39A6.328 6.328 0 0 1 38 42.01c-1.81 0-3.6-.8-4.96-2.35A8.133 8.133 0 0 1 31.51 37h-1.52c-.55 0-1-.45-1-1s.45-1 1-1h1.07a9.55 9.55 0 0 1 0-2h-1.08c-.55 0-1-.45-1-1s.45-1 1-1h1.52c.32-.92.8-1.79 1.43-2.54 2.26-2.69 5.8-3.24 8.61-1.35.46.31.58.93.27 1.39-.31.46-.93.58-1.39.27-1.93-1.3-4.38-.9-5.96.98ZM7.02 9c-.55 0-1 .45-1 1v6h27.96v-6c0-.55-.45-1-1-1H28V6.99c0-.55-.44-.99-.99-.99h-.03c-.55 0-.99.44-.99.99V11c0 .55-.45 1-1 1s-1-.45-1-1V9.01l-10-.02V6.98c0-.55-.44-.99-.99-.99-.54 0-.99.44-.99.99L11.99 11c0 .55-.45.99-1 .99s-1-.45-1-1v-2H7Zm24.09 31.35c.44.58.13 1.45-.58 1.59-.18.04-.36.06-.54.06H9.98c-2.2 0-3.99-2.82-3.98-4V18h27.98v6.49c-.17.31-.31.55-.49.86-.76.48-1.46 1.09-2.08 1.83-.47.56-.87 1.17-1.21 1.83 0 0-.89-.11-1.21 0v.02c0-.55-.44-1-1-1h-2c-.55 0-1 .45-1 1s.45 1 1 1h1.76c-.47.53-.76 1.22-.76 1.98v2.02H26c-.55 0-1 .45-1 1s.45 1 1 1h1a3.005 3.005 0 0 0 3 2.98h.21c.18.35.56.88.91 1.35Zm-6.1-17.33c0 .55.45 1 1 1h2c.55 0 1-.45 1-1s-.45-1-1-1h-2c-.55 0-1 .45-1 1Zm-7 0c0 .55.45 1 1 1h2c.55 0 1-.45 1-1s-.45-1-1-1h-2c-.55 0-1 .45-1 1Zm0 6c0 .55.45 1 1 1h2c.55 0 1-.45 1-1s-.45-1-1-1h-2c-.55 0-1 .45-1 1Zm-3 6c0-.55-.45-1-1-1h-2c-.55 0-1 .45-1 1s.45 1 1 1h2c.55 0 1-.45 1-1Zm0-6c0-.55-.45-1-1-1h-2c-.55 0-1 .45-1 1s.45 1 1 1h2c.55 0 1-.45 1-1Zm0-6c0-.55-.45-1-1-1h-2c-.55 0-1 .45-1 1s.45 1 1 1h2c.55 0 1-.45 1-1Zm8.24 10.09c-.38-.38-1-.38-1.38 0l-2.5 2.5-.74-.74a.972.972 0 0 0-1.36 0c-.4.4-.38 1.05.05 1.41l1.39 1.19c.37.32.92.31 1.28-.02l3.23-2.95c.41-.37.42-1.01.03-1.41Z"/></svg>
