<svg xmlns="http://www.w3.org/2000/svg" viewBox="0 0 48 48"><title>Bevolking</title><path d="M16.06 22.12a5.467 5.467 0 0 0 .9-5.9h.14s-.01-.03-.02-.05c.55-.75 1.42-1.24 2.42-1.24h6.05c1.46 0 2.67 1.04 2.94 2.42V19c-.16-.01-.33-.03-.5-.03-.19 0-.37 0-.55.03a5.49 5.49 0 0 0-4.93 5.46c0 1.39.52 2.66 1.37 3.62-.16.03-.31.09-.46.14a5.514 5.514 0 0 0-3.5-2.21c-.39-1.98-1.94-3.49-3.86-3.9Zm8.43 2.38c0 1.93 1.57 3.5 3.5 3.5s3.5-1.57 3.5-3.5-1.57-3.5-3.5-3.5-3.5 1.57-3.5 3.5Zm-2.03-11.51c1.93 0 3.5-1.57 3.5-3.5s-1.57-3.5-3.5-3.5-3.5 1.57-3.5 3.5 1.57 3.5 3.5 3.5Zm-7 18.51c0 1.93 1.57 3.5 3.5 3.5s3.5-1.57 3.5-3.5-1.57-3.5-3.5-3.5-3.5 1.57-3.5 3.5Zm21.02-13.51c1.93 0 3.5-1.57 3.5-3.5s-1.57-3.5-3.5-3.5-3.5 1.57-3.5 3.5 1.57 3.5 3.5 3.5Zm-2.52 14.42c-.26-1.34-1.43-2.35-2.84-2.4h-6.16c-.22 0-.44.03-.65.08a5.464 5.464 0 0 1-1.12 4.92l.94.43c1.42.66 2.51 1.96 2.83 3.58l.04.19V42h6c.55 0 1-.45 1-1v-8.06c0-.11-.02-.23-.04-.34v-.2ZM12.01 22c1.93 0 3.5-1.57 3.5-3.5s-1.57-3.5-3.5-3.5-3.5 1.57-3.5 3.5 1.57 3.5 3.5 3.5Zm27.01-2h-7.88c1.42.99 2.35 2.64 2.35 4.5 0 1.39-.52 2.65-1.37 3.62 3.81.73 3.89 4.88 3.89 4.88v9H38c.55 0 1-.45 1-1v-8h2c.55 0 1-.45 1-1v-9.02c0-1.64-1.34-2.98-2.98-2.98ZM22.05 37h-6.06c-1.66 0-3 1.35-3 3.01v1c0 .55.45 1 1 1h10c.55 0 1-.45 1-1v-1.59a2.996 2.996 0 0 0-2.94-2.41Zm-7.2-1.85a5.493 5.493 0 0 1-1.39-3.65c0-2.68 1.91-4.9 4.45-5.4a2.992 2.992 0 0 0-2.85-2.11H9.01a3.003 3.003 0 0 0-3 3.01v1.99l.03 7.04c0 .55.45 1 1 1h2.02v3.96c0 .55.45 1 1 1h.98v-2c0-2.35 1.63-4.32 3.82-4.85Z"/></svg>
