<svg xmlns="http://www.w3.org/2000/svg" viewBox="0 0 48 48"><title>Bevrijding</title><path d="M39.19 26.28c1.11 1.09 1.81 2.6 1.81 4.28s-.69 3.19-1.81 4.28c-.38.37-1.01.37-1.39 0a5.982 5.982 0 0 1-1.81-4.28c0-.76.15-1.48.4-2.14l-3.36 3.36c.15.04.3.11.42.23 1.11 1.09 1.8 2.6 1.8 4.28s-.69 3.19-1.8 4.28c-.38.37-1.01.37-1.39 0a5.982 5.982 0 0 1-1.81-4.28c0-.76.15-1.48.4-2.14l-2.28 2.28a6.01 6.01 0 0 1-1.73 3.82 5.951 5.951 0 0 1-4.3 1.75c-.53 0-.98-.45-.98-.98a5.92 5.92 0 0 1 1.75-4.3 5.976 5.976 0 0 1 3.9-1.74l12.27-12.27a.996.996 0 1 1 1.41 1.41l-1.94 1.94c.15.04.3.11.42.23Zm-17.46 3.74c-2 0-3.11 1.87-3.22 2.07l-2.31 4.66c-.4.73-1.16 1.19-2 1.19s-1.64-.48-2.02-1.26c-.45.26-.92.39-1.41.39-.34 0-.69-.07-1.02-.19a2.815 2.815 0 0 1-1.72-1.87 2.88 2.88 0 0 1 .12-1.88 2.263 2.263 0 0 1 .28-4.14l4.29-1.72c1.14 1.16 2.33 1.48 3.26 1.48.55 0 1-.45 1-1s-.58-.94-1-1c-.33-.05-.69-.24-.96-.4l-.13-.08c-1.82-.86-2.53-2.6-2.31-4.84.07-.68.35-1.33.77-1.86-1.34-.47-2.24-1.71-2.24-3.1 0-.67.2-1.31.58-1.86-1-.48-1.62-1.45-1.62-2.53 0-.86.23-1.64.62-2.12-.35-.29-.76-.76-.76-1.74 0-1.19 1-2.2 2.18-2.2.45 0 .88.14 1.25.4l.07.05.06.06 10.85 11.75c.15.13.28.27.46.47l.13.16s.07.1.14.22.14.23.2.35c.05.1.09.21.12.32l.03.08c.05.16.14.46.14.46.09.47.47.83.96.83s.88-.36.96-.83c0 0 .06-.44-.16-1.02l-.03-.1c-.07-.2-.14-.4-.22-.58-.08-.18-.19-.37-.34-.62-.06-.1-.12-.2-.16-.25l-.3-.37-.23-.26.72-.79.33-.37.86-.95a3.693 3.693 0 0 1 2.77-1.24c.3 0 .59.03.89.1 1.1.26 2.04 1.06 2.51 2.13.31.71.4 1.43.27 2.14s1.84 1.96 1.84 1.96c.3.32.08.85-.36.85h-2.72c-.91.17-1.27.58-1.27 1.46 0 1.93-.94 4.16-2.33 5.53-.94.93-2.68 2.04-5.61 2.04H21.72Zm8.3-12.6c0 .55.45 1 1 1s1-.45 1-1-.45-1-1-1-1 .45-1 1Z"/></svg>
