<svg xmlns="http://www.w3.org/2000/svg" viewBox="0 0 48 48"><title>Bezwaar en beroep</title><path fill-rule="evenodd" d="M16.27 15.1a.996.996 0 0 1 0-1.41l6.91-6.91a.996.996 0 0 1 1.41 0l2.06 2.06c.2.2.3.44.3.71 0 .13-.03.26-.1.41l-.16.32-.04-.04-7.09 7.09-.11.05c-.14.07-.28.1-.4.1-.26 0-.5-.1-.69-.28l-.03-.03-2.07-2.07Zm13.86 11.1 5.55-5.55-8.33-8.33-5.55 5.55 8.33 8.33Zm.66 2.12-.14.28c-.07.14-.1.27-.1.4 0 .27.11.51.3.7l2.04 2.04c.39.39 1.02.39 1.41 0l6.91-6.91a.996.996 0 0 0 0-1.41l-2.06-2.06c-.27-.27-.77-.35-1.14-.18l-.29.13.03.03-6.97 6.97Zm-8.29-6.97-16 15.99c-.58.58-.58 1.51 0 2.09l2.07 2.07c.57.57 1.5.58 2.08 0l16.02-16-4.16-4.16ZM41 40.01H25c-.55 0-1 .45-1 1s.45 1 1 1h16c.55 0 1-.45 1-1s-.45-1-1-1Z"/></svg>
