<svg xmlns="http://www.w3.org/2000/svg" viewBox="0 0 48 48"><title>Bladeren opruimen</title><path d="M23 17.12c-3.12 2.2-6.51 4.88-9 7.45V11.11c2.32-1.4 5.62-2.81 9-3.41v9.42Zm13.71-9.71c-.52-.25-1.1-.41-1.72-.41h-3.45c-2.29 0-4.56.16-6.53.41v8.26c.8-.54 1.75-1.12 2.56-1.67 3.08-2.08 6.23-4.24 9.15-6.59ZM12 26.94V12.57c-3.54 3.01-5 6.96-5.02 12.54 0 1.62.24 3.55 1.8 6.98.89-2.14 1.82-3.37 3.22-5.15Zm3.74-.94h19.14c1.36-2.1 1.84-4.1 2.59-7H24.08c-3.31 2.33-5.81 4.25-8.34 7ZM38.38 8.87c-3.62 2.96-7.55 5.57-11.32 8.11V17h10.85c.5-1.84 1.08-3.54 1.08-6.14-.02-.73-.24-1.41-.62-1.99ZM8.08 39.79c-.13.58.33 1.13.92 1.21.59.08 1.03-.35 1.21-.91.94-2.94 2.1-5.09 2.1-5.09h4.13c7.58 0 13.54-2.52 17.45-6.99H13.71c-1.48 1.95-4.55 6.85-5.63 11.79Z"/></svg>
