<svg xmlns="http://www.w3.org/2000/svg" viewBox="0 0 48 48"><title>Bomen</title><path d="M36.95 40h-5v-3.06c1.91-.18 3.47-.88 4.65-2.09 1.58-1.62 2.4-4.15 2.32-7.2-.03-2.59-1.6-16.67-7.79-16.67-2.02 0-3.6 1.3-4.81 3.23 0 .01 0 .03.02.04.9 1.37 2.26 4.21 1.32 7.75-.09.34-.05.71.11 1.03.73 1.47 1.1 3.05 1.1 4.69 0 2.95-1.21 5.62-3.16 7.55.36.3.74.58 1.16.8.9.48 1.94.76 3.1.87V40h-11v-3.17c4.58-.49 8.16-4.37 8.16-9.08 0-1.41-.32-2.76-.94-4.02-.32-.65-.4-1.38-.21-2.08.79-2.98-.37-5.38-1.13-6.55-.37-.57-.53-1.31-.46-2.08.17-1.76-.42-3.54-1.63-4.87C21.54 6.8 19.8 6.03 18 6.03s-3.54.77-4.76 2.12a6.354 6.354 0 0 0-1.63 4.87c.08.78-.09 1.52-.46 2.08-.76 1.17-1.92 3.57-1.13 6.55.18.69.11 1.43-.21 2.08a9.026 9.026 0 0 0-.94 4.02c0 4.69 3.55 8.55 8.1 9.07V40h-5c-.55 0-1 .45-1 1s.45 1 1 1h25c.55 0 1-.45 1-1s-.45-1-1-1ZM14.23 25.3a.987.987 0 0 1 1.41-.02l1.3 1.26v-5.53c0-.55.45-1 1-1s1 .45 1 1v14c0 .07-2 .07-2 0v-5.68l-2.69-2.61a.987.987 0 0 1-.02-1.41Z"/></svg>