<svg xmlns="http://www.w3.org/2000/svg" viewBox="0 0 48 48"><title>Bouwprojecten</title><path d="M39 33v8c0 .55-.45 1-1 1h-8c-.55 0-1-.45-1-1v-8c0-.55.45-1 1-1h8c.55 0 1 .45 1 1Zm.34-15H35v5c1.34.48 2.25 1.86 1.94 3.42-.23 1.18-1.2 2.13-2.38 2.35-1.37.25-2.61-.43-3.2-1.52-.35-.65.17-1.43.9-1.43.34 0 .68.16.84.46.17.32.5.54.89.54.55 0 1-.45 1-1s-.45-1-1-1-1-.45-1-1V18h-14v22h6c.55 0 1 .45 1 1s-.45 1-1 1H7c-.55 0-1-.45-1-1s.45-1 1-1h6V18H8c-1.1 0-2-.9-2-2v-3c0-.63.3-1.22.8-1.6l6.67-5c.35-.26.77-.4 1.2-.4h2.95c.25.05.49.09.74.14L33 12h5.34a2 2 0 0 1 1.79 1.11l1 2c.67 1.33-.3 2.89-1.79 2.89ZM18.29 8.31l.46 3.69h8.96l-9.42-3.69ZM15.27 12h1.47l-.5-4h-.47l-.5 4Zm-5.88 0h3.86l.39-3.15L9.38 12ZM17 30h-2v10h2V30Zm0-12h-2v10h2V18Zm22.38-2-1-2H8v2h31.38Z"/></svg>
