<svg xmlns="http://www.w3.org/2000/svg" viewBox="0 0 48 48"><title>Bouwen en verbouwen</title><path d="m30.4 19.73-20.32 20.1c-.69.69-1.72.76-2.41.07l-1.18-1.18c-.69-.69-.69-1.8 0-2.48L26.77 16.1l3.63 3.63Zm-20.29-5.67c.2.28.54.44.88.42l2.1-.14 6.32 6.31 1.41-1.41-6.18-6.26.02-2.17c0-.33-.16-.64-.43-.83L10.55 7.4a1 1 0 0 0-1.28.11L7.63 9.15c-.34.34-.39.89-.11 1.29l2.57 3.63Zm18.9 9.9-1.72 1.72 11.16 11.16a.996.996 0 0 1-.71 1.7c-.26 0-.51-.1-.71-.29L25.87 27.09l-1.82 1.82 10.98 10.98c.68.68 1.58 1.03 2.48 1.03s1.79-.34 2.48-1.03a3.495 3.495 0 0 0 0-4.95L29 23.95Zm12.7-7.08-9.64-9.66a.973.973 0 0 0-.72-.29l-4.78.04c-.26 0-.51.11-.7.29l-1.83 1.83a.996.996 0 0 0 0 1.41l12.01 12.04c.39.39 1.02.39 1.41 0l4.24-4.24a.996.996 0 0 0 0-1.41Z"/></svg>
