<svg xmlns="http://www.w3.org/2000/svg" viewBox="0 0 48 48"><title>Brandgevaar</title><path d="M16 40h16c.55 0 1 .45 1 1s-.45 1-1 1H16c-.55 0-1-.45-1-1s.45-1 1-1Zm4.75-32.46c-1.34 1.08-2.56 2.3-3.64 3.61s-2.01 2.7-2.77 4.14c-.77 1.45-1.37 2.95-1.78 4.47-.42 1.55-.64 3.08-.64 4.56 0 2.19.45 4.29 1.33 6.23.89 1.96 2.12 3.61 3.77 4.93.69.55 1.48 1.03 2.19 1.4s1.58-.27 1.43-1.1l-.44-2.43a5.842 5.842 0 0 1-.24-1.66c0-.73.12-1.39.35-2.02.24-.63.58-1.18 1.04-1.7l2.32-2.57c.4-.44 1.11-.44 1.5 0l2.33 2.58c.45.51.79 1.06 1.03 1.69.24.62.35 1.28.35 2.02a5.899 5.899 0 0 1-.24 1.66l-.39 2.38c-.13.82.7 1.46 1.43 1.09s1.6-.87 2.14-1.34c1.2-1.06 2.88-2.97 3.77-4.93a14.99 14.99 0 0 0 1.33-6.23c0-1.89-.36-3.75-1.07-5.55-.7-1.77-1.72-3.42-3.03-4.9l-.64-.72a.994.994 0 0 0-1.36-.11l-.74.6c-.42.33-.85.6-1.29.78-.97.4-1.81.27-2.86-.32-.3-.17-.57-.38-.79-.63-.77-.89-1.14-2.02-1.14-3.45V7.03c0-.86-.96-1.34-1.62-.81l-1.64 1.32Z"/></svg>
