<svg xmlns="http://www.w3.org/2000/svg" viewBox="0 0 48 48"><title>Brief</title><path d="M35.64 17.45c.28-.46.14-1.06-.31-1.36L29.04 12h-12L6.21 29.54c-.29.47-.15 1.09.32 1.38l14.04 8.8c.47.29 1.08.15 1.38-.31l13.71-21.96ZM24.11 29.89 21 34.99c-.29.48-.92.63-1.4.34-.48-.29-.63-.92-.34-1.4l3.11-5.1c.29-.48.92-.63 1.4-.34.48.29.63.92.34 1.4ZM42 9.99v6c0 1.1-.89 1.99-1.99 2h-2.16l.58-1.16c.16-.26.18-.56.09-.84H40v-6H10v6h2.23l-1.24 2h-1C8.89 17.99 8 17.1 8 16V9.99c0-1.1.9-2 2-2h30c1.1 0 2 .9 2 2Z"/></svg>
