<svg xmlns="http://www.w3.org/2000/svg" viewBox="0 0 48 48"><title>Burgemeester</title><path d="M23.24 10.56c2.12.05 4.32.1 5.22-.83.34-.36.52-.89.54-1.6a7.083 7.083 0 0 0-5.07-2.12c-3.4 0-6.24 2.37-6.92 5.53 1.6-1.08 3.95-1.03 6.24-.98Zm6.68.54c-1.52 1.58-4.17 1.52-6.73 1.46-2.2-.06-4.66-.06-5.59.97-.37.41-.56.86-.42 1.61a7.07 7.07 0 0 0 6.74 4.87c3.91 0 7.08-3.13 7.08-7 0-.94-.19-1.83-.53-2.65-.15.28-.33.53-.55.75ZM17.46 22.21c.48-.15.97-.25 1.5-.25h10.01c.52 0 1.01.1 1.49.25-2.03 3.94-4.48 7.17-5.22 8.11-.37-.22-.81-.36-1.28-.36s-.91.14-1.29.37c-.72-.91-3.17-4.15-5.22-8.11Zm16.5 4.74V39h-3v3h-14v-3h-3V26.96c0-1.48.66-2.79 1.68-3.71 1.77 3.61 4.19 6.87 5.83 8.87l.03.03c-.01.1-.03.21-.03.32a2.5 2.5 0 0 0 5 0c0-.1-.02-.19-.03-.29v-.01c1.64-1.99 4.08-5.26 5.86-8.91 1.01.91 1.66 2.22 1.66 3.69Z"/></svg>
