<svg xmlns="http://www.w3.org/2000/svg" viewBox="0 0 48 48"><title>Computerregeling</title><path d="M42.01 36.49c0 .81-.64 1.47-1.44 1.51H7.43c-.8-.04-1.44-.7-1.44-1.51 0-.65.41-1.21.99-1.42.01 0 5.05-2.06 5.05-2.06H36s5.01 2.06 5.02 2.06c.58.22.99.77.99 1.42ZM9 28.03V13c0-1.66 1.34-3 3-3h24c1.66 0 3 1.34 3 3v15.03c0 1.39-1.24 2.72-2.57 2.97H11.57C10.24 30.75 9 29.42 9 28.03Zm5-7.92c0 .55.45 1 1 1s1-.45 1-1v-1.72l3.6 3.6a.996.996 0 1 0 1.41-1.41L17.43 17h1.68c.55 0 1-.45 1-1s-.45-1-1-1H15c-.55 0-1 .45-1 1v4.11Z"/></svg>
