<svg xmlns="http://www.w3.org/2000/svg" viewBox="0 0 48 48"><title>Cultuur</title><path d="M23.03 12.35c0-.79-.68-1.4-1.47-1.4-.11 0-.23.01-.35.04l-4.66 1.07c-.66.15-1.34.23-2.02.23s-1.36-.08-2.02-.23l-4.66-1.07c-.12-.03-.23-.04-.35-.04-.79 0-1.47.61-1.47 1.4V23.7c0 4.44 4.43 6.67 6.89 7.57.52.19 1.06.28 1.61.28s1.09-.09 1.61-.28c1.51-.55 3.76-1.61 5.28-3.37 0 .05 1.62-1.67 1.62-4.2V12.35ZM9.55 18.73c0-.78.66-1.42 1.47-1.42s1.47.63 1.47 1.42-.66 1.42-1.47 1.42-1.47-.63-1.47-1.42Zm8.87 6.9c-.93.83-2.39 1.31-3.96 1.31h-.36c-1.46-.07-2.73-.56-3.47-1.36a.938.938 0 0 1 .08-1.36c.41-.35 1.04-.32 1.41.08.37.4 1.16.68 2.07.72 1.13.05 2.26-.26 2.86-.79.41-.36 1.04-.34 1.41.05.38.39.35 1-.06 1.36Zm-.44-5.49c-.81 0-1.47-.63-1.47-1.42s.66-1.42 1.47-1.42 1.47.63 1.47 1.42-.66 1.42-1.47 1.42Zm22.93.45-4.55-.89c-1.3-.25-2.52-.81-3.55-1.62l-3.63-2.83c-.72-.56-1.8-.32-2.19.51l-1.91 4.03v4.07c0 2.58-1.18 4.9-3.33 6.74.59 2.16 2.08 3.98 3.16 5.07.75.76 1.75 1.21 2.82 1.28 2.55.17 7.41-.08 9.32-4.11l4.88-10.29c.39-.82-.11-1.78-1.02-1.96Zm-13.64 2.2c.34-.71 1.22-1.02 1.95-.69.74.33 1.05 1.17.71 1.88-.34.71-1.22 1.02-1.95.69-.74-.33-1.05-1.17-.71-1.88Zm4.33 10.85c-.1.03-.19.04-.29.04-.43 0-.83-.27-.96-.68-.16-.51-.76-1.09-1.56-1.49-1.01-.51-2.17-.68-2.94-.44-.53.16-1.09-.12-1.26-.62-.17-.51.12-1.05.65-1.21 1.3-.4 2.98-.19 4.48.57 1.3.66 2.23 1.62 2.55 2.64a.955.955 0 0 1-.67 1.2Zm4.37-6.96c-.34.71-1.22 1.02-1.95.69s-1.05-1.17-.71-1.88c.34-.71 1.22-1.02 1.95-.69.74.33 1.05 1.17.71 1.88Z"/></svg>