<svg xmlns="http://www.w3.org/2000/svg" viewBox="0 0 48 48"><title>Documenten</title><path d="m19 33-.06 8L11 33.03l8-.03ZM36 6H15.97C14.88 6 14 6.88 14 7.97V8h20a2 2 0 0 1 2 2v28h.02c1.09 0 1.98-.89 1.98-1.98V8c0-1.1-.9-2-2-2Zm-2 5.97v28.04c0 1.1-.89 1.99-1.99 1.99H21v-9.08c0-1.06-.86-1.92-1.92-1.92H10V11.97c0-1.09.88-1.97 1.97-1.97h20.05c1.09 0 1.97.88 1.97 1.97ZM24 26c0-.55-.45-1-1-1h-8c-.55 0-1 .45-1 1s.45 1 1 1h8c.55 0 1-.45 1-1Zm6-5.04c0-.55-.45-1-1-1L14.99 20c-.55 0-1 .45-1 1v.04c0 .55.45 1 1 1L29 22c.55 0 1-.45 1-1v-.04ZM30 16c0-.55-.45-1-1-1H14.99c-.55 0-1 .45-1 1s.45 1 1 1H29c.55 0 1-.45 1-1Z"/></svg>
