<svg xmlns="http://www.w3.org/2000/svg" viewBox="0 0 48 48"><title>Economie werk inkomen</title><path d="M23.41 28.59c.4.39.59.87.59 1.43v9.94c0 .56-.2 1.04-.59 1.44-.39.4-.87.6-1.42.6h-14c-.55 0-1.02-.2-1.41-.6-.39-.4-.58-.88-.58-1.44v-9.94c0-.56.19-1.04.58-1.43.39-.39.86-.59 1.41-.59H11v-1.92c0-.57.2-1.06.6-1.46.4-.41.89-.61 1.45-.61h3.89c.57 0 1.05.2 1.45.61.4.41.6.9.6 1.46V28h2.99c.55 0 1.02.2 1.42.59ZM17 26h-4v2h4v-2Zm19.72-3.34L34 29l-1.02-3.98L34 24v-1c0-.55-.45-1-1-1h-2c-.55 0-1 .45-1 1v1l1.02 1.02L30 29l-2.72-6.34c-.18-.42-.62-.67-1.07-.6-2.06.33-3.7 1.91-4.11 3.95 1.05.03 2.01.44 2.76 1.21S26 29.1 26 30.2v9.76c0 .74-.2 1.43-.57 2.04H38c.55 0 1-.45 1-1v-2h1.99c.55 0 1-.45 1-1V27a4.985 4.985 0 0 0-4.2-4.94c-.45-.07-.89.18-1.07.6ZM6 15c0 .55.45 1 1 1h.89c.93 2.36 2.93 4 5.23 4 1.31 0 2.54-.51 3.56-1.47a.996.996 0 1 0-1.37-1.45c-.65.61-1.41.93-2.2.93-1.24 0-2.33-.79-3.02-2h2.9c.55 0 1-.45 1-1s-.45-1-1-1h-3.6c-.05-.32-.08-.66-.08-1s.03-.68.08-1h3.6c.55 0 1-.45 1-1s-.45-1-1-1h-2.9c.69-1.21 1.78-2 3.02-2 .79 0 1.55.32 2.2.93.4.38 1.04.36 1.41-.04.38-.4.36-1.04-.04-1.41-1.02-.96-2.26-1.47-3.57-1.47-2.31 0-4.3 1.64-5.23 4h-.89c-.55 0-1 .45-1 1s.45 1 1 1h.38c-.04.33-.07.66-.07 1s.03.67.07 1h-.38c-.55 0-1 .45-1 1Zm25.24-4.44c2.12.05 4.32.1 5.22-.83.34-.36.52-.89.54-1.6a7.083 7.083 0 0 0-5.07-2.12c-3.4 0-6.24 2.37-6.92 5.53 1.6-1.08 3.95-1.03 6.24-.98Zm6.68.54c-1.52 1.58-4.17 1.52-6.73 1.46-2.2-.06-4.66-.06-5.59.97-.37.41-.56.86-.42 1.61a7.07 7.07 0 0 0 6.74 4.87c3.91 0 7.08-3.13 7.08-7 0-.94-.19-1.83-.53-2.65-.15.28-.33.53-.55.75Z"/></svg>
