<svg xmlns="http://www.w3.org/2000/svg" viewBox="0 0 48 48"><title>Eenzaamheid</title><path d="M31 13.75v.5c0 .41-.39.75-.88.75h-1.35c.14-.55.23-1.11.23-1.64V13h1.12c.48 0 .88.34.88.75ZM34 25H22.75l-3.88 3.82c-.1.09-.22.14-.35.14-.06 0-.13-.01-.19-.04a.499.499 0 0 1-.31-.46l-.03-3.47h-4a2 2 0 0 1-2-2V8a2 2 0 0 1 2-2h20a2 2 0 0 1 2 2v15a2 2 0 0 1-2 2Zm-1-11.25c0-1.52-1.29-2.75-2.88-2.75H29c0-.55-.45-1-1-1H18c-.55 0-1 .45-1 1v2.36c0 2.04 1.12 4.36 2.78 5.64H17c-.55 0-1 .45-1 1s.45 1 1 1h12c.55 0 1-.45 1-1s-.45-1-1-1h-2.78c.68-.53 1.26-1.23 1.72-2.01.02 0 .04.01.06.01h2.12C31.7 17 33 15.77 33 14.25v-.5Zm6.04 23.29h-7.08c-1.65 0-2.96 1.25-2.96 2.8V41c0 .55.45 1 1 1h11c.55 0 1-.45 1-1v-1.44c-.15-1.41-1.41-2.52-2.96-2.52ZM32 31.5c0 1.94 1.57 3.51 3.51 3.51s3.51-1.57 3.51-3.51-1.57-3.51-3.51-3.51S32 29.56 32 31.5Zm-15.96 5.54H8.96c-1.65 0-2.96 1.25-2.96 2.8V41c0 .55.45 1 1 1h11c.55 0 1-.45 1-1v-1.44c-.15-1.41-1.41-2.52-2.96-2.52Zm-3.54-2.03c1.94 0 3.51-1.57 3.51-3.51s-1.57-3.51-3.51-3.51-3.51 1.57-3.51 3.51 1.57 3.51 3.51 3.51Z"/></svg>
