<svg xmlns="http://www.w3.org/2000/svg" viewBox="0 0 48 48"><title>Eikenprocessie</title><path d="M41.94 20c0-.55-.45-1-1-1h-2.93l-.02-3h2.89c.55 0 .99-.45.99-1s-.44-1-.99-1h-3.04c-.1-.38-.25-.73-.44-1.05l2.69-2.71c.39-.39.39-1.02 0-1.41s-1.01-.39-1.4 0l-2.71 2.74c-.3-.18-.63-.31-.98-.4V8.03c0-.55-.45-1-1-1s-1 .45-1 1v3.15c-.35.09-.69.24-.99.42L29.3 8.89a.996.996 0 1 0-1.41 1.41l2.71 2.71c-.18.31-.32.65-.42 1.01h-3.17c-.55 0-1 .45-1 1s.45 1 1 1H30l.02 3h-3.09c-.55 0-1 .45-1 1s.45 1 1 1h3.09v.35c0 2.02-.7 3.88-1.85 5.36l-2.45-2.47c-.39-.39-1.01-.39-1.4 0s-.39 1.02 0 1.41l2.45 2.48a8.489 8.489 0 0 1-5.32 1.88h-.43v-3c0-.55-.45-1-1-1s-1 .45-1 1v3h-3v-3.01c0-.56-.45-1.01-1-1.01s-1 .45-1 1.01v3.14c-.36.09-.69.23-1.01.42l-2.67-2.69a.978.978 0 0 0-1.41 0 1.02 1.02 0 0 0 0 1.43L11.58 32c-.19.32-.34.67-.44 1.04H7.99c-.55 0-1 .45-1 1s.45 1 1 1h3.13c.1.38.25.74.45 1.07l-2.68 2.68a.996.996 0 0 0 .71 1.7c.26 0 .51-.1.71-.29L13 37.51c.32.19.66.33 1.03.42v3.1c0 .55.45 1 1 1s1-.45 1-1v-3h3v3c0 .55.45 1 1 1s1-.45 1-1v-3h.37c.95 0 1.88-.1 2.78-.25l.77 2.88c.12.45.52.74.96.74.09 0 .17-.01.26-.03.53-.14.85-.69.71-1.22l-.75-2.81c.83-.25 1.62-.56 2.39-.93l1.42 2.46c.18.32.52.5.87.5.17 0 .34-.04.5-.13.48-.28.64-.89.37-1.36l-1.4-2.42c.76-.48 1.48-1.02 2.15-1.62l2.06 2.06c.2.2.45.29.71.29s.51-.1.71-.29a.996.996 0 0 0 0-1.41l-2.06-2.06c.58-.66 1.11-1.35 1.59-2.1l2.4 1.38c.16.09.33.13.5.13.35 0 .68-.18.87-.5a.988.988 0 0 0-.37-1.36l-2.43-1.4c.37-.77.69-1.57.94-2.4l2.77.74a1.002 1.002 0 0 0 1.22-.71.994.994 0 0 0-.71-1.22l-2.83-.76c.16-.93.26-1.87.26-2.84v-.34H41c.55 0 1-.45 1-1ZM35 21c0 7.59-6.41 14-14 14h-6c-.55 0-1-.45-1-1s.45-1 1-1h6c6.39 0 12-5.61 12-12v-6c0-.55.45-1 1-1s1 .45 1 1v6Zm-21.99-.98c3.87 0 7-3.13 7-7s-3.13-7-7-7-7 3.13-7 7 3.13 7 7 7Zm.72-3.28c-.19.19-.43.28-.72.28s-.54-.09-.72-.28c-.19-.19-.28-.43-.28-.72s.09-.53.28-.72c.19-.19.43-.28.72-.28s.54.09.72.28c.19.19.28.43.28.72s-.09.53-.28.72ZM12 10c0-.55.45-1 1-1s1 .45 1 1v3c0 .55-.45 1-1 1s-1-.45-1-1v-3Z"/></svg>
