<svg xmlns="http://www.w3.org/2000/svg" viewBox="0 0 48 48"><title>Elektrisch rijden</title><path d="M30.85 40.45c-.27.51-.88.7-1.36.42l-4.51-2.99.02 3.06c0 .81-.81 1.33-1.48.94l-6.04-3.8c-.48-.28-.66-.93-.39-1.45.27-.51.88-.7 1.36-.42l4.53 2.95-.05-3.07c-.01-.82.81-1.35 1.48-.95L30.47 39c.48.28.66.93.39 1.45ZM42 15.94V17c0 .55-.45 1-1 1h-.14s1.15 2.23 1.15 3.01V35.4c0 .89-.72 1.61-1.61 1.61h-2.79c-.89 0-1.61-.72-1.61-1.61v-3.39H12v3.39c0 .89-.72 1.61-1.61 1.61H7.6c-.89 0-1.61-.72-1.61-1.61V21.01c0-.8 1.18-3.01 1.18-3.01h-.18c-.55 0-1-.45-1-1v-1.06c0-.52.32-.94.71-.94h1.57l2.16-5.85c.6-1.82 2.31-3.05 4.25-3.15h18.71c1.95 0 3.66 1.24 4.26 3.07L39.76 15h1.51c.39 0 .71.42.71.94Zm-27 9.59c0-1.36-1.12-2.47-2.5-2.47S10 24.17 10 25.53 11.12 28 12.5 28s2.5-1.11 2.5-2.47Zm14 .46c0-.55-.45-.99-.99-.99H20c-.55 0-.99.45-.99.99s.45.99.99.99h8.01c.55 0 .99-.45.99-.99Zm8.98-.53c0-1.36-1.12-2.46-2.49-2.46S33 24.1 33 25.46s1.12 2.46 2.49 2.46 2.49-1.1 2.49-2.46Zm.75-7.46-2.94-8.26A2.493 2.493 0 0 0 33.41 8H14.76c-1.12.08-2.09.79-2.42 1.78v.03l-.02.03-3.01 8.15h29.42Z"/></svg>
