<svg xmlns="http://www.w3.org/2000/svg" viewBox="0 0 48 48"><title>Energietransitie</title><path d="m21.4 29.38 2.5-4.52h-2.73c-.76 0-1.24-.82-.88-1.48l3.29-5.96a1.086 1.086 0 0 1 1.9 1.05l-2.43 4.39h2.73c.76 0 1.24.82.88 1.48l-3.29 5.96c-.19.34-.55.56-.95.56h-.14c-.76 0-1.24-.82-.88-1.48ZM9.98 20H16c.55 0 1-.45 1-1s-.45-1-1-1h-3.71c1.89-3.77 5.76-6.3 9.85-6.87 7.21-1 13.89 4.05 14.89 11.26.07.5.5.86.99.86h.14c.55-.08.93-.58.85-1.13C37.86 13.82 30.17 8 21.86 9.16c-4.54.63-8.54 3.3-10.89 7.16v-3.3c0-.55-.45-1-1-1s-1 .45-1 1v6c0 .55.45 1 1 1Zm28.05 8H32.01c-.55 0-1 .45-1 1s.45 1 1 1h3.7c-2.05 3.82-5.75 6.3-9.84 6.87-7.21 1-13.89-4.05-14.89-11.26a.988.988 0 0 0-1.13-.85c-.55.08-.93.58-.85 1.13C10.05 33.49 16.58 39 24.05 39a15.242 15.242 0 0 0 12.99-7.31v3.3c0 .55.45 1 1 1s1-.45 1-1v-6c0-.55-.45-1-1-1Z"/></svg>
