<svg xmlns="http://www.w3.org/2000/svg" viewBox="0 0 48 48"><title>Enquete</title><path d="M13 12v-2c0-.55.45-1 1-1h2c0-1.66 1.34-3 3-3s3 1.34 3 3h2c.55 0 1 .45 1 1v2c0 .55-.45 1-1 1H14c-.55 0-1-.45-1-1Zm6 27.32 4 2.5v-7.64l-4 2.5v2.64ZM25 37h17v-2c0-.55-.45-1-1-1H25v3Zm0 2v3h16c.55 0 1-.45 1-1v-2H25Zm7-7h-9c-.19 0-.37.05-.53.15l-8 5c-.29.18-.47.5-.47.85s.18.67.47.85L19.51 42H7.49C6.66 41.99 6 41.32 6 40.49V12.48c0-.82.66-1.48 1.48-1.48H11v2c0 1.1.9 2 2 2h12c1.1 0 2-.9 2-2v-2h3.49c.83 0 1.51.67 1.51 1.51v19.5Zm-20-4c0-.55-.45-1-1-1s-1 .45-1 1 .45 1 1 1 1-.45 1-1Zm0-4c0-.55-.45-1-1-1s-1 .45-1 1 .45 1 1 1 1-.45 1-1Zm0-4c0-.55-.45-1-1-1s-1 .45-1 1 .45 1 1 1 1-.45 1-1Zm12 8c0-.55-.45-1-1-1h-8c-.55 0-1 .45-1 1s.45 1 1 1h8c.55 0 1-.45 1-1Zm4-4c0-.55-.45-1-1-1H15c-.55 0-1 .45-1 1s.45 1 1 1h12c.55 0 1-.45 1-1Zm0-4c0-.55-.45-1-1-1H15c-.55 0-1 .45-1 1s.45 1 1 1h12c.55 0 1-.45 1-1Z"/></svg>
