<svg xmlns="http://www.w3.org/2000/svg" viewBox="0 0 48 48"><title>Erfgoed</title><path d="M41.03 6c-.55 0-1 .45-1 1v2h-3.67V7c0-.55-.45-1-1-1s-1 .45-1 1v2h-3.67V7c0-.55-.45-1-1-1s-1 .45-1 1v2h-3.67V7c0-.55-.45-1-1-1s-1 .45-1 1v7.09l.29.29c.24.24.47.44.7.64.69.59 1.06.91 1.13 1.98v9.18c3.57 4.15 2.16 8.06.36 13-.1.26-.2.54-.29.82h6.58v-5.41c0-1.33 1.18-2.41 2.64-2.41s2.64 1.08 2.64 2.41V40h2.82V17.41c.04-1.19.61-2.17 1.69-2.91l.44-.3V6.99c0-.55-.45-1-1-1Zm-6 15h-2v-3c0-.55.45-1 1-1s1 .45 1 1v3Zm-11.92 7.47.88-1.51-.54-.62c-.94-1.08-1.62-1.86-1.62-2.56 0-.78-.02-2.78-.02-2.78 0-.55-.45-.99-1-.99h-5.28a1 1 0 0 0-1 .99s-.02 2-.02 2.78c0 .57-.45 1.19-1.11 1.97-.91-1.31-1.6-1.74-3.1-1.74-1.8 0-3.43 1.06-4.04 2.63-.45 1.16-.72 3.55 2.59 6.61.19.18.39.35.59.53.64.57 1.25 1.12 1.74 1.76.29.96.66 1.99 1.06 3.1.29.82.61 1.7.93 2.65a1 1 0 0 0 .95.68h8.13a1 1 0 0 0 .95-.68c.32-.95.64-1.83.93-2.65 1.75-4.9 2.91-8.14-.11-11.68Zm-6.6-4.7c0-.41 0-1.16.01-1.77h3.3v1.77c0 1.46.93 2.53 2.12 3.88l.53.61c.79.92 1.2 1.8 1.34 2.74h-11.3c.14-.95.55-1.82 1.34-2.74l.53-.61c1.18-1.35 2.12-2.42 2.12-3.88Zm-6.31 8c-1.78-1.64-2.54-3.25-2.09-4.41.31-.8 1.21-1.36 2.18-1.36.76 0 .92.02 1.76 1.33-1.21 1.55-1.63 3.07-1.57 4.7l-.29-.26Z"/></svg>