<svg xmlns="http://www.w3.org/2000/svg" viewBox="0 0 48 48"><title>Erfpacht</title><path d="M15 32.97V41l-8-8 8-.03ZM24.99 41V41.96h-8v-9.08c0-1.06-.86-1.92-1.92-1.92H6V7.94c0-1.09.88-1.97 1.97-1.97h24.05c1.09 0 1.97.88 1.97 1.97v18.48a2.985 2.985 0 0 0-2.76.41L23.2 32.8c-.63.46-1.06 1.16-1.18 1.95-.12.79.07 1.59.54 2.23l.12.16c.54.74 1.39 1.19 2.3 1.22v2.62Zm-3.88-14c1.31 0 2.54-.51 3.56-1.47a.996.996 0 1 0-1.37-1.45c-.65.61-1.41.93-2.2.93-1.24 0-2.33-.79-3.02-2h2.9c.55 0 1-.45 1-1s-.45-1-1-1h-3.6c-.05-.32-.08-.66-.08-1s.03-.68.08-1h3.6c.55 0 1-.45 1-1s-.45-1-1-1h-2.9c.69-1.21 1.78-2 3.02-2 .79 0 1.55.32 2.2.93.4.38 1.04.36 1.41-.04.38-.4.36-1.04-.04-1.41-1.02-.96-2.26-1.47-3.57-1.47-2.31 0-4.3 1.64-5.23 4h-.89c-.55 0-1 .45-1 1s.45 1 1 1h.38c-.04.33-.07.66-.07 1s.03.67.07 1h-.38c-.55 0-1 .45-1 1s.45 1 1 1h.89c.93 2.36 2.93 4 5.23 4Zm20.68 8.8-.17.22c-.34.44-.97.51-1.41.17l-1.23-1.06v5.88c0 .55-.45 1-1 1h-10c-.55 0-1-.45-1-1v-5.88l-1.28 1.06a.993.993 0 0 1-1.4-.21l-.12-.16a.996.996 0 0 1 .22-1.4l8.01-5.96a.99.99 0 0 1 1.18 0l3.38 2.46v-.89c.02-.55.46-.99 1.01-.99s1 .45 1 1v2.34l2.6 2.01c.46.33.55.98.2 1.43Zm-6.8.2c0-.55-.45-1-1-1h-2c-.55 0-1 .45-1 1v1c0 .55.45 1 1 1h2c.55 0 1-.45 1-1v-1Z"/></svg>
