<svg xmlns="http://www.w3.org/2000/svg" viewBox="0 0 48 48"><title>Evenementen</title><path d="M39 41h-6V28h7v12c0 .55-.45 1-1 1Zm-8 0H17V28h14v13Zm-16 0H9c-.55 0-1-.44-1-1V28h7v13Zm27-16c0 .55-.45 1-1 1h-6.5l-.16-.15c-.86-.8-5.33-4.85-7.99-10.36L25.25 13l1.99 1.85c3.03 2.81 8.45 7 14.37 8.98l.39.13V25Zm-10.75 1H16.82l.85-1.01c1.6-1.9 4.32-5.34 5.81-8.81l.51-1.18.51 1.17c1.5 3.45 4.29 6.9 5.89 8.81l.85 1.01Zm-17.76 0H7c-.55 0-1-.45-1-1v-1.04l.39-.13c5.92-1.97 11.27-6.16 14.29-8.96l1.98-1.83-1.08 2.47c-2.57 5.49-7.72 10.16-7.92 10.34l-.16.14ZM25.24 7.28a.998.998 0 0 0-1.24.97v1.63c0 .76.75 1.3 1.47 1.06l3.44-1.05c1.02-.24 1.03-1.14.01-1.4l-3.68-1.22Z"/></svg>
