<svg xmlns="http://www.w3.org/2000/svg" viewBox="0 0 48 48"><title>F1</title><path fill-rule="evenodd" d="M23 33h-1 1Zm18.2 2.84-2.36-.48C38.33 33.43 36.59 32 34.5 32c-1.45 0-2.73.7-3.55 1.76l-3.95-.8v-.02h-.06c-.27-1.67-1.7-2.95-3.44-2.95-.54 0-1.04.13-1.5.35v-.35c0-.57-.47-1-1-1h-1.82c-.12 0-.23.02-.34.06L8.01 32.99v-3c0-.55-.44-1-.99-1s-1 .45-1 1v8c0 .55.44 1 .99 1h2.76c.81 1.2 2.18 2 3.74 2s2.93-.8 3.74-2h13.52c.81 1.2 2.18 2 3.74 2s2.93-.8 3.74-2h2.76c.55 0 1-.45 1-1v-1.18c0-.48-.33-.89-.8-.98ZM13.5 39a2.5 2.5 0 0 1 0-5 2.5 2.5 0 0 1 0 5ZM25 34h-3v-1c.22-.58.81-1 1.51-1s1.26.4 1.49.97V34Zm9.5 5a2.5 2.5 0 0 1 0-5 2.5 2.5 0 0 1 0 5ZM12.36 23.56 6.7 17.9a.996.996 0 0 1 0-1.41l3.34-3.34.9-2.32 3.54-3.54a.996.996 0 0 1 1.41 0l8.1 8.1 8.1-8.1a.996.996 0 0 1 1.41 0l3.54 3.54.9 2.32 3.34 3.34c.39.39.39 1.02 0 1.41l-5.66 5.66a.996.996 0 0 1-1.41 0l-3.54-3.54-.71-2.12-2.83-2.83-1.74 1.74 3.21 3.21a.996.996 0 1 1-1.41 1.41l-3.21-3.21-3.21 3.21a.996.996 0 1 1-1.41-1.41l3.21-3.21-1.74-1.74L18 17.9l-.71 2.12-3.54 3.54a.996.996 0 0 1-1.41 0Z"/></svg>
