<svg xmlns="http://www.w3.org/2000/svg" viewBox="0 0 48 48"><title>Fiets</title><path d="M35 22c-.25 0-.49.04-.73.06l-1.87-7.39c-.26-.8-.83-2.67-2.92-2.67h-.49c-.55 0-1 .45-1 1s.45 1 1 1h.48c.24-.01.59 0 .99 1.22l.24.94-11.59 1.52-.9-1.68h.78c.55 0 1-.45 1-1s-.45-1-1-1h-4.04c-.55 0-1 .45-1 1s.45 1 1 1h.98l1.39 2.6-5.21 9.94c-.16.31-.15.68.03.98.18.3.51.48.86.48h4.9A5 5 0 0 1 8 29c0-2.47 1.76-4.54 4.19-4.93.54-.09.92-.6.83-1.15a1 1 0 0 0-1.15-.83A6.97 6.97 0 0 0 6 29c0 3.86 3.14 7 7 7 3.52 0 6.43-2.61 6.92-6h3.51c.68 0 1.32-.35 1.69-.92l6.35-9.94 2.56 10.11c.11.45.52.75.97.75.08 0 .17 0 .25-.03.53-.14.86-.68.72-1.21l-1.2-4.73c.08 0 .16-.02.23-.02 2.76 0 5 2.24 5 5s-2.24 5-5 5-5-2.24-5-5c0-1.12.36-2.19 1.05-3.07a1 1 0 0 0-.17-1.4 1 1 0 0 0-1.4.17 6.95 6.95 0 0 0-1.47 4.3c0 3.86 3.14 7 7 7s7-3.14 7-7-3.14-7-7-7Zm-20.35 6 3.81-7.27L22.33 28h-7.68Zm9.42-.99-3.96-7.44 9.51-1.25L24.08 27Z"/></svg>
