<svg xmlns="http://www.w3.org/2000/svg" viewBox="0 0 48 48"><title>Gebruiker</title><path d="M14 38V27c0-2.76 2.24-5 5-5h10c2.76 0 5 2.24 5 5v11c0 .55-.45 1-1 1h-2v2c0 .55-.45 1-1 1H18c-.55 0-1-.45-1-1v-2h-2c-.55 0-1-.45-1-1Zm9.24-27.44c2.12.05 4.32.1 5.22-.83.34-.36.52-.89.54-1.6a7.083 7.083 0 0 0-5.07-2.12c-3.4 0-6.24 2.37-6.92 5.53 1.6-1.08 3.95-1.03 6.24-.98Zm6.68.54c-1.52 1.58-4.17 1.52-6.73 1.46-2.2-.06-4.66-.06-5.59.97-.37.41-.56.86-.42 1.61a7.07 7.07 0 0 0 6.74 4.87c3.91 0 7.08-3.13 7.08-7 0-.94-.19-1.83-.53-2.65-.15.28-.33.53-.55.75Z"/></svg>
