<svg xmlns="http://www.w3.org/2000/svg" viewBox="0 0 48 48"><title>Gebruiker centraal</title><path d="M29.95 22H18.94c-2.98 0-3.98 1.01-4.98 5.01l-.95 4.27 4.8-3.36 2.4 3.82-3.25 2.28v6.99c0 .55.45 1 1 1h13c.55 0 1-.45 1-1v-2h2c.55 0 1-.45 1-1V27.03c.01-2.83-2.19-5.03-5.01-5.03Zm-5.62 3.06-1.59 1.15.57.81c.64.97.67 2.41-.3 3.13-.48.36-.81.61-1.12.72l-2.05-3.26a.994.994 0 0 1 .26-1.34l3.35-2.42a.753.753 0 0 1 .88 1.22ZM18 11.54c.68-3.16 3.52-5.53 6.92-5.53 1.99 0 3.79.81 5.07 2.12-.02.72-.2 1.25-.54 1.6-.9.94-3.09.88-5.22.83-2.29-.06-4.64-.11-6.24.98Zm13.47-1.18c.34.82.53 1.71.53 2.65 0 3.87-3.17 7-7.08 7-3.16 0-5.83-2.04-6.74-4.87-.14-.74.06-1.2.42-1.61.93-1.04 3.38-1.03 5.59-.97 2.57.06 5.21.13 6.73-1.46.22-.22.4-.48.55-.75Z"/></svg>
