<svg xmlns="http://www.w3.org/2000/svg" viewBox="0 0 48 48"><title>Gebruiker ingelogd</title><path d="M33 19.05V15c0-4.96-4.04-9-9-9s-9 4.04-9 9c0 .55.45 1 1 1s1-.45 1-1c0-3.86 3.14-7 7-7s7 3.14 7 7v4.05L15.55 19C13.04 19 11 21.04 11 23.55V37.5c0 2.49 2.01 4.5 4.5 4.5h17c2.49 0 4.5-2.01 4.5-4.5V23.49c0-2.31-1.76-4.19-4-4.44ZM24.07 24c1.66.01 2.99 1.36 2.98 3.02A2.996 2.996 0 0 1 24.03 30a2.996 2.996 0 0 1-2.98-3.02A2.996 2.996 0 0 1 24.07 24ZM28 36.96h-8c-.55 0-1-.45-1-1v-1.25c0-1.54 1.31-2.75 2.89-2.75h4.29c1.58 0 2.82 1.21 2.82 2.75v1.25c0 .55-.45 1-1 1Z"/></svg>
