<svg xmlns="http://www.w3.org/2000/svg" viewBox="0 0 48 48"><title>Gebruikersvraag</title><path d="m37 26.99.03 9.97c0 .54-.44.99-.98 1L34 38l-.04 2.93c0 .55-.44 1-.99 1L21.05 42c-.55 0-1.01-.45-1.01-1V26h-.61C14.9 26 12 22.26 12 18v-.93c0-.56.46-1.01 1.01-1l2 .03c.55 0 .99.45.99 1v.9c0 2.09 1.07 4 3.43 4H32c2.81 0 5 2.19 5 5ZM13.54 14h1.47c.55 0 1-.45 1-1V7c0-.55-.44-1-1-1s-1 .45-1 1l-.02 2h-.48a2.5 2.5 0 0 0 0 5h.04Zm12.7-3.44c2.12.05 4.32.1 5.22-.83.34-.36.52-.89.54-1.6a7.083 7.083 0 0 0-5.07-2.12c-3.4 0-6.24 2.37-6.92 5.53 1.6-1.08 3.95-1.03 6.24-.98Zm6.68.54c-1.52 1.58-4.17 1.52-6.73 1.46-2.2-.06-4.66-.06-5.59.97-.37.41-.56.86-.42 1.61a7.07 7.07 0 0 0 6.74 4.87c3.91 0 7.08-3.13 7.08-7 0-.94-.19-1.83-.53-2.65-.15.28-.33.53-.55.75Z"/></svg>
