<svg xmlns="http://www.w3.org/2000/svg" viewBox="0 0 48 48"><title>Geld</title><path d="M35.47 38.94c2.67 0 4.97-.61 6.5-1.61v1.97c0 1.13-2.47 2.71-6.5 2.71s-6.5-1.58-6.5-2.71v-1.97c1.53 1 3.83 1.61 6.5 1.61Zm0-13.94c-4.53 0-8.01 1.69-8.45 4H7.47c-.83 0-1.5-.67-1.5-1.5v-16c0-.83.67-1.5 1.5-1.5h29c.83 0 1.5.67 1.5 1.5v13.68c-.79-.12-1.62-.18-2.5-.18Zm-9.5-5.5c0-2.49-2.01-4.5-4.5-4.5s-4.5 2.01-4.5 4.5 2.01 4.5 4.5 4.5 4.5-2.01 4.5-4.5Zm3 12.86v1.87c0 1.13 2.47 2.71 6.5 2.71s6.5-1.58 6.5-2.71v-1.87c-1.53.95-3.83 1.54-6.5 1.54s-4.97-.59-6.5-1.54ZM39.97 6h-29c-.55 0-1 .45-1 1s.45 1 1 1h29v11c0 .55.45 1 1 1s1-.45 1-1V8c0-1.1-.9-2-2-2Zm-4.5 20.9c-3.97 0-6.5 1.48-6.5 2.5s2.53 2.5 6.5 2.5 6.5-1.48 6.5-2.5-2.53-2.5-6.5-2.5Z"/></svg>