<svg xmlns="http://www.w3.org/2000/svg" viewBox="0 0 48 48"><title>Geluid</title><path d="M27 11h-1.63c-.22 0-.44.07-.61.21L16 18H9c-1.66 0-3 1.34-3 3v6c0 1.66 1.34 3 3 3h7l8.76 6.79c.18.14.39.21.61.21H27c.55 0 1-.45 1-1V12c0-.55-.45-1-1-1ZM17 28h-2v-8h2v8Zm17.66-10.12C35.2 19.11 36 21.37 36 24s-.8 4.89-1.34 6.12c-.24.54-.88.76-1.4.47a.98.98 0 0 1-.43-1.26C33.29 28.27 34 26.28 34 24s-.71-4.27-1.17-5.33a1 1 0 0 1 .43-1.26.99.99 0 0 1 1.4.48ZM42 24c0 5.48-1.92 10.15-2.84 12.07-.25.52-.87.71-1.38.44a.992.992 0 0 1-.42-1.3C38.2 33.45 40 29.12 40 24s-1.8-9.45-2.64-11.21a.995.995 0 0 1 .42-1.3.992.992 0 0 1 1.38.44C40.08 13.85 42 18.49 42 24Z"/></svg>
