<svg xmlns="http://www.w3.org/2000/svg" viewBox="0 0 48 48"><title>Gemeenteraad</title><path d="M34.18 15.94c0-1.61 1.31-2.92 2.92-2.92s2.92 1.31 2.92 2.92-1.31 2.92-2.92 2.92-2.92-1.31-2.92-2.92Zm5.3 4.06h-4.87c-.77 0-1.48.4-1.95.98 2.02 1.23 3.33 3.44 3.33 6.01V28h5.97l.03-5.5c0-1.33-1.19-2.5-2.52-2.5ZM11.1 18.86c1.61 0 2.92-1.31 2.92-2.92s-1.31-2.92-2.92-2.92-2.92 1.31-2.92 2.92 1.31 2.92 2.92 2.92ZM28.95 22c-.66 2.16-1.9 4.22-3.01 6.02L25 25l1-1v-2h-4v2l1 1-1.07 3.02c-1.12-1.81-2.34-3.84-3.01-6.02l-.17-.04c-2.67.15-4.75 2.28-4.75 5V39h3v3h14v-3h3.05L34 26.95c0-2.78-2.3-4.88-5.05-4.95Zm-13.57-1.01c-.47-.59-1.18-.99-1.96-.99H8.54c-1.34 0-2.53 1.17-2.53 2.5V28h5.98l.04-.99c0-2.58 1.32-4.79 3.35-6.02Zm7.85-10.43c2.12.05 4.32.1 5.22-.83.34-.36.52-.89.54-1.6a7.083 7.083 0 0 0-5.07-2.12c-3.4 0-6.24 2.37-6.92 5.53 1.6-1.08 3.95-1.03 6.24-.98Zm-.05 2c-2.2-.06-4.66-.06-5.59.97-.37.41-.56.86-.42 1.61a7.07 7.07 0 0 0 6.74 4.87c3.91 0 7.08-3.13 7.08-7 0-.94-.19-1.83-.53-2.65-.15.28-.33.53-.55.75-1.52 1.58-4.17 1.52-6.73 1.46Z"/></svg>
