<svg xmlns="http://www.w3.org/2000/svg" viewBox="0 0 48 48"><title>Gemeenteraadsvergadering</title><path d="M33.99 14c0-1.65 1.35-3 3-3s3 1.35 3 3-1.35 3-3 3-3-1.35-3-3ZM24 12c1.65 0 3-1.35 3-3s-1.35-3-3-3-3 1.35-3 3 1.35 3 3 3Zm-10.01 2c0-1.65-1.35-3-3-3s-3 1.35-3 3 1.35 3 3 3 3-1.35 3-3ZM7.84 36.39C6.67 35.06 5.99 33.58 5.99 32c0-5.52 8.06-10 18-10s18 4.48 18 10c0 1.58-.67 3.06-1.84 4.39a3.03 3.03 0 0 0-2.1-.9h-3.22c-1.61.1-2.84 1.38-2.84 3.01v2.45c-.96.26-1.96.49-3 .65v-1.11c0-1.67-1.28-2.97-2.94-3.01h-4.22c-1.61.1-2.84 1.38-2.84 3.01v1.11c-1.04-.17-2.04-.39-2.99-.65V38.5c0-1.67-1.28-2.97-2.94-3.01H9.84c-.79.05-1.49.39-2 .91ZM32.99 31c0 1.65 1.35 3 3 3s3-1.35 3-3-1.35-3-3-3-3 1.35-3 3Zm-12 2c0 1.65 1.35 3 3 3s3-1.35 3-3-1.35-3-3-3-3 1.35-3 3ZM9 31c0 1.65 1.35 3 3 3s3-1.35 3-3-1.35-3-3-3-3 1.35-3 3Zm11.34-10.82 1.75-3.53c.25-.49.85-.69 1.34-.45.49.25.69.85.45 1.34l-1.24 2.49c.45-.02.9-.04 1.36-.04 1.73 0 3.39.13 4.99.34v-3.85c0-1.67-1.28-2.97-2.94-3.01h-4.22c-1.61.1-2.84 1.38-2.84 3.01v3.85c.45-.06.9-.12 1.36-.16Zm19.77 4.12s.08.05.11.08c.27.2.52.4.76.6v-3.44c0-1.67-1.28-2.97-2.94-3.01h-3.31a3 3 0 0 0-2.75 2.29c.29.09.59.18.89.28 2.88.75 5.35 1.85 7.23 3.2Zm-32.45.15c.12-.09.24-.17.36-.25 1.85-1.29 4.25-2.35 7.02-3.08.32-.1.64-.2.94-.3-.3-1.27-1.39-2.2-2.75-2.28H9.92c-1.66.03-2.94 1.33-2.94 3v3.45c.22-.18.44-.37.67-.54Z"/></svg>
