<svg xmlns="http://www.w3.org/2000/svg" viewBox="0 0 48 48"><title>Gemiva locatie</title><path d="M41 23c.55 0 1-.45 1-1v-9.04c0-.55-.45-1-1-1h-3.01L36.3 9.41a.995.995 0 0 0-.83-.45l-22.93-.04c-.34 0-.65.17-.84.45l-1.72 2.59H6.99c-.55 0-1 .45-1 1s.45 1 1 1h1V37h-1c-.55 0-1 .45-1 1s.45 1 1 1h34c.55 0 1-.45 1-1s-.45-1-1-1h-1V23h1Zm-9-2v14h1c.55 0 1 .45 1 1s-.45 1-1 1H15c-.55 0-1-.45-1-1s.45-1 1-1h6v-9c0-.55.45-1 1-1h4c.55 0 1 .45 1 1v9h3V13.9c0-.55.45-1 1-1s1 .45 1 1l1 .06h7V21h-8Zm-14-2v1c0 .55-.45 1-1 1h-2c-.55 0-1-.45-1-1v-1c0-.55.45-1 1-1h2c.55 0 1 .45 1 1Zm8 0v1c0 .55-.45 1-1 1h-2c-.55 0-1-.45-1-1v-1c0-.55.45-1 1-1h2c.55 0 1 .45 1 1Zm-8 8v1c0 .55-.45 1-1 1h-2c-.55 0-1-.45-1-1v-1c0-.55.45-1 1-1h2c.55 0 1 .45 1 1Z"/></svg>
