<svg xmlns="http://www.w3.org/2000/svg" viewBox="0 0 48 48"><title>Gladheid</title><path d="M23 8V7c0-.55.45-1 1-1s1 .45 1 1v1c0 .55-.45 1-1 1s-1-.45-1-1Zm1 7c.55 0 1-.45 1-1v-1c0-.55-.45-1-1-1s-1 .45-1 1v1c0 .55.45 1 1 1Zm-8.49-9h-.03c-.43 0-.81.26-.96.65L6.07 28.64c-.25.65.24 1.35.96 1.35h.03c.43 0 .81-.26.96-.65l8.45-21.99c.25-.65-.24-1.35-.96-1.35Zm16.98 0c-.72 0-1.21.7-.96 1.35l8.46 21.99c.15.39.53.65.96.65h.03c.72 0 1.21-.7.96-1.35L33.48 6.65c-.15-.39-.53-.65-.96-.65h-.03ZM35 29h-5.05l3.95-3.95a.996.996 0 1 0-1.41-1.41L27.13 29h-2.12v-2.12l5.36-5.36a.996.996 0 1 0-1.41-1.41l-3.95 3.95v-5.05c0-.55-.45-1-1-1s-1 .45-1 1v5.05l-3.95-3.95a.996.996 0 1 0-1.41 1.41l5.36 5.36V29h-2.12l-5.36-5.36a.996.996 0 1 0-1.41 1.41L18.07 29h-5.05c-.55 0-1 .45-1 1s.45 1 1 1h5.05l-3.95 3.95a.996.996 0 1 0 1.41 1.41L20.89 31h2.12v2.12l-5.36 5.36a.996.996 0 1 0 1.41 1.41l3.95-3.95v5.05c0 .55.45 1 1 1s1-.45 1-1v-5.05l3.95 3.95a.996.996 0 1 0 1.41-1.41l-5.36-5.36V31h2.12l5.36 5.36a.996.996 0 1 0 1.41-1.41L29.95 31H35c.55 0 1-.45 1-1s-.45-1-1-1Z"/></svg>
