<svg xmlns="http://www.w3.org/2000/svg" viewBox="0 0 48 48"><title>Grofvuil</title><path d="M30 15.03h3.78c.64 0 1.12-.59.98-1.22l-1.58-7.03A.997.997 0 0 0 32.2 6h-6.39c-.47 0-.87.33-.98.78l-1.56 7.03c-.14.62.34 1.22.98 1.22H28V40h-3.01c-.55 0-1 .45-1 1s.45 1 1 1h8c.55 0 1-.45 1-1s-.45-1-1-1h-3V15.03ZM8.71 25.12l-.14-2.14a2.998 2.998 0 0 1 2.79-3.19l6.99-.47-1.85 3.62c-.35.69.18 1.51.96 1.45l1.31-.09-1.67 3.12c-.37.69.16 1.53.95 1.47h.09c.35-.03.66-.24.82-.55l2.44-4.71c.35-.69-.18-1.51-.96-1.45l-1.31.09 1.69-3.12 5.2-.35v11.03l-13.9.94-.14-2a4.012 4.012 0 0 0-3.25-3.65ZM26 36.84 8.58 38.02c-1.1.07-2.06-.76-2.13-1.86l-.47-6.98a2.01 2.01 0 0 1 2.2-2.13c.99.1 1.73.97 1.8 1.97l.13 1.88.14 2 15.77-1.07v5.01Zm16.05-3.11c.07 1.1-.76 2.06-1.86 2.13l-2 .14.07 1c.04.55-.38 1.03-.93 1.07-.55.04-1.03-.38-1.07-.93l-.07-1-4.2.37v-5.13l5.85-.36-.14-2-.13-1.88c-.07-.99.55-1.96 1.52-2.19 1.23-.29 2.38.6 2.47 1.81l.47 6.98ZM32 18.37l2.98-.2a3.014 3.014 0 0 1 3.2 2.79l.14 2.14c-1.69.56-2.86 2.2-2.73 4.05l.14 2-3.72.25V18.37Z"/></svg>
