<svg xmlns="http://www.w3.org/2000/svg" viewBox="0 0 48 48"><title>Herdenking</title><path d="M6 41c0-.55.45-1 1-1h34c.55 0 1 .45 1 1s-.45 1-1 1H7c-.55 0-1-.45-1-1Zm23-15h-1l-.97-17.49c-.02-.31-.18-.6-.44-.78l-2.03-1.56a.979.979 0 0 0-1.11 0l-2.03 1.56c-.26.17-.42.46-.44.78L20.01 26h-1c-.55 0-1 .45-1 1v2h12v-2c0-.55-.45-1-1-1Zm12-7c.55 0 1 .45 1 1v5.98c0 .55-.45 1-1 1l-4.1.02-1.02-1H34v10h4c.55 0 1 .45 1 1s-.45 1-1 1H10c-.55 0-1-.45-1-1s.45-1 1-1h4v-4c0-.55.45-1 1-1h17V12c0-.55.45-1 1-1s1 .45 1 1v6h3l1 1h3ZM28 33h-8v3h8v-3Zm12-12h-2.83l-1-1H34v4h2.7l1.02 1.01h2.29V21Z"/></svg>
