<svg xmlns="http://www.w3.org/2000/svg" viewBox="0 0 48 48"><title>Hond</title><path d="m31.88 18.95 2.18 2.16v.66c0 5.44-3.98 7.73-5.82 9.23l-1.62 7.01-2.76-.02.18-8.62-6.88-2.52c-.56 1.88-3.13 3.91-6.36 4.74l-2.11 6.42H5.98l1.32-8.63c3.7-3.01 4.57-10.42 4.57-10.42h.26c-2.32-1.11-4.09-3-4.93-5.44-.03-.08-.04-.17-.05-.25L7 11.1c-.04-.55.38-1.03.93-1.07.54-.03 1.03.38 1.07.93L9.14 13c1.04 2.87 3.75 4.79 7.11 5.02l9.07.05a4.187 4.187 0 0 0 3.62 2.12c1.15 0 2.2-.47 2.95-1.23Zm6.27-5.94c-.7 0-1.33-.66-1.65-1.28l-.37-.72c-.32-.62-.96-1-1.65-1h-2.82c-.56 0-1.09.25-1.44.68l-4 4.89c.11.09.2.2.26.33l.51 1.05a2.168 2.168 0 0 0 4.12-.95V12.9c0-.55.45-1 1-1s1 .45 1 1v3.11c0 .4-.08.78-.18 1.15l2.39 2.36 4.7-1.82a3.068 3.068 0 0 0 1.96-2.86v-1.83h-3.83Zm-8.63 25h2.85l.25-7.8-3.32 2.35.22 5.45Zm-18.18-.02 2.71.02.98-6.23-3.18 1.57-.51 4.64Z"/></svg>