<svg xmlns="http://www.w3.org/2000/svg" viewBox="0 0 48 48"><title>Hondenbelasting</title><path d="m9.59 25.58 10.94 5.23c-.34 1-.53 2.07-.53 3.18H9l-3-1 3.59-7.42ZM38 34c0 4.41-3.59 8-8 8s-8-3.59-8-8 3.59-8 8-8 8 3.59 8 8Zm-9.61-1.01c.23-.58.64-1.04 1.17-1.29.52-.25 1.11-.27 1.65-.07.52.19 1.09-.07 1.29-.58.2-.52-.07-1.09-.58-1.29-1.05-.4-2.2-.35-3.22.14-1.08.51-1.89 1.44-2.28 2.61-.05.16-.08.32-.11.48h-.37c-.55 0-1 .45-1 1s.45 1 1 1h.36c.32 1.44 1.3 2.7 2.71 3.23.47.18.96.26 1.45.26s.98-.09 1.45-.26a.99.99 0 0 0 .58-1.29.99.99 0 0 0-1.29-.58c-.48.18-1.01.18-1.49 0-.63-.24-1.1-.75-1.35-1.36h2.57c.55 0 1-.45 1-1s-.45-1-1-1h-2.57Zm13.33-18.14-1.94 3.67c-1.14 2.41-3.57 3.46-6.25 3.46H31.6l-.63 2.06c-.32-.03-.65-.05-.97-.05-3.7 0-6.92 2.02-8.65 5l-4.42-2.07-6.39-3.15 1.72-3.43 5.66 2.8c.64.3 1.33.49 1.84.49 1.37 0 2.41-.51 3.18-1.57.39-.54.62-1.41.62-2.39v-.24l-1.91-9.11-1.52 3.04 1.28 5.89c.17 1.09-.29 1.62-.71 1.88-.7.44-1.52.49-2.26.14l-5.35-2.62L18.8 7.29c.35-.73 1.23-1.32 2.01-1.32h7.52v.01c1.5 0 3.06 1.03 3.62 2.41L33 11.97h7c1.05 0 1.5.34 1.74.72.36.57.35 1.37-.01 2.14Zm-12.69-3.42c0-.83-.67-1.5-1.5-1.5s-1.5.67-1.5 1.5.67 1.5 1.5 1.5 1.5-.67 1.5-1.5Z"/></svg>
