<svg xmlns="http://www.w3.org/2000/svg" viewBox="0 0 48 48"><title>Hoog Water</title><path d="M41.66 16.29c-1.23 1.12-2.7 1.71-4.24 1.71-1.64 0-3.23-.7-4.49-1.96-.86.85-1.86 1.44-2.93 1.74V19h-4c-.55 0-1 .45-1 1s.45 1 1 1h4v4h-4c-.55 0-1 .45-1 1s.45 1 1 1h4v4h-4c-.55 0-1 .45-1 1s.45 1 1 1h4v4h-4c-.55 0-1 .45-1 1s.45 1 1 1h4v3H18V17.8c-1.11-.29-2.15-.89-3.03-1.76C13.71 17.3 12.12 18 10.48 18c-1.47 0-2.88-.54-4.08-1.57a.999.999 0 1 1 1.3-1.52c.83.71 1.79 1.09 2.77 1.09 1.39 0 2.7-.74 3.69-2.08.38-.51 1.23-.51 1.61 0 .63.86 1.39 1.46 2.22 1.79v.12c.48.13.98.19 1.48.19 1.64 0 3.23-.7 4.49-1.96 1.26 1.26 2.85 1.96 4.49 1.96.52 0 1.04-.07 1.54-.21v-.14c.79-.34 1.52-.93 2.13-1.75.38-.51 1.23-.51 1.61 0 .99 1.34 2.3 2.08 3.69 2.08 1.03 0 2.03-.41 2.89-1.19a.997.997 0 1 1 1.34 1.48Zm-18.5-4.35a.995.995 0 0 1 1.61 0c.99 1.34 2.29 2.08 3.68 2.08.53 0 1.05-.11 1.54-.32V8.99c0-1.65-1.35-3-3-3h-6c-1.65 0-3 1.35-3 3v4.73c.47.19.97.29 1.48.29 1.39 0 2.7-.74 3.69-2.08Z"/></svg>