<svg xmlns="http://www.w3.org/2000/svg" viewBox="0 0 48 48"><title>Hoogbouw</title><path d="M7 36h13v2H7c-.55 0-1-.45-1-1s.45-1 1-1Zm9-2H9V17c0-.55.45-1 1-1h6v18Zm-2-10c0-.55-.45-1-1-1h-1c-.55 0-1 .45-1 1s.45 1 1 1h1c.55 0 1-.45 1-1Zm0-4c0-.55-.45-1-1-1h-1c-.55 0-1 .45-1 1s.45 1 1 1h1c.55 0 1-.45 1-1Zm28 5.6V42h-9V25.59c0-.27.11-.53.3-.71l3.58-2.7a.99.99 0 0 1 1.2 0l3.62 2.71c.19.19.3.45.3.72ZM39 36c0-.55-.45-1-1-1h-1c-.55 0-1 .45-1 1s.45 1 1 1h1c.55 0 1-.45 1-1Zm0-4c0-.55-.45-1-1-1h-1c-.55 0-1 .45-1 1s.45 1 1 1h1c.55 0 1-.45 1-1Zm0-4c0-.55-.45-1-1-1h-1c-.55 0-1 .45-1 1s.45 1 1 1h1c.55 0 1-.45 1-1Zm-8.3-3.12c.19.19.3.45.3.72V42h-9V25.59c0-.27.11-.53.3-.71l3.58-2.7a.99.99 0 0 1 1.2 0l3.62 2.71ZM28 36c0-.55-.45-1-1-1h-1c-.55 0-1 .45-1 1s.45 1 1 1h1c.55 0 1-.45 1-1Zm0-4c0-.55-.45-1-1-1h-1c-.55 0-1 .45-1 1s.45 1 1 1h1c.55 0 1-.45 1-1Zm0-4c0-.55-.45-1-1-1h-1c-.55 0-1 .45-1 1s.45 1 1 1h1c.55 0 1-.45 1-1Zm5-5.4-1 .76-3.72-2.78a2.996 2.996 0 0 0-3.61.01l-3.58 2.7-.1.08-.09.09c-.47.46-.78 1.07-.87 1.72L20 34.01h-2V7c0-.55.45-1 1-1h13c.55 0 1 .45 1 1v15.6ZM24 14c0-.55-.45-1-1-1h-1c-.55 0-1 .45-1 1s.45 1 1 1h1c.55 0 1-.45 1-1Zm0-4c0-.55-.45-1-1-1h-1c-.55 0-1 .45-1 1s.45 1 1 1h1c.55 0 1-.45 1-1Zm6 0c0-.55-.45-1-1-1h-1c-.55 0-1 .45-1 1s.45 1 1 1h1c.55 0 1-.45 1-1Z"/></svg>
