<svg xmlns="http://www.w3.org/2000/svg" viewBox="0 0 48 48"><title>Horecavergunningen</title><path d="M16 33v8l-8-7.97 8-.03Zm2 9v-9.08c0-1.06-.86-1.92-1.92-1.92H7V7.97C7 6.88 7.88 6 8.97 6h24.05c1.09 0 1.97.88 1.97 1.97V22H30c-1.66 0-3 1.35-3 3.01 0 1.97 0 4.2.01 4.33.13 3.16 2.14 5.91 4.98 7.07V38h-.1c-2.22 0-4.03 1.79-4.03 4h-9.88Zm2.34-16.69 7.11-7.11c.38-.38.38-1 0-1.38l-.02-.02c-.38-.38-1-.38-1.38 0l-6.41 6.41-3.56-3.54c-.38-.38-1-.38-1.38 0-.39.38-.39 1 0 1.39l4.26 4.26c.38.38 1 .38 1.38 0ZM36 34.91V40h2.02c1.1 0 2 .9 2 2l-10.11.02c0-1.13.92-2.02 2.05-2.02H34v-5.09a5.989 5.989 0 0 1-4.99-5.66c0-.02 0-2.74-.01-4.26 0-.55.45-1 1-1h10c.55 0 1 .44 1 1 0 1.52 0 4.24-.01 4.26A5.987 5.987 0 0 1 36 34.9ZM38.97 26h-7.95v3h7.94v-3Z"/></svg>
