<svg xmlns="http://www.w3.org/2000/svg" viewBox="0 0 48 48"><title>Huis</title><path d="M35.99 19.26v-4.27c0-.55-.44-.99-.99-.99-.54 0-.98.44-.98.99v2.54l-9.35-8.3a.987.987 0 0 0-1.29 0L9.36 21.57a.99.99 0 0 0-.1 1.41c.36.41.99.46 1.4.09l1.38-1.21-.02 16.15c0 .55.44 1 .99 1h22.02c.54 0 .99-.44.99-.99l-.03-16.11 1.34 1.17c.41.35 1.03.31 1.39-.1l.02-.02a.983.983 0 0 0-.1-1.39l-2.65-2.3Zm-8.96 11.75h-6.02c-.55 0-.99-.45-.99-.99v-4.01c0-.55.45-.99.99-.99h6.02c.54 0 .99.44.99.99v4.03c0 .54-.44.99-.99.99Z"/></svg>
