<svg xmlns="http://www.w3.org/2000/svg" viewBox="0 0 48 48"><title>Huiselijk geweld</title><path d="M15.3 10.3c.19-.19.46-.31.76-.31.39 0 .76.22.95.56l3.28 5.97c.23.42.13.9-.17 1.19a.98.98 0 0 1-.71.29h-2.73l2.48 4.52c.23.42.13.9-.17 1.19a.98.98 0 0 1-.71.29h-.14c-.39 0-.76-.22-.95-.56l-3.28-5.97c-.23-.42-.13-.9.17-1.19a.98.98 0 0 1 .71-.29h2.73L15.1 11.6c-.25-.45-.14-.97.19-1.29m23.44 16.65-.02.02c-.36.41-.98.45-1.39.1l-1.34-1.17.03 15.11c0 .54-.44.99-.99.99h-22c-.55 0-1-.45-1-1l.02-15.15-1.38 1.21a.995.995 0 0 1-1.4-.09.998.998 0 0 1 .1-1.41l4.54-3.99 1.55 2.82c.54.98 1.57 1.59 2.69 1.6h.14c.8 0 1.55-.31 2.12-.87.96-.95 1.17-2.39.52-3.57l-.89-1.62c.56-.12 1.08-.39 1.49-.81.96-.95 1.17-2.39.52-3.57l-.43-.78 1.76-1.55c.37-.32.92-.32 1.29 0l3.18 2.82-.77 1.4c-.67 1.22-.46 2.69.53 3.67.58.58 1.36.9 2.18.89 1.12 0 2.15-.62 2.69-1.6l.1-.17 1.45 1.28v-2.54c0-.54.44-.98.98-.99.55 0 .99.44.99.99v4.27l2.65 2.3c.41.36.46.98.1 1.39ZM28.01 30c0-.54-.44-.99-.99-.99H21a1 1 0 0 0-1 .99v4.01c0 .55.45.99 1 .99h6.02c.54 0 .99-.44.99-.99v-4.03Zm.5-15.97h2.73l-2.42 4.39c-.25.45-.14.97.19 1.29.19.19.46.31.76.31.39 0 .76-.22.95-.56L34 13.49c.23-.42.12-.9-.17-1.19a.98.98 0 0 0-.71-.29h-2.73l2.48-4.52c.23-.42.13-.9-.17-1.19a.98.98 0 0 0-.71-.29h-.14c-.39 0-.76.22-.95.56l-3.28 5.97c-.23.42-.12.9.17 1.19.18.18.42.29.71.29Z"/></svg>
