<svg xmlns="http://www.w3.org/2000/svg" viewBox="0 0 48 48"><title>Hulp huishouden</title><path d="M15.94 35.07c0 2.76-2.24 5-5 5s-5-2.24-5-5 2.24-5 5-5 5 2.24 5 5ZM41 40h-4l-3.01-23.85a8.578 8.578 0 0 0-5.98-6.83C26.98 9 17.89 6.45 16.99 6.23c-1.01-.25-1.95-.19-1.98-.19-3.67 0-6.65 2.71-6.65 6.38s2.98 6.65 6.65 6.65l8.99-.03c1.1 0 1.99.89 1.99 1.99 0 .58-.7 1.52-.7 1.52L22.85 26c-1.76-1.24-3.8-2-5.85-2H9.01c-1.7 0-3.07 1.37-3.07 3.07v3.03a7.034 7.034 0 0 1 5.01-2.09c3.89 0 7.05 3.16 7.05 7.05 0 1.5-.47 2.89-1.27 4.03h7.29c2.22 0 4.02-1.8 4.02-4.02 0-2.85-1.47-5.7-3.65-7.79L26.68 24c.67-.83 1.32-1.83 1.32-2.96 0-2.2-1.79-3.99-4-3.99l-8.99.03c-2.56 0-4.65-2.08-4.65-4.65s2.09-4.38 4.71-4.38c0 0 .73-.04 1.45.13.63.15 6.86 1.8 10.9 3.06 2.42.74 4.18 2.76 4.59 5.18L35 40.01h-3.99c-.55 0-1 .45-1 1s.45 1 1 1h10c.55 0 1-.45 1-1s-.45-1-1-1Z"/></svg>
