<svg xmlns="http://www.w3.org/2000/svg" viewBox="0 0 48 48"><title>ID-kaart</title><path d="M37.99 12H25v3c0 .55-.45 1-1 1s-1-.45-1-1v-3H10.01A4.01 4.01 0 0 0 6 16.01v16C6 34.21 7.79 36 9.99 36h28.02c2.21 0 3.99-1.79 3.99-3.99v-16A4.01 4.01 0 0 0 37.99 12Zm-20.92 7.04c1.66.01 2.99 1.36 2.98 3.02a2.996 2.996 0 0 1-3.02 2.98 2.996 2.996 0 0 1-2.98-3.02 2.996 2.996 0 0 1 3.02-2.98ZM21 31h-8c-.55 0-1-.45-1-1 0-1.54 1.31-3 2.89-3h4.29c1.58 0 2.82 1.46 2.82 3 0 .55-.45 1-1 1Zm13-1c0 .55-.45 1-1 1h-5c-.55 0-1-.45-1-1s.45-1 1-1h5c.55 0 1 .45 1 1Zm2-5c0 .55-.45 1-1 1h-7c-.55 0-1-.45-1-1s.45-1 1-1h7c.55 0 1 .45 1 1Zm-1-4h-7c-.55 0-1-.45-1-1s.45-1 1-1h7c.55 0 1 .45 1 1s-.45 1-1 1Z"/></svg>
