<svg xmlns="http://www.w3.org/2000/svg" viewBox="0 0 48 48"><title>In en om uw huis</title><path d="M14.96 29H12.7c-2.48-.15-4.38-2.17-4.23-4.54.02-.25.05-.5.11-.74-1.91-1.51-2.17-4.22-.58-6.04.3-.34.65-.63 1.03-.87-1.22-2.06-.45-5.67 1.71-6.84.69-.37 1.46-.54 2.22-.54.68-.87 1.76-1.44 2.99-1.44s2.32.57 3 1.45c1.24 0 2.47.47 3.36 1.41 1.28 1.37 1.51 3.36.57 4.96 1.52.93 2.25 3.58 2.03 5.17l-7.95 6.28V24.02l2.42-2.44a.996.996 0 0 0 0-1.41.996.996 0 0 0-1.41 0l-1 1.01v-2.19c0-.55-.45-1-1-1s-1 .45-1 1v4.91l-1-1a.987.987 0 0 0-1.41 0 .996.996 0 0 0 0 1.41l2.42 2.44V29s.01.05.01.07c0 0-.01.02-.02.03V29Zm.28 3.62-.05-.06c-.09-.11-.16-.23-.24-.35V39c0 .55.45 1 1 1s1-.45 1-1v-5.36c-.67-.13-1.27-.49-1.72-1.02Zm17.52-10.89.35.35a.996.996 0 1 0 1.41-1.41l-.35-.35a.996.996 0 0 1 0-1.41 3 3 0 0 0 0-4.24l-.35-.35a.996.996 0 1 0-1.41 1.41l.35.35c.39.39.39 1.02 0 1.41a3 3 0 0 0 0 4.24ZM39.99 34c-.55 0-1 .44-1 .99v1h-2.03v-1c0-.55-.45-.99-1-.99s-1 .44-1 .99v4c0 .55.45.99 1 .99s1-.44 1-.99v-1.01h2.03v1.01c0 .55.45.99 1 .99s1-.44 1-.99v-4c0-.55-.45-.99-1-.99Zm-5.21-2.86a.984.984 0 0 1-1.47.06l-.36-.29v8.06c0 .55-.45 1-1 1l-12.08.02c-.55 0-1-.45-1-1v-7.9l-.33.34a.975.975 0 0 1-1.39-.11l-.05-.06a.97.97 0 0 1 .15-1.39l7.99-6.31c.36-.28.86-.29 1.22-.02l4.49 3.24V25.3c0-.54.44-.98.98-.98h.05c.54 0 .98.44.98.98v2.87c0 .15.07.29.18.39l1.53 1.24c.39.35.44.94.11 1.34ZM27.96 33c0-.55-.45-1-1-1h-2c-.55 0-1 .45-1 1v1c0 .55.45 1 1 1h2c.55 0 1-.45 1-1v-1Z"/></svg>
