<svg xmlns="http://www.w3.org/2000/svg" viewBox="0 0 48 48"><title>Informatie en betalen</title><path d="M34 25c-3.87 0-7 3.13-7 7s3.13 7 7 7 7-3.13 7-7-3.13-7-7-7Zm-.72 3.28c.19-.19.43-.28.72-.28s.54.09.72.28c.19.19.28.43.28.72s-.09.53-.28.72c-.19.19-.43.28-.72.28s-.54-.09-.72-.28c-.19-.19-.28-.43-.28-.72s.09-.53.28-.72ZM35 35.04c0 .55-.45 1-1 1s-1-.45-1-1v-3c0-.55.45-1 1-1s1 .45 1 1v3ZM32.12 23.2l3.47-5.75c.28-.46.14-1.06-.31-1.36L28.99 12h-12l-3.6 5.82 2.1 1.33c.47.3.61.91.31 1.38-.3.47-.91.61-1.38.31l-2.1-1.33-6.17 10.03c-.29.47-.15 1.09.32 1.38l14.04 8.8c.47.29 1.08.15 1.38-.31l3.45-4.98A8.86 8.86 0 0 1 25 32a8.99 8.99 0 0 1 7.12-8.8Zm-8.62 5.36-3.11 5.1c-.29.48-.92.63-1.4.34-.48-.29-.63-.92-.34-1.4l3.11-5.1c.29-.48.92-.63 1.4-.34.48.29.63.92.34 1.4Zm-.51-6.55-.19.31c-.3.47-.91.61-1.38.31a.994.994 0 0 1-.31-1.38l.2-.31c-.12-.12-.24-.22-.35-.35-.78-.96-1.13-2.14-.99-3.32.14-1.12.71-2.11 1.61-2.79.44-.33 1.07-.24 1.4.2.33.44.24 1.07-.2 1.4-.46.35-.75.86-.82 1.43-.07.59.1 1.18.46 1.68l1.37-2.17c.3-.47.91-.61 1.38-.31.47.3.61.91.31 1.38l-1.38 2.17c.65.12 1.33 0 1.87-.41.41-.31.69-.76.79-1.25.11-.54.64-.89 1.18-.78.54.11.89.64.78 1.18a4.056 4.056 0 0 1-1.55 2.44c-1.21.91-2.79 1.06-4.18.56Zm19-12v6c0 1.1-.89 1.99-1.99 2h-2.16l.58-1.16c.16-.26.18-.56.09-.84h1.48v-6H10v6h2.23l-1.24 2h-1c-1.1 0-1.99-.89-1.99-1.99v-6.01c0-1.1.9-2 2-2h30c1.1 0 2 .9 2 2Z"/></svg>
