<svg xmlns="http://www.w3.org/2000/svg" viewBox="0 0 48 48"><title>Inkomen</title><path d="M41 27h-9.94c-.55 0-1 .44-1 .99l-.05 5.94c0 .55.44 1.01.99 1.01l9.99.05c.55 0 1.01-.45 1.01-1V28c0-.55-.45-1-1-1Zm-7 6c-1.1 0-2-.9-2-2s.9-2 2-2 2 .9 2 2-.9 2-2 2ZM16 10c0-2.21 1.79-4 4-4s4 1.79 4 4-1.79 4-4 4-4-1.79-4-4Zm7.07 8c0-2.21 1.79-4 4-4s4 1.79 4 4v.02h-8V18ZM28 34v-6c0-1.66 1.34-3 3-3h8v-3.01c0-1.1-.9-2-2-2H8c-1.1 0-2 .9-2 2v18a2 2 0 0 0 2 2h29c1.1 0 2-.9 2-2.01v-2.99h-8c-1.66 0-3-1.34-3-3Zm-9-6c.55 0 1 .45 1 1s-.45 1-1 1h-3.6c-.05.32-.08.66-.08 1s.03.68.08 1H19c.55 0 1 .45 1 1s-.45 1-1 1h-2.9c.69 1.21 1.78 2 3.02 2 .79 0 1.55-.32 2.2-.93a.996.996 0 0 1 1.41.04c.38.4.36 1.04-.04 1.41-1.02.96-2.26 1.47-3.56 1.47-2.31 0-4.3-1.64-5.23-4h-.89c-.55 0-1-.45-1-1s.45-1 1-1h.38c-.04-.33-.07-.66-.07-1s.03-.67.07-1h-.38c-.55 0-1-.45-1-1s.45-1 1-1h.89c.93-2.36 2.93-4 5.23-4 1.31 0 2.54.51 3.57 1.47a.996.996 0 1 1-1.37 1.45c-.65-.61-1.41-.93-2.2-.93-1.24 0-2.33.79-3.02 2h2.9Z"/></svg>
