<svg xmlns="http://www.w3.org/2000/svg" viewBox="0 0 48 48"><title>Inloggen</title><path d="M17.18 26.13c-.14-.74.06-1.2.42-1.61.93-1.04 3.38-1.03 5.59-.97 2.57.06 5.21.13 6.73-1.46.22-.22.4-.48.55-.75.34.82.53 1.71.53 2.65 0 3.87-3.17 7-7.08 7-3.16 0-5.83-2.04-6.74-4.87ZM29 33H19c-2.76 0-5 2.24-5 5v3c0 .55.45 1 1 1h18c.55 0 1-.45 1-1v-3c0-2.76-2.24-5-5-5Zm11-23H21.62l-1.45-2.89A2 2 0 0 0 18.38 6H8c-1.1 0-2 .9-2 2v25c0 1.1.9 2 2 2h4.67c1.04-2.2 3.18-3.77 5.72-3.97A8.986 8.986 0 0 1 15 24a9 9 0 0 1 18 0c0 2.83-1.31 5.35-3.35 7 2.66.02 4.94 1.67 5.88 4H40c1.1 0 2-.9 2-2V12c0-1.1-.9-2-2-2ZM23.24 21.56c2.12.05 4.32.1 5.22-.83.34-.36.51-.89.54-1.6a7.083 7.083 0 0 0-5.07-2.12c-3.4 0-6.24 2.37-6.92 5.53 1.6-1.08 3.95-1.03 6.24-.98Z"/></svg>