<svg xmlns="http://www.w3.org/2000/svg" viewBox="0 0 48 48"><title>Inspraak</title><path d="M10 13c.55 0 1-.45 1-1V5.75c0-.41-.34-.75-.75-.75s-.75.34-.75.75V8H8.25C7.01 8 6 9.26 6 10.5S7.01 13 8.25 13H10Zm12.19 28.98 1.27-5.72 7.48-7.5.06-2.77c0-4-4-4-3.99-4.01H14.44c-2.36 0-3.43-2.91-3.43-5v-1c0-.55-.45-1-1-1h-2c-.55 0-1 .45-1 1v.99c0 4.26 2.9 9 7.43 9H15v15.01c0 .55.45 1 1 1h6.19Zm6.63-1.15-3.52-3.52-.97 3.87c-.09.36.24.7.6.61l3.89-.96Zm12.47-13.95-2.12-2.12c-.39-.39-1.02-.39-1.42 0l-11 11.03 3.52 3.52L41.28 28.3a.996.996 0 0 0 0-1.41ZM14 11.53C14.68 8.37 17.52 6 20.92 6c1.99 0 3.79.81 5.07 2.12-.02.72-.2 1.25-.54 1.6-.9.94-3.09.88-5.22.83-2.29-.06-4.64-.11-6.24.98Zm13.47-1.18c.34.82.53 1.71.53 2.65 0 3.87-3.17 7-7.08 7-3.16 0-5.83-2.04-6.74-4.87-.14-.74.06-1.2.42-1.61.93-1.04 3.38-1.03 5.59-.97 2.57.06 5.21.13 6.73-1.46.22-.22.4-.48.55-.75Z"/></svg>
