<svg xmlns="http://www.w3.org/2000/svg" viewBox="0 0 48 48"><title>Isolatie</title><path d="m41.58 20.23-3.55-2.94v-6.22c0-.55-.45-1-1-1s-1 .45-1 1v4.57L24.64 6.23a.983.983 0 0 0-1.27 0l-16.95 14a.99.99 0 0 0-.13 1.41c.35.43.98.49 1.41.13l2.34-1.93V41c0 .55.45 1 1 1h26c.55 0 1-.45 1-1V19.89l2.28 1.88c.19.15.41.23.64.23.29 0 .57-.12.77-.36.35-.43.29-1.06-.13-1.41ZM24 36.25a4.22 4.22 0 0 1-4.22-4.22c0-1.02.37-1.97 1.06-2.76l.25-.28v-9.08c0-1.6 1.3-2.91 2.91-2.91s2.91 1.3 2.91 2.91v9.07l.25.28c.49.55 1.06 1.48 1.06 2.77A4.22 4.22 0 0 1 24 36.25Zm2.13-4.12c0 1.17-.95 2.13-2.13 2.13s-2.13-.95-2.13-2.13c0-.81.46-1.51 1.13-1.86v-7.8h2v7.8c.67.36 1.13 1.06 1.13 1.86Z"/></svg>