<svg xmlns="http://www.w3.org/2000/svg" viewBox="0 0 48 48"><title>Jeugd</title><path d="M9.01 8.46C9.01 7.1 10.11 6 11.47 6s2.46 1.1 2.46 2.46-1.1 2.46-2.46 2.46-2.46-1.1-2.46-2.46ZM7.98 25.02c-1.1 0-1.99.89-1.99 1.99S6.88 29 7.98 29s1.99-.89 1.99-1.99-.89-1.99-1.99-1.99Zm29.57-6.15c1.36 0 2.46-1.1 2.46-2.46s-1.1-2.46-2.46-2.46-2.46 1.1-2.46 2.46 1.1 2.46 2.46 2.46ZM40.02 40c-.55 0-1 .45-1 1s.45 1 1 1 1-.45 1-1-.45-1-1-1Zm-9-7.13v-.82l-2.98-1.71.02 1.48-3.93 1.33c-.52.18-.8.74-.63 1.26l.31.94c.17.53.74.81 1.27.64l4.93-1.67c.61-.21 1.02-.79 1.01-1.44Zm5.14-7.6.06.1c.35.57 1.01 1.64 2.22 1.64h2.58c.55 0 1-.45 1-1v-1c0-.55-.45-1-1-1H38.9c-.05-.08-.1-.15-.13-.21l-2.65-3.84c-.04-.06-.09-.12-.14-.18-.78-.82-2.06-.8-2.81-.78h-.46c-5.12 0-4.86 0-5.28.2-.2.09-.37.23-.48.41l-2.09 3.29c-.28.44-.17 1.02.24 1.34l.56.42c.47.35 1.13.23 1.44-.26l1.52-2.39c.47 0 2.32.09 2.32.09l-2.66 3.87c-.73 1.06-.33 2.52.84 3.06l5.89 2.7v5.28h-6.77c-.53 0-.97.45-.97 1s.43 1 .97 1H40.8c.53 0 .97-.45.97-1s-.43-1-.97-1h-2.79v-5.58c0-.75-.33-1.46-.91-1.94-.06-.05-.12-.09-.18-.13l-3.93-2.4c.61-1.01 1.46-2.41 2.01-3.32l1.15 1.64ZM29.99 40c-.55 0-1 .45-1 1s.45 1 1 1 1-.45 1-1-.45-1-1-1ZM19.77 20.3c.96-.58 1.25-1.83.65-2.77l-2.19-3.41-.03.02s-.05-.08-.07-.12h2.15l1.59 2.48c.3.47.92.6 1.39.3l.84-.55c.46-.3.6-.92.3-1.38l-2.09-3.26c-.12-.18-.29-.32-.49-.42-.42-.2-.16-.2-5.38-.2h-.43c-.78-.02-2.09-.05-2.89.79-.07.07-.13.15-.19.24l-2.51 3.97H8.03c-.55 0-1 .45-1 1v1c0 .55.45 1 1 1h2.61c.92 0 1.77-.47 2.26-1.24l1.25-1.94c.56.91 1.92 3.21 1.92 3.21v.02l-3.95 2.35c-.07.04-.13.08-.19.13-.58.48-.91 1.18-.91 1.93v4.53c0 .55.45 1 1 1h1c.55 0 1-.45 1-1v-4.25l5.75-3.46Zm.73 1.93-4 2.47c0 .32.1.64.31.9l2.39 3.02c.19.24.48.38.79.38h1.28c.84 0 1.3-.96.79-1.62l-2.36-2.99.81-2.17Z"/></svg>
