<svg xmlns="http://www.w3.org/2000/svg" viewBox="0 0 48 48"><title>Kennis</title><path d="M34 25h-2c0-2.76-2.24-5-5-5-.53 0-1.03-.1-1.51-.26-.92.98-1.49 2.3-1.49 3.76 0 3.03 2.47 5.5 5.5 5.5h7c3.03 0 5.5-2.47 5.5-5.5 0-1.45-.57-2.77-1.49-3.76-.48.15-.98.26-1.51.26-2.76 0-5 2.24-5 5Zm-5.5 0c-.83 0-1.5-.67-1.5-1.5s.67-1.5 1.5-1.5 1.5.67 1.5 1.5-.67 1.5-1.5 1.5Zm9-3c.83 0 1.5.67 1.5 1.5s-.67 1.5-1.5 1.5-1.5-.67-1.5-1.5.67-1.5 1.5-1.5Zm-8-4h7c.4 0 .8.05 1.18.13A7.051 7.051 0 0 0 33 21.41a6.996 6.996 0 0 0-4.68-3.28c.38-.08.77-.13 1.18-.13Zm-5.79.74A7.47 7.47 0 0 0 22 23.5v10.49c0 1.83.52 3.53 1.42 5.01H8.04C6.91 39 6 38.09 6 36.96l.02-28.01C6.02 7.32 7.34 6 8.97 6h15.24c1.3 0 2.39.84 2.8 2H9c-.56 0-1 .44-1 1s.44 1 1 1h18.7a2.285 2.285 0 0 1 2.27 2.01H30V16h-.5c-1.61 0-3.09.51-4.31 1.37-.72-.55-1.19-1.4-1.19-2.37h-2c0 1.49.67 2.82 1.71 3.74ZM36.5 31c2.17 0 4.13-.94 5.5-2.42V42h-2.03A5.98 5.98 0 0 1 34 36.03V31h2.5Zm-1.79 11h-2.23C27.8 42 24 38.41 24 33.99v-5.41A7.49 7.49 0 0 0 29.5 31H32v5.03c0 2.38 1.05 4.51 2.71 5.97Z"/></svg>
