<svg xmlns="http://www.w3.org/2000/svg" viewBox="0 0 48 48"><title>Kerstbomen</title><path d="M38.4 36H31v3c0 .55-.45 1-1 1s-1-.45-1-1v-3h-7.44a.998.998 0 0 1-.9-1.43l3.11-6.6h-.4a.997.997 0 0 1-.9-1.45l3.32-6.53h-.43c-.75 0-1.24-.8-.89-1.47l4.64-8.82c.38-.72 1.41-.71 1.78.01l5.22 10.28h-1.86l3.08 6.58a.997.997 0 0 1-.92 1.42h-.34l3.22 6.56c.33.66-.16 1.44-.9 1.44Zm-17.64-5.99h-.51a.997.997 0 0 1-.9-1.45l3.34-6.57h-.48c-.75 0-1.24-.8-.89-1.47l1.56-2.96-3.99-7.85c-.37-.72-1.4-.73-1.78-.01l-4.64 8.82c-.35.67.13 1.47.89 1.47h.43l-3.32 6.53c-.34.67.15 1.46.9 1.45h.4l-3.11 6.59c-.31.66.17 1.43.9 1.43h6.42v3c0 .55.45 1 1 1s1-.45 1-1v-3.12L20.75 30Z"/></svg>
