<svg xmlns="http://www.w3.org/2000/svg" viewBox="0 0 48 48"><title>Klacht</title><path d="m20.07 8.54-.03-.06c1.27-.33 2.6-.52 3.98-.52 6.55 0 12.17 3.93 14.65 9.56-1.13.23-2.29.36-3.46.36-6.43 0-12.24-3.58-15.15-9.34Zm-1.78.5c-5.15 1.98-9.02 6.54-10.02 12.1 5.09-2.14 8.86-6.66 10.02-12.1Zm21.75 14.94c0 8.85-7.17 16.02-16.02 16.02S8 32.83 8 23.98c0-.27.03-.53.04-.79 5.49-1.97 9.74-6.37 11.54-11.85 3.47 5.22 9.28 8.38 15.64 8.38 1.39 0 2.77-.16 4.11-.46.46 1.49.71 3.08.71 4.72Zm-22.08 0c0 .83.67 1.5 1.49 1.5s1.49-.67 1.49-1.5-.67-1.5-1.49-1.5-1.49.67-1.49 1.5Zm.32 9.07c.31.46.93.58 1.39.27 2.54-1.72 6.03-1.75 8.61-.09.46.3 1.08.17 1.38-.3.3-.46.17-1.08-.3-1.38-1.58-1.02-3.42-1.56-5.31-1.56s-3.87.58-5.49 1.68c-.46.31-.58.93-.27 1.39Zm11.66-9.13c0-.83-.67-1.5-1.49-1.5s-1.49.67-1.49 1.5.67 1.5 1.49 1.5 1.49-.67 1.49-1.5Z"/></svg>
