<svg xmlns="http://www.w3.org/2000/svg" viewBox="0 0 48 48"><title>Koningsdag</title><path d="M13.13 36c-.11-.22-2.16-4.33-4.46-9.85-1.14-2.75-.38-4.72.46-5.89 1.23-1.71 3.39-2.77 5.65-2.77 1.71 0 3.37.21 4.78.48-2.6 1.01-5.01 2.91-5.01 6.15 0 3.99 3.1 9.72 4.36 11.87h-5.77ZM23 36h-2.04l.25-.14c-.05-.07-4.58-7.37-4.58-11.74 0-3.56 4.33-4.7 6.37-5.04v16.91Zm2 0V19.09c2.04.34 6.37 1.48 6.37 5.04 0 4.36-4.54 11.66-4.58 11.74l.25.14H25Zm14.33-9.85c-2.3 5.52-4.35 9.63-4.46 9.85H29.1c1.26-2.15 4.36-7.88 4.36-11.87 0-3.24-2.42-5.14-5.01-6.15 1.41-.26 3.08-.48 4.78-.48 2.26 0 4.42 1.06 5.65 2.77.84 1.17 1.6 3.14.46 5.88ZM26.98 11H25V8.84c0-.55-.45-.99-1-.99s-1 .44-1 .99V11h-1.99c-.55.02-1 .47-.99 1.01 0 .55.45.99 1.01.99h1.98v3.08c0 .55.46 1 1.01.99.55 0 .99-.45.99-.99V13H27c.55-.02 1-.47.99-1.01 0-.55-.45-.99-1.01-.99ZM37 39c0-.56-.45-1-1-1H12c-.55 0-1 .45-1 1 0 .56.45 1 1 1h24c.55 0 1-.45 1-1Z"/></svg>
