<svg xmlns="http://www.w3.org/2000/svg" viewBox="0 0 48 48"><title>Kopen en huren</title><path d="M25.96 15.35c.07-.43.12-.87.12-1.32 0-4.97-4.52-8.89-9.67-7.87-3.07.61-5.56 3.06-6.21 6.13-.85 4.08 1.38 7.76 4.8 9.16v-6.37a2.509 2.509 0 0 1-1.39-3.02c.23-.8.89-1.45 1.7-1.66 1.67-.45 3.18.8 3.18 2.4 0 1.02-.61 1.89-1.49 2.28l.03 10.77-7.65 6.92c-.4.36-.44.98-.09 1.39l.02.03c.37.44 1.05.47 1.46.06l.24-.24.03 7c0 .55.45 1 1 1h12c.55 0 1-.45 1-1l-.03-7 .23.23c.41.41 1.09.38 1.46-.07a1 1 0 0 0-.1-1.38L19 25.91v-3.9c1.31-.16 2.59-.66 3.62-1.38l2.12 1.3c.27.17.6.19.9.08l1.15-.46 1.22.89v.97c0 .34.17.65.45.84l1.19.78c.27.18.62.21.92.09l1.15-.46 1.22.89v.97c0 .35.18.67.48.85l1.3.8a1 1 0 0 0 .92.07l2.7-1.16c.37-.16.61-.52.61-.92v-1.62c0-.33-.17-.65-.45-.83l-12.53-8.35Zm-5.98 19.64v1a.99.99 0 0 1-.99 1.01H17c-.55 0-1-.45-1-1v-1c0-.55.45-1 1-1h1.98c.55 0 1 .44 1 .99Z"/></svg>
