<svg xmlns="http://www.w3.org/2000/svg" viewBox="0 0 48 48"><title>Kopen en verkopen</title><path d="M25.02 9h6.2l1.8 7.08.02 2.92h-8.02V9Zm17 8.98-.03-1.82c0-.13-.03-.26-.08-.38L39.27 9.6c-.16-.37-.52-.61-.92-.61h-5.02l1.69 7.3v2.7h5.99c.56 0 1.02-.46 1.01-1.02ZM23.02 9h-6.19l-1.8 7.08-.02 2.92h8V9ZM7.01 19h6.01v-2.7l1.7-7.3H9.67c-.4 0-.76.24-.92.61L6.1 15.79c-.05.12-.08.25-.08.38l-.03 1.8c0 .57.45 1.04 1.02 1.04Zm4.01 16v-5h26v5h2V21h-2v7h-26v-7h-2v14h2Zm30 2h-34c-.55 0-1 .45-1 1s.45 1 1 1h34c.55 0 1-.45 1-1s-.45-1-1-1Z"/></svg>
