<svg xmlns="http://www.w3.org/2000/svg" viewBox="0 0 48 48"><title>Laad station</title><path d="M41.97 24c-.13-3.56-2.81-6.65-6.38-6.95-3.78-.32-7.01 2.39-7.53 5.96h-3.09V21c0-.42-.26-.79-.65-.94l-8-3a1.03 1.03 0 0 0-.35-.06h-3c-.55 0-1 .45-1 1v2h-5c-.55 0-1 .45-1 1s.45 1 1 1h5v4H6.92c-.55 0-1 .45-1 1s.45 1 1 1h5.05v2c0 .55.45 1 1 1h3c.12 0 .24-.02.35-.06l8-3c.39-.15.65-.52.65-.94v-1.99h3.09c.49 3.38 3.4 5.99 6.92 5.99 1.86 0 3.64-.75 4.94-2.05.43-.43.35-1.16-.14-1.51-.4-.29-.94-.23-1.29.11a4.99 4.99 0 0 1-3.51 1.44c-2.41 0-4.42-1.72-4.89-3.99h10.88c.55 0 1-.46 1-1.01Zm-11.88-.99c.46-2.27 2.48-3.99 4.89-3.99s4.42 1.72 4.89 3.99h-9.78Z"/></svg>
