<svg xmlns="http://www.w3.org/2000/svg" viewBox="0 0 48 48"><title>Leerlingenvervoer</title><path d="M38.67 6H24.34c-1.84-.01-3.33 1.5-3.33 3.37v24.56c0 .59.47 1.07 1.07 1.07h1.86c.59 0 1.07-.48 1.07-1.07V32h13v1.93c0 .59.48 1.07 1.07 1.07h1.86c.59 0 1.07-.48 1.07-1.07V9.39c0-1.87-1.49-3.38-3.33-3.39ZM26 8h11v2H26V8Zm-1.5 20c-.83 0-1.5-.67-1.5-1.5s.67-1.5 1.5-1.5 1.5.67 1.5 1.5-.67 1.5-1.5 1.5Zm14.01-.08c-.82 0-1.49-.66-1.49-1.46S37.69 25 38.51 25s1.49.66 1.49 1.46-.67 1.46-1.49 1.46ZM40 21H23v-9h17v9ZM7.85 19.84c0-1.65 1.35-2.99 2.99-2.99s2.99 1.35 2.99 2.99-1.35 2.99-2.99 2.99-2.99-1.35-2.99-2.99Zm8.16 7.27v5.9c0 .55-.46 1-1.01 1h-1v7c0 .55-.45 1-1 1H9c-.55 0-1-.45-1-1v-7H7c-.55 0-1-.45-1-1v-5.89c0-1.69 1.23-3 2.84-3.1h4.23c1.66.03 2.94 1.37 2.94 3.1Z"/></svg>
