<svg xmlns="http://www.w3.org/2000/svg" viewBox="0 0 48 48"><title>Locatie</title><path d="M17.15 17.1c.03.17.06.33.1.49 1.11 5.28 6.77 12.27 6.77 12.27s5.67-6.98 6.77-12.27c.04-.16.07-.32.1-.49 0-.06.02-.12.03-.18.04-.32.08-.64.08-.96 0-3.83-3.13-6.95-6.98-6.95s-6.98 3.12-6.98 6.95c0 .33.03.65.08.96 0 .06.02.12.03.18Zm6.87-4.15c1.66 0 3 1.34 3 2.99s-1.34 2.99-3 2.99-3-1.34-3-2.99 1.34-2.99 3-2.99Zm17.43 12.48-5.18 12.94a1 1 0 0 1-.93.63H7.48c-.71 0-1.19-.72-.93-1.37l5.2-12.94a1 1 0 0 1 .93-.63h5.07c2.05 3.73 4.56 6.85 4.72 7.05l.78.96a1 1 0 0 0 1.55 0l.78-.96c.16-.2 2.67-3.32 4.72-7.05h10.23c.71 0 1.19.71.93 1.37Z"/></svg>
