<svg xmlns="http://www.w3.org/2000/svg" viewBox="0 0 48 48"><title>Manege</title><path d="M22.02 11.01s-.06-.35.04-.78c.21-.87.58-1.93 1.21-2.54 1.02-.99 2.42-1.45 3.56-1.67.61-.12 1.17.36 1.17.99v4.93l3.52 1.85.46.97c-2.02.02-5.04.29-7.52 1.52-2.55 1.27-4 2.81-4.74 3.83-1.45-2.47-2.62-5.18-3.18-8.04 2.15-.85 4.11-1.06 5.48-1.06Zm10.93 5.86 3 6.33s.98 1.59 2.15 3.46c-1.57 1.14-4.91 3.53-7.75 5.56-1.81-1.48-6.06-5.2-9.43-10.18h.03s1.06-2.2 4.43-3.88c2.55-1.27 5.93-1.34 7.58-1.29Zm-2.58 5.48c0-.87-.71-1.58-1.59-1.58s-1.59.71-1.59 1.58.71 1.58 1.59 1.58 1.59-.71 1.59-1.58Zm8.84 6.11c-1.23.89-3.76 2.71-9.03 6.48l2.81 3.4c.17.2.41.34.67.36 3.7.35 7.13-1.96 8.19-5.36.09-.27.04-.56-.11-.81-.45-.72-1.47-2.37-2.54-4.08Zm-10.86 4.85c-3.58-3-11.71-10.73-13.8-20.32-2.74 1.38-5.68 3.53-8.31 6.66-.15.18-.24.42-.24.66v20.7c0 .55.45 1 1 1h9.99c.55 0 1-.45 1-1.01l-.07-10.06c2.93 2.88 8.04 3.4 10.43 2.37Z"/></svg>
