<svg xmlns="http://www.w3.org/2000/svg" viewBox="0 0 48 48"><title>Marktgelden</title><path d="M20.93 19.01h-6.59l.02-2.92L16.05 9h4.88v10.01ZM33 30H11v-9H9v16c0 .55.45 1 1 1s1-.45 1-1v-5h22v5c0 .55.45 1 1 1s1-.45 1-1V23.43c-.7-.28-1.38-.64-2-1.1v7.68Zm-6-13.99c0-.77.29-1.47.77-2-.48-.53-.77-1.23-.77-2 0-1.65 1.35-3 3-3h.21V9h-7.25v10.01h6.99A3.003 3.003 0 0 1 27 16.02ZM37 40H7c-.55 0-1 .45-1 1s.45 1 1 1h30c.55 0 1-.45 1-1s-.45-1-1-1Zm3.44-20.75c-1.92 1.29-4.29.94-5.89-.89-.35-.4-.62-.86-.86-1.34h4.3c.55 0 1-.45 1-1s-.45-1-1-1h-4.92c-.09-.66-.1-1.34 0-2H38c.55 0 1-.45 1-1s-.45-1-1-1h-4.31c.22-.44.47-.87.79-1.26 1.58-1.88 4.03-2.28 5.96-.98.46.31 1.08.19 1.39-.27a.999.999 0 0 0-.27-1.39c-2.81-1.89-6.35-1.34-8.61 1.35-.63.75-1.11 1.62-1.43 2.54H30c-.55 0-1 .45-1 1s.45 1 1 1h1.08a9.55 9.55 0 0 0 0 2h-1.07c-.55 0-1 .45-1 1s.45 1 1 1h1.52c.34.97.85 1.88 1.53 2.66 1.35 1.54 3.14 2.35 4.96 2.35 1.22 0 2.45-.36 3.56-1.11.46-.31.58-.93.27-1.39a.999.999 0 0 0-1.39-.27Zm-33.39-.24h5.25V16.3L14.06 9H9.83c-.4 0-.75.23-.91.59l-2.75 6.19c-.05.12-.08.26-.09.39l-.03 1.82c0 .56.44 1.02 1 1.02Z"/></svg>
