<svg xmlns="http://www.w3.org/2000/svg" viewBox="0 0 48 48"><title>Meeuwenoverlast</title><path d="M13 20c3.87 0 7-3.13 7-7s-3.13-7-7-7-7 3.13-7 7 3.13 7 7 7Zm-1-10c0-.55.45-1 1-1s1 .45 1 1v3c0 .55-.45 1-1 1s-1-.45-1-1v-3Zm.28 5.28c.19-.19.43-.28.72-.28s.54.09.72.28c.19.19.28.43.28.72s-.09.53-.28.72c-.18.19-.43.28-.72.28s-.54-.09-.72-.28c-.19-.19-.28-.43-.28-.72s.09-.53.28-.72Zm-2.3 12.39c4.28-2.24 11.21-5.37 17.08-5.37.52 1.76 1.52 2.63 2.02 2.97.88.61 1.1 1.59 1.1 2.16 0 1.67-3.19 2.95-8.46 2.95-1.54 0-7.29-.45-11.36-.82-.99-.09-1.26-1.42-.37-1.88Zm26.82-6.63.87-1.05h4.32s-.09-2.05-2.12-2h-2.49c0-.86-.84-2.55-3.89-2.55-3.51 0-4.57 2.68-4.57 4.15 0 2.13.86 3.74 2.06 4.74.89.74 1.1 1.24 1.1 3.09 0 2.33-3.01 4.88-10.15 4.88-1.9 0-5.07-.1-8.24-.42l-1.66-.16-6.05 3.44v.62c0 .62.56 1.09 1.17.99l4.47-.78h8.36l-.02 6h8.02c.55 0 1-.45 1-1s-.45-1-1-1h-1l.02-4h1.41c5.62 0 10.57-3.27 10.57-8 0-5.47-2.2-6.95-2.2-6.95ZM24.98 39.99H22l.02-4H25l-.02 4Zm9.74-20.67c-.56 0-1.01-.45-1.01-1.02s.45-1.02 1.01-1.02 1.02.45 1.02 1.02-.45 1.02-1.02 1.02Z"/></svg>
