<svg xmlns="http://www.w3.org/2000/svg" viewBox="0 0 48 48"><title>Melding straatverlichting</title><path d="M19 42H7c-.55 0-1-.45-1-1s.45-1 1-1h12v2Zm6-2h16c.55 0 1 .45 1 1s-.45 1-1 1H25v-2Zm15-23H28a2 2 0 0 0-2 2v12a2 2 0 0 0 2 2h4.25l3.88 3.82c.1.09.22.14.35.14.06 0 .13-.01.19-.04.19-.08.31-.26.31-.46l.03-3.47h3a2 2 0 0 0 2-2v-12a2 2 0 0 0-2-2Zm-6 12c-.55 0-1-.45-1-1s.45-1 1-1 1 .45 1 1-.45 1-1 1Zm0-3c-.55 0-1-.45-1-1v-3c0-.55.45-1 1-1s1 .45 1 1v3c0 .55-.45 1-1 1ZM6.69 15.4c.38.38.99.38 1.37 0l.96-.96c.4-.4.38-1.08-.07-1.43 0 0-.01 0-.02-.01a.978.978 0 0 0-1.3.06l-.96.96c-.38.38-.38.99 0 1.37h.01Zm12.48 0h.01c.38-.39.38-1 0-1.38l-1.01-1.01c-.36-.36-.91-.36-1.3-.05 0 0-.01 0-.02.01-.44.35-.46 1.02-.06 1.42l1.01 1.01c.38.38.99.38 1.37 0ZM23 10c0-1.83 1.54-1.99 2-2h2v1c0 1.66 1.34 3 3 3h2c1.65 0 3-1.35 3-3V7c0-.55-.45-1-1-1h-9c-.95 0-2.16.39-3 1.29-.84-.9-2.05-1.29-3-1.29h-9c-.55 0-1 .45-1 1v2.01C9 10.66 10.34 12 11.99 12H14c1.66 0 3-1.34 3-3V8h1.99c.47 0 2.01.17 2.01 2v31c0 .55.44 1 .99 1s1-.45 1-1V10Zm6.07-2h4v1c0 .55-.45 1-1 1h-2c-.55 0-1-.45-1-1V8Zm-16.13 9.98c.53 0 .97-.43.97-.97 0 0-.01-1.16-.03-2.04 0-.53-.44-.95-.96-.95s-.97.43-.97.97v2.02c0 .53.43.97.97.97h.02Z"/></svg>
