<svg xmlns="http://www.w3.org/2000/svg" viewBox="0 0 48 48"><title>Melding</title><path d="M40 6H30c-1.1 0-2 .9-2 2v10c0 1.1.9 2 2 2h1v3.57c0 .47.6.68.89.31L35 19.99h5c1.1 0 2-.9 2-2v-10c0-1.1-.9-2-2-2Zm-4.28 10.72c-.19.19-.43.28-.72.28s-.54-.09-.72-.28c-.19-.19-.28-.43-.28-.72s.09-.53.28-.72c.19-.19.43-.28.72-.28s.54.09.72.28c.19.19.28.43.28.72s-.09.53-.28.72ZM35 14c-.55 0-1-.45-1-1v-3c0-.55.45-1 1-1s1 .45 1 1v3c0 .55-.45 1-1 1Zm-9 22v5c0 .55-.45 1-1 1H7c-.55 0-1-.45-1-1v-5c0-2.76 2.24-5 5-5h10c2.76 0 5 2.24 5 5ZM9 20.53c.68-3.16 3.52-5.53 6.92-5.53 1.99 0 3.79.81 5.07 2.12-.02.72-.2 1.25-.54 1.6-.9.94-3.09.88-5.22.83-2.29-.06-4.64-.11-6.24.98Zm13.47-1.18c.34.82.53 1.71.53 2.65 0 3.87-3.17 7-7.08 7-3.16 0-5.83-2.04-6.74-4.87-.14-.74.06-1.2.42-1.61.93-1.04 3.38-1.03 5.59-.97 2.57.06 5.21.13 6.73-1.46.22-.22.4-.48.55-.75Z"/></svg>
