<svg xmlns="http://www.w3.org/2000/svg" viewBox="0 0 48 48"><title>Milieuzone</title><path d="M37.9 6h-5.8L28 10.1v5.8l4.1 4.1h5.8l4.1-4.1v-5.8L37.9 6Zm-2.18 10.48c-.19.19-.43.28-.72.28s-.54-.09-.72-.28c-.19-.19-.28-.43-.28-.72s.09-.53.28-.72c.19-.19.43-.28.72-.28s.54.09.72.28c.19.19.28.43.28.72s-.09.53-.28.72ZM36 13c0 .55-.45 1-1 1s-1-.45-1-1v-3c0-.55.45-1 1-1s1 .45 1 1v3Zm-6 15v-.38c0-.41-.08-.8-.25-1.18-.49-1.13-1.59-3.7-2.24-5.24a1.99 1.99 0 0 0-1.83-1.21h-5.65s-.04-.02-.04-.04v-4.11c0-1.02-.83-1.85-1.85-1.85H7c-.55 0-1 .45-1 1v21c0 .55.45 1 1 1h11.05c-.02.17-.05.33-.05.5 0 2.48 2.02 4.5 4.5 4.5s4.5-2.02 4.5-4.5c0-.17-.03-.33-.05-.5H28c1.1 0 2-.9 2-2v-7Zm-7.5 12a2.5 2.5 0 0 1 0-5 2.5 2.5 0 0 1 0 5ZM20 27s-.04-.02-.04-.04l.04-4.92s.02-.04.04-.04h5.65l2.14 5h-7.82Z"/></svg>
