<svg xmlns="http://www.w3.org/2000/svg" viewBox="0 0 48 48"><title>Monitor agrofood</title><path d="M42 35c0 3.87-3.81 7-8.5 7S25 38.87 25 35s3.81-7 8.5-7 8.5 3.13 8.5 7ZM22.01 17.49c0 .83-.68 1.51-1.51 1.51H7.51C6.67 19 6 18.33 6 17.49V7.51C5.99 6.68 6.66 6 7.5 6h12.99c.84 0 1.51.67 1.51 1.51v9.99ZM11 12.99c0-.55-.44-.99-.99-.99h-.02c-.55 0-.99.44-.99.99v2.02c0 .55.44.99.99.99h.02c.55 0 .99-.44.99-.99v-2.02ZM15 15V9.99A1.01 1.01 0 0 0 13.99 9c-.55 0-.99.45-.99.99V15c.01.55.46.99 1 .99s.99-.45.99-.99Zm4-1.01c0-.55-.44-.99-.99-.99h-.02c-.55 0-.99.44-.99.99v1.02c0 .55.44.99.99.99h.02c.55 0 .99-.44.99-.99v-1.02Zm5.93 26.19c-.96.98-2.25 1.84-3.96 1.84h-.19c-.25 0-.46-.04-.63-.06-.91-.1-1.58-.39-2.04-.58-.38-.16-.4-.17-.54-.17-.17 0-.22.01-.61.19-.54.23-1.36.58-2.5.63h-.17c-2.08 0-4.12-1.43-6.05-4.25-2.16-3.16-3.36-8.53-.9-12.86 1.16-2.11 3.29-3.57 5.68-3.94 0 0 2.38.01 4.76.01 1.84 0 3.5 0 3.62-.04.61.04 1.22.06 1.82.26 2.04.6 3.79 2 4.81 3.86.34.59.59 1.22.78 1.88-3.45 1.48-5.82 4.52-5.82 8.05 0 1.93.72 3.72 1.93 5.18Zm-1.4-20.85c.96.27 1.88.69 2.71 1.22a4.77 4.77 0 0 1 4.65-5.68c2.62.02 4.74 2.15 4.74 4.77s-2.12 4.75-4.74 4.77c-.46 0-.9-.09-1.33-.22.37.67.64 1.41.87 2.19.97-.26 2.01-.4 3.08-.4 1.8 0 3.49.39 4.97 1.07.3-.3.59-.61.85-.94l-1.49-2.48c.35-.6.61-1.24.8-1.93l1.73-.43v-.01L41.4 21c.06-.45.1-.9.1-1.37s-.04-.92-.1-1.37l-2.81-.7c-.18-.68-.45-1.33-.8-1.93l1.49-2.48c-.5-.64-1.92-1.92-1.92-1.92l-.02-.02-2.46 1.48c-.59-.34-1.23-.6-1.9-.78l-.7-2.81c-.45-.06-2.34-.06-2.79 0l-.7 2.81c-.67.18-1.31.44-1.9.78 0 0-2.47-1.46-2.48-1.46l-.03-.02s-.18.16-.38.36v5.97c0 .64-.17 1.25-.47 1.77Z"/></svg>
