<svg xmlns="http://www.w3.org/2000/svg" viewBox="0 0 48 48"><title>Monitor duurzaamheid</title><path d="M6 17.48V7.5C5.99 6.67 6.66 6 7.5 6h12.98c.83 0 1.51.67 1.51 1.5v9.97c.01.83-.66 1.5-1.5 1.5H7.51c-.83 0-1.51-.67-1.51-1.5Zm12-1.5c.55 0 1-.45 1-1v-1c0-.55-.45-1-1-1s-1 .45-1 1v1c0 .55.45 1 1 1Zm-5.01-6.01v5.01c.01.55.46 1 1.01 1s1-.45 1-1V9.97c-.01-.55-.46-1-1.01-1s-1 .45-1 1ZM10 15.98c.55 0 1-.45 1-1v-2c0-.55-.45-1-1-1s-1 .45-1 1v2c0 .55.45 1 1 1ZM10 30H7c-.55 0-1 .45-1 1v8c0 .55.45 1 1 1h3c.55 0 1-.45 1-1v-8c0-.55-.45-1-1-1Zm25.41 6.35-10.38.66-2.87-.91a.928.928 0 0 1-.6-1.16c.15-.48.67-.75 1.15-.6l2.79.88 3.54-.3c-.01-.1-.32-2.6-3.48-3.49l-6.05-1.83c-.14-.04-.29-.05-.44-.03l-6.08.92v8.44l11.8 2.99c.15.04.3.04.45 0l14.74-3.09s0-2.51-4.58-2.51ZM24.52 15.09c.6-.13 1.39-1.02 1.32-1.57-.11-.83-.83-.53-1.31-.65-.17-.04-.36-.05-.54-.06v2.79c0-.25.17-.43.52-.5ZM29 6c-1.77 0-3.46.36-5 1v2.16c1.04-.52 2.18-.87 3.38-1.04-.61.75-.59 2.03-.21 2.96.08.2.44.4.66.39 1.56-.06 3.12-.13 4.68-.29.72-.07 1.29.09 1.76.64.28.33.52.73.84 1 1.05.88 1.06 1.88.62 3.13-.67 1.88-.98 2.21-2.88 2.21-1.47 0-2.42 1.3-2.06 2.83.21.87.08 1.64-.5 2.32-.39.47-.79.94-1.14 1.44-.07.1-.14.16-.21.23l-1.31-.44c-.34-.31-.7-.6-1.06-.89-.62-.51-1.03-1.16-.92-1.99.23-1.87-.37-3.49-1.27-5.05-.12-.2-.21-.42-.3-.64-.04-.11-.07-.2-.08-.29v2.29c0 1.66-1.34 3-3 3h-4.84c.32 2.08 1.14 3.99 2.32 5.62 0 0 .41.38.95.84h.03l.43.13 6.23 1.88c.42.12.8.26 1.15.42.02.01.05.02.08.03.32.15.62.32.89.5.05.03.1.06.14.09.24.16.45.34.65.51.07.06.14.12.2.18.16.16.31.32.45.49.08.09.15.18.22.27 6.76-.47 12.1-6.08 12.1-12.95s-5.82-13-13-13Z"/></svg>
