<svg xmlns="http://www.w3.org/2000/svg" viewBox="0 0 48 48"><title>Monitor woningmarkt</title><path d="M6.02 17.53V7.55c-.01-.83.66-1.5 1.5-1.5H20.5c.83 0 1.51.67 1.51 1.5v9.97c.01.83-.66 1.5-1.5 1.5H7.53c-.83 0-1.51-.67-1.51-1.5Zm12-1.5c.55 0 1-.45 1-1v-1c0-.55-.45-1-1-1s-1 .45-1 1v1c0 .55.45 1 1 1Zm-5.01-6.01v5.02c.01.55.46 1 1.01 1s1-.45 1-1v-5.02c-.01-.55-.46-1-1.01-1s-1 .45-1 1Zm-2.99 6.01c.55 0 1-.45 1-1v-2c0-.55-.45-1-1-1s-1 .45-1 1v2c0 .55.45 1 1 1Zm32.66 16.73-7.65-6.92.03-10.77a2.49 2.49 0 0 1-1.49-2.28c0-1.6 1.51-2.85 3.18-2.4.8.22 1.47.86 1.7 1.66.38 1.32-.3 2.54-1.39 3.02v6.37c3.42-1.4 5.65-5.08 4.8-9.16-.64-3.07-3.13-5.52-6.21-6.13a8.038 8.038 0 0 0-9.67 7.87c0 .45.05.89.12 1.32l-2.08 1.39v1.26c0 1.66-1.34 3-3 3h-3.39l-4.05 2.7c-.28.19-.45.5-.45.83v1.62c0 .4.24.76.61.92l2.7 1.16c.3.13.64.1.92-.07l1.3-.8c.3-.18.48-.5.48-.85v-.97l1.22-.89 1.15.46c.3.12.65.09.92-.09l1.19-.78a1 1 0 0 0 .45-.84v-.97l1.22-.89 1.15.46c.29.12.63.09.9-.08l2.12-1.3c1.04.72 2.31 1.22 3.62 1.38v3.9l-7.6 6.88a1 1 0 0 0-.1 1.38c.37.45 1.05.48 1.46.07l.23-.23-.03 7c0 .55.45 1 1 1h12c.55 0 1-.45 1-1l.03-7 .24.24c.41.41 1.08.38 1.46-.06l.02-.03c.35-.41.31-1.03-.09-1.39ZM36.05 36c0 .55-.45 1-1 1h-1.99c-.56 0-1-.45-1-1.01v-1c.01-.55.46-.99 1.01-.99h1.98c.55 0 1 .45 1 1v1Z"/></svg>
