<svg xmlns="http://www.w3.org/2000/svg" viewBox="0 0 48 48"><title>Monitor virus</title><path d="M42 24c0 2.21-1.79 4-4 4-1.86 0-3.41-1.28-3.86-3h-2.21a7.941 7.941 0 0 1-1.62 3.9l1.67 1.67c.59-.35 1.28-.57 2.02-.57 2.21 0 4 1.79 4 4s-1.79 4-4 4-4-1.79-4-4c0-.74.21-1.43.57-2.02l-1.67-1.67a8.035 8.035 0 0 1-3.9 1.62v2.21c1.72.45 3 2 3 3.86 0 2.21-1.79 4-4 4s-4-1.79-4-4c0-1.86 1.28-3.41 3-3.86v-2.21c-1.46-.18-2.8-.76-3.9-1.61l-3.4 3.4c.19.39.3.82.3 1.29 0 1.66-1.34 3-3 3s-3-1.34-3-3 1.34-3 3-3c.46 0 .89.11 1.29.3l3.4-3.4a7.941 7.941 0 0 1-1.62-3.9h-2.2c-.45 1.72-2 3-3.86 3-2.21 0-4-1.79-4-4 0-1.2.54-2.27 1.38-3h5.24c.59.52 1.04 1.21 1.24 2h2.2c.09-.7.27-1.37.52-2h4.42c1.65 0 3-1.34 3-3V7c0-.34-.07-.67-.18-.98.06 0 .12-.02.18-.02 2.21 0 4 1.79 4 4 0 1.86-1.28 3.41-3 3.86v2.2c1.46.18 2.8.76 3.9 1.62l2.53-2.53c-.27-.49-.43-1.05-.43-1.65 0-1.93 1.57-3.5 3.5-3.5s3.5 1.57 3.5 3.5-1.57 3.5-3.5 3.5c-.6 0-1.16-.17-1.65-.43l-2.53 2.53a7.928 7.928 0 0 1 1.61 3.9h2.21c.45-1.72 2-3 3.86-3 2.21 0 4 1.79 4 4ZM22 7.55v9.97c.01.83-.66 1.5-1.5 1.5H7.53c-.83 0-1.51-.67-1.51-1.5V7.55c-.01-.83.66-1.5 1.5-1.5H20.5c.83 0 1.51.67 1.51 1.5Zm-10.98 5.48c0-.55-.45-1-1-1s-1 .45-1 1v2c0 .55.45 1 1 1s1-.45 1-1v-2Zm3.99 2v-5.01c-.01-.55-.46-1-1.01-1s-1 .45-1 1v5.01c.01.55.46 1 1.01 1s1-.45 1-1Zm4.01-1c0-.55-.45-1-1-1s-1 .45-1 1v1c0 .55.45 1 1 1s1-.45 1-1v-1Z"/></svg>
