<svg xmlns="http://www.w3.org/2000/svg" viewBox="0 0 48 48"><title>Monitor sociaal</title><path d="M22.48 29H9.51C8.68 29 8 29.67 8 30.51v9.99c.01.83.69 1.51 1.52 1.51h12.97c.83 0 1.51-.67 1.51-1.51v-9.99A1.53 1.53 0 0 0 22.48 29ZM13 38c0 .55-.45 1-1 1s-1-.45-1-1v-2c0-.55.45-1 1-1s1 .45 1 1v2Zm3.01 1h-.02c-.55 0-1-.45-1-1v-5c-.01-.55.44-1 .99-1H16c.55 0 1 .45 1 1v5c.01.55-.43 1-.99 1ZM21 38c0 .55-.45 1-1 1s-1-.45-1-1v-1c0-.55.45-1 1-1s1 .45 1 1v1ZM19 9.5C19 7.57 20.57 6 22.5 6S26 7.57 26 9.5 24.43 13 22.5 13 19 11.43 19 9.5Zm11 0C30 7.57 31.57 6 33.5 6S37 7.57 37 9.5 35.43 13 33.5 13 30 11.43 30 9.5Zm7 5.5h-5.93c-1.66 0-3 1.35-3 3.01 0-1.66-1.34-3.01-3-3.01h-6.06c-1.66 0-3 1.35-3 3.01l.03 8.99h14.9c1.14 0 2.06.86 2.06 2v3.5c0 .83-.67 1.5-1.5 1.5H31v8h4.49c.83 0 1.5-.68 1.5-1.51L36.92 29h1.58c.83 0 1.5-.67 1.5-1.5V18c0-1.66-1.34-3-3-3Zm-6.06 8.59c-.22 1.17-1.18 2.13-2.36 2.36-2.11.4-3.93-1.42-3.53-3.53.22-1.17 1.18-2.13 2.36-2.36 2.11-.4 3.93 1.42 3.53 3.53Z"/></svg>
