<svg xmlns="http://www.w3.org/2000/svg" viewBox="0 0 48 48"><title>Monument Woning</title><path d="M40.05 22h-8c-1.1 0-2.02.9-2.02 2v7.94c0 .54.21 1.05.6 1.42l4.01 3.95c.39.38.9.58 1.4.58s1.02-.19 1.41-.58l3.99-3.95c.38-.37.59-.88.59-1.42l.02-7.84V24a2 2 0 0 0-2-2Zm-.02 10h-.02l-3.98-3.98L32.05 32h-.02v-8h.02l3.98 3.98L40.01 24h.02v8Zm1 8h-10v-3.43l-1.81-1.79a4.047 4.047 0 0 1-1.19-2.84v-7.92c0-1.86 1.28-3.42 3-3.87v-3.73l-.56-.27c-2.03-.99-3.44-3.52-3.44-6.15V9h-2.92c-.46-1.76-2.14-3-4.25-3s-3.79 1.24-4.25 3h-2.57v1c0 2.62-1.42 5.15-3.45 6.15l-.56.27V40h-2c-.55 0-1 .45-1 1s.45 1 1 1h34c.55 0 1-.45 1-1s-.45-1-1-1Zm-25-3h-2v-3.6c0-.55.45-1 1-1s1 .45 1 1V37Zm0-9.46h-2v-3.6c0-.55.45-1 1-1s1 .45 1 1v3.6Zm5 9.46h-2v-3.6c0-.55.45-1 1-1s1 .45 1 1V37Zm0-9.46h-2v-3.6c0-.55.45-1 1-1s1 .45 1 1v3.6Zm-1-9.54c-1.1 0-2-.9-2-2s.9-2 2-2 2 .9 2 2-.9 2-2 2Zm6 19h-2v-3.6c0-.55.45-1 1-1s1 .45 1 1V37Zm0-9.46h-2v-3.6c0-.55.45-1 1-1s1 .45 1 1v3.6Z"/></svg>