<svg xmlns="http://www.w3.org/2000/svg" viewBox="0 0 48 48"><title>Museum</title><path d="M24 6c-6.63 0-12 5.37-12 12 0 11 12 24 12 24s12-13 12-24c0-6.63-5.37-12-12-12Zm-6.46 9.26 6-3.15c.29-.15.64-.15.93 0l6 3.15c.49.26.68.86.42 1.35a1.012 1.012 0 0 1-1.35.43L24 14.13l-5.54 2.91a.996.996 0 0 1-1.35-.42.996.996 0 0 1 .42-1.35ZM29 19v3c0 .55-.45 1-1 1s-1-.45-1-1v-3c0-.55.45-1 1-1s1 .45 1 1Zm-4 0v3c0 .55-.45 1-1 1s-1-.45-1-1v-3c0-.55.45-1 1-1s1 .45 1 1Zm-4 0v3c0 .55-.45 1-1 1s-1-.45-1-1v-3c0-.55.45-1 1-1s1 .45 1 1Zm9 8H18.28c-.55 0-1-.45-1-1s.45-1 1-1H30c.55 0 1 .45 1 1s-.45 1-1 1Z"/></svg>