<svg xmlns="http://www.w3.org/2000/svg" viewBox="0 0 48 48"><title>Nieuwsbrief</title><path d="m21.05 27.52.33-.26h.01l.71-.52c.56-.41 1.23-.61 1.89-.61s1.38.22 1.96.66l1.69 1.25 8.37-6v-10H12v9.97l8.38 6.01.67-.5ZM17 17h14c.55 0 1 .45 1 1s-.45 1-1 1H17c-.55 0-1-.45-1-1s.45-1 1-1Zm-1 5h10.99c.55 0 1 .45 1 1s-.45 1-1 1H19l-3-2Zm11.2-11.96h-6.4l1.95-1.56c.35-.28.8-.44 1.25-.44s.9.16 1.25.44l1.95 1.56ZM40 21.95v17.06s-.01.04-.01.06l-10.73-9.68L40 21.95Zm-12.86 8.22 10.9 9.84H9c-.06 0-.12-.02-.18-.04L22.28 29.1l1.01-.76c.24-.18.51-.22.7-.22.27 0 .53.09.74.25l1.72 1.27.7.52Zm-8.4-.78L8 38.07V21.95l10.74 7.44Z"/></svg>
