<svg xmlns="http://www.w3.org/2000/svg" viewBox="0 0 48 48"><title>Omgevingsvisie document</title><path d="M23 16.97c0 1.66-1.34 3-3 3s-3-1.34-3-3 1.34-3 3-3 3 1.34 3 3ZM7 33l7.94 8 .06-8.03L7 33Zm34.8 2.8-.17.22c-.34.44-.97.51-1.41.17l-1.23-1.06v5.88c0 .55-.45 1-1 1h-10c-.55 0-1-.45-1-1v-5.88l-1.28 1.06a.993.993 0 0 1-1.4-.21l-.12-.16a.996.996 0 0 1 .22-1.4l8.01-5.96a.99.99 0 0 1 1.18 0l3.38 2.46v-.89c.02-.55.46-.99 1.01-.99s1 .45 1 1v2.34l2.6 2.01c.46.33.55.98.2 1.43ZM35 36c0-.55-.45-1-1-1h-2c-.55 0-1 .45-1 1v1c0 .55.45 1 1 1h2c.55 0 1-.45 1-1v-1Zm-10.01 5V41.96h-8v-9.08c0-1.06-.86-1.92-1.92-1.92H6V7.94c0-1.09.88-1.97 1.97-1.97h24.05c1.09 0 1.97.88 1.97 1.97v18.48a2.985 2.985 0 0 0-2.76.41L23.2 32.8c-.63.46-1.06 1.16-1.18 1.95-.12.79.07 1.59.54 2.23l.12.16c.54.74 1.39 1.19 2.3 1.22v2.62ZM20.8 27.92c1.43-1.93 4.31-6.14 5.02-9.54.03-.14.17-1.13.17-1.41 0-3.31-2.69-6-6-6s-6 2.69-6 6c0 .28.14 1.27.17 1.41.71 3.4 3.6 7.61 5.02 9.54.4.54 1.21.54 1.61 0Z"/></svg>
