<svg xmlns="http://www.w3.org/2000/svg" viewBox="0 0 48 48"><title>Omgevingsvisie</title><path d="M16.97 31h14.05c.54 0 .98-.44.98-.97v-9.44l.69.73c.41.43 1.1.4 1.47-.06.33-.4.28-1-.11-1.34L32 18.09v-3.11c0-.54-.44-.98-.98-.98h-.05c-.54 0-.98.44-.98.98v1.48l-5.43-4.29a.962.962 0 0 0-1.19.02l-9.46 7.7c-.43.34-.5.97-.15 1.39l.05.06c.35.42.98.47 1.39.11l.79-.69v9.25c0 .54.44.98.97.98ZM26 26h-4c-.55 0-1-.45-1-1v-3.01c0-.55.45-1 1-1h4c.55 0 1 .45 1 1V25c0 .55-.45 1-1 1Zm16 4.57c0 3.58-9.06 5.46-18 5.46S6 34.16 6 30.57c0-2.18 3.35-3.67 7.99-4.55v1.96c-3.76.8-5.62 1.83-5.62 2.59 0 1.27 5.12 3.46 15.63 3.46s15.74-2.19 15.74-3.46c0-.77-1.92-1.82-5.74-2.63v-1.92c4.64.88 8 2.37 8 4.55Z"/></svg>
