<svg xmlns="http://www.w3.org/2000/svg" viewBox="0 0 48 48"><title>Omgeving</title><path d="M20.52 11.5c0-1.93 1.57-3.5 3.5-3.5s3.5 1.57 3.5 3.5-1.57 3.5-3.5 3.5-3.5-1.57-3.5-3.5Zm-.5 21.61c0 .53.41.97.94 1 .96.05 1.98.08 3.07.08s2.1-.03 3.06-.09a.99.99 0 0 0 .93-1V29h1c.55 0 1-.45 1-1v-8.42c-.15-1.42-1.42-2.53-2.99-2.53h-6.04c-1.67 0-2.98 1.26-2.98 2.81V28c0 .55.45 1 1 1h1v4.11Zm21.98.36c0-.24-.04-.47-.09-.7-.61-2.33-4.18-3.99-8.75-4.92-.59-.12-1.16.32-1.16.93v.03c0 .46.33.85.78.93 4.39.85 6.84 2.31 6.85 3.73-.02 2.2-5.86 4.48-15.63 4.48s-15.71-2.3-15.75-4.48c.03-1.43 2.42-2.91 6.95-3.76.45-.09.79-.47.79-.94 0-.61-.56-1.05-1.16-.93-4.61.94-8.19 2.62-8.75 4.99-.05.21-.09.42-.09.64 0 .22.04.43.09.64.9 3.81 9.65 5.86 17.92 5.86s16.9-2.02 17.89-5.79c.06-.23.09-.46.09-.7Z"/></svg>
