<svg xmlns="http://www.w3.org/2000/svg" viewBox="0 0 48 48"><title>Ondernemen</title><path d="M25.62 10.21c.61-.31 1.33-.3 1.94.02l4.75 2.58c.88.48 1.9.62 2.88.39l5.51-1.26a.996.996 0 0 1 1.22.97v7.57l-5.56 1.34c-.5.12-1.02.05-1.48-.19l-6.37-3.46c-.26-.14-.48-.34-.65-.58L26 15a.996.996 0 0 0-.81-.42c-.09 0-.18.01-.27.04l-6.13 1.73c-.87.23-1.8-.13-2.22-.81l-.26-.49 9.33-4.84ZM10.9 28.29v.3c0 .66-.55 1.2-1.21 1.2h-.55c-.67 0-1.22-.54-1.22-1.21v-3.31c0-.67.55-1.21 1.22-1.21h.55c.67 0 1.22.54 1.22 1.21v3.02Zm5 2.97c0 .33-.13.65-.37.89s-.55.37-.89.37h-.47c-.34 0-.65-.13-.89-.36a1.24 1.24 0 0 1-.37-.89v-2.96c0-.68.57-1.24 1.25-1.24h.47c.34 0 .65.13.89.36.24.24.37.55.37.89v2.94Zm4.62 4.09c-.25.25-.57.38-.92.38h-.38c-.35 0-.67-.13-.92-.38a1.26 1.26 0 0 1-.38-.92v-3.14c0-.34.13-.67.38-.91.25-.25.57-.38.92-.38h.38c.72 0 1.3.58 1.31 1.29v3.14c.01.35-.12.67-.37.92Zm19.15-6.44-.02.03c-.57.91-1.81 1.21-2.76.65l-1.26-.74s-.02-.02-.04-.03l-6-3.51c-.48-.28-1.09-.12-1.37.35a.99.99 0 0 0 .36 1.36l1.3.76 4.74 2.78c.44.27.74.68.86 1.16.12.48.04.98-.23 1.41l-.02.03c-.58.89-1.8 1.17-2.74.63l-1.62-.95-.12-.09c-.02-.01-.05-.01-.07-.02l-4.19-2.45c-.48-.28-1.09-.12-1.37.35a.99.99 0 0 0 .36 1.36l4.39 2.57c.39.27.67.65.78 1.1.12.48.04.98-.23 1.41l-.02.03c-.58.89-1.8 1.17-2.74.63l-4.81-2.81c.02-.16.05-.33.05-.49v-3.12c-.02-1.81-1.5-3.29-3.31-3.29h-.4c-.46 0-.89.1-1.3.27 0-.86-.35-1.66-.96-2.27-.62-.61-1.43-.94-2.3-.94h-.48c-.44 0-.86.09-1.25.25v-.06c0-1.77-1.43-3.2-3.2-3.2h-.57a3.21 3.21 0 0 0-3.11 2.4V11.61c0-.71.72-1.2 1.38-.92l3.41 1.41c.51.22 1.07.33 1.62.33.13 0 .25 0 .38-.02l5.19-.48-3.53 1.83a1.004 1.004 0 0 0-.42 1.35l.77 1.43c.92 1.48 2.75 2.19 4.48 1.74l5.47-1.55 1.45 2.02c.35.49.8.88 1.32 1.17l6.36 3.46c.18.1.36.18.55.24l-.04.07 4.55 2.66c.46.27.78.69.9 1.18.12.47.04.96-.21 1.38Z"/></svg>
