<svg xmlns="http://www.w3.org/2000/svg" viewBox="0 0 48 48"><title>Onderwijs Basis</title><path d="M13.82 20.01c.34.31.51.85.48 1.46-.07 1.24-.96 2.4-1.95 2.53-.34.04-.63-.04-.87-.26-.34-.31-.51-.85-.48-1.46.07-1.24.96-2.4 1.95-2.53.06 0 .11-.01.17-.01.27 0 .5.09.7.27Zm10.16 1.47c.03-.62-.14-1.15-.48-1.46-.2-.18-.43-.28-.7-.28-.05 0-.11 0-.17.01-.99.13-1.88 1.29-1.95 2.53-.03.62.14 1.15.48 1.46.24.22.54.31.87.26.99-.13 1.88-1.29 1.95-2.53ZM22.22 35H7c-.55 0-1-.45-1-1V10c0-.55.45-1 1-1h30c.55 0 1 .45 1 1v18.07l-12.88 4.67s-.07.04-.11.05h-.04c-.03.01-.05.04-.09.05-.77.31-1.54.62-2.03 1.29l-.63.86Zm4.73-12.83c-.06 1.21.34 2.32 1.12 3.04.57.53 1.29.81 2.06.81.14 0 .28 0 .43-.03 1.05-.14 2.06-.79 2.76-1.78a.994.994 0 0 0-.24-1.39.996.996 0 0 0-1.39.24c-.38.54-.89.89-1.39.95-.33.04-.63-.04-.87-.26-.34-.31-.51-.85-.48-1.46.07-1.24.96-2.4 1.95-2.53.75-.1 1.08.48 1.19.74.22.51.8.74 1.31.52.51-.22.74-.81.52-1.31-.58-1.36-1.87-2.12-3.29-1.93-1.95.26-3.56 2.19-3.68 4.41Zm-10.49-4.53c-.53-.14-1.08.18-1.22.71l-.05.21s0-.01-.01-.02c-.67-.62-1.55-.91-2.49-.78-1.95.26-3.56 2.19-3.68 4.41-.06 1.21.34 2.32 1.12 3.04.57.53 1.29.81 2.06.81.14 0 .28 0 .43-.03.64-.08 1.24-.37 1.77-.77.15.22.34.43.57.59.18.13.39.2.59.2a1.005 1.005 0 0 0 .6-1.81c-.28-.21-.22-.59-.17-.74l1.2-4.61c.14-.53-.18-1.08-.71-1.22Zm5.41 8.38c.14 0 .28 0 .43-.03 1.95-.26 3.56-2.19 3.68-4.41.06-1.21-.34-2.32-1.12-3.04-.68-.62-1.55-.91-2.49-.78-.22.03-.43.09-.64.15l.78-3c.14-.53-.18-1.08-.71-1.22-.54-.13-1.08.18-1.22.71l-2.7 10.33c-.14.53.18 1.08.71 1.22a1.012 1.012 0 0 0 1.22-.72v-.03c.58.52 1.29.8 2.05.8Zm4.72 8.32 2.23 6.14 2.88-1.04-2.23-6.14-2.88 1.04Zm15.35.25-1.55-4.26a.998.998 0 0 0-1.28-.6l-7.76 2.88 2.23 6.14 7.76-2.88c.52-.19.79-.76.6-1.28ZM23.97 36l-1.74 2.36c-.24.32-.29.72-.16 1.09.14.37.43.64.82.74l2.85.7c.38.09.76.13 1.14.11l-2.11-5.81c-.3.23-.57.5-.8.81Z"/></svg>