<svg xmlns="http://www.w3.org/2000/svg" viewBox="0 0 48 48"><title>Onderwijs</title><path d="M17 32c-1.66 0-3-1.34-3-3s1.34-3 3-3 3 1.34 3 3-1.34 3-3 3Zm2 10Zm-5.01-7c0-1.65-1.35-3-3-3s-3 1.35-3 3 1.35 3 3 3 3-1.35 3-3ZM29 42ZM42 8v13c0 1.1-.9 2-2 2H19v-3h5.98c.56 0 1.02-.46 1.02-1.02s-.46-1.02-1.02-1.02H14.85c-1.61.1-2.84 1.37-2.84 3.01V23H8c-1.1 0-2-.9-2-2V8a2 2 0 0 1 2-2h32c1.1 0 2 .9 2 2Zm-23 4.97c0-1.65-1.35-3-3-3s-3 1.35-3 3 1.35 3 3 3 3-1.35 3-3Zm-6 26.04H9c-1.13 0-2.12.63-2.63 1.55-.36.65.15 1.45.9 1.45h7.46c.74 0 1.26-.8.9-1.45-.51-.92-1.5-1.55-2.63-1.55Zm-7 3Zm10 0Zm16 0Zm7-3h-3.99c-1.13 0-2.12.63-2.63 1.55-.36.65.15 1.45.9 1.45h7.46c.74 0 1.26-.8.9-1.45-.51-.92-1.5-1.55-2.63-1.55Zm3 3Zm-15.01-7c0-1.65-1.35-3-3-3s-3 1.35-3 3 1.35 3 3 3 3-1.35 3-3Zm-1 4H22c-1.13 0-2.12.63-2.63 1.55-.36.65.15 1.45.9 1.45h7.46c.74 0 1.26-.8.9-1.45-.51-.92-1.5-1.55-2.63-1.55Zm11-1c1.65 0 3-1.35 3-3s-1.35-3-3-3-3 1.35-3 3 1.35 3 3 3Zm-2.99-9c0-1.66-1.34-3-3-3s-3 1.34-3 3 1.34 3 3 3 3-1.34 3-3Z"/></svg>
