<svg xmlns="http://www.w3.org/2000/svg" viewBox="0 0 48 48"><title>Onderhoud</title><path d="m37.67 35.04-5.85-23.28c-.11-.44-.51-.76-.97-.76h-4.79c-.46 0-.86.31-.97.76l-5.85 23.27c-2.41.08-4.24 2.06-4.24 4.49V41c0 .55.45 1 1 1h24.97c.55 0 1-.45 1-1v-1.48c0-2.41-1.91-4.37-4.29-4.48ZM26.83 13.01h3.26l1.5 5.99h-6.27l1.5-5.99ZM21.82 33l1.5-6H33.6l1.5 6H21.82ZM22 14c0-4.42-3.58-8-8-8s-8 3.58-8 8 3.58 8 8 8 8-3.58 8-8Zm-7.28 3.72c-.19.19-.43.28-.72.28s-.54-.09-.72-.28c-.19-.19-.28-.43-.28-.72s.09-.53.28-.72c.19-.19.43-.28.72-.28s.54.09.72.28c.19.19.28.43.28.72s-.09.53-.28.72ZM15 14c0 .55-.45 1-1 1s-1-.45-1-1v-3c0-.55.45-1 1-1s1 .45 1 1v3Z"/></svg>
