<svg xmlns="http://www.w3.org/2000/svg" viewBox="0 0 48 48"><title>Onderwijs Hoger</title><path d="M11.18 31.03a1.01 1.01 0 0 1-.89 1.46c-.26 0-.5-.11-.69-.29v.71c0 .56-.45 1.01-1 1.01s-1-.45-1-1.01v-.66c-.18.15-.4.23-.63.23-.15 0-.3-.03-.44-.11-.5-.25-.7-.85-.45-1.35l1.52-3.09V15.39c0-.38.21-.72.54-.89l16.21-8.39c.29-.15.63-.15.91 0l16.22 8.4c.33.17.54.51.54.88s-.2.72-.52.9l-16.38 9.28-15.53-8.5v10.64c.02.05.02.11.03.17l1.55 3.16Zm11.96 1.51c.09-.14.21-.27.35-.35l12.58-7.5v-3.06L25.64 27.6a1.005 1.005 0 0 1-.97.01l-10.59-5.8v6.83c0 2.89 3.25 5.27 7.82 6.03l1.26-2.12Zm18.22-3.48c1.26 2.09.63 4.78-1.37 6.11v.02l-10.53 6.6c-.16.1-.34.15-.53.15l-6.88.02a.99.99 0 0 1-.86-.49c-.18-.3-.19-.68-.03-.99l3.12-5.91c.08-.16.19-.32.35-.38l10.7-6.74v.02a4.483 4.483 0 0 1 6.03 1.6Zm-10.03 9.11-2.57-4.21-2.85 1.79-1.35 2.56 2.3-1.42a1.006 1.006 0 0 1 1.06 1.71h-.01l-2.16 1.33h2.87l2.71-1.76Z"/></svg>
