<svg xmlns="http://www.w3.org/2000/svg" viewBox="0 0 48 48"><title>Onderwijs Voortgezet</title><path d="m24.91 34.07 11.18-10.24a.984.984 0 0 1 1.4 0l1.39 1.42L27 36.19l-2.09-2.13Zm-2.58 6.59c-.17.75.45 1.44 1.2 1.33l5.43-.97-5.33-5.41-1.31 5.05Zm19.34-12.57-1.4-1.42-11.88 10.94 2.09 2.13L41.66 29.5c.39-.39.39-1.03 0-1.42ZM11 31c-2.76 0-5 2.24-5 5V11.01c0-2.76 2.24-5 5-5h19c1.1 0 2 .9 2 2v16.6l-6.72 6.06s-.03.02-.05.03l-.34.31H11Zm2-17c0 .55.45 1 1 1h10c.55 0 1-.45 1-1s-.45-1-1-1H14c-.55 0-1 .45-1 1Zm0 4c0 .55.45 1 1 1h10c.55 0 1-.45 1-1s-.45-1-1-1H14c-.55 0-1 .45-1 1Zm9.75 15-.89.83c-.15.14-.44.97-.5 1.23l-.9 3.94H18v1.93c0 .37-.2.71-.53.88-.15.08-.31.12-.47.12a.99.99 0 0 1-.55-.17L14 40.13l-2.45 1.63c-.31.2-.7.22-1.03.05s-.53-.51-.53-.88v-2.11a2.99 2.99 0 0 1-2-2.82c0-1.65 1.35-3 3-3h11.75ZM16 35h-4v4h.09l1.36-.91c.34-.22.77-.22 1.11 0l1.36.91h.09v-4Z"/></svg>