<svg xmlns="http://www.w3.org/2000/svg" viewBox="0 0 48 48"><title>Ontheffing milieuzone</title><path d="M35 6c-3.86 0-7 3.14-7 7s3.14 7 7 7 7-3.14 7-7-3.14-7-7-7Zm-.57 9.64c-.4.4-1.04.4-1.44 0l-1.51-1.51a.996.996 0 0 1 0-1.41c.39-.38 1.01-.38 1.4 0l.84.83 2.91-2.91a.984.984 0 0 1 1.4 0c.39.39.39 1.01 0 1.4l-3.6 3.6ZM29.99 28v-.38c0-.41-.08-.8-.25-1.18-.49-1.13-1.59-3.7-2.24-5.24a1.99 1.99 0 0 0-1.83-1.21h-5.65s-.04-.02-.04-.04v-4.11c0-1.02-.83-1.85-1.85-1.85H7c-.55 0-1 .45-1 1v21c0 .55.45 1 1 1h11.05c-.02.17-.05.33-.05.5 0 2.48 2.02 4.5 4.5 4.5s4.5-2.02 4.5-4.5c0-.17-.03-.33-.05-.5H28c1.1 0 2-.9 2-2v-7Zm-7.5 12a2.5 2.5 0 0 1 0-5 2.5 2.5 0 0 1 0 5Zm-2.5-13s-.04-.02-.04-.04l.04-4.92s.02-.04.04-.04h5.65l2.14 5H20Z"/></svg>
