<svg xmlns="http://www.w3.org/2000/svg" viewBox="0 0 48 48"><title>Openingstijden winkels</title><path d="M34 26c-4.41 0-8 3.59-8 8s3.59 8 8 8 8-3.59 8-8-3.59-8-8-8Zm1.59 11-2.29-2.29a.99.99 0 0 1-.29-.71v-4.01c0-.55.45-1 1-1s1 .45 1 1v3.59l2 2a.996.996 0 1 1-1.41 1.41ZM24 34c0-5.52 4.48-10 10-10 .89 0 1.75.13 2.58.35l-.54-7.49A2.005 2.005 0 0 0 34.05 15h-5.13l-.02 3.87c.3.27.5.67.5 1.11 0 .83-.67 1.5-1.5 1.5s-1.5-.67-1.5-1.5c0-.44.2-.84.5-1.11v-5.95a6.919 6.919 0 0 0-2-4.84c2.25.37 4 2 4 3.94v.62c0 .55.45 1 1 1s1-.45 1-1v-.62C30.9 8.7 27.75 6 23.94 6c-.7 0-1.38.09-2.04.27v-.02s-.04.01-.05.02c-.6-.17-1.22-.26-1.87-.26-3.9 0-7.08 3.11-7.08 6.92L12.88 15H9.77c-1.05-.02-1.92.79-2 1.84L6.04 39.86c-.09 1.16.83 2.15 1.99 2.15h20a9.97 9.97 0 0 1-4.01-8Zm-8.15-12.52c-.83 0-1.5-.67-1.5-1.5 0-.44.2-.84.5-1.11l.03-5.95c0-2.21 1.51-4.06 3.58-4.68-.96 1.04-1.57 2.35-1.57 3.78v.62c0 .55.45 1 1 1s1-.45 1-1v-.62c0-1.58 1.21-3.01 2.95-3.66 1.8.72 3.05 2.47 3.05 4.56l-.02 2.06h-8l-.02 3.89c.3.27.5.67.5 1.11 0 .83-.67 1.5-1.5 1.5Z"/></svg>
