<svg xmlns="http://www.w3.org/2000/svg" viewBox="0 0 48 48"><title>Overlijden</title><path d="M42 30.78v1.26H20v-1.25c0-.71.28-1.34.71-1.85.06-.06.11-.13.17-.19.32-.31.7-.56 1.13-.72h18c1.09.44 2 1.49 2 2.74Zm-2-17.92c0-.38-.21-.74-.56-.91-2.65-1.29-5.53-1.97-8.44-1.97s-5.79.68-8.44 1.97c-.34.17-.56.52-.56.91v2.78c.78.62 1.39 1.47 1.72 2.47.69 2.13-.07 4.38-1.72 5.7v2.22h18V12.85Zm-6 7.18c0 .55-.45 1-1 1h-4c-.55 0-1-.45-1-1s.45-1 1-1h4c.55 0 1 .45 1 1Zm1-4c0 .55-.45 1-1 1h-6c-.55 0-1-.45-1-1s.45-1 1-1h6c.55 0 1 .45 1 1Zm-13.06 2.63a3.253 3.253 0 0 0-3.09-2.24c-.33 0-.67.05-1 .16-.22.07-.43.17-.63.28.05-.22.07-.45.07-.68 0-1.79-1.45-3.25-3.25-3.25s-3.25 1.45-3.25 3.25c0 .23.03.46.07.68a3.26 3.26 0 0 0-1.63-.44c-1.37 0-2.64.87-3.09 2.24-.55 1.7.38 3.54 2.08 4.09.22.07.45.12.67.14a3.245 3.245 0 0 0 2.17 5.66 3.242 3.242 0 0 0 2.97-1.93c.09.21.2.4.34.59A3.27 3.27 0 0 0 17 28.56c.66 0 1.33-.2 1.9-.62a3.245 3.245 0 0 0 .26-5.04 3.239 3.239 0 0 0 2.75-4.23Zm-7.88 5.22c-1.5 0-2.71-1.22-2.71-2.71s1.22-2.71 2.71-2.71 2.71 1.22 2.71 2.71-1.22 2.71-2.71 2.71Zm.94 6.12c0-.55-.45-1-1-1s-1 .45-1 1v4.11c-1.22-2.24-3.45-3.85-6.08-4.17a.827.827 0 0 0-.91.91c.46 3.79 3.56 6.81 7.37 7.13h.8c.46.02.83-.35.83-.81V30Z"/></svg>
