<svg xmlns="http://www.w3.org/2000/svg" viewBox="0 0 48 48"><title>Over de gemeente</title><path d="M23 14.93c0-.55.45-1 1-1s1 .45 1 1-.45 1-1 1-1-.45-1-1ZM36 8v-.95c0-.55-.45-1-1-1L13.02 6c-.55 0-.99.44-1 .98V8H36Zm6 33c0 .55-.45 1-1 1H7c-.55 0-1-.45-1-1s.45-1 1-1h1V11c0-.55.45-1 1.01-1H39c.55 0 1 .45 1 1l-.04 29H41c.55 0 1 .45 1 1ZM21.03 15.03a2.97 2.97 0 1 0 5.94 0 2.97 2.97 0 0 0-5.94 0ZM25 22h-2c-.55 0-1 .45-1 1v1c0 .55.45 1 1 1h2c.55 0 1-.45 1-1v-1c0-.55-.45-1-1-1Zm-12-6c0 .55.45 1 1 1h2c.55 0 1-.45 1-1v-1c0-.55-.45-1-1-1h-2c-.55 0-1 .45-1 1v1Zm0 8c0 .55.45 1 1 1h2c.55 0 1-.45 1-1v-1c0-.55-.45-1-1-1h-2c-.55 0-1 .45-1 1v1Zm4 8v-1c0-.55-.45-1-1-1h-2c-.55 0-1 .45-1 1v1c0 .55.45 1 1 1h2c.55 0 1-.45 1-1Zm14 7c0-.55-.45-1-1-1h-3v-8c0-.55-.45-1-1-1h-4c-.55 0-1 .45-1 1v8h-3c-.55 0-1 .45-1 1s.45 1 1 1h12c.55 0 1-.45 1-1Zm4-8c0-.55-.45-1-1-1h-2c-.55 0-1 .45-1 1v1c0 .55.45 1 1 1h2c.55 0 1-.45 1-1v-1Zm0-8c0-.55-.45-1-1-1h-2c-.55 0-1 .45-1 1v1c0 .55.45 1 1 1h2c.55 0 1-.45 1-1v-1Zm0-8c0-.55-.45-1-1-1h-2c-.55 0-1 .45-1 1v1c0 .55.45 1 1 1h2c.55 0 1-.45 1-1v-1Z"/></svg>
