<svg xmlns="http://www.w3.org/2000/svg" viewBox="0 0 48 48"><title>Parkeren bedrijven</title><path d="M39.99 29H37v-1.92c0-.57-.2-1.06-.6-1.46-.4-.41-.89-.61-1.45-.61h-3.89c-.57 0-1.05.2-1.45.61-.4.41-.6.9-.6 1.46V29H26c-.55 0-1.02.2-1.41.59-.39.39-.58.87-.58 1.43v8.94c0 .56.19 1.04.58 1.44.39.4.86.6 1.41.6h14c.55 0 1.02-.2 1.42-.6.4-.4.59-.88.59-1.44v-8.94c0-.56-.2-1.03-.59-1.43-.39-.39-.87-.59-1.42-.59ZM35 29h-4v-2h4v2ZM31.5 6h-21C8.02 6 6 8.02 6 10.5v21c0 2.48 2.02 4.5 4.5 4.5H22v-4.98c0-1.08.4-2.06 1.16-2.83.77-.78 1.74-1.19 2.83-1.19H27c.02-1.06.42-2.03 1.17-2.79A3.96 3.96 0 0 1 31.05 23h3.89c.32 0 .63.05.94.12L36 23V10.5C36 8.02 33.98 6 31.5 6Zm-9.02 17.99h-4.52v5.03c0 .54-.44.98-.98.98s-.98-.44-.98-.98V13.01c0-.54.44-.98.98-.98h5.5c3.04 0 5.52 2.68 5.52 5.98s-2.48 5.98-5.52 5.98Zm.09-9.98h-4.61v8h4.61c1.89 0 3.43-1.79 3.43-4s-1.54-4-3.43-4Z"/></svg>
