<svg xmlns="http://www.w3.org/2000/svg" viewBox="0 0 48 48"><title>Parkeervergunning</title><path d="M15 24.99V21h2.28c.95 0 1.72.9 1.72 2s-.77 2-1.72 2H15ZM14 31c.55 0 1-.45 1-1v-3h2.3c2.04 0 3.7-1.79 3.7-4s-1.66-4-3.7-4H14c-.55 0-1 .45-1 1v10c0 .55.45 1 1 1Zm28-15.01V32c0 2.21-1.79 4-4 4H9.98C7.78 36 6 34.22 6 32.02V15.99C6 13.78 7.79 12 9.99 12H23v3c0 .55.45 1 1 1s1-.45 1-1v-3h13.01c2.2 0 3.99 1.79 3.99 3.99ZM33 29h-5c-.55 0-1 .45-1 1s.45 1 1 1h5c.55 0 1-.45 1-1s-.45-1-1-1Zm2-5h-7c-.55 0-1 .45-1 1s.45 1 1 1h7c.55 0 1-.45 1-1s-.45-1-1-1Zm0-5h-7c-.55 0-1 .45-1 1s.45 1 1 1h7c.55 0 1-.45 1-1s-.45-1-1-1Z"/></svg>
