<svg xmlns="http://www.w3.org/2000/svg" viewBox="0 0 48 48"><title>Participatie</title><path d="M38.03 18h-4.02l-3.98 3.94V18h-7.01c-1.1 0-1.99-.89-1.99-1.99V7.97C21.03 6.88 21.91 6 23 6h15.04c1.1 0 1.99.89 1.99 1.99v8.02c0 1.1-.89 1.99-1.99 1.99Zm-2.01 12.97c1.92 0 3.48-1.56 3.48-3.48 0-1.52-.98-2.8-2.33-3.27h-.02c-.36-.12-.74-.21-1.14-.21-.37 0-.71.07-1.05.18-.02 0-.04.01-.06.02a3.467 3.467 0 0 0-2.38 3.29c0 1.92 1.56 3.48 3.48 3.48Zm-14-2.97c1.93 0 3.5-1.57 3.5-3.5 0-1.53-.98-2.81-2.34-3.29h-.02c-.36-.12-.74-.21-1.14-.21-.37 0-.72.07-1.05.18-.02 0-.04.01-.06.02-1.39.47-2.39 1.76-2.39 3.3 0 1.93 1.57 3.5 3.5 3.5Zm-10 3.93c1.91 0 3.47-1.55 3.47-3.47 0-1.51-.97-2.78-2.32-3.26h-.02c-.36-.12-.73-.2-1.13-.2-.37 0-.71.07-1.04.18-.02 0-.04.01-.06.02-1.37.46-2.37 1.74-2.37 3.27 0 1.91 1.55 3.47 3.47 3.47Zm6.01 5.04s0-3-2.94-3H9.04c-1.66 0-3 1.34-3 3V42h4v-3.01c0-1.1.89-1.99 1.99-1.99h6.01v-.03Zm2-.23V37h8v-4s0-3-2.94-3h-6.05c-.79 0-1.5.31-2.04.81-.22.46-.48.9-.81 1.28 2.19.42 3.84 2.34 3.84 4.65ZM39.09 33h-6.05c-1.66 0-3 1.34-3 3v1h7.01c1.1 0 1.99.89 1.99 1.99V42h3v-6s0-3-2.94-3Zm-27.06 9h25v-3h-25v3Z"/></svg>