<svg xmlns="http://www.w3.org/2000/svg" viewBox="0 0 48 48"><title>Participatie pitch</title><path d="M25 42H7.01c-.55 0-1-.45-1-1v-4.98C6 33.19 8.19 30.99 11 30.99h10c2.77 0 5.01 2.25 5 5.01v4.98c0 .55-.45 1-1 1ZM42 7.82v13.36c0 1.01-.82 1.82-1.82 1.82H23.95c.04-.32.06-.65.06-.99 0-4.28-2.99-7.85-7-8.76V7.82c0-1.01.82-1.82 1.82-1.82h21.36c1.01 0 1.82.82 1.82 1.82Zm-9.23 6.27-5.03-2.98c-.3-.18-.68.05-.68.41v6.05c.01.37.4.59.7.41l5.02-3.08c.3-.18.3-.64 0-.82Zm-18.53 5.46c2.12.05 4.32.1 5.22-.83.34-.36.52-.89.54-1.6A7.083 7.083 0 0 0 14.93 15c-3.4 0-6.24 2.37-6.92 5.53 1.6-1.08 3.95-1.03 6.24-.98Zm6.68.54c-1.52 1.58-4.17 1.52-6.73 1.46-2.2-.06-4.66-.06-5.59.97-.37.41-.56.86-.42 1.61A7.07 7.07 0 0 0 14.92 29c3.91 0 7.08-3.13 7.08-7 0-.94-.19-1.83-.53-2.65-.15.28-.33.53-.55.75Z"/></svg>
