<svg xmlns="http://www.w3.org/2000/svg" viewBox="0 0 48 48"><title>Participatie plan</title><path d="M24 9.97c-.55 0-1-.45-1-1V7c0-.55.45-1 1-1s1 .45 1 1v1.97c0 .55-.45 1-1 1Zm15.93 11.96c0 .55-.45 1-1 1h-1.97c-.55 0-1-.45-1-1s.45-1 1-1h1.97c.55 0 1 .45 1 1Zm-30.87-1h1.97c.55 0 1 .45 1 1s-.45 1-1 1H9.06c-.55 0-1-.45-1-1s.45-1 1-1Zm6.44-7.48a.996.996 0 0 1-1.41 0l-1.4-1.4a.996.996 0 1 1 1.41-1.41l1.4 1.4c.39.39.39 1.02 0 1.41Zm19.73-2.89c.39.39.39 1.02 0 1.41l-1.4 1.4a.996.996 0 1 1-1.41-1.41l1.4-1.4a.996.996 0 0 1 1.41 0Zm-11.21 2.42c-4.94 0-8.96 4.02-8.96 8.95 0 2.09.73 4.13 2.07 5.74.21.25.41.48.6.69.81.9 1.28 1.43 1.28 2.6v1.02h10v-.96c0-1.2.53-1.8 1.32-2.7.18-.21.37-.42.57-.66a8.933 8.933 0 0 0 2.07-5.72c0-4.94-4.01-8.97-8.95-8.97Zm-3.85 21.01h-1.16v2.94c0 1.4.99 2.69 2.3 3l.55.13.17.53a2.005 2.005 0 0 0 3.8.07l.19-.54.56-.11c1.39-.26 2.43-1.56 2.43-3.02v-3h-8.84Z"/></svg>
