<svg xmlns="http://www.w3.org/2000/svg" viewBox="0 0 48 48"><title>Participatie uitvoering</title><path d="M34.51 32.17a1 1 0 0 1-.17 1.18l-5.22 5.22c-.48.48-1.29.35-1.6-.25l-1.77-3.45 6.64-6.64 2.12 3.94Zm-16.59.98c-.59 0-1.02.48-1.06 1.06-.01.19 0 .19-.01.19.01.82-.29 1.58-.86 2.14-.68.68-3.6 1.5-6.6 2.07.57-3 1.39-5.92 2.07-6.6.56-.55 1.3-.86 2.1-.86h.04v-.02c.59 0 1.05-.48 1.05-1.06s-.48-1.06-1.06-1.06h-.03c-1.43 0-2.7.57-3.61 1.49-1.53 1.53-2.52 6.76-2.92 9.29-.11.7.49 1.3 1.19 1.19 2.53-.4 7.77-1.4 9.29-2.92.93-.93 1.48-2.27 1.48-3.69v-.15c0-.59-.48-1.06-1.06-1.06ZM9.56 20.37l3.33 1.73.12.05 6.65-6.65-3.98-2.09c-.39-.2-.86-.13-1.17.18l-5.19 5.19a.995.995 0 0 0 .25 1.59Zm25.75 2.11L24.28 33.53l-9.93-9.93 11.04-10.99c3.43-3.43 7.71-4.59 11.14-4.59 1.31 0 2.32.27 2.89.47.6 1.65 2.37 7.52-4.11 14ZM32.8 15.1c-.56-.56-1.29-.84-2.03-.84s-1.47.28-2.03.84a2.86 2.86 0 0 0 0 4.05c.56.56 1.29.84 2.03.84s1.47-.28 2.03-.84a2.86 2.86 0 0 0 0-4.05Z"/></svg>
