<svg xmlns="http://www.w3.org/2000/svg" viewBox="0 0 48 48"><title>Participatie checklist</title><path d="M9 15V7c0-.55.45-1 1-1h8c.55 0 1 .45 1 1v8c0 .55-.45 1-1 1h-8c-.55 0-1-.45-1-1Zm11.77 14.82 15.11-15.11-1.41-1.41a.996.996 0 0 0-1.41 0l-14.4 14.4 2.12 2.12ZM10 29l5.35-.05.6-1.38L19 24.52v-4.51c0-.55-.45-1-1-1h-8c-.55 0-1 .45-1 1v8c0 .55.45 1 1 1Zm27.29-12.87L22.18 31.24l2.12 2.12 14.4-14.4a.996.996 0 0 0 0-1.41l-1.41-1.41ZM16.3 33.84l1.87 1.87 4.6-1.06-5.4-5.4-1.06 4.6Zm-1.9 4.76c-.26 0-.52-.1-.71-.29-.24-.24-.34-.6-.27-.93l1.22-5.31L9.99 32c-.55 0-1 .45-1 1v8c0 .55.45 1 1 1h8c.55 0 1-.45 1-1v-3.44l-4.37 1.01c-.07.02-.15.03-.22.03Z"/></svg>
