<svg xmlns="http://www.w3.org/2000/svg" viewBox="0 0 48 48"><title>Paspoort</title><path d="M21.88 17.39c-1.08 1.45-1.71 3.02-1.9 4.61h-1.89a6.032 6.032 0 0 1 3.79-4.61ZM18.09 24a6.032 6.032 0 0 0 3.79 4.61c-1.08-1.45-1.71-3.02-1.9-4.61h-1.89ZM24 28.05c1.11-1.27 1.77-2.65 1.99-4.05h-3.97c.21 1.4.88 2.78 1.99 4.05ZM36 13v26.02c0 1.65-1.34 2.98-2.98 2.98H15.04c-1.65 0-3-1.35-3-3L12 9.01A3.01 3.01 0 0 1 15 6h15.06c1.94 0 2.74 1.02 2.9 1.97H15.05v.01h-.03C14.46 7.98 14 8.44 14 9s.46 1.02 1.02 1.02h.03l17.91-.06h.01c.8 0 1.56.31 2.13.88.57.57.89 1.33.89 2.14v.03H36Zm-6 23c0-.55-.45-1-1-1H19c-.55 0-1 .45-1 1s.45 1 1 1h10c.55 0 1-.45 1-1Zm2-13c0-4.41-3.59-8-8-8s-8 3.59-8 8 3.59 8 8 8 8-3.59 8-8Zm-9.99-1h3.97c-.21-1.4-.88-2.78-1.99-4.05C22.88 19.22 22.22 20.6 22 22Zm4.1-4.61c1.08 1.45 1.71 3.02 1.9 4.61h1.89a6.032 6.032 0 0 0-3.79-4.61Zm0 11.21a6.016 6.016 0 0 0 3.79-4.61h-1.89c-.19 1.59-.82 3.15-1.9 4.61Z"/></svg>
