<svg xmlns="http://www.w3.org/2000/svg" viewBox="0 0 48 48"><title>Paspoort ID-kaart gecombineerd internationaal</title><path d="M39.47 25h-7.48v2c0 .55-.45 1-1 1s-1-.45-1-1v-2h-7.96c-1.12 0-2.03.91-2.03 2.03v12.42c0 1.4 1.14 2.54 2.54 2.54h16.93c1.4 0 2.53-1.13 2.53-2.53V27.52a2.54 2.54 0 0 0-2.53-2.53Zm-11.96 5.07c.96 0 1.73.78 1.73 1.75s-.78 1.75-1.73 1.75-1.73-.78-1.73-1.75.78-1.75 1.73-1.75ZM31 36.14c-.07.48-.5.86-1 .86h-5c-.5 0-.93-.52-1-1 .17-1.08 2.38-1.62 3.5-1.62s3.33.55 3.5 1.62v.14Zm6-.14c0 .55-.45 1-1 1h-2c-.55 0-1-.45-1-1s.45-1 1-1h2c.55 0 1 .45 1 1Zm1-4c0 .55-.45 1-1 1h-3c-.55 0-1-.45-1-1s.45-1 1-1h3c.55 0 1 .45 1 1Zm-21.99-9h3.97v.55A3.988 3.988 0 0 0 17.99 27v.05C16.88 25.78 16.22 24.4 16 23ZM18 16.95c1.11 1.27 1.77 2.65 1.99 4.05h-3.97c.21-1.4.88-2.78 1.99-4.05ZM23.91 21h-1.89c-.19-1.59-.82-3.15-1.9-4.61 1.96.74 3.43 2.49 3.79 4.61Zm-9.93 2c.19 1.59.82 3.15 1.9 4.61A6.016 6.016 0 0 1 12.09 23h1.89Zm1.9-6.61c-1.08 1.45-1.71 3.02-1.9 4.61h-1.89a6.032 6.032 0 0 1 3.79-4.61ZM18 30v2-.03.03h-5c-.55 0-1 .44-1 1 0 .55.45 1 1 1h5v5H8.05c-1.13 0-2.04-.91-2.04-2.04V12.29h.02V8.94c0-1.63 1.32-2.95 2.95-2.95H25c1.3 0 2.39.84 2.8 2H9c-.56 0-1 .44-1 1s.44 1 1 1h18.7c.61 0 1.19.24 1.62.67.44.43.68 1.01.68 1.63V23h-4.07c.04-.33.07-.66.07-1 0-4.41-3.59-8-8-8s-8 3.59-8 8 3.59 8 8 8Z"/></svg>
