<svg xmlns="http://www.w3.org/2000/svg" viewBox="0 0 48 48"><title>Politiek</title><path d="M25 15c0 .55-.45 1-1 1s-1-.45-1-1 .45-1 1-1 1 .45 1 1Zm14 21h-1V23h-4v13h-4V23h-4v13h-4V23h-4v13h-4V23h-4v13H9c-.55 0-1 .45-1 1v2c0 .55.45 1 1 1h30c.55 0 1-.45 1-1v-2c0-.55-.45-1-1-1Zm2-19v3c0 .55-.45 1-1 1H8c-.55 0-1-.45-1-1v-3c0-.38.21-.72.55-.89l15.97-8c.28-.14.61-.14.89 0l16.03 8c.34.17.55.52.55.9Zm-14.06-2.59c-.22-1.17-1.18-2.13-2.36-2.36a3.006 3.006 0 0 0-3.53 3.53c.22 1.17 1.18 2.13 2.36 2.36 2.11.4 3.93-1.42 3.53-3.53Z"/></svg>
