<svg xmlns="http://www.w3.org/2000/svg" viewBox="0 0 48 48"><title>Presentatie</title><path d="M35 32v-7.89l-4.1-4.51c.06-.19.1-.39.1-.6 0-1.1-.9-2-2-2s-2 .9-2 2 .9 2 2 2c.15 0 .29-.02.42-.05L33 24.88v7.11H17v3h20v-3h-2Zm-3 10H22v-4c0-.55.45-1 1-1h9v5Zm-16-5h3.95v5H13c-.55 0-1-.45-1-1v-2h-2c-.55 0-1-.45-1-1V27c0-2.76 2.24-5 5-5h10c2.76 0 5 2.24 5 5v3H16c-.55 0-1 .45-1 1v5c0 .55.45 1 1 1Zm-3.69-26.29A7.065 7.065 0 0 1 19 5.93c2.01 0 3.82.84 5.11 2.19-.11.37-.26.69-.48.94-1.05 1.15-3.49 1.1-5.86 1.05-1.97-.04-3.98-.07-5.46.6Zm13.08-.72c.43.91.68 1.93.68 3.01A7.07 7.07 0 0 1 19 20.07c-3.24 0-5.97-2.19-6.8-5.16-.1-.87 0-1.52.32-1.92.77-.96 3.03-.92 5.21-.88 2.81.05 5.71.11 7.37-1.7.12-.13.19-.28.29-.42Z"/></svg>
