<svg xmlns="http://www.w3.org/2000/svg" viewBox="0 0 48 48"><title>Prijskaartje</title><path d="M37.64 9.54c-1.31 2.5-7.36 4.98-13.77 6.11a1.99 1.99 0 0 1-1.88 1.34c-1.23 0-2.21-1.12-1.96-2.4.15-.76.76-1.38 1.51-1.55.78-.17 1.49.12 1.94.64 7.03-1.22 11.69-3.77 12.38-5.07.05-.1.13-.29.08-.39-.02-.04-.13-.14-.4-.21-1.03-.27-3.57.15-5.97 1.08a.99.99 0 0 1-1.04-.19c-.54-.5-.37-1.4.31-1.66 2.73-1.06 5.66-1.57 7.2-1.17 1.02.27 1.49.83 1.7 1.26.23.47.4 1.23-.11 2.2ZM34 18v22.98c0 .55-.45 1-1 1H11c-.55 0-1-.45-1-1v-24.5c0-.42.18-.83.49-1.11l9.49-8.59a3.001 3.001 0 0 1 4.02 0l3.77 3.86c-1.07.32-2.46.66-3.75.91-.61-.36-1.31-.56-2.03-.56-.29 0-.58.03-.87.09-1.53.33-2.75 1.59-3.05 3.12-.23 1.19.07 2.4.84 3.32.76.92 1.89 1.45 3.08 1.45s2.4-.59 3.14-1.54c2.63-.51 5.5-1.31 8-2.37l.59.55c.17.19.26.47.26.72v1.65Zm-13.9 8c.69-1.21 1.78-2 3.02-2 .79 0 1.55.32 2.2.93.4.38 1.04.36 1.41-.04.38-.4.36-1.04-.04-1.41-1.02-.96-2.26-1.47-3.57-1.47-2.31 0-4.3 1.64-5.23 4H17c-.55 0-1 .45-1 1s.45 1 1 1h.38c-.04.33-.07.66-.07 1s.03.67.07 1H17c-.55 0-1 .45-1 1s.45 1 1 1h.89c.93 2.36 2.93 4 5.23 4 1.31 0 2.54-.51 3.56-1.47a.996.996 0 1 0-1.37-1.45c-.65.61-1.41.93-2.2.93-1.24 0-2.33-.79-3.02-2h2.9c.55 0 1-.45 1-1s-.45-1-1-1h-3.6c-.05-.32-.08-.66-.08-1s.03-.68.08-1h3.6c.55 0 1-.45 1-1s-.45-1-1-1h-2.9Z"/></svg>
