<svg xmlns="http://www.w3.org/2000/svg" viewBox="0 0 48 48"><title>Reclame</title><path d="M14.64 8.99c-.47 0-.88.32-.99.77L7.02 37.78c-.15.62.33 1.22.97 1.22.47 0 .89-.32.99-.77l1.48-6.24h16.21l-1.37 5.79c-.15.62.33 1.22.97 1.22.47 0 .89-.32.99-.77l6.64-28.02c.15-.63-.33-1.23-.99-1.23H14.64Zm8.85 12.23c-.11.45-.52.77-.99.77h-6.26c-.65 0-1.14-.6-.99-1.23.11-.45.52-.77.99-.77h6.26c.65 0 1.14.6.99 1.23Zm-7.04-5.46c.11-.45.52-.77.99-.77h9.87c.65 0 1.14.6.99 1.23-.11.45-.52.77-.99.77h-9.87c-.65 0-1.14-.6-.99-1.23ZM40.97 37.8c.14.61-.31 1.2-.94 1.22h-.01c-.49.02-.92-.3-1.03-.77l-1.48-6.27H30.9l.48-2h5.66l-2.82-11.93 1.05-4.43 5.71 24.17Z"/></svg>
