<svg xmlns="http://www.w3.org/2000/svg" viewBox="0 0 48 48"><title>Reclamebelasting</title><path d="M41.83 19.5c.31.46.19 1.08-.27 1.39A6.328 6.328 0 0 1 38 22c-1.81 0-3.6-.8-4.96-2.35a8.133 8.133 0 0 1-1.53-2.66h-1.52c-.55 0-1-.45-1-1s.45-1 1-1h1.07a9.55 9.55 0 0 1 0-2h-1.08c-.55 0-1-.45-1-1s.45-1 1-1h1.52c.32-.92.8-1.79 1.43-2.54 2.26-2.69 5.8-3.24 8.61-1.35.46.31.58.93.27 1.39-.31.46-.93.58-1.39.27-1.93-1.3-4.38-.9-5.96.98-.32.38-.57.81-.79 1.26h4.31c.55 0 1 .45 1 1s-.45 1-1 1h-4.93c-.09.66-.09 1.34 0 2h4.92c.55 0 1 .45 1 1s-.45 1-1 1h-4.3c.23.48.5.94.86 1.34 1.6 1.83 3.96 2.19 5.89.89a.999.999 0 0 1 1.39.27Zm-13.45-.23L23.24 41.3c-.11.45-.51.77-.98.77-.64 0-1.1-.6-.96-1.22l1.35-5.79H9.67L8.21 41.3c-.11.45-.51.77-.98.77-.64 0-1.1-.6-.96-1.22l6.53-28.02c.11-.45.51-.77.97-.77h12.37c.46 0 .84.33.97.78.12.45.35.85.65 1.19-.48.53-.77 1.23-.77 2 0 .91.41 1.72 1.05 2.27.28.24.41.62.33.98Zm-9.43 3.79h-4.02c-.46 0-.87.32-.97.77-.15.63.33 1.23.97 1.23h4.02c.46 0 .87-.32.97-.77a.999.999 0 0 0-.97-1.23Zm4.04-5H16.1c-.46 0-.87.32-.97.77-.15.63.33 1.23.97 1.23h6.89c.46 0 .87-.32.97-.77a.999.999 0 0 0-.97-1.23Zm10.48 4.4a1 1 0 0 0-1.2-.75h-.01c-.54.13-.87.66-.75 1.2l2.33 10.1h-5.29c-.46 0-.87.32-.97.77-.15.63.33 1.23.97 1.23h5.75l1.46 6.27c.11.47.53.79 1.01.77h.01a1 1 0 0 0 .93-1.22l-4.25-18.36Z"/></svg>
