<svg xmlns="http://www.w3.org/2000/svg" viewBox="0 0 48 48"><title>Recreatie</title><path d="M42 37.05c0-.55-.45-1-1-1h-2.48l-1.09-3H39c.55 0 1-.45 1-1s-.45-1-1-1H27c-.55 0-1 .45-1 1s.45 1 1 1h1.57l-1.09 3H25c-.55 0-1 .45-1 1s.45 1 1 1h1.75l-.97 2.66a1 1 0 1 0 1.88.68l1.22-3.34h8.24l1.22 3.34a1 1 0 1 0 1.88-.68l-.97-2.66H42v-1Zm-12.39-1 1.09-3h4.6l1.09 3h-6.78Zm-3.69-14.19c1.54-2.3.83-5.36-1.58-6.83 1.09-1.84.82-4.14-.65-5.72-1.02-1.09-2.44-1.63-3.87-1.63-.79-1.01-2.04-1.67-3.46-1.67s-2.66.66-3.45 1.66c-.87 0-1.75.2-2.55.62-2.5 1.34-3.38 4.36-1.98 6.74-.45.27-.85.61-1.19 1-1.83 2.1-1.53 5.22.67 6.97-.07.28-.11.57-.13.86-.17 2.73 2.01 5.07 4.87 5.23H14.99V41c0 .55.45 1 1 1s1-.45 1-1V29.09h2.83c.4 0 .81-.05 1.2-.13 2.79-.63 4.51-3.3 3.84-5.96.41-.33.76-.71 1.05-1.14Zm-6.5-2.36L17 21.94v5.09c0 .55-.45 1-1 1s-1-.45-1-1v-2.37l-2.42-2.44a.996.996 0 0 1 0-1.41.996.996 0 0 1 1.41 0l1 1v-6.66c0-.55.45-1 1-1s1 .45 1 1v3.94l1-1a.987.987 0 0 1 1.41 0c.39.39.39 1.02 0 1.41Z"/></svg>
