<svg xmlns="http://www.w3.org/2000/svg" viewBox="0 0 48 48"><title>Regeling laag inkomen</title><path d="M7 31h3.99c.55 0 1 .45 1 1v7.95c0 .55-.45 1-1 1H7c-.55 0-1-.45-1-1V32c0-.55.45-1 1-1Zm29.4 6.3-10.38.66-2.87-.91a.928.928 0 0 1-.6-1.16c.15-.48.67-.75 1.15-.6l2.79.88 3.54-.3c-.01-.1-.32-2.6-3.48-3.49l-5.84-1.76c-.28-.09-.58-.11-.88-.06l-5.01.76c-.49.07-.85.49-.85.99v7.58l11.81 2.99c.15.04.3.04.45 0l13.5-2.83c.78-.16 1.09-1.16.5-1.69s-1.75-1.08-3.84-1.08ZM6 15c0 .55.45 1 1 1h.89c.93 2.36 2.93 4 5.23 4 1.31 0 2.54-.51 3.56-1.47a.996.996 0 1 0-1.37-1.45c-.65.61-1.41.93-2.2.93-1.24 0-2.33-.79-3.02-2h2.9c.55 0 1-.45 1-1s-.45-1-1-1h-3.6c-.05-.32-.08-.66-.08-1s.03-.68.08-1h3.6c.55 0 1-.45 1-1s-.45-1-1-1h-2.9c.69-1.21 1.78-2 3.02-2 .79 0 1.55.32 2.2.93.4.38 1.04.36 1.41-.04.38-.4.36-1.04-.04-1.41-1.02-.96-2.26-1.47-3.57-1.47-2.31 0-4.3 1.64-5.23 4h-.89c-.55 0-1 .45-1 1s.45 1 1 1h.38c-.04.33-.07.66-.07 1s.03.67.07 1h-.38c-.55 0-1 .45-1 1Zm30.5-2c1.93 0 3.5-1.57 3.5-3.5S38.43 6 36.5 6 33 7.57 33 9.5s1.57 3.5 3.5 3.5Zm-11 0c1.93 0 3.5-1.57 3.5-3.5S27.43 6 25.5 6 22 7.57 22 9.5s1.57 3.5 3.5 3.5ZM42 18v8c0 .55-.45 1-1 1h-2v8.6c-.77-.19-1.62-.3-2.59-.3-.04 0-.06 0-2.41.15V33h1c.55 0 1-.45 1-1v-3.94c0-1.14-.92-2.06-2.06-2.06h-5.91c-1.12 0-2.02.91-2.02 2.02v2.11l-3-.91V27h-1.97c-.55 0-1-.45-1-1l-.03-8c0-1.66 1.34-3.01 3-3.01h5.06c1.66 0 3 1.35 3 3.01 0-1.66 1.34-3.01 3-3.01H39c1.66 0 3 1.34 3 3Zm-8 4c0-1.66-1.34-3-3-3s-3 1.34-3 3 1.34 3 3 3 3-1.34 3-3Z"/></svg>
