<svg xmlns="http://www.w3.org/2000/svg" viewBox="0 0 48 48"><title>Rijbewijs</title><path d="M42 15.99V32c0 2.21-1.79 4-4 4H9.98C7.78 36 6 34.22 6 32.02V15.99C6 13.78 7.79 12 9.99 12H23v3c0 .55.45 1 1 1s1-.45 1-1v-3h13.01c2.2 0 3.99 1.79 3.99 3.99ZM34 30c0-.55-.45-1-1-1h-5c-.55 0-1 .45-1 1s.45 1 1 1h5c.55 0 1-.45 1-1Zm2-5c0-.55-.45-1-1-1h-7c-.55 0-1 .45-1 1s.45 1 1 1h7c.55 0 1-.45 1-1Zm-1-6h-7c-.55 0-1 .45-1 1s.45 1 1 1h7c.55 0 1-.45 1-1s-.45-1-1-1Zm-12.07 5.52-1.3-3.86a1.72 1.72 0 0 0-1.64-1.19h-5.95c-.74 0-1.39.47-1.64 1.18l-1.32 3.85c-.05.15-.08.32-.08.48v5c0 .54.44.98.98.98h.03c.55 0 .99-.44.99-.98V29l8-.04v1.05c0 .54.44.98.98.98h.03c.54 0 .98-.44.98-.98v-5.02c0-.16-.03-.32-.08-.48Zm-9.05-3.38c.03-.09.11-.2.24-.2h5.79c.12 0 .2.09.23.19l.95 2.81h-8.16l.95-2.8ZM13.75 27c-.41 0-.75-.33-.75-.74s.33-.74.75-.74a.74.74 0 1 1 0 1.48Zm7.02 0c-.41 0-.75-.33-.75-.74s.33-.74.75-.74a.74.74 0 1 1 0 1.48Z"/></svg>
