<svg xmlns="http://www.w3.org/2000/svg" viewBox="0 0 48 48"><title>Riool</title><path d="M34.85 33.07c-.55 0-1-.45-1-1s.45-1 1-1h7.04v-7.01c0-.55-.45-1-1-1H26.93v-8.43l.3.34c.4.43 1.09.4 1.46-.06.33-.41.28-1-.11-1.34l-1.66-1.45V9.03c0-.55-.45-1-1-1s-1 .45-1 1v1.46L20.13 6.4c-.72-.54-1.72-.53-2.43.03l-8.39 7.14c-.44.35-.51.99-.15 1.43l.02.02c.36.43 1 .48 1.42.12l.35-.33v8.24H6.89c-.56 0-1.02.46-1.02 1.02v16.91c0 .56.46 1.02 1.02 1.02h33.96c.56 0 1.02-.46 1.02-1.02v-7.91h-7.04ZM16.96 18.05v-1c0-.55.45-1 1-1h2c.55 0 1 .45 1 1v1c0 .55-.45 1-1 1h-2c-.55 0-1-.45-1-1Zm9.9 15.02h-1.87c-.61 0-1.06.5-1.07 1.11-.03 1.7-1.5 3.05-3.24 2.88-1.61-.16-2.75-1.66-2.75-3.27v-7.72c0-.55.45-1 1-1s1 .45 1 1v6.99c0 .09.03.16.05.24-.04.25-.08.5-.08.76 0 .55.45 1 1 1s1-.45 1-1c0-1.66 1.34-3 2.99-3h1.97c.55 0 1 .45 1 1s-.45 1-1 1Zm5 0c0 .55-.45 1-1 1s-1-.45-1-1v-2.01c0-.55.45-1 1-1s1 .45 1 1v2.01Z"/></svg>