<svg xmlns="http://www.w3.org/2000/svg" viewBox="0 0 48 48"><title>Rioolwerkzaamheden</title><path d="M33.87 31H42v-6.98c0-.56-.46-1.02-1.02-1.02H23.93v-8.37l.3.34c.4.43 1.09.4 1.46-.06.33-.41.28-1-.11-1.34l-1.66-1.45V9.03c0-.55-.45-1-1-1s-1 .45-1 1v1.46L17.13 6.4c-.72-.54-1.72-.53-2.43.03l-8.39 7.14c-.44.35-.51.99-.15 1.43l.02.02c.36.43 1 .48 1.42.12l.35-.33V23H7c-.43 0-.79.26-.94.63-.06.13-.1.27-.1.43 0 .04.02.08.02.12v16.81c0 .56.46 1.02 1.02 1.02h33.96c.56 0 1.02-.46 1.02-1.02v-7.98h-8.13c-.55 0-1-.45-1-1s.45-1 1-1ZM13.96 18.05v-1c0-.55.45-1 1-1h2c.55 0 1 .45 1 1v1c0 .55-.45 1-1 1h-2c-.55 0-1-.45-1-1ZM25.95 33h-3.88c-.61 0-1.06.5-1.07 1.11a2.942 2.942 0 0 1-3.25 2.87c-1.61-.16-2.75-1.65-2.75-3.27v-7.7c0-.49.36-.87.82-.96h.36c.46.09.82.47.82.96v6.98c0 .08.03.16.05.24-.04.25-.08.5-.08.76 0 .55.45 1 1 1s1-.45 1-1c0-1.65 1.35-3 3-3h3.98c.55 0 1 .45 1 1s-.45 1-1 1Zm5.05.07c0 .55-.45 1-1 1s-1-.45-1-1v-2.02c0-.55.45-1 1-1s1 .45 1 1v2.02ZM34.9 20c3.87 0 7-3.13 7-7s-3.13-7-7-7-7 3.13-7 7 3.13 7 7 7Zm.79-3.28c-.19.19-.43.28-.72.28s-.54-.09-.72-.28-.28-.43-.28-.72.09-.53.28-.72.43-.28.72-.28.54.09.72.28.28.43.28.72-.09.53-.28.72ZM33.9 10c0-.55.45-1 1-1s1 .45 1 1v3c0 .55-.45 1-1 1s-1-.45-1-1v-3Z"/></svg>