<svg xmlns="http://www.w3.org/2000/svg" viewBox="0 0 48 48"><title>Rioolwerkzaamheden</title><path d="M41.96 27c0-.55-.45-1-1-1H22v-8.27l.35.29c.41.44 1.09.41 1.46-.06.33-.41.28-1.02-.11-1.37l-1.53-1.27a.527.527 0 0 1-.18-.38V12c0-.55-.44-1-.97-1h-.05c-.54 0-.97.45-.97 1v1.81l-4.45-3.24a.977.977 0 0 0-1.21.02L6.41 16.9c-.43.34-.49.97-.14 1.39l.05.06c.35.42.97.47 1.38.11l.33-.34V26h-1c-.55 0-1 .45-1 1s.45 1 1 1h33.93c.55 0 1-.45 1-1Zm-24.95-6c0 .55-.45 1-1 1h-2c-.55 0-1-.45-1-1v-1c0-.55.45-1 1-1h2c.55 0 1 .45 1 1v1Zm9.24-2.52a5.16 5.16 0 0 1 1.3-5.08 5.128 5.128 0 0 1 5.51-1.15c.2.08.42.04.57-.12l5.27-5.55c.68-.74 1.83-.77 2.55-.07.66.66.7 1.71.09 2.42l-5.38 5.79c-.13.14-.15.35-.08.53a5.137 5.137 0 0 1-6.2 6.86.511.511 0 0 1-.21-.85l2.29-2.29c.1-.1.15-.22.15-.36v-1.85c0-.28-.23-.51-.51-.51h-1.85c-.13 0-.26.05-.36.15l-2.29 2.29c-.27.27-.74.16-.85-.21ZM42 36.99c0 .55-.45 1-1 1h-7.04c-.55 0-1-.45-1-1s.45-1 1-1H41c.55 0 1 .45 1 1Zm-15.03 0c0 .55-.45 1-1 1h-4.98c-.57 0-1 .47-1 1.04 0 1.75-1.51 3.16-3.3 2.95-1.57-.18-2.69-1.62-2.69-3.19v-7.2c0-1.17.45-1.61 1-1.61s1 .45 1 1L15.97 39c0 .55.45 1 1 1s1-.45 1-1c0-1.66 1.34-3 2.99-3h5.01c.55 0 1 .45 1 1Zm3.99-1.01v2.01c0 .55-.45 1-1 1s-1-.45-1-1v-2.01c0-.55.45-1 1-1s1 .45 1 1Z"/></svg>
