<svg xmlns="http://www.w3.org/2000/svg" viewBox="0 0 48 48"><title>Roerende zaakbelasting</title><path d="M40.44 19.24c-1.92 1.29-4.29.94-5.89-.89-.35-.4-.62-.86-.86-1.34h4.3c.55 0 1-.45 1-1s-.45-1-1-1h-4.92c-.09-.66-.1-1.34 0-2H38c.55 0 1-.45 1-1s-.45-1-1-1h-4.31c.22-.44.47-.87.79-1.26 1.58-1.88 4.03-2.28 5.96-.98.46.31 1.08.19 1.39-.27a.999.999 0 0 0-.27-1.39c-2.81-1.89-6.35-1.34-8.61 1.35-.63.75-1.11 1.62-1.43 2.54H30c-.55 0-1 .45-1 1s.45 1 1 1h1.08a9.55 9.55 0 0 0 0 2h-1.07c-.55 0-1 .45-1 1s.45 1 1 1h1.52c.34.97.85 1.88 1.53 2.66 1.35 1.54 3.14 2.35 4.96 2.35 1.22 0 2.45-.36 3.56-1.11.46-.31.58-.93.27-1.39a.999.999 0 0 0-1.39-.27ZM15 22h7.64l4.2-6.46c.2-.31.22-.7.04-1.02S26.37 14 26 14h-4.56l-1.39-3.38a.987.987 0 0 0-.92-.62H11c-.55 0-1 .45-1 1s.45 1 1 1h.92l-1.41 5H7c-.55 0-1 .45-1 1v5c0 .55.45 1 1 1h3.53c1.1-1.22 2.69-2 4.47-2Zm-1-10h4.45l.99 2.4s-.1.03-.15.05c-.09.04-.18.1-.26.17l-2.37 2.16c-.35.14-.71.21-1.08.21h-2.99l1.42-5Zm9 28.06c0 1.1-.89 1.99-1.99 1.99s-1.99-.89-1.99-1.99.89-1.99 1.99-1.99 1.99.89 1.99 1.99Zm16-2.08h-4V28a4.01 4.01 0 0 0-4.01-4.01H15c-2.21 0-3.99 1.79-3.99 3.99v10.99c0 .55.45 1 1 1h5.01c0-2.2 1.8-3.98 3.99-3.98S25 37.78 25 39.97h14c.55 0 1-.45 1-1s-.45-1-1-1ZM30 33c0 .55-.45 1-1 1h-4c-.55 0-1-.45-1-1v-3c0-.55.45-1 1-1h4c.55 0 1 .45 1 1v3Z"/></svg>
