<svg xmlns="http://www.w3.org/2000/svg" viewBox="0 0 48 48"><title>Schoolkostenregeling</title><path d="M14 22h11c.55 0 1-.45 1-1v-7c0-.55-.45-1-1-1H14c-.55 0-1 .45-1 1v7c0 .55.45 1 1 1Zm1-7h9v5h-9v-5Zm27 19.01v3H25v-3h17Zm-17 8v-3h17v3H25Zm-2-.18-4-2.5v-2.64l4-2.5v7.64Zm-8.53-2.97c-.29-.18-.47-.5-.47-.85s.18-.67.47-.85l8-5c.16-.1.34-.15.53-.15h10V7.51C33 6.68 32.33 6 31.49 6H7.48C6.66 6 6 6.66 6 7.48v33.03c0 .83.67 1.49 1.49 1.49H12l7.51.01-5.04-3.15ZM11 21v-7c0-1.66 1.34-3 3-3h11c1.66 0 3 1.34 3 3v7c0 1.66-1.34 3-3 3H14c-1.66 0-3-1.34-3-3Z"/></svg>
