<svg xmlns="http://www.w3.org/2000/svg" viewBox="0 0 48 48"><title>Schoolkostenregeling</title><path d="M42 35.01v2H25v-3h16c.55 0 1 .45 1 1Zm-23 4.32 4 2.5v-7.64l-4 2.5v2.64Zm21.46-20.09c-1.92 1.29-4.29.94-5.89-.89-.35-.4-.62-.86-.86-1.34h4.3c.55 0 1-.45 1-1s-.45-1-1-1h-4.92c-.09-.66-.1-1.34 0-2h4.93c.55 0 1-.45 1-1s-.45-1-1-1h-4.31c.22-.44.47-.87.79-1.26 1.58-1.88 4.03-2.28 5.96-.98.46.31 1.08.19 1.39-.27a.999.999 0 0 0-.27-1.39c-2.81-1.89-6.35-1.34-8.61 1.35-.63.75-1.11 1.62-1.43 2.54h-1.52c-.55 0-1 .45-1 1s.45 1 1 1h1.08a9.55 9.55 0 0 0 0 2h-1.07c-.55 0-1 .45-1 1s.45 1 1 1h1.52c.34.97.85 1.88 1.53 2.66 1.35 1.54 3.14 2.35 4.96 2.35 1.22 0 2.45-.36 3.56-1.11.46-.31.58-.93.27-1.39a.999.999 0 0 0-1.39-.27ZM25 42.01h16c.55 0 1-.45 1-1v-2H25v3Zm7-10h-9c-.19 0-.37.05-.53.15l-8 5c-.29.18-.47.5-.47.85s.18.67.47.85l5.04 3.15H7.49C6.66 42 6 41.33 6 40.5V7.48C6 6.66 6.66 6 7.48 6h23.01c.57 0 1.05.32 1.31.78-.12.13-.25.25-.37.39-.47.56-.87 1.17-1.21 1.83h-.21c-1.65 0-3 1.35-3 3 0 .77.29 1.47.77 2-.48.53-.77 1.23-.77 2 0 1.65 1.35 3 3 3h.21c.37.72.82 1.38 1.34 1.98.14.16.29.3.43.45v10.59ZM25 14c0-.55-.45-1-1-1H14c-.55 0-1 .45-1 1v6c0 .55.45 1 1 1h10c.55 0 1-.45 1-1v-6Z"/></svg>
