<svg xmlns="http://www.w3.org/2000/svg" viewBox="0 0 48 48"><title>Sociaal zorg welzijn</title><path d="M34 15H14c-1.63 0-2.95 1.35-2.95 3.01l.03 10c0 .55.45 1 1 1h1.97v12c0 .55.45 1 1 1H22c.55 0 1-.45 1-1v-22c0-.55.45-1 1-1s1 .45 1 1v22c0 .55.45 1 1 1h7c.55 0 1-.45 1-1V28.99h1.99A.99.99 0 0 0 37 28v-9.99c0-1.66-1.34-3-3-3Zm-.35 4.98-.16.17-.76.8c-.39.41-1.06.41-1.45 0l-.76-.8-.16-.17c-.33-.35-.46-.88-.24-1.31.35-.71 1.2-.81 1.69-.3l.2.21.2-.21c.49-.51 1.34-.42 1.69.3.21.43.09.96-.24 1.31ZM26.5 9.5C26.5 7.57 28.07 6 30 6s3.5 1.57 3.5 3.5S31.93 13 30 13s-3.5-1.57-3.5-3.5Zm-12-.04c0-1.93 1.57-3.5 3.5-3.5s3.5 1.57 3.5 3.5-1.57 3.5-3.5 3.5-3.5-1.57-3.5-3.5Z"/></svg>
