<svg xmlns="http://www.w3.org/2000/svg" viewBox="0 0 48 48"><title>Speeltuin</title><path d="M38.9 40c-.74 0-1.45-.27-1.94-.71L21 22.88v-10.4c0-.3-.14-.59-.37-.78l-6.48-5.2c-.36-.29-.88-.29-1.25 0l-6.52 5.2a1 1 0 0 0-.38.78V41c0 .55.45 1 1 1s1-.45 1-1V26h11v15c0 .55.45 1 1 1s1-.45 1-1V26.16l13.88 14.29c1.1 1 2.53 1.55 4.02 1.55H41c.55 0 1-.45 1-1s-.45-1-1-1h-2.1ZM13.5 19c-1.66 0-3-1.34-3-3s1.34-3 3-3 3 1.34 3 3-1.34 3-3 3ZM27 16c0-1.65 1.35-3 3-3s3 1.35 3 3-1.35 3-3 3-3-1.35-3-3Zm10-1v.45c0 3.31-1.21 5.95-4 6.55l-.02 9-5.66-5.7c-.19-.19-.29-.45-.29-.72v-1.2a2.98 2.98 0 0 1 2.85-3h.07c3.19 0 5.02-1.78 5.02-4.89v-.5h.04c0-.55.45-1 1-1s1 .45 1 1Z"/></svg>
