<svg xmlns="http://www.w3.org/2000/svg" viewBox="0 0 48 48"><title>Sport</title><path d="M23 9.5C23 7.57 24.57 6 26.5 6S30 7.57 30 9.5 28.43 13 26.5 13 23 11.43 23 9.5Zm13.02 26.53a2.981 2.981 0 1 0 .002 5.962 2.981 2.981 0 0 0-.002-5.962Zm-8.37-13.65a3.438 3.438 0 0 0 2.92 1.61H35c.55 0 1-.45 1-1v-1c0-.55-.45-1-1-1h-4.45c0-.33-4.13-6.1-4.13-6.11-.71-.93-2.53-1.18-3.91-.74 0 0-5.94 2.41-6.9 2.81-.86.36-1.62 1.01-1.62 2.03v5c0 .55.45 1 1 1h.99a.99.99 0 0 0 1-1l-.03-4.08s2.46-.99 3.59-1.44l-1.23 5.47c-.24 1.07.12 2.19.95 2.91l5.73 5.02v9.12c0 .55.45 1 1 1h1c.55 0 1-.45 1-1v-9.15c0-.95-.42-1.85-1.15-2.47l-3.01-2.83 1.48-6.22 1.32 2.05Zm-10.68 9.61H10c-.55 0-1 .45-1 1v1c0 .55.45 1 1 1h7.96c.6 0 1.14-.36 1.38-.91l1.38-4.14-2.44-2.12-1.3 4.16Z"/></svg>
