<svg xmlns="http://www.w3.org/2000/svg" viewBox="0 0 48 48"><title>Sportkleding muziekinstrumenten</title><path d="M40.08 30.08c-.56-.63-.71-1.28-.48-2 .26-.81.33-1.66.2-2.51-.3-1.94-1.91-3.39-4.1-3.87l-.7-.05V11c0-.55-.45-1-1-1s-1 .45-1 1v10.66l-.45.03c-2.58.53-4.29 2.37-4.29 4.85 0 .6.1 1.19.29 1.75.21.61.08 1.27-.35 1.75-1.54 1.71-2.3 4.39-1.89 6.66.43 2.42 2.14 5.29 7.81 5.29 6.47 0 7.83-3.76 7.83-6.91 0-1.83-.68-3.66-1.87-5ZM35.01 38h-2c-.55 0-1-.45-1-1s.45-1 1-1h2c.55 0 1 .45 1 1s-.45 1-1 1Zm-1-8c-1.1 0-2-.9-2-2s.9-2 2-2 2 .9 2 2-.9 2-2 2ZM22.18 6h-2.06c-1.76 1.47-4.44 1.47-6.2 0h-2.08c-.11 0-.22.02-.33.05L6.66 7.72c-.4.14-.67.52-.67.95v4.36c0 .56.46 1.01 1.01 1l3-.02v14c0 .55.44 1 .99 1h12c.55 0 1-.45 1-1V14.05l3-.02c.55 0 .99-.45.99-1V8.68c0-.43-.26-.81-.67-.95l-4.82-1.67a.946.946 0 0 0-.33-.05ZM15 12h4c.55 0 1 .45 1 1v1h-.07l-2.81 7.36c-.15.39-.52.64-.93.64a1 1 0 0 1-.93-1.36L17.79 14H15c-.55 0-1-.45-1-1s.45-1 1-1Z"/></svg>
