<svg xmlns="http://www.w3.org/2000/svg" viewBox="0 0 48 48"><title>Station stoptrein</title><path d="M8.01 12.01c0-1.65 1.35-2.99 2.99-2.99s2.99 1.35 2.99 2.99S12.64 15 11 15s-2.99-1.35-2.99-2.99Zm5.05 3.98H8.83c-1.61.1-2.84 1.42-2.84 3.11 0 0 .02 4.01.04 5.91 0 .55.45.99 1 .99H8v7c0 .55.45 1 1 1h4c.55 0 1-.45 1-1v-7h1c.55 0 1-.45 1-1v-5.9c0-1.73-1.28-3.07-2.94-3.11ZM42 12.02v15.97c0 2.77-2.24 5.01-5.01 5.01H26c-2.76 0-5-2.24-5-5V12.02C21 8.71 23.71 6 27.02 6h8.96C39.31 6 42 8.7 42 12.02ZM28 27c0-.81-.66-1.47-1.47-1.47s-1.47.66-1.47 1.47.66 1.47 1.47 1.47S28 27.81 28 27Zm10 0c0-.81-.66-1.47-1.47-1.47s-1.47.66-1.47 1.47.66 1.47 1.47 1.47S38 27.81 38 27Zm.03-14H24.97c-.65 0-1.13.61-.97 1.24l1.5 6c.11.45.51.76.97.76h10.06c.46 0 .86-.31.97-.76l1.5-6a.998.998 0 0 0-.97-1.24Zm3.84 27.56a.997.997 0 0 1-.9 1.44h-.08c-.38 0-.73-.22-.9-.56L36.81 35h2.31l2.74 5.56ZM23.88 35l-2.76 5.56c-.33.66.15 1.44.9 1.44h.08c.38 0 .73-.22.9-.56L26.21 35H23.9Z"/></svg>
