<svg xmlns="http://www.w3.org/2000/svg" viewBox="0 0 48 48"><title>Station sneltrein</title><path d="M16.01 19.11v5.9c0 .55-.46 1-1.01 1h-1v7c0 .55-.45 1-1 1H9c-.55 0-1-.45-1-1v-7H7c-.55 0-1-.45-1-1v-5.89c0-1.69 1.23-3 2.84-3.1h4.23c1.66.03 2.94 1.37 2.94 3.1ZM42 13v10c0 6.07-4.93 11-11 11s-11-4.93-11-11V13c0-3.86 3.14-7 7-7h8c3.86 0 7 3.14 7 7ZM28 24.5c0-.83-.67-1.5-1.5-1.5s-1.5.67-1.5 1.5.67 1.5 1.5 1.5 1.5-.67 1.5-1.5Zm9 0c0-.83-.67-1.5-1.5-1.5s-1.5.67-1.5 1.5.67 1.5 1.5 1.5 1.5-.67 1.5-1.5ZM30.09 9h-2.51c-2.51 0-4.54 2.03-4.54 4.54v.89c0 1.3.93 4.22 7.05 4.54V9Zm8.87 4.54c0-2.51-2.03-4.54-4.54-4.54h-2.51v9.97c6.12-.32 7.05-3.24 7.05-4.54v-.89Zm-28.12 1.28c1.65 0 2.99-1.35 2.99-2.99s-1.35-2.99-2.99-2.99-2.99 1.35-2.99 2.99 1.35 2.99 2.99 2.99Zm13.72 20.17h-.08c-.38 0-.73.22-.9.56l-2.47 5c-.33.66.15 1.44.9 1.44h.08c.38 0 .73-.22.9-.56l2.47-5a.997.997 0 0 0-.9-1.44Zm14.83.56c-.17-.34-.52-.56-.9-.56h-.08c-.74 0-1.23.78-.9 1.44l2.47 5c.17.34.52.56.9.56h.08c.74 0 1.23-.78.9-1.44l-2.47-5Z"/></svg>
