<svg xmlns="http://www.w3.org/2000/svg" viewBox="0 0 48 48"><title>Stookverbod</title><path d="M40 14.02c0 4.41-3.59 8-8 8s-8-3.59-8-8 3.59-8 8-8 8 3.59 8 8Zm-6.59 0 1.77-1.77a.996.996 0 1 0-1.41-1.41L32 12.61l-1.77-1.77a.996.996 0 1 0-1.41 1.41l1.77 1.77-1.77 1.77a.996.996 0 1 0 1.41 1.41L32 15.43l1.77 1.77a.996.996 0 1 0 1.41-1.41l-1.77-1.77ZM28.07 40h-16c-.55 0-1 .45-1 1s.45 1 1 1h16c.55 0 1-.45 1-1s-.45-1-1-1ZM32 24c-5.49 0-9.94-4.42-9.99-9.89-.3-.17-.57-.38-.79-.64-.77-.89-1.14-2.02-1.14-3.45V7.03c0-.86-.96-1.34-1.62-.81l-1.64 1.32c-1.34 1.08-2.56 2.3-3.64 3.61s-2.01 2.7-2.77 4.14c-.77 1.45-1.37 2.95-1.78 4.47-.42 1.55-.64 3.08-.64 4.56 0 2.19.45 4.29 1.33 6.23.89 1.96 2.12 3.61 3.77 4.93.69.55 1.48 1.03 2.19 1.4.74.39 1.58-.27 1.43-1.1l-.44-2.43a5.842 5.842 0 0 1-.24-1.66c0-.73.12-1.39.35-2.02.24-.63.58-1.18 1.04-1.7l2.32-2.57c.4-.44 1.11-.44 1.5 0l2.33 2.58c.45.51.79 1.06 1.03 1.69.24.62.35 1.28.35 2.02a5.899 5.899 0 0 1-.24 1.66l-.39 2.38c-.13.82.7 1.46 1.43 1.09.76-.39 1.6-.87 2.14-1.34 1.2-1.06 2.88-2.97 3.77-4.93a14.99 14.99 0 0 0 1.33-6.23c0-.12-.01-.24-.02-.36-.32.03-.65.05-.98.05Z"/></svg>
