<svg xmlns="http://www.w3.org/2000/svg" viewBox="0 0 48 48"><title>Strand</title><path d="M23.53 37.07c0 .55-.44.99-.99.99-.16 0-.31-.05-.45-.12-.1-.05-.35-.16-.66-.27-.1-.03-.21-.07-.3-.1-.06-.02-.12-.02-.17-.04-1.11-.21-2.04.15-3 .57-.25.13-.51.25-.78.37-1.26.52-2.62.67-3.95.35-.92-.22-1.64-.71-2.5-1.06-1.3-.54-2.33-.26-3.36.17a.998.998 0 0 1-1.38-.92v-.07c0-.4.24-.76.61-.92.27-.12.54-.22.83-.31 1.41-.4 2.87-.29 4.23.27.95.39 1.73.98 2.8 1.05 1.11.07 1.95-.45 2.9-.9.03-.02.07-.03.11-.04.31-.14.63-.28.97-.38.21-.06.43-.09.64-.12.12-.02.24-.05.36-.07.13-.01.26-.01.39-.02.25-.02.49-.03.74-.01.31.02.63.05.94.12.16.04.49.15.78.25.26.09.59.17.75.38.29.17.49.47.49.83ZM10.5 15c2.49 0 4.5-2.01 4.5-4.5S12.99 6 10.5 6 6 8.01 6 10.5 8.01 15 10.5 15Zm17.53 25.77a.999.999 0 0 1-.97 1.23c-.46 0-.86-.32-.97-.77L23.1 28.81 9.49 32.09c-.54.13-1.08-.2-1.21-.74l-.18-.73a.975.975 0 0 1 0-.48c1.43-6.02 5.94-11.08 12.19-12.96v-.04a.987.987 0 0 1 .73-1.21c.54-.13 1.08.2 1.21.74v.04c6.43-1.18 12.76 1.28 16.77 5.98.11.12.18.27.22.43l.18.73c.13.54-.2 1.08-.74 1.21l-13.61 3.28 2.99 12.42ZM25.7 18.42c2.28 1.17 4.9 3.13 6.06 6.25l5.2-1.25a15.658 15.658 0 0 0-11.26-5ZM15.44 28.6c-.38-3.31 1.05-6.24 2.55-8.33-3.74 1.98-6.54 5.4-7.75 9.58l5.2-1.25Zm7.19-1.73-1.69-7.03c-1.5 1.63-3.82 4.77-3.53 8.29l5.23-1.26Zm1.94-.47 5.23-1.26c-1.35-3.26-4.85-5.01-6.92-5.77l1.69 7.03ZM42 36.61c0-.55-.44-.99-.99-.99-.06 0-.11.02-.16.03s-.06.01-.1.02c-.06.02-.11.03-.16.05-.8.24-1.47.66-2.24.98-1.77.73-3.03-.04-4.47-.65-.39-.18-.79-.3-1.19-.39-.06-.01-.11-.04-.16-.05-1.2-.26-2.15-.23-3.29.2-.07.04-.12.08-.18.11-.03.01-.06.03-.09.04l.48 1.98c.24-.11.48-.23.73-.31.54-.15 1.1-.21 1.65-.13.63.12 1.23.38 1.81.7.4.22.82.37 1.23.49.07 0 .13.04.19.05 1.41.4 2.87.29 4.23-.27.69-.29 1.3-.68 1.99-.89.17-.05.32-.15.44-.28h.01c.09-.09.16-.19.21-.31.05-.11.08-.23.08-.36v-.02Z"/></svg>
