<svg xmlns="http://www.w3.org/2000/svg" viewBox="0 0 48 48"><title>Subsidie</title><path d="M34 26c-4.41 0-8 3.59-8 8s3.59 8 8 8 8-3.59 8-8-3.59-8-8-8Zm.96 7c.55 0 1 .45 1 1s-.45 1-1 1h-2.57c.25.62.71 1.13 1.35 1.36.48.18 1.01.18 1.49 0 .52-.19 1.09.07 1.29.58.2.52-.07 1.09-.58 1.29-.47.18-.96.26-1.45.26s-.98-.09-1.45-.26c-1.42-.54-2.39-1.79-2.71-3.23h-.36c-.55 0-1-.45-1-1s.45-1 1-1h.37c.04-.16.06-.32.11-.48.39-1.17 1.2-2.1 2.28-2.61 1.02-.49 2.17-.53 3.22-.14.52.2.78.77.58 1.29-.2.52-.77.78-1.29.58-.54-.2-1.13-.18-1.65.07-.53.25-.94.71-1.17 1.29h2.56Zm-.91-17.02c0-1.61 1.31-2.92 2.92-2.92s2.92 1.31 2.92 2.92-1.31 2.92-2.92 2.92-2.92-1.31-2.92-2.92ZM42.02 24v4.03a9.976 9.976 0 0 0-6.61-3.92c-.57-1.3-1.49-2.4-2.7-3.14.47-.58 1.17-.98 1.94-.98h4.85c1.32 0 2.51 1.16 2.51 2.48v1.52h.01ZM28.03 42H18.01c-.55 0-1-.45-1-1v-2h-1.99c-.55 0-1-.45-1-1V27c0-2.72 2-4.84 4.66-4.99l10.3-.02c1.65.04 3.06.84 3.95 2.06a9.994 9.994 0 0 0-8.91 9.94c0 3.28 1.58 6.18 4.02 8ZM15.4 20.98c-2.03 1.23-3.35 3.45-3.35 6.02l-.04.99H7.02c-.55 0-1-.45-1-1V22.5c0-1.34 1.2-2.5 2.54-2.5h4.88c.77 0 1.49.4 1.96.99Zm-7.34-5.01c0-1.61 1.31-2.92 2.92-2.92s2.92 1.31 2.92 2.92-1.31 2.92-2.92 2.92-2.92-1.31-2.92-2.92Zm8.95-4.59c.68-3.16 3.52-5.53 6.92-5.53 1.99 0 3.79.81 5.07 2.12-.02.72-.2 1.25-.54 1.6-.9.94-3.09.88-5.22.83-2.29-.06-4.64-.11-6.24.98Zm13.47-1.18c.34.82.53 1.71.53 2.65 0 3.87-3.17 7-7.08 7-3.16 0-5.83-2.04-6.74-4.87-.14-.74.06-1.2.42-1.61.93-1.04 3.38-1.03 5.59-.97 2.57.06 5.21.13 6.73-1.46.22-.22.4-.48.55-.75Z"/></svg>
