<svg xmlns="http://www.w3.org/2000/svg" viewBox="0 0 48 48"><title>Temperatuur melding</title><path d="M37 32.26V10h-.05c.02-.16.05-.33.05-.5C37 7.57 35.43 6 33.5 6S30 7.57 30 9.5c0 .17.03.34.05.5H30v22.26A5.497 5.497 0 0 0 33.5 42a5.497 5.497 0 0 0 3.5-9.74ZM33.5 40c-1.93 0-3.5-1.57-3.5-3.5 0-1.39.82-2.59 2-3.15V20c0-.83.67-1.5 1.5-1.5s1.5.67 1.5 1.5v13.35c1.18.56 2 1.76 2 3.15 0 1.93-1.57 3.5-3.5 3.5ZM17 6c-4.42 0-8 3.58-8 8s3.58 8 8 8 8-3.58 8-8-3.58-8-8-8Zm-.07 4c.55 0 1 .45 1 1v3c0 .55-.45 1-1 1s-1-.45-1-1v-3c0-.55.45-1 1-1Zm.79 7.72c-.19.19-.43.28-.72.28s-.54-.09-.72-.28c-.19-.19-.28-.43-.28-.72s.09-.53.28-.72c.19-.19.43-.28.72-.28s.54.09.72.28c.19.19.28.43.28.72s-.09.53-.28.72Z"/></svg>
