<svg xmlns="http://www.w3.org/2000/svg" viewBox="0 0 48 48"><title>Thuiswerken</title><path d="M11.58 28.97h12.67l7.02-5.13c.52-.38 1.13-.58 1.77-.58s1.25.2 1.77.57l1.2.87V12c0-1.66-1.34-3-3-3h-21c-1.66 0-3 1.34-3 3v14c0 1.39 1.24 2.72 2.57 2.97ZM13 13.72c0-.55.45-1 1-1h4.11c.55 0 1 .45 1 1s-.45 1-1 1h-1.68l3.58 3.58a.996.996 0 1 1-1.41 1.41l-3.6-3.6v1.72c0 .55-.45 1-1 1s-1-.45-1-1v-4.11Zm12.02 21.57v.69H7.44c-.8-.04-1.44-.7-1.44-1.51 0-.65.41-1.21.99-1.42.01 0 5.05-2.06 5.05-2.06h10.22c-.09.22-.17.45-.21.7-.12.79.07 1.59.55 2.23l.11.16c.54.74 1.4 1.19 2.31 1.23Zm16.57-4.05-2.57-1.86v-2.37c0-.55-.45-1-1-1s-1 .44-1 .99v.91l-3.39-2.46a.99.99 0 0 0-1.18 0l-8.02 5.87c-.45.33-.54.95-.22 1.4l.12.16c.33.45.96.54 1.4.21l1.29-.96v5.88c0 .55.45 1 1 1h10c.55 0 1-.45 1-1v-5.88l1.19.92c.43.34 1.07.27 1.41-.17l.17-.22c.35-.45.26-1.09-.2-1.43ZM35 34.01c0 .55-.45 1-1 1h-2c-.55 0-1-.45-1-1v-1c0-.55.45-1 1-1h2c.55 0 1 .45 1 1v1Z"/></svg>
