<svg xmlns="http://www.w3.org/2000/svg" viewBox="0 0 48 48"><title>Trouwen en geregistreerd partnerschap</title><path d="M24.27 36.61c.61.34 1.25.64 1.91.88-2.12 2.85-5.41 4.55-8.98 4.55-6.19 0-11.22-5.03-11.22-11.22S11.01 19.6 17.2 19.6s11.22 5.03 11.22 11.22c0 .32-.02.66-.06 1.01-.73-.25-1.4-.62-2.01-1.09-.04-5.01-4.13-9.08-9.15-9.08s-9.16 4.11-9.16 9.16 4.11 9.16 9.16 9.16c2.75 0 5.34-1.25 7.07-3.37Zm17.66-10.17c-.6 5.44-5.25 9.73-10.72 9.94-6.38.24-11.66-4.88-11.66-11.21 0-.35.03-.71.07-1.08.72.25 1.39.62 2 1.08 0 3.76 2.24 7.26 5.78 8.55 6.39 2.32 12.41-2.31 12.53-8.36.06-2.86-1.42-5.49-3.65-7.29-2.48-2.01-5.06-2.35-7.41-1.84-.25.05-.49.12-.74.18-.67.16-1.28.47-1.87.82-.1.06-.21.12-.31.18-.82.52-1.57 1.16-2.21 1.92-.61-.35-1.25-.65-1.92-.9 1.03-1.36 2.35-2.46 3.86-3.23v-.03a10.9 10.9 0 0 1 1.77-.71l-2.17-3.86c-.19-.35-.17-.77.07-1.09l2.33-3.1c.19-.25.49-.4.8-.4h4.96c.31 0 .61.15.8.4l2.34 3.1a1 1 0 0 1 .07 1.1l-2.26 3.94c.68.23 1.34.51 1.96.86v.04c3.8 2.17 6.07 6.4 5.56 11ZM34 9.5c0-.83-.67-1.5-1.5-1.5S31 8.67 31 9.5s.67 1.5 1.5 1.5 1.5-.67 1.5-1.5Z"/></svg>
