<svg xmlns="http://www.w3.org/2000/svg" viewBox="0 0 48 48"><title>Uittreksel</title><path d="M10 32h9v9l-9-9Zm24-9c-2.76 0-5 2.24-5 5s2.24 5 5 5 5-2.24 5-5-2.24-5-5-5Zm-7 5c0 1.9.76 3.63 2 4.89v9.13L21 42V32a2 2 0 0 0-2-2H9V7.98C9 6.89 9.88 6 10.98 6h22.05c1.11 0 2.02.9 2.02 2.02l-.03 13.07c-.33-.05-.67-.08-1.02-.08-3.86 0-7 3.14-7 7Zm3-10.02c0-.54-.44-.98-.98-.98H15c-.55 0-1 .45-1 1s.45 1 1 1h14.02c.54 0 .98-.44.98-.98v-.05Zm-16.01-4.97c0 .55.45.99 1 .99h14.03a.98.98 0 0 0 .01-1.96L15 12c-.56 0-1.01.45-1 1.01ZM23 23c0-.55-.45-1-1-1h-7c-.55 0-1 .45-1 1s.45 1 1 1h7c.55 0 1-.45 1-1Zm8 11.32v7.15c0 .43.51.66.83.37L34 39.91l2.17 1.93c.32.29.83.06.83-.37v-7.15c-.91.43-1.92.68-3 .68s-2.09-.25-3-.68Z"/></svg>
