<svg xmlns="http://www.w3.org/2000/svg" viewBox="0 0 48 48"><title>Uw gemeente</title><path d="M28.63 13.7c-.13-.26-.2-.62-.2-1.1v-.36c.03-.88.3-1.32.79-1.32.25 0 .46.13.6.38.14.25.24.62.24 1.1v.22c0 .47-.1.83-.24 1.09-.13.25-.36.38-.61.38-.26 0-.46-.13-.59-.38ZM39 10.02v23.96C39 36.2 37.2 38 34.98 38H25v3c0 .55-.45 1-1 1s-1-.45-1-1v-3h-9.99A4.01 4.01 0 0 1 9 33.99V10.01A4.01 4.01 0 0 1 13.01 6h21.98c2.22 0 4.02 1.8 4.02 4.02Zm-11.58 2.66c0 .46.09.87.24 1.22s.37.63.63.82.58.29.92.29.66-.1.93-.3c.27-.2.48-.48.63-.84.15-.37.23-.79.23-1.26v-.22c-.09-.47-.08-.88-.24-1.25-.15-.36-.37-.64-.64-.84-.27-.2-.58-.29-.92-.29s-.66.1-.93.3c-.27.2-.49.48-.63.84-.15.36-.23.78-.23 1.26v.27Zm-3.58 2.31h1.04v-1.34l.39-.5.85 1.84h1.16l-1.37-2.76 1.37-2.2h-1.21l-.86 1.55-.32.64v-2.19h-1.04V15Zm-3.21 0h2.73v-1.02h-1.7v-3.95h-1.04v4.97Zm-3.3 0h2.83v-1.02h-1.89v-1.13h1.6v-.79h-1.6v-1.02h1.89v-1.02h-2.83v4.97ZM12 10.02l.87 4.97h1.01l.53-2.77.54 2.77h1.02l.86-4.97h-.97l-.47 3.05-.57-3.05h-.83l-.56 3.05-.47-3.05h-.97Zm5 17.78 3.46-2.77L17 25v-3.2L14.6 17 12 21.8v12c0 .66.54 1.2 1.2 1.2H17v-7.2Zm12 .95L24 25l-5 3.74V35h10v-6.25Zm7-6.5c0-1.06-.71-2.05-1.75-2.27-1.09-.23-2.06.33-2.49 1.21a2.31 2.31 0 0 0-.79-.15c-1.23 0-2.23 1-2.23 2.23v.08c-.71.18-1.5.7-1.75 1.38l3.99 3.06v7.2h3.81c.66 0 1.2-.54 1.2-1.2V22.24Zm0-12.23h-1.29l-.9 3.39-.91-3.39h-1.33v4.97h1.04V13.8l-.1-2.3.98 3.49h.65l.96-3.49-.12 2.3v1.19h1.04v-4.97ZM14.5 22c-.55 0-1 .45-1 1s.45 1 1 1 1-.45 1-1-.45-1-1-1Zm8 10h3v-2h-3v2Z"/></svg>
