<svg xmlns="http://www.w3.org/2000/svg" viewBox="0 0 48 48"><title>Uw wijk</title><path d="M16 31.5c0-1.93-1.57-3.5-3.5-3.5S9 29.57 9 31.5s1.57 3.5 3.5 3.5 3.5-1.57 3.5-3.5Zm.04 5.5H8.96c-1.65 0-2.95 1.25-2.95 2.8V41c0 .55.45 1 1 1h11c.55 0 1-.45 1-1v-1.48C18.86 38.11 17.6 37 16.05 37ZM42 20v18c0 .55-.45 1-1 1h-8.98v-9.41l.69.73c.41.43 1.09.4 1.47-.06 0 0 .53-.74-.11-1.34l-2.05-1.83v-3.11c0-.54-.44-.98-.98-.98h-.05c-.54 0-.98.44-.98.98v1.54l-5.41-4.28c-.36-.3-.89-.31-1.26-.02l-7.32 6.08c-.96-.81-2.05-1.3-4.05-1.3l.02-5.93-5.72-4.37c-.63-.63-.19-1.71.71-1.71H21.5c.26 0 .5.1.69.27l3.79 3.59v-4.71c0-.17.05-.34.13-.5l3.54-6.21a1 1 0 0 1 1.68 0l3.52 6.21c.09.15.13.32.13.49v5.85h6c.55 0 1 .45 1 1Zm-9.98-5.43c0-.83-.67-1.5-1.5-1.5s-1.5.67-1.5 1.5.67 1.5 1.5 1.5 1.5-.67 1.5-1.5ZM22 34v-1c0-.55.45-1 1-1h2c.55 0 1 .45 1 1v1c0 .55-.45 1-1 1h-2c-.55 0-1-.45-1-1Z"/></svg>
