<svg xmlns="http://www.w3.org/2000/svg" viewBox="0 0 48 48"><title>Vacatures</title><path d="m27 27 14-2v12.95A3.05 3.05 0 0 1 37.95 41h-27.9A3.05 3.05 0 0 1 7 37.95V25l14 2v2.22c0 .43.35.78.78.78h4.43c.43 0 .78-.35.78-.78V27Zm15-12.07v6.58c0 .82-.66 1.48-1.48 1.48l-13.52 2v-1.22c0-.43-.35-.78-.78-.78h-4.43c-.43 0-.78.35-.78.78v1.22l-13.51-2c-.83 0-1.49-.67-1.49-1.49v-6.57c0-1.62 1.31-2.93 2.93-2.93h9.07V8.11c0-.61.5-1.11 1.11-1.11h9.78c.61 0 1.11.5 1.11 1.11V12h9.07c1.62 0 2.93 1.31 2.93 2.93ZM28 9h-8v3h8V9Zm-5 16v3h2v-3h-2Z"/></svg>
