<svg xmlns="http://www.w3.org/2000/svg" viewBox="0 0 48 48"><title>Vaccinatie</title><path d="M31.3 12.37a1.97 1.97 0 0 0-2.78 0l-.02.02-14.68 14.64c-.28.28-.37.69-.23 1.06.35.89 1.06 2.26 1.81 3.06-.01.01-.03.01-.04.02l-9.11 9.11a.996.996 0 1 0 1.41 1.41l9.11-9.11s.02-.04.04-.06c.93.88 2.28 1.49 3.06 1.79.37.14.78.05 1.06-.23l14.61-14.61.04-.04c.77-.77.77-2.02 0-2.79l-4.29-4.29Zm2.86 5.69L28.22 24h-8.3l2.94-3.11 1.41 1.41a.996.996 0 1 0 1.41-1.41l-1.41-1.41 2.12-2.12 1.41 1.41a.996.996 0 1 0 1.41-1.41l-1.41-1.41 2.12-2.12 4.24 4.24Zm7.53-6.12a.996.996 0 0 1-1.41 0l-1.41-1.41-3.35 3.36-1.41-1.41 3.35-3.35-1.41-1.41a.996.996 0 1 1 1.41-1.41l4.24 4.24c.39.39.39 1.02 0 1.41Z"/></svg>
