<svg xmlns="http://www.w3.org/2000/svg" viewBox="0 0 48 48"><title>Veerboot</title><path d="M14 34.83c.42.17.78.36 1.14.54.68.34 1.21.61 1.76.64h.13c.6 0 1.16-.26 2.04-.7.17-.09.35-.17.53-.26 1.42-.68 2.97-1.03 4.48-1.03.7 0 1.4.08 2.08.22 1.03.23 1.87.64 2.61 1.01.42.21.82.4 1.21.55.35.13.68.19 1.04.19.57 0 1.17-.17 1.79-.5 1.51-.81 3.12-1.26 4.72-1.37l1.22-4.87a.998.998 0 0 0-.97-1.24H10.33c-.65 0-1.13.61-.97 1.24l1.21 4.81c1.17.06 2.32.31 3.43.78Zm27.46 1.94c.34.16.54.52.54.89v.11c0 .72-.74 1.22-1.39.92-.22-.1-.44-.2-.67-.29-.64-.25-1.27-.37-1.91-.37-.92 0-1.82.25-2.69.72-1.44.77-2.95 1.2-4.47 1.2-1.27 0-2.55-.3-3.79-.96-.99-.53-1.99-.98-3.11-.98-.16 0-.33 0-.5.03-1.25.15-2.17.84-3.29 1.3-1.03.43-2.11.66-3.2.66-.6 0-1.21-.07-1.81-.21-1.16-.28-2.09-.9-3.17-1.35a4.6 4.6 0 0 0-1.8-.37c-1 0-1.89.34-2.81.74-.66.29-1.4-.2-1.4-.92v-.18c0-.38.21-.74.56-.9.41-.19.82-.36 1.26-.48.72-.2 1.45-.3 2.18-.3 1.08 0 2.16.22 3.18.65 1.2.5 2.19 1.24 3.55 1.33h.25c1.29 0 2.29-.61 3.43-1.15a8.46 8.46 0 0 1 3.62-.84c.55 0 1.1.06 1.65.18 1.32.29 2.34 1.03 3.57 1.48.58.21 1.15.31 1.72.31.94 0 1.86-.27 2.74-.74 1.4-.75 2.94-1.18 4.47-1.18 1.12 0 2.24.23 3.3.73ZM13.16 26c.5 0 .92-.37.99-.87l.84-6.13h18l.86 6.14c.07.5.49.86.99.86.61 0 1.08-.54.99-1.14L35.01 19H36c.56 0 1.01-.45 1-1.01 0-.55-.45-.99-1-.99h-4.01v-4c0-.55-.45-1-1-1h-2v-2h1c.55 0 1-.45 1-1s-.45-1-1-1h-4c-.55 0-1 .45-1 1s.45 1 1 1h1v2h-10c-.55 0-1 .45-1 1v4h-4c-.55 0-1 .45-1 1s.45 1 1 1h.97l-.8 5.86c-.08.6.39 1.14.99 1.14ZM25 14h5v3h-5v-3Zm-7 0h5v3h-5v-3Zm5 11v-2.02l-.67-2.19c-.15-.47-.55-.78-1-.78h-3.65c-.45 0-.86.32-1 .79L16 22.99v2.02c0 .55.45 1 1 1s1-.45 1-1h3c0 .55.45 1 1 1s1-.45 1-1Zm-5.54-2 .53-2h3l.53 2h-4.06ZM32 25v-2.02l-.67-2.19c-.15-.47-.55-.78-1-.78h-3.65c-.45 0-.86.32-1 .79L25 22.99v2.02c0 .55.45 1 1 1s1-.45 1-1h3c0 .55.45 1 1 1s1-.45 1-1Zm-5.54-2 .53-2h3l.53 2h-4.06Z"/></svg>
