<svg xmlns="http://www.w3.org/2000/svg" viewBox="0 0 48 48"><title>Veilige wijk</title><path d="M17.03 28.02H6.99c-.55 0-1 .44-1 .99l-.03 5.61c0 3.3 2.05 5.62 5.59 7.28.27.13.59.13.86 0 3.54-1.67 5.59-4.1 5.59-7.4l.03-5.48c0-.55-.45-1.01-1-1.01Zm-1.78 5.45-3.66 3.66a.996.996 0 0 1-1.41 0l-1.45-1.45a.996.996 0 0 1 0-1.41c.39-.38 1.01-.38 1.4 0l.76.76 2.96-2.96a.984.984 0 0 1 1.4 0c.39.39.39 1.01 0 1.4Zm25.74-14.46h-6v-5.85c0-.17-.04-.34-.13-.49l-3.52-6.21a1 1 0 0 0-1.68 0l-3.54 6.21c-.09.15-.13.32-.13.5v4.71l-3.79-3.59a.984.984 0 0 0-.69-.27H7c-.89 0-1.34 1.08-.71 1.71l5.72 4.37v5.93h5.59c2.15-1.79 5.75-4.78 5.75-4.78.37-.29.89-.28 1.26.02l5.41 4.28v-1.54c0-.54.44-.98.98-.98h.05c.54 0 .98.44.98.98v3.11l2.05 1.83c.64.61.11 1.34.11 1.34a.984.984 0 0 1-1.47.06l-.69-.73v9.41h8.98c.55 0 1-.45 1-1v-18c0-.55-.45-1-1-1Zm-10.48-2.93c-.83 0-1.5-.67-1.5-1.5s.67-1.5 1.5-1.5 1.5.67 1.5 1.5-.67 1.5-1.5 1.5Zm-4.52 16.93v1c0 .55-.45 1-1 1h-2c-.55 0-1-.45-1-1v-1c0-.55.45-1 1-1h2c.55 0 1 .45 1 1Z"/></svg>
