<svg xmlns="http://www.w3.org/2000/svg" viewBox="0 0 48 48"><title>Vergoeding energiekosten</title><path d="m41.61 12.77-4.41 6.77a1 1 0 0 1-.84.45h-.05c-.7 0-1.19-.71-.93-1.36l1.41-3.64h-2.13c-.33 0-.57-.32-.48-.64l1.65-5.64c.12-.43.52-.72.96-.72h2.93c.39 0 .63.42.43.75l-1.89 3.25h2.93c.4 0 .64.44.42.77ZM23.77 24c2.21 0 4-1.79 4-4s-1.79-4-4-4-4 1.79-4 4 1.79 4 4 4ZM27 27.56c2.65.78 3.96 2.52 4.51 3.94A3.979 3.979 0 0 0 35 27.55c0-2.21-1.79-4-4-4s-4 1.79-4 4Zm-16.01.52H7c-.55 0-1 .45-1 1v7.95c0 .55.45 1 1 1h3.99c.55 0 1-.45 1-1v-7.95c0-.55-.45-1-1-1Zm25.41 6.3-10.38.66-2.87-.91a.928.928 0 0 1-.6-1.16c.15-.48.67-.75 1.15-.6l2.79.88 3.54-.3c-.01-.1-.32-2.6-3.48-3.49l-5.84-1.76c-.28-.09-.58-.11-.88-.06l-5.01.76c-.49.07-.85.49-.85.99v7.58l11.81 2.99c.15.04.3.04.45 0l13.5-2.83c.78-.16 1.09-1.16.5-1.69-.62-.56-1.75-1.08-3.84-1.08Z"/></svg>
