<svg xmlns="http://www.w3.org/2000/svg" viewBox="0 0 48 48"><title>Vergaderen</title><path d="M12 11c0-1.65 1.35-3 3-3s3 1.35 3 3-1.35 3-3 3-3-1.35-3-3Zm3.01 19c1.65 0 3-1.35 3-3s-1.35-3-3-3-3 1.35-3 3 1.35 3 3 3Zm2.16 1.56h-4.22c-1.66.03-2.94 1.33-2.94 3v2.61c2.5 1.41 6 2.44 10 2.85v-5.46c0-1.64-1.23-2.91-2.83-3ZM20 20.14v-1.65c0-1.67-1.28-2.97-2.94-3.01h-4.22c-1.61.1-2.84 1.38-2.84 3.01V23c2.5-1.41 6-2.44 10.01-2.86ZM32.99 14c-1.65 0-3-1.35-3-3s1.35-3 3-3 3 1.35 3 3-1.35 3-3 3Zm2.99 13c0-1.65-1.35-3-3-3s-3 1.35-3 3 1.35 3 3 3 3-1.35 3-3Zm-8 7.56v5.46c4.01-.42 7.51-1.44 10.01-2.85v-2.61c0-1.67-1.28-2.97-2.94-3.01h-4.22c-1.61.1-2.84 1.38-2.84 3.01ZM37.99 23v-4.51c0-1.64-1.23-2.91-2.84-3h-4.22c-1.66.03-2.94 1.33-2.94 3v1.65C32 20.56 35.5 21.58 38 23Z"/></svg>
