<svg xmlns="http://www.w3.org/2000/svg" viewBox="0 0 48 48"><title>Vergaderen digitaal</title><path d="M33 40H15c0-1.1.9-2 2-2h3v-3h8v3h3c1.1 0 2 .9 2 2Zm9-29.02V30c0 1.66-1.34 3-3 3H9c-1.66 0-3-1.34-3-3V10.98c0-1.66 1.34-3 3-3h30c1.66 0 3 1.34 3 3ZM27.99 17.5c0 1.94 1.57 3.51 3.51 3.51s3.51-1.57 3.51-3.51-1.57-3.51-3.51-3.51-3.51 1.57-3.51 3.51Zm-15 0c0 1.94 1.57 3.51 3.51 3.51s3.51-1.57 3.51-3.51-1.57-3.51-3.51-3.51-3.51 1.57-3.51 3.51ZM23 25.56c-.15-1.41-1.41-2.52-2.96-2.52h-7.08c-1.65 0-2.96 1.25-2.96 2.8V27c0 .55.45 1 1 1h11c.55 0 1-.45 1-1v-1.44Zm15 0c-.15-1.41-1.41-2.52-2.96-2.52h-7.08c-1.65 0-2.96 1.25-2.96 2.8V27c0 .55.45 1 1 1h11c.55 0 1-.45 1-1v-1.44Z"/></svg>
