<svg xmlns="http://www.w3.org/2000/svg" viewBox="0 0 48 48"><title>Verhuizen</title><path d="M42 24v7c0 1.1-.9 2-2 2h-1.05c.02.17.05.33.05.5 0 2.48-2.02 4.5-4.5 4.5S30 35.98 30 33.5c0-.17.03-.33.05-.5h-12.1c.02.17.05.33.05.5 0 2.48-2.02 4.5-4.5 4.5S9 35.98 9 33.5c0-.17.03-.33.05-.5H8.04c-1.1 0-2-.9-2-2V12c0-1.1.9-2 2-2H30.14c1.02 0 1.85.83 1.85 1.85v4.11s.02.04.04.04h5.64c.8 0 1.52.47 1.84 1.21.65 1.53 1.75 4.1 2.24 5.23.16.37.25.77.25 1.18V24Zm-10.04-1.04s.02.04.04.04h7.82l-2.14-5h-5.65s-.04.02-.04.04l-.04 4.92ZM16 33.5a2.5 2.5 0 0 0-5 0 2.5 2.5 0 0 0 5 0ZM19 16c0-.55-.45-1-1-1h-6c-.55 0-1 .45-1 1v2c0 1.86 1.28 3.41 3 3.86V24h-2c-.55 0-1 .45-1 1s.45 1 1 1h6c.55 0 1-.45 1-1s-.45-1-1-1h-2v-2.14c1.72-.45 3-2 3-3.86v-2Zm9.63 2.47-2.91-2.91a.996.996 0 0 0-1.41 0l-2.91 2.91a.996.996 0 1 0 1.41 1.41L24 18.69v6.3c0 .55.45 1 1 1s1-.45 1-1v-6.33l1.21 1.21a.996.996 0 1 0 1.41-1.41ZM37 33.5a2.5 2.5 0 0 0-5 0 2.5 2.5 0 0 0 5 0Z"/></svg>
