<svg xmlns="http://www.w3.org/2000/svg" viewBox="0 0 48 48"><title>Verkiezingen</title><path d="M28.89 27.59 31 25.48V40c0 .55-.45 1-1 1H8c-.55 0-1-.45-1-1V18c0-.55.45-1 1-1h14.54l-2.11 2.11S19.49 19 19 19c-5.62 0-10.15 4.63-10 10.28.14 5.22 4.49 9.57 9.71 9.71 5.65.16 10.28-4.38 10.28-10 0-.48-.05-.95-.11-1.41Zm-4.7 3.71c.07-.33-.11-.88-.39-1.43l-6.55 1.52-.11.03a.975.975 0 0 1-.64-.29c-.24-.24-.34-.6-.27-.93l1.26-5.54-.65-.65-.08-.08-.09-.09c-.28-.23-.62-.37-1.01-.37-.91 0-1.65.79-1.65 1.77 0 .49.19.94.49 1.26-.53-.06-1.08.11-1.48.55-.59.64-.57 1.64-.03 2.33l3.28 4.21a1.747 1.747 0 0 0 2.02.55c.72-.29 1.17-1.02 1.1-1.79l-.02-.26 2.76.57c.95.2 1.87-.41 2.07-1.36Zm-.62-8.65L37.64 8.77l-1.41-1.41a.996.996 0 0 0-1.41 0L21.46 20.54l2.12 2.12Zm17.08-10.87-1.41-1.41-14.07 13.88 2.12 2.12 13.36-13.18a.996.996 0 0 0 0-1.41ZM20.16 22.07l-1.06 4.6 1.87 1.87 4.6-1.06-5.4-5.4Z"/></svg>
