<svg xmlns="http://www.w3.org/2000/svg" viewBox="0 0 48 48"><title>Verkeerslicht</title><path d="M23.79 34h.4c3.78 0 6.84-3.06 6.84-6.84V12.83c0-3.78-3.06-6.84-6.84-6.84h-.4c-3.78 0-6.84 3.06-6.84 6.84v14.33c0 3.78 3.06 6.84 6.84 6.84Zm.2-23.31c1.09 0 1.96.88 1.96 1.96s-.88 1.96-1.96 1.96-1.96-.88-1.96-1.96.88-1.96 1.96-1.96Zm0 7.31c1.09 0 1.96.88 1.96 1.96s-.88 1.96-1.96 1.96-1.96-.88-1.96-1.96.88-1.96 1.96-1.96Zm0 7.31c1.09 0 1.96.88 1.96 1.96s-.88 1.96-1.96 1.96-1.96-.88-1.96-1.96.88-1.96 1.96-1.96ZM22 38h4c.55 0 1-.45 1-1s-.45-1-1-1h-4c-.55 0-1 .45-1 1s.45 1 1 1Zm0 4h4c.55 0 1-.45 1-1s-.45-1-1-1h-4c-.55 0-1 .45-1 1s.45 1 1 1Z"/></svg>
