<svg xmlns="http://www.w3.org/2000/svg" viewBox="0 0 48 48"><title>Verslaving</title><path d="M13 25h6v8h-6v-8Zm14.52 3.02c.16 0 .32-.02.48-.02.51 0 1.01.05 1.5.15L35.65 22l-3.54-3.54c-1.95-1.95-5.12-1.95-7.07 0s-1.95 5.12 0 7.07l2.49 2.49ZM15 17.34V7c0-.55-.45-1-1-1h-3c-.55 0-1 .45-1 1v10.35c-2.33.82-4 3.04-4 5.65v18c0 .55.45 1 1 1h11c.55 0 1-.45 1-1v-6h-7c-.55 0-1-.45-1-1V24c0-.55.45-1 1-1h7a5.99 5.99 0 0 0-4-5.65Zm25.54 9.55-3.48-3.48-5.45 5.45a7.99 7.99 0 0 1 4.36 6.45c1.6.34 3.33-.11 4.57-1.35a5.003 5.003 0 0 0 0-7.07Zm-16.9 13.3c2.1 2.1 5.38 2.31 7.72.64L23 32.47c-1.67 2.34-1.46 5.62.64 7.72Zm.78-9.13 8.36 8.36c1.66-2.34 1.45-5.61-.65-7.71-2.1-2.1-5.37-2.31-7.71-.65Z"/></svg>
