<svg xmlns="http://www.w3.org/2000/svg" viewBox="0 0 48 48"><title>Vervoersvoorziening</title><path d="M13.02 21.5c0-1.38 1.12-2.5 2.49-2.5S18 20.12 18 21.5 16.88 24 15.51 24s-2.49-1.12-2.49-2.5Zm-1.69 18.35a4.45 4.45 0 0 1-3.18-3.18c-.57-2.23.54-4.27 2.33-5.17.33-.17.52-.51.52-.88 0-.76-.8-1.25-1.47-.9-2.4 1.24-3.94 3.93-3.43 6.91.45 2.66 2.6 4.81 5.26 5.27 2.98.51 5.67-1.03 6.91-3.43.34-.67-.14-1.47-.89-1.47-.37 0-.71.2-.88.52a4.499 4.499 0 0 1-5.17 2.33Zm9.7-7.85H18v-3.86c0-1.3-.93-2.49-2.22-2.63A2.516 2.516 0 0 0 13 28v4.53c0 1.36 1.11 2.47 2.47 2.47H21v6c0 .55.45 1 1 1h1c.55 0 1-.45 1-1v-6.03c0-1.64-1.34-2.97-2.97-2.97ZM42 21c0 .55-.45 1-1 1s-1-.45-1-1v-2H25v2c0 .55-.45 1-1 1s-1-.45-1-1v-6.06c0-.7.37-1.3.92-1.65l1.14-5.78C25.28 6.62 26.08 6 27 6h11c.92 0 1.72.62 1.94 1.51l1.13 5.8c.55.35.92.97.92 1.67v6.01Zm-16-8h13l-1-5H27l-1 5Zm1 3c0-.55-.45-1-1-1s-1 .45-1 1 .45 1 1 1 1-.45 1-1Zm9-1h-7v2h7v-2Zm4 1c0-.55-.45-1-1-1s-1 .45-1 1 .45 1 1 1 1-.45 1-1Z"/></svg>
