<svg xmlns="http://www.w3.org/2000/svg" viewBox="0 0 48 48"><title>Vluchtelingen opvang</title><path d="M42 12.6c0 .66-.69 1.1-1.29.82L29 7.78l-11.71 5.64A.907.907 0 0 1 16 12.6c0-.35.21-.68.53-.82l11.63-5.61c.53-.25 1.14-.25 1.68 0l11.63 5.61c.32.15.53.47.53.82ZM23.5 21c1.93 0 3.5-1.57 3.5-3.5S25.43 14 23.5 14 20 15.57 20 17.5s1.57 3.5 3.5 3.5Zm11 0c1.93 0 3.5-1.57 3.5-3.5S36.43 14 34.5 14 31 15.57 31 17.5s1.57 3.5 3.5 3.5ZM40 38h-2v3c0 .55-.45 1-1 1h-2.99v-5.93c0-1.14-.93-2.06-2.07-2.06h-6.93v-.47a3.53 3.53 0 0 0-3.53-3.53h-1.47v-.54c0-1.68-1.39-3.15-3-3.46 0-.02 0-3 3-3h18c1.66 0 3 1.34 3 3v11c0 .55-.45 1-1 1Zm-7.99-9c0-1.66-1.34-3-3-3s-3 1.34-3 3 1.34 3 3 3 3-1.34 3-3ZM23 33.53v6.97c0 .83-.67 1.5-1.5 1.5h-14c-.83 0-1.5-.67-1.5-1.5v-7.01c0-.83.67-1.5 1.5-1.5H11v-2.51c0-.83.69-1.49 1.54-1.49h3.95c.84 0 1.51.65 1.51 1.46v2.54h3.47c.84 0 1.53.69 1.53 1.53ZM16 30h-3v2h3v-2Z"/></svg>
