<svg xmlns="http://www.w3.org/2000/svg" viewBox="0 0 48 48"><title>Voeding</title><path d="M7.46 14.2a4.792 4.792 0 0 1 0-6.76c1.83-1.83 4.85-1.86 6.71-.05.09.11.14.17.19.22l.61.67.81-.4c1.84-.91 4.04-.56 5.48.88.25.25.48.55.71.94l.39.65.75-.06c1.42-.12 2.81.37 3.79 1.35a4.77 4.77 0 0 1 1.36 3.75l-.06.7.28.15c.13.06.24.12.34.18l.1.05c.41.25.61.43.61.43-1.45 1.14-1.75 2.94-1.75 2.94-.55-.13-.94-.21-1.23-.26h-.21c-.14-.02-.29-.03-.43-.03h-.11c-.85.03-1.73.2-2.6.5l-.66.23-.02-4.33c0-.53-.43-.95-.96-.95s-.95.43-.95.96l.02 3.39-4.28-4.28a.96.96 0 0 0-1.35 0 .96.96 0 0 0 0 1.35l4.19 4.19h-3.21a.95.95 0 1 0 0 1.9h3.48l-.54.78c-.17.24-.33.49-.48.75-.4.71-.72 1.5-.95 2.37l-.12.46-.45-.1a12.18 12.18 0 0 0-5.03-.03l-.29.06-.19-.23a4.723 4.723 0 0 1-1.08-3.64l.09-.75-.64-.4c-.34-.21-.62-.43-.86-.67-1.4-1.4-1.78-3.56-.95-5.37l.37-.8-.66-.59s-.07-.06-.1-.08l-.11-.08Zm6.85 14.21c-4.63 0-8.25 2.97-8.25 6.76s3.62 6.76 8.25 6.76c2.6 0 4.98-.95 6.57-2.63l.36-.47c.1-.14.24-.3.41-.52.61-.97.92-2.03.92-3.14 0-3.79-3.63-6.76-8.25-6.76Zm26.5-3.44a6.802 6.802 0 0 0-4.06-3.24c-.59-.2-1.19-.3-1.73-.32-1.07-.11-3.05.19-3.95.51a4.5 4.5 0 0 1 1.41-2.85c.36-.33.44-.85.18-1.26-.32-.52-1.05-.65-1.51-.24a6.52 6.52 0 0 0-2.08 3.98c-.04.13-.08.28-.11.46-.66-.25-2.32-.55-3.14-.55a6.79 6.79 0 0 0-5.72 3.5c-.36.64-.65 1.37-.84 2.17l-.09.39.35.18c3.1 1.55 4.94 4.34 4.94 7.47 0 1.59-.5 3.15-1.45 4.5l-.22.32.25.29c.65.75 1.68 1.76 3.06 1.76h.11c.85-.04 1.44-.29 2.02-.54.62-.27 1.21-.52 2.15-.52s1.46.24 2.06.5c.51.22 1.03.45 1.71.5.17.03.34.05.54.06h.1c1.97 0 3.41-2.1 4.36-3.49 2.48-3.63 3.9-9.62 1.65-13.58Z"/></svg>
