<svg xmlns="http://www.w3.org/2000/svg" viewBox="0 0 48 48"><title>Vrijwilligerswerk</title><path d="M41.16 21.49c.19-.23.16-.58-.06-.8l-.14-.14c-.7-.72-1.58-1.62-3.34-.94l-4.87 2.93c-.52.31-1.15.33-1.68.03a1.66 1.66 0 0 1-.87-1.44c-.02-.85-.13-2.47-.25-4.34v-.07c-.17-2.54-.36-5.4-.38-7.11 0-.93-.62-1.78-1.53-1.96-1.19-.23-2.24.63-2.3 1.78l-.41 8.82c-.45.11-.93.23-1.41.37L20.55 7.48a1.998 1.998 0 0 0-2.38-1.41 1.953 1.953 0 0 0-1.44 2.35l3.11 11.64-.63.29-5.9-8.43c-.58-.83-1.61-1.15-2.47-.77-.55.24-.95.71-1.1 1.28-.14.51-.07 1.04.2 1.5l5.33 8.47-.63.57-5.01-3.83c-.71-.65-1.74-.64-2.4.02a1.72 1.72 0 0 0-.06 2.36l4.77 4.73 7.19 10.04c.58.82.98 1.77 1.14 2.76l.34 2.06a1 1 0 0 0 .99.83h12.08c.65 0 1.13-.61.97-1.25l-1.53-6.02c-.56-2.18.03-4.5 1.56-6.16l6.51-7.06Zm-13.32 6.98-4.2 4.23c-.39.39-1.03.39-1.42 0l-4.2-4.23c-1.01-1.02-1.26-2.64-.45-3.83a2.95 2.95 0 0 1 4.55-.46l.82.82.82-.82a2.937 2.937 0 0 1 4.55.46c.8 1.19.56 2.81-.45 3.83Z"/></svg>
