<svg xmlns="http://www.w3.org/2000/svg" viewBox="0 0 48 48"><title>Vuurwerk</title><path d="M8.22 32.52c-.97.19-1.6-.99-.9-1.69l5.97-5.97L8.3 23.5c-.97-.26-.99-1.62-.03-1.92l4.26-1.32-3.85-6.56c-.48-.81.33-1.77 1.21-1.44l6.54 2.46v-3.94c0-.89 1.07-1.34 1.7-.71l3.46 3.46 2.66-2.75c.62-.65 1.72-.2 1.72.7v3.53l-2 2v-3l-2.38 2.55-1.51-1.51-1.52-1.52V17.81l-2.89-1.09-3.54-1.33 2.23 3.79 1.37 2.33-2.58.8-.53.16 1.22.33 3.55.97-2.6 2.6-3.32 3.32 4.41-.88 2.56-.51.13 3.36-2.27 2.27v-3.02l-8.09 1.62ZM37.98 13.1V13h-.1l.1.1Zm-5.24-2.37.47.46L31.4 13h3.66l2 2H29.4l-3 3h8.47l-2 2H24.4l-3 3h8.47l-2 2h-4.89l2.45 2.45-9.84 9.84c-.63.63-.18 1.71.71 1.71h.27a1 1 0 0 0 .71-.3l21.59-21.86.41.42c.63.64 1.71.19 1.71-.7V10c0-.55-.44-1-.99-1l-6.54.02c-.9 0-1.35 1.08-.71 1.71Z"/></svg>
