<svg xmlns="http://www.w3.org/2000/svg" viewBox="0 0 48 48"><title>Wandelen</title><path d="M35.07 20.99c.61 0 1.08.55.98 1.15l-2.93 19.01a1 1 0 0 1-.99.85h-.74c-.61 0-1.08-.55-.99-1.15L32.99 24h-3.82c-1.2 0-2.29-.6-2.93-1.61l-1.13-1.61c-.54 2.67-1.22 6.17-1.35 6.85l2.32 2.79c.51.61.92 1.75.92 2.54V41c0 .55-.46 1-1.01 1h-1c-.55 0-1-.45-1-1v-8.48l-5.51-5.68c-.69-.71-.98-1.71-.79-2.68l1.13-5.57c-1.05.43-2.38.92-3.83 1.38v4.04c0 .55-.45 1-1 1h-1c-.55 0-1-.45-1-1V20.3c0-1.31.79-2.47 1.99-2.98.94-.39 5.87-2.39 6.96-2.77 2.05-.72 3.29.15 3.85.73.06.06 4.07 5.69 4.07 5.69l6.2.03Zm-10.5-8.35c1.84 0 3.33-1.49 3.33-3.33s-1.49-3.33-3.33-3.33-3.33 1.49-3.33 3.33 1.49 3.33 3.33 3.33ZM16.96 28.6l-2.7 12.18c-.14.62.34 1.22.98 1.22h1.19c.46 0 .86-.32.97-.76l2.37-9.73-2.81-2.91Z"/></svg>
