<svg xmlns="http://www.w3.org/2000/svg" viewBox="0 0 48 48"><title>Welzijnswerk</title><path d="m41.58 20.23-3.55-2.94v-6.22c0-.55-.45-1-1-1s-1 .45-1 1v4.57L24.64 6.23a.983.983 0 0 0-1.27 0l-16.95 14a.99.99 0 0 0-.13 1.41c.35.43.98.49 1.41.13l2.34-1.93V41c0 .55.45 1 1 1h26c.55 0 1-.45 1-1V19.89l2.28 1.88c.19.15.41.23.64.23.29 0 .57-.12.77-.36.35-.43.29-1.06-.13-1.41ZM24 35.04c-6.85-4.13-8.03-7.07-8.03-9.71 0-2.07 1.47-4.26 4.2-4.26s3.84 2.48 3.84 2.48 1.11-2.48 3.84-2.48 4.2 2.19 4.2 4.26c0 2.63-1.18 5.58-8.03 9.71Z"/></svg>
