<svg xmlns="http://www.w3.org/2000/svg" viewBox="0 0 48 48"><title>Werkzaamheden</title><path d="m20.74 23.67 1.14.04L21.2 25l-1.03 1.71-1.22-.61 1.15-2.02c.27-.41.53-.42.64-.42Zm3.55 1.98-1.37 2.44 1.64.82-.27-3.26Zm17.27 13.39c-.36.61-1.02.99-1.73.99H8.05c-.71 0-1.37-.38-1.73-.99s-.36-1.37-.01-1.99L22.2 9.01C22.56 8.38 23.22 8 23.94 8s1.38.39 1.74 1.01l15.89 28.04c.35.62.35 1.38-.01 1.99ZM25.04 21.43c0 .83.67 1.5 1.5 1.5s1.5-.67 1.5-1.5-.67-1.5-1.5-1.5-1.5.67-1.5 1.5Zm-1.39 10.44c0-.44-.13-.88-.38-1.25l-.68-1.02 3.99 1.99c.16-.23.37-.42.63-.53l.91-.37-1.99-1-.42-5c-.07-1.2-.67-2.41-1.79-2.41l-3.06-.12c-.44-.06-1.39.1-2.05 1.13l-1.44 2.51c-.28.5-.09 1.13.42 1.39l1.59.79-3.25 5.39a.751.751 0 1 0 1.29.77l3.04-5.04 1.56 2.33c.08.12.13.27.13.42v2.3c0 .41.34.75.75.75s.75-.34.75-.75v-2.3Zm10.06 1.95-2.4-4.34a.764.764 0 0 0-.63-.39h-.02c-.26 0-.5.13-.64.35l-1.08 1.72-1.44.58c-.18.07-.33.21-.4.39l-.76 1.72a.752.752 0 0 0 .69 1.05h6.04c.27 0 .51-.13.65-.36.14-.23.14-.5.01-.73Z"/></svg>
