<svg xmlns="http://www.w3.org/2000/svg" viewBox="0 0 48 48"><title>Wie is wie</title><path d="m41.37 30-7.57-7.57a1.983 1.983 0 0 0-2.82 0s-1.62-1.63-1.62-1.63a8.922 8.922 0 0 0 2.04-5.7c0-4.96-4.04-9-9-9s-9 4.04-9 9 4.04 9 9 9c2.08 0 3.99-.72 5.52-1.91l1.65 1.65-.05.05c-.78.78-.78 2.05 0 2.83l7.57 7.57c.39.39.9.59 1.41.59s1.02-.2 1.41-.59l1.46-1.46a1.983 1.983 0 0 0 0-2.82ZM22.4 22.1c-3.86 0-7-3.14-7-7s3.14-7 7-7 7 3.14 7 7-3.14 7-7 7ZM12.5 33c1.93 0 3.5-1.57 3.5-3.5S14.43 26 12.5 26 9 27.57 9 29.5s1.57 3.5 3.5 3.5Zm3.54 2H8.96c-1.65 0-2.95 1.25-2.95 2.8V41c0 .55.45 1 1 1h11c.55 0 1-.45 1-1v-3.48C18.86 36.11 17.6 35 16.05 35Z"/></svg>
