<svg xmlns="http://www.w3.org/2000/svg" viewBox="0 0 48 48"><title>Wijkteam</title><path d="M34.92 11.1c.22-.22.4-.48.55-.75.34.82.53 1.71.53 2.65 0 3.87-3.17 7-7.08 7-3.16 0-5.83-2.04-6.74-4.87-.14-.74.06-1.2.42-1.61.93-1.04 3.38-1.03 5.59-.97 2.57.06 5.21.13 6.73-1.46Zm-6.68-.54c2.12.05 4.32.1 5.22-.83.34-.36.51-.89.54-1.6a7.083 7.083 0 0 0-5.07-2.12c-3.4 0-6.24 2.37-6.92 5.53 1.6-1.08 3.95-1.03 6.24-.98Zm-15.19 6.99c1.81 0 3.27-1.47 3.27-3.27s-1.47-3.27-3.27-3.27-3.27 1.47-3.27 3.27 1.47 3.27 3.27 3.27Zm26.89 14.36c.5 1.69-1.1 3.25-2.78 2.71l-7.47-2.4 3.22-1.61c.69-.17 1.44-.13 1.55.02.32.45.95.56 1.39.23.45-.32.55-.94.23-1.39-1.04-1.46-3.03-1.07-3.49-.94-.06.02-.12.04-.18.07l-12.5 6.27c-1.6.69-3.28-.79-2.8-2.46l2-6.97c.62-1.46 2.32-3.43 4.86-3.43h10c3.31 0 3.87 3.07 4.29 4.31 0 .03.88 2.98 1.66 5.6Zm-13.83-4.46a.995.995 0 0 0-1.37-.34l-2.34 1.4c-.47.28-.63.9-.34 1.37.19.31.52.49.86.49.17 0 .35-.05.51-.14l2.34-1.4c.47-.28.63-.9.34-1.37ZM22 36v5c0 .55.45 1 1 1h12.03c.55 0 1-.45 1-1v-4.59l-8.91-2.91L22 36Zm-3.02-13.98c0-1.59-1.4-2.97-2.99-2.97h-5.98C8.42 19.05 7 20.43 7 22.02l.03 5.97c0 .55.45.99 1 .99h8.02c.74-2.93.76-2.99.78-3.07.78-2.85 2.15-3.9 2.15-3.9Z"/></svg>
