<svg xmlns="http://www.w3.org/2000/svg" viewBox="0 0 48 48"><title>Windenergie</title><path d="M39.03 40.02h-10.8l-1.2-16.31c0-.05-.03-.1-.04-.15l4.58 2.26c.15.07.31.12.48.12l5.87.06c.98 0 1.83-.69 2.01-1.65a2.02 2.02 0 0 0-1.61-2.36l-11.33-2.18a3.45 3.45 0 0 0-1.96-1.55l-.06-5.46c0-.17-.04-.33-.11-.48l-2.61-5.26a2.017 2.017 0 0 0-2.38-1.04 2.015 2.015 0 0 0-1.37 2.5l3.05 10.58a3.47 3.47 0 0 0-1.02 2.46c0 .08.02.16.02.24l-4.94 3c-.14.09-.26.2-.36.34l-3.2 4.92c-.53.82-.4 1.91.32 2.58.81.76 2.09.72 2.85-.09l5.62-5.95-.99 13.43H9.03c-.55 0-1 .45-1 1s.45 1 1 1h30c.55 0 1-.45 1-1s-.45-1-1-1ZM23.99 20.08c.82 0 1.48.66 1.48 1.48s-.66 1.48-1.48 1.48-1.48-.66-1.48-1.48.66-1.48 1.48-1.48Zm-1.77 14.87.74-10.08c.33.1.67.18 1.03.18.39 0 .76-.07 1.11-.19l.74 10.09h-3.63Z"/></svg>
