<svg xmlns="http://www.w3.org/2000/svg" viewBox="0 0 48 48"><title>Winkelwagen</title><path d="M16 40c0 1.1-.9 2-2 2s-2-.9-2-2 .9-2 2-2 2 .9 2 2Zm18.04-2c-1.08 0-1.96.88-1.96 1.96s.88 1.96 1.96 1.96S36 41.04 36 39.96 35.12 38 34.04 38Zm7.84-25.89-1.49 13.2c-.13 1.97-1.75 3.55-3.74 3.66l-12.64.02-2 .01h-6.23l-1.16 2.16c-.47.87-.13 1.62.04 1.9.17.28.66.94 1.65.94h18.7c.55 0 1 .45 1 1s-.45 1-1 1H16.48c-1.28 0-2.44-.51-3.17-1.39-1.05-1.28-1.22-2.96-.44-4.39l1.35-2.53-2.27-19.68H7.01c-.55 0-1-.45-1-1s.45-1 1-1h4.52c1.18 0 2.17.84 2.37 2l.25 3h26.73c.6 0 1.06.52.99 1.11ZM21.01 25c0-.55-.45-1-1-1h-2.04a.96.96 0 0 0-.96.96v.07c0 .53.43.96.96.96h2.04c.55 0 1-.45 1-1Zm0-5c0-.55-.45-1-1-1h-2.04a.96.96 0 0 0-.96.96v.07c0 .53.43.96.96.96h2.04c.55 0 1-.45 1-1Zm0-5c0-.55-.45-1-1-1h-2.04a.96.96 0 0 0-.96.96v.07c0 .53.43.96.96.96h2.04c.55 0 1-.45 1-1Zm8.02 10c0-.55-.45-1-1-1h-2.04a.96.96 0 0 0-.96.96v.07c0 .53.43.96.96.96h2.04c.55 0 1-.45 1-1Zm0-5c0-.55-.45-1-1-1h-2.04a.96.96 0 0 0-.96.96v.07c0 .53.43.96.96.96h2.04c.55 0 1-.45 1-1Zm0-5c0-.55-.45-1-1-1h-2.04a.96.96 0 0 0-.96.96v.07c0 .53.43.96.96.96h2.04c.55 0 1-.45 1-1Zm7.98 10c0-.55-.45-1-1-1h-2.04a.96.96 0 0 0-.96.96v.07c0 .53.43.96.96.96h2.04c.55 0 1-.45 1-1Zm0-5c0-.55-.45-1-1-1h-2.04a.96.96 0 0 0-.96.96v.07c0 .53.43.96.96.96h2.04c.55 0 1-.45 1-1Zm0-5c0-.55-.45-1-1-1h-2.04a.96.96 0 0 0-.96.96v.07c0 .53.43.96.96.96h2.04c.55 0 1-.45 1-1Z"/></svg>
