<svg xmlns="http://www.w3.org/2000/svg" viewBox="0 0 48 48"><title>WMO</title><path d="M7.01 38.9v-8c0-.55.45-1 1-1h3c.55 0 1 .45 1 1v8c0 .55-.45 1-1 1h-3c-.55 0-1-.45-1-1Zm29.41-2.55-10.38.66-2.87-.91a.928.928 0 0 1-.6-1.16c.15-.48.67-.75 1.15-.6l2.79.88 3.54-.3c-.01-.1-.32-2.6-3.48-3.49l-6.27-1.89-6.31.96v8.44l12.03 3.05 14.96-3.14s0-2.51-4.58-2.51Zm3.61-19.15c.41.36.45.98.1 1.39-.36.43-1 .47-1.41.1L37 17.17l-.06 17.17-5.03.22c-.18-1.44-1.19-3.67-4.43-4.61l-6.81-2.17c-.22-.07-.45-.09-.68-.06l-1.98.31V17.02l-1.58 1.44a1 1 0 0 1-1.42-.08.995.995 0 0 1 .09-1.4L26.84 6.57c.38-.33.94-.33 1.32 0l6.86 6.04v-1.6c0-.55.44-.99.99-.99h.01c.55 0 .99.44.99.99v3.52l3.03 2.66ZM31 22v-3c0-.55-.45-1-1-1h-5c-.55 0-1 .45-1 1v3c0 .55.45 1 1 1h5c.55 0 1-.45 1-1Z"/></svg>
