<svg xmlns="http://www.w3.org/2000/svg" viewBox="0 0 48 48"><title>Woning zoeken</title><path d="m41.37 30-7.57-7.57a1.983 1.983 0 0 0-2.82 0s-1.62-1.63-1.62-1.63a8.922 8.922 0 0 0 2.04-5.7c0-4.96-4.04-9-9-9s-9 4.04-9 9 4.04 9 9 9c2.08 0 3.99-.72 5.52-1.91l1.65 1.65-.05.05c-.78.78-.78 2.05 0 2.83l7.57 7.57c.39.39.9.59 1.41.59s1.02-.2 1.41-.59l1.46-1.46a1.983 1.983 0 0 0 0-2.82ZM22.4 22.1c-3.86 0-7-3.14-7-7s3.14-7 7-7 7 3.14 7 7-3.14 7-7 7ZM6 31.44V41c0 .55.45 1 1 1h7c.55 0 1-.45 1-1v-9.55c0-.28-.12-.56-.33-.74l-3.54-3.17c-.38-.34-.96-.34-1.34 0L6.33 30.7a1 1 0 0 0-.33.74ZM12.05 38c0 .55-.45 1-1 1h-1c-.55 0-1-.45-1-1s.45-1 1-1h1c.55 0 1 .45 1 1Zm0-4c0 .55-.45 1-1 1h-1c-.55 0-1-.45-1-1s.45-1 1-1h1c.55 0 1 .45 1 1ZM17 31.44V41c0 .55.45 1 1 1h7c.55 0 1-.45 1-1v-9.55c0-.28-.12-.56-.33-.74l-3.54-3.17c-.38-.34-.96-.34-1.34 0l-3.46 3.16a1 1 0 0 0-.33.74ZM23.05 38c0 .55-.45 1-1 1h-1c-.55 0-1-.45-1-1s.45-1 1-1h1c.55 0 1 .45 1 1Zm0-4c0 .55-.45 1-1 1h-1c-.55 0-1-.45-1-1s.45-1 1-1h1c.55 0 1 .45 1 1Z"/></svg>
