<svg xmlns="http://www.w3.org/2000/svg" viewBox="0 0 48 48"><title>WOZ waarde</title><path d="M43.83 39.51c.31.46.19 1.08-.27 1.39A6.328 6.328 0 0 1 40 42.01c-1.81 0-3.6-.8-4.96-2.35A8.133 8.133 0 0 1 33.51 37h-1.52c-.55 0-1-.45-1-1s.45-1 1-1h1.07a9.55 9.55 0 0 1 0-2h-1.08c-.55 0-1-.45-1-1s.45-1 1-1h1.52c.32-.92.8-1.79 1.43-2.54 2.26-2.69 5.8-3.24 8.61-1.35.46.31.58.93.27 1.39-.31.46-.93.58-1.39.27-1.93-1.3-4.38-.9-5.96.98-.32.38-.57.81-.79 1.26h4.31c.55 0 1 .45 1 1s-.45 1-1 1h-4.93c-.09.66-.09 1.34 0 2h4.92c.55 0 1 .45 1 1s-.45 1-1 1h-4.3c.23.48.5.94.86 1.34 1.6 1.83 3.96 2.19 5.89.89a.999.999 0 0 1 1.39.27Zm-6.48-19.04-.02.02c-.36.41-.98.45-1.39.1l-1.97-1.7v1.1h.02v6.57c-.2.2-.4.38-.58.59-.47.56-.87 1.17-1.21 1.83h-.21c-1.66 0-3 1.34-3 3v4H11.01c-.55 0-1-.44-1-1l.02-16.14-1.96 1.72a.983.983 0 0 1-1.39-.09h-.01a.997.997 0 0 1 .1-1.41L21.36 6.21a1 1 0 0 1 1.3 0l9.35 8.3v-2.54c0-.54.44-.98.98-.99.55 0 .99.44.99.99v4.27l3.27 2.83c.41.36.46.98.1 1.39ZM26 26v-4c0-.55-.45-1-1-1h-5.99c-.55 0-1 .45-1 1v4c0 .55.45 1 1 1H25c.55 0 1-.45 1-1Z"/></svg>
