<svg xmlns="http://www.w3.org/2000/svg" viewBox="0 0 48 48"><title>Zelfstandig wonen</title><path d="M13.02 21.5c0-1.38 1.12-2.5 2.49-2.5S18 20.12 18 21.5 16.88 24 15.51 24s-2.49-1.12-2.49-2.5Zm-1.69 18.35a4.45 4.45 0 0 1-3.18-3.18c-.57-2.23.54-4.27 2.33-5.17.33-.17.52-.51.52-.88 0-.76-.8-1.25-1.47-.9-2.4 1.24-3.94 3.93-3.43 6.91.45 2.66 2.6 4.81 5.26 5.27 2.98.51 5.67-1.03 6.91-3.43.34-.67-.14-1.47-.89-1.47-.37 0-.71.2-.88.52a4.499 4.499 0 0 1-5.17 2.33Zm9.7-7.85H18v-4c0-1.38-1.12-2.5-2.49-2.5S13 26.62 13 28v4.53c0 1.36 1.11 2.47 2.47 2.47H21v7h3v-7.03c0-1.64-1.34-2.97-2.97-2.97Zm21.32-11.49-.02.02c-.36.41-.98.45-1.39.1l-1.97-1.7.03 16.11c0 .54-.44.99-.99.99H26v-1.06c0-2.74-2.23-4.97-4.97-4.97H20v-2c0-1.28-.53-2.43-1.39-3.25a4.498 4.498 0 0 0-3.1-7.75c-.63 0-1.23.13-1.77.37l12.61-11.1c.37-.32.92-.32 1.29 0l9.35 8.3v-2.54c0-.54.44-.98.98-.99.55 0 .99.44.99.99v4.27l3.27 2.83c.41.36.46.98.1 1.39Zm-11.34 2.51c0-.54-.44-.99-.99-.99H24a1 1 0 0 0-1 .99v4.01c0 .55.45.99 1 .99h6.02c.54 0 .99-.44.99-.99V23Z"/></svg>
