<svg xmlns="http://www.w3.org/2000/svg" viewBox="0 0 48 48"><title>Zelfbeheer tegel</title><path d="M38 23.1V30c0 1.28-.61 2.41-1.54 2.89-.15.07-.3.11-.45.11-.36 0-.71-.2-.89-.54-.25-.49-.06-1.09.44-1.35.22-.11.46-.57.46-1.11V20h2c.55 0 1-.45 1-1V9c0-1.66-1.34-3-3-3h-2c-1.66 0-3 1.34-3 3v10c0 .55.45 1 1 1h2v3h-1c-2.76 0-5 2.24-5 5 0 3.87 3.13 13 7 13s7-9.13 7-13a5 5 0 0 0-4-4.9Zm-29.21-.9c.28.09.56.15.83.18a4.03 4.03 0 0 0 2.69 7.03c1.25 0 2.48-.58 3.27-1.66.17-.24.31-.48.42-.74.11.26.25.5.42.74a4.019 4.019 0 0 0 3.27 1.66 4.03 4.03 0 0 0 2.69-7.03c.28-.03.56-.09.83-.18a4.029 4.029 0 0 0 2.59-5.08 4.055 4.055 0 0 0-3.84-2.79c-.41 0-.83.06-1.25.2-.27.09-.54.21-.78.35A4.03 4.03 0 0 0 15.99 10a4.037 4.037 0 0 0-3.94 4.88c-.24-.14-.5-.26-.78-.35a4.02 4.02 0 0 0-5.08 2.59c-.69 2.12.47 4.39 2.59 5.08Zm7.22-5.34c1.86 0 3.37 1.51 3.37 3.37s-1.51 3.37-3.37 3.37-3.37-1.51-3.37-3.37 1.51-3.37 3.37-3.37ZM26 33.01c-.56 4.61-4.38 8.59-9.01 8.98h-1.94c-4.64-.39-8.49-4.37-9.04-8.99a.998.998 0 0 1 1.11-1.11c3.5.42 6.51 3.01 7.88 6.14V31c0-.56.46-1.01 1.02-.99h.02a.993.993 0 0 1 1.02.99v7.03c1.37-3.13 4.34-5.71 7.84-6.14.64-.08 1.2.48 1.12 1.12Z"/></svg>
