<svg xmlns="http://www.w3.org/2000/svg" viewBox="0 0 48 48"><title>Zoeken</title><path d="m37.75 32.83-7.88-7.88a1.983 1.983 0 0 0-2.82 0l-.35.35-2.11-2.11a10.45 10.45 0 0 0 2.42-6.7c0-5.79-4.71-10.5-10.5-10.5s-10.5 4.71-10.5 10.5 4.71 10.5 10.5 10.5c2.53 0 4.85-.9 6.66-2.39l2.11 2.11-.35.35c-.78.78-.78 2.05 0 2.83l7.88 7.88 4.95-4.95ZM16.5 25C11.81 25 8 21.19 8 16.5S11.81 8 16.5 8s8.5 3.81 8.5 8.5-3.81 8.5-8.5 8.5Zm25.38 12.78c0 .53-.21 1.04-.59 1.41l-2.12 2.12c-.39.39-.9.59-1.41.59s-1.02-.2-1.41-.59l-2.12-2.12 4.95-4.95 2.12 2.12c.38.38.59.88.59 1.41Z"/></svg>
