<svg xmlns="http://www.w3.org/2000/svg" viewBox="0 0 48 48"><title>Zwemmen</title><path d="M28.54 18.47c0-1.93 1.57-3.5 3.5-3.5s3.5 1.57 3.5 3.5-1.57 3.5-3.5 3.5-3.5-1.57-3.5-3.5Zm-11.71 3.77c1.51 0 3.03.49 4.2 1.48 1.58 1.33 4.26 1.33 5.84 0 .52-.43 1.1-.75 1.72-.99l-3.49-6.69A5.461 5.461 0 0 0 20.18 13h-6.71c-.83 0-1.5.67-1.5 1.5s.67 1.5 1.5 1.5h6.71c.95 0 1.81.53 2.25 1.4l.57.79-6.17 4.04Zm25.04 5.07a1 1 0 0 0-1.36-.39c-1.64.9-3.83.72-5.21-.43-2.36-1.97-6.05-1.97-8.41 0-1.58 1.33-4.26 1.33-5.84 0-1.18-.99-2.69-1.48-4.2-1.48s-3.03.49-4.2 1.48c-1.35 1.13-3.51 1.33-5.14.47a.996.996 0 0 0-1.35.42.996.996 0 0 0 .42 1.35c2.35 1.24 5.38.95 7.36-.71 1.58-1.33 4.26-1.33 5.84 0 2.36 1.97 6.05 1.97 8.41 0 1.58-1.33 4.26-1.33 5.84 0 2.02 1.69 5.09 1.96 7.46.65.48-.27.66-.88.39-1.36Zm-.02 5.5a1 1 0 0 0-1.36-.39c-1.64.9-3.83.72-5.21-.43-2.36-1.97-6.05-1.97-8.41 0-1.58 1.33-4.26 1.33-5.84 0-1.18-.99-2.69-1.48-4.2-1.48s-3.03.49-4.2 1.48c-1.35 1.13-3.51 1.33-5.14.47a.996.996 0 0 0-1.35.42.996.996 0 0 0 .42 1.35c2.35 1.24 5.38.95 7.36-.71 1.58-1.33 4.26-1.33 5.84 0 2.36 1.97 6.05 1.97 8.41 0 1.58-1.33 4.26-1.33 5.84 0 2.02 1.69 5.09 1.96 7.46.65.48-.27.66-.88.39-1.36Z"/></svg>
