<svg xmlns="http://www.w3.org/2000/svg" viewBox="0 0 48 48"><title>Zwemabonnement</title><path d="M28.56 31.47c0-1.93 1.57-3.5 3.5-3.5s3.5 1.57 3.5 3.5-1.57 3.5-3.5 3.5-3.5-1.57-3.5-3.5Zm-7.5 5.25c1.58 1.33 4.26 1.33 5.84 0 .52-.43 1.1-.75 1.72-.99l-3.49-6.69A5.461 5.461 0 0 0 20.21 26H13.5c-.83 0-1.5.67-1.5 1.5s.67 1.5 1.5 1.5h6.71c.95 0 1.81.53 2.25 1.4l.57.79-6.17 4.04c1.51 0 3.03.49 4.2 1.48Zm20.78 3.01a1 1 0 0 0-1.36-.39c-1.64.9-3.83.72-5.21-.43-2.36-1.97-6.05-1.97-8.41 0-1.58 1.33-4.26 1.33-5.84 0-1.18-.99-2.69-1.48-4.2-1.48s-3.03.49-4.2 1.48c-1.35 1.13-3.51 1.33-5.14.47a.996.996 0 0 0-1.35.42.996.996 0 0 0 .42 1.35c2.35 1.24 5.38.95 7.36-.71 1.58-1.33 4.26-1.33 5.84 0 2.36 1.97 6.05 1.97 8.41 0 1.58-1.33 4.26-1.33 5.84 0 2.02 1.69 5.09 1.96 7.46.65.48-.27.66-.88.39-1.36ZM6 17.98V9.01C6 7.35 7.36 6 9.04 6h15.92c1.68 0 3.05 1.35 3.05 3.02v8.97c0 1.66-1.36 3.01-3.03 3.01H9.06c-1.68 0-3.04-1.35-3.04-3.02ZM19 12c0 .55.45 1 1 1h4c.55 0 1-.45 1-1s-.45-1-1-1h-4c-.55 0-1 .45-1 1Zm0 4c0 .55.45 1 1 1h3c.55 0 1-.45 1-1s-.45-1-1-1h-3c-.55 0-1 .45-1 1Zm-8.23-4.25c0 .97.78 1.75 1.73 1.75s1.73-.78 1.73-1.75S13.45 10 12.5 10s-1.73.78-1.73 1.75ZM9 15.93c.07.48.5 1 1 1h5c.5 0 .93-.38 1-.86v-.14c-.17-1.08-2.38-1.62-3.5-1.62s-3.33.55-3.5 1.62Z"/></svg>
