<svg xmlns="http://www.w3.org/2000/svg" viewBox="0 0 48 48"><title>Paspoort Idkaart Gecombineerd</title><path d="M38.95 25.94H31v3h-2v-3h-7.96c-1.68 0-3.04 1.35-3.04 3.01v9.97c0 1.66 1.37 3.02 3.04 3.02h17.92c1.67 0 3.03-1.35 3.03-3.01v-9.98c0-1.66-1.37-3.02-3.05-3.02ZM26.5 30.93c.97 0 1.75.79 1.75 1.77s-.78 1.77-1.75 1.77-1.75-.79-1.75-1.77.78-1.77 1.75-1.77Zm3.5 7.01h-7v-.88c0-1.18 2.33-1.77 3.5-1.77s3.5.59 3.5 1.77v.88Zm6 0h-4v-2h4v2Zm1-4h-5v-2h5v2ZM21.39 21.37l1.63 1.62h-2.44l-.4-.4 1.22-1.22ZM15.08 17h1.97v3.95l-2.51-2.51v-1.47h-2.59v1.75h.08v.04l1.2 1.2L10 23.19l1.41 1.41 3.23-3.23 1.22 1.22-3.4 3.4 1.41 1.41 1.69-1.69c-.36.69-.58 1.46-.58 2.28v4.95h-4v2h4v5H9.01a3 3 0 0 1-2.99-3L5.97 10.4c0-2.46 1.99-4.46 4.46-4.46h12.83c1.73 0 3.15 1.31 3.39 3H10.56C9.7 8.94 9 9.64 9 10.5s.67 1.5 1.5 1.5l16.48-.05c1.67 0 3.02 1.39 3.02 3.06v7.98h-4.16l-3.04-3.03 1.2-1.2-.04-.04h.07v-1.75h-2.59v1.52l-2.38 2.38v-5.88h-3.97v2Z"/></svg>