<svg xmlns="http://www.w3.org/2000/svg" viewBox="0 0 48 48"><title>Paspoort</title><path d="m32.99 12.01-16.48.05c-.83 0-1.5-.67-1.5-1.5S15.71 9 16.57 9h16.09c-.24-1.69-1.66-3-3.39-3H16.44c-2.46 0-4.46 2-4.46 4.46L12.03 39a3 3 0 0 0 2.99 3h17.96c1.66 0 3.01-1.35 3.01-3.01V15.02c0-1.67-1.35-3.02-3.02-3.01ZM30.01 37h-12v-2h12v2Zm.52-10.38-3.23-3.23-1.22 1.22 3.4 3.4-1.41 1.41-3.09-3.09v4.69h-2v-4.77l-3.17 3.17-1.41-1.41 3.4-3.4-1.22-1.22-3.23 3.23-1.41-1.41 3.23-3.23-1.2-1.2v-.04h-.09v-1.75h2.59v1.47l2.51 2.51v-3.95h-1.97v-2h3.97v5.88l2.38-2.38V19h2.59v1.75h-.07l.04.04-1.2 1.2 3.23 3.23-1.41 1.41Z"/></svg>